
CASCADE Topology V3, (c) Open Cascade
Locations 0
Curve2ds 234
1 -6.6119205298012957 2.034437086092737 0 -1 
1 -6.6119205298012957 -2.0344370860927086 1 0 
1 -16.275496688741711 20.344370860927171 1 0 
1 6.6119205298013384 -2.0344370860927086 0 1 
1 6.6119205298013384 2.034437086092737 -1 0 
1 35.725177603853041 -3.5941721854304092 -1 0 
1 20.344370860927157 -20.344370860927143 -1 0 
1 -0.89468994581582706 -3.5941721854304092 0 1 
1 -16.275496688741711 -20.344370860927143 0 1 
1 -24.304474352583711 -4.9195945785563708 1 0 
1 -3.0516556291390771 20.344370860927171 1 0 
1 -4.9773220347029081 -4.9195945785563708 0 -1 
1 16.275496688741725 20.344370860927171 0 -1 
1 -2.0344370860927228 8.985430463576165 0 -1 
1 16.275496688741725 -2.3735099337748125 0 -1 
1 -2.0344370860927228 8.985430463576165 0 -1 
1 -2.0344370860927228 -8.985430463576165 1 0 
1 2.0344370860927086 -8.985430463576165 0 1 
1 -46.283443708609255 -22.548344370860946 0 1 
1 2.0344370860927086 -8.985430463576165 0 1 
1 2.0344370860927086 8.985430463576165 -1 0 
1 -0.90844786251747678 -27.637475373258354 0 1 
1 -46.283443708609255 -4.5774834437086156 0 1 
1 -0.90844786251747678 10.338683567138986 1 0 
1 -46.283443708609255 33.398675496688725 1 0 
1 -17.123178807947021 -2.0344370860927086 1 0 
1 -17.123178807947014 33.398675496688725 1 0 
1 -17.123178807947021 -2.0344370860927086 1 0 
1 -19.314594064262934 -0.49605101790533013 1 0 
1 17.123178807947028 33.398675496688725 1 0 
1 9.8456708363993197 -0.49605101790533013 0 -1 
1 46.283443708609283 33.398675496688725 0 -1 
1 -2.0344370860927152 17.292715231788065 0 -1 
1 46.283443708609283 24.921854304635758 0 -1 
1 -2.0344370860927152 17.292715231788065 0 -1 
1 -2.0344370860927152 2.7125827814569732 0 -1 
1 46.283443708609283 -9.6635761589404012 0 -1 
1 -2.0344370860927148 9.1549668874172312 0 -1 
1 46.283443708609283 -15.088741721854319 0 -1 
1 -2.0344370860927148 9.1549668874172312 0 -1 
1 42.436818965997006 7.4539039456842318 -1 0 
1 50.352317880794715 -33.398675496688753 -1 0 
1 9.154966887417217 2.034437086092737 -1 0 
1 -27.973509933774821 -33.398675496688753 -1 0 
1 9.154966887417217 2.034437086092737 -1 0 
1 35.725177603853041 -18.513377483443634 0 1 
1 -46.283443708609255 -37.46754966887417 0 1 
1 17.123178807947021 -2.0344370860927086 0 1 
1 17.123178807947021 2.034437086092737 -1 0 
1 -17.123178807947021 2.034437086092737 0 -1 
1 -2.0344370860927152 -17.292715231788094 1 0 
1 -13.054304635761589 26.956291390728467 0 -1 
1 2.0344370860927152 17.292715231788065 0 -1 
1 2.0344370860927152 17.292715231788065 -1 0 
1 -2.0344370860927148 -9.1549668874172028 1 0 
1 -13.054304635761589 -13.054304635761611 0 -1 
1 2.0344370860927157 9.1549668874172312 0 -1 
1 2.0344370860927157 9.1549668874172312 -1 0 
1 9.154966887417217 -2.0344370860926801 0 1 
1 -9.154966887417217 2.034437086092737 0 -1 
1 -9.154966887417217 -2.0344370860926801 1 0 
1 38.967877292783726 56.483519972607226 1 0 
1 -9.154966887417217 -2.0344370860926801 1 0 
1 13.054304635761586 35.433112582781433 -1 0 
1 -13.054304635761589 35.433112582781433 0 -1 
1 -13.054304635761589 -7.6291390728476927 0 -1 
1 -13.054304635761589 -31.364238410596045 0 -1 
1 -13.054304635761589 -35.433112582781462 1 0 
1 13.054304635761586 -35.433112582781462 0 1 
1 9.4940397350993351 2.0344370860927086 -1 0 
1 71.518870670267162 30.035837853401929 -1 0 
1 -5.7230769230769027 74.323382577687212 -1 0 
1 52.530791200068492 30.035837853401929 -1 0 
1 -9.7919510952623341 74.323382577687212 0 -1 
1 48.461917027883061 30.035837853401929 0 -1 
1 -9.7919510952623341 -33.840855832908829 -1 0 
1 48.461917027883061 -78.128400557194112 -1 0 
1 12.20662251655628 2.0344370860927121 -1 0 
1 -21.04801674695139 -78.128400557194112 -1 0 
1 12.20662251655628 2.0344370860927121 -1 0 
1 41.755196890986184 -26.255811555696532 0 1 
1 -45.46126178006395 -82.197274729379529 0 1 
1 41.755196890986184 44.949486457548502 -1 0 
1 -45.46126178006395 -10.991976716134502 -1 0 
1 9.6635761589404012 2.0344370860927086 -1 0 
1 -49.530135952249395 -10.991976716134502 -1 0 
1 9.6635761589404012 2.0344370860927086 -1 0 
1 5.2822977900140984 -5.7909070615373253 0 1 
1 -68.857288270130198 -15.060850888319933 0 1 
1 2.0344370860926517 -22.378807947019894 0 1 
1 -68.857288270130198 0.53650010505754153 0 1 
1 29.030700479190187 -34.973434555537722 0 1 
1 -68.857288270130198 45.294115999097286 0 1 
1 29.030700479190187 -23.784030582027782 1 0 
1 -68.857288270130198 56.483519972607226 1 0 
1 -9.3245033112582689 -2.0344370860927086 1 0 
1 -49.869208799931499 56.483519972607226 1 0 
1 -9.3245033112582689 -2.0344370860927086 1 0 
1 -34.462901866345646 -18.513377483443634 1 0 
1 -31.220202177414961 56.483519972607226 1 0 
1 -30.394027694160201 -18.513377483443634 0 1 
1 -27.151328005229516 56.483519972607226 0 1 
1 -30.394027694160201 -11.053774834437007 1 0 
1 -27.151328005229516 63.943122621613853 1 0 
1 -4.9635641180012726 -11.053774834437007 0 -1 
1 -1.7208644290705877 63.943122621613853 0 -1 
1 -4.9635641180012726 -18.513377483443634 1 0 
1 -1.7208644290705877 56.483519972607226 1 0 
1 -0.89468994581582706 -18.513377483443634 0 1 
1 2.3480097431148579 56.483519972607226 0 1 
1 -0.89468994581582706 -7.6630463576158263 1 0 
1 2.3480097431148579 67.333851098435034 1 0 
1 31.65630343166761 -7.6630463576158263 0 -1 
1 34.899003120598294 67.333851098435034 0 -1 
1 31.65630343166761 -18.513377483443634 1 0 
1 34.899003120598294 56.483519972607226 1 0 
1 -35.88900884857253 3.3850297734988146 1 0 
1 57.27781106761816 56.483519972607226 1 0 
1 -21.647949245923527 3.3850297734988146 0 -1 
1 71.518870670267162 56.483519972607226 0 -1 
1 9.4940397350993351 -2.034437086092737 0 1 
1 -9.4940397350993351 2.0344370860927086 0 -1 
1 -9.4940397350993351 -2.034437086092737 1 0 
1 -39.501986754966879 32.890066225165569 1 0 
1 12.20662251655628 -2.0344370860927157 0 1 
1 -12.20662251655628 2.0344370860927121 0 -1 
1 -12.20662251655628 -2.0344370860927157 1 0 
1 9.6635761589404012 -2.0344370860927228 0 1 
1 -9.6635761589404012 2.0344370860927086 0 -1 
1 -9.6635761589404012 -2.0344370860927228 1 0 
1 17.396436723624618 31.091396553721907 1 0 
1 -9.6635761589404012 -2.0344370860927228 1 0 
1 -2.0344370860927654 -22.378807947019894 1 0 
1 2.0344370860926517 22.378807947019851 -1 0 
1 -2.0344370860927654 22.378807947019851 0 -1 
1 9.3245033112582689 -2.0344370860927086 0 1 
1 9.3245033112582689 2.0344370860927086 -1 0 
1 41.027814569536417 -33.398675496688753 -1 0 
1 9.3245033112582689 2.0344370860927086 -1 0 
1 -9.3245033112582689 2.0344370860927086 0 -1 
1 -21.647949245923527 -27.131526517891928 1 0 
1 -20.513907284768209 32.890066225165569 1 0 
1 -8.8158940397350918 -2.0344370860927086 1 0 
1 -16.445033112582777 32.890066225165569 1 0 
1 -8.8158940397350918 -2.0344370860927086 1 0 
1 -27.546774349862702 1.3132870295590351 1 0 
1 1.1867549668874204 32.890066225165569 1 0 
1 10.768457438216771 1.3132870295590351 0 -1 
1 39.501986754966893 32.890066225165569 0 -1 
1 -2.0344370860927152 16.784105960264895 0 -1 
1 39.501986754966893 13.901986754966899 0 -1 
1 73.280896586856869 17.698217014773292 0 -1 
1 39.501986754966893 -19.666225165562906 0 -1 
1 73.280896586856869 4.4743759551706432 -1 0 
1 39.501986754966893 -32.890066225165555 -1 0 
1 -5.7230769230769027 4.4743759551706432 0 1 
1 -39.501986754966879 -32.890066225165555 0 1 
1 37.686322718800739 44.949486457548502 0 -1 
1 36.72358904150542 35.160270725907338 0 -1 
1 37.686322718800739 -22.186937383511104 -1 0 
1 36.72358904150542 -31.976153115152268 -1 0 
1 -35.89248522821913 -22.186937383511104 0 1 
1 -36.855218905514448 -31.976153115152268 0 1 
1 -35.89248522821913 40.880612285363071 1 0 
1 -36.855218905514448 31.091396553721907 1 0 
1 -16.614569536423829 -2.0344370860927086 1 0 
1 -30.41283479955419 31.091396553721907 1 0 
1 -9.2978346603170223 -5.7909070615373253 1 0 
1 2.8163042732934969 31.091396553721907 1 0 
1 -30.259574764726409 10.648672011153764 1 0 
1 6.442384105960258 33.398675496688725 1 0 
1 4.3258556988497503 10.648672011153764 0 -1 
1 41.027814569536417 33.398675496688725 0 -1 
1 -2.034437086092737 8.8158940397351273 0 -1 
1 41.027814569536417 -8.3072847682119288 0 -1 
1 -34.462901866345646 -6.9849006622515901 0 -1 
1 41.027814569536417 -25.939072847682127 0 -1 
1 48.018779949388886 -19.715156409842365 -1 0 
1 22.37880794701988 -33.398675496688753 -1 0 
1 -15.387842567167411 -19.715156409842365 0 1 
1 -41.027814569536417 -33.398675496688753 0 1 
1 -15.387842567167411 47.082194583535113 1 0 
1 -41.027814569536417 33.398675496688725 1 0 
1 -17.123178807947028 -2.0344370860927086 1 0 
1 -27.803973509933769 33.398675496688725 1 0 
1 -17.123178807947028 -2.0344370860927086 1 0 
1 8.815894039735106 -2.0344370860927086 0 1 
1 8.815894039735106 2.034437086092737 -1 0 
1 -10.341721854304641 -13.223841059602677 -1 0 
1 8.815894039735106 2.034437086092737 -1 0 
1 -8.8158940397350918 2.034437086092737 0 -1 
1 -2.0344370860927152 -16.78410596026491 1 0 
1 2.0344370860927152 -16.78410596026491 0 1 
1 2.0344370860927152 16.784105960264895 -1 0 
1 16.614569536423858 -2.0344370860927086 0 1 
1 16.614569536423858 2.0344370860927228 -1 0 
1 -16.614569536423829 2.0344370860927228 0 -1 
1 -2.034437086092737 -8.8158940397350705 1 0 
1 2.0344370860927086 -8.8158940397350705 0 1 
1 -12.715231788079478 -22.039735099337747 0 1 
1 2.0344370860927086 8.8158940397351273 -1 0 
1 17.123178807946999 -2.0344370860927086 0 1 
1 17.123178807946999 2.034437086092737 -1 0 
1 -17.123178807947028 2.034437086092737 0 -1 
1 -17.579075073738096 -27.131526517891928 0 1 
1 -27.973509933774839 -17.292715231788122 0 1 
1 -17.579075073738096 3.3850297734988146 1 0 
1 -27.973509933774839 13.22384105960262 1 0 
1 38.367944793811574 3.3850297734988146 0 -1 
1 27.973509933774828 13.22384105960262 0 -1 
1 -2.0344370860927152 7.1205298013245226 0 -1 
1 27.973509933774828 5.0860927152317572 0 -1 
1 10.768457438216771 9.4510353739298978 0 -1 
1 27.973509933774828 -9.1549668874172596 0 -1 
1 10.768457438216771 5.3821612017444806 -1 0 
1 27.973509933774828 -13.223841059602677 -1 0 
1 8.3947298710351959 -31.05728825374689 0 1 
1 -12.715231788079478 -4.4079470198675494 0 1 
1 8.3947298710351959 -4.6096061345415933 1 0 
1 -12.715231788079478 22.039735099337747 1 0 
1 -6.1033112582781541 -2.0344370860927086 1 0 
1 -0.50860927152319846 22.039735099337747 1 0 
1 -5.9807826610476411 37.094569536423904 1 0 
1 11.698013245033081 22.039735099337747 1 0 
1 -4.9635641180012726 37.094569536423904 0 -1 
1 12.71523178807945 22.039735099337747 0 -1 
1 -4.9635641180012726 -6.9849006622515901 -1 0 
1 12.71523178807945 -22.039735099337747 -1 0 
1 -2.0344370860927152 -7.1205298013244942 1 0 
1 2.0344370860927152 -7.1205298013244942 0 1 
1 2.0344370860927152 7.1205298013245226 -1 0 
1 6.1033112582781257 -2.0344370860927086 0 1 
1 6.1033112582781257 2.034437086092737 -1 0 
1 -6.1033112582781541 2.034437086092737 0 -1 
Curves 135
1 129.86490066225164 219.5496688741722 0 0 -1 0 
1 129.86490066225164 215.48079470198675 0 -1 0 0 
1 116.64105960264901 215.48079470198675 0 0 1 0 
1 116.64105960264901 219.5496688741722 0 1 0 0 
1 93.245033112582774 174.79205298013244 0 1 0 0 
1 129.86490066225164 174.79205298013244 0 0 1 0 
1 116.64105960264901 215.48079470198675 0 -1 0 0 
1 97.313907284768206 215.48079470198675 0 0 -1 0 
1 97.313907284768206 192.76291390728477 0 0 -1 0 
1 97.313907284768206 174.79205298013244 0 -1 0 0 
1 93.245033112582774 174.79205298013244 0 0 1 0 
1 93.245033112582774 192.76291390728477 0 1 0 0 
1 93.245033112582774 192.76291390728477 0 0 1 0 
1 93.245033112582774 230.73907284768211 0 -1 0 0 
1 64.084768211920533 230.73907284768211 0 -1 0 0 
1 29.838410596026492 230.73907284768211 0 -1 0 0 
1 0.67814569536423841 230.73907284768211 0 0 -1 0 
1 0.67814569536423841 222.26225165562914 0 0 -1 0 
1 0.67814569536423841 187.67682119205298 0 0 -1 0 
1 0.67814569536423841 182.25165562913907 0 0 -1 0 
1 -3.3907284768211921 163.94172185430463 0 1 0 0 
1 74.935099337748341 163.94172185430463 0 1 0 0 
1 93.245033112582774 159.87284768211921 0 0 1 0 
1 29.838410596026492 230.73907284768211 0 0 1 0 
1 29.838410596026492 234.80794701986756 0 1 0 0 
1 64.084768211920533 234.80794701986756 0 0 -1 0 
1 0.67814569536423841 187.67682119205298 0 -1 0 0 
1 -3.3907284768211921 222.26225165562914 0 0 -1 0 
1 -3.3907284768211921 222.26225165562914 0 1 0 0 
1 0.67814569536423841 163.94172185430463 0 -1 0 0 
1 -3.3907284768211921 182.25165562913907 0 0 -1 0 
1 -3.3907284768211921 182.25165562913907 0 1 0 0 
1 74.935099337748341 159.87284768211921 0 0 1 0 
1 93.245033112582774 163.94172185430463 0 0 -1 0 
1 93.245033112582774 159.87284768211921 0 -1 0 0 
1 -29.499337748344367 230.73907284768211 0 1 0 0 
1 -3.3907284768211921 230.73907284768211 0 0 -1 0 
1 -3.3907284768211921 187.67682119205298 0 0 -1 0 
1 -3.3907284768211921 163.94172185430463 0 0 -1 0 
1 -3.3907284768211921 159.87284768211921 0 -1 0 0 
1 -29.499337748344367 159.87284768211921 0 0 1 0 
1 60.694039735099338 133.42516556291392 0 1 0 0 
1 79.682119205298008 133.42516556291392 0 1 0 0 
1 83.750993377483439 133.42516556291392 0 0 -1 0 
1 83.750993377483439 25.26092715231788 0 1 0 0 
1 153.26092715231789 25.26092715231788 0 1 0 0 
1 177.67417218543045 21.192052980132452 0 0 1 0 
1 177.67417218543045 92.397350993377486 0 1 0 0 
1 181.7430463576159 92.397350993377486 0 1 0 0 
1 201.0701986754967 88.328476821192055 0 0 1 0 
1 201.0701986754967 103.92582781456953 0 0 1 0 
1 201.0701986754967 148.68344370860927 0 0 1 0 
1 201.0701986754967 159.87284768211921 0 -1 0 0 
1 182.082119205298 159.87284768211921 0 -1 0 0 
1 163.43311258278146 159.87284768211921 0 -1 0 0 
1 159.36423841059602 159.87284768211921 0 0 1 0 
1 159.36423841059602 167.33245033112584 0 -1 0 0 
1 133.93377483443709 167.33245033112584 0 0 -1 0 
1 133.93377483443709 159.87284768211921 0 -1 0 0 
1 129.86490066225164 159.87284768211921 0 0 1 0 
1 129.86490066225164 170.72317880794702 0 -1 0 0 
1 97.313907284768206 170.72317880794702 0 0 -1 0 
1 97.313907284768206 159.87284768211921 0 -1 0 0 
1 74.935099337748341 159.87284768211921 0 -1 0 0 
1 60.694039735099338 159.87284768211921 0 0 -1 0 
1 60.694039735099338 129.35629139072847 0 0 1 0 
1 79.682119205298008 133.42516556291392 0 0 -1 0 
1 79.682119205298008 129.35629139072847 0 -1 0 0 
1 153.26092715231789 21.192052980132452 0 0 1 0 
1 177.67417218543045 25.26092715231788 0 0 -1 0 
1 177.67417218543045 21.192052980132452 0 -1 0 0 
1 181.7430463576159 88.328476821192055 0 0 1 0 
1 201.0701986754967 92.397350993377486 0 0 -1 0 
1 201.0701986754967 88.328476821192055 0 -1 0 0 
1 205.13907284768212 103.92582781456953 0 -1 0 0 
1 201.0701986754967 148.68344370860927 0 1 0 0 
1 205.13907284768212 148.68344370860927 0 0 -1 0 
1 163.43311258278146 159.87284768211921 0 0 1 0 
1 163.43311258278146 163.94172185430463 0 1 0 0 
1 182.082119205298 163.94172185430463 0 0 -1 0 
1 60.694039735099338 129.35629139072847 0 -1 0 0 
1 56.625165562913907 129.35629139072847 0 -1 0 0 
1 38.993377483443709 129.35629139072847 0 -1 0 0 
1 0.67814569536423841 129.35629139072847 0 0 -1 0 
1 0.67814569536423841 110.3682119205298 0 0 -1 0 
1 0.67814569536423841 76.799999999999997 0 0 -1 0 
1 0.67814569536423841 63.576158940397349 0 1 0 0 
1 79.682119205298008 63.576158940397349 0 0 1 0 
1 181.7430463576159 92.397350993377486 0 0 -1 0 
1 181.7430463576159 25.26092715231788 0 1 0 0 
1 255.32185430463576 25.26092715231788 0 0 1 0 
1 255.32185430463576 88.328476821192055 0 -1 0 0 
1 248.87947019867551 88.328476821192055 0 -1 0 0 
1 215.65033112582782 88.328476821192055 0 -1 0 0 
1 198.01854304635762 230.73907284768211 0 -1 0 0 
1 163.43311258278146 230.73907284768211 0 0 -1 0 
1 163.43311258278146 189.03311258278146 0 0 -1 0 
1 163.43311258278146 171.40132450331126 0 0 -1 0 
1 182.082119205298 163.94172185430463 0 1 0 0 
1 245.4887417218543 163.94172185430463 0 0 1 0 
1 245.4887417218543 230.73907284768211 0 -1 0 0 
1 232.26490066225165 230.73907284768211 0 -1 0 0 
1 38.993377483443709 129.35629139072847 0 0 1 0 
1 38.993377483443709 133.42516556291392 0 1 0 0 
1 56.625165562913907 133.42516556291392 0 0 -1 0 
1 0.67814569536423841 76.799999999999997 0 -1 0 0 
1 -3.3907284768211921 76.799999999999997 0 0 1 0 
1 -3.3907284768211921 110.3682119205298 0 1 0 0 
1 215.65033112582782 88.328476821192055 0 0 1 0 
1 215.65033112582782 92.397350993377486 0 1 0 0 
1 248.87947019867551 92.397350993377486 0 0 -1 0 
1 163.43311258278146 171.40132450331126 0 -1 0 0 
1 159.36423841059602 171.40132450331126 0 0 1 0 
1 159.36423841059602 189.03311258278146 0 1 0 0 
1 198.01854304635762 230.73907284768211 0 0 1 0 
1 198.01854304635762 234.80794701986756 0 1 0 0 
1 232.26490066225165 234.80794701986756 0 0 -1 0 
1 56.625165562913907 129.35629139072847 0 0 1 0 
1 56.625165562913907 159.87284768211921 0 -1 0 0 
1 0.67814569536423841 159.87284768211921 0 0 -1 0 
1 0.67814569536423841 151.73509933774835 0 0 -1 0 
1 0.67814569536423841 137.49403973509934 0 0 -1 0 
1 0.67814569536423841 133.42516556291392 0 1 0 0 
1 159.36423841059602 189.03311258278146 0 0 1 0 
1 159.36423841059602 215.48079470198675 0 -1 0 0 
1 147.15761589403974 215.48079470198675 0 -1 0 0 
1 134.95099337748346 215.48079470198675 0 -1 0 0 
1 133.93377483443709 215.48079470198675 0 0 -1 0 
1 133.93377483443709 171.40132450331126 0 1 0 0 
1 0.67814569536423841 137.49403973509934 0 -1 0 0 
1 -3.3907284768211921 137.49403973509934 0 0 1 0 
1 -3.3907284768211921 151.73509933774835 0 1 0 0 
1 134.95099337748346 215.48079470198675 0 0 1 0 
1 134.95099337748346 219.5496688741722 0 1 0 0 
1 147.15761589403974 219.5496688741722 0 0 -1 0 
Polygon3D 0
PolygonOnTriangulations 0
Surfaces 67
1 123.25298013245035 217.51523178807946 0 -0 -0 -1 -1 0 0 0 1 -0 
1 113.58940397350993 195.13642384105958 0 -0 -0 -1 -1 0 0 0 1 -0 
1 128.97021071643582 178.38622516556285 0 -0 -0 -1 -1 0 0 0 1 -0 
1 92.336585250065298 220.40038928054312 0 -0 -0 -1 -1 0 0 0 1 -0 
1 95.279470198675483 183.7774834437086 0 -0 -0 -1 -1 0 0 0 1 -0 
1 95.279470198675483 183.7774834437086 0 -0 -0 -1 -1 0 0 0 1 -0 
1 95.279470198675483 183.7774834437086 0 -0 -0 -1 -1 0 0 0 1 -0 
1 46.96158940397352 197.34039735099338 0 -0 -0 -1 -1 0 0 0 1 -0 
1 92.336585250065298 220.40038928054312 0 -0 -0 -1 -1 0 0 0 1 -0 
1 46.961589403973512 232.77350993377482 0 -0 -0 -1 -1 0 0 0 1 -0 
1 46.961589403973512 232.77350993377482 0 -0 -0 -1 -1 0 0 0 1 -0 
1 10.523816531763558 231.23512386558744 0 -0 -0 -1 -1 0 0 0 1 -0 
1 -1.3562913907284768 204.96953642384108 0 -0 -0 -1 -1 0 0 0 1 -0 
1 -1.3562913907284768 204.96953642384108 0 -0 -0 -1 -1 0 0 0 1 -0 
1 -1.3562913907284768 184.96423841059601 0 -0 -0 -1 -1 0 0 0 1 -0 
1 -1.3562913907284766 173.09668874172183 0 -0 -0 -1 -1 0 0 0 1 -0 
1 -1.3562913907284766 173.09668874172183 0 -0 -0 -1 -1 0 0 0 1 -0 
1 39.04609048917581 156.4878179086204 0 -0 -0 -1 -1 0 0 0 1 -0 
1 84.090066225165558 161.90728476821189 0 -0 -0 -1 -1 0 0 0 1 -0 
1 84.090066225165558 161.90728476821189 0 -0 -0 -1 -1 0 0 0 1 -0 
1 128.97021071643582 178.38622516556285 0 -0 -0 -1 -1 0 0 0 1 -0 
1 -16.445033112582781 195.30596026490068 0 -0 -0 -1 -1 0 0 0 1 -0 
1 84.090066225165558 161.90728476821189 0 -0 -0 -1 -1 0 0 0 1 -0 
1 132.2129104053665 103.38932770951199 0 -0 -0 -1 -1 0 0 0 1 -0 
1 70.188079470198673 131.39072847682121 0 -0 -0 -1 -1 0 0 0 1 -0 
1 73.959042282221105 59.101782985226706 0 -0 -0 -1 -1 0 0 0 1 -0 
1 165.46754966887417 23.226490066225168 0 -0 -0 -1 -1 0 0 0 1 -0 
1 165.46754966887417 23.226490066225168 0 -0 -0 -1 -1 0 0 0 1 -0 
1 219.42936907641663 47.447864535828984 0 -0 -0 -1 -1 0 0 0 1 -0 
1 191.4066225165563 90.362913907284778 0 -0 -0 -1 -1 0 0 0 1 -0 
1 191.4066225165563 90.362913907284778 0 -0 -0 -1 -1 0 0 0 1 -0 
1 206.3524964655108 94.11938388272938 0 -0 -0 -1 -1 0 0 0 1 -0 
1 203.10463576158935 126.30463576158942 0 -0 -0 -1 -1 0 0 0 1 -0 
1 230.10089915468689 183.656878264147 0 -0 -0 -1 -1 0 0 0 1 -0 
1 172.75761589403973 161.90728476821192 0 -0 -0 -1 -1 0 0 0 1 -0 
1 172.75761589403973 161.90728476821192 0 -0 -0 -1 -1 0 0 0 1 -0 
1 128.97021071643582 178.38622516556285 0 -0 -0 -1 -1 0 0 0 1 -0 
1 39.04609048917581 156.4878179086204 0 -0 -0 -1 -1 0 0 0 1 -0 
1 40.180132450331129 96.466225165562903 0 -0 -0 -1 -1 0 0 0 1 -0 
1 191.4066225165563 90.362913907284778 0 -0 -0 -1 -1 0 0 0 1 -0 
1 218.46663539912132 57.237080267470148 0 -0 -0 -1 -1 0 0 0 1 -0 
1 172.75761589403973 161.90728476821192 0 -0 -0 -1 -1 0 0 0 1 -0 
1 204.46092715231788 197.34039735099338 0 -0 -0 -1 -1 0 0 0 1 -0 
1 39.04609048917581 156.4878179086204 0 -0 -0 -1 -1 0 0 0 1 -0 
1 47.809271523178815 131.39072847682118 0 -0 -0 -1 -1 0 0 0 1 -0 
1 47.809271523178815 131.39072847682118 0 -0 -0 -1 -1 0 0 0 1 -0 
1 11.446603133581009 128.04300436116944 0 -0 -0 -1 -1 0 0 0 1 -0 
1 -1.3562913907284768 93.584105960264907 0 -0 -0 -1 -1 0 0 0 1 -0 
1 73.959042282221105 59.101782985226706 0 -0 -0 -1 -1 0 0 0 1 -0 
1 219.42936907641663 47.447864535828984 0 -0 -0 -1 -1 0 0 0 1 -0 
1 232.26490066225168 90.362913907284764 0 -0 -0 -1 -1 0 0 0 1 -0 
1 206.3524964655108 94.11938388272938 0 -0 -0 -1 -1 0 0 0 1 -0 
1 167.75896828163121 220.09040083652835 0 -0 -0 -1 -1 0 0 0 1 -0 
1 161.39867549668872 180.21721854304633 0 -0 -0 -1 -1 0 0 0 1 -0 
1 128.97021071643582 178.38622516556285 0 -0 -0 -1 -1 0 0 0 1 -0 
1 230.10089915468689 183.656878264147 0 -0 -0 -1 -1 0 0 0 1 -0 
1 215.14172185430462 232.77350993377482 0 -0 -0 -1 -1 0 0 0 1 -0 
1 215.14172185430462 232.77350993377482 0 -0 -0 -1 -1 0 0 0 1 -0 
1 47.809271523178815 131.39072847682118 0 -0 -0 -1 -1 0 0 0 1 -0 
1 28.651655629139068 146.64900662251659 0 -0 -0 -1 -1 0 0 0 1 -0 
1 146.64900662251654 193.44105960264901 0 -0 -0 -1 -1 0 0 0 1 -0 
1 39.04609048917581 156.4878179086204 0 -0 -0 -1 -1 0 0 0 1 -0 
1 -1.3562913907284768 144.61456953642383 0 -0 -0 -1 -1 0 0 0 1 -0 
1 11.446603133581009 128.04300436116944 0 -0 -0 -1 -1 0 0 0 1 -0 
1 167.75896828163121 220.09040083652835 0 -0 -0 -1 -1 0 0 0 1 -0 
1 141.05430463576158 217.51523178807946 0 -0 -0 -1 -1 0 0 0 1 -0 
1 128.97021071643582 178.38622516556285 0 -0 -0 -1 -1 0 0 0 1 -0 
Triangulations 0

TShapes 298
Ve
1e-07
129.864900662252 219.549668874172 0
0 0

0101101
*
Ve
1.00000369482223e-07
129.864900662252 215.480794701987 0
0 0

0101101
*
Ed
 1e-07 1 1 0
1  1 0 0 4.06887417218545
2  1 1 0 0 4.06887417218545
0

0101000
+298 0 -297 0 *
Ve
1e-07
116.641059602649 215.480794701987 0
0 0

0101101
*
Ed
 1e-07 1 1 0
1  2 0 0 13.2238410596026
2  2 1 0 0 13.2238410596026
2  3 2 0 0 13.2238410596026
0

0101000
+297 0 -295 0 *
Ve
1e-07
116.641059602649 219.549668874172 0
0 0

0101101
*
Ed
 1e-07 1 1 0
1  3 0 0 4.06887417218545
2  4 1 0 0 4.06887417218545
0

0101000
+295 0 -293 0 *
Ed
 1e-07 1 1 0
1  4 0 0 13.2238410596026
2  5 1 0 0 13.2238410596026
0

0101000
+293 0 -298 0 *
Wi

0101100
+296 0 +294 0 +292 0 +291 0 *
Fa
0  1e-07 1 0

0111000
+290 0 *
Ve
1.00000426325641e-07
97.3139072847682 174.792052980132 0
0 0

0101101
*
Ve
1e-07
129.864900662252 174.792052980132 0
0 0

0101101
*
Ed
 1e-07 1 1 0
1  5 0 4.06887417218543 36.6198675496689
2  6 3 0 4.06887417218543 36.6198675496689
2  7 2 0 4.06887417218543 36.6198675496689
0

0101000
+288 0 -287 0 *
Ed
 1e-07 1 1 0
1  6 0 0 40.6887417218546
2  8 3 0 0 40.6887417218546
2  9 2 0 0 40.6887417218546
0

0101000
+287 0 -297 0 *
Ve
1e-07
97.3139072847682 215.480794701987 0
0 0

0101101
*
Ed
 1e-07 1 1 0
1  7 0 0 19.3271523178808
2  10 4 0 0 19.3271523178808
2  11 2 0 0 19.3271523178808
0

0101000
+295 0 -284 0 *
Ve
1e-07
97.3139072847682 192.762913907285 0
0 0

0101101
*
Ed
 1e-07 1 1 0
1  8 0 0 22.717880794702
2  12 4 0 0 22.717880794702
2  13 2 0 0 22.717880794702
0

0101000
+284 0 -282 0 *
Ed
 1e-07 1 1 0
1  9 0 0 17.9708609271523
2  14 5 0 0 17.9708609271523
2  15 2 0 0 17.9708609271523
2  16 6 0 0 17.9708609271523
0

0101000
+282 0 -288 0 *
Wi

0101100
-286 0 -285 0 -294 0 -283 0 -281 0 -280 0 *
Fa
0  1e-07 2 0

0101000
+279 0 *
Ve
1e-07
93.2450331125828 174.792052980132 0
0 0

0101101
*
Ed
 1e-07 1 1 0
1  10 0 0 4.06887417218543
2  17 6 0 0 4.06887417218543
0

0101000
+288 0 -277 0 *
Ve
1e-07
93.2450331125828 192.762913907285 0
0 0

0101101
*
Ed
 1e-07 1 1 0
1  11 0 0 17.9708609271523
2  18 7 0 0 17.9708609271523
2  19 8 0 0 17.9708609271523
2  20 6 0 0 17.9708609271523
0

0101000
+277 0 -275 0 *
Ed
 1e-07 1 1 0
1  12 0 0 4.06887417218543
2  21 6 0 0 4.06887417218543
0

0101000
+275 0 -282 0 *
Wi

0101100
+276 0 +274 0 +273 0 +280 0 *
Fa
0  1e-07 6 0

0111000
+272 0 *
Ve
1e-07
93.2450331125828 230.739072847682 0
0 0

0101101
*
Ed
 1e-07 1 1 0
1  13 0 0 37.9761589403973
2  22 9 0 0 37.9761589403973
2  23 8 0 0 37.9761589403973
0

0101000
+275 0 -270 0 *
Ve
1e-07
64.0847682119205 230.739072847682 0
0 0

0101101
*
Ed
 1e-07 1 1 0
1  14 0 0 29.1602649006622
2  24 9 0 0 29.1602649006622
2  25 8 0 0 29.1602649006622
0

0101000
+270 0 -268 0 *
Ve
1e-07
29.8384105960265 230.739072847682 0
0 0

0101101
*
Ed
 1e-07 1 1 0
1  15 0 0 34.246357615894
2  26 10 0 0 34.246357615894
2  27 8 0 0 34.246357615894
2  28 11 0 0 34.246357615894
0

0101000
+268 0 -266 0 *
Ve
1e-07
0.678145695364238 230.739072847682 0
0 0

0101101
*
Ed
 1e-07 1 1 0
1  16 0 0 29.1602649006623
2  29 12 0 0 29.1602649006623
2  30 8 0 0 29.1602649006623
0

0101000
+266 0 -264 0 *
Ve
1.00000000222045e-07
0.678145695364238 222.262251655629 0
0 0

0101101
*
Ed
 1e-07 1 1 0
1  17 0 0 8.47682119205297
2  31 12 0 0 8.47682119205297
2  32 8 0 0 8.47682119205297
0

0101000
+264 0 -262 0 *
Ve
1e-07
0.678145695364238 187.676821192053 0
0 0

0101101
*
Ed
 1e-07 1 1 0
1  18 0 0 34.5854304635762
2  33 13 0 0 34.5854304635762
2  34 8 0 0 34.5854304635762
2  35 14 0 0 34.5854304635762
0

0101000
+262 0 -260 0 *
Ve
1.00000000222045e-07
0.678145695364238 182.251655629139 0
0 0

0101101
*
Ed
 1e-07 1 1 0
1  19 0 0 5.42516556291392
2  36 15 0 0 5.42516556291392
2  37 8 0 0 5.42516556291392
0

0101000
+260 0 -258 0 *
Ve
1.00000369482489e-07
0.678145695364238 163.941721854305 0
0 0

0101101
*
Ed
 1e-07 1 1 0
1  20 0 0 18.3099337748344
2  38 16 0 0 18.3099337748344
2  39 8 0 0 18.3099337748344
2  40 17 0 0 18.3099337748344
0

0101000
+258 0 -256 0 *
Ve
1e-07
74.9350993377483 163.941721854305 0
0 0

0101101
*
Ed
 1e-07 1 1 0
1  21 0 4.06887417218543 78.3258278145695
2  41 18 0 4.06887417218543 78.3258278145695
2  42 8 0 4.06887417218543 78.3258278145695
0

0101000
+256 0 -254 0 *
Ve
1.00000028421709e-07
93.2450331125828 163.941721854305 0
0 0

0101101
*
Ed
 1e-07 1 1 0
1  22 0 0 18.3099337748344
2  43 19 0 0 18.3099337748344
2  44 8 0 0 18.3099337748344
2  45 20 0 0 18.3099337748344
0

0101000
+254 0 -252 0 *
Ed
 1e-07 1 1 0
1  23 0 4.06887417218579 14.9192052980132
2  46 21 0 4.06887417218579 14.9192052980132
2  47 8 0 4.06887417218579 14.9192052980132
0

0101000
+252 0 -277 0 *
Wi

0101100
-269 0 -267 0 -265 0 -263 0 -261 0 -259 0 -257 0 -255 0 -253 0 -251 0 
-250 0 -274 0 *
Fa
0  1e-07 8 0

0101000
+249 0 *
Ve
1e-07
29.8384105960265 234.807947019868 0
0 0

0101101
*
Ed
 1e-07 1 1 0
1  24 0 0 4.06887417218545
2  48 11 0 0 4.06887417218545
0

0101000
+266 0 -247 0 *
Ve
1e-07
64.0847682119205 234.807947019868 0
0 0

0101101
*
Ed
 1e-07 1 1 0
1  25 0 0 34.246357615894
2  49 11 0 0 34.246357615894
0

0101000
+247 0 -245 0 *
Ed
 1e-07 1 1 0
1  26 0 0 4.06887417218545
2  50 11 0 0 4.06887417218545
0

0101000
+245 0 -268 0 *
Wi

0101100
+246 0 +244 0 +243 0 +265 0 *
Fa
0  1e-07 11 0

0111000
+242 0 *
Ve
1.00000028477166e-07
-3.39072847682119 187.676821192053 0
0 0

0101101
*
Ed
 1e-07 1 1 0
1  27 0 0 4.06887417218543
2  51 14 0 0 4.06887417218543
0

0101000
+260 0 -240 0 *
Ve
1.0000008528363e-07
-3.39072847682119 222.262251655629 0
0 0

0101101
*
Ed
 1e-07 1 1 0
1  28 0 0 34.5854304635762
2  52 22 0 0 34.5854304635762
2  53 14 0 0 34.5854304635762
0

0101000
+238 0 -240 0 *
Ed
 1e-07 1 1 0
1  29 0 0 4.06887417218543
2  54 14 0 0 4.06887417218543
0

0101000
+238 0 -262 0 *
Wi

0101100
+239 0 -237 0 +236 0 +259 0 *
Fa
0  1e-07 14 0

0111000
+235 0 *
Ve
1.00000255801553e-07
-3.39072847682119 163.941721854305 0
0 0

0101101
*
Ed
 1e-07 1 1 0
1  30 0 0 4.06887417218543
2  55 17 0 0 4.06887417218543
0

0101000
+256 0 -233 0 *
Ve
1.00000028477166e-07
-3.39072847682119 182.251655629139 0
0 0

0101101
*
Ed
 1e-07 1 1 0
1  31 0 0 18.3099337748344
2  56 22 0 0 18.3099337748344
2  57 17 0 0 18.3099337748344
0

0101000
+231 0 -233 0 *
Ed
 1e-07 1 1 0
1  32 0 0 4.06887417218543
2  58 17 0 0 4.06887417218543
0

0101000
+231 0 -258 0 *
Wi

0101100
+232 0 -230 0 +229 0 +255 0 *
Fa
0  1e-07 17 0

0111000
+228 0 *
Ve
1e-07
74.9350993377483 159.872847682119 0
0 0

0101101
*
Ed
 1e-07 1 1 0
1  33 0 0 4.06887417218542
2  59 20 0 0 4.06887417218542
0

0101000
+226 0 -254 0 *
Ve
1e-07
93.2450331125828 159.872847682119 0
0 0

0101101
*
Ed
 1e-07 1 1 0
1  34 0 0 4.06887417218542
2  60 20 0 0 4.06887417218542
0

0101000
+252 0 -224 0 *
Ed
 1e-07 1 1 0
1  35 0 0 18.3099337748344
2  61 23 0 0 18.3099337748344
2  62 24 0 0 18.3099337748344
2  63 20 0 0 18.3099337748344
0

0101000
+224 0 -226 0 *
Wi

0101100
+225 0 +251 0 +223 0 +222 0 *
Fa
0  1e-07 20 0

0111000
+221 0 *
Ve
1e-07
-29.4993377483444 230.739072847682 0
0 0

0101101
*
Ve
1e-07
-3.39072847682119 230.739072847682 0
0 0

0101101
*
Ed
 1e-07 1 1 0
1  36 0 0 26.1086092715232
2  64 22 0 0 26.1086092715232
0

0101000
+219 0 -218 0 *
Ed
 1e-07 1 1 0
1  37 0 0 8.47682119205297
2  65 22 0 0 8.47682119205297
0

0101000
+218 0 -238 0 *
Ed
 1e-07 1 1 0
1  38 0 0 5.42516556291392
2  66 22 0 0 5.42516556291392
0

0101000
+240 0 -231 0 *
Ve
1e-07
-3.39072847682119 159.872847682119 0
0 0

0101101
*
Ed
 1e-07 1 1 0
1  39 0 0 4.06887417218542
2  67 22 0 0 4.06887417218542
0

0101000
+233 0 -214 0 *
Ve
1e-07
-29.4993377483444 159.872847682119 0
0 0

0101101
*
Ed
 1e-07 1 1 0
1  40 0 0 26.1086092715232
2  68 22 0 0 26.1086092715232
0

0101000
+214 0 -212 0 *
Ed
 1e-07 1 1 0
1  41 0 0 70.8662251655629
2  69 22 0 0 70.8662251655629
0

0101000
+212 0 -219 0 *
Wi

0101100
+217 0 +216 0 +237 0 +215 0 +230 0 +213 0 +211 0 +210 0 *
Fa
0  1e-07 22 0

0111000
+209 0 *
Ve
1.00000035527137e-07
60.6940397350993 133.425165562914 0
0 0

0101101
*
Ve
1e-07
79.682119205298 133.425165562914 0
0 0

0101101
*
Ed
 1e-07 1 1 0
1  42 0 0 18.9880794701987
2  70 25 0 0 18.9880794701987
2  71 24 0 0 18.9880794701987
0

0101000
+207 0 -206 0 *
Ve
1e-07
83.7509933774834 133.425165562914 0
0 0

0101101
*
Ed
 1e-07 1 1 0
1  43 0 0 4.06887417218543
2  72 26 0 0 4.06887417218543
2  73 24 0 0 4.06887417218543
0

0101000
+206 0 -204 0 *
Ve
1e-07
83.7509933774834 25.2609271523179 0
0 0

0101101
*
Ed
 1e-07 1 1 0
1  44 0 0 108.164238410596
2  74 26 0 0 108.164238410596
2  75 24 0 0 108.164238410596
0

0101000
+204 0 -202 0 *
Ve
1e-07
153.260927152318 25.2609271523179 0
0 0

0101101
*
Ed
 1e-07 1 1 0
1  45 0 0 69.5099337748345
2  76 26 0 0 69.5099337748345
2  77 24 0 0 69.5099337748345
0

0101000
+202 0 -200 0 *
Ve
1.00000454747351e-07
177.67417218543 25.2609271523179 0
0 0

0101101
*
Ed
 1e-07 1 1 0
1  46 0 0 24.4132450331126
2  78 27 0 0 24.4132450331126
2  79 24 0 0 24.4132450331126
2  80 28 0 0 24.4132450331126
0

0101000
+200 0 -198 0 *
Ve
1e-07
177.67417218543 92.3973509933775 0
0 0

0101101
*
Ed
 1e-07 1 1 0
1  47 0 4.06887417218545 71.205298013245
2  81 29 0 4.06887417218545 71.205298013245
2  82 24 0 4.06887417218545 71.205298013245
0

0101000
+198 0 -196 0 *
Ve
1e-07
181.743046357616 92.3973509933775 0
0 0

0101101
*
Ed
 1e-07 1 1 0
1  48 0 0 4.06887417218545
2  83 29 0 0 4.06887417218545
2  84 24 0 0 4.06887417218545
0

0101000
+196 0 -194 0 *
Ve
1.00000312638804e-07
201.070198675497 92.3973509933775 0
0 0

0101101
*
Ed
 1e-07 1 1 0
1  49 0 0 19.3271523178808
2  85 30 0 0 19.3271523178808
2  86 24 0 0 19.3271523178808
2  87 31 0 0 19.3271523178808
0

0101000
+194 0 -192 0 *
Ve
1e-07
201.070198675497 103.92582781457 0
0 0

0101101
*
Ed
 1e-07 1 1 0
1  50 0 4.06887417218545 15.5973509933775
2  88 32 0 4.06887417218545 15.5973509933775
2  89 24 0 4.06887417218545 15.5973509933775
0

0101000
+192 0 -190 0 *
Ve
1e-07
201.070198675497 148.683443708609 0
0 0

0101101
*
Ed
 1e-07 1 1 0
1  51 0 0 44.7576158940397
2  90 33 0 0 44.7576158940397
2  91 24 0 0 44.7576158940397
0

0101000
+190 0 -188 0 *
Ve
1e-07
201.070198675497 159.872847682119 0
0 0

0101101
*
Ed
 1e-07 1 1 0
1  52 0 0 11.1894039735099
2  92 34 0 0 11.1894039735099
2  93 24 0 0 11.1894039735099
0

0101000
+188 0 -186 0 *
Ve
1e-07
182.082119205298 159.872847682119 0
0 0

0101101
*
Ed
 1e-07 1 1 0
1  53 0 0 18.9880794701987
2  94 34 0 0 18.9880794701987
2  95 24 0 0 18.9880794701987
0

0101000
+186 0 -184 0 *
Ve
1e-07
163.433112582781 159.872847682119 0
0 0

0101101
*
Ed
 1e-07 1 1 0
1  54 0 0 18.6490066225165
2  96 35 0 0 18.6490066225165
2  97 24 0 0 18.6490066225165
2  98 36 0 0 18.6490066225165
0

0101000
+184 0 -182 0 *
Ve
1e-07
159.364238410596 159.872847682119 0
0 0

0101101
*
Ed
 1e-07 1 1 0
1  55 0 0 4.06887417218545
2  99 37 0 0 4.06887417218545
2  100 24 0 0 4.06887417218545
0

0101000
+182 0 -180 0 *
Ve
1e-07
159.364238410596 167.332450331126 0
0 0

0101101
*
Ed
 1e-07 1 1 0
1  56 0 0 7.45960264900663
2  101 37 0 0 7.45960264900663
2  102 24 0 0 7.45960264900663
0

0101000
+180 0 -178 0 *
Ve
1e-07
133.933774834437 167.332450331126 0
0 0

0101101
*
Ed
 1e-07 1 1 0
1  57 0 0 25.4304635761589
2  103 37 0 0 25.4304635761589
2  104 24 0 0 25.4304635761589
0

0101000
+178 0 -176 0 *
Ve
1e-07
133.933774834437 159.872847682119 0
0 0

0101101
*
Ed
 1e-07 1 1 0
1  58 0 0 7.45960264900663
2  105 37 0 0 7.45960264900663
2  106 24 0 0 7.45960264900663
0

0101000
+176 0 -174 0 *
Ve
1e-07
129.864900662252 159.872847682119 0
0 0

0101101
*
Ed
 1e-07 1 1 0
1  59 0 0 4.06887417218545
2  107 37 0 0 4.06887417218545
2  108 24 0 0 4.06887417218545
0

0101000
+174 0 -172 0 *
Ve
1e-07
129.864900662252 170.723178807947 0
0 0

0101101
*
Ed
 1e-07 1 1 0
1  60 0 0 10.8503311258278
2  109 37 0 0 10.8503311258278
2  110 24 0 0 10.8503311258278
0

0101000
+172 0 -170 0 *
Ve
1e-07
97.3139072847682 170.723178807947 0
0 0

0101101
*
Ed
 1e-07 1 1 0
1  61 0 0 32.5509933774834
2  111 37 0 0 32.5509933774834
2  112 24 0 0 32.5509933774834
0

0101000
+170 0 -168 0 *
Ve
1e-07
97.3139072847682 159.872847682119 0
0 0

0101101
*
Ed
 1e-07 1 1 0
1  62 0 0 10.8503311258278
2  113 37 0 0 10.8503311258278
2  114 24 0 0 10.8503311258278
0

0101000
+168 0 -166 0 *
Ed
 1e-07 1 1 0
1  63 0 0 4.06887417218543
2  115 37 0 0 4.06887417218543
2  116 24 0 0 4.06887417218543
0

0101000
+166 0 -224 0 *
Ve
1e-07
60.6940397350993 159.872847682119 0
0 0

0101101
*
Ed
 1e-07 1 1 0
1  64 0 0 14.241059602649
2  117 38 0 0 14.241059602649
2  118 24 0 0 14.241059602649
0

0101000
+226 0 -163 0 *
Ed
 1e-07 1 1 0
1  65 0 0 26.4476821192052
2  119 38 0 0 26.4476821192052
2  120 24 0 0 26.4476821192052
0

0101000
+163 0 -207 0 *
Wi

0101100
-205 0 -203 0 -201 0 -199 0 -197 0 -195 0 -193 0 -191 0 -189 0 -187 0 
-185 0 -183 0 -181 0 -179 0 -177 0 -175 0 -173 0 -171 0 -169 0 -167 0 
-165 0 -164 0 -222 0 -162 0 -161 0 *
Fa
0  1e-07 24 0

0101000
+160 0 *
Ve
1e-07
60.6940397350993 129.356291390728 0
0 0

0101101
*
Ed
 1e-07 1 1 0
1  66 0 0 4.06887417218545
2  121 25 0 0 4.06887417218545
0

0101000
+158 0 -207 0 *
Ve
1.00000014210855e-07
79.682119205298 129.356291390728 0
0 0

0101101
*
Ed
 1e-07 1 1 0
1  67 0 0 4.06887417218545
2  122 25 0 0 4.06887417218545
0

0101000
+206 0 -156 0 *
Ed
 1e-07 1 1 0
1  68 0 0 18.9880794701987
2  123 25 0 0 18.9880794701987
2  124 39 0 0 18.9880794701987
0

0101000
+156 0 -158 0 *
Wi

0101100
+157 0 +205 0 +155 0 +154 0 *
Fa
0  1e-07 25 0

0111000
+153 0 *
Ve
1e-07
153.260927152318 21.1920529801325 0
0 0

0101101
*
Ed
 1e-07 1 1 0
1  69 0 0 4.06887417218543
2  125 28 0 0 4.06887417218543
0

0101000
+151 0 -200 0 *
Ve
1e-07
177.67417218543 21.1920529801325 0
0 0

0101101
*
Ed
 1e-07 1 1 0
1  70 0 0 4.06887417218543
2  126 28 0 0 4.06887417218543
0

0101000
+198 0 -149 0 *
Ed
 1e-07 1 1 0
1  71 0 0 24.4132450331126
2  127 28 0 0 24.4132450331126
0

0101000
+149 0 -151 0 *
Wi

0101100
+150 0 +197 0 +148 0 +147 0 *
Fa
0  1e-07 28 0

0111000
+146 0 *
Ve
1.00000113686838e-07
181.743046357616 88.3284768211921 0
0 0

0101101
*
Ed
 1e-07 1 1 0
1  72 0 0 4.06887417218543
2  128 31 0 0 4.06887417218543
0

0101000
+144 0 -194 0 *
Ve
1e-07
201.070198675497 88.3284768211921 0
0 0

0101101
*
Ed
 1e-07 1 1 0
1  73 0 0 4.06887417218543
2  129 31 0 0 4.06887417218543
0

0101000
+192 0 -142 0 *
Ed
 1e-07 1 1 0
1  74 0 0 19.3271523178808
2  130 40 0 0 19.3271523178808
2  131 41 0 0 19.3271523178808
2  132 31 0 0 19.3271523178808
0

0101000
+142 0 -144 0 *
Wi

0101100
+143 0 +191 0 +141 0 +140 0 *
Fa
0  1e-07 31 0

0111000
+139 0 *
Ve
1e-07
205.139072847682 103.92582781457 0
0 0

0101101
*
Ed
 1e-07 1 1 0
1  75 0 0 4.06887417218542
2  133 33 0 0 4.06887417218542
0

0101000
+137 0 -190 0 *
Ve
1e-07
205.139072847682 148.683443708609 0
0 0

0101101
*
Ed
 1e-07 1 1 0
1  76 0 0 4.06887417218542
2  134 33 0 0 4.06887417218542
0

0101000
+188 0 -135 0 *
Ed
 1e-07 1 1 0
1  77 0 0 44.7576158940397
2  135 33 0 0 44.7576158940397
0

0101000
+135 0 -137 0 *
Wi

0101100
+136 0 +187 0 +134 0 +133 0 *
Fa
0  1e-07 33 0

0111000
+132 0 *
Ve
1.00000454747351e-07
163.433112582781 163.941721854305 0
0 0

0101101
*
Ed
 1e-07 1 1 0
1  78 0 0 4.06887417218542
2  136 36 0 0 4.06887417218542
0

0101000
+182 0 -130 0 *
Ve
1e-07
182.082119205298 163.941721854305 0
0 0

0101101
*
Ed
 1e-07 1 1 0
1  79 0 0 18.6490066225165
2  137 42 0 0 18.6490066225165
2  138 43 0 0 18.6490066225165
2  139 36 0 0 18.6490066225165
0

0101000
+130 0 -128 0 *
Ed
 1e-07 1 1 0
1  80 0 0 4.06887417218542
2  140 36 0 0 4.06887417218542
0

0101000
+128 0 -184 0 *
Wi

0101100
+129 0 +127 0 +126 0 +181 0 *
Fa
0  1e-07 36 0

0111000
+125 0 *
Ve
1e-07
56.6251655629139 129.356291390728 0
0 0

0101101
*
Ed
 1e-07 1 1 0
1  81 0 0 4.06887417218543
2  141 44 0 0 4.06887417218543
2  142 39 0 0 4.06887417218543
0

0101000
+158 0 -123 0 *
Ve
1e-07
38.9933774834437 129.356291390728 0
0 0

0101101
*
Ed
 1e-07 1 1 0
1  82 0 0 17.6317880794702
2  143 45 0 0 17.6317880794702
2  144 39 0 0 17.6317880794702
2  145 46 0 0 17.6317880794702
0

0101000
+123 0 -121 0 *
Ve
1e-07
0.678145695364238 129.356291390728 0
0 0

0101101
*
Ed
 1e-07 1 1 0
1  83 0 0 38.3152317880795
2  146 47 0 0 38.3152317880795
2  147 39 0 0 38.3152317880795
0

0101000
+121 0 -119 0 *
Ve
1.00000014432899e-07
0.678145695364238 110.36821192053 0
0 0

0101101
*
Ed
 1e-07 1 1 0
1  84 0 0 18.9880794701987
2  148 47 0 0 18.9880794701987
2  149 39 0 0 18.9880794701987
0

0101000
+119 0 -117 0 *
Ve
1e-07
0.678145695364238 76.8 0
0 0

0101101
*
Ed
 1e-07 1 1 0
1  85 0 0 33.5682119205298
2  150 48 0 0 33.5682119205298
2  151 39 0 0 33.5682119205298
0

0101000
+117 0 -115 0 *
Ve
1e-07
0.678145695364238 63.5761589403973 0
0 0

0101101
*
Ed
 1e-07 1 1 0
1  86 0 0 13.2238410596026
2  152 49 0 0 13.2238410596026
2  153 39 0 0 13.2238410596026
0

0101000
+115 0 -113 0 *
Ve
1e-07
79.682119205298 63.5761589403973 0
0 0

0101101
*
Ed
 1e-07 1 1 0
1  87 0 0 79.0039735099338
2  154 49 0 0 79.0039735099338
2  155 39 0 0 79.0039735099338
0

0101000
+113 0 -111 0 *
Ed
 1e-07 1 1 0
1  88 0 0 65.7801324503306
2  156 49 0 0 65.7801324503306
2  157 39 0 0 65.7801324503306
0

0101000
+111 0 -156 0 *
Wi

0101100
-154 0 -122 0 -120 0 -118 0 -116 0 -114 0 -112 0 -110 0 -109 0 *
Fa
0  1e-07 39 0

0101000
+108 0 *
Ve
1e-07
181.743046357616 25.2609271523179 0
0 0

0101101
*
Ed
 1e-07 1 1 0
1  89 0 4.06887417218539 67.1364238410596
2  158 50 0 4.06887417218539 67.1364238410596
2  159 41 0 4.06887417218539 67.1364238410596
0

0101000
+144 0 -106 0 *
Ve
1e-07
255.321854304636 25.2609271523179 0
0 0

0101101
*
Ed
 1e-07 1 1 0
1  90 0 0 73.5788079470199
2  160 50 0 0 73.5788079470199
2  161 41 0 0 73.5788079470199
0

0101000
+106 0 -104 0 *
Ve
1e-07
255.321854304636 88.3284768211921 0
0 0

0101101
*
Ed
 1e-07 1 1 0
1  91 0 0 63.0675496688742
2  162 50 0 0 63.0675496688742
2  163 41 0 0 63.0675496688742
0

0101000
+104 0 -102 0 *
Ve
1e-07
248.879470198676 88.3284768211921 0
0 0

0101101
*
Ed
 1e-07 1 1 0
1  92 0 0 6.44238410596026
2  164 50 0 0 6.44238410596026
2  165 41 0 0 6.44238410596026
0

0101000
+102 0 -100 0 *
Ve
1e-07
215.650331125828 88.3284768211921 0
0 0

0101101
*
Ed
 1e-07 1 1 0
1  93 0 0 33.2291390728477
2  166 51 0 0 33.2291390728477
2  167 41 0 0 33.2291390728477
0

0101000
+100 0 -98 0 *
Ed
 1e-07 1 1 0
1  94 0 0 14.5801324503311
2  168 52 0 0 14.5801324503311
2  169 41 0 0 14.5801324503311
0

0101000
+98 0 -142 0 *
Wi

0101100
-105 0 -103 0 -101 0 -99 0 -97 0 -96 0 -140 0 *
Fa
0  1e-07 41 0

0101000
+95 0 *
Ve
1e-07
198.018543046358 230.739072847682 0
0 0

0101101
*
Ve
1e-07
163.433112582781 230.739072847682 0
0 0

0101101
*
Ed
 1e-07 1 1 0
1  95 0 0 34.5854304635762
2  170 53 0 0 34.5854304635762
2  171 43 0 0 34.5854304635762
0

0101000
+93 0 -92 0 *
Ve
1e-07
163.433112582781 189.033112582781 0
0 0

0101101
*
Ed
 1e-07 1 1 0
1  96 0 0 41.7059602649007
2  172 53 0 0 41.7059602649007
2  173 43 0 0 41.7059602649007
0

0101000
+92 0 -90 0 *
Ve
1e-07
163.433112582781 171.401324503311 0
0 0

0101101
*
Ed
 1e-07 1 1 0
1  97 0 0 17.6317880794702
2  174 54 0 0 17.6317880794702
2  175 43 0 0 17.6317880794702
0

0101000
+90 0 -88 0 *
Ed
 1e-07 1 1 0
1  98 0 0 7.45960264900626
2  176 55 0 0 7.45960264900626
2  177 43 0 0 7.45960264900626
0

0101000
+88 0 -130 0 *
Ve
1e-07
245.488741721854 163.941721854305 0
0 0

0101101
*
Ed
 1e-07 1 1 0
1  99 0 0 63.4066225165563
2  178 56 0 0 63.4066225165563
2  179 43 0 0 63.4066225165563
0

0101000
+128 0 -85 0 *
Ve
1e-07
245.488741721854 230.739072847682 0
0 0

0101101
*
Ed
 1e-07 1 1 0
1  100 0 0 66.7973509933775
2  180 56 0 0 66.7973509933775
2  181 43 0 0 66.7973509933775
0

0101000
+85 0 -83 0 *
Ve
1e-07
232.264900662252 230.739072847682 0
0 0

0101101
*
Ed
 1e-07 1 1 0
1  101 0 0 13.2238410596026
2  182 56 0 0 13.2238410596026
2  183 43 0 0 13.2238410596026
0

0101000
+83 0 -81 0 *
Ed
 1e-07 1 1 0
1  102 0 0 34.246357615894
2  184 57 0 0 34.246357615894
2  185 43 0 0 34.246357615894
2  186 58 0 0 34.246357615894
0

0101000
+81 0 -93 0 *
Wi

0101100
-91 0 -89 0 -87 0 -86 0 -127 0 -84 0 -82 0 -80 0 -79 0 *
Fa
0  1e-07 43 0

0101000
+78 0 *
Ve
1e-07
38.9933774834437 133.425165562914 0
0 0

0101101
*
Ed
 1e-07 1 1 0
1  103 0 0 4.06887417218545
2  187 46 0 0 4.06887417218545
0

0101000
+121 0 -76 0 *
Ve
1.00000007105427e-07
56.6251655629139 133.425165562914 0
0 0

0101101
*
Ed
 1e-07 1 1 0
1  104 0 0 17.6317880794702
2  188 59 0 0 17.6317880794702
2  189 60 0 0 17.6317880794702
2  190 46 0 0 17.6317880794702
0

0101000
+76 0 -74 0 *
Ed
 1e-07 1 1 0
1  105 0 0 4.06887417218545
2  191 46 0 0 4.06887417218545
0

0101000
+74 0 -123 0 *
Wi

0101100
+75 0 +73 0 +72 0 +120 0 *
Fa
0  1e-07 46 0

0111000
+71 0 *
Ve
1e-07
-3.39072847682119 76.8 0
0 0

0101101
*
Ed
 1e-07 1 1 0
1  106 0 0 4.06887417218543
2  192 48 0 0 4.06887417218543
0

0101000
+115 0 -69 0 *
Ve
1e-07
-3.39072847682119 110.36821192053 0
0 0

0101101
*
Ed
 1e-07 1 1 0
1  107 0 0 33.5682119205298
2  193 48 0 0 33.5682119205298
0

0101000
+69 0 -67 0 *
Ed
 1e-07 1 1 0
1  108 0 0 4.06887417218543
2  194 48 0 0 4.06887417218543
0

0101000
+67 0 -117 0 *
Wi

0101100
+68 0 +66 0 +65 0 +114 0 *
Fa
0  1e-07 48 0

0111000
+64 0 *
Ve
1e-07
215.650331125828 92.3973509933775 0
0 0

0101101
*
Ed
 1e-07 1 1 0
1  109 0 0 4.06887417218543
2  195 51 0 0 4.06887417218543
0

0101000
+98 0 -62 0 *
Ve
1e-07
248.879470198676 92.3973509933775 0
0 0

0101101
*
Ed
 1e-07 1 1 0
1  110 0 0 33.2291390728477
2  196 51 0 0 33.2291390728477
0

0101000
+62 0 -60 0 *
Ed
 1e-07 1 1 0
1  111 0 0 4.06887417218543
2  197 51 0 0 4.06887417218543
0

0101000
+60 0 -100 0 *
Wi

0101100
+61 0 +59 0 +58 0 +97 0 *
Fa
0  1e-07 51 0

0111000
+57 0 *
Ve
1.00000255795385e-07
159.364238410596 171.401324503311 0
0 0

0101101
*
Ed
 1e-07 1 1 0
1  112 0 0 4.06887417218545
2  198 54 0 0 4.06887417218545
0

0101000
+88 0 -55 0 *
Ve
1e-07
159.364238410596 189.033112582781 0
0 0

0101101
*
Ed
 1e-07 1 1 0
1  113 0 0 17.6317880794702
2  199 54 0 0 17.6317880794702
2  200 61 0 0 17.6317880794702
0

0101000
+55 0 -53 0 *
Ed
 1e-07 1 1 0
1  114 0 0 4.06887417218545
2  201 54 0 0 4.06887417218545
0

0101000
+53 0 -90 0 *
Wi

0101100
+54 0 +52 0 +51 0 +87 0 *
Fa
0  1e-07 54 0

0111000
+50 0 *
Ve
1e-07
198.018543046358 234.807947019868 0
0 0

0101101
*
Ed
 1e-07 1 1 0
1  115 0 0 4.06887417218545
2  202 58 0 0 4.06887417218545
0

0101000
+93 0 -48 0 *
Ve
1e-07
232.264900662252 234.807947019868 0
0 0

0101101
*
Ed
 1e-07 1 1 0
1  116 0 0 34.246357615894
2  203 58 0 0 34.246357615894
0

0101000
+48 0 -46 0 *
Ed
 1e-07 1 1 0
1  117 0 0 4.06887417218545
2  204 58 0 0 4.06887417218545
0

0101000
+46 0 -81 0 *
Wi

0101100
+47 0 +45 0 +44 0 +79 0 *
Fa
0  1e-07 58 0

0111000
+43 0 *
Ve
1e-07
56.6251655629139 159.872847682119 0
0 0

0101101
*
Ed
 1e-07 1 1 0
1  118 0 4.06887417218553 30.5165562913907
2  205 62 0 4.06887417218553 30.5165562913907
2  206 60 0 4.06887417218553 30.5165562913907
0

0101000
+74 0 -41 0 *
Ve
1e-07
0.678145695364238 159.872847682119 0
0 0

0101101
*
Ed
 1e-07 1 1 0
1  119 0 0 55.9470198675497
2  207 62 0 0 55.9470198675497
2  208 60 0 0 55.9470198675497
0

0101000
+41 0 -39 0 *
Ve
1.00000000222045e-07
0.678145695364238 151.735099337748 0
0 0

0101101
*
Ed
 1e-07 1 1 0
1  120 0 0 8.13774834437086
2  209 62 0 0 8.13774834437086
2  210 60 0 0 8.13774834437086
0

0101000
+39 0 -37 0 *
Ve
1e-07
0.678145695364238 137.494039735099 0
0 0

0101101
*
Ed
 1e-07 1 1 0
1  121 0 0 14.241059602649
2  211 63 0 0 14.241059602649
2  212 60 0 0 14.241059602649
0

0101000
+37 0 -35 0 *
Ve
1e-07
0.678145695364238 133.425165562914 0
0 0

0101101
*
Ed
 1e-07 1 1 0
1  122 0 0 4.06887417218542
2  213 64 0 0 4.06887417218542
2  214 60 0 0 4.06887417218542
0

0101000
+35 0 -33 0 *
Ed
 1e-07 1 1 0
1  123 0 0 38.3152317880795
2  215 64 0 0 38.3152317880795
2  216 60 0 0 38.3152317880795
0

0101000
+33 0 -76 0 *
Wi

0101100
-40 0 -38 0 -36 0 -34 0 -32 0 -31 0 -73 0 *
Fa
0  1e-07 60 0

0101000
+30 0 *
Ve
1e-07
159.364238410596 215.480794701987 0
0 0

0101101
*
Ed
 1e-07 1 1 0
1  124 0 0 26.4476821192053
2  217 65 0 0 26.4476821192053
2  218 61 0 0 26.4476821192053
0

0101000
+53 0 -28 0 *
Ve
1e-07
147.15761589404 215.480794701987 0
0 0

0101101
*
Ed
 1e-07 1 1 0
1  125 0 0 12.2066225165563
2  219 65 0 0 12.2066225165563
2  220 61 0 0 12.2066225165563
0

0101000
+28 0 -26 0 *
Ve
1e-07
134.950993377483 215.480794701987 0
0 0

0101101
*
Ed
 1e-07 1 1 0
1  126 0 0 12.2066225165563
2  221 66 0 0 12.2066225165563
2  222 61 0 0 12.2066225165563
0

0101000
+26 0 -24 0 *
Ve
1e-07
133.933774834437 215.480794701987 0
0 0

0101101
*
Ed
 1e-07 1 1 0
1  127 0 0 1.01721854304637
2  223 67 0 0 1.01721854304637
2  224 61 0 0 1.01721854304637
0

0101000
+24 0 -22 0 *
Ve
1e-07
133.933774834437 171.401324503311 0
0 0

0101101
*
Ed
 1e-07 1 1 0
1  128 0 0 44.0794701986755
2  225 67 0 0 44.0794701986755
2  226 61 0 0 44.0794701986755
0

0101000
+22 0 -20 0 *
Ed
 1e-07 1 1 0
1  129 0 0 25.4304635761589
2  227 67 0 0 25.4304635761589
2  228 61 0 0 25.4304635761589
0

0101000
+20 0 -55 0 *
Wi

0101100
-52 0 -27 0 -25 0 -23 0 -21 0 -19 0 -18 0 *
Fa
0  1e-07 61 0

0101000
+17 0 *
Ve
1e-07
-3.39072847682119 137.494039735099 0
0 0

0101101
*
Ed
 1e-07 1 1 0
1  130 0 0 4.06887417218543
2  229 63 0 0 4.06887417218543
0

0101000
+35 0 -15 0 *
Ve
1e-07
-3.39072847682119 151.735099337748 0
0 0

0101101
*
Ed
 1e-07 1 1 0
1  131 0 0 14.241059602649
2  230 63 0 0 14.241059602649
0

0101000
+15 0 -13 0 *
Ed
 1e-07 1 1 0
1  132 0 0 4.06887417218543
2  231 63 0 0 4.06887417218543
0

0101000
+13 0 -37 0 *
Wi

0101100
+14 0 +12 0 +11 0 +34 0 *
Fa
0  1e-07 63 0

0111000
+10 0 *
Ve
1e-07
134.950993377483 219.549668874172 0
0 0

0101101
*
Ed
 1e-07 1 1 0
1  133 0 0 4.06887417218545
2  232 66 0 0 4.06887417218545
0

0101000
+24 0 -8 0 *
Ve
1e-07
147.15761589404 219.549668874172 0
0 0

0101101
*
Ed
 1e-07 1 1 0
1  134 0 0 12.2066225165563
2  233 66 0 0 12.2066225165563
0

0101000
+8 0 -6 0 *
Ed
 1e-07 1 1 0
1  135 0 0 4.06887417218545
2  234 66 0 0 4.06887417218545
0

0101000
+6 0 -26 0 *
Wi

0101100
+7 0 +5 0 +4 0 +23 0 *
Fa
0  1e-07 66 0

0111000
+3 0 *
Sh

0101000
+289 0 +278 0 +271 0 +248 0 +241 0 +234 0 +227 0 +220 0 +208 0 +159 0 
+152 0 +145 0 +138 0 +131 0 +124 0 +107 0 +94 0 +77 0 +70 0 +63 0 
+56 0 +49 0 +42 0 +29 0 +16 0 +9 0 +2 0 *

+1 0 