
CASCADE Topology V3, (c) Open Cascade
Locations 0
Curve2ds 174
1 -2.2228654124457279 -7.5947901591895715 1 0 
1 2.2228654124457279 -7.5947901591895715 0 1 
1 -15.990991200599336 -68.258705171218367 0 1 
1 2.2228654124457279 7.5947901591895857 -1 0 
1 -2.2228654124457279 7.5947901591895857 0 -1 
1 27.415340086830675 13.151953690303912 0 -1 
1 26.613929204610503 -81.595897645892748 0 1 
1 26.613929204610503 75.857069069013164 -1 0 
1 -31.180571518978493 75.857069069013164 0 -1 
1 -31.180571518978493 61.408443888115926 1 0 
1 -15.990991200599336 61.408443888115926 0 -1 
1 -15.990991200599336 -15.280412841261779 -1 0 
1 2.222865412445735 -7.7800289435600689 0 1 
1 -31.180571518978493 -30.840470728381916 0 1 
1 -31.180571518978493 -30.840470728381916 0 -1 
1 -31.180571518978493 -46.400528615501983 1 0 
1 -15.990991200599336 -46.400528615502012 0 -1 
1 -15.990991200599336 -68.258705171218367 0 -1 
1 10.558610709117218 2.2228654124457279 -1 0 
1 5.1262302176351078 -81.595897645892748 -1 0 
1 5.1262302176351078 -81.595897645892748 1 0 
1 8.5209840810419681 2.2228654124457279 -1 0 
1 26.613929204610503 -81.595897645892748 -1 0 
1 -2.2228654124457279 8.8914616497829115 0 -1 
1 27.415340086830675 -2.0376266280752446 0 -1 
1 9.076700434153409 2.2228654124457279 -1 0 
1 27.415340086830675 -15.374819102749626 -1 0 
1 26.172268424398524 -33.913694382909796 -1 0 
1 9.261939218523878 -15.374819102749626 -1 0 
1 -10.505010880956036 -33.913694382909796 0 1 
1 -27.415340086830682 -15.374819102749626 0 1 
1 -10.505010880956036 -3.1640561774105294 1 0 
1 -27.415340086830682 15.37481910274964 1 0 
1 44.325669292705321 -3.1640561774105294 0 -1 
1 27.415340086830675 15.37481910274964 0 -1 
1 -2.2228654124457279 -7.7800289435600689 1 0 
1 2.222865412445735 7.7800289435600689 -1 0 
1 -2.2228654124457279 7.7800289435600689 0 -1 
1 27.971056439942117 15.560057887120138 0 -1 
1 -10.558610709117225 2.2228654124457279 0 -1 
1 -10.558610709117225 -2.2228654124457421 1 0 
1 8.3357452966714973 38.714905933429804 1 0 
1 -10.558610709117225 -2.2228654124457421 1 0 
1 10.558610709117218 -2.2228654124457421 0 1 
1 -8.5209840810419664 -2.2228654124457421 1 0 
1 33.898697539797404 38.714905933429804 1 0 
1 -8.5209840810419664 -2.2228654124457421 1 0 
1 8.5209840810419681 -2.2228654124457421 0 1 
1 -8.5209840810419664 2.2228654124457279 0 -1 
1 9.076700434153409 -2.2228654124457421 0 1 
1 -9.0767004341533877 2.2228654124457279 0 -1 
1 -9.0767004341533877 -2.2228654124457421 1 0 
1 -14.263386396526755 38.714905933429804 1 0 
1 29.136088974326157 16.841732534601036 0 -1 
1 27.971056439942117 0 0 -1 
1 29.136088974326157 1.2816746474809406 -1 0 
1 27.971056439942117 -15.560057887120095 -1 0 
1 -26.806023905558064 1.2816746474809406 0 1 
1 -27.971056439942103 -15.560057887120095 0 1 
1 -26.806023905558064 32.401790421721174 1 0 
1 -27.971056439942103 15.560057887120138 1 0 
1 -9.261939218523878 -2.2228654124457137 1 0 
1 9.4471780028943613 15.560057887120138 1 0 
1 -14.950741705847506 -38.359425207801266 1 0 
1 -55.386396526772785 38.714905933429804 1 0 
1 -2.2228654124457279 -8.89146164978294 1 0 
1 3.8900144717800416 38.714905933429804 1 0 
1 -2.222865412445735 -2.2228654124457279 1 0 
1 29.452966714905941 38.714905933429804 1 0 
1 45.748309164476197 62.075784872559737 0 -1 
1 50.940665701881336 43.160636758321274 0 -1 
1 45.748309164476197 -19.799757819191349 -1 0 
1 50.940665701881336 -38.714905933429812 -1 0 
1 -56.133022239286454 -19.799757819191349 0 1 
1 -50.940665701881315 -38.714905933429812 0 1 
1 2.2228654124457705 -10.188133140376266 0 1 
1 -50.940665701881315 18.338639652677273 0 1 
1 9.261939218523878 -2.2228654124457137 0 1 
1 9.261939218523878 2.2228654124457421 -1 0 
1 21.812633213932585 -39.871881981436445 -1 0 
1 -9.261939218523878 2.2228654124457421 0 -1 
1 -2.2228654124456995 -10.188133140376266 1 0 
1 2.2228654124457705 10.188133140376266 -1 0 
1 -1.852387843704733 10.188133140376266 -1 0 
1 -2.2228654124456995 10.188133140376266 0 -1 
1 80.481980077761264 -22.128345628798542 0 -1 
1 -2.2228654124456995 10.188133140376266 0 -1 
1 -6.2981186685962314 -2.2228654124457137 1 0 
1 11.068783720444884 27.925513098158348 1 0 
1 -12.540540540540555 34.508859076152874 1 0 
1 23.665021057637361 27.925513098158348 1 0 
1 0.79665193413383406 34.508859076152874 0 -1 
1 37.00221353231175 27.925513098158348 0 -1 
1 0.79665193413383406 -33.288536003441919 -1 0 
1 37.00221353231175 -39.871881981436445 -1 0 
1 10.612210537278401 36.847521246612629 -1 0 
1 3.2887547768848293 -39.871881981436445 -1 0 
1 2.2228654124457137 -10.188133140376266 0 1 
1 -34.129479665951635 -39.871881981436445 0 1 
1 -10.654407019767973 -43.536490650619015 0 1 
1 -34.129479665951635 -19.495615700683913 0 1 
1 -10.654407019767973 18.703740897861451 1 0 
1 -34.129479665951635 42.744615847796553 1 0 
1 30.09812554173709 18.703740897861451 0 -1 
1 6.6230528955534282 42.744615847796553 0 -1 
1 30.09812554173709 3.8846381482232459 1 0 
1 6.6230528955534282 27.925513098158348 1 0 
1 -31.25175473044952 36.847521246612629 0 -1 
1 64.18096705315925 53.078600825615354 0 -1 
1 -31.25175473044952 -3.1640561774105294 1 0 
1 64.18096705315925 13.067023401592195 1 0 
1 -14.950741705847506 -3.1640561774105294 0 -1 
1 80.481980077761264 13.067023401592195 0 -1 
1 -60.578753064177924 37.253787766915735 0 -1 
1 80.481980077761264 -42.504611909551073 0 -1 
1 13.892908827785817 2.2228654124457297 -1 0 
1 80.481980077761264 -99.558157495658151 -1 0 
1 13.892908827785817 2.2228654124457297 -1 0 
1 78.615379002541744 -74.483697965437997 -1 0 
1 52.696162422189644 -99.558157495658151 -1 0 
1 21.561833416434638 -74.483697965437997 0 1 
1 -4.3573831639174614 -99.558157495658151 0 1 
1 21.561833416434638 45.921511875372417 -1 0 
1 -4.3573831639174614 20.847052345152264 -1 0 
1 -4.357583163917468 40.111985919681928 0 -1 
1 32.703811132323381 13.659770047848099 0 -1 
1 0.3927838097907852 -25.223509444541264 1 0 
1 -8.8031139888089172 40.111885919681924 1 0 
1 4.838514634682241 -25.223509444541264 0 1 
1 -4.3573831639174614 40.111885919681924 0 1 
1 4.838514634682241 11.083292292072343 1 0 
1 -4.3573831639174614 76.418687656295532 1 0 
1 -25.933429811866858 -2.2228654124457137 1 0 
1 3.052168210901641 76.418687656295532 1 0 
1 -25.933429811866858 -2.2228654124457137 1 0 
1 -24.362077063183321 -40.572670100691369 1 0 
1 54.919027834635358 76.418687656295532 1 0 
1 -15.100137844659429 -40.572670100691369 0 -1 
1 64.18096705315925 76.418687656295532 0 -1 
1 -2.2228654124457421 10.188133140376266 0 -1 
1 64.18096705315925 73.454867106367885 0 -1 
1 -2.2228654124457421 10.188133140376266 0 -1 
1 6.2981186685962456 -2.2228654124457137 0 1 
1 6.2981186685962456 2.2228654124457421 -1 0 
1 -6.2981186685962314 2.2228654124457421 0 -1 
1 -2.2228654124457421 -10.188133140376266 1 0 
1 2.2228654124457137 10.188133140376266 -1 0 
1 13.892908827785817 -2.2228654124457323 0 1 
1 -13.892908827785803 2.2228654124457297 0 -1 
1 -13.892908827785803 -2.2228654124457323 1 0 
1 21.561833416434638 45.921511875372417 -1 0 
1 32.704011132323387 -5.6051635266815651 -1 0 
1 17.116102591543182 45.921511875372417 0 -1 
1 28.258280307431932 -5.6051635266815651 0 -1 
1 17.116102591543182 7.3918447263130815 -1 0 
1 28.258280307431932 -44.134830675740901 -1 0 
1 -41.789830838268671 7.3918447263130815 0 1 
1 -30.647653122379921 -44.134830675740901 0 1 
1 -41.789830838268671 94.824550949178487 1 0 
1 -30.647653122379921 43.297875547124505 1 0 
1 -14.819102749638176 -2.2228654124457137 1 0 
1 -19.533326060151268 43.297875547124505 1 0 
1 -17.760617058516004 4.4146960547351455 1 0 
1 10.104879439125142 43.297875547124505 1 0 
1 0.3927838097907852 4.4146960547351455 0 -1 
1 28.258280307431932 43.297875547124505 0 -1 
1 0.3927838097907852 -25.223509444541264 1 0 
1 28.258280307431932 13.659670047848095 1 0 
1 25.933429811866858 -2.2228654124457137 0 1 
1 25.933429811866858 2.2228654124457421 -1 0 
1 -25.933429811866858 2.2228654124457421 0 -1 
1 14.819102749638233 -2.2228654124457137 0 1 
1 14.819102749638233 2.2228654124457421 -1 0 
1 -14.819102749638176 2.2228654124457421 0 -1 
Curves 104
1 47.791606367583206 105.58610709117221 0 -1 0 0 
1 43.345875542691751 105.58610709117221 0 0 1 0 
1 43.345875542691751 120.77568740955137 0 1 0 0 
1 47.791606367583206 120.77568740955137 0 0 -1 0 
1 0.74095513748191022 92.248914616497828 0 0 1 0 
1 0.74095513748191022 249.70188133140374 0 1 0 0 
1 58.535455861070908 249.70188133140374 0 0 -1 0 
1 58.535455861070908 235.2532561505065 0 -1 0 0 
1 43.345875542691751 235.2532561505065 0 0 -1 0 
1 43.345875542691751 158.5643994211288 0 1 0 0 
1 58.535455861070908 143.00434153400866 0 0 1 0 
1 58.535455861070908 143.00434153400866 0 0 -1 0 
1 58.535455861070908 127.44428364688859 0 -1 0 0 
1 43.345875542691751 127.44428364688856 0 0 -1 0 
1 43.345875542691751 105.58610709117221 0 0 -1 0 
1 22.228654124457307 92.248914616497828 0 1 0 0 
1 22.228654124457307 92.248914616497828 0 -1 0 0 
1 0.74095513748191022 92.248914616497828 0 1 0 0 
1 47.791606367583206 105.58610709117221 0 0 -1 0 
1 47.791606367583206 92.248914616497828 0 1 0 0 
1 65.945007235890003 92.248914616497828 0 1 0 0 
1 102.62228654124456 92.248914616497828 0 0 1 0 
1 102.62228654124456 122.99855282199709 0 -1 0 0 
1 47.791606367583206 122.99855282199709 0 0 -1 0 
1 62.981186685962371 143.00434153400866 0 -1 0 0 
1 58.535455861070908 158.5643994211288 0 1 0 0 
1 62.981186685962371 158.5643994211288 0 0 -1 0 
1 43.345875542691751 92.248914616497828 0 0 -1 0 
1 43.345875542691751 87.803183791606358 0 -1 0 0 
1 22.228654124457307 87.803183791606358 0 0 1 0 
1 17.782923299565844 87.803183791606358 0 -1 0 0 
1 0.74095513748191022 87.803183791606358 0 0 1 0 
1 17.782923299565844 92.248914616497828 0 0 -1 0 
1 47.791606367583206 87.803183791606358 0 0 1 0 
1 65.945007235890003 92.248914616497828 0 0 -1 0 
1 65.945007235890003 87.803183791606358 0 -1 0 0 
1 62.981186685962371 143.00434153400866 0 0 -1 0 
1 62.981186685962371 127.44428364688856 0 1 0 0 
1 118.92329956584659 127.44428364688856 0 0 1 0 
1 118.92329956584659 158.5643994211288 0 -1 0 0 
1 81.505065123010127 158.5643994211288 0 -1 0 0 
1 107.06801736613603 87.803183791606358 0 -1 0 0 
1 47.791606367583206 87.803183791606358 0 -1 0 0 
1 22.228654124457307 87.803183791606358 0 -1 0 0 
1 0.74095513748191022 92.248914616497828 0 0 -1 0 
1 0.74095513748191022 10.373371924746744 0 1 0 0 
1 102.62228654124456 10.373371924746744 0 0 1 0 
1 102.62228654124456 67.426917510853826 0 0 1 0 
1 62.981186685962371 158.5643994211288 0 0 1 0 
1 62.981186685962371 163.01013024602025 0 1 0 0 
1 81.505065123010127 163.01013024602025 0 0 -1 0 
1 107.06801736613603 67.426917510853826 0 -1 0 0 
1 102.62228654124456 87.803183791606358 0 1 0 0 
1 106.69753979739507 87.803183791606358 0 1 0 0 
1 107.06801736613603 87.803183791606358 0 0 -1 0 
1 73.725036179450072 230.80752532561505 0 -1 0 0 
1 61.128798842257595 230.80752532561505 0 -1 0 0 
1 47.791606367583206 230.80752532561505 0 0 -1 0 
1 47.791606367583206 163.01013024602025 0 1 0 0 
1 81.505065123010127 163.01013024602025 0 1 0 0 
1 118.92329956584659 163.01013024602025 0 0 1 0 
1 118.92329956584659 183.38639652677278 0 0 1 0 
1 118.92329956584659 245.62662807525325 0 -1 0 0 
1 78.170767004341528 245.62662807525325 0 0 -1 0 
1 78.170767004341528 230.80752532561505 0 -1 0 0 
1 123.36903039073805 163.01013024602025 0 0 -1 0 
1 123.36903039073805 122.99855282199709 0 -1 0 0 
1 107.06801736613603 122.99855282199709 0 0 -1 0 
1 107.06801736613603 67.426917510853826 0 0 -1 0 
1 107.06801736613603 10.373371924746744 0 1 0 0 
1 134.85383502170765 10.373371924746744 0 1 0 0 
1 191.90738060781476 10.373371924746744 0 0 1 0 
1 191.90738060781476 130.77858176555716 0 1 0 0 
1 191.90758060781477 150.04351534008683 0 0 -1 0 
1 196.35311143270621 150.04341534008682 0 -1 0 0 
1 191.90738060781476 150.04341534008682 0 0 1 0 
1 191.90738060781476 186.35021707670043 0 -1 0 0 
1 184.49782923299566 186.35021707670043 0 -1 0 0 
1 132.63096960926194 186.35021707670043 0 -1 0 0 
1 123.36903039073805 186.35021707670043 0 0 -1 0 
1 123.36903039073805 183.38639652677278 0 0 -1 0 
1 61.128798842257595 230.80752532561505 0 0 1 0 
1 61.128798842257595 235.2532561505065 0 1 0 0 
1 73.725036179450072 235.2532561505065 0 0 -1 0 
1 123.36903039073805 163.01013024602025 0 -1 0 0 
1 118.92329956584659 183.38639652677278 0 1 0 0 
1 107.06801736613603 5.9276410998552818 0 0 1 0 
1 134.85383502170765 10.373371924746744 0 0 -1 0 
1 134.85383502170765 5.9276410998552818 0 -1 0 0 
1 191.90738060781476 130.77858176555716 0 1 0 0 
1 196.35311143270621 130.77858176555716 0 0 -1 0 
1 196.35311143270621 92.248914616497828 0 1 0 0 
1 255.25904486251807 92.248914616497828 0 0 1 0 
1 255.25904486251807 179.68162083936323 0 -1 0 0 
1 244.14471780028941 179.68162083936323 0 -1 0 0 
1 214.506512301013 179.68162083936323 0 -1 0 0 
1 196.35311143270621 179.68162083936323 0 0 -1 0 
1 196.35311143270621 150.04341534008682 0 -1 0 0 
1 132.63096960926194 186.35021707670043 0 0 1 0 
1 132.63096960926194 190.79594790159189 0 1 0 0 
1 184.49782923299566 190.79594790159189 0 0 -1 0 
1 214.506512301013 179.68162083936323 0 0 1 0 
1 214.506512301013 184.12735166425469 0 1 0 0 
1 244.14471780028941 184.12735166425469 0 0 -1 0 
Polygon3D 0
PolygonOnTriangulations 0
Surfaces 42
1 45.568740955137478 113.18089725036178 0 -0 -0 -1 -1 0 0 0 1 -0 
1 27.354884342092415 173.84481226239058 0 -0 -0 -1 -1 0 0 0 1 -0 
1 75.206946454413881 107.62373371924745 0 -0 -0 -1 -1 0 0 0 1 -0 
1 60.758321273516643 150.78437047756873 0 -0 -0 -1 -1 0 0 0 1 -0 
1 32.787264833574525 90.0260492040521 0 -0 -0 -1 -1 0 0 0 1 -0 
1 9.261939218523878 90.0260492040521 0 -0 -0 -1 -1 0 0 0 1 -0 
1 45.568740955137478 96.694645441389298 0 -0 -0 -1 -1 0 0 0 1 -0 
1 56.868306801736615 90.0260492040521 0 -0 -0 -1 -1 0 0 0 1 -0 
1 92.117275660288527 126.16260899940762 0 -0 -0 -1 -1 0 0 0 1 -0 
1 90.952243125904488 143.00434153400866 0 -0 -0 -1 -1 0 0 0 1 -0 
1 32.787264833574525 90.0260492040521 0 -0 -0 -1 -1 0 0 0 1 -0 
1 51.681620839363248 49.088277858176554 0 -0 -0 -1 -1 0 0 0 1 -0 
1 9.261939218523878 90.0260492040521 0 -0 -0 -1 -1 0 0 0 1 -0 
1 92.117275660288527 126.16260899940762 0 -0 -0 -1 -1 0 0 0 1 -0 
1 72.243125904486249 160.78726483357451 0 -0 -0 -1 -1 0 0 0 1 -0 
1 92.117275660288527 126.16260899940762 0 -0 -0 -1 -1 0 0 0 1 -0 
1 45.568740955137478 96.694645441389298 0 -0 -0 -1 -1 0 0 0 1 -0 
1 20.005788712011572 90.026049204052086 0 -0 -0 -1 -1 0 0 0 1 -0 
1 46.489264301958109 30.173129743938095 0 -0 -0 -1 -1 0 0 0 1 -0 
1 104.84515195369033 77.615050651230092 0 -0 -0 -1 -1 0 0 0 1 -0 
1 84.793819899894956 202.8820122274567 0 -0 -0 -1 -1 0 0 0 1 -0 
1 104.84515195369033 77.615050651230092 0 -0 -0 -1 -1 0 0 0 1 -0 
1 187.5499974438973 109.9315294204049 0 -0 -0 -1 -1 0 0 0 1 -0 
1 67.426917510853841 233.03039073806076 0 -0 -0 -1 -1 0 0 0 1 -0 
1 48.58825830171704 196.29866624946217 0 -0 -0 -1 -1 0 0 0 1 -0 
1 92.117275660288527 126.16260899940762 0 -0 -0 -1 -1 0 0 0 1 -0 
1 121.1461649782923 173.19826338639652 0 -0 -0 -1 -1 0 0 0 1 -0 
1 108.26889254607862 226.9228871773918 0 -0 -0 -1 -1 0 0 0 1 -0 
1 92.117275660288527 126.16260899940762 0 -0 -0 -1 -1 0 0 0 1 -0 
1 46.489264301958109 30.173129743938095 0 -0 -0 -1 -1 0 0 0 1 -0 
1 120.96092619392185 8.1505065123010141 0 -0 -0 -1 -1 0 0 0 1 -0 
1 120.96092619392185 8.1505065123010141 0 -0 -0 -1 -1 0 0 0 1 -0 
1 213.4692140242494 84.857069890184746 0 -0 -0 -1 -1 0 0 0 1 -0 
1 224.61139174013815 136.38374529223873 0 -0 -0 -1 -1 0 0 0 1 -0 
1 196.745895242497 175.26692478462809 0 -0 -0 -1 -1 0 0 0 1 -0 
1 158.5643994211288 188.57308248914615 0 -0 -0 -1 -1 0 0 0 1 -0 
1 158.5643994211288 188.57308248914615 0 -0 -0 -1 -1 0 0 0 1 -0 
1 108.26889254607862 226.9228871773918 0 -0 -0 -1 -1 0 0 0 1 -0 
1 121.1461649782923 173.19826338639652 0 -0 -0 -1 -1 0 0 0 1 -0 
1 213.4692140242494 84.857069890184746 0 -0 -0 -1 -1 0 0 0 1 -0 
1 229.32561505065124 181.90448625180895 0 -0 -0 -1 -1 0 0 0 1 -0 
1 196.745895242497 175.26692478462809 0 -0 -0 -1 -1 0 0 0 1 -0 
Triangulations 0

TShapes 226
Ve
1e-07
47.7916063675832 105.586107091172 0
0 0

0101101
*
Ve
1.00000158882186e-07
43.3458755426918 105.586107091172 0
0 0

0101101
*
Ed
 1e-07 1 1 0
1  1 0 0 4.44573082489146
2  1 1 0 0 4.44573082489146
0

0101000
+226 0 -225 0 *
Ve
1.00000257369525e-07
43.3458755426918 120.775687409551 0
0 0

0101101
*
Ed
 1e-07 1 1 0
1  2 0 0 15.1895803183792
2  2 1 0 0 15.1895803183792
2  3 2 0 0 15.1895803183792
0

0101000
+225 0 -223 0 *
Ve
1e-07
47.7916063675832 120.775687409551 0
0 0

0101101
*
Ed
 1e-07 1 1 0
1  3 0 0 4.44573082489146
2  4 1 0 0 4.44573082489146
0

0101000
+223 0 -221 0 *
Ed
 1e-07 1 1 0
1  4 0 0 15.1895803183792
2  5 1 0 0 15.1895803183792
2  6 3 0 0 15.1895803183792
0

0101000
+221 0 -226 0 *
Wi

0101100
+224 0 +222 0 +220 0 +219 0 *
Fa
0  1e-07 1 0

0111000
+218 0 *
Ve
1.00000014212589e-07
0.74095513748191 92.2489146164978 0
0 0

0101101
*
Ve
1e-07
0.74095513748191 249.701881331404 0
0 0

0101101
*
Ed
 1e-07 1 1 0
1  5 0 0 157.452966714906
2  7 2 0 0 157.452966714906
0

0101000
+216 0 -215 0 *
Ve
1e-07
58.5354558610709 249.701881331404 0
0 0

0101101
*
Ed
 1e-07 1 1 0
1  6 0 0 57.794500723589
2  8 2 0 0 57.794500723589
0

0101000
+215 0 -213 0 *
Ve
1e-07
58.5354558610709 235.253256150507 0
0 0

0101101
*
Ed
 1e-07 1 1 0
1  7 0 0 14.4486251808972
2  9 2 0 0 14.4486251808972
0

0101000
+213 0 -211 0 *
Ve
1.00000257001451e-07
43.3458755426918 235.253256150507 0
0 0

0101101
*
Ed
 1e-07 1 1 0
1  8 0 0 15.1895803183792
2  10 2 0 0 15.1895803183792
0

0101000
+211 0 -209 0 *
Ve
1.00000102537496e-07
43.3458755426918 158.564399421129 0
0 0

0101101
*
Ed
 1e-07 1 1 0
1  9 0 0 76.6888567293777
2  11 2 0 0 76.6888567293777
0

0101000
+209 0 -207 0 *
Ve
1.00000099539404e-07
58.5354558610709 158.564399421129 0
0 0

0101101
*
Ed
 1e-07 1 1 0
1  10 0 0 15.1895803183792
2  12 2 0 0 15.1895803183792
0

0101000
+207 0 -205 0 *
Ve
1.00000227373675e-07
58.5354558610709 143.004341534009 0
0 0

0101101
*
Ed
 1e-07 1 1 0
1  11 0 0 15.5600578871201
2  13 4 0 0 15.5600578871201
2  14 2 0 0 15.5600578871201
0

0101000
+203 0 -205 0 *
Ve
1.00000206088018e-07
58.5354558610709 127.444283646889 0
0 0

0101101
*
Ed
 1e-07 1 1 0
1  12 0 0 15.5600578871201
2  15 2 0 0 15.5600578871201
0

0101000
+203 0 -201 0 *
Ve
1.00000221714036e-07
43.3458755426918 127.444283646889 0
0 0

0101101
*
Ed
 1.00000028421709e-07 1 1 0
1  13 0 0 15.1895803183792
2  16 2 0 0 15.1895803183792
0

0101000
+201 0 -199 0 *
Ed
 1e-07 1 1 0
1  14 0 0 6.6685962373372
2  17 2 0 0 6.6685962373372
0

0101000
+199 0 -223 0 *
Ve
1.00000028642893e-07
43.3458755426918 92.2489146164978 0
0 0

0101101
*
Ed
 1e-07 1 1 0
1  15 0 0 13.3371924746744
2  18 2 0 0 13.3371924746744
0

0101000
+225 0 -196 0 *
Ve
1.00000014648214e-07
22.2286541244573 92.2489146164978 0
0 0

0101101
*
Ed
 1e-07 1 1 0
1  16 0 0 21.1172214182344
2  19 5 0 0 21.1172214182344
2  20 2 0 0 21.1172214182344
0

0101000
+194 0 -196 0 *
Ve
1.00000031776437e-07
17.7829232995658 92.2489146164978 0
0 0

0101101
*
Ed
 1e-07 1 1 0
1  17 0 0 4.44573082489146
2  21 2 0 0 4.44573082489146
0

0101000
+194 0 -192 0 *
Ed
 1.00000000888178e-07 1 1 0
1  18 0 0 17.0419681620839
2  22 6 0 0 17.0419681620839
2  23 2 0 0 17.0419681620839
0

0101000
+216 0 -192 0 *
Wi

0101100
+214 0 +212 0 +210 0 +208 0 +206 0 +204 0 -202 0 +200 0 +198 0 +197 0 
-222 0 +195 0 -193 0 +191 0 -190 0 *
Fa
0  1e-07 2 0

0111000
+189 0 *
Ve
1.00000007105427e-07
47.7916063675832 92.2489146164978 0
0 0

0101101
*
Ed
 1e-07 1 1 0
1  19 0 0 13.3371924746744
2  24 7 0 0 13.3371924746744
2  25 3 0 0 13.3371924746744
0

0101000
+226 0 -187 0 *
Ve
1e-07
65.94500723589 92.2489146164978 0
0 0

0101101
*
Ed
 1e-07 1 1 0
1  20 0 0 18.1534008683068
2  26 8 0 0 18.1534008683068
2  27 3 0 0 18.1534008683068
0

0101000
+187 0 -185 0 *
Ve
1e-07
102.622286541245 92.2489146164978 0
0 0

0101101
*
Ed
 1e-07 1 1 0
1  21 0 0 36.6772793053546
2  28 9 0 0 36.6772793053546
2  29 3 0 0 36.6772793053546
0

0101000
+185 0 -183 0 *
Ve
1e-07
102.622286541245 122.998552821997 0
0 0

0101101
*
Ed
 1e-07 1 1 0
1  22 0 0 30.7496382054993
2  30 9 0 0 30.7496382054993
2  31 3 0 0 30.7496382054993
0

0101000
+183 0 -181 0 *
Ve
1e-07
47.7916063675832 122.998552821997 0
0 0

0101101
*
Ed
 1e-07 1 1 0
1  23 0 0 54.8306801736614
2  32 9 0 0 54.8306801736614
2  33 3 0 0 54.8306801736614
0

0101000
+181 0 -179 0 *
Ed
 1e-07 1 1 0
1  24 0 0 2.22286541244573
2  34 9 0 0 2.22286541244573
2  35 3 0 0 2.22286541244573
0

0101000
+179 0 -221 0 *
Wi

0101100
-186 0 -184 0 -182 0 -180 0 -178 0 -177 0 -219 0 *
Fa
0  1e-07 3 0

0101000
+176 0 *
Ve
1e-07
62.9811866859624 143.004341534009 0
0 0

0101101
*
Ed
 1e-07 1 1 0
1  25 0 0 4.44573082489146
2  36 4 0 0 4.44573082489146
0

0101000
+174 0 -203 0 *
Ve
1e-07
62.9811866859624 158.564399421129 0
0 0

0101101
*
Ed
 1e-07 1 1 0
1  26 0 0 4.44573082489146
2  37 4 0 0 4.44573082489146
0

0101000
+205 0 -172 0 *
Ed
 1e-07 1 1 0
1  27 0 0 15.5600578871201
2  38 4 0 0 15.5600578871201
2  39 10 0 0 15.5600578871201
0

0101000
+172 0 -174 0 *
Wi

0101100
+173 0 +202 0 +171 0 +170 0 *
Fa
0  1e-07 4 0

0111000
+169 0 *
Ve
1e-07
43.3458755426918 87.8031837916064 0
0 0

0101101
*
Ed
 1e-07 1 1 0
1  28 0 0 4.44573082489147
2  40 5 0 0 4.44573082489147
0

0101000
+196 0 -167 0 *
Ve
1e-07
22.2286541244573 87.8031837916064 0
0 0

0101101
*
Ed
 1e-07 1 1 0
1  29 0 0 21.1172214182344
2  41 11 0 0 21.1172214182344
2  42 12 0 0 21.1172214182344
2  43 5 0 0 21.1172214182344
0

0101000
+167 0 -165 0 *
Ed
 1e-07 1 1 0
1  30 0 0 4.44573082489147
2  44 5 0 0 4.44573082489147
0

0101000
+165 0 -194 0 *
Wi

0101100
+193 0 +166 0 +164 0 +163 0 *
Fa
0  1e-07 5 0

0111000
+162 0 *
Ve
1e-07
17.7829232995658 87.8031837916064 0
0 0

0101101
*
Ve
1.00000000222045e-07
0.74095513748191 87.8031837916064 0
0 0

0101101
*
Ed
 1e-07 1 1 0
1  31 0 0 17.0419681620839
2  45 13 0 0 17.0419681620839
2  46 12 0 0 17.0419681620839
2  47 6 0 0 17.0419681620839
0

0101000
+160 0 -159 0 *
Ed
 1e-07 1 1 0
1  32 0 0 4.44573082489147
2  48 6 0 0 4.44573082489147
0

0101000
+159 0 -216 0 *
Ed
 1e-07 1 1 0
1  33 0 0 4.44573082489147
2  49 6 0 0 4.44573082489147
0

0101000
+192 0 -160 0 *
Wi

0101100
+158 0 +157 0 +190 0 +156 0 *
Fa
0  1e-07 6 0

0111000
+155 0 *
Ve
1e-07
47.7916063675832 87.8031837916064 0
0 0

0101101
*
Ed
 1e-07 1 1 0
1  34 0 0 4.44573082489147
2  50 8 0 0 4.44573082489147
0

0101000
+153 0 -187 0 *
Ve
1e-07
65.94500723589 87.8031837916064 0
0 0

0101101
*
Ed
 1e-07 1 1 0
1  35 0 0 4.44573082489147
2  51 8 0 0 4.44573082489147
0

0101000
+185 0 -151 0 *
Ed
 1e-07 1 1 0
1  36 0 0 18.1534008683068
2  52 8 0 0 18.1534008683068
2  53 12 0 0 18.1534008683068
0

0101000
+151 0 -153 0 *
Wi

0101100
+152 0 +184 0 +150 0 +149 0 *
Fa
0  1e-07 8 0

0111000
+148 0 *
Ve
1e-07
62.9811866859624 127.444283646889 0
0 0

0101101
*
Ed
 1e-07 1 1 0
1  37 0 0 15.5600578871201
2  54 14 0 0 15.5600578871201
2  55 10 0 0 15.5600578871201
0

0101000
+174 0 -146 0 *
Ve
1e-07
118.923299565847 127.444283646889 0
0 0

0101101
*
Ed
 1e-07 1 1 0
1  38 0 0 55.9421128798842
2  56 14 0 0 55.9421128798842
2  57 10 0 0 55.9421128798842
0

0101000
+146 0 -144 0 *
Ve
1e-07
118.923299565847 158.564399421129 0
0 0

0101101
*
Ed
 1e-07 1 1 0
1  39 0 0 31.1201157742402
2  58 14 0 0 31.1201157742402
2  59 10 0 0 31.1201157742402
0

0101000
+144 0 -142 0 *
Ve
1e-07
81.5050651230101 158.564399421129 0
0 0

0101101
*
Ed
 1e-07 1 1 0
1  40 0 0 37.4182344428365
2  60 14 0 0 37.4182344428365
2  61 10 0 0 37.4182344428365
0

0101000
+142 0 -140 0 *
Ed
 1e-07 1 1 0
1  41 0 0 18.5238784370478
2  62 15 0 0 18.5238784370478
2  63 10 0 0 18.5238784370478
0

0101000
+140 0 -172 0 *
Wi

0101100
-170 0 -145 0 -143 0 -141 0 -139 0 -138 0 *
Fa
0  1e-07 10 0

0101000
+137 0 *
Ve
1.00000042632564e-07
102.622286541245 87.8031837916064 0
0 0

0101101
*
Ed
 1e-07 1 1 0
1  42 0 4.44573082489103 41.123010130246
2  64 16 0 4.44573082489103 41.123010130246
2  65 12 0 4.44573082489103 41.123010130246
0

0101000
+135 0 -151 0 *
Ed
 1e-07 1 1 0
1  43 0 0 4.44573082489146
2  66 17 0 0 4.44573082489146
2  67 12 0 0 4.44573082489146
0

0101000
+153 0 -167 0 *
Ed
 1e-07 1 1 0
1  44 0 0 4.44573082489146
2  68 18 0 0 4.44573082489146
2  69 12 0 0 4.44573082489146
0

0101000
+165 0 -160 0 *
Ve
1e-07
0.74095513748191 10.3733719247467 0
0 0

0101101
*
Ed
 1e-07 1 1 0
1  45 0 4.44573082489143 81.8755426917511
2  70 19 0 4.44573082489143 81.8755426917511
2  71 12 0 4.44573082489143 81.8755426917511
0

0101000
+159 0 -131 0 *
Ve
1e-07
102.622286541245 10.3733719247467 0
0 0

0101101
*
Ed
 1e-07 1 1 0
1  46 0 0 101.881331403763
2  72 19 0 0 101.881331403763
2  73 12 0 0 101.881331403763
0

0101000
+131 0 -129 0 *
Ve
1e-07
102.622286541245 67.4269175108538 0
0 0

0101101
*
Ed
 1e-07 1 1 0
1  47 0 0 57.0535455861071
2  74 19 0 0 57.0535455861071
2  75 12 0 0 57.0535455861071
0

0101000
+129 0 -127 0 *
Ed
 1e-07 1 1 0
1  48 0 0 20.3762662807525
2  76 20 0 0 20.3762662807525
2  77 12 0 0 20.3762662807525
0

0101000
+127 0 -135 0 *
Wi

0101100
-134 0 -149 0 -133 0 -164 0 -132 0 -158 0 -130 0 -128 0 -126 0 -125 0 
*
Fa
0  1e-07 12 0

0101000
+124 0 *
Ve
1e-07
62.9811866859624 163.01013024602 0
0 0

0101101
*
Ed
 1e-07 1 1 0
1  49 0 0 4.44573082489146
2  78 15 0 0 4.44573082489146
0

0101000
+172 0 -122 0 *
Ve
1e-07
81.5050651230101 163.01013024602 0
0 0

0101101
*
Ed
 1e-07 1 1 0
1  50 0 0 18.5238784370478
2  79 15 0 0 18.5238784370478
2  80 21 0 0 18.5238784370478
0

0101000
+122 0 -120 0 *
Ed
 1e-07 1 1 0
1  51 0 0 4.44573082489146
2  81 15 0 0 4.44573082489146
0

0101000
+120 0 -140 0 *
Wi

0101100
+121 0 +119 0 +118 0 +138 0 *
Fa
0  1e-07 15 0

0111000
+117 0 *
Ve
1e-07
107.068017366136 67.4269175108538 0
0 0

0101101
*
Ed
 1e-07 1 1 0
1  52 0 0 4.44573082489147
2  82 20 0 0 4.44573082489147
0

0101000
+115 0 -127 0 *
Ve
1e-07
106.697539797395 87.8031837916064 0
0 0

0101101
*
Ed
 1e-07 1 1 0
1  53 0 0 4.0752532561505
2  83 20 0 0 4.0752532561505
0

0101000
+135 0 -113 0 *
Ve
1e-07
107.068017366136 87.8031837916064 0
0 0

0101101
*
Ed
 1e-07 1 1 0
1  54 0 0 0.370477568740966
2  84 20 0 0 0.370477568740966
0

0101000
+113 0 -111 0 *
Ed
 1e-07 1 1 0
1  55 0 0 20.3762662807525
2  85 22 0 0 20.3762662807525
2  86 23 0 0 20.3762662807525
2  87 20 0 0 20.3762662807525
0

0101000
+111 0 -115 0 *
Wi

0101100
+114 0 +125 0 +112 0 +110 0 +109 0 *
Fa
0  1e-07 20 0

0111000
+108 0 *
Ve
1e-07
73.7250361794501 230.807525325615 0
0 0

0101101
*
Ve
1e-07
61.1287988422576 230.807525325615 0
0 0

0101101
*
Ed
 1e-07 1 1 0
1  56 0 0 12.5962373371925
2  88 24 0 0 12.5962373371925
2  89 21 0 0 12.5962373371925
0

0101000
+106 0 -105 0 *
Ve
1e-07
47.7916063675832 230.807525325615 0
0 0

0101101
*
Ed
 1e-07 1 1 0
1  57 0 0 13.3371924746744
2  90 25 0 0 13.3371924746744
2  91 21 0 0 13.3371924746744
0

0101000
+105 0 -103 0 *
Ve
1e-07
47.7916063675832 163.01013024602 0
0 0

0101101
*
Ed
 1e-07 1 1 0
1  58 0 0 67.7973950795948
2  92 25 0 0 67.7973950795948
2  93 21 0 0 67.7973950795948
0

0101000
+103 0 -101 0 *
Ed
 1e-07 1 1 0
1  59 0 0 15.1895803183792
2  94 25 0 0 15.1895803183792
2  95 21 0 0 15.1895803183792
0

0101000
+101 0 -122 0 *
Ve
1.00000255795385e-07
118.923299565847 163.01013024602 0
0 0

0101101
*
Ed
 1e-07 1 1 0
1  60 0 0 37.4182344428369
2  96 26 0 0 37.4182344428369
2  97 21 0 0 37.4182344428369
0

0101000
+120 0 -98 0 *
Ve
1e-07
118.923299565847 183.386396526773 0
0 0

0101101
*
Ed
 1e-07 1 1 0
1  61 0 0 20.3762662807525
2  98 27 0 0 20.3762662807525
2  99 21 0 0 20.3762662807525
0

0101000
+98 0 -96 0 *
Ve
1e-07
118.923299565847 245.626628075253 0
0 0

0101101
*
Ed
 1e-07 1 1 0
1  62 0 0 62.2402315484805
2  100 28 0 0 62.2402315484805
2  101 21 0 0 62.2402315484805
0

0101000
+96 0 -94 0 *
Ve
1e-07
78.1707670043415 245.626628075253 0
0 0

0101101
*
Ed
 1e-07 1 1 0
1  63 0 0 40.7525325615051
2  102 28 0 0 40.7525325615051
2  103 21 0 0 40.7525325615051
0

0101000
+94 0 -92 0 *
Ve
1e-07
78.1707670043415 230.807525325615 0
0 0

0101101
*
Ed
 1e-07 1 1 0
1  64 0 0 14.8191027496382
2  104 28 0 0 14.8191027496382
2  105 21 0 0 14.8191027496382
0

0101000
+92 0 -90 0 *
Ed
 1e-07 1 1 0
1  65 0 0 4.44573082489146
2  106 28 0 0 4.44573082489146
2  107 21 0 0 4.44573082489146
0

0101000
+90 0 -106 0 *
Wi

0101100
-104 0 -102 0 -100 0 -99 0 -119 0 -97 0 -95 0 -93 0 -91 0 -89 0 
-88 0 *
Fa
0  1e-07 21 0

0101000
+87 0 *
Ve
1e-07
123.369030390738 163.01013024602 0
0 0

0101101
*
Ve
1e-07
123.369030390738 122.998552821997 0
0 0

0101101
*
Ed
 1e-07 1 1 0
1  66 0 0 40.0115774240232
2  108 29 0 0 40.0115774240232
2  109 23 0 0 40.0115774240232
0

0101000
+85 0 -84 0 *
Ve
1e-07
107.068017366136 122.998552821997 0
0 0

0101101
*
Ed
 1e-07 1 1 0
1  67 0 0 16.301013024602
2  110 29 0 0 16.301013024602
2  111 23 0 0 16.301013024602
0

0101000
+84 0 -82 0 *
Ed
 1e-07 1 1 0
1  68 0 0 35.1953690303907
2  112 29 0 0 35.1953690303907
2  113 23 0 0 35.1953690303907
0

0101000
+82 0 -111 0 *
Ve
1.00000028421709e-07
107.068017366136 10.3733719247467 0
0 0

0101101
*
Ed
 1e-07 1 1 0
1  69 0 0 57.0535455861071
2  114 30 0 0 57.0535455861071
2  115 23 0 0 57.0535455861071
0

0101000
+115 0 -79 0 *
Ve
1e-07
134.853835021708 10.3733719247467 0
0 0

0101101
*
Ed
 1e-07 1 1 0
1  70 0 0 27.7858176555716
2  116 31 0 0 27.7858176555716
2  117 23 0 0 27.7858176555716
2  118 32 0 0 27.7858176555716
0

0101000
+79 0 -77 0 *
Ve
1e-07
191.907380607815 10.3733719247467 0
0 0

0101101
*
Ed
 1e-07 1 1 0
1  71 0 0 57.0535455861071
2  119 33 0 0 57.0535455861071
2  120 23 0 0 57.0535455861071
0

0101000
+77 0 -75 0 *
Ve
1e-07
191.907380607815 130.778581765557 0
0 0

0101101
*
Ed
 1e-07 1 1 0
1  72 0 0 120.40520984081
2  121 33 0 0 120.40520984081
2  122 23 0 0 120.40520984081
0

0101000
+75 0 -73 0 *
Ve
1e-07
191.907580607815 130.778581765557 0
0 0

0101101
*
Ed
 1e-07 1 1 0
1  73 0 0 0.000200000000006639
2  123 33 0 0 0.000200000000006639
2  124 23 0 0 0.000200000000006639
0

0101000
+73 0 -71 0 *
Ve
1e-07
191.907580607815 150.043415340087 0
0 0

0101101
*
Ed
 1e-07 1 1 0
1  74 0 0.00010000000000332 19.2649335745297
2  125 23 0 0.00010000000000332 19.2649335745297
2  126 34 0 0.00010000000000332 19.2649335745297
0

0101000
+69 0 -71 0 *
Ve
1e-07
191.907380607815 150.043415340087 0
0 0

0101101
*
Ed
 1e-07 1 1 0
1  75 0 4.44553082489145 4.44573082489146
2  127 35 0 4.44553082489145 4.44573082489146
2  128 23 0 4.44553082489145 4.44573082489146
0

0101000
+69 0 -67 0 *
Ve
1e-07
191.907380607815 186.3502170767 0
0 0

0101101
*
Ed
 1e-07 1 1 0
1  76 0 0 36.3068017366136
2  129 35 0 0 36.3068017366136
2  130 23 0 0 36.3068017366136
0

0101000
+67 0 -65 0 *
Ve
1e-07
184.497829232996 186.3502170767 0
0 0

0101101
*
Ed
 1e-07 1 1 0
1  77 0 0 7.4095513748191
2  131 35 0 0 7.4095513748191
2  132 23 0 0 7.4095513748191
0

0101000
+65 0 -63 0 *
Ve
1e-07
132.630969609262 186.3502170767 0
0 0

0101101
*
Ed
 1e-07 1 1 0
1  78 0 0 51.8668596237337
2  133 36 0 0 51.8668596237337
2  134 23 0 0 51.8668596237337
2  135 37 0 0 51.8668596237337
0

0101000
+63 0 -61 0 *
Ve
1e-07
123.369030390738 186.3502170767 0
0 0

0101101
*
Ed
 1e-07 1 1 0
1  79 0 0 9.26193921852389
2  136 38 0 0 9.26193921852389
2  137 23 0 0 9.26193921852389
0

0101000
+61 0 -59 0 *
Ve
1e-07
123.369030390738 183.386396526773 0
0 0

0101101
*
Ed
 1e-07 1 1 0
1  80 0 0 2.96382054992765
2  138 38 0 0 2.96382054992765
2  139 23 0 0 2.96382054992765
0

0101000
+59 0 -57 0 *
Ed
 1e-07 1 1 0
1  81 0 0 20.3762662807525
2  140 39 0 0 20.3762662807525
2  141 23 0 0 20.3762662807525
2  142 27 0 0 20.3762662807525
0

0101000
+57 0 -85 0 *
Wi

0101100
-83 0 -81 0 -80 0 -109 0 -78 0 -76 0 -74 0 -72 0 -70 0 +68 0 
-66 0 -64 0 -62 0 -60 0 -58 0 -56 0 -55 0 *
Fa
0  1e-07 23 0

0101000
+54 0 *
Ve
1e-07
61.1287988422576 235.253256150507 0
0 0

0101101
*
Ed
 1e-07 1 1 0
1  82 0 0 4.44573082489146
2  143 24 0 0 4.44573082489146
0

0101000
+105 0 -52 0 *
Ve
1e-07
73.7250361794501 235.253256150507 0
0 0

0101101
*
Ed
 1e-07 1 1 0
1  83 0 0 12.5962373371925
2  144 24 0 0 12.5962373371925
0

0101000
+52 0 -50 0 *
Ed
 1e-07 1 1 0
1  84 0 0 4.44573082489146
2  145 24 0 0 4.44573082489146
0

0101000
+50 0 -106 0 *
Wi

0101100
+51 0 +49 0 +48 0 +104 0 *
Fa
0  1e-07 24 0

0111000
+47 0 *
Ed
 1e-07 1 1 0
1  85 0 0 4.44573082489146
2  146 27 0 0 4.44573082489146
0

0101000
+85 0 -98 0 *
Ed
 1e-07 1 1 0
1  86 0 0 4.44573082489146
2  147 27 0 0 4.44573082489146
0

0101000
+96 0 -57 0 *
Wi

0101100
+45 0 +95 0 +44 0 +55 0 *
Fa
0  1e-07 27 0

0111000
+43 0 *
Ve
1e-07
107.068017366136 5.92764109985528 0
0 0

0101101
*
Ed
 1e-07 1 1 0
1  87 0 0 4.44573082489146
2  148 32 0 0 4.44573082489146
0

0101000
+41 0 -79 0 *
Ve
1e-07
134.853835021708 5.92764109985528 0
0 0

0101101
*
Ed
 1e-07 1 1 0
1  88 0 0 4.44573082489146
2  149 32 0 0 4.44573082489146
0

0101000
+77 0 -39 0 *
Ed
 1e-07 1 1 0
1  89 0 0 27.7858176555716
2  150 32 0 0 27.7858176555716
0

0101000
+39 0 -41 0 *
Wi

0101100
+40 0 +76 0 +38 0 +37 0 *
Fa
0  1e-07 32 0

0111000
+36 0 *
Ve
1e-07
196.353111432706 130.778581765557 0
0 0

0101101
*
Ed
 1e-07 1 1 0
1  90 0 0.000200000000006639 4.44573082489146
2  151 40 0 0.000200000000006639 4.44573082489146
2  152 34 0 0.000200000000006639 4.44573082489146
0

0101000
+71 0 -34 0 *
Ve
1e-07
196.353111432706 92.2489146164978 0
0 0

0101101
*
Ed
 1e-07 1 1 0
1  91 0 0 38.5296671490593
2  153 40 0 0 38.5296671490593
2  154 34 0 0 38.5296671490593
0

0101000
+34 0 -32 0 *
Ve
1e-07
255.259044862518 92.2489146164978 0
0 0

0101101
*
Ed
 1e-07 1 1 0
1  92 0 0 58.9059334298119
2  155 40 0 0 58.9059334298119
2  156 34 0 0 58.9059334298119
0

0101000
+32 0 -30 0 *
Ve
1e-07
255.259044862518 179.681620839363 0
0 0

0101101
*
Ed
 1e-07 1 1 0
1  93 0 0 87.4327062228654
2  157 40 0 0 87.4327062228654
2  158 34 0 0 87.4327062228654
0

0101000
+30 0 -28 0 *
Ve
1e-07
244.144717800289 179.681620839363 0
0 0

0101101
*
Ed
 1e-07 1 1 0
1  94 0 0 11.1143270622287
2  159 40 0 0 11.1143270622287
2  160 34 0 0 11.1143270622287
0

0101000
+28 0 -26 0 *
Ve
1e-07
214.506512301013 179.681620839363 0
0 0

0101101
*
Ed
 1e-07 1 1 0
1  95 0 0 29.6382054992764
2  161 41 0 0 29.6382054992764
2  162 34 0 0 29.6382054992764
0

0101000
+26 0 -24 0 *
Ve
1e-07
196.353111432706 179.681620839363 0
0 0

0101101
*
Ed
 1e-07 1 1 0
1  96 0 0 18.1534008683068
2  163 42 0 0 18.1534008683068
2  164 34 0 0 18.1534008683068
0

0101000
+24 0 -22 0 *
Ve
1e-07
196.353111432706 150.043415340087 0
0 0

0101101
*
Ed
 1e-07 1 1 0
1  97 0 0 29.6382054992764
2  165 42 0 0 29.6382054992764
2  166 34 0 0 29.6382054992764
0

0101000
+22 0 -20 0 *
Ed
 1e-07 1 1 0
1  98 0 0 4.44553082489145
2  167 42 0 0 4.44553082489145
2  168 34 0 0 4.44553082489145
0

0101000
+20 0 -69 0 *
Wi

0101100
-33 0 -31 0 -29 0 -27 0 -25 0 -23 0 -21 0 -19 0 -18 0 -68 0 
*
Fa
0  1e-07 34 0

0101000
+17 0 *
Ve
1e-07
132.630969609262 190.795947901592 0
0 0

0101101
*
Ed
 1e-07 1 1 0
1  99 0 0 4.44573082489146
2  169 37 0 0 4.44573082489146
0

0101000
+61 0 -15 0 *
Ve
1e-07
184.497829232996 190.795947901592 0
0 0

0101101
*
Ed
 1e-07 1 1 0
1  100 0 0 51.8668596237337
2  170 37 0 0 51.8668596237337
0

0101000
+15 0 -13 0 *
Ed
 1e-07 1 1 0
1  101 0 0 4.44573082489146
2  171 37 0 0 4.44573082489146
0

0101000
+13 0 -63 0 *
Wi

0101100
+14 0 +12 0 +11 0 +60 0 *
Fa
0  1e-07 37 0

0111000
+10 0 *
Ve
1e-07
214.506512301013 184.127351664255 0
0 0

0101101
*
Ed
 1e-07 1 1 0
1  102 0 0 4.44573082489146
2  172 41 0 0 4.44573082489146
0

0101000
+24 0 -8 0 *
Ve
1e-07
244.144717800289 184.127351664255 0
0 0

0101101
*
Ed
 1e-07 1 1 0
1  103 0 0 29.6382054992764
2  173 41 0 0 29.6382054992764
0

0101000
+8 0 -6 0 *
Ed
 1e-07 1 1 0
1  104 0 0 4.44573082489146
2  174 41 0 0 4.44573082489146
0

0101000
+6 0 -26 0 *
Wi

0101100
+7 0 +5 0 +4 0 +23 0 *
Fa
0  1e-07 41 0

0111000
+3 0 *
Sh

0101000
+217 0 +188 0 +175 0 +168 0 +161 0 +154 0 +147 0 +136 0 +123 0 +116 0 
+107 0 +86 0 +53 0 +46 0 +42 0 +35 0 +16 0 +9 0 +2 0 *

+1 0 