
CASCADE Topology V3, (c) Open Cascade
Locations 0
Curve2ds 217
1 7.3474320241691657 -2.3202416918429005 0 1 
1 7.3474320241691657 2.3202416918429005 -1 0 
1 19.096232261223065 -37.85151927028646 -1 0 
1 -7.3474320241691942 2.3202416918429005 0 -1 
1 -7.3474320241691942 -2.3202416918429005 1 0 
1 -42.090408671912741 55.709755901933001 0 -1 
1 48.872667306540279 44.903767738776978 0 -1 
1 -2.3202416918429094 9.8610271903323365 0 -1 
1 48.872667306540279 18.607695231224113 0 -1 
1 -42.090408671912741 9.6916290137154846 0 -1 
1 48.872667306540279 -1.1143591494405385 0 -1 
1 -42.090408671912741 -27.045531107130437 -1 0 
1 48.872667306540279 -37.85151927028646 -1 0 
1 3.4803625377643357 2.3202416918429005 -1 0 
1 4.4013682128847051 -37.85151927028646 -1 0 
1 8.8942598187311148 2.3202416918429023 -1 0 
1 -2.5593568626439946 -37.85151927028646 -1 0 
1 8.8942598187311148 2.3202416918429023 -1 0 
1 11.462425129214466 -49.774034969525339 -1 0 
1 -20.347876500106253 -37.85151927028646 -1 0 
1 -19.474130762024203 -49.774034969525339 0 1 
1 -51.284432391344922 -37.85151927028646 0 1 
1 -19.474130762024203 3.2048169942208844 1 0 
1 -51.284432391344922 15.127332693459763 1 0 
1 -2.0723180732024389 3.2048169942208844 0 1 
1 -33.882619702523158 15.127332693459763 0 1 
1 -2.0723180732024389 28.340768655852308 1 0 
1 -33.882619702523158 40.263284355091187 1 0 
1 -9.2809667673716092 -2.3202416918428952 1 0 
1 30.310733771797089 40.263284355091187 1 0 
1 -9.2809667673716092 -2.3202416918428952 1 0 
1 -2.3202416918429094 -9.8610271903323152 1 0 
1 2.320241691842881 -9.8610271903323152 0 1 
1 -17.788519637462258 8.5075528700906347 0 1 
1 2.320241691842881 9.8610271903323365 -1 0 
1 8.8942598187311148 -2.3202416918428987 0 1 
1 -8.8942598187311432 2.3202416918429023 0 -1 
1 -8.8942598187311432 -2.3202416918428987 1 0 
1 9.2809667673715808 -2.3202416918428952 0 1 
1 9.2809667673715808 2.3202416918428952 -1 0 
1 16.548569813254147 -44.744481546262421 -1 0 
1 -9.2809667673716092 2.3202416918428952 0 -1 
1 -42.090408671912741 29.413683394380136 1 0 
1 -22.429003021148048 28.229607250755286 1 0 
1 -1.8728860133024625 29.413683394380136 0 -1 
1 17.78851963746223 28.229607250755286 0 -1 
1 -1.8728860133024625 -27.045531107130437 -1 0 
1 17.78851963746223 -28.229607250755286 -1 0 
1 -37.44992528822695 -27.045531107130437 0 1 
1 -17.788519637462258 -28.229607250755286 0 1 
1 -6.2517623363544743 -37.625634474881252 1 0 
1 72.62107736612424 26.409597003586526 1 0 
1 -2.7713997985901244 -37.625634474881252 0 -1 
1 76.10143990388859 26.409597003586526 0 -1 
1 -2.3202416918429094 10.054380664652584 0 -1 
1 76.10143990388859 -11.100977014540362 0 -1 
1 -75.357451594465516 -27.877289237390713 0 -1 
1 76.10143990388859 -31.209738343845501 0 -1 
1 -75.357451594465516 -34.838014312919412 1 0 
1 76.10143990388859 -38.170463419374201 1 0 
1 -2.3202416918429094 10.054380664652555 0 -1 
1 97.370322079115169 -38.170463419374201 0 -1 
1 38.731343593948282 42.175012699516095 0 -1 
1 97.370322079115169 -58.279224748679326 0 -1 
1 38.731343593948282 34.054166778065941 -1 0 
1 97.370322079115169 -66.40007067012948 -1 0 
1 10.05438066465257 2.3202416918428952 -1 0 
1 83.44887192805777 -66.40007067012948 -1 0 
1 4.7011321135857571 34.054166778065941 -1 0 
1 63.340110598752645 -66.40007067012948 -1 0 
1 -37.44992528822695 34.054166778065941 0 1 
1 21.189053196939938 -66.40007067012948 0 1 
1 -37.44992528822695 55.709755901933001 -1 0 
1 21.189053196939938 -44.744481546262421 -1 0 
1 62.121035401117808 32.981252039538099 -1 0 
1 -2.0133637214890427 -44.744481546262421 -1 0 
1 2.3202416918429378 -11.407854984894257 0 1 
1 -83.608529884631054 -44.744481546262421 0 1 
1 -1.8599763562327496 -64.489688690397983 0 1 
1 -83.608529884631054 -21.928771576473892 0 1 
1 -1.8599763562327496 37.600945750689618 1 0 
1 -83.608529884631054 80.16186286461371 1 0 
1 -9.8610271903322939 -2.3202416918429094 1 0 
1 -53.445387890673345 80.16186286461371 1 0 
1 -9.8610271903322939 -2.3202416918429094 1 0 
1 -38.601039575162815 17.091566430854499 1 0 
1 -33.7233335100087 80.16186286461371 1 0 
1 -8.8246045298455726 17.091566430854499 0 -1 
1 -3.9468984646914578 80.16186286461371 0 -1 
1 -8.8246045298455726 -36.660699430172684 1 0 
1 -3.9468984646914578 26.409597003586526 1 0 
1 -9.8610271903323365 -2.3202416918429094 1 0 
1 52.899022985459581 26.409597003586526 1 0 
1 -9.8610271903323365 -2.3202416918429094 1 0 
1 -2.3202416918429094 -10.054380664652555 1 0 
1 2.3202416918428952 -10.054380664652555 0 1 
1 -39.000325662723633 -73.724749865977302 0 1 
1 2.3202416918428952 -10.054380664652555 0 1 
1 2.3202416918428952 10.054380664652584 -1 0 
1 -2.3202416918429094 -10.05438066465257 1 0 
1 2.3202416918428952 -10.05438066465257 0 1 
1 -34.20170709123564 11.54684605116249 0 1 
1 2.3202416918428952 10.054380664652555 -1 0 
1 10.05438066465257 -2.3202416918429094 0 1 
1 -10.054380664652555 2.3202416918428952 0 -1 
1 -10.054380664652555 -2.3202416918429094 1 0 
1 -16.048338368580076 28.229607250755294 1 0 
1 -2.3202416918428526 -11.407854984894257 1 0 
1 2.3202416918429378 11.407854984894271 -1 0 
1 -2.3202416918428526 11.407854984894271 0 -1 
1 9.8610271903323508 -2.3202416918429094 0 1 
1 -9.6676737160120183 -12.954682779456363 1 0 
1 -9.8610271903322939 2.3202416918429094 1 0 
1 -9.8610271903322939 2.3202416918429094 0 -1 
1 9.8610271903323223 -2.3202416918429094 0 1 
1 9.8610271903323223 2.320241691842881 -1 0 
1 34.223564954682757 -37.703927492447121 -1 0 
1 9.8610271903323223 2.320241691842881 -1 0 
1 -9.8610271903323365 2.320241691842881 0 -1 
1 9.8610271903323223 2.320241691842881 -1 0 
1 12.431698506460656 -32.347106361445583 -1 0 
1 -39.006998422260068 13.500354267141006 -1 0 
1 -7.2903558742039962 -32.347106361445583 -1 0 
1 -45.194309600507808 13.500354267141006 0 -1 
1 -13.477667052451729 -32.347106361445583 0 -1 
1 -45.194309600507808 -30.197530929233608 -1 0 
1 -13.477667052451729 -76.044991557820197 -1 0 
1 -70.716968210779712 -30.197530929233608 0 1 
1 -39.000325662723633 -76.044991557820197 0 1 
1 1.8690835850956802 -75.136208493008141 0 1 
1 -39.000325662723633 -53.615988536672162 0 1 
1 1.8690835850956802 42.422703893698809 1 0 
1 -39.000325662723633 63.942923850034788 1 0 
1 -19.915407854984892 -2.3202416918429094 1 0 
1 -15.797908744294638 63.942923850034788 1 0 
1 -7.683735582380919 109.79038447862138 1 0 
1 24.032906965675156 63.942923850034788 1 0 
1 19.385750822452916 109.79038447862138 0 -1 
1 51.102393370508992 63.942923850034788 0 -1 
1 19.385750822452916 13.500354267141006 -1 0 
1 51.102393370508992 -32.347106361445583 -1 0 
1 13.534743202416918 2.3202416918429023 -1 0 
1 21.484093512993972 -31.377625247931171 -1 0 
1 71.98814117702986 -0.74945859957756511 -1 0 
1 -5.5853928918398665 -31.377625247931171 -1 0 
1 43.371826977634086 -0.74945859957756511 0 1 
1 -34.20170709123564 -31.377625247931171 0 1 
1 -75.357451594465516 -34.838014312919412 1 0 
1 -60.111072650148024 31.655607380467615 1 0 
1 19.385750822452916 -34.838014312919412 0 -1 
1 34.632129766770404 31.655607380467615 0 -1 
1 19.385750822452916 -97.871246941318191 -1 0 
1 34.632129766770404 -31.377625247931171 -1 0 
1 24.809893442890882 29.413683394380136 1 0 
1 4.0604229607250488 28.229607250755294 1 0 
1 38.731343593948282 29.413683394380136 0 -1 
1 17.981873111782448 28.229607250755294 0 -1 
1 38.731343593948282 -27.045531107130437 -1 0 
1 17.981873111782448 -28.229607250755279 -1 0 
1 2.7675973703833279 -27.045531107130437 0 1 
1 -17.981873111782505 -28.229607250755279 0 1 
1 2.7675973703833279 29.413683394380136 1 0 
1 -17.981873111782505 28.229607250755294 1 0 
1 39.830815709969869 -12.954682779456363 0 1 
1 39.830815709969869 12.954682779456022 -1 0 
1 -39.830815709969727 12.954682779456022 0 -1 
1 -39.830815709969727 -12.181268882175402 0 -1 
1 -39.830815709969727 -12.954682779456363 1 0 
1 -28.616314199395703 -12.954682779456363 1 0 
1 10.054380664652626 -12.954682779456363 1 0 
1 29.003021148036311 -12.954682779456363 1 0 
1 -9.0876132930513336 -2.320241691842881 1 0 
1 -22.23564954682783 37.70392749244715 1 0 
1 -9.0876132930513336 -2.320241691842881 1 0 
1 -3.0936555891238697 -2.3202416918429094 1 0 
1 -4.0604229607251057 37.70392749244715 1 0 
1 -8.1208459214501545 -2.3202416918429378 1 0 
1 2.1268882175226338 37.70392749244715 1 0 
1 -8.1208459214501545 -2.3202416918429378 1 0 
1 -22.106747230614289 42.422703893698809 1 0 
1 18.368580060422943 37.70392749244715 1 0 
1 -2.7713997985901244 42.422703893698809 0 -1 
1 37.703927492447107 37.70392749244715 0 -1 
1 -2.7713997985901244 -32.985151091195462 -1 0 
1 37.703927492447107 -37.703927492447121 -1 0 
1 48.021316920305466 -32.020216046486894 -1 0 
1 14.501510574018099 -37.703927492447121 -1 0 
1 -4.1841211461597823 -32.020216046486894 0 1 
1 -37.70392749244715 -37.703927492447121 0 1 
1 -4.1841211461597823 43.387638938407378 1 0 
1 -37.70392749244715 37.70392749244715 1 0 
1 9.8610271903323223 -2.3202416918429094 0 1 
1 -9.8610271903323294 2.320241691842881 0 -1 
1 -9.8610271903323294 -2.3202416918429094 1 0 
1 -28.422960725075519 19.528700906344397 1 0 
1 19.915407854984903 -2.3202416918429094 0 1 
1 19.915407854984903 2.320241691842881 -1 0 
1 -19.915407854984892 2.320241691842881 0 -1 
1 13.534743202416918 -2.3202416918429023 0 1 
1 -13.534743202416919 2.3202416918429023 0 -1 
1 -13.534743202416919 -2.3202416918429023 1 0 
1 9.0876132930513904 -2.320241691842881 0 1 
1 9.0876132930513904 2.3202416918429094 -1 0 
1 -9.0876132930513336 2.3202416918429094 0 -1 
1 8.1208459214501545 -2.3202416918429378 0 1 
1 8.1208459214501545 2.3202416918428526 -1 0 
1 -8.1208459214501545 2.3202416918428526 0 -1 
1 -19.28494404159542 8.8598708834552156 1 0 
1 -8.7009063444108676 19.528700906344397 1 0 
1 19.385750822452916 8.8598708834552156 0 -1 
1 29.969788519637468 19.528700906344397 0 -1 
1 19.385750822452916 -30.197530929233608 -1 0 
1 29.969788519637468 -19.528700906344426 -1 0 
1 -40.553826216822003 -30.197530929233608 0 1 
1 -29.969788519637454 -19.528700906344426 0 1 
1 -40.553826216822003 8.8598708834552156 1 0 
1 -29.969788519637454 19.528700906344397 1 0 
Curves 127
1 184.84592145015105 6.380664652567976 0 0 1 0 
1 184.84592145015105 11.021148036253777 0 1 0 0 
1 199.54078549848941 11.021148036253777 0 0 -1 0 
1 199.54078549848941 6.380664652567976 0 -1 0 0 
1 155.06948640483384 93.776435045317214 0 0 -1 0 
1 155.06948640483384 67.48036253776435 0 0 -1 0 
1 155.06948640483384 47.758308157099698 0 0 -1 0 
1 155.06948640483384 11.021148036253777 0 1 0 0 
1 199.54078549848941 11.021148036253777 0 1 0 0 
1 206.50151057401811 11.021148036253777 0 1 0 0 
1 224.29003021148037 11.021148036253777 0 1 0 0 
1 255.22658610271904 11.021148036253777 0 0 1 0 
1 255.22658610271904 64 0 -1 0 0 
1 237.82477341389728 64 0 0 1 0 
1 237.82477341389728 89.135951661631424 0 -1 0 0 
1 173.63141993957703 89.135951661631424 0 -1 0 0 
1 155.06948640483384 47.758308157099698 0 -1 0 0 
1 150.42900302114805 47.758308157099698 0 0 1 0 
1 150.42900302114805 67.48036253776435 0 1 0 0 
1 206.50151057401811 6.380664652567976 0 0 1 0 
1 224.29003021148037 11.021148036253777 0 0 -1 0 
1 224.29003021148037 6.380664652567976 0 -1 0 0 
1 155.06948640483384 89.135951661631424 0 0 1 0 
1 155.06948640483384 93.776435045317214 0 1 0 0 
1 173.63141993957703 93.776435045317214 0 0 -1 0 
1 155.06948640483384 67.48036253776435 0 -1 0 0 
1 114.85196374622356 67.48036253776435 0 0 -1 0 
1 114.85196374622356 11.021148036253777 0 1 0 0 
1 150.42900302114805 11.021148036253777 0 0 1 0 
1 98.996978851963746 164.93051359516616 0 -1 0 0 
1 95.516616314199396 164.93051359516616 0 0 -1 0 
1 95.516616314199396 127.41993957703927 0 0 -1 0 
1 95.516616314199396 107.31117824773413 0 0 -1 0 
1 95.516616314199396 100.35045317220543 0 -1 0 0 
1 74.247734138972817 100.35045317220543 0 0 -1 0 
1 74.247734138972817 80.241691842900309 0 0 -1 0 
1 74.247734138972817 72.120845921450154 0 1 0 0 
1 88.169184290030216 72.120845921450154 0 1 0 0 
1 108.27794561933534 72.120845921450154 0 1 0 0 
1 150.42900302114805 72.120845921450154 0 0 1 0 
1 150.42900302114805 93.776435045317214 0 1 0 0 
1 173.63141993957703 93.776435045317214 0 1 0 0 
1 255.22658610271904 93.776435045317214 0 0 1 0 
1 255.22658610271904 116.59214501510574 0 0 1 0 
1 255.22658610271904 218.68277945619334 0 -1 0 0 
1 225.06344410876133 218.68277945619334 0 -1 0 0 
1 205.34138972809669 218.68277945619334 0 -1 0 0 
1 175.56495468277944 218.68277945619334 0 0 -1 0 
1 175.56495468277944 164.93051359516616 0 -1 0 0 
1 118.71903323262841 164.93051359516616 0 -1 0 0 
1 95.516616314199396 107.31117824773413 0 -1 0 0 
1 90.876132930513592 107.31117824773413 0 0 1 0 
1 90.876132930513592 127.41993957703927 0 1 0 0 
1 74.247734138972817 80.241691842900309 0 -1 0 0 
1 69.607250755287012 80.241691842900309 0 0 1 0 
1 69.607250755287012 100.35045317220543 0 1 0 0 
1 88.169184290030216 67.48036253776435 0 0 1 0 
1 108.27794561933534 72.120845921450154 0 0 -1 0 
1 108.27794561933534 67.48036253776435 0 -1 0 0 
1 259.86706948640483 93.776435045317214 0 -1 0 0 
1 255.22658610271904 116.59214501510574 0 1 0 0 
1 259.86706948640483 116.59214501510574 0 0 -1 0 
1 205.34138972809669 218.68277945619334 0 0 1 0 
1 225.06344410876133 223.32326283987916 0 -1 0 0 
1 225.06344410876133 223.32326283987916 0 0 -1 0 
1 98.996978851963746 164.93051359516616 0 0 1 0 
1 98.996978851963746 169.57099697885195 0 1 0 0 
1 118.71903323262841 169.57099697885195 0 0 -1 0 
1 39.444108761329304 148.68882175226585 0 1 0 0 
1 59.166163141993955 148.68882175226585 0 1 0 0 
1 65.353474320241688 148.68882175226585 0 0 -1 0 
1 65.353474320241688 104.99093655589124 0 1 0 0 
1 90.876132930513592 104.99093655589124 0 0 1 0 
1 90.876132930513592 127.41993957703927 0 0 1 0 
1 90.876132930513592 244.97885196374622 0 -1 0 0 
1 67.673716012084597 244.97885196374622 0 -1 0 0 
1 27.842900302114803 244.97885196374622 0 -1 0 0 
1 0.77341389728096677 244.97885196374622 0 0 -1 0 
1 0.77341389728096677 148.68882175226585 0 1 0 0 
1 13.921450151057401 37.317220543806648 0 1 0 0 
1 40.990936555891238 37.317220543806648 0 1 0 0 
1 69.607250755287012 37.317220543806648 0 0 1 0 
1 95.516616314199396 100.35045317220543 0 -1 0 0 
1 0.77341389728096677 100.35045317220543 0 0 -1 0 
1 0.77341389728096677 37.317220543806648 0 1 0 0 
1 88.169184290030216 67.48036253776435 0 -1 0 0 
1 74.247734138972817 67.48036253776435 0 0 -1 0 
1 74.247734138972817 11.021148036253777 0 1 0 0 
1 110.21148036253777 11.021148036253777 0 0 1 0 
1 110.21148036253777 67.48036253776435 0 -1 0 0 
1 175.56495468277944 223.32326283987916 0 0 1 0 
1 175.56495468277944 249.23262839879155 0 1 0 0 
1 255.22658610271904 249.23262839879155 0 0 -1 0 
1 255.22658610271904 224.09667673716012 0 0 -1 0 
1 255.22658610271904 223.32326283987916 0 -1 0 0 
1 244.01208459214502 223.32326283987916 0 -1 0 0 
1 205.34138972809669 223.32326283987916 0 -1 0 0 
1 186.392749244713 223.32326283987916 0 -1 0 0 
1 155.45619335347433 244.97885196374622 0 -1 0 0 
1 137.28096676737161 244.97885196374622 0 -1 0 0 
1 131.09365558912387 244.97885196374622 0 -1 0 0 
1 114.85196374622356 244.97885196374622 0 -1 0 0 
1 95.516616314199396 244.97885196374622 0 0 -1 0 
1 95.516616314199396 169.57099697885195 0 1 0 0 
1 118.71903323262841 169.57099697885195 0 1 0 0 
1 170.92447129909365 169.57099697885195 0 0 1 0 
1 170.92447129909365 244.97885196374622 0 -1 0 0 
1 39.444108761329304 144.04833836858006 0 0 1 0 
1 59.166163141993955 148.68882175226585 0 0 -1 0 
1 59.166163141993955 144.04833836858006 0 -1 0 0 
1 27.842900302114803 244.97885196374622 0 0 1 0 
1 27.842900302114803 249.61933534743201 0 1 0 0 
1 67.673716012084597 249.61933534743201 0 0 -1 0 
1 13.921450151057401 32.676737160120844 0 0 1 0 
1 40.990936555891238 37.317220543806648 0 0 -1 0 
1 40.990936555891238 32.676737160120844 0 -1 0 0 
1 137.28096676737161 244.97885196374622 0 0 1 0 
1 137.28096676737161 249.61933534743201 0 1 0 0 
1 155.45619335347433 249.61933534743201 0 0 -1 0 
1 114.85196374622356 244.97885196374622 0 0 1 0 
1 114.85196374622356 249.61933534743201 0 1 0 0 
1 131.09365558912387 249.61933534743201 0 0 -1 0 
1 39.444108761329304 144.04833836858006 0 -1 0 0 
1 0.77341389728096677 144.04833836858006 0 0 -1 0 
1 0.77341389728096677 104.99093655589124 0 1 0 0 
1 60.71299093655589 104.99093655589124 0 0 1 0 
1 60.71299093655589 144.04833836858006 0 -1 0 0 
Polygon3D 0
PolygonOnTriangulations 0
Surfaces 51
1 192.19335347432022 8.7009063444108765 0 -0 -0 -1 -1 0 0 0 1 -0 
1 203.94215371137412 48.872667306540237 0 -0 -0 -1 -1 0 0 0 1 -0 
1 112.9790777329211 38.066679143384214 0 -0 -0 -1 -1 0 0 0 1 -0 
1 152.74924471299093 57.619335347432013 0 -0 -0 -1 -1 0 0 0 1 -0 
1 203.02114803625375 8.7009063444108765 0 -0 -0 -1 -1 0 0 0 1 -0 
1 215.39577039274923 8.7009063444108747 0 -0 -0 -1 -1 0 0 0 1 -0 
1 215.39577039274923 8.7009063444108747 0 -0 -0 -1 -1 0 0 0 1 -0 
1 235.75245534069484 60.795183005779116 0 -0 -0 -1 -1 0 0 0 1 -0 
1 164.35045317220542 91.456193353474319 0 -0 -0 -1 -1 0 0 0 1 -0 
1 164.35045317220542 91.456193353474319 0 -0 -0 -1 -1 0 0 0 1 -0 
1 132.64048338368579 39.250755287009063 0 -0 -0 -1 -1 0 0 0 1 -0 
1 171.61805621808799 138.52091659157963 0 -0 -0 -1 -1 0 0 0 1 -0 
1 112.9790777329211 38.066679143384214 0 -0 -0 -1 -1 0 0 0 1 -0 
1 92.745216515609272 202.55614807004741 0 -0 -0 -1 -1 0 0 0 1 -0 
1 93.196374622356487 117.36555891238669 0 -0 -0 -1 -1 0 0 0 1 -0 
1 20.159164719733884 135.18846748512485 0 -0 -0 -1 -1 0 0 0 1 -0 
1 71.927492447129907 90.296072507552879 0 -0 -0 -1 -1 0 0 0 1 -0 
1 112.9790777329211 38.066679143384214 0 -0 -0 -1 -1 0 0 0 1 -0 
1 98.223564954682786 69.800604229607259 0 -0 -0 -1 -1 0 0 0 1 -0 
1 235.75245534069484 60.795183005779116 0 -0 -0 -1 -1 0 0 0 1 -0 
1 257.54682779456198 105.18429003021147 0 -0 -0 -1 -1 0 0 0 1 -0 
1 253.36660974648629 181.08183370550373 0 -0 -0 -1 -1 0 0 0 1 -0 
1 215.20241691842904 221.00302114803625 0 -0 -0 -1 -1 0 0 0 1 -0 
1 215.20241691842904 221.00302114803625 0 -0 -0 -1 -1 0 0 0 1 -0 
1 166.74035015293387 201.59121302533885 0 -0 -0 -1 -1 0 0 0 1 -0 
1 108.85800604229607 167.25075528700907 0 -0 -0 -1 -1 0 0 0 1 -0 
1 108.85800604229607 167.25075528700907 0 -0 -0 -1 -1 0 0 0 1 -0 
1 93.196374622356487 117.36555891238669 0 -0 -0 -1 -1 0 0 0 1 -0 
1 51.875807267789959 181.03592811371144 0 -0 -0 -1 -1 0 0 0 1 -0 
1 35.405543664051372 68.694845791737819 0 -0 -0 -1 -1 0 0 0 1 -0 
1 92.229607250755265 39.250755287009056 0 -0 -0 -1 -1 0 0 0 1 -0 
1 215.39577039274931 236.27794561933553 0 -0 -0 -1 -1 0 0 0 1 -0 
1 108.85800604229607 167.25075528700907 0 -0 -0 -1 -1 0 0 0 1 -0 
1 133.2205438066465 207.27492447129907 0 -0 -0 -1 -1 0 0 0 1 -0 
1 49.305135951661626 146.36858006042297 0 -0 -0 -1 -1 0 0 0 1 -0 
1 20.159164719733884 135.18846748512485 0 -0 -0 -1 -1 0 0 0 1 -0 
1 92.745216515609272 202.55614807004741 0 -0 -0 -1 -1 0 0 0 1 -0 
1 47.758308157099705 247.29909365558913 0 -0 -0 -1 -1 0 0 0 1 -0 
1 27.456193353474319 34.996978851963746 0 -0 -0 -1 -1 0 0 0 1 -0 
1 112.9790777329211 38.066679143384214 0 -0 -0 -1 -1 0 0 0 1 -0 
1 20.159164719733884 135.18846748512485 0 -0 -0 -1 -1 0 0 0 1 -0 
1 112.9790777329211 38.066679143384214 0 -0 -0 -1 -1 0 0 0 1 -0 
1 146.368580060423 247.2990936555891 0 -0 -0 -1 -1 0 0 0 1 -0 
1 146.368580060423 247.2990936555891 0 -0 -0 -1 -1 0 0 0 1 -0 
1 134.18731117824774 247.29909365558913 0 -0 -0 -1 -1 0 0 0 1 -0 
1 122.97280966767372 247.29909365558916 0 -0 -0 -1 -1 0 0 0 1 -0 
1 122.97280966767372 247.29909365558916 0 -0 -0 -1 -1 0 0 0 1 -0 
1 92.745216515609272 202.55614807004741 0 -0 -0 -1 -1 0 0 0 1 -0 
1 166.74035015293387 201.59121302533885 0 -0 -0 -1 -1 0 0 0 1 -0 
1 30.743202416918436 124.51963746223566 0 -0 -0 -1 -1 0 0 0 1 -0 
1 20.159164719733884 135.18846748512485 0 -0 -0 -1 -1 0 0 0 1 -0 
Triangulations 0

TShapes 280
Ve
1e-07
184.845921450151 6.38066465256798 0
0 0

0101101
*
Ve
1e-07
184.845921450151 11.0211480362538 0
0 0

0101101
*
Ed
 1e-07 1 1 0
1  1 0 0 4.6404833836858
2  1 1 0 0 4.6404833836858
0

0101000
+280 0 -279 0 *
Ve
1e-07
199.540785498489 11.0211480362538 0
0 0

0101101
*
Ed
 1e-07 1 1 0
1  2 0 0 14.6948640483384
2  2 1 0 0 14.6948640483384
2  3 2 0 0 14.6948640483384
0

0101000
+279 0 -277 0 *
Ve
1e-07
199.540785498489 6.38066465256798 0
0 0

0101101
*
Ed
 1e-07 1 1 0
1  3 0 0 4.6404833836858
2  4 1 0 0 4.6404833836858
0

0101000
+277 0 -275 0 *
Ed
 1e-07 1 1 0
1  4 0 0 14.6948640483384
2  5 1 0 0 14.6948640483384
0

0101000
+275 0 -280 0 *
Wi

0101100
+278 0 +276 0 +274 0 +273 0 *
Fa
0  1e-07 1 0

0111000
+272 0 *
Ve
1.00000170530257e-07
155.069486404834 89.1359516616314 0
0 0

0101101
*
Ve
1e-07
155.069486404834 67.4803625377643 0
0 0

0101101
*
Ed
 1e-07 1 1 0
1  5 0 4.64048338368582 26.2960725075529
2  6 3 0 4.64048338368582 26.2960725075529
2  7 2 0 4.64048338368582 26.2960725075529
0

0101000
+270 0 -269 0 *
Ve
1e-07
155.069486404834 47.7583081570997 0
0 0

0101101
*
Ed
 1e-07 1 1 0
1  6 0 0 19.7220543806647
2  8 4 0 0 19.7220543806647
2  9 2 0 0 19.7220543806647
0

0101000
+269 0 -267 0 *
Ve
1e-07
155.069486404834 11.0211480362538 0
0 0

0101101
*
Ed
 1e-07 1 1 0
1  7 0 0 36.7371601208459
2  10 3 0 0 36.7371601208459
2  11 2 0 0 36.7371601208459
0

0101000
+267 0 -265 0 *
Ed
 1e-07 1 1 0
1  8 0 0 29.7764350453172
2  12 3 0 0 29.7764350453172
2  13 2 0 0 29.7764350453172
0

0101000
+265 0 -279 0 *
Ve
1e-07
206.501510574018 11.0211480362538 0
0 0

0101101
*
Ed
 1e-07 1 1 0
1  9 0 0 6.9607250755287
2  14 5 0 0 6.9607250755287
2  15 2 0 0 6.9607250755287
0

0101000
+277 0 -262 0 *
Ve
1e-07
224.29003021148 11.0211480362538 0
0 0

0101101
*
Ed
 1e-07 1 1 0
1  10 0 0 17.7885196374623
2  16 6 0 0 17.7885196374623
2  17 2 0 0 17.7885196374623
2  18 7 0 0 17.7885196374623
0

0101000
+262 0 -260 0 *
Ve
1e-07
255.226586102719 11.0211480362538 0
0 0

0101101
*
Ed
 1e-07 1 1 0
1  11 0 0 30.9365558912387
2  19 8 0 0 30.9365558912387
2  20 2 0 0 30.9365558912387
0

0101000
+260 0 -258 0 *
Ve
1e-07
255.226586102719 64 0
0 0

0101101
*
Ed
 1e-07 1 1 0
1  12 0 0 52.9788519637462
2  21 8 0 0 52.9788519637462
2  22 2 0 0 52.9788519637462
0

0101000
+258 0 -256 0 *
Ve
1e-07
237.824773413897 64 0
0 0

0101101
*
Ed
 1e-07 1 1 0
1  13 0 0 17.4018126888218
2  23 8 0 0 17.4018126888218
2  24 2 0 0 17.4018126888218
0

0101000
+256 0 -254 0 *
Ve
1e-07
237.824773413897 89.1359516616314 0
0 0

0101101
*
Ed
 1e-07 1 1 0
1  14 0 0 25.1359516616314
2  25 8 0 0 25.1359516616314
2  26 2 0 0 25.1359516616314
0

0101000
+254 0 -252 0 *
Ve
1e-07
173.631419939577 89.1359516616314 0
0 0

0101101
*
Ed
 1e-07 1 1 0
1  15 0 0 64.1933534743202
2  27 8 0 0 64.1933534743202
2  28 2 0 0 64.1933534743202
0

0101000
+252 0 -250 0 *
Ed
 1e-07 1 1 0
1  16 0 0 18.5619335347432
2  29 9 0 0 18.5619335347432
2  30 2 0 0 18.5619335347432
2  31 10 0 0 18.5619335347432
0

0101000
+250 0 -270 0 *
Wi

0101100
-268 0 -266 0 -264 0 -263 0 -276 0 -261 0 -259 0 -257 0 -255 0 -253 0 
-251 0 -249 0 -248 0 *
Fa
0  1e-07 2 0

0101000
+247 0 *
Ve
1e-07
150.429003021148 47.7583081570997 0
0 0

0101101
*
Ed
 1e-07 1 1 0
1  17 0 0 4.64048338368579
2  32 4 0 0 4.64048338368579
0

0101000
+267 0 -245 0 *
Ve
1.00000056843419e-07
150.429003021148 67.4803625377643 0
0 0

0101101
*
Ed
 1e-07 1 1 0
1  18 0 0 19.7220543806647
2  33 4 0 0 19.7220543806647
2  34 11 0 0 19.7220543806647
0

0101000
+245 0 -243 0 *
Ed
 1e-07 1 1 0
1  19 0 0 4.64048338368579
2  35 4 0 0 4.64048338368579
0

0101000
+243 0 -269 0 *
Wi

0101100
+244 0 +242 0 +241 0 +266 0 *
Fa
0  1e-07 4 0

0111000
+240 0 *
Ve
1e-07
206.501510574018 6.38066465256798 0
0 0

0101101
*
Ed
 1e-07 1 1 0
1  20 0 0 4.6404833836858
2  36 7 0 0 4.6404833836858
0

0101000
+238 0 -262 0 *
Ve
1e-07
224.29003021148 6.38066465256798 0
0 0

0101101
*
Ed
 1e-07 1 1 0
1  21 0 0 4.6404833836858
2  37 7 0 0 4.6404833836858
0

0101000
+260 0 -236 0 *
Ed
 1e-07 1 1 0
1  22 0 0 17.7885196374623
2  38 7 0 0 17.7885196374623
0

0101000
+236 0 -238 0 *
Wi

0101100
+237 0 +259 0 +235 0 +234 0 *
Fa
0  1e-07 7 0

0111000
+233 0 *
Ve
1e-07
155.069486404834 93.7764350453172 0
0 0

0101101
*
Ed
 1e-07 1 1 0
1  23 0 0 4.64048338368579
2  39 10 0 0 4.64048338368579
0

0101000
+270 0 -231 0 *
Ve
1e-07
173.631419939577 93.7764350453172 0
0 0

0101101
*
Ed
 1e-07 1 1 0
1  24 0 0 18.5619335347432
2  40 10 0 0 18.5619335347432
2  41 12 0 0 18.5619335347432
0

0101000
+231 0 -229 0 *
Ed
 1e-07 1 1 0
1  25 0 0 4.64048338368579
2  42 10 0 0 4.64048338368579
0

0101000
+229 0 -250 0 *
Wi

0101100
+230 0 +228 0 +227 0 +248 0 *
Fa
0  1e-07 10 0

0111000
+226 0 *
Ve
1e-07
114.851963746224 67.4803625377643 0
0 0

0101101
*
Ed
 1e-07 1 1 0
1  26 0 4.64048338368585 40.2175226586103
2  43 13 0 4.64048338368585 40.2175226586103
2  44 11 0 4.64048338368585 40.2175226586103
0

0101000
+243 0 -224 0 *
Ve
1e-07
114.851963746224 11.0211480362538 0
0 0

0101101
*
Ed
 1e-07 1 1 0
1  27 0 0 56.4592145015106
2  45 13 0 0 56.4592145015106
2  46 11 0 0 56.4592145015106
0

0101000
+224 0 -222 0 *
Ve
1e-07
150.429003021148 11.0211480362538 0
0 0

0101101
*
Ed
 1e-07 1 1 0
1  28 0 0 35.5770392749245
2  47 13 0 0 35.5770392749245
2  48 11 0 0 35.5770392749245
0

0101000
+222 0 -220 0 *
Ed
 1e-07 1 1 0
1  29 0 0 36.7371601208459
2  49 13 0 0 36.7371601208459
2  50 11 0 0 36.7371601208459
0

0101000
+220 0 -245 0 *
Wi

0101100
-242 0 -223 0 -221 0 -219 0 -218 0 *
Fa
0  1e-07 11 0

0101000
+217 0 *
Ve
1e-07
98.9969788519637 164.930513595166 0
0 0

0101101
*
Ve
1e-07
95.5166163141994 164.930513595166 0
0 0

0101101
*
Ed
 1e-07 1 1 0
1  30 0 0 3.48036253776435
2  51 14 0 0 3.48036253776435
2  52 12 0 0 3.48036253776435
0

0101000
+215 0 -214 0 *
Ve
1e-07
95.5166163141994 127.419939577039 0
0 0

0101101
*
Ed
 1e-07 1 1 0
1  31 0 0 37.5105740181269
2  53 14 0 0 37.5105740181269
2  54 12 0 0 37.5105740181269
0

0101000
+214 0 -212 0 *
Ve
1e-07
95.5166163141994 107.311178247734 0
0 0

0101101
*
Ed
 1e-07 1 1 0
1  32 0 0 20.1087613293051
2  55 15 0 0 20.1087613293051
2  56 12 0 0 20.1087613293051
0

0101000
+212 0 -210 0 *
Ve
1e-07
95.5166163141994 100.350453172205 0
0 0

0101101
*
Ed
 1e-07 1 1 0
1  33 0 0 6.9607250755287
2  57 16 0 0 6.9607250755287
2  58 12 0 0 6.9607250755287
0

0101000
+210 0 -208 0 *
Ve
1.00000440536496e-07
74.2477341389728 100.350453172205 0
0 0

0101101
*
Ed
 1e-07 1 1 0
1  34 0 0 21.2688821752266
2  59 16 0 0 21.2688821752266
2  60 12 0 0 21.2688821752266
0

0101000
+208 0 -206 0 *
Ve
1e-07
74.2477341389728 80.2416918429003 0
0 0

0101101
*
Ed
 1e-07 1 1 0
1  35 0 0 20.1087613293051
2  61 17 0 0 20.1087613293051
2  62 12 0 0 20.1087613293051
0

0101000
+206 0 -204 0 *
Ve
1e-07
74.2477341389728 72.1208459214502 0
0 0

0101101
*
Ed
 1e-07 1 1 0
1  36 0 0 8.12084592145015
2  63 18 0 0 8.12084592145015
2  64 12 0 0 8.12084592145015
0

0101000
+204 0 -202 0 *
Ve
1e-07
88.1691842900302 72.1208459214502 0
0 0

0101101
*
Ed
 1e-07 1 1 0
1  37 0 0 13.9214501510574
2  65 18 0 0 13.9214501510574
2  66 12 0 0 13.9214501510574
0

0101000
+202 0 -200 0 *
Ve
1e-07
108.277945619335 72.1208459214502 0
0 0

0101101
*
Ed
 1e-07 1 1 0
1  38 0 0 20.1087613293051
2  67 19 0 0 20.1087613293051
2  68 12 0 0 20.1087613293051
0

0101000
+200 0 -198 0 *
Ve
1e-07
150.429003021148 72.1208459214502 0
0 0

0101101
*
Ed
 1e-07 1 1 0
1  39 0 0 42.1510574018127
2  69 18 0 0 42.1510574018127
2  70 12 0 0 42.1510574018127
0

0101000
+198 0 -196 0 *
Ve
1e-07
150.429003021148 93.7764350453172 0
0 0

0101101
*
Ed
 1e-07 1 1 0
1  40 0 0 21.6555891238671
2  71 18 0 0 21.6555891238671
2  72 12 0 0 21.6555891238671
0

0101000
+196 0 -194 0 *
Ed
 1e-07 1 1 0
1  41 0 0 4.64048338368579
2  73 18 0 0 4.64048338368579
2  74 12 0 0 4.64048338368579
0

0101000
+194 0 -231 0 *
Ve
1.00000014210855e-07
255.226586102719 93.7764350453172 0
0 0

0101101
*
Ed
 1e-07 1 1 0
1  42 0 0 81.595166163142
2  75 20 0 0 81.595166163142
2  76 12 0 0 81.595166163142
0

0101000
+229 0 -191 0 *
Ve
1e-07
255.226586102719 116.592145015106 0
0 0

0101101
*
Ed
 1e-07 1 1 0
1  43 0 0 22.8157099697885
2  77 21 0 0 22.8157099697885
2  78 12 0 0 22.8157099697885
0

0101000
+191 0 -189 0 *
Ve
1e-07
255.226586102719 218.682779456193 0
0 0

0101101
*
Ed
 1e-07 1 1 0
1  44 0 0 102.090634441088
2  79 22 0 0 102.090634441088
2  80 12 0 0 102.090634441088
0

0101000
+189 0 -187 0 *
Ve
1e-07
225.063444108761 218.682779456193 0
0 0

0101101
*
Ed
 1e-07 1 1 0
1  45 0 0 30.1631419939577
2  81 22 0 0 30.1631419939577
2  82 12 0 0 30.1631419939577
0

0101000
+187 0 -185 0 *
Ve
1e-07
205.341389728097 218.682779456193 0
0 0

0101101
*
Ed
 1e-07 1 1 0
1  46 0 0 19.7220543806646
2  83 23 0 0 19.7220543806646
2  84 12 0 0 19.7220543806646
2  85 24 0 0 19.7220543806646
0

0101000
+185 0 -183 0 *
Ve
1e-07
175.564954682779 218.682779456193 0
0 0

0101101
*
Ed
 1e-07 1 1 0
1  47 0 0 29.7764350453172
2  86 25 0 0 29.7764350453172
2  87 12 0 0 29.7764350453172
0

0101000
+183 0 -181 0 *
Ve
1e-07
175.564954682779 164.930513595166 0
0 0

0101101
*
Ed
 1e-07 1 1 0
1  48 0 0 53.7522658610272
2  88 25 0 0 53.7522658610272
2  89 12 0 0 53.7522658610272
0

0101000
+181 0 -179 0 *
Ve
1e-07
118.719033232628 164.930513595166 0
0 0

0101101
*
Ed
 1e-07 1 1 0
1  49 0 0 56.845921450151
2  90 25 0 0 56.845921450151
2  91 12 0 0 56.845921450151
0

0101000
+179 0 -177 0 *
Ed
 1e-07 1 1 0
1  50 0 0 19.7220543806647
2  92 26 0 0 19.7220543806647
2  93 12 0 0 19.7220543806647
2  94 27 0 0 19.7220543806647
0

0101000
+177 0 -215 0 *
Wi

0101100
-213 0 -211 0 -209 0 -207 0 -205 0 -203 0 -201 0 -199 0 -197 0 -195 0 
-193 0 -192 0 -228 0 -190 0 -188 0 -186 0 -184 0 -182 0 -180 0 -178 0 
-176 0 -175 0 *
Fa
0  1e-07 12 0

0101000
+174 0 *
Ve
1e-07
90.8761329305136 107.311178247734 0
0 0

0101101
*
Ed
 1e-07 1 1 0
1  51 0 0 4.6404833836858
2  95 15 0 0 4.6404833836858
0

0101000
+210 0 -172 0 *
Ve
1e-07
90.8761329305136 127.419939577039 0
0 0

0101101
*
Ed
 1e-07 1 1 0
1  52 0 0 20.1087613293051
2  96 28 0 0 20.1087613293051
2  97 29 0 0 20.1087613293051
2  98 15 0 0 20.1087613293051
0

0101000
+172 0 -170 0 *
Ed
 1e-07 1 1 0
1  53 0 0 4.6404833836858
2  99 15 0 0 4.6404833836858
0

0101000
+170 0 -212 0 *
Wi

0101100
+171 0 +169 0 +168 0 +209 0 *
Fa
0  1e-07 15 0

0111000
+167 0 *
Ve
1e-07
69.607250755287 80.2416918429003 0
0 0

0101101
*
Ed
 1e-07 1 1 0
1  54 0 0 4.6404833836858
2  100 17 0 0 4.6404833836858
0

0101000
+204 0 -165 0 *
Ve
1.00000440536496e-07
69.607250755287 100.350453172205 0
0 0

0101101
*
Ed
 1e-07 1 1 0
1  55 0 0 20.1087613293051
2  101 17 0 0 20.1087613293051
2  102 30 0 0 20.1087613293051
0

0101000
+165 0 -163 0 *
Ed
 1e-07 1 1 0
1  56 0 0 4.6404833836858
2  103 17 0 0 4.6404833836858
0

0101000
+163 0 -206 0 *
Wi

0101100
+164 0 +162 0 +161 0 +203 0 *
Fa
0  1e-07 17 0

0111000
+160 0 *
Ve
1e-07
88.1691842900302 67.4803625377643 0
0 0

0101101
*
Ed
 1e-07 1 1 0
1  57 0 0 4.6404833836858
2  104 19 0 0 4.6404833836858
0

0101000
+158 0 -200 0 *
Ve
1e-07
108.277945619335 67.4803625377643 0
0 0

0101101
*
Ed
 1e-07 1 1 0
1  58 0 0 4.6404833836858
2  105 19 0 0 4.6404833836858
0

0101000
+198 0 -156 0 *
Ed
 1e-07 1 1 0
1  59 0 0 20.1087613293051
2  106 19 0 0 20.1087613293051
2  107 31 0 0 20.1087613293051
0

0101000
+156 0 -158 0 *
Wi

0101100
+157 0 +197 0 +155 0 +154 0 *
Fa
0  1e-07 19 0

0111000
+153 0 *
Ve
1e-07
259.867069486405 93.7764350453172 0
0 0

0101101
*
Ed
 1e-07 1 1 0
1  60 0 0 4.64048338368579
2  108 21 0 0 4.64048338368579
0

0101000
+151 0 -191 0 *
Ve
1e-07
259.867069486405 116.592145015106 0
0 0

0101101
*
Ed
 1e-07 1 1 0
1  61 0 0 4.64048338368579
2  109 21 0 0 4.64048338368579
0

0101000
+189 0 -149 0 *
Ed
 1e-07 1 1 0
1  62 0 0 22.8157099697885
2  110 21 0 0 22.8157099697885
0

0101000
+149 0 -151 0 *
Wi

0101100
+150 0 +188 0 +148 0 +147 0 *
Fa
0  1e-07 21 0

0111000
+146 0 *
Ve
1.00000254211497e-07
205.341389728097 223.323262839879 0
0 0

0101101
*
Ed
 1e-07 1 1 0
1  63 0 0 4.64048338368582
2  111 24 0 0 4.64048338368582
0

0101000
+183 0 -144 0 *
Ve
1.00000254211497e-07
225.063444108761 223.323262839879 0
0 0

0101101
*
Ed
 1e-07 1 1 0
1  64 0 0 19.7220543806646
2  112 32 0 0 19.7220543806646
2  113 24 0 0 19.7220543806646
0

0101000
+142 0 -144 0 *
Ed
 1e-07 1 1 0
1  65 0 0 4.64048338368582
2  114 24 0 0 4.64048338368582
0

0101000
+142 0 -185 0 *
Wi

0101100
+182 0 +143 0 -141 0 +140 0 *
Fa
0  1e-07 24 0

0111000
+139 0 *
Ve
1e-07
98.9969788519637 169.570996978852 0
0 0

0101101
*
Ed
 1e-07 1 1 0
1  66 0 0 4.64048338368579
2  115 27 0 0 4.64048338368579
0

0101000
+215 0 -137 0 *
Ve
1e-07
118.719033232628 169.570996978852 0
0 0

0101101
*
Ed
 1e-07 1 1 0
1  67 0 0 19.7220543806647
2  116 33 0 0 19.7220543806647
2  117 34 0 0 19.7220543806647
2  118 27 0 0 19.7220543806647
0

0101000
+137 0 -135 0 *
Ed
 1e-07 1 1 0
1  68 0 0 4.64048338368579
2  119 27 0 0 4.64048338368579
0

0101000
+135 0 -177 0 *
Wi

0101100
+136 0 +134 0 +133 0 +175 0 *
Fa
0  1e-07 27 0

0111000
+132 0 *
Ve
1e-07
39.4441087613293 148.688821752266 0
0 0

0101101
*
Ve
1e-07
59.166163141994 148.688821752266 0
0 0

0101101
*
Ed
 1e-07 1 1 0
1  69 0 0 19.7220543806647
2  120 35 0 0 19.7220543806647
2  121 29 0 0 19.7220543806647
0

0101000
+130 0 -129 0 *
Ve
1e-07
65.3534743202417 148.688821752266 0
0 0

0101101
*
Ed
 1e-07 1 1 0
1  70 0 0 6.18731117824773
2  122 36 0 0 6.18731117824773
2  123 29 0 0 6.18731117824773
0

0101000
+129 0 -127 0 *
Ve
1e-07
65.3534743202417 104.990936555891 0
0 0

0101101
*
Ed
 1e-07 1 1 0
1  71 0 0 43.6978851963746
2  124 36 0 0 43.6978851963746
2  125 29 0 0 43.6978851963746
0

0101000
+127 0 -125 0 *
Ve
1e-07
90.8761329305136 104.990936555891 0
0 0

0101101
*
Ed
 1e-07 1 1 0
1  72 0 0 25.5226586102719
2  126 36 0 0 25.5226586102719
2  127 29 0 0 25.5226586102719
0

0101000
+125 0 -123 0 *
Ed
 1e-07 1 1 0
1  73 0 0 2.3202416918429
2  128 36 0 0 2.3202416918429
2  129 29 0 0 2.3202416918429
0

0101000
+123 0 -172 0 *
Ve
1e-07
90.8761329305136 244.978851963746 0
0 0

0101101
*
Ed
 1e-07 1 1 0
1  74 0 0 117.558912386707
2  130 37 0 0 117.558912386707
2  131 29 0 0 117.558912386707
0

0101000
+170 0 -120 0 *
Ve
1e-07
67.6737160120846 244.978851963746 0
0 0

0101101
*
Ed
 1e-07 1 1 0
1  75 0 0 23.202416918429
2  132 37 0 0 23.202416918429
2  133 29 0 0 23.202416918429
0

0101000
+120 0 -118 0 *
Ve
1e-07
27.8429003021148 244.978851963746 0
0 0

0101101
*
Ed
 1e-07 1 1 0
1  76 0 0 39.8308157099698
2  134 38 0 0 39.8308157099698
2  135 29 0 0 39.8308157099698
0

0101000
+118 0 -116 0 *
Ve
1e-07
0.773413897280967 244.978851963746 0
0 0

0101101
*
Ed
 1e-07 1 1 0
1  77 0 0 27.0694864048338
2  136 36 0 0 27.0694864048338
2  137 29 0 0 27.0694864048338
0

0101000
+116 0 -114 0 *
Ve
1e-07
0.773413897280967 148.688821752266 0
0 0

0101101
*
Ed
 1e-07 1 1 0
1  78 0 0 96.2900302114804
2  138 36 0 0 96.2900302114804
2  139 29 0 0 96.2900302114804
0

0101000
+114 0 -112 0 *
Ed
 1e-07 1 1 0
1  79 0 0 38.6706948640483
2  140 36 0 0 38.6706948640483
2  141 29 0 0 38.6706948640483
0

0101000
+112 0 -130 0 *
Wi

0101100
-128 0 -126 0 -124 0 -122 0 -121 0 -169 0 -119 0 -117 0 -115 0 -113 0 
-111 0 -110 0 *
Fa
0  1e-07 29 0

0101000
+109 0 *
Ve
1e-07
13.9214501510574 37.3172205438066 0
0 0

0101101
*
Ve
1e-07
40.9909365558912 37.3172205438066 0
0 0

0101101
*
Ed
 1e-07 1 1 0
1  80 0 0 27.0694864048338
2  142 39 0 0 27.0694864048338
2  143 30 0 0 27.0694864048338
0

0101000
+107 0 -106 0 *
Ve
1e-07
69.607250755287 37.3172205438066 0
0 0

0101101
*
Ed
 1e-07 1 1 0
1  81 0 0 28.6163141993958
2  144 40 0 0 28.6163141993958
2  145 30 0 0 28.6163141993958
0

0101000
+106 0 -104 0 *
Ed
 1e-07 1 1 0
1  82 0 0 42.9244712990937
2  146 40 0 0 42.9244712990937
2  147 30 0 0 42.9244712990937
0

0101000
+104 0 -165 0 *
Ve
1e-07
0.773413897280967 100.350453172205 0
0 0

0101101
*
Ed
 1e-07 1 1 0
1  83 0 25.9093655589124 94.7432024169184
2  148 41 0 25.9093655589124 94.7432024169184
2  149 30 0 25.9093655589124 94.7432024169184
0

0101000
+163 0 -101 0 *
Ve
1e-07
0.773413897280967 37.3172205438066 0
0 0

0101101
*
Ed
 1e-07 1 1 0
1  84 0 0 63.0332326283988
2  150 41 0 0 63.0332326283988
2  151 30 0 0 63.0332326283988
0

0101000
+101 0 -99 0 *
Ed
 1e-07 1 1 0
1  85 0 0 13.1480362537764
2  152 41 0 0 13.1480362537764
2  153 30 0 0 13.1480362537764
0

0101000
+99 0 -107 0 *
Wi

0101100
-105 0 -103 0 -102 0 -162 0 -100 0 -98 0 -97 0 *
Fa
0  1e-07 30 0

0101000
+96 0 *
Ve
1e-07
74.2477341389728 67.4803625377643 0
0 0

0101101
*
Ed
 1e-07 1 1 0
1  86 0 0 13.9214501510574
2  154 42 0 0 13.9214501510574
2  155 31 0 0 13.9214501510574
0

0101000
+158 0 -94 0 *
Ve
1e-07
74.2477341389728 11.0211480362538 0
0 0

0101101
*
Ed
 1e-07 1 1 0
1  87 0 0 56.4592145015106
2  156 42 0 0 56.4592145015106
2  157 31 0 0 56.4592145015106
0

0101000
+94 0 -92 0 *
Ve
1e-07
110.211480362538 11.0211480362538 0
0 0

0101101
*
Ed
 1e-07 1 1 0
1  88 0 0 35.963746223565
2  158 42 0 0 35.963746223565
2  159 31 0 0 35.963746223565
0

0101000
+92 0 -90 0 *
Ve
1e-07
110.211480362538 67.4803625377643 0
0 0

0101101
*
Ed
 1e-07 1 1 0
1  89 0 0 56.4592145015106
2  160 42 0 0 56.4592145015106
2  161 31 0 0 56.4592145015106
0

0101000
+90 0 -88 0 *
Ed
 1e-07 1 1 0
1  90 0 0 1.93353474320243
2  162 42 0 0 1.93353474320243
2  163 31 0 0 1.93353474320243
0

0101000
+88 0 -156 0 *
Wi

0101100
-154 0 -93 0 -91 0 -89 0 -87 0 -86 0 *
Fa
0  1e-07 31 0

0101000
+85 0 *
Ve
1.00000242835192e-07
175.564954682779 223.323262839879 0
0 0

0101101
*
Ve
1e-07
175.564954682779 249.232628398792 0
0 0

0101101
*
Ed
 1e-07 1 1 0
1  91 0 0 25.9093655589124
2  164 32 0 0 25.9093655589124
0

0101000
+83 0 -82 0 *
Ve
1e-07
255.226586102719 249.232628398792 0
0 0

0101101
*
Ed
 1e-07 1 1 0
1  92 0 0 79.6616314199396
2  165 32 0 0 79.6616314199396
0

0101000
+82 0 -80 0 *
Ve
1.00000058592855e-07
255.226586102719 224.09667673716 0
0 0

0101101
*
Ed
 1e-07 1 1 0
1  93 0 0 25.1359516616314
2  166 32 0 0 25.1359516616314
0

0101000
+80 0 -78 0 *
Ve
1.00000086441255e-07
255.226586102719 223.323262839879 0
0 0

0101101
*
Ed
 1e-07 1 1 0
1  94 0 0 0.77341389728096
2  167 32 0 0 0.77341389728096
0

0101000
+78 0 -76 0 *
Ve
1e-07
244.012084592145 223.323262839879 0
0 0

0101101
*
Ed
 1e-07 1 1 0
1  95 0 0 11.214501510574
2  168 32 0 0 11.214501510574
0

0101000
+76 0 -74 0 *
Ed
 1e-07 1 1 0
1  96 0 0 18.9486404833837
2  169 32 0 0 18.9486404833837
0

0101000
+74 0 -142 0 *
Ve
1e-07
186.392749244713 223.323262839879 0
0 0

0101101
*
Ed
 1e-07 1 1 0
1  97 0 0 18.9486404833837
2  170 32 0 0 18.9486404833837
0

0101000
+144 0 -71 0 *
Ed
 1e-07 1 1 0
1  98 0 0 10.8277945619336
2  171 32 0 0 10.8277945619336
0

0101000
+71 0 -83 0 *
Wi

0101100
+81 0 +79 0 +77 0 +75 0 +73 0 +72 0 +141 0 +70 0 +69 0 *
Fa
0  1e-07 32 0

0111000
+68 0 *
Ve
1e-07
155.456193353474 244.978851963746 0
0 0

0101101
*
Ve
1e-07
137.280966767372 244.978851963746 0
0 0

0101101
*
Ed
 1e-07 1 1 0
1  99 0 0 18.1752265861027
2  172 43 0 0 18.1752265861027
2  173 34 0 0 18.1752265861027
2  174 44 0 0 18.1752265861027
0

0101000
+66 0 -65 0 *
Ve
1e-07
131.093655589124 244.978851963746 0
0 0

0101101
*
Ed
 1e-07 1 1 0
1  100 0 0 6.18731117824774
2  175 45 0 0 6.18731117824774
2  176 34 0 0 6.18731117824774
0

0101000
+65 0 -63 0 *
Ve
1e-07
114.851963746224 244.978851963746 0
0 0

0101101
*
Ed
 1e-07 1 1 0
1  101 0 0 16.2416918429003
2  177 46 0 0 16.2416918429003
2  178 34 0 0 16.2416918429003
2  179 47 0 0 16.2416918429003
0

0101000
+63 0 -61 0 *
Ve
1e-07
95.5166163141994 244.978851963746 0
0 0

0101101
*
Ed
 1e-07 1 1 0
1  102 0 0 19.3353474320242
2  180 48 0 0 19.3353474320242
2  181 34 0 0 19.3353474320242
0

0101000
+61 0 -59 0 *
Ve
1e-07
95.5166163141994 169.570996978852 0
0 0

0101101
*
Ed
 1e-07 1 1 0
1  103 0 0 75.4078549848943
2  182 48 0 0 75.4078549848943
2  183 34 0 0 75.4078549848943
0

0101000
+59 0 -57 0 *
Ed
 1e-07 1 1 0
1  104 0 0 3.48036253776435
2  184 48 0 0 3.48036253776435
2  185 34 0 0 3.48036253776435
0

0101000
+57 0 -137 0 *
Ve
1e-07
170.924471299094 169.570996978852 0
0 0

0101101
*
Ed
 1e-07 1 1 0
1  105 0 0 52.2054380664652
2  186 49 0 0 52.2054380664652
2  187 34 0 0 52.2054380664652
0

0101000
+135 0 -54 0 *
Ve
1e-07
170.924471299094 244.978851963746 0
0 0

0101101
*
Ed
 1e-07 1 1 0
1  106 0 0 75.4078549848943
2  188 49 0 0 75.4078549848943
2  189 34 0 0 75.4078549848943
0

0101000
+54 0 -52 0 *
Ed
 1e-07 1 1 0
1  107 0 0 15.4682779456193
2  190 49 0 0 15.4682779456193
2  191 34 0 0 15.4682779456193
0

0101000
+52 0 -66 0 *
Wi

0101100
-64 0 -62 0 -60 0 -58 0 -56 0 -55 0 -134 0 -53 0 -51 0 -50 0 
*
Fa
0  1e-07 34 0

0101000
+49 0 *
Ve
1e-07
39.4441087613293 144.04833836858 0
0 0

0101101
*
Ed
 1e-07 1 1 0
1  108 0 0 4.64048338368579
2  192 35 0 0 4.64048338368579
0

0101000
+47 0 -130 0 *
Ve
1e-07
59.166163141994 144.04833836858 0
0 0

0101101
*
Ed
 1e-07 1 1 0
1  109 0 0 4.64048338368579
2  193 35 0 0 4.64048338368579
0

0101000
+129 0 -45 0 *
Ed
 1e-07 1 1 0
1  110 0 0 19.7220543806647
2  194 35 0 0 19.7220543806647
2  195 50 0 0 19.7220543806647
0

0101000
+45 0 -47 0 *
Wi

0101100
+46 0 +128 0 +44 0 +43 0 *
Fa
0  1e-07 35 0

0111000
+42 0 *
Ve
1e-07
27.8429003021148 249.619335347432 0
0 0

0101101
*
Ed
 1e-07 1 1 0
1  111 0 0 4.64048338368579
2  196 38 0 0 4.64048338368579
0

0101000
+116 0 -40 0 *
Ve
1e-07
67.6737160120846 249.619335347432 0
0 0

0101101
*
Ed
 1e-07 1 1 0
1  112 0 0 39.8308157099698
2  197 38 0 0 39.8308157099698
0

0101000
+40 0 -38 0 *
Ed
 1e-07 1 1 0
1  113 0 0 4.64048338368579
2  198 38 0 0 4.64048338368579
0

0101000
+38 0 -118 0 *
Wi

0101100
+39 0 +37 0 +36 0 +115 0 *
Fa
0  1e-07 38 0

0111000
+35 0 *
Ve
1e-07
13.9214501510574 32.6767371601208 0
0 0

0101101
*
Ed
 1e-07 1 1 0
1  114 0 0 4.6404833836858
2  199 39 0 0 4.6404833836858
0

0101000
+33 0 -107 0 *
Ve
1e-07
40.9909365558912 32.6767371601208 0
0 0

0101101
*
Ed
 1e-07 1 1 0
1  115 0 0 4.6404833836858
2  200 39 0 0 4.6404833836858
0

0101000
+106 0 -31 0 *
Ed
 1e-07 1 1 0
1  116 0 0 27.0694864048338
2  201 39 0 0 27.0694864048338
0

0101000
+31 0 -33 0 *
Wi

0101100
+32 0 +105 0 +30 0 +29 0 *
Fa
0  1e-07 39 0

0111000
+28 0 *
Ve
1e-07
137.280966767372 249.619335347432 0
0 0

0101101
*
Ed
 1e-07 1 1 0
1  117 0 0 4.64048338368579
2  202 44 0 0 4.64048338368579
0

0101000
+65 0 -26 0 *
Ve
1e-07
155.456193353474 249.619335347432 0
0 0

0101101
*
Ed
 1e-07 1 1 0
1  118 0 0 18.1752265861027
2  203 44 0 0 18.1752265861027
0

0101000
+26 0 -24 0 *
Ed
 1e-07 1 1 0
1  119 0 0 4.64048338368579
2  204 44 0 0 4.64048338368579
0

0101000
+24 0 -66 0 *
Wi

0101100
+25 0 +23 0 +22 0 +64 0 *
Fa
0  1e-07 44 0

0111000
+21 0 *
Ve
1e-07
114.851963746224 249.619335347432 0
0 0

0101101
*
Ed
 1e-07 1 1 0
1  120 0 0 4.64048338368579
2  205 47 0 0 4.64048338368579
0

0101000
+61 0 -19 0 *
Ve
1e-07
131.093655589124 249.619335347432 0
0 0

0101101
*
Ed
 1e-07 1 1 0
1  121 0 0 16.2416918429003
2  206 47 0 0 16.2416918429003
0

0101000
+19 0 -17 0 *
Ed
 1e-07 1 1 0
1  122 0 0 4.64048338368579
2  207 47 0 0 4.64048338368579
0

0101000
+17 0 -63 0 *
Wi

0101100
+18 0 +16 0 +15 0 +60 0 *
Fa
0  1e-07 47 0

0111000
+14 0 *
Ve
1e-07
0.773413897280967 144.04833836858 0
0 0

0101101
*
Ed
 1e-07 1 1 0
1  123 0 0 38.6706948640483
2  208 51 0 0 38.6706948640483
2  209 50 0 0 38.6706948640483
0

0101000
+47 0 -12 0 *
Ve
1e-07
0.773413897280967 104.990936555891 0
0 0

0101101
*
Ed
 1e-07 1 1 0
1  124 0 0 39.0574018126888
2  210 51 0 0 39.0574018126888
2  211 50 0 0 39.0574018126888
0

0101000
+12 0 -10 0 *
Ve
1e-07
60.7129909365559 104.990936555891 0
0 0

0101101
*
Ed
 1e-07 1 1 0
1  125 0 0 59.9395770392749
2  212 51 0 0 59.9395770392749
2  213 50 0 0 59.9395770392749
0

0101000
+10 0 -8 0 *
Ve
1e-07
60.7129909365559 144.04833836858 0
0 0

0101101
*
Ed
 1e-07 1 1 0
1  126 0 0 39.0574018126888
2  214 51 0 0 39.0574018126888
2  215 50 0 0 39.0574018126888
0

0101000
+8 0 -6 0 *
Ed
 1e-07 1 1 0
1  127 0 0 1.54682779456193
2  216 51 0 0 1.54682779456193
2  217 50 0 0 1.54682779456193
0

0101000
+6 0 -45 0 *
Wi

0101100
-11 0 -9 0 -7 0 -5 0 -4 0 -43 0 *
Fa
0  1e-07 50 0

0101000
+3 0 *
Sh

0101000
+271 0 +246 0 +239 0 +232 0 +225 0 +216 0 +173 0 +166 0 +159 0 +152 0 
+145 0 +138 0 +131 0 +108 0 +95 0 +84 0 +67 0 +48 0 +41 0 +34 0 
+27 0 +20 0 +13 0 +2 0 *

+1 0 