
CASCADE Topology V3, (c) Open Cascade
Locations 0
Curve2ds 287
1 -6.5293343679362863 -1.7100637630309734 1 0 
1 16.474288451759207 58.862581867571805 1 0 
1 6.5293343679363431 -1.7100637630309734 0 1 
1 6.5293343679363431 1.7100637630309166 -1 0 
1 2.9537464997806921 -9.7940015519043868 -1 0 
1 -6.5293343679362863 1.7100637630309166 0 -1 
1 6.8402550521237515 1.7100637630309308 -1 0 
1 58.293120474970294 -14.203778916477305 -1 0 
1 6.8402550521237515 1.7100637630309308 -1 0 
1 38.617852399849028 40.381571780279671 -1 0 
1 44.612610370722791 -14.203778916477305 -1 0 
1 -12.062219122704192 40.381571780279671 0 -1 
1 -6.0674611518304289 -14.203778916477305 0 -1 
1 -12.062219122704192 -22.424406425583832 -1 0 
1 -6.0674611518304289 -77.009757122340801 -1 0 
1 6.5293343679363431 1.7100637630309379 -1 0 
1 -29.231052123794882 -77.009757122340801 -1 0 
1 6.5293343679363431 1.7100637630309379 -1 0 
1 24.455606779297142 -17.751876099148326 -1 0 
1 -42.289720859667511 -77.009757122340801 -1 0 
1 -3.6827151396664703 -17.751876099148326 0 1 
1 -70.428042778631124 -77.009757122340801 0 1 
1 1.7100637630309166 -8.0839377888734987 0 1 
1 -70.428042778631124 -20.733113284413619 0 1 
1 1.7100637630309166 -8.0839377888734987 0 1 
1 -15.879767917911863 -26.166029728434665 0 1 
1 -70.428042778631124 -4.5652377066665792 0 1 
1 -15.879767917911863 -15.28380578187415 1 0 
1 -70.428042778631124 6.3169862398939358 1 0 
1 51.900941234950722 -15.28380578187415 0 1 
1 -2.6473336257685389 6.3169862398939358 0 1 
1 51.900941234950722 -11.863678255812289 -1 0 
1 -2.6473336257685389 9.7371137659557974 -1 0 
1 -2.6475336257685456 24.039565238578177 0 -1 
1 34.408211130519874 -10.047711694444189 0 -1 
1 -3.3759161966320903 -26.763440654495781 1 0 
1 -6.0674611518304289 24.039465238578174 1 0 
1 0.044211329429799662 -26.763440654495781 0 1 
1 -2.6473336257685389 24.039465238578174 0 1 
1 0.044211329429799662 8.0596759744978499 1 0 
1 -2.6473336257685389 58.862581867571805 1 0 
1 -42.317488798297276 25.175289142988561 1 0 
1 29.532957187631837 58.862581867571805 1 0 
1 -16.04469098445837 25.175289142988561 0 -1 
1 55.805755001470743 58.862581867571805 0 -1 
1 -16.04469098445837 -27.370306484689308 1 0 
1 55.805755001470743 6.3169862398939358 1 0 
1 37.744587379969275 -27.370306484689308 0 -1 
1 109.59503336589839 6.3169862398939358 0 -1 
1 -1.710063763030945 6.5293343679362863 0 -1 
1 109.59503336589839 -1.1451101806046893 0 -1 
1 -1.710063763030945 6.5293343679362863 0 -1 
1 -39.437265949192017 1.7100637630309734 0 -1 
1 109.59503336589839 -14.203778916477305 0 -1 
1 -1.7100637630309308 7.1511757363112025 0 -1 
1 109.59503336589839 -17.62390644253918 0 -1 
1 27.62033989118413 12.781272269219116 -1 0 
1 113.01516089196026 -31.926257915161571 -1 0 
1 -23.681572999743963 12.781272269219116 0 1 
1 61.71324800103217 -31.926257915161571 0 1 
1 -23.681572999743963 30.503751267903382 -1 0 
1 61.71324800103217 -14.203778916477305 -1 0 
1 29.226544313619598 9.7940015519045005 -1 0 
1 -29.226544313619684 9.7940015519045005 0 -1 
1 -29.226544313619684 -9.2714820687560575 0 -1 
1 -29.226544313619684 -9.7940015519043868 1 0 
1 -18.655241051246634 -9.7940015519043868 1 0 
1 2.9537464997806921 -9.7940015519043868 1 0 
1 11.50406531493536 -9.7940015519043868 1 0 
1 29.226544313619598 -9.7940015519043868 0 1 
1 29.226544313619598 -9.2714820687560575 0 1 
1 6.8402550521237515 -1.710063763030945 0 1 
1 -6.8402550521237515 1.7100637630309308 0 -1 
1 -6.8402550521237515 -1.710063763030945 1 0 
1 17.844976461179016 33.456936429749064 1 0 
1 -6.5293343679362863 -1.7100637630309379 1 0 
1 -4.0419688944366783 9.9494618939981763 1 0 
1 6.5293343679363431 -1.7100637630309379 0 1 
1 -6.5293343679362863 1.7100637630309308 0 -1 
1 -1.7100637630309734 -8.0839377888734987 1 0 
1 1.7100637630309166 8.0839377888735413 -1 0 
1 -1.7100637630309734 8.0839377888735413 0 -1 
1 51.900941234950722 -11.863678255812289 -1 0 
1 34.40841113051988 -24.350163167066569 -1 0 
1 -15.879767917911863 -11.863678255812289 0 1 
1 -33.372298022342704 -24.350163167066569 0 1 
1 -15.879767917911863 37.261789845803719 1 0 
1 -33.372298022342704 24.775304934549439 1 0 
1 -9.7940015519044152 -1.710063763030945 1 0 
1 -23.422836128344528 24.775304934549439 1 0 
1 -9.7940015519044152 -1.710063763030945 1 0 
1 -4.5083499207179045 -1.710063763030945 1 0 
1 -3.8348330245356124 24.775304934549439 1 0 
1 -6.5293343679363431 -1.710063763030945 1 0 
1 5.1818668169002251 24.775304934549439 1 0 
1 -6.5293343679363431 -1.710063763030945 1 0 
1 -16.123664248317255 8.0596759744978499 1 0 
1 18.240535552772826 24.775304934549439 1 0 
1 -3.3759161966320903 8.0596759744978499 0 -1 
1 30.98828360445799 24.775304934549439 0 -1 
1 -3.3759161966320903 -26.763440654495781 1 0 
1 30.98828360445799 -10.047811694444192 1 0 
1 -1.710063763030945 -6.5293343679363289 1 0 
1 1.7100637630309308 -6.5293343679363289 0 1 
1 -36.564596085117373 -40.388273251274754 0 1 
1 1.7100637630309308 6.5293343679362863 -1 0 
1 -1.7100637630309308 -7.1511757363111883 1 0 
1 1.710063763030945 -7.1511757363111883 0 1 
1 -36.70140591662279 19.264317237116998 0 1 
1 1.710063763030945 7.1511757363112025 -1 0 
1 -2.8676281807791639 18.741359370248148 0 -1 
1 31.525486565426519 3.2976300635670839 0 -1 
1 12.747748051685164 1.7100637630309308 -1 0 
1 31.525486565426519 -25.928914250052564 -1 0 
1 26.802866400726202 -22.424406425583832 -1 0 
1 6.0299904620561904 -25.928914250052564 -1 0 
1 23.382738874664341 -22.424406425583832 0 -1 
1 2.6098629359943288 -25.928914250052564 0 -1 
1 23.382738874664341 -32.062947635394572 -1 0 
1 2.6098629359943288 -35.567455459863304 -1 0 
1 -8.6420915966423024 -32.062947635394572 0 1 
1 -29.414967535312314 -35.567455459863304 0 1 
1 -8.6420915966423024 36.961444254217795 1 0 
1 -29.414967535312314 33.456936429749064 1 0 
1 -27.101700525805839 30.503751267903382 0 -1 
1 31.525486565426519 36.877063955810939 0 -1 
1 -1.7100637630309308 6.2184136837488637 0 -1 
1 31.525486565426519 15.734457431064811 0 -1 
1 32.180290813400404 -9.9494618939981905 0 1 
1 32.180290813400404 -0.21159879896091383 0 1 
1 32.180290813400404 9.9494618939981692 -1 0 
1 17.256097972403154 9.9494618939981692 -1 0 
1 -12.281367025403938 9.9494618939981692 -1 0 
1 -32.180290813400319 9.9494618939981692 0 -1 
1 -32.180290813400319 -9.9494618939981905 1 0 
1 9.7940015519045005 -1.710063763030945 0 1 
1 9.7940015519045005 1.710063763030945 -1 0 
1 -9.7940015519044152 1.710063763030945 0 -1 
1 6.5293343679362579 -1.710063763030945 0 1 
1 6.5293343679362579 1.710063763030945 -1 0 
1 -6.5293343679363431 1.710063763030945 0 -1 
1 -1.7100637630309365 6.0629533416551453 0 -1 
1 34.947161277994539 -28.262366567964477 0 -1 
1 39.437265949191989 1.7100637630309734 -1 0 
1 38.889808287204758 -40.388273251274754 -1 0 
1 41.164714906031151 -34.832402905187934 0 1 
1 -36.564596085117373 -27.329604515402139 0 1 
1 1.7100637630309308 -6.5293343679363147 0 1 
1 -36.564596085117373 -9.6071255167179004 0 1 
1 6.4853822293338794 -12.893441251867245 0 1 
1 -36.564596085117373 3.4515432191547006 0 1 
1 -11.814985999122847 -1.710063763030945 1 0 
1 -36.564596085117373 32.678087532774356 1 0 
1 -36.513028125456856 9.6932402190659843 1 0 
1 -12.934624086871693 32.678087532774356 1 0 
1 -33.09290059939498 9.6932402190659843 0 1 
1 -9.5144965608098246 32.678087532774356 0 1 
1 -33.09290059939498 19.020860744689287 1 0 
1 -9.5144965608098246 42.005708058397659 1 0 
1 11.368757239409376 19.020860744689287 0 -1 
1 34.947161277994539 42.005708058397659 0 -1 
1 3.4978576971087278 -6.9179852231706107 0 1 
1 -36.70140591662279 -29.239309496124115 0 1 
1 1.7100637630309308 -6.5293343679363005 0 1 
1 -36.70140591662279 -11.827751181627306 0 1 
1 27.62033989118413 -5.2521274136525733 0 1 
1 -36.70140591662279 1.230917554245309 0 1 
1 -39.437265949192017 -1.7100637630309024 1 0 
1 -40.121533442684665 33.566668709739389 1 0 
1 -1.7100637630309365 6.2184136837488779 0 -1 
1 34.810351446489122 33.566668709739389 0 -1 
1 12.581413540584887 42.682724338731902 0 -1 
1 34.810351446489122 21.129841342241662 0 -1 
1 12.581413540584887 -13.904840183382738 -1 0 
1 34.810351446489122 -35.457723179872978 -1 0 
1 -30.947482245657142 -13.904840183382738 0 1 
1 -8.7185443397529099 -35.457723179872978 0 1 
1 -30.947482245657142 -4.2662989735719989 -1 0 
1 -8.7185443397529099 -25.819181970062239 -1 0 
1 12.281367025403995 1.7100637630309379 -1 0 
1 -12.138671865814786 -25.819181970062239 -1 0 
1 12.747748051685164 -1.710063763030945 0 1 
1 -12.747748051685164 1.7100637630309308 0 -1 
1 -12.747748051685164 -1.710063763030945 1 0 
1 -1.7100637630309308 -6.2184136837488637 1 0 
1 1.710063763030945 -6.2184136837488637 0 1 
1 -11.659525657029121 8.3948584730609639 0 1 
1 1.710063763030945 -6.2184136837488637 0 1 
1 1.710063763030945 6.2184136837488637 -1 0 
1 -1.7100637630309365 -6.0629533416551311 1 0 
1 -11.037684288654228 -6.9957153942174557 0 -1 
1 1.710063763030937 6.0629533416551453 0 -1 
1 1.710063763030937 6.0629533416551453 -1 0 
1 -1.710063763030945 -6.5293343679363147 1 0 
1 1.7100637630309308 6.5293343679362863 -1 0 
1 -1.710063763030945 6.5293343679362863 0 -1 
1 25.243475213705054 -4.6246582683398003 0 -1 
1 -1.710063763030945 6.5293343679362863 0 -1 
1 -11.814985999122847 1.710063763030945 0 -1 
1 11.814985999122833 -1.710063763030945 0 1 
1 11.814985999122833 1.710063763030945 -1 0 
1 -1.710063763030945 -6.5293343679363005 1 0 
1 1.7100637630309308 6.5293343679363147 -1 0 
1 -1.710063763030945 6.5293343679363147 0 -1 
1 10.57130326237305 6.2184136837488637 0 -1 
1 -1.7100637630309365 -6.2184136837488495 1 0 
1 -11.037684288654232 12.592287709591432 0 -1 
1 1.7100637630309374 6.2184136837488779 0 -1 
1 1.710063763030937 6.2184136837488779 -1 0 
1 12.281367025403995 -1.7100637630309379 0 1 
1 -12.281367025404009 1.7100637630309379 0 -1 
1 -12.281367025404009 -1.7100637630309379 1 0 
1 -27.101700525805839 9.3611447431572543 1 0 
1 -15.079653183090997 20.831685840558691 1 0 
1 -0.36252168568573495 9.3611447431572543 0 -1 
1 11.659525657029107 20.831685840558691 0 -1 
1 -0.36252168568573495 -32.302226937960121 -1 0 
1 11.659525657029107 -20.831685840558684 -1 0 
1 4.6638102628116371 1.710063763030945 -1 0 
1 4.8192706049053555 -20.831685840558684 -1 0 
1 7.7036750815939001 -10.4851849433715 -1 0 
1 -4.5083499207179329 -20.831685840558684 -1 0 
1 0.55249934528271183 -10.4851849433715 0 1 
1 -11.659525657029121 -20.831685840558684 0 1 
1 11.03768428865423 -19.121622077527732 0 1 
1 11.03768428865423 19.121622077527746 -1 0 
1 -11.037684288654228 19.121622077527746 0 -1 
1 -11.037684288654228 -19.121622077527732 1 0 
1 -10.515164805505881 -19.121622077527732 1 0 
1 37.744587379969275 -17.109923906503695 0 -1 
1 25.243475213705054 -17.683327004212401 0 -1 
1 37.744587379969275 -23.950178958627447 -1 0 
1 25.243475213705054 -24.523582056336153 -1 0 
1 -12.62456345839648 -23.950178958627447 0 1 
1 -25.125675624660701 -24.523582056336153 0 1 
1 -12.62456345839648 -2.1857310655064168 1 0 
1 -25.125675624660701 -2.7591341632151227 1 0 
1 4.1651534877254335 -2.1857310655064168 0 1 
1 -8.3359586785387876 -2.7591341632151227 0 1 
1 4.1651534877254335 1.2343964605554447 -1 0 
1 -8.3359586785387876 0.66099336284673882 -1 0 
1 -12.62456345839648 1.2343964605554447 0 1 
1 -25.125675624660701 0.66099336284673882 0 1 
1 -12.62456345839648 25.175289142988561 1 0 
1 -25.125675624660701 24.601886045279855 1 0 
1 -4.8192706049053697 -1.7100637630309734 1 0 
1 12.184806477832453 24.601886045279855 1 0 
1 -4.8192706049053697 -1.7100637630309734 1 0 
1 -0.35487282278985788 16.333103061752411 1 0 
1 21.823347687643192 24.601886045279855 1 0 
1 3.0652547032720037 16.333103061752411 0 -1 
1 25.243475213705054 24.601886045279855 0 -1 
1 3.0652547032720037 -7.6077896206807054 -1 0 
1 25.243475213705054 0.66099336284673882 -1 0 
1 -16.833669084724335 -7.6077896206807054 0 -1 
1 5.3445514257087154 0.66099336284673882 0 -1 
1 -16.833669084724335 -11.027917146742567 1 0 
1 5.3445514257087154 -2.7591341632151227 1 0 
1 3.0652547032720037 -11.027917146742567 0 -1 
1 25.243475213705054 -2.7591341632151227 0 -1 
1 7.7214161031877921 -32.302226937960121 -1 0 
1 -5.9074929995614127 -20.831685840558684 -1 0 
1 3.0576058403761408 -32.302226937960121 0 1 
1 -10.571303262373064 -20.831685840558684 0 1 
1 3.0576058403761408 9.3611447431572543 1 0 
1 -10.571303262373064 20.831685840558691 1 0 
1 24.200212365122255 9.3611447431572543 0 -1 
1 10.57130326237305 20.831685840558691 0 -1 
1 0.077730171046852092 10.493573091326198 0 -1 
1 10.57130326237305 -6.8402550521237515 0 -1 
1 0.077730171046852092 -3.497857697108735 -1 0 
1 10.57130326237305 -20.831685840558684 -1 0 
1 4.6638102628116513 1.710063763030945 -1 0 
1 3.4201275260618758 -20.831685840558684 -1 0 
1 11.037684288654226 12.592287709591432 -1 0 
1 -10.515164805505885 12.592287709591432 -1 0 
1 -11.037684288654232 -12.59228770959146 1 0 
1 11.037684288654226 -12.59228770959146 0 1 
1 4.6638102628116371 -1.7100637630309308 0 1 
1 -4.6638102628116513 1.710063763030945 0 -1 
1 -4.6638102628116513 -1.7100637630309308 1 0 
1 4.8192706049053697 -1.7100637630309734 0 1 
1 4.8192706049053697 1.7100637630309166 -1 0 
1 -4.8192706049053697 1.7100637630309166 0 -1 
1 4.6638102628116513 -1.7100637630309308 0 1 
1 -4.6638102628116371 1.710063763030945 0 -1 
1 -4.6638102628116371 -1.7100637630309308 1 0 
Curves 175
1 168.57514928646131 196.09162983705002 0 -1 0 0 
1 155.51648055058868 196.09162983705002 0 0 1 0 
1 155.51648055058868 199.51175736311191 0 1 0 0 
1 168.57514928646131 199.51175736311191 0 0 -1 0 
1 126.75631726325022 123.02526905300091 0 1 0 0 
1 140.43682736749773 123.02526905300091 0 1 0 0 
1 191.11689889005095 123.02526905300091 0 0 -1 0 
1 191.11689889005095 60.219290847137408 0 1 0 0 
1 214.2804898620154 60.219290847137415 0 1 0 0 
1 227.33915859788803 60.219290847137408 0 1 0 0 
1 255.47748051685164 60.219290847137408 0 0 1 0 
1 255.47748051685164 116.4959346850646 0 0 1 0 
1 255.47748051685164 132.66381026281164 0 0 1 0 
1 255.47748051685164 143.54603420937215 0 -1 0 0 
1 187.69677136398906 143.54603420937215 0 0 1 0 
1 187.69677136398906 146.96616173543401 0 1 0 0 
1 187.69697136398906 161.26861320805639 0 0 -1 0 
1 191.11689889005095 161.26851320805639 0 -1 0 0 
1 187.69677136398906 161.26851320805639 0 0 1 0 
1 187.69677136398906 196.09162983705002 0 -1 0 0 
1 155.51648055058868 196.09162983705002 0 -1 0 0 
1 129.24368273674978 196.09162983705002 0 0 -1 0 
1 129.24368273674978 143.54603420937215 0 -1 0 0 
1 75.454404372322131 143.54603420937215 0 0 -1 0 
1 75.454404372322131 136.08393778887353 0 0 -1 0 
1 75.454404372322131 123.02526905300091 0 0 -1 0 
1 75.454404372322131 119.60514152693904 0 0 -1 0 
1 72.034276846260255 105.30279005431665 0 1 0 0 
1 123.33618973718835 105.30279005431665 0 0 1 0 
1 123.33618973718835 123.02526905300091 0 1 0 0 
1 129.24368273674978 219.0997604669208 0 1 0 0 
1 187.69677136398906 219.0997604669208 0 0 -1 0 
1 187.69677136398906 200.03427684626024 0 0 -1 0 
1 187.69677136398906 199.51175736311191 0 -1 0 0 
1 177.12546810161601 199.51175736311191 0 -1 0 0 
1 155.51648055058868 199.51175736311191 0 -1 0 0 
1 146.96616173543401 199.51175736311191 0 -1 0 0 
1 129.24368273674978 199.51175736311191 0 0 1 0 
1 129.24368273674978 200.03427684626024 0 0 1 0 
1 126.75631726325022 119.60514152693904 0 0 1 0 
1 140.43682736749773 123.02526905300091 0 0 -1 0 
1 140.43682736749773 119.60514152693904 0 -1 0 0 
1 227.33915859788803 56.79916332107554 0 -1 0 0 
1 214.2804898620154 56.79916332107554 0 0 1 0 
1 227.33915859788803 60.219290847137408 0 0 -1 0 
1 258.89760804291353 116.4959346850646 0 -1 0 0 
1 255.47748051685164 132.66381026281164 0 1 0 0 
1 258.89760804291353 132.66381026281164 0 0 -1 0 
1 187.69677136398906 146.96616173543401 0 1 0 0 
1 255.47748051685164 146.96616173543401 0 0 1 0 
1 255.47748051685164 196.09162983705002 0 -1 0 0 
1 245.52801862285347 196.09162983705002 0 -1 0 0 
1 225.94001551904455 196.09162983705002 0 -1 0 0 
1 216.92331567760871 196.09162983705002 0 -1 0 0 
1 203.86464694173611 196.09162983705002 0 -1 0 0 
1 191.11689889005095 196.09162983705002 0 0 -1 0 
1 191.11689889005095 161.26851320805639 0 -1 0 0 
1 75.454404372322131 123.02526905300091 0 -1 0 0 
1 72.034276846260255 123.02526905300091 0 0 1 0 
1 72.034276846260255 136.08393778887353 0 1 0 0 
1 75.454404372322131 105.30279005431665 0 -1 0 0 
1 72.034276846260255 105.30279005431665 0 0 1 0 
1 72.034276846260255 119.60514152693904 0 1 0 0 
1 126.75631726325022 89.445835160757056 0 0 -1 0 
1 126.75631726325022 60.219290847137408 0 1 0 0 
1 152.25181336662055 60.219290847137408 0 1 0 0 
1 155.67194089268241 60.219290847137408 0 0 -1 0 
1 155.67194089268241 50.580749637326669 0 1 0 0 
1 187.69677136398906 50.580749637326669 0 0 1 0 
1 187.69677136398906 119.60514152693904 0 -1 0 0 
1 126.75631726325022 123.02526905300091 0 0 -1 0 
1 126.75631726325022 101.88266252825478 0 0 -1 0 
1 191.11689889005095 36.900239533079173 0 0 1 0 
1 191.11689889005095 46.638102628116449 0 0 1 0 
1 191.11689889005095 56.799163321075532 0 1 0 0 
1 206.0410917310482 56.799163321075532 0 1 0 0 
1 235.57855672885529 56.799163321075532 0 1 0 0 
1 255.47748051685167 56.799163321075532 0 0 -1 0 
1 255.47748051685167 36.900239533079173 0 -1 0 0 
1 225.94001551904455 196.09162983705002 0 0 1 0 
1 225.94001551904455 199.51175736311191 0 1 0 0 
1 245.52801862285347 199.51175736311191 0 0 -1 0 
1 203.86464694173611 196.09162983705002 0 0 1 0 
1 203.86464694173611 199.51175736311191 0 1 0 0 
1 216.92331567760871 199.51175736311191 0 0 -1 0 
1 0.52251948314834673 135.15117573631119 0 0 -1 0 
1 -3.4201275260618735 123.02526905300091 0 1 0 0 
1 72.034276846260255 136.08393778887353 0 0 1 0 
1 72.034276846260255 153.80641678755777 0 0 1 0 
1 72.034276846260255 166.86508552343037 0 0 1 0 
1 72.034276846260255 196.09162983705002 0 -1 0 0 
1 48.404304848014576 196.09162983705002 0 -1 0 0 
1 44.984177321952707 196.09162983705002 0 0 1 0 
1 44.984177321952707 205.41925036267332 0 -1 0 0 
1 0.52251948314834673 205.41925036267332 0 0 -1 0 
1 72.034276846260255 56.799163321075532 0 0 1 0 
1 72.034276846260255 74.210721635572341 0 0 1 0 
1 72.034276846260255 87.269390371444956 0 0 1 0 
1 75.454404372322131 119.60514152693904 0 -1 0 0 
1 0.52251948314834673 119.60514152693904 0 0 -1 0 
1 0.52251948314834673 107.16831415944131 0 0 -1 0 
1 0.52251948314834673 50.580749637326669 0 1 0 0 
1 44.051415269390375 50.580749637326669 0 0 1 0 
1 44.051415269390375 60.219290847137408 0 1 0 0 
1 47.471542795452251 60.219290847137408 0 1 0 0 
1 126.75631726325022 56.799163321075532 0 0 1 0 
1 152.25181336662055 60.219290847137408 0 0 -1 0 
1 152.25181336662055 56.799163321075532 0 -1 0 0 
1 126.75631726325022 89.445835160757056 0 -1 0 0 
1 123.33618973718835 89.445835160757056 0 0 1 0 
1 123.33618973718835 101.88266252825478 0 1 0 0 
1 0.52251948314834673 123.02526905300091 0 -1 0 0 
1 -2.8976080429135269 135.15117573631119 0 0 -1 0 
1 -2.8976080429135269 135.15117573631119 0 1 0 0 
1 75.454404372322131 153.80641678755777 0 -1 0 0 
1 72.034276846260255 166.86508552343037 0 1 0 0 
1 75.454404372322131 166.86508552343037 0 0 -1 0 
1 72.034276846260255 199.51175736311191 0 0 -1 0 
1 48.404304848014576 196.09162983705002 0 0 1 0 
1 48.404304848014576 199.51175736311191 0 1 0 0 
1 75.454404372322131 74.210721635572341 0 -1 0 0 
1 72.034276846260255 87.269390371444956 0 1 0 0 
1 75.454404372322131 87.269390371444956 0 0 -1 0 
1 0.52251948314834673 107.16831415944131 0 -1 0 0 
1 -2.8976080429135274 119.60514152693904 0 0 -1 0 
1 -2.8976080429135269 119.60514152693904 0 1 0 0 
1 47.471542795452251 56.799163321075532 0 0 1 0 
1 72.034276846260255 60.219290847137408 0 0 -1 0 
1 72.034276846260255 56.799163321075532 0 -1 0 0 
1 126.75631726325022 101.88266252825478 0 -1 0 0 
1 100.01713842313012 101.88266252825478 0 0 -1 0 
1 100.01713842313012 60.219290847137408 0 1 0 0 
1 106.85739347525387 60.219290847137408 0 1 0 0 
1 116.18501400087716 60.219290847137408 0 1 0 0 
1 123.33618973718835 60.219290847137408 0 0 1 0 
1 -24.972976620221985 123.02526905300091 0 0 1 0 
1 -24.972976620221985 161.26851320805639 0 1 0 0 
1 -2.8976080429135269 161.26851320805639 0 0 -1 0 
1 -2.8976080429135269 123.02526905300091 0 -1 0 0 
1 -3.4201275260618735 123.02526905300091 0 -1 0 0 
1 75.454404372322131 153.80641678755777 0 0 -1 0 
1 75.454404372322131 146.96616173543401 0 1 0 0 
1 125.82355521068789 146.96616173543401 0 0 1 0 
1 125.82355521068789 168.73060962855504 0 -1 0 0 
1 109.03383826456597 168.73060962855504 0 0 1 0 
1 109.03383826456597 172.15073715461691 0 1 0 0 
1 125.82355521068789 172.15073715461691 0 0 1 0 
1 125.82355521068789 196.09162983705002 0 -1 0 0 
1 88.513073108194732 196.09162983705002 0 -1 0 0 
1 78.874531898383992 196.09162983705002 0 -1 0 0 
1 75.454404372322131 196.09162983705002 0 0 -1 0 
1 75.454404372322131 172.15073715461691 0 1 0 0 
1 95.353328160318469 172.15073715461691 0 0 -1 0 
1 95.353328160318469 168.73060962855504 0 -1 0 0 
1 75.454404372322131 168.73060962855504 0 0 -1 0 
1 91.933200634256593 60.219290847137408 0 1 0 0 
1 96.597010897068245 60.219290847137408 0 0 1 0 
1 96.597010897068245 101.88266252825478 0 -1 0 0 
1 75.454404372322131 101.88266252825478 0 0 -1 0 
1 75.454404372322131 74.210721635572341 0 0 -1 0 
1 75.454404372322131 60.219290847137408 0 1 0 0 
1 82.605580108633305 60.219290847137408 0 1 0 0 
1 -24.972976620221985 119.60514152693904 0 1 0 0 
1 -3.4201275260618735 119.60514152693904 0 1 0 0 
1 -2.8976080429135274 94.420566107756144 0 -1 0 0 
1 -24.972976620221985 94.420566107756144 0 0 1 0 
1 106.85739347525387 56.799163321075532 0 0 1 0 
1 116.18501400087716 60.219290847137408 0 0 -1 0 
1 116.18501400087716 56.799163321075532 0 -1 0 0 
1 78.874531898383992 196.09162983705002 0 0 1 0 
1 78.874531898383992 199.51175736311191 0 1 0 0 
1 88.513073108194732 199.51175736311191 0 0 -1 0 
1 82.605580108633305 56.799163321075532 0 0 1 0 
1 91.933200634256593 60.219290847137408 0 0 -1 0 
1 91.933200634256593 56.799163321075532 0 -1 0 0 
Polygon3D 0
PolygonOnTriangulations 0
Surfaces 67
1 162.04581491852502 197.80169360008099 0 -0 -0 -1 -1 0 0 0 1 -0 
1 185.04943773822052 137.22904796947822 0 -0 -0 -1 -1 0 0 0 1 -0 
1 158.47022705036937 209.3057589150163 0 -0 -0 -1 -1 0 0 0 1 -0 
1 133.59657231537398 121.31520528996998 0 -0 -0 -1 -1 0 0 0 1 -0 
1 133.59657231537398 121.31520528996998 0 -0 -0 -1 -1 0 0 0 1 -0 
1 179.05467976734676 82.643697272721241 0 -0 -0 -1 -1 0 0 0 1 -0 
1 220.80982422995174 58.509227084106477 0 -0 -0 -1 -1 0 0 0 1 -0 
1 220.80982422995174 58.509227084106477 0 -0 -0 -1 -1 0 0 0 1 -0 
1 251.79476537718517 77.971166946285734 0 -0 -0 -1 -1 0 0 0 1 -0 
1 257.18754427988256 124.5798724739381 0 -0 -0 -1 -1 0 0 0 1 -0 
1 257.18754427988256 124.5798724739381 0 -0 -0 -1 -1 0 0 0 1 -0 
1 239.59771259893978 158.8298399912463 0 -0 -0 -1 -1 0 0 0 1 -0 
1 222.10518249450894 171.31632490250058 0 -0 -0 -1 -1 0 0 0 1 -0 
1 187.74098269341886 188.03195386255217 0 -0 -0 -1 -1 0 0 0 1 -0 
1 113.19899175229141 170.91634069406146 0 -0 -0 -1 -1 0 0 0 1 -0 
1 73.744340609291186 129.55460342093724 0 -0 -0 -1 -1 0 0 0 1 -0 
1 73.744340609291186 129.55460342093724 0 -0 -0 -1 -1 0 0 0 1 -0 
1 36.017138423130113 121.31520528996994 0 -0 -0 -1 -1 0 0 0 1 -0 
1 73.7443406092912 112.45396579062783 0 -0 -0 -1 -1 0 0 0 1 -0 
1 99.654616737444385 92.521517785097529 0 -0 -0 -1 -1 0 0 0 1 -0 
1 158.28180382867674 86.148205097189972 0 -0 -0 -1 -1 0 0 0 1 -0 
1 223.29718970345135 46.849701427077363 0 -0 -0 -1 -1 0 0 0 1 -0 
1 239.59771259893978 158.8298399912463 0 -0 -0 -1 -1 0 0 0 1 -0 
1 235.73401707094905 197.80169360008097 0 -0 -0 -1 -1 0 0 0 1 -0 
1 235.73401707094905 197.80169360008097 0 -0 -0 -1 -1 0 0 0 1 -0 
1 221.43166559832665 197.80169360008097 0 -0 -0 -1 -1 0 0 0 1 -0 
1 210.39398130967237 197.80169360008097 0 -0 -0 -1 -1 0 0 0 1 -0 
1 210.39398130967237 197.80169360008097 0 -0 -0 -1 -1 0 0 0 1 -0 
1 187.74098269341886 188.03195386255217 0 -0 -0 -1 -1 0 0 0 1 -0 
1 35.469680761142882 163.41354230427567 0 -0 -0 -1 -1 0 0 0 1 -0 
1 35.332870929637465 86.038472817199647 0 -0 -0 -1 -1 0 0 0 1 -0 
1 123.88868908247106 70.704475790508909 0 -0 -0 -1 -1 0 0 0 1 -0 
1 139.50406531493539 58.509227084106477 0 -0 -0 -1 -1 0 0 0 1 -0 
1 179.05467976734676 82.643697272721241 0 -0 -0 -1 -1 0 0 0 1 -0 
1 99.654616737444385 92.521517785097529 0 -0 -0 -1 -1 0 0 0 1 -0 
1 125.04625350021929 95.66424884450592 0 -0 -0 -1 -1 0 0 0 1 -0 
1 -1.1875442798825899 129.08822239465604 0 -0 -0 -1 -1 0 0 0 1 -0 
1 36.017138423130113 121.31520528996994 0 -0 -0 -1 -1 0 0 0 1 -0 
1 113.19899175229141 170.91634069406146 0 -0 -0 -1 -1 0 0 0 1 -0 
1 73.744340609291186 160.33575115549408 0 -0 -0 -1 -1 0 0 0 1 -0 
1 78.519659075594134 179.75852677529761 0 -0 -0 -1 -1 0 0 0 1 -0 
1 60.219290847137408 197.80169360008097 0 -0 -0 -1 -1 0 0 0 1 -0 
1 11.891276722557723 186.39838961798404 0 -0 -0 -1 -1 0 0 0 1 -0 
1 75.532134543368983 63.717148544246143 0 -0 -0 -1 -1 0 0 0 1 -0 
1 73.744340609291186 80.740056003508641 0 -0 -0 -1 -1 0 0 0 1 -0 
1 99.654616737444385 92.521517785097529 0 -0 -0 -1 -1 0 0 0 1 -0 
1 36.017138423130113 121.31520528996994 0 -0 -0 -1 -1 0 0 0 1 -0 
1 -1.1875442798825899 113.38672784319016 0 -0 -0 -1 -1 0 0 0 1 -0 
1 13.103933023733234 64.485589820709407 0 -0 -0 -1 -1 0 0 0 1 -0 
1 59.752909820856246 58.50922708410647 0 -0 -0 -1 -1 0 0 0 1 -0 
1 125.04625350021929 95.66424884450592 0 -0 -0 -1 -1 0 0 0 1 -0 
1 111.67666408015923 81.050976687696092 0 -0 -0 -1 -1 0 0 0 1 -0 
1 -13.935292331567755 142.14689113052864 0 -0 -0 -1 -1 0 0 0 1 -0 
1 73.744340609291186 160.33575115549408 0 -0 -0 -1 -1 0 0 0 1 -0 
1 100.69787958602718 171.48974379177017 0 -0 -0 -1 -1 0 0 0 1 -0 
1 86.025707634695181 81.050976687696092 0 -0 -0 -1 -1 0 0 0 1 -0 
1 -13.935292331567759 107.0128538173476 0 -0 -0 -1 -1 0 0 0 1 -0 
1 99.654616737444385 92.521517785097529 0 -0 -0 -1 -1 0 0 0 1 -0 
1 111.52120373806551 58.509227084106463 0 -0 -0 -1 -1 0 0 0 1 -0 
1 123.88868908247106 70.704475790508909 0 -0 -0 -1 -1 0 0 0 1 -0 
1 113.19899175229141 170.91634069406146 0 -0 -0 -1 -1 0 0 0 1 -0 
1 83.693802503289362 197.80169360008099 0 -0 -0 -1 -1 0 0 0 1 -0 
1 83.693802503289362 197.80169360008099 0 -0 -0 -1 -1 0 0 0 1 -0 
1 78.519659075594134 179.75852677529761 0 -0 -0 -1 -1 0 0 0 1 -0 
1 99.654616737444385 92.521517785097529 0 -0 -0 -1 -1 0 0 0 1 -0 
1 75.532134543368983 63.717148544246143 0 -0 -0 -1 -1 0 0 0 1 -0 
1 87.269390371444956 58.509227084106463 0 -0 -0 -1 -1 0 0 0 1 -0 
Triangulations 0

TShapes 387
Ve
1e-07
168.575149286461 196.09162983705 0
0 0

0101101
*
Ve
1e-07
155.516480550589 196.09162983705 0
0 0

0101101
*
Ed
 1e-07 1 1 0
1  1 0 0 13.0586687358726
2  1 1 0 0 13.0586687358726
2  2 2 0 0 13.0586687358726
0

0101000
+387 0 -386 0 *
Ve
1.00000206913168e-07
155.516480550589 199.511757363112 0
0 0

0101101
*
Ed
 1e-07 1 1 0
1  2 0 0 3.42012752606189
2  3 1 0 0 3.42012752606189
0

0101000
+386 0 -384 0 *
Ve
1.0000023437142e-07
168.575149286461 199.511757363112 0
0 0

0101101
*
Ed
 1e-07 1 1 0
1  3 0 0 13.0586687358726
2  4 1 0 0 13.0586687358726
2  5 3 0 0 13.0586687358726
0

0101000
+384 0 -382 0 *
Ed
 1e-07 1 1 0
1  4 0 0 3.42012752606189
2  6 1 0 0 3.42012752606189
0

0101000
+382 0 -387 0 *
Wi

0101100
+385 0 +383 0 +381 0 +380 0 *
Fa
0  1e-07 1 0

0111000
+379 0 *
Ve
1e-07
126.75631726325 123.025269053001 0
0 0

0101101
*
Ve
1e-07
140.436827367498 123.025269053001 0
0 0

0101101
*
Ed
 1e-07 1 1 0
1  5 0 0 13.6805101042475
2  7 4 0 0 13.6805101042475
2  8 2 0 0 13.6805101042475
2  9 5 0 0 13.6805101042475
0

0101000
+377 0 -376 0 *
Ve
1e-07
191.116898890051 123.025269053001 0
0 0

0101101
*
Ed
 1e-07 1 1 0
1  6 0 0 50.6800715225532
2  10 6 0 0 50.6800715225532
2  11 2 0 0 50.6800715225532
0

0101000
+376 0 -374 0 *
Ve
1e-07
191.116898890051 60.2192908471374 0
0 0

0101101
*
Ed
 1e-07 1 1 0
1  7 0 0 62.8059782058635
2  12 6 0 0 62.8059782058635
2  13 2 0 0 62.8059782058635
0

0101000
+374 0 -372 0 *
Ve
1.00000003552714e-07
214.280489862015 60.2192908471374 0
0 0

0101101
*
Ed
 1e-07 1 1 0
1  8 0 0 23.1635909719645
2  14 6 0 0 23.1635909719645
2  15 2 0 0 23.1635909719645
0

0101000
+372 0 -370 0 *
Ve
1.00000003552714e-07
227.339158597888 60.2192908471374 0
0 0

0101101
*
Ed
 1e-07 1 1 0
1  9 0 0 13.0586687358726
2  16 7 0 0 13.0586687358726
2  17 2 0 0 13.0586687358726
2  18 8 0 0 13.0586687358726
0

0101000
+370 0 -368 0 *
Ve
1e-07
255.477480516852 60.2192908471374 0
0 0

0101101
*
Ed
 1e-07 1 1 0
1  10 0 0 28.1383219189636
2  19 9 0 0 28.1383219189636
2  20 2 0 0 28.1383219189636
0

0101000
+368 0 -366 0 *
Ve
1e-07
255.477480516852 116.495934685065 0
0 0

0101101
*
Ed
 1e-07 1 1 0
1  11 0 0 56.2766438379272
2  21 9 0 0 56.2766438379272
2  22 2 0 0 56.2766438379272
0

0101000
+366 0 -364 0 *
Ve
1e-07
255.477480516852 132.663810262812 0
0 0

0101101
*
Ed
 1e-07 1 1 0
1  12 0 0 16.167875577747
2  23 10 0 0 16.167875577747
2  24 2 0 0 16.167875577747
2  25 11 0 0 16.167875577747
0

0101000
+364 0 -362 0 *
Ve
1e-07
255.477480516852 143.546034209372 0
0 0

0101101
*
Ed
 1e-07 1 1 0
1  13 0 0 10.8822239465605
2  26 12 0 0 10.8822239465605
2  27 2 0 0 10.8822239465605
0

0101000
+362 0 -360 0 *
Ve
1e-07
187.696771363989 143.546034209372 0
0 0

0101101
*
Ed
 1e-07 1 1 0
1  14 0 0 67.7807091528626
2  28 12 0 0 67.7807091528626
2  29 2 0 0 67.7807091528626
0

0101000
+360 0 -358 0 *
Ve
1e-07
187.696771363989 146.966161735434 0
0 0

0101101
*
Ed
 1e-07 1 1 0
1  15 0 0 3.42012752606186
2  30 12 0 0 3.42012752606186
2  31 2 0 0 3.42012752606186
0

0101000
+358 0 -356 0 *
Ve
1e-07
187.696971363989 146.966161735434 0
0 0

0101101
*
Ed
 1e-07 1 1 0
1  16 0 0 0.000200000000006639
2  32 12 0 0 0.000200000000006639
2  33 2 0 0 0.000200000000006639
0

0101000
+356 0 -354 0 *
Ve
1e-07
187.696971363989 161.268513208056 0
0 0

0101101
*
Ed
 1e-07 1 1 0
1  17 0 0.00010000000000332 14.3024514726224
2  34 2 0 0.00010000000000332 14.3024514726224
2  35 13 0 0.00010000000000332 14.3024514726224
0

0101000
+352 0 -354 0 *
Ve
1e-07
187.696771363989 161.268513208056 0
0 0

0101101
*
Ed
 1e-07 1 1 0
1  18 0 3.41992752606188 3.42012752606189
2  36 14 0 3.41992752606188 3.42012752606189
2  37 2 0 3.41992752606188 3.42012752606189
0

0101000
+352 0 -350 0 *
Ve
1e-07
187.696771363989 196.09162983705 0
0 0

0101101
*
Ed
 1e-07 1 1 0
1  19 0 0 34.8231166289936
2  38 14 0 0 34.8231166289936
2  39 2 0 0 34.8231166289936
0

0101000
+350 0 -348 0 *
Ed
 1e-07 1 1 0
1  20 0 0 19.1216220775277
2  40 14 0 0 19.1216220775277
2  41 2 0 0 19.1216220775277
0

0101000
+348 0 -387 0 *
Ve
1e-07
129.24368273675 196.09162983705 0
0 0

0101101
*
Ed
 1e-07 1 1 0
1  21 0 0 26.2727978138389
2  42 15 0 0 26.2727978138389
2  43 2 0 0 26.2727978138389
0

0101000
+386 0 -345 0 *
Ve
1e-07
129.24368273675 143.546034209372 0
0 0

0101101
*
Ed
 1e-07 1 1 0
1  22 0 0 52.5455956276779
2  44 15 0 0 52.5455956276779
2  45 2 0 0 52.5455956276779
0

0101000
+345 0 -343 0 *
Ve
1e-07
75.4544043723221 143.546034209372 0
0 0

0101101
*
Ed
 1e-07 1 1 0
1  23 0 0 53.7892783644276
2  46 15 0 0 53.7892783644276
2  47 2 0 0 53.7892783644276
0

0101000
+343 0 -341 0 *
Ve
1e-07
75.4544043723221 136.083937788874 0
0 0

0101101
*
Ed
 1e-07 1 1 0
1  24 0 0 7.46209642049863
2  48 15 0 0 7.46209642049863
2  49 2 0 0 7.46209642049863
0

0101000
+341 0 -339 0 *
Ve
1e-07
75.4544043723221 123.025269053001 0
0 0

0101101
*
Ed
 1e-07 1 1 0
1  25 0 0 13.0586687358726
2  50 16 0 0 13.0586687358726
2  51 2 0 0 13.0586687358726
2  52 17 0 0 13.0586687358726
0

0101000
+339 0 -337 0 *
Ve
1e-07
75.4544043723221 119.605141526939 0
0 0

0101101
*
Ed
 1e-07 1 1 0
1  26 0 0 3.42012752606188
2  53 18 0 0 3.42012752606188
2  54 2 0 0 3.42012752606188
0

0101000
+337 0 -335 0 *
Ve
1.00000355271368e-07
75.4544043723221 105.302790054317 0
0 0

0101101
*
Ed
 1e-07 1 1 0
1  27 0 0 14.3023514726224
2  55 19 0 0 14.3023514726224
2  56 2 0 0 14.3023514726224
0

0101000
+335 0 -333 0 *
Ve
1e-07
123.336189737188 105.302790054317 0
0 0

0101101
*
Ed
 1e-07 1 1 0
1  28 0 3.42012752606185 51.3019128909281
2  57 20 0 3.42012752606185 51.3019128909281
2  58 2 0 3.42012752606185 51.3019128909281
0

0101000
+333 0 -331 0 *
Ve
1e-07
123.336189737188 123.025269053001 0
0 0

0101101
*
Ed
 1e-07 1 1 0
1  29 0 0 17.7224789986843
2  59 20 0 0 17.7224789986843
2  60 2 0 0 17.7224789986843
0

0101000
+331 0 -329 0 *
Ed
 1e-07 1 1 0
1  30 0 0 3.42012752606188
2  61 20 0 0 3.42012752606188
2  62 2 0 0 3.42012752606188
0

0101000
+329 0 -377 0 *
Wi

0101100
-375 0 -373 0 -371 0 -369 0 -367 0 -365 0 -363 0 -361 0 -359 0 -357 0 
-355 0 -353 0 +351 0 -349 0 -347 0 -346 0 -385 0 -344 0 -342 0 -340 0 
-338 0 -336 0 -334 0 -332 0 -330 0 -328 0 -327 0 *
Fa
0  1e-07 2 0

0101000
+326 0 *
Ve
1e-07
129.24368273675 219.099760466921 0
0 0

0101101
*
Ve
1e-07
187.696771363989 219.099760466921 0
0 0

0101101
*
Ed
 1e-07 1 1 0
1  31 0 0 58.4530886272393
2  63 3 0 0 58.4530886272393
0

0101000
+324 0 -323 0 *
Ve
1.0000011718571e-07
187.696771363989 200.03427684626 0
0 0

0101101
*
Ed
 1e-07 1 1 0
1  32 0 0 19.0654836206606
2  64 3 0 0 19.0654836206606
0

0101000
+323 0 -321 0 *
Ve
1.00000051237965e-07
187.696771363989 199.511757363112 0
0 0

0101101
*
Ed
 1e-07 1 1 0
1  33 0 0 0.522519483148329
2  65 3 0 0 0.522519483148329
0

0101000
+321 0 -319 0 *
Ve
1e-07
177.125468101616 199.511757363112 0
0 0

0101101
*
Ed
 1e-07 1 1 0
1  34 0 0 10.571303262373
2  66 3 0 0 10.571303262373
0

0101000
+319 0 -317 0 *
Ed
 1e-07 1 1 0
1  35 0 0 8.5503188151547
2  67 3 0 0 8.5503188151547
0

0101000
+317 0 -382 0 *
Ve
1e-07
146.966161735434 199.511757363112 0
0 0

0101101
*
Ed
 1e-07 1 1 0
1  36 0 0 8.55031881515467
2  68 3 0 0 8.55031881515467
0

0101000
+384 0 -314 0 *
Ve
1.00000121417596e-07
129.24368273675 199.511757363112 0
0 0

0101101
*
Ed
 1e-07 1 1 0
1  37 0 0 17.7224789986842
2  69 3 0 0 17.7224789986842
0

0101000
+314 0 -312 0 *
Ve
1.00000160777468e-07
129.24368273675 200.03427684626 0
0 0

0101101
*
Ed
 1e-07 1 1 0
1  38 0 0 0.522519483148329
2  70 3 0 0 0.522519483148329
0

0101000
+312 0 -310 0 *
Ed
 1e-07 1 1 0
1  39 0 0 19.0654836206606
2  71 3 0 0 19.0654836206606
0

0101000
+310 0 -324 0 *
Wi

0101100
+322 0 +320 0 +318 0 +316 0 +315 0 -381 0 +313 0 +311 0 +309 0 +308 0 
*
Fa
0  1e-07 3 0

0111000
+307 0 *
Ve
1.00000227373675e-07
126.75631726325 119.605141526939 0
0 0

0101101
*
Ed
 1e-07 1 1 0
1  40 0 0 3.42012752606188
2  72 5 0 0 3.42012752606188
0

0101000
+305 0 -377 0 *
Ve
1e-07
140.436827367498 119.605141526939 0
0 0

0101101
*
Ed
 1e-07 1 1 0
1  41 0 0 3.42012752606188
2  73 5 0 0 3.42012752606188
0

0101000
+376 0 -303 0 *
Ed
 1e-07 1 1 0
1  42 0 0 13.6805101042475
2  74 5 0 0 13.6805101042475
2  75 21 0 0 13.6805101042475
0

0101000
+303 0 -305 0 *
Wi

0101100
+304 0 +375 0 +302 0 +301 0 *
Fa
0  1e-07 5 0

0111000
+300 0 *
Ve
1.00000063948846e-07
227.339158597888 56.7991633210755 0
0 0

0101101
*
Ve
1.00000035527137e-07
214.280489862015 56.7991633210755 0
0 0

0101101
*
Ed
 1.00000014210854e-07 1 1 0
1  43 0 0 13.0586687358726
2  76 8 0 0 13.0586687358726
2  77 22 0 0 13.0586687358726
0

0101000
+298 0 -297 0 *
Ed
 1e-07 1 1 0
1  44 0 0 3.42012752606187
2  78 8 0 0 3.42012752606187
0

0101000
+297 0 -370 0 *
Ed
 1e-07 1 1 0
1  45 0 0 3.42012752606187
2  79 8 0 0 3.42012752606187
0

0101000
+368 0 -298 0 *
Wi

0101100
+296 0 +295 0 +367 0 +294 0 *
Fa
0  1e-07 8 0

0111000
+293 0 *
Ve
1e-07
258.897608042914 116.495934685065 0
0 0

0101101
*
Ed
 1e-07 1 1 0
1  46 0 0 3.42012752606189
2  80 11 0 0 3.42012752606189
0

0101000
+291 0 -364 0 *
Ve
1e-07
258.897608042914 132.663810262812 0
0 0

0101101
*
Ed
 1e-07 1 1 0
1  47 0 0 3.42012752606189
2  81 11 0 0 3.42012752606189
0

0101000
+362 0 -289 0 *
Ed
 1e-07 1 1 0
1  48 0 0 16.167875577747
2  82 11 0 0 16.167875577747
0

0101000
+289 0 -291 0 *
Wi

0101100
+290 0 +361 0 +288 0 +287 0 *
Fa
0  1e-07 11 0

0111000
+286 0 *
Ve
1e-07
255.477480516852 146.966161735434 0
0 0

0101101
*
Ed
 1e-07 1 1 0
1  49 0 0.000200000000006639 67.7807091528626
2  83 23 0 0.000200000000006639 67.7807091528626
2  84 13 0 0.000200000000006639 67.7807091528626
0

0101000
+354 0 -284 0 *
Ve
1e-07
255.477480516852 196.09162983705 0
0 0

0101101
*
Ed
 1e-07 1 1 0
1  50 0 0 49.125468101616
2  85 23 0 0 49.125468101616
2  86 13 0 0 49.125468101616
0

0101000
+284 0 -282 0 *
Ve
1e-07
245.528018622853 196.09162983705 0
0 0

0101101
*
Ed
 1e-07 1 1 0
1  51 0 0 9.94946189399818
2  87 23 0 0 9.94946189399818
2  88 13 0 0 9.94946189399818
0

0101000
+282 0 -280 0 *
Ve
1e-07
225.940015519045 196.09162983705 0
0 0

0101101
*
Ed
 1e-07 1 1 0
1  52 0 0 19.5880031038089
2  89 24 0 0 19.5880031038089
2  90 13 0 0 19.5880031038089
2  91 25 0 0 19.5880031038089
0

0101000
+280 0 -278 0 *
Ve
1e-07
216.923315677609 196.09162983705 0
0 0

0101101
*
Ed
 1e-07 1 1 0
1  53 0 0 9.01669984143584
2  92 26 0 0 9.01669984143584
2  93 13 0 0 9.01669984143584
0

0101000
+278 0 -276 0 *
Ve
1e-07
203.864646941736 196.09162983705 0
0 0

0101101
*
Ed
 1e-07 1 1 0
1  54 0 0 13.0586687358726
2  94 27 0 0 13.0586687358726
2  95 13 0 0 13.0586687358726
2  96 28 0 0 13.0586687358726
0

0101000
+276 0 -274 0 *
Ve
1e-07
191.116898890051 196.09162983705 0
0 0

0101101
*
Ed
 1e-07 1 1 0
1  55 0 0 12.7477480516852
2  97 29 0 0 12.7477480516852
2  98 13 0 0 12.7477480516852
0

0101000
+274 0 -272 0 *
Ve
1e-07
191.116898890051 161.268513208056 0
0 0

0101101
*
Ed
 1e-07 1 1 0
1  56 0 0 34.8231166289936
2  99 29 0 0 34.8231166289936
2  100 13 0 0 34.8231166289936
0

0101000
+272 0 -270 0 *
Ed
 1e-07 1 1 0
1  57 0 0 3.41992752606188
2  101 29 0 0 3.41992752606188
2  102 13 0 0 3.41992752606188
0

0101000
+270 0 -352 0 *
Wi

0101100
-351 0 -283 0 -281 0 -279 0 -277 0 -275 0 -273 0 -271 0 -269 0 -268 0 
*
Fa
0  1e-07 13 0

0101000
+267 0 *
Ve
1.00000085265128e-07
72.0342768462603 123.025269053001 0
0 0

0101101
*
Ed
 1e-07 1 1 0
1  58 0 0 3.42012752606188
2  103 17 0 0 3.42012752606188
0

0101000
+337 0 -265 0 *
Ve
1e-07
72.0342768462603 136.083937788874 0
0 0

0101101
*
Ed
 1e-07 1 1 0
1  59 0 0 13.0586687358726
2  104 17 0 0 13.0586687358726
2  105 30 0 0 13.0586687358726
0

0101000
+265 0 -263 0 *
Ed
 1e-07 1 1 0
1  60 0 0 3.42012752606188
2  106 17 0 0 3.42012752606188
0

0101000
+263 0 -339 0 *
Wi

0101100
+264 0 +262 0 +261 0 +336 0 *
Fa
0  1e-07 17 0

0111000
+260 0 *
Ve
1e-07
72.0342768462603 105.302790054317 0
0 0

0101101
*
Ed
 1e-07 1 1 0
1  61 0 0 3.42012752606188
2  107 19 0 0 3.42012752606188
0

0101000
+333 0 -258 0 *
Ve
1.00000042632564e-07
72.0342768462603 119.605141526939 0
0 0

0101101
*
Ed
 1e-07 1 1 0
1  62 0 0 14.3023514726224
2  108 19 0 0 14.3023514726224
2  109 31 0 0 14.3023514726224
0

0101000
+258 0 -256 0 *
Ed
 1e-07 1 1 0
1  63 0 0 3.42012752606188
2  110 19 0 0 3.42012752606188
0

0101000
+256 0 -335 0 *
Wi

0101100
+257 0 +255 0 +254 0 +332 0 *
Fa
0  1e-07 19 0

0111000
+253 0 *
Ve
1e-07
126.75631726325 89.4458351607571 0
0 0

0101101
*
Ve
1.00000227373675e-07
126.75631726325 60.2192908471374 0
0 0

0101101
*
Ed
 1e-07 1 1 0
1  64 0 0 29.2265443136197
2  111 32 0 0 29.2265443136197
2  112 21 0 0 29.2265443136197
0

0101000
+251 0 -250 0 *
Ve
1e-07
152.251813366621 60.2192908471374 0
0 0

0101101
*
Ed
 1e-07 1 1 0
1  65 0 0 25.4954961033703
2  113 33 0 0 25.4954961033703
2  114 21 0 0 25.4954961033703
0

0101000
+250 0 -248 0 *
Ve
1e-07
155.671940892682 60.2192908471374 0
0 0

0101101
*
Ed
 1e-07 1 1 0
1  66 0 0 3.42012752606186
2  115 34 0 0 3.42012752606186
2  116 21 0 0 3.42012752606186
0

0101000
+248 0 -246 0 *
Ve
1e-07
155.671940892682 50.5807496373267 0
0 0

0101101
*
Ed
 1e-07 1 1 0
1  67 0 0 9.63854120981074
2  117 34 0 0 9.63854120981074
2  118 21 0 0 9.63854120981074
0

0101000
+246 0 -244 0 *
Ve
1e-07
187.696771363989 50.5807496373267 0
0 0

0101101
*
Ed
 1e-07 1 1 0
1  68 0 0 32.0248304713066
2  119 34 0 0 32.0248304713066
2  120 21 0 0 32.0248304713066
0

0101000
+244 0 -242 0 *
Ve
1e-07
187.696771363989 119.605141526939 0
0 0

0101101
*
Ed
 1e-07 1 1 0
1  69 0 0 69.0243918896124
2  121 34 0 0 69.0243918896124
2  122 21 0 0 69.0243918896124
0

0101000
+242 0 -240 0 *
Ed
 1e-07 1 1 0
1  70 0 0 47.2599439964913
2  123 34 0 0 47.2599439964913
2  124 21 0 0 47.2599439964913
0

0101000
+240 0 -303 0 *
Ve
1e-07
126.75631726325 101.882662528255 0
0 0

0101101
*
Ed
 1e-07 1 1 0
1  71 0 3.42012752606192 21.1426065247461
2  125 35 0 3.42012752606192 21.1426065247461
2  126 21 0 3.42012752606192 21.1426065247461
0

0101000
+305 0 -237 0 *
Ed
 1e-07 1 1 0
1  72 0 0 12.4368273674977
2  127 36 0 0 12.4368273674977
2  128 21 0 0 12.4368273674977
0

0101000
+237 0 -251 0 *
Wi

0101100
-249 0 -247 0 -245 0 -243 0 -241 0 -239 0 -238 0 -301 0 -236 0 -235 0 
*
Fa
0  1e-07 21 0

0101000
+234 0 *
Ve
1e-07
191.116898890051 36.9002395330792 0
0 0

0101101
*
Ve
1.00000037765864e-07
191.116898890051 46.6381026281164 0
0 0

0101101
*
Ed
 1e-07 1 1 0
1  73 0 0 9.73786309503728
2  129 22 0 0 9.73786309503728
0

0101000
+232 0 -231 0 *
Ve
1.00000033516234e-07
191.116898890051 56.7991633210755 0
0 0

0101101
*
Ed
 1e-07 1 1 0
1  74 0 0 10.1610606929591
2  130 22 0 0 10.1610606929591
0

0101000
+231 0 -229 0 *
Ve
1e-07
206.041091731048 56.7991633210755 0
0 0

0101101
*
Ed
 1e-07 1 1 0
1  75 0 0 14.9241928409973
2  131 22 0 0 14.9241928409973
0

0101000
+229 0 -227 0 *
Ed
 1e-07 1 1 0
1  76 0 0 8.2393981309668
2  132 22 0 0 8.2393981309668
0

0101000
+227 0 -297 0 *
Ve
1e-07
235.578556728855 56.7991633210755 0
0 0

0101101
*
Ed
 1e-07 1 1 0
1  76 0 21.2980668668398 29.5374649978071
2  132 22 0 21.2980668668398 29.5374649978071
0

0101000
+298 0 -224 0 *
Ve
1e-07
255.477480516852 56.7991633210755 0
0 0

0101101
*
Ed
 1e-07 1 1 0
1  77 0 0 19.8989237879964
2  133 22 0 0 19.8989237879964
0

0101000
+224 0 -222 0 *
Ve
1e-07
255.477480516852 36.9002395330792 0
0 0

0101101
*
Ed
 1e-07 1 1 0
1  78 0 0 19.8989237879964
2  134 22 0 0 19.8989237879964
0

0101000
+222 0 -220 0 *
Ed
 1e-07 1 1 0
1  79 0 0 64.3605816268007
2  135 22 0 0 64.3605816268007
0

0101000
+220 0 -232 0 *
Wi

0101100
+230 0 +228 0 +226 0 +225 0 -296 0 +223 0 +221 0 +219 0 +218 0 *
Fa
0  1e-07 22 0

0111000
+217 0 *
Ve
1e-07
225.940015519045 199.511757363112 0
0 0

0101101
*
Ed
 1e-07 1 1 0
1  80 0 0 3.42012752606189
2  136 25 0 0 3.42012752606189
0

0101000
+278 0 -215 0 *
Ve
1e-07
245.528018622853 199.511757363112 0
0 0

0101101
*
Ed
 1e-07 1 1 0
1  81 0 0 19.5880031038089
2  137 25 0 0 19.5880031038089
0

0101000
+215 0 -213 0 *
Ed
 1e-07 1 1 0
1  82 0 0 3.42012752606189
2  138 25 0 0 3.42012752606189
0

0101000
+213 0 -280 0 *
Wi

0101100
+214 0 +212 0 +211 0 +277 0 *
Fa
0  1e-07 25 0

0111000
+210 0 *
Ve
1e-07
203.864646941736 199.511757363112 0
0 0

0101101
*
Ed
 1e-07 1 1 0
1  83 0 0 3.42012752606189
2  139 28 0 0 3.42012752606189
0

0101000
+274 0 -208 0 *
Ve
1e-07
216.923315677609 199.511757363112 0
0 0

0101101
*
Ed
 1e-07 1 1 0
1  84 0 0 13.0586687358726
2  140 28 0 0 13.0586687358726
0

0101000
+208 0 -206 0 *
Ed
 1e-07 1 1 0
1  85 0 0 3.42012752606189
2  141 28 0 0 3.42012752606189
0

0101000
+206 0 -276 0 *
Wi

0101100
+207 0 +205 0 +204 0 +273 0 *
Fa
0  1e-07 28 0

0111000
+203 0 *
Ve
1.00000000222045e-07
0.522519483148347 135.151175736311 0
0 0

0101101
*
Ve
1.00000085265201e-07
0.522519483148347 123.025269053001 0
0 0

0101101
*
Ed
 1e-07 1 1 0
1  86 0 0 12.1259066833103
2  142 37 0 0 12.1259066833103
2  143 30 0 0 12.1259066833103
0

0101000
+201 0 -200 0 *
Ed
 1e-07 1 1 0
1  87 0 3.94264700921022 75.4544043723222
2  144 38 0 3.94264700921022 75.4544043723222
2  145 30 0 3.94264700921022 75.4544043723222
0

0101000
+200 0 -265 0 *
Ve
1e-07
72.0342768462603 153.806416787558 0
0 0

0101101
*
Ed
 1e-07 1 1 0
1  88 0 0 17.7224789986842
2  146 39 0 0 17.7224789986842
2  147 30 0 0 17.7224789986842
0

0101000
+263 0 -197 0 *
Ve
1e-07
72.0342768462603 166.86508552343 0
0 0

0101101
*
Ed
 1e-07 1 1 0
1  89 0 0 13.0586687358726
2  148 40 0 0 13.0586687358726
2  149 30 0 0 13.0586687358726
0

0101000
+197 0 -195 0 *
Ve
1.00000042632564e-07
72.0342768462603 196.09162983705 0
0 0

0101101
*
Ed
 1e-07 1 1 0
1  90 0 0 29.2265443136196
2  150 41 0 0 29.2265443136196
2  151 30 0 0 29.2265443136196
0

0101000
+195 0 -193 0 *
Ve
1e-07
48.4043048480146 196.09162983705 0
0 0

0101101
*
Ed
 1e-07 1 1 0
1  91 0 0 23.6299719982457
2  152 42 0 0 23.6299719982457
2  153 30 0 0 23.6299719982457
0

0101000
+193 0 -191 0 *
Ve
1e-07
44.9841773219527 196.09162983705 0
0 0

0101101
*
Ed
 1e-07 1 1 0
1  92 0 0 3.42012752606187
2  154 43 0 0 3.42012752606187
2  155 30 0 0 3.42012752606187
0

0101000
+191 0 -189 0 *
Ve
1e-07
44.9841773219527 205.419250362673 0
0 0

0101101
*
Ed
 1e-07 1 1 0
1  93 0 0 9.3276205256233
2  156 43 0 0 9.3276205256233
2  157 30 0 0 9.3276205256233
0

0101000
+189 0 -187 0 *
Ve
1e-07
0.522519483148347 205.419250362673 0
0 0

0101101
*
Ed
 1e-07 1 1 0
1  94 0 0 44.4616578388044
2  158 43 0 0 44.4616578388044
2  159 30 0 0 44.4616578388044
0

0101000
+187 0 -185 0 *
Ed
 1e-07 1 1 0
1  95 0 0 70.2680746263621
2  160 43 0 0 70.2680746263621
2  161 30 0 0 70.2680746263621
0

0101000
+185 0 -201 0 *
Wi

0101100
-199 0 -198 0 -262 0 -196 0 -194 0 -192 0 -190 0 -188 0 -186 0 -184 0 
-183 0 *
Fa
0  1e-07 30 0

0101000
+182 0 *
Ve
1.00000042632564e-07
72.0342768462603 60.2192908471374 0
0 0

0101101
*
Ve
1e-07
72.0342768462603 74.2107216355723 0
0 0

0101101
*
Ed
 1e-07 1 1 0
1  96 0 3.42012752606187 17.4115583144968
2  162 44 0 3.42012752606187 17.4115583144968
2  163 31 0 3.42012752606187 17.4115583144968
0

0101000
+180 0 -179 0 *
Ve
1e-07
72.0342768462603 87.269390371445 0
0 0

0101101
*
Ed
 1e-07 1 1 0
1  97 0 0 13.0586687358726
2  164 45 0 0 13.0586687358726
2  165 31 0 0 13.0586687358726
0

0101000
+179 0 -177 0 *
Ed
 1e-07 1 1 0
1  98 0 0 18.0333996828717
2  166 46 0 0 18.0333996828717
2  167 31 0 0 18.0333996828717
0

0101000
+177 0 -258 0 *
Ve
1.00000042771261e-07
0.522519483148347 119.605141526939 0
0 0

0101101
*
Ed
 1e-07 1 1 0
1  99 0 3.42012752606183 74.9318848891738
2  168 47 0 3.42012752606183 74.9318848891738
2  169 31 0 3.42012752606183 74.9318848891738
0

0101000
+256 0 -174 0 *
Ve
1.00000014432899e-07
0.522519483148347 107.168314159441 0
0 0

0101101
*
Ed
 1e-07 1 1 0
1  100 0 0 12.4368273674977
2  170 48 0 0 12.4368273674977
2  171 31 0 0 12.4368273674977
0

0101000
+174 0 -172 0 *
Ve
1e-07
0.522519483148347 50.5807496373267 0
0 0

0101101
*
Ed
 1e-07 1 1 0
1  101 0 0 56.5875645221146
2  172 49 0 0 56.5875645221146
2  173 31 0 0 56.5875645221146
0

0101000
+172 0 -170 0 *
Ve
1e-07
44.0514152693904 50.5807496373267 0
0 0

0101101
*
Ed
 1e-07 1 1 0
1  102 0 0 43.528895786242
2  174 49 0 0 43.528895786242
2  175 31 0 0 43.528895786242
0

0101000
+170 0 -168 0 *
Ve
1e-07
44.0514152693904 60.2192908471374 0
0 0

0101101
*
Ed
 1e-07 1 1 0
1  103 0 0 9.63854120981074
2  176 49 0 0 9.63854120981074
2  177 31 0 0 9.63854120981074
0

0101000
+168 0 -166 0 *
Ve
1e-07
47.4715427954523 60.2192908471374 0
0 0

0101101
*
Ed
 1e-07 1 1 0
1  104 0 0 3.42012752606188
2  178 49 0 0 3.42012752606188
2  179 31 0 0 3.42012752606188
0

0101000
+166 0 -164 0 *
Ed
 1e-07 1 1 0
1  105 0 0 24.562734050808
2  180 50 0 0 24.562734050808
2  181 31 0 0 24.562734050808
0

0101000
+164 0 -180 0 *
Wi

0101100
-178 0 -176 0 -175 0 -255 0 -173 0 -171 0 -169 0 -167 0 -165 0 -163 0 
-162 0 *
Fa
0  1e-07 31 0

0101000
+161 0 *
Ve
1e-07
126.75631726325 56.7991633210755 0
0 0

0101101
*
Ed
 1e-07 1 1 0
1  106 0 0 3.42012752606188
2  182 33 0 0 3.42012752606188
0

0101000
+159 0 -250 0 *
Ve
1e-07
152.251813366621 56.7991633210755 0
0 0

0101101
*
Ed
 1e-07 1 1 0
1  107 0 0 3.42012752606188
2  183 33 0 0 3.42012752606188
0

0101000
+248 0 -157 0 *
Ed
 1e-07 1 1 0
1  108 0 0 25.4954961033703
2  184 33 0 0 25.4954961033703
0

0101000
+157 0 -159 0 *
Wi

0101100
+158 0 +247 0 +156 0 +155 0 *
Fa
0  1e-07 33 0

0111000
+154 0 *
Ve
1e-07
123.336189737188 89.4458351607571 0
0 0

0101101
*
Ed
 1e-07 1 1 0
1  109 0 0 3.42012752606188
2  185 36 0 0 3.42012752606188
0

0101000
+251 0 -152 0 *
Ve
1.00000213162821e-07
123.336189737188 101.882662528255 0
0 0

0101101
*
Ed
 1e-07 1 1 0
1  110 0 0 12.4368273674977
2  186 51 0 0 12.4368273674977
2  187 52 0 0 12.4368273674977
2  188 36 0 0 12.4368273674977
0

0101000
+152 0 -150 0 *
Ed
 1e-07 1 1 0
1  111 0 0 3.42012752606188
2  189 36 0 0 3.42012752606188
0

0101000
+150 0 -237 0 *
Wi

0101100
+151 0 +149 0 +148 0 +235 0 *
Fa
0  1e-07 36 0

0111000
+147 0 *
Ve
1.00000042660889e-07
-2.89760804291353 123.025269053001 0
0 0

0101101
*
Ed
 1e-07 1 1 0
1  112 0 0 3.42012752606187
2  190 37 0 0 3.42012752606187
0

0101000
+200 0 -145 0 *
Ve
1.00000142119649e-07
-2.89760804291353 135.151175736311 0
0 0

0101101
*
Ed
 1e-07 1 1 0
1  113 0 0 12.1259066833103
2  191 53 0 0 12.1259066833103
2  192 37 0 0 12.1259066833103
0

0101000
+143 0 -145 0 *
Ed
 1e-07 1 1 0
1  114 0 0 3.42012752606187
2  193 37 0 0 3.42012752606187
0

0101000
+143 0 -201 0 *
Wi

0101100
+144 0 -142 0 +141 0 +199 0 *
Fa
0  1e-07 37 0

0111000
+140 0 *
Ve
1e-07
75.4544043723221 153.806416787558 0
0 0

0101101
*
Ed
 1e-07 1 1 0
1  115 0 0 3.42012752606188
2  194 40 0 0 3.42012752606188
0

0101000
+138 0 -197 0 *
Ve
1e-07
75.4544043723221 166.86508552343 0
0 0

0101101
*
Ed
 1e-07 1 1 0
1  116 0 0 3.42012752606188
2  195 40 0 0 3.42012752606188
0

0101000
+195 0 -136 0 *
Ed
 1e-07 1 1 0
1  117 0 0 13.0586687358726
2  196 54 0 0 13.0586687358726
2  197 55 0 0 13.0586687358726
2  198 40 0 0 13.0586687358726
0

0101000
+136 0 -138 0 *
Wi

0101100
+137 0 +194 0 +135 0 +134 0 *
Fa
0  1e-07 40 0

0111000
+133 0 *
Ve
1e-07
72.0342768462603 199.511757363112 0
0 0

0101101
*
Ed
 1e-07 1 1 0
1  118 0 0 3.42012752606189
2  199 42 0 0 3.42012752606189
0

0101000
+131 0 -193 0 *
Ve
1e-07
48.4043048480146 199.511757363112 0
0 0

0101101
*
Ed
 1e-07 1 1 0
1  119 0 0 3.42012752606189
2  200 42 0 0 3.42012752606189
0

0101000
+191 0 -129 0 *
Ed
 1e-07 1 1 0
1  120 0 0 23.6299719982457
2  201 42 0 0 23.6299719982457
0

0101000
+129 0 -131 0 *
Wi

0101100
+130 0 +190 0 +128 0 +127 0 *
Fa
0  1e-07 42 0

0111000
+126 0 *
Ve
1e-07
75.4544043723221 74.2107216355723 0
0 0

0101101
*
Ed
 1e-07 1 1 0
1  121 0 0 3.42012752606188
2  202 45 0 0 3.42012752606188
0

0101000
+124 0 -179 0 *
Ve
1e-07
75.4544043723221 87.269390371445 0
0 0

0101101
*
Ed
 1e-07 1 1 0
1  122 0 0 3.42012752606188
2  203 45 0 0 3.42012752606188
0

0101000
+177 0 -122 0 *
Ed
 1e-07 1 1 0
1  123 0 0 13.0586687358726
2  204 45 0 0 13.0586687358726
2  205 56 0 0 13.0586687358726
0

0101000
+122 0 -124 0 *
Wi

0101100
+123 0 +176 0 +121 0 +120 0 *
Fa
0  1e-07 45 0

0111000
+119 0 *
Ve
1.0000001687539e-07
-2.89760804291353 107.168314159441 0
0 0

0101101
*
Ed
 1e-07 1 1 0
1  124 0 0 3.42012752606187
2  206 48 0 0 3.42012752606187
0

0101000
+172 0 -117 0 *
Ve
1.00000042853748e-07
-2.89760804291353 119.605141526939 0
0 0

0101101
*
Ed
 1.00000000444089e-07 1 1 0
1  125 0 0 12.436827367498
2  207 57 0 0 12.436827367498
2  208 48 0 0 12.436827367498
0

0101000
+115 0 -117 0 *
Ed
 1e-07 1 1 0
1  126 0 0 3.42012752606187
2  209 48 0 0 3.42012752606187
0

0101000
+115 0 -174 0 *
Wi

0101100
+116 0 -114 0 +113 0 +171 0 *
Fa
0  1e-07 48 0

0111000
+112 0 *
Ve
1e-07
47.4715427954523 56.7991633210755 0
0 0

0101101
*
Ed
 1e-07 1 1 0
1  127 0 0 3.42012752606188
2  210 50 0 0 3.42012752606188
0

0101000
+110 0 -164 0 *
Ve
1e-07
72.0342768462603 56.7991633210755 0
0 0

0101101
*
Ed
 1e-07 1 1 0
1  128 0 0 3.42012752606188
2  211 50 0 0 3.42012752606188
0

0101000
+180 0 -108 0 *
Ed
 1e-07 1 1 0
1  129 0 0 24.562734050808
2  212 50 0 0 24.562734050808
0

0101000
+108 0 -110 0 *
Wi

0101100
+109 0 +162 0 +107 0 +106 0 *
Fa
0  1e-07 50 0

0111000
+105 0 *
Ve
1e-07
100.01713842313 101.882662528255 0
0 0

0101101
*
Ed
 1e-07 1 1 0
1  130 0 3.42012752606223 26.7391788401201
2  213 58 0 3.42012752606223 26.7391788401201
2  214 52 0 3.42012752606223 26.7391788401201
0

0101000
+150 0 -103 0 *
Ve
1e-07
100.01713842313 60.2192908471374 0
0 0

0101101
*
Ed
 1e-07 1 1 0
1  131 0 0 41.6633716811174
2  215 58 0 0 41.6633716811174
2  216 52 0 0 41.6633716811174
0

0101000
+103 0 -101 0 *
Ve
1e-07
106.857393475254 60.2192908471374 0
0 0

0101101
*
Ed
 1e-07 1 1 0
1  132 0 0 6.84025505212375
2  217 58 0 0 6.84025505212375
2  218 52 0 0 6.84025505212375
0

0101000
+101 0 -99 0 *
Ve
1e-07
116.185014000877 60.2192908471374 0
0 0

0101101
*
Ed
 1e-07 1 1 0
1  133 0 0 9.32762052562329
2  219 59 0 0 9.32762052562329
2  220 52 0 0 9.32762052562329
0

0101000
+99 0 -97 0 *
Ve
1e-07
123.336189737188 60.2192908471374 0
0 0

0101101
*
Ed
 1e-07 1 1 0
1  134 0 0 7.15117573631119
2  221 60 0 0 7.15117573631119
2  222 52 0 0 7.15117573631119
0

0101000
+97 0 -95 0 *
Ed
 1e-07 1 1 0
1  135 0 0 29.2265443136196
2  223 60 0 0 29.2265443136196
2  224 52 0 0 29.2265443136196
0

0101000
+95 0 -152 0 *
Wi

0101100
-102 0 -100 0 -98 0 -96 0 -94 0 -93 0 -149 0 *
Fa
0  1e-07 52 0

0101000
+92 0 *
Ve
1e-07
-24.972976620222 123.025269053001 0
0 0

0101101
*
Ve
1e-07
-24.972976620222 161.268513208056 0
0 0

0101101
*
Ed
 1e-07 1 1 0
1  136 0 0 38.2432441550555
2  225 53 0 0 38.2432441550555
0

0101000
+90 0 -89 0 *
Ve
1e-07
-2.89760804291353 161.268513208056 0
0 0

0101101
*
Ed
 1e-07 1 1 0
1  137 0 0 22.0753685773085
2  226 53 0 0 22.0753685773085
0

0101000
+89 0 -87 0 *
Ed
 1e-07 1 1 0
1  138 0 0 26.1173374717452
2  227 53 0 0 26.1173374717452
0

0101000
+87 0 -143 0 *
Ve
1.00000042669556e-07
-3.42012752606187 123.025269053001 0
0 0

0101101
*
Ed
 1e-07 1 1 0
1  139 0 0 0.522519483148347
2  228 53 0 0 0.522519483148347
0

0101000
+145 0 -84 0 *
Ed
 1e-07 1 1 0
1  140 0 0 21.5528490941601
2  229 53 0 0 21.5528490941601
0

0101000
+84 0 -90 0 *
Wi

0101100
+88 0 +86 0 +85 0 +142 0 +83 0 +82 0 *
Fa
0  1e-07 53 0

0111000
+81 0 *
Ve
1e-07
75.4544043723221 146.966161735434 0
0 0

0101101
*
Ed
 1e-07 1 1 0
1  141 0 0 6.84025505212375
2  230 61 0 0 6.84025505212375
2  231 55 0 0 6.84025505212375
0

0101000
+138 0 -79 0 *
Ve
1e-07
125.823555210688 146.966161735434 0
0 0

0101101
*
Ed
 1e-07 1 1 0
1  142 0 0 50.3691508383658
2  232 61 0 0 50.3691508383658
2  233 55 0 0 50.3691508383658
0

0101000
+79 0 -77 0 *
Ve
1e-07
125.823555210688 168.730609628555 0
0 0

0101101
*
Ed
 1e-07 1 1 0
1  143 0 0 21.764447893121
2  234 61 0 0 21.764447893121
2  235 55 0 0 21.764447893121
0

0101000
+77 0 -75 0 *
Ve
1e-07
109.033838264566 168.730609628555 0
0 0

0101101
*
Ed
 1e-07 1 1 0
1  144 0 0 16.7897169461219
2  236 61 0 0 16.7897169461219
2  237 55 0 0 16.7897169461219
0

0101000
+75 0 -73 0 *
Ve
1e-07
109.033838264566 172.150737154617 0
0 0

0101101
*
Ed
 1e-07 1 1 0
1  145 0 0 3.42012752606186
2  238 61 0 0 3.42012752606186
2  239 55 0 0 3.42012752606186
0

0101000
+73 0 -71 0 *
Ve
1e-07
125.823555210688 172.150737154617 0
0 0

0101101
*
Ed
 1e-07 1 1 0
1  146 0 0 16.7897169461219
2  240 61 0 0 16.7897169461219
2  241 55 0 0 16.7897169461219
0

0101000
+71 0 -69 0 *
Ve
1e-07
125.823555210688 196.09162983705 0
0 0

0101101
*
Ed
 1e-07 1 1 0
1  147 0 0 23.9408926824331
2  242 61 0 0 23.9408926824331
2  243 55 0 0 23.9408926824331
0

0101000
+69 0 -67 0 *
Ve
1e-07
88.5130731081947 196.09162983705 0
0 0

0101101
*
Ed
 1e-07 1 1 0
1  148 0 0 37.3104821024932
2  244 61 0 0 37.3104821024932
2  245 55 0 0 37.3104821024932
0

0101000
+67 0 -65 0 *
Ve
1e-07
78.874531898384 196.09162983705 0
0 0

0101101
*
Ed
 1e-07 1 1 0
1  149 0 0 9.63854120981074
2  246 62 0 0 9.63854120981074
2  247 55 0 0 9.63854120981074
2  248 63 0 0 9.63854120981074
0

0101000
+65 0 -63 0 *
Ve
1e-07
75.4544043723221 196.09162983705 0
0 0

0101101
*
Ed
 1e-07 1 1 0
1  150 0 0 3.42012752606186
2  249 64 0 0 3.42012752606186
2  250 55 0 0 3.42012752606186
0

0101000
+63 0 -61 0 *
Ve
1e-07
75.4544043723221 172.150737154617 0
0 0

0101101
*
Ed
 1e-07 1 1 0
1  151 0 0 23.9408926824331
2  251 64 0 0 23.9408926824331
2  252 55 0 0 23.9408926824331
0

0101000
+61 0 -59 0 *
Ve
1e-07
95.3533281603185 172.150737154617 0
0 0

0101101
*
Ed
 1e-07 1 1 0
1  152 0 0 19.8989237879963
2  253 64 0 0 19.8989237879963
2  254 55 0 0 19.8989237879963
0

0101000
+59 0 -57 0 *
Ve
1e-07
95.3533281603185 168.730609628555 0
0 0

0101101
*
Ed
 1e-07 1 1 0
1  153 0 0 3.42012752606186
2  255 64 0 0 3.42012752606186
2  256 55 0 0 3.42012752606186
0

0101000
+57 0 -55 0 *
Ve
1e-07
75.4544043723221 168.730609628555 0
0 0

0101101
*
Ed
 1e-07 1 1 0
1  154 0 0 19.8989237879963
2  257 64 0 0 19.8989237879963
2  258 55 0 0 19.8989237879963
0

0101000
+55 0 -53 0 *
Ed
 1e-07 1 1 0
1  155 0 0 1.86552410512468
2  259 64 0 0 1.86552410512468
2  260 55 0 0 1.86552410512468
0

0101000
+53 0 -136 0 *
Wi

0101100
-134 0 -78 0 -76 0 -74 0 -72 0 -70 0 -68 0 -66 0 -64 0 -62 0 
-60 0 -58 0 -56 0 -54 0 -52 0 -51 0 *
Fa
0  1e-07 55 0

0101000
+50 0 *
Ve
1e-07
91.9332006342566 60.2192908471374 0
0 0

0101101
*
Ve
1e-07
96.5970108970682 60.2192908471374 0
0 0

0101101
*
Ed
 1e-07 1 1 0
1  156 0 0 4.66381026281165
2  261 65 0 0 4.66381026281165
2  262 56 0 0 4.66381026281165
0

0101000
+48 0 -47 0 *
Ve
1e-07
96.5970108970682 101.882662528255 0
0 0

0101101
*
Ed
 1e-07 1 1 0
1  157 0 0 41.6633716811174
2  263 65 0 0 41.6633716811174
2  264 56 0 0 41.6633716811174
0

0101000
+47 0 -45 0 *
Ve
1e-07
75.4544043723221 101.882662528255 0
0 0

0101101
*
Ed
 1e-07 1 1 0
1  158 0 0 21.1426065247461
2  265 65 0 0 21.1426065247461
2  266 56 0 0 21.1426065247461
0

0101000
+45 0 -43 0 *
Ed
 1e-07 1 1 0
1  159 0 0 14.6132721568098
2  267 65 0 0 14.6132721568098
2  268 56 0 0 14.6132721568098
0

0101000
+43 0 -122 0 *
Ve
1e-07
75.4544043723221 60.2192908471374 0
0 0

0101101
*
Ed
 1e-07 1 1 0
1  160 0 0 13.9914307884349
2  269 66 0 0 13.9914307884349
2  270 56 0 0 13.9914307884349
0

0101000
+124 0 -40 0 *
Ve
1e-07
82.6055801086333 60.2192908471374 0
0 0

0101101
*
Ed
 1e-07 1 1 0
1  161 0 0 7.15117573631117
2  271 66 0 0 7.15117573631117
2  272 56 0 0 7.15117573631117
0

0101000
+40 0 -38 0 *
Ed
 1e-07 1 1 0
1  162 0 0 9.32762052562329
2  273 67 0 0 9.32762052562329
2  274 56 0 0 9.32762052562329
0

0101000
+38 0 -48 0 *
Wi

0101100
-46 0 -44 0 -42 0 -41 0 -120 0 -39 0 -37 0 -36 0 *
Fa
0  1e-07 56 0

0101000
+35 0 *
Ve
1e-07
-24.972976620222 119.605141526939 0
0 0

0101101
*
Ve
1.00000021390169e-07
-3.42012752606187 119.605141526939 0
0 0

0101101
*
Ed
 1e-07 1 1 0
1  163 0 0 21.5528490941601
2  275 57 0 0 21.5528490941601
0

0101000
+33 0 -32 0 *
Ed
 1.00000007105427e-07 1 1 0
1  164 0 0 0.522519483148346
2  276 57 0 0 0.522519483148346
0

0101000
+32 0 -115 0 *
Ve
1.00000000444089e-07
-2.89760804291353 94.4205661077561 0
0 0

0101101
*
Ed
 1.00000000444089e-07 1 1 0
1  125 0 12.436827367498 25.1845754191829
2  207 57 0 12.436827367498 25.1845754191829
0

0101000
+117 0 -29 0 *
Ve
1e-07
-24.972976620222 94.4205661077561 0
0 0

0101101
*
Ed
 1e-07 1 1 0
1  165 0 0 22.0753685773085
2  277 57 0 0 22.0753685773085
0

0101000
+29 0 -27 0 *
Ed
 1e-07 1 1 0
1  166 0 0 25.1845754191829
2  278 57 0 0 25.1845754191829
0

0101000
+27 0 -33 0 *
Wi

0101100
+31 0 +30 0 +114 0 +28 0 +26 0 +25 0 *
Fa
0  1e-07 57 0

0111000
+24 0 *
Ve
1e-07
106.857393475254 56.7991633210755 0
0 0

0101101
*
Ed
 1e-07 1 1 0
1  167 0 0 3.42012752606188
2  279 59 0 0 3.42012752606188
0

0101000
+22 0 -99 0 *
Ve
1e-07
116.185014000877 56.7991633210755 0
0 0

0101101
*
Ed
 1e-07 1 1 0
1  168 0 0 3.42012752606188
2  280 59 0 0 3.42012752606188
0

0101000
+97 0 -20 0 *
Ed
 1e-07 1 1 0
1  169 0 0 9.32762052562329
2  281 59 0 0 9.32762052562329
0

0101000
+20 0 -22 0 *
Wi

0101100
+21 0 +96 0 +19 0 +18 0 *
Fa
0  1e-07 59 0

0111000
+17 0 *
Ve
1e-07
78.874531898384 199.511757363112 0
0 0

0101101
*
Ed
 1e-07 1 1 0
1  170 0 0 3.42012752606189
2  282 63 0 0 3.42012752606189
0

0101000
+63 0 -15 0 *
Ve
1e-07
88.5130731081947 199.511757363112 0
0 0

0101101
*
Ed
 1e-07 1 1 0
1  171 0 0 9.63854120981074
2  283 63 0 0 9.63854120981074
0

0101000
+15 0 -13 0 *
Ed
 1e-07 1 1 0
1  172 0 0 3.42012752606189
2  284 63 0 0 3.42012752606189
0

0101000
+13 0 -65 0 *
Wi

0101100
+14 0 +12 0 +11 0 +62 0 *
Fa
0  1e-07 63 0

0111000
+10 0 *
Ve
1e-07
82.6055801086333 56.7991633210755 0
0 0

0101101
*
Ed
 1e-07 1 1 0
1  173 0 0 3.42012752606188
2  285 67 0 0 3.42012752606188
0

0101000
+8 0 -38 0 *
Ve
1e-07
91.9332006342566 56.7991633210755 0
0 0

0101101
*
Ed
 1e-07 1 1 0
1  174 0 0 3.42012752606188
2  286 67 0 0 3.42012752606188
0

0101000
+48 0 -6 0 *
Ed
 1e-07 1 1 0
1  175 0 0 9.32762052562329
2  287 67 0 0 9.32762052562329
0

0101000
+6 0 -8 0 *
Wi

0101100
+7 0 +36 0 +5 0 +4 0 *
Fa
0  1e-07 67 0

0111000
+3 0 *
Sh

0101000
+378 0 +325 0 +306 0 +299 0 +292 0 +285 0 +266 0 +259 0 +252 0 +233 0 
+216 0 +209 0 +202 0 +181 0 +160 0 +153 0 +146 0 +139 0 +132 0 +125 0 
+118 0 +111 0 +104 0 +91 0 +80 0 +49 0 +34 0 +23 0 +16 0 +9 0 
+2 0 *

+1 0 