
CASCADE Topology V3, (c) Open Cascade
Locations 0
Curve2ds 192
1 -39.582513753464745 -45.09256679751806 1 0 
1 -0.89023550475140212 45.399072671349231 1 0 
1 22.807423353453494 -45.09256679751806 0 -1 
1 61.499701602166837 45.399072671349231 0 -1 
1 -2.4150943396226419 12.477987421383645 0 -1 
1 61.499701602166837 -22.223568838084745 0 -1 
1 -2.4150943396226419 12.477987421383645 0 -1 
1 40.26248389785556 28.732590740319765 -1 0 
1 66.329890281412119 -47.179543680852035 -1 0 
1 10.867924528301884 2.4150943396226339 -1 0 
1 -0.89023550475140212 -47.179543680852035 -1 0 
1 10.867924528301884 2.4150943396226339 -1 0 
1 2.415094339622641 -7.2452830188679158 0 1 
1 -22.626084561355185 -52.009732360097317 0 1 
1 2.415094339622641 7.24528301886793 -1 0 
1 -22.626084561355185 -37.519166322361471 -1 0 
1 17.911949685534623 2.4150943396226339 -1 0 
1 -27.456273240600467 -37.519166322361471 -1 0 
1 17.911949685534623 2.4150943396226339 -1 0 
1 -2.2138364779873854 2.4150943396226339 -1 0 
1 -47.582059404122475 -37.519166322361471 -1 0 
1 -2.2138364779873854 2.4150943396226339 -1 0 
1 -10.264150943396189 2.4150943396226339 -1 0 
1 -55.632373869531278 -37.519166322361471 -1 0 
1 -10.264150943396189 2.4150943396226339 -1 0 
1 59.825713991133114 -17.252087844107635 0 1 
1 -63.280172611669656 -42.349355001606753 0 1 
1 2.415094339622641 -10.666666666666686 0 1 
1 -63.280172611669656 24.065739338015888 0 1 
1 2.415094339622641 -10.666666666666686 0 1 
1 -10.666666666666657 -2.415094339622641 1 0 
1 -63.280172611669656 45.399072671349231 1 0 
1 -10.666666666666657 -2.415094339622641 1 0 
1 3.7709367759019869 -33.274447290022437 1 0 
1 -41.946839278336313 45.399072671349231 1 0 
1 -10.867924528301899 -2.415094339622641 1 0 
1 -22.626084561355185 45.399072671349231 1 0 
1 -10.867924528301899 -2.415094339622641 1 0 
1 -2.4150943396226419 -12.477987421383645 1 0 
1 2.4150943396226419 -12.477987421383645 0 1 
1 2.4150943396226419 12.477987421383645 -1 0 
1 10.867924528301884 -2.4150943396226481 0 1 
1 -10.867924528301899 2.4150943396226339 0 -1 
1 -10.867924528301899 -2.4150943396226481 1 0 
1 -34.464883394320296 21.69166995771862 1 0 
1 -17.911949685534566 2.4150943396226339 0 -1 
1 -17.911949685534566 -2.4150943396226481 1 0 
1 -10.264150943396189 -2.4150943396226481 1 0 
1 -2.2138364779873854 -2.4150943396226481 1 0 
1 17.911949685534623 -2.4150943396226481 0 1 
1 2.415094339622641 10.666666666666657 -1 0 
1 -2.415094339622641 10.666666666666657 0 -1 
1 55.686687213410551 43.734696434388241 0 -1 
1 -2.415094339622641 10.666666666666657 0 -1 
1 -2.415094339622641 -10.666666666666686 1 0 
1 10.666666666666686 -2.415094339622641 0 1 
1 10.666666666666686 2.415094339622641 -1 0 
1 12.880503144654085 -19.723270440251582 -1 0 
1 10.666666666666686 2.415094339622641 -1 0 
1 -10.666666666666657 2.415094339622641 0 -1 
1 10.867924528301884 -2.415094339622641 0 1 
1 10.867924528301884 2.415094339622641 -1 0 
1 -18.202655485674356 -52.013976240391372 -1 0 
1 10.867924528301884 2.415094339622641 -1 0 
1 -10.867924528301899 2.415094339622641 0 -1 
1 -26.957641888307961 23.902402061074483 1 0 
1 -12.729034337716513 21.69166995771862 1 0 
1 21.344244904144865 23.902402061074483 0 -1 
1 35.572852454736314 21.69166995771862 0 -1 
1 21.344244904144865 -19.971811775403509 -1 0 
1 35.572852454736314 -22.182543878759372 -1 0 
1 -48.693490944911744 -19.971811775403509 0 1 
1 -34.464883394320296 -22.182543878759372 0 1 
1 2.415094339622641 -19.924528301886795 0 1 
1 -34.464883394320296 -18.157386646054967 0 1 
1 2.415094339622641 -19.924528301886795 0 1 
1 -10.161468360929376 -24.803183160056449 1 0 
1 -3.4831241073441674 43.734696434388241 1 0 
1 54.995525311887832 49.163006495515006 0 -1 
1 55.686687213410551 22.401363101054898 0 -1 
1 54.995525311887832 -12.421899164862353 -1 0 
1 55.686687213410551 -39.183542559322461 -1 0 
1 -60.929002989998963 -12.421899164862353 0 1 
1 -60.237841088476245 -39.183542559322461 0 1 
1 -60.929002989998963 18.571811526961554 1 0 
1 -60.237841088476245 -8.1898318674985546 1 0 
1 -43.218311166099596 18.571811526961554 0 1 
1 -42.527149264576877 -8.1898318674985546 0 1 
1 2.415094339622641 -10.666666666666671 0 1 
1 -42.527149264576877 -3.3596431882532727 0 1 
1 2.415094339622641 -10.666666666666671 0 1 
1 2.4150943396226126 -2.4150943396226552 0 1 
1 -42.527149264576877 17.973690145080056 0 1 
1 2.415094339622641 -10.46540880503143 0 1 
1 -42.527149264576877 22.803878824325338 0 1 
1 -8.3090745732255016 -5.2902066486971933 1 0 
1 -47.357337943822159 43.734696434388241 1 0 
1 -11.270440251572325 -2.4150943396226694 1 0 
1 -26.024004610488817 43.734696434388241 1 0 
1 53.838531639070624 -19.972994480811167 -1 0 
1 -8.4528301886792576 -19.723270440251582 -1 0 
1 34.92029264535995 -19.972994480811167 0 1 
1 -27.371069182389931 -19.723270440251582 0 1 
1 2.415094339622641 -8.0503144654088032 0 1 
1 -27.371069182389931 -9.2578616352201379 0 1 
1 2.415094339622641 -8.0503144654088032 0 1 
1 -36.480635551142029 -1.878220874928104 0 1 
1 -27.371069182389931 6.8427672955974685 0 1 
1 -36.480635551142029 11.002282269725981 1 0 
1 -27.371069182389931 19.723270440251554 1 0 
1 18.261502813637833 11.002282269725981 0 -1 
1 27.371069182389931 19.723270440251554 0 -1 
1 18.261502813637833 -28.444258610777155 -1 0 
1 27.371069182389931 -19.723270440251582 -1 0 
1 -61.318362810068528 49.901143894305847 0 1 
1 -39.938504542278139 38.149545772187253 0 1 
1 -61.318362810068528 68.01435144147564 1 0 
1 -39.938504542278139 56.262753319357046 1 0 
1 -23.079369099376699 68.01435144147564 0 -1 
1 -1.6995108315863092 56.262753319357046 0 -1 
1 -23.079369099376699 49.901143894305847 1 0 
1 -1.6995108315863092 38.149545772187253 1 0 
1 22.807423353453494 49.901143894305847 0 -1 
1 44.187281621243883 38.149545772187253 0 -1 
1 22.807423353453494 -40.262378118272778 -1 0 
1 44.187281621243883 -52.013976240391372 -1 0 
1 23.091691492883115 -33.274447290022437 0 1 
1 -39.938504542278139 -56.844164919636654 0 1 
1 2.4150943396226552 -9.6603773584905639 0 1 
1 -39.938504542278139 -3.3095737246680983 0 1 
1 2.4150943396226552 -9.6603773584905639 0 1 
1 2.415094339622641 -2.4150943396226694 0 1 
1 -39.938504542278139 16.011180992313029 0 1 
1 2.415094339622641 -8.654088050314499 0 1 
1 -39.938504542278139 20.841369671558311 0 1 
1 -2.415094339622641 -19.924528301886795 1 0 
1 2.415094339622641 19.924528301886795 -1 0 
1 -2.415094339622641 19.924528301886795 0 -1 
1 21.729184888999953 -8.4461660210754275 0 1 
1 -2.415094339622641 -10.666666666666671 0 1 
1 -2.415094339622641 -10.666666666666671 1 0 
1 2.415094339622641 10.666666666666657 -1 0 
1 2.415094339622641 10.465408805031473 -1 0 
1 -2.0125786163521866 10.465408805031473 -1 0 
1 21.729184888999953 17.717355991503183 0 1 
1 -2.415094339622641 -10.46540880503143 0 1 
1 -2.415094339622641 -10.46540880503143 1 0 
1 11.270440251572325 -2.4150943396226694 0 1 
1 11.270440251572325 2.4150943396226126 -1 0 
1 11.06918238993714 -19.723270440251554 -1 0 
1 -11.270440251572325 2.4150943396226126 0 -1 
1 -2.415094339622641 -8.0503144654088032 1 0 
1 2.415094339622641 8.0503144654088032 -1 0 
1 -2.415094339622641 8.0503144654088032 0 -1 
1 -2.4150943396226268 9.6603773584905639 0 -1 
1 18.113207547169793 -4.4276729559748276 0 -1 
1 -2.4150943396226268 -9.6603773584905639 1 0 
1 2.4150943396226552 9.6603773584905639 -1 0 
1 2.415094339622641 8.6540880503144422 -1 0 
1 -2.415094339622641 8.6540880503144422 0 -1 
1 18.113207547169793 17.710691823899396 0 -1 
1 -2.415094339622641 -8.654088050314499 1 0 
1 21.729184888999953 12.887167312257901 0 1 
1 21.729184888999953 38.648173601566086 0 1 
1 21.729184888999953 39.050689324836512 -1 0 
1 -16.509808821691877 39.050689324836512 0 -1 
1 -16.509808821691877 -44.270065392144616 1 0 
1 4.0184930651005288 -44.270065392144616 0 1 
1 4.0184930651005857 -8.4461660210754275 1 0 
1 -49.205493518162086 6.5930432550378839 0 1 
1 -27.97484276729557 6.842767295597497 0 1 
1 -49.205493518162086 19.473546399691969 1 0 
1 -27.97484276729557 19.723270440251582 1 0 
1 6.7441920164291105 19.473546399691969 0 -1 
1 27.974842767295627 19.723270440251582 0 -1 
1 6.7441920164291105 -19.972994480811167 -1 0 
1 27.974842767295627 -19.723270440251554 -1 0 
1 13.024258760107841 -0.46001796945191131 -1 0 
1 -11.471698113207509 -19.723270440251554 -1 0 
1 -3.4788858939802196 -0.46001796945191131 0 1 
1 -27.97484276729557 -19.723270440251554 0 1 
1 2.415094339622641 -8.0503144654088032 0 1 
1 -27.97484276729557 -9.2578616352201095 0 1 
1 18.113207547169793 -28.176100628930811 0 1 
1 18.113207547169793 -4.4276729559748276 0 1 
1 18.113207547169793 17.710691823899396 0 1 
1 18.113207547169793 28.17610062893084 -1 0 
1 -18.113207547169822 28.17610062893084 0 -1 
1 -18.113207547169822 -28.176100628930811 1 0 
1 -2.415094339622641 -8.0503144654088032 1 0 
1 2.415094339622641 8.0503144654088032 -1 0 
1 -2.415094339622641 8.0503144654088032 0 -1 
Curves 113
1 67.622641509433961 142.08805031446542 0 -1 0 0 
1 5.2327044025157239 142.08805031446542 0 0 -1 0 
1 5.2327044025157239 74.465408805031444 0 0 -1 0 
1 0.40251572327044033 49.509433962264154 0 1 0 0 
1 67.622641509433961 49.509433962264154 0 1 0 0 
1 89.358490566037744 44.679245283018872 0 0 1 0 
1 89.358490566037744 59.169811320754718 0 1 0 0 
1 94.188679245283026 59.169811320754718 0 1 0 0 
1 114.31446540880503 59.169811320754718 0 1 0 0 
1 122.36477987421384 59.169811320754718 0 1 0 0 
1 130.01257861635222 54.339622641509436 0 0 1 0 
1 130.01257861635222 120.75471698113208 0 0 1 0 
1 130.01257861635222 142.08805031446542 0 -1 0 0 
1 108.67924528301887 142.08805031446542 0 -1 0 0 
1 89.358490566037744 142.08805031446542 0 -1 0 0 
1 5.2327044025157239 49.509433962264154 0 -1 0 0 
1 0.40251572327044027 49.509433962264154 0 0 1 0 
1 0.40251572327044027 74.465408805031444 0 1 0 0 
1 67.622641509433961 44.679245283018872 0 0 1 0 
1 89.358490566037744 49.509433962264154 0 0 -1 0 
1 89.358490566037744 44.679245283018872 0 -1 0 0 
1 130.01257861635222 59.169811320754718 0 0 -1 0 
1 130.01257861635222 54.339622641509436 0 -1 0 0 
1 122.36477987421384 54.339622641509436 0 -1 0 0 
1 114.31446540880503 54.339622641509436 0 -1 0 0 
1 94.188679245283026 54.339622641509436 0 0 1 0 
1 130.01257861635222 142.08805031446542 0 1 0 0 
1 134.8427672955975 142.08805031446542 0 0 -1 0 
1 134.8427672955975 120.75471698113208 0 -1 0 0 
1 108.67924528301887 142.08805031446542 0 0 1 0 
1 108.67924528301887 146.9182389937107 0 1 0 0 
1 130.01257861635222 146.9182389937107 0 0 -1 0 
1 67.622641509433961 142.08805031446542 0 0 1 0 
1 67.622641509433961 146.9182389937107 0 1 0 0 
1 89.358490566037744 146.9182389937107 0 0 -1 0 
1 67.622641509433961 44.679245283018872 0 -1 0 0 
1 19.320754716981135 44.679245283018872 0 0 -1 0 
1 19.320754716981135 0.80503144654088055 0 1 0 0 
1 89.358490566037744 0.80503144654088055 0 0 1 0 
1 89.358490566037744 4.8301886792452837 0 0 1 0 
1 194.01257861635222 142.08805031446542 0 -1 0 0 
1 134.8427672955975 120.75471698113208 0 0 -1 0 
1 134.8427672955975 59.169811320754718 0 1 0 0 
1 250.76729559748429 59.169811320754718 0 0 1 0 
1 250.76729559748429 90.163522012578625 0 -1 0 0 
1 233.05660377358492 90.163522012578625 0 0 1 0 
1 233.05660377358492 94.993710691823907 0 0 1 0 
1 233.05660377358492 116.32704402515724 0 0 1 0 
1 233.05660377358492 121.15723270440252 0 0 1 0 
1 237.88679245283021 142.08805031446542 0 -1 0 0 
1 216.55345911949686 142.08805031446542 0 -1 0 0 
1 130.01257861635222 146.9182389937107 0 1 0 0 
1 148.93081761006289 146.9182389937107 0 0 1 0 
1 148.93081761006289 157.38364779874215 0 0 1 0 
1 148.93081761006289 173.48427672955975 0 0 1 0 
1 148.93081761006289 186.36477987421384 0 -1 0 0 
1 94.188679245283026 186.36477987421384 0 0 -1 0 
1 94.188679245283026 146.9182389937107 0 1 0 0 
1 89.358490566037744 237.08176100628933 0 0 1 0 
1 89.358490566037744 255.19496855345912 0 -1 0 0 
1 51.119496855345915 255.19496855345912 0 0 -1 0 
1 51.119496855345915 237.08176100628933 0 -1 0 0 
1 5.2327044025157239 237.08176100628933 0 0 -1 0 
1 5.2327044025157239 146.9182389937107 0 1 0 0 
1 89.358490566037744 142.08805031446542 0 0 1 0 
1 89.358490566037744 195.62264150943398 0 0 1 0 
1 89.358490566037744 214.9433962264151 0 0 1 0 
1 89.358490566037744 219.77358490566039 0 0 1 0 
1 94.188679245283026 4.8301886792452837 0 -1 0 0 
1 89.358490566037744 44.679245283018872 0 1 0 0 
1 94.188679245283026 44.679245283018872 0 0 -1 0 
1 237.88679245283021 94.993710691823907 0 0 1 0 
1 237.88679245283021 94.993710691823907 0 -1 0 0 
1 233.05660377358492 116.32704402515724 0 1 0 0 
1 233.05660377358492 142.08805031446542 0 1 0 0 
1 237.48427672955975 142.08805031446542 0 1 0 0 
1 237.88679245283021 121.15723270440252 0 0 1 0 
1 237.88679245283021 121.15723270440252 0 -1 0 0 
1 194.01257861635222 142.08805031446542 0 0 1 0 
1 194.01257861635222 146.9182389937107 0 1 0 0 
1 216.55345911949686 146.9182389937107 0 0 -1 0 
1 153.76100628930817 157.38364779874215 0 -1 0 0 
1 148.93081761006289 173.48427672955975 0 1 0 0 
1 153.76100628930817 173.48427672955975 0 0 -1 0 
1 94.188679245283026 214.9433962264151 0 0 -1 0 
1 94.188679245283026 195.62264150943398 0 -1 0 0 
1 89.358490566037744 214.9433962264151 0 1 0 0 
1 89.358490566037744 237.08176100628933 0 1 0 0 
1 94.188679245283026 237.08176100628933 0 0 -1 0 
1 94.188679245283026 219.77358490566039 0 -1 0 0 
1 237.88679245283021 116.32704402515724 0 0 1 0 
1 237.88679245283021 142.08805031446542 0 0 1 0 
1 237.88679245283021 142.49056603773585 0 1 0 0 
1 276.12578616352204 142.49056603773585 0 0 -1 0 
1 276.12578616352204 59.169811320754718 0 -1 0 0 
1 255.59748427672963 59.169811320754718 0 0 1 0 
1 255.59748427672957 94.993710691823907 0 -1 0 0 
1 233.05660377358492 173.48427672955975 0 0 1 0 
1 233.05660377358492 186.36477987421384 0 -1 0 0 
1 177.10691823899373 186.36477987421384 0 0 -1 0 
1 177.10691823899373 146.9182389937107 0 1 0 0 
1 216.55345911949686 146.9182389937107 0 1 0 0 
1 233.05660377358492 146.9182389937107 0 0 1 0 
1 233.05660377358492 157.38364779874215 0 0 1 0 
1 94.188679245283026 191.19496855345912 0 0 1 0 
1 94.188679245283026 214.9433962264151 0 0 1 0 
1 94.188679245283026 237.08176100628933 0 0 1 0 
1 94.188679245283026 247.54716981132077 0 1 0 0 
1 130.41509433962264 247.54716981132077 0 0 -1 0 
1 130.41509433962264 191.19496855345912 0 -1 0 0 
1 237.88679245283021 157.38364779874215 0 -1 0 0 
1 233.05660377358492 173.48427672955975 0 1 0 0 
1 237.88679245283021 173.48427672955975 0 0 -1 0 
Polygon3D 0
PolygonOnTriangulations 0
Surfaces 52
1 66.732406004682559 96.688977643116189 0 -0 -0 -1 -1 0 0 0 1 -0 
1 28.040127755969216 187.18061711198348 0 -0 -0 -1 -1 0 0 0 1 -0 
1 2.817610062893082 61.987421383647799 0 -0 -0 -1 -1 0 0 0 1 -0 
1 2.817610062893082 61.987421383647799 0 -0 -0 -1 -1 0 0 0 1 -0 
1 40.664999621126 20.776843221944389 0 -0 -0 -1 -1 0 0 0 1 -0 
1 78.490566037735846 47.09433962264152 0 -0 -0 -1 -1 0 0 0 1 -0 
1 78.490566037735846 47.09433962264152 0 -0 -0 -1 -1 0 0 0 1 -0 
1 91.773584905660385 51.924528301886788 0 -0 -0 -1 -1 0 0 0 1 -0 
1 112.10062893081765 56.754716981132084 0 -0 -0 -1 -1 0 0 0 1 -0 
1 112.10062893081765 56.754716981132084 0 -0 -0 -1 -1 0 0 0 1 -0 
1 189.83829260748533 71.591710485617071 0 -0 -0 -1 -1 0 0 0 1 -0 
1 132.42767295597486 131.42138364779876 0 -0 -0 -1 -1 0 0 0 1 -0 
1 132.42767295597486 131.42138364779876 0 -0 -0 -1 -1 0 0 0 1 -0 
1 119.34591194968556 144.50314465408806 0 -0 -0 -1 -1 0 0 0 1 -0 
1 119.34591194968556 144.50314465408806 0 -0 -0 -1 -1 0 0 0 1 -0 
1 112.45018205892086 175.36249760448786 0 -0 -0 -1 -1 0 0 0 1 -0 
1 78.490566037735846 144.50314465408806 0 -0 -0 -1 -1 0 0 0 1 -0 
1 78.490566037735846 144.50314465408806 0 -0 -0 -1 -1 0 0 0 1 -0 
1 54.893607171717449 22.987575325300252 0 -0 -0 -1 -1 0 0 0 1 -0 
1 132.42767295597486 131.42138364779876 0 -0 -0 -1 -1 0 0 0 1 -0 
1 190.52945450900805 98.353353880077179 0 -0 -0 -1 -1 0 0 0 1 -0 
1 119.34591194968556 144.50314465408806 0 -0 -0 -1 -1 0 0 0 1 -0 
1 121.55974842767296 166.64150943396228 0 -0 -0 -1 -1 0 0 0 1 -0 
1 78.490566037735846 144.50314465408806 0 -0 -0 -1 -1 0 0 0 1 -0 
1 49.419986023759606 198.93221523410207 0 -0 -0 -1 -1 0 0 0 1 -0 
1 40.664999621126 20.776843221944389 0 -0 -0 -1 -1 0 0 0 1 -0 
1 91.773584905660385 24.754716981132077 0 -0 -0 -1 -1 0 0 0 1 -0 
1 91.773584905660385 24.754716981132077 0 -0 -0 -1 -1 0 0 0 1 -0 
1 183.85111025542284 166.89123347452187 0 -0 -0 -1 -1 0 0 0 1 -0 
1 189.83829260748533 71.591710485617071 0 -0 -0 -1 -1 0 0 0 1 -0 
1 235.47169811320757 105.66037735849058 0 -0 -0 -1 -1 0 0 0 1 -0 
1 235.47169811320757 105.66037735849058 0 -0 -0 -1 -1 0 0 0 1 -0 
1 235.47169811320754 118.74213836477989 0 -0 -0 -1 -1 0 0 0 1 -0 
1 235.47169811320757 131.62264150943395 0 -0 -0 -1 -1 0 0 0 1 -0 
1 229.57771787960471 147.37825696316261 0 -0 -0 -1 -1 0 0 0 1 -0 
1 205.28301886792454 144.50314465408809 0 -0 -0 -1 -1 0 0 0 1 -0 
1 183.85111025542284 166.89123347452187 0 -0 -0 -1 -1 0 0 0 1 -0 
1 151.34591194968553 165.43396226415095 0 -0 -0 -1 -1 0 0 0 1 -0 
1 151.34591194968553 165.43396226415095 0 -0 -0 -1 -1 0 0 0 1 -0 
1 112.45018205892086 175.36249760448786 0 -0 -0 -1 -1 0 0 0 1 -0 
1 28.040127755969216 187.18061711198348 0 -0 -0 -1 -1 0 0 0 1 -0 
1 112.45018205892086 175.36249760448786 0 -0 -0 -1 -1 0 0 0 1 -0 
1 91.7735849056604 205.28301886792454 0 -0 -0 -1 -1 0 0 0 1 -0 
1 91.7735849056604 205.28301886792454 0 -0 -0 -1 -1 0 0 0 1 -0 
1 91.773584905660385 217.35849056603777 0 -0 -0 -1 -1 0 0 0 1 -0 
1 91.773584905660385 228.42767295597488 0 -0 -0 -1 -1 0 0 0 1 -0 
1 259.61597734183016 103.43987671289933 0 -0 -0 -1 -1 0 0 0 1 -0 
1 205.08176100628936 166.64150943396226 0 -0 -0 -1 -1 0 0 0 1 -0 
1 112.30188679245282 219.37106918238993 0 -0 -0 -1 -1 0 0 0 1 -0 
1 183.85111025542284 166.89123347452187 0 -0 -0 -1 -1 0 0 0 1 -0 
1 229.57771787960471 147.37825696316261 0 -0 -0 -1 -1 0 0 0 1 -0 
1 235.47169811320757 165.43396226415095 0 -0 -0 -1 -1 0 0 0 1 -0 
Triangulations 0

TShapes 248
Ve
1e-07
67.622641509434 142.088050314465 0
0 0

0101101
*
Ve
1e-07
5.23270440251572 142.088050314465 0
0 0

0101101
*
Ed
 1e-07 1 1 0
1  1 0 0 62.3899371069182
2  1 2 0 0 62.3899371069182
2  2 1 0 0 62.3899371069182
0

0101000
+248 0 -247 0 *
Ve
1e-07
5.23270440251572 74.4654088050314 0
0 0

0101101
*
Ed
 1e-07 1 1 0
1  2 0 0 67.622641509434
2  3 2 0 0 67.622641509434
2  4 1 0 0 67.622641509434
0

0101000
+247 0 -245 0 *
Ve
1.00000042632564e-07
5.23270440251572 49.5094339622642 0
0 0

0101101
*
Ed
 1e-07 1 1 0
1  3 0 0 24.9559748427673
2  5 3 0 0 24.9559748427673
2  6 1 0 0 24.9559748427673
2  7 4 0 0 24.9559748427673
0

0101000
+245 0 -243 0 *
Ve
1e-07
67.622641509434 49.5094339622642 0
0 0

0101101
*
Ed
 1e-07 1 1 0
1  4 0 4.83018867924528 67.2201257861635
2  8 5 0 4.83018867924528 67.2201257861635
2  9 1 0 4.83018867924528 67.2201257861635
0

0101000
+243 0 -241 0 *
Ve
1.00000042632564e-07
89.3584905660377 49.5094339622642 0
0 0

0101101
*
Ed
 1e-07 1 1 0
1  5 0 0 21.7358490566038
2  10 6 0 0 21.7358490566038
2  11 1 0 0 21.7358490566038
2  12 7 0 0 21.7358490566038
0

0101000
+241 0 -239 0 *
Ve
1e-07
89.3584905660377 59.1698113207547 0
0 0

0101101
*
Ed
 1e-07 1 1 0
1  6 0 4.83018867924532 14.4905660377358
2  13 8 0 4.83018867924532 14.4905660377358
2  14 1 0 4.83018867924532 14.4905660377358
0

0101000
+239 0 -237 0 *
Ve
1e-07
94.188679245283 59.1698113207547 0
0 0

0101101
*
Ed
 1e-07 1 1 0
1  7 0 0 4.83018867924528
2  15 8 0 0 4.83018867924528
2  16 1 0 0 4.83018867924528
0

0101000
+237 0 -235 0 *
Ve
1e-07
114.314465408805 59.1698113207547 0
0 0

0101101
*
Ed
 1e-07 1 1 0
1  8 0 0 20.125786163522
2  17 9 0 0 20.125786163522
2  18 1 0 0 20.125786163522
2  19 10 0 0 20.125786163522
0

0101000
+235 0 -233 0 *
Ve
1e-07
122.364779874214 59.1698113207547 0
0 0

0101101
*
Ed
 1e-07 1 1 0
1  9 0 0 8.0503144654088
2  20 9 0 0 8.0503144654088
2  21 1 0 0 8.0503144654088
2  22 10 0 0 8.0503144654088
0

0101000
+233 0 -231 0 *
Ve
1.00000227373675e-07
130.012578616352 59.1698113207547 0
0 0

0101101
*
Ed
 1e-07 1 1 0
1  10 0 0 7.64779874213838
2  23 9 0 0 7.64779874213838
2  24 1 0 0 7.64779874213838
2  25 10 0 0 7.64779874213838
0

0101000
+231 0 -229 0 *
Ve
1e-07
130.012578616352 120.754716981132 0
0 0

0101101
*
Ed
 1e-07 1 1 0
1  11 0 4.83018867924526 66.4150943396226
2  26 11 0 4.83018867924526 66.4150943396226
2  27 1 0 4.83018867924526 66.4150943396226
0

0101000
+229 0 -227 0 *
Ve
1e-07
130.012578616352 142.088050314465 0
0 0

0101101
*
Ed
 1e-07 1 1 0
1  12 0 0 21.3333333333333
2  28 12 0 0 21.3333333333333
2  29 1 0 0 21.3333333333333
2  30 13 0 0 21.3333333333333
0

0101000
+227 0 -225 0 *
Ve
1e-07
108.679245283019 142.088050314465 0
0 0

0101101
*
Ed
 1e-07 1 1 0
1  13 0 0 21.3333333333333
2  31 14 0 0 21.3333333333333
2  32 1 0 0 21.3333333333333
2  33 15 0 0 21.3333333333333
0

0101000
+225 0 -223 0 *
Ve
1e-07
89.3584905660377 142.088050314465 0
0 0

0101101
*
Ed
 1e-07 1 1 0
1  14 0 0 19.3207547169811
2  34 16 0 0 19.3207547169811
2  35 1 0 0 19.3207547169811
0

0101000
+223 0 -221 0 *
Ed
 1e-07 1 1 0
1  15 0 0 21.7358490566038
2  36 17 0 0 21.7358490566038
2  37 1 0 0 21.7358490566038
2  38 18 0 0 21.7358490566038
0

0101000
+221 0 -248 0 *
Wi

0101100
-246 0 -244 0 -242 0 -240 0 -238 0 -236 0 -234 0 -232 0 -230 0 -228 0 
-226 0 -224 0 -222 0 -220 0 -219 0 *
Fa
0  1e-07 1 0

0101000
+218 0 *
Ve
1e-07
0.40251572327044 49.5094339622642 0
0 0

0101101
*
Ed
 1e-07 1 1 0
1  16 0 0 4.83018867924528
2  39 4 0 0 4.83018867924528
0

0101000
+243 0 -216 0 *
Ve
1e-07
0.40251572327044 74.4654088050314 0
0 0

0101101
*
Ed
 1e-07 1 1 0
1  17 0 0 24.9559748427673
2  40 4 0 0 24.9559748427673
0

0101000
+216 0 -214 0 *
Ed
 1e-07 1 1 0
1  18 0 0 4.83018867924528
2  41 4 0 0 4.83018867924528
0

0101000
+214 0 -245 0 *
Wi

0101100
+215 0 +213 0 +212 0 +242 0 *
Fa
0  1e-07 4 0

0111000
+211 0 *
Ve
1e-07
67.622641509434 44.6792452830189 0
0 0

0101101
*
Ed
 1e-07 1 1 0
1  19 0 0 4.83018867924528
2  42 7 0 0 4.83018867924528
0

0101000
+209 0 -241 0 *
Ve
1e-07
89.3584905660377 44.6792452830189 0
0 0

0101101
*
Ed
 1e-07 1 1 0
1  20 0 0 4.83018867924528
2  43 7 0 0 4.83018867924528
0

0101000
+239 0 -207 0 *
Ed
 1e-07 1 1 0
1  21 0 0 21.7358490566038
2  44 7 0 0 21.7358490566038
2  45 19 0 0 21.7358490566038
0

0101000
+207 0 -209 0 *
Wi

0101100
+208 0 +238 0 +206 0 +205 0 *
Fa
0  1e-07 7 0

0111000
+204 0 *
Ve
1e-07
130.012578616352 54.3396226415094 0
0 0

0101101
*
Ed
 1e-07 1 1 0
1  22 0 0 4.83018867924528
2  46 10 0 0 4.83018867924528
0

0101000
+229 0 -202 0 *
Ve
1e-07
122.364779874214 54.3396226415094 0
0 0

0101101
*
Ed
 1e-07 1 1 0
1  23 0 0 7.64779874213838
2  47 10 0 0 7.64779874213838
0

0101000
+202 0 -200 0 *
Ve
1e-07
114.314465408805 54.3396226415094 0
0 0

0101101
*
Ed
 1e-07 1 1 0
1  24 0 0 8.0503144654088
2  48 10 0 0 8.0503144654088
0

0101000
+200 0 -198 0 *
Ve
1e-07
94.188679245283 54.3396226415094 0
0 0

0101101
*
Ed
 1e-07 1 1 0
1  25 0 0 20.125786163522
2  49 10 0 0 20.125786163522
0

0101000
+198 0 -196 0 *
Ed
 1e-07 1 1 0
1  26 0 0 4.83018867924528
2  50 10 0 0 4.83018867924528
0

0101000
+196 0 -235 0 *
Wi

0101100
+230 0 +228 0 +201 0 +199 0 +197 0 +195 0 +194 0 +232 0 *
Fa
0  1e-07 10 0

0111000
+193 0 *
Ve
1.00000426325641e-07
134.842767295597 142.088050314465 0
0 0

0101101
*
Ed
 1e-07 1 1 0
1  27 0 0 4.83018867924528
2  51 13 0 0 4.83018867924528
0

0101000
+225 0 -191 0 *
Ve
1e-07
134.842767295597 120.754716981132 0
0 0

0101101
*
Ed
 1e-07 1 1 0
1  28 0 0 21.3333333333333
2  52 20 0 0 21.3333333333333
2  53 21 0 0 21.3333333333333
2  54 13 0 0 21.3333333333333
0

0101000
+191 0 -189 0 *
Ed
 1e-07 1 1 0
1  29 0 0 4.83018867924528
2  55 13 0 0 4.83018867924528
0

0101000
+189 0 -227 0 *
Wi

0101100
+190 0 +188 0 +187 0 +224 0 *
Fa
0  1e-07 13 0

0111000
+186 0 *
Ve
1e-07
108.679245283019 146.918238993711 0
0 0

0101101
*
Ed
 1e-07 1 1 0
1  30 0 0 4.83018867924528
2  56 15 0 0 4.83018867924528
0

0101000
+223 0 -184 0 *
Ve
1e-07
130.012578616352 146.918238993711 0
0 0

0101101
*
Ed
 1e-07 1 1 0
1  31 0 0 21.3333333333333
2  57 22 0 0 21.3333333333333
2  58 23 0 0 21.3333333333333
2  59 15 0 0 21.3333333333333
0

0101000
+184 0 -182 0 *
Ed
 1e-07 1 1 0
1  32 0 0 4.83018867924528
2  60 15 0 0 4.83018867924528
0

0101000
+182 0 -225 0 *
Wi

0101100
+183 0 +181 0 +180 0 +222 0 *
Fa
0  1e-07 15 0

0111000
+179 0 *
Ve
1e-07
67.622641509434 146.918238993711 0
0 0

0101101
*
Ed
 1e-07 1 1 0
1  33 0 0 4.83018867924528
2  61 18 0 0 4.83018867924528
0

0101000
+248 0 -177 0 *
Ve
1.00000042632564e-07
89.3584905660377 146.918238993711 0
0 0

0101101
*
Ed
 1e-07 1 1 0
1  34 0 0 21.7358490566038
2  62 24 0 0 21.7358490566038
2  63 25 0 0 21.7358490566038
2  64 18 0 0 21.7358490566038
0

0101000
+177 0 -175 0 *
Ed
 1e-07 1 1 0
1  35 0 0 4.83018867924528
2  65 18 0 0 4.83018867924528
0

0101000
+175 0 -221 0 *
Wi

0101100
+176 0 +174 0 +173 0 +219 0 *
Fa
0  1e-07 18 0

0111000
+172 0 *
Ve
1e-07
19.3207547169811 44.6792452830189 0
0 0

0101101
*
Ed
 1e-07 1 1 0
1  36 0 0 48.3018867924528
2  66 26 0 0 48.3018867924528
2  67 19 0 0 48.3018867924528
0

0101000
+209 0 -170 0 *
Ve
1e-07
19.3207547169811 0.805031446540881 0
0 0

0101101
*
Ed
 1e-07 1 1 0
1  37 0 0 43.874213836478
2  68 26 0 0 43.874213836478
2  69 19 0 0 43.874213836478
0

0101000
+170 0 -168 0 *
Ve
1e-07
89.3584905660377 0.805031446540881 0
0 0

0101101
*
Ed
 1e-07 1 1 0
1  38 0 0 70.0377358490566
2  70 26 0 0 70.0377358490566
2  71 19 0 0 70.0377358490566
0

0101000
+168 0 -166 0 *
Ve
1e-07
89.3584905660377 4.83018867924528 0
0 0

0101101
*
Ed
 1e-07 1 1 0
1  39 0 0 4.0251572327044
2  72 26 0 0 4.0251572327044
2  73 19 0 0 4.0251572327044
0

0101000
+166 0 -164 0 *
Ed
 1e-07 1 1 0
1  40 0 0 39.8490566037736
2  74 27 0 0 39.8490566037736
2  75 19 0 0 39.8490566037736
2  76 28 0 0 39.8490566037736
0

0101000
+164 0 -207 0 *
Wi

0101100
-169 0 -167 0 -165 0 -163 0 -162 0 -205 0 *
Fa
0  1e-07 19 0

0101000
+161 0 *
Ve
1e-07
194.012578616352 142.088050314465 0
0 0

0101101
*
Ed
 1e-07 1 1 0
1  41 0 0 59.1698113207552
2  77 29 0 0 59.1698113207552
2  78 21 0 0 59.1698113207552
0

0101000
+159 0 -191 0 *
Ve
1e-07
134.842767295597 59.1698113207547 0
0 0

0101101
*
Ed
 1e-07 1 1 0
1  42 0 0 61.5849056603774
2  79 30 0 0 61.5849056603774
2  80 21 0 0 61.5849056603774
0

0101000
+189 0 -157 0 *
Ve
1e-07
250.767295597484 59.1698113207547 0
0 0

0101101
*
Ed
 1e-07 1 1 0
1  43 0 0 115.924528301887
2  81 30 0 0 115.924528301887
2  82 21 0 0 115.924528301887
0

0101000
+157 0 -155 0 *
Ve
1e-07
250.767295597484 90.1635220125786 0
0 0

0101101
*
Ed
 1e-07 1 1 0
1  44 0 0 30.9937106918239
2  83 30 0 0 30.9937106918239
2  84 21 0 0 30.9937106918239
0

0101000
+155 0 -153 0 *
Ve
1e-07
233.056603773585 90.1635220125786 0
0 0

0101101
*
Ed
 1e-07 1 1 0
1  45 0 0 17.7106918238994
2  85 30 0 0 17.7106918238994
2  86 21 0 0 17.7106918238994
0

0101000
+153 0 -151 0 *
Ve
1e-07
233.056603773585 94.9937106918239 0
0 0

0101101
*
Ed
 1e-07 1 1 0
1  46 0 0 4.83018867924528
2  87 30 0 0 4.83018867924528
2  88 21 0 0 4.83018867924528
0

0101000
+151 0 -149 0 *
Ve
1e-07
233.056603773585 116.327044025157 0
0 0

0101101
*
Ed
 1e-07 1 1 0
1  47 0 0 21.3333333333333
2  89 31 0 0 21.3333333333333
2  90 21 0 0 21.3333333333333
2  91 32 0 0 21.3333333333333
0

0101000
+149 0 -147 0 *
Ve
1e-07
233.056603773585 121.157232704403 0
0 0

0101101
*
Ed
 1e-07 1 1 0
1  48 0 0 4.83018867924528
2  92 33 0 0 4.83018867924528
2  93 21 0 0 4.83018867924528
0

0101000
+147 0 -145 0 *
Ve
1.00000426325641e-07
233.056603773585 142.088050314465 0
0 0

0101101
*
Ed
 1e-07 1 1 0
1  49 0 0 20.9308176100629
2  94 34 0 0 20.9308176100629
2  95 21 0 0 20.9308176100629
0

0101000
+145 0 -143 0 *
Ve
1e-07
216.553459119497 142.088050314465 0
0 0

0101101
*
Ed
 1e-07 1 1 0
1  50 0 4.8301886792452 21.3333333333333
2  96 35 0 4.8301886792452 21.3333333333333
2  97 21 0 4.8301886792452 21.3333333333333
0

0101000
+143 0 -141 0 *
Ed
 1e-07 1 1 0
1  51 0 0 22.5408805031446
2  98 36 0 0 22.5408805031446
2  99 21 0 0 22.5408805031446
0

0101000
+141 0 -159 0 *
Wi

0101100
-158 0 -188 0 -156 0 -154 0 -152 0 -150 0 -148 0 -146 0 -144 0 -142 0 
-140 0 -139 0 *
Fa
0  1e-07 21 0

0101000
+138 0 *
Ve
1e-07
148.930817610063 146.918238993711 0
0 0

0101101
*
Ed
 1e-07 1 1 0
1  52 0 0 18.9182389937107
2  100 37 0 0 18.9182389937107
2  101 23 0 0 18.9182389937107
0

0101000
+182 0 -136 0 *
Ve
1e-07
148.930817610063 157.383647798742 0
0 0

0101101
*
Ed
 1e-07 1 1 0
1  53 0 0 10.4654088050314
2  102 37 0 0 10.4654088050314
2  103 23 0 0 10.4654088050314
0

0101000
+136 0 -134 0 *
Ve
1e-07
148.930817610063 173.48427672956 0
0 0

0101101
*
Ed
 1e-07 1 1 0
1  54 0 0 16.1006289308176
2  104 38 0 0 16.1006289308176
2  105 23 0 0 16.1006289308176
2  106 39 0 0 16.1006289308176
0

0101000
+134 0 -132 0 *
Ve
1e-07
148.930817610063 186.364779874214 0
0 0

0101101
*
Ed
 1e-07 1 1 0
1  55 0 0 12.8805031446541
2  107 40 0 0 12.8805031446541
2  108 23 0 0 12.8805031446541
0

0101000
+132 0 -130 0 *
Ve
1e-07
94.188679245283 186.364779874214 0
0 0

0101101
*
Ed
 1e-07 1 1 0
1  56 0 0 54.7421383647799
2  109 40 0 0 54.7421383647799
2  110 23 0 0 54.7421383647799
0

0101000
+130 0 -128 0 *
Ve
1e-07
94.188679245283 146.918238993711 0
0 0

0101101
*
Ed
 1e-07 1 1 0
1  57 0 0 39.4465408805031
2  111 40 0 0 39.4465408805031
2  112 23 0 0 39.4465408805031
0

0101000
+128 0 -126 0 *
Ed
 1e-07 1 1 0
1  58 0 0 14.4905660377358
2  113 40 0 0 14.4905660377358
2  114 23 0 0 14.4905660377358
0

0101000
+126 0 -184 0 *
Wi

0101100
-181 0 -135 0 -133 0 -131 0 -129 0 -127 0 -125 0 -124 0 *
Fa
0  1e-07 23 0

0101000
+123 0 *
Ve
1e-07
89.3584905660377 237.081761006289 0
0 0

0101101
*
Ve
1e-07
89.3584905660377 255.194968553459 0
0 0

0101101
*
Ed
 1e-07 1 1 0
1  59 0 0 18.1132075471698
2  115 41 0 0 18.1132075471698
2  116 25 0 0 18.1132075471698
0

0101000
+121 0 -120 0 *
Ve
1e-07
51.1194968553459 255.194968553459 0
0 0

0101101
*
Ed
 1e-07 1 1 0
1  60 0 0 38.2389937106918
2  117 41 0 0 38.2389937106918
2  118 25 0 0 38.2389937106918
0

0101000
+120 0 -118 0 *
Ve
1e-07
51.1194968553459 237.081761006289 0
0 0

0101101
*
Ed
 1e-07 1 1 0
1  61 0 0 18.1132075471698
2  119 41 0 0 18.1132075471698
2  120 25 0 0 18.1132075471698
0

0101000
+118 0 -116 0 *
Ve
1e-07
5.23270440251572 237.081761006289 0
0 0

0101101
*
Ed
 1e-07 1 1 0
1  62 0 0 45.8867924528302
2  121 41 0 0 45.8867924528302
2  122 25 0 0 45.8867924528302
0

0101000
+116 0 -114 0 *
Ve
1e-07
5.23270440251572 146.918238993711 0
0 0

0101101
*
Ed
 1e-07 1 1 0
1  63 0 0 90.1635220125786
2  123 41 0 0 90.1635220125786
2  124 25 0 0 90.1635220125786
0

0101000
+114 0 -112 0 *
Ed
 1e-07 1 1 0
1  64 0 0 62.3899371069182
2  125 41 0 0 62.3899371069182
2  126 25 0 0 62.3899371069182
0

0101000
+112 0 -177 0 *
Ve
1e-07
89.3584905660377 195.622641509434 0
0 0

0101101
*
Ed
 1e-07 1 1 0
1  65 0 4.83018867924557 53.5345911949686
2  127 42 0 4.83018867924557 53.5345911949686
2  128 25 0 4.83018867924557 53.5345911949686
0

0101000
+175 0 -109 0 *
Ve
1e-07
89.3584905660377 214.943396226415 0
0 0

0101101
*
Ed
 1e-07 1 1 0
1  66 0 0 19.3207547169811
2  129 43 0 0 19.3207547169811
2  130 25 0 0 19.3207547169811
2  131 44 0 0 19.3207547169811
0

0101000
+109 0 -107 0 *
Ve
1e-07
89.3584905660377 219.77358490566 0
0 0

0101101
*
Ed
 1e-07 1 1 0
1  67 0 0 4.83018867924528
2  132 45 0 0 4.83018867924528
2  133 25 0 0 4.83018867924528
0

0101000
+107 0 -105 0 *
Ed
 1e-07 1 1 0
1  68 0 0 17.3081761006289
2  134 46 0 0 17.3081761006289
2  135 25 0 0 17.3081761006289
0

0101000
+105 0 -121 0 *
Wi

0101100
-119 0 -117 0 -115 0 -113 0 -111 0 -110 0 -174 0 -108 0 -106 0 -104 0 
-103 0 *
Fa
0  1e-07 25 0

0101000
+102 0 *
Ve
1e-07
94.188679245283 4.83018867924528 0
0 0

0101101
*
Ed
 1e-07 1 1 0
1  69 0 0 4.83018867924528
2  136 28 0 0 4.83018867924528
0

0101000
+100 0 -164 0 *
Ve
1e-07
94.188679245283 44.6792452830189 0
0 0

0101101
*
Ed
 1e-07 1 1 0
1  70 0 0 4.83018867924528
2  137 28 0 0 4.83018867924528
0

0101000
+207 0 -98 0 *
Ed
 1e-07 1 1 0
1  71 0 0 39.8490566037736
2  138 28 0 0 39.8490566037736
0

0101000
+98 0 -100 0 *
Wi

0101100
+99 0 +162 0 +97 0 +96 0 *
Fa
0  1e-07 28 0

0111000
+95 0 *
Ve
1.00000099475983e-07
237.88679245283 94.9937106918239 0
0 0

0101101
*
Ve
1.00000211259543e-07
237.88679245283 116.327044025157 0
0 0

0101101
*
Ed
 1e-07 1 1 0
1  72 0 0 21.3333333333333
2  139 47 0 0 21.3333333333333
2  140 32 0 0 21.3333333333333
0

0101000
+93 0 -92 0 *
Ed
 1e-07 1 1 0
1  73 0 0 4.83018867924528
2  141 32 0 0 4.83018867924528
0

0101000
+93 0 -149 0 *
Ed
 1e-07 1 1 0
1  74 0 0 4.83018867924528
2  142 32 0 0 4.83018867924528
0

0101000
+147 0 -92 0 *
Wi

0101100
-91 0 +90 0 +146 0 +89 0 *
Fa
0  1e-07 32 0

0111000
+88 0 *
Ve
1e-07
237.48427672956 142.088050314465 0
0 0

0101101
*
Ed
 1e-07 1 1 0
1  75 0 0 4.42767295597483
2  143 34 0 0 4.42767295597483
0

0101000
+143 0 -86 0 *
Ve
1.00000317764372e-07
237.88679245283 142.088050314465 0
0 0

0101101
*
Ed
 1e-07 1 1 0
1  76 0 0 0.402515723270454
2  144 34 0 0 0.402515723270454
0

0101000
+86 0 -84 0 *
Ve
1.00000343420822e-07
237.88679245283 121.157232704403 0
0 0

0101101
*
Ed
 1e-07 1 1 0
1  77 0 0 20.9308176100629
2  145 47 0 0 20.9308176100629
2  146 34 0 0 20.9308176100629
0

0101000
+82 0 -84 0 *
Ed
 1e-07 1 1 0
1  78 0 0 4.83018867924528
2  147 34 0 0 4.83018867924528
0

0101000
+82 0 -145 0 *
Wi

0101100
+142 0 +85 0 +83 0 -81 0 +80 0 *
Fa
0  1e-07 34 0

0111000
+79 0 *
Ve
1e-07
194.012578616352 146.918238993711 0
0 0

0101101
*
Ed
 1e-07 1 1 0
1  79 0 0 4.83018867924528
2  148 36 0 0 4.83018867924528
0

0101000
+159 0 -77 0 *
Ve
1e-07
216.553459119497 146.918238993711 0
0 0

0101101
*
Ed
 1e-07 1 1 0
1  80 0 0 22.5408805031446
2  149 36 0 0 22.5408805031446
2  150 48 0 0 22.5408805031446
0

0101000
+77 0 -75 0 *
Ed
 1e-07 1 1 0
1  81 0 0 4.83018867924528
2  151 36 0 0 4.83018867924528
0

0101000
+75 0 -141 0 *
Wi

0101100
+76 0 +74 0 +73 0 +139 0 *
Fa
0  1e-07 36 0

0111000
+72 0 *
Ve
1e-07
153.761006289308 157.383647798742 0
0 0

0101101
*
Ed
 1e-07 1 1 0
1  82 0 0 4.83018867924528
2  152 39 0 0 4.83018867924528
0

0101000
+70 0 -134 0 *
Ve
1e-07
153.761006289308 173.48427672956 0
0 0

0101101
*
Ed
 1e-07 1 1 0
1  83 0 0 4.83018867924528
2  153 39 0 0 4.83018867924528
0

0101000
+132 0 -68 0 *
Ed
 1e-07 1 1 0
1  84 0 0 16.1006289308176
2  154 39 0 0 16.1006289308176
0

0101000
+68 0 -70 0 *
Wi

0101100
+69 0 +131 0 +67 0 +66 0 *
Fa
0  1e-07 39 0

0111000
+65 0 *
Ve
1.00000058592855e-07
94.188679245283 214.943396226415 0
0 0

0101101
*
Ve
1.00000031776437e-07
94.188679245283 195.622641509434 0
0 0

0101101
*
Ed
 1e-07 1 1 0
1  85 0 0 19.3207547169811
2  155 44 0 0 19.3207547169811
2  156 49 0 0 19.3207547169811
0

0101000
+63 0 -62 0 *
Ed
 1e-07 1 1 0
1  86 0 0 4.83018867924528
2  157 44 0 0 4.83018867924528
0

0101000
+62 0 -109 0 *
Ed
 1e-07 1 1 0
1  87 0 0 4.83018867924528
2  158 44 0 0 4.83018867924528
0

0101000
+107 0 -63 0 *
Wi

0101100
+61 0 +60 0 +106 0 +59 0 *
Fa
0  1e-07 44 0

0111000
+58 0 *
Ve
1.00000227817332e-07
94.188679245283 237.081761006289 0
0 0

0101101
*
Ed
 1e-07 1 1 0
1  88 0 0 4.83018867924528
2  159 46 0 0 4.83018867924528
0

0101000
+121 0 -56 0 *
Ve
1.00000284572144e-07
94.188679245283 219.77358490566 0
0 0

0101101
*
Ed
 1e-07 1 1 0
1  89 0 0 17.3081761006289
2  160 46 0 0 17.3081761006289
2  161 49 0 0 17.3081761006289
0

0101000
+56 0 -54 0 *
Ed
 1e-07 1 1 0
1  90 0 0 4.83018867924528
2  162 46 0 0 4.83018867924528
0

0101000
+54 0 -105 0 *
Wi

0101100
+103 0 +55 0 +53 0 +52 0 *
Fa
0  1e-07 46 0

0111000
+51 0 *
Ed
 1e-07 1 1 0
1  91 0 0 4.83018867924528
2  163 47 0 0 4.83018867924528
0

0101000
+92 0 -82 0 *
Ve
1e-07
237.88679245283 142.490566037736 0
0 0

0101101
*
Ed
 1e-07 1 1 0
1  92 0 0 0.402515723270426
2  164 47 0 0 0.402515723270426
0

0101000
+84 0 -48 0 *
Ve
1e-07
276.125786163522 142.490566037736 0
0 0

0101101
*
Ed
 1e-07 1 1 0
1  93 0 0 38.2389937106918
2  165 47 0 0 38.2389937106918
0

0101000
+48 0 -46 0 *
Ve
1e-07
276.125786163522 59.1698113207547 0
0 0

0101101
*
Ed
 1e-07 1 1 0
1  94 0 0 83.3207547169811
2  166 47 0 0 83.3207547169811
0

0101000
+46 0 -44 0 *
Ve
1.00000056843419e-07
255.59748427673 59.1698113207547 0
0 0

0101101
*
Ed
 1e-07 1 1 0
1  95 0 0 20.5283018867924
2  167 47 0 0 20.5283018867924
0

0101000
+44 0 -42 0 *
Ve
1.00000213162821e-07
255.59748427673 94.9937106918239 0
0 0

0101101
*
Ed
 1.00000056843419e-07 1 1 0
1  96 0 0 35.8238993710692
2  168 47 0 0 35.8238993710692
0

0101000
+42 0 -40 0 *
Ed
 1e-07 1 1 0
1  97 0 0 17.7106918238994
2  169 47 0 0 17.7106918238994
0

0101000
+40 0 -93 0 *
Wi

0101100
+91 0 +49 0 +81 0 +47 0 +45 0 +43 0 +41 0 +39 0 +38 0 *
Fa
0  1e-07 47 0

0111000
+37 0 *
Ve
1e-07
233.056603773585 173.48427672956 0
0 0

0101101
*
Ve
1e-07
233.056603773585 186.364779874214 0
0 0

0101101
*
Ed
 1e-07 1 1 0
1  98 0 0 12.8805031446541
2  170 50 0 0 12.8805031446541
2  171 48 0 0 12.8805031446541
0

0101000
+35 0 -34 0 *
Ve
1e-07
177.106918238994 186.364779874214 0
0 0

0101101
*
Ed
 1e-07 1 1 0
1  99 0 0 55.9496855345912
2  172 50 0 0 55.9496855345912
2  173 48 0 0 55.9496855345912
0

0101000
+34 0 -32 0 *
Ve
1e-07
177.106918238994 146.918238993711 0
0 0

0101101
*
Ed
 1e-07 1 1 0
1  100 0 0 39.4465408805031
2  174 50 0 0 39.4465408805031
2  175 48 0 0 39.4465408805031
0

0101000
+32 0 -30 0 *
Ed
 1e-07 1 1 0
1  101 0 0 16.9056603773585
2  176 50 0 0 16.9056603773585
2  177 48 0 0 16.9056603773585
0

0101000
+30 0 -77 0 *
Ve
1e-07
233.056603773585 146.918238993711 0
0 0

0101101
*
Ed
 1e-07 1 1 0
1  102 0 0 16.5031446540881
2  178 51 0 0 16.5031446540881
2  179 48 0 0 16.5031446540881
0

0101000
+75 0 -27 0 *
Ve
1e-07
233.056603773585 157.383647798742 0
0 0

0101101
*
Ed
 1e-07 1 1 0
1  103 0 0 10.4654088050314
2  180 51 0 0 10.4654088050314
2  181 48 0 0 10.4654088050314
0

0101000
+27 0 -25 0 *
Ed
 1e-07 1 1 0
1  104 0 0 16.1006289308176
2  182 52 0 0 16.1006289308176
2  183 48 0 0 16.1006289308176
0

0101000
+25 0 -35 0 *
Wi

0101100
-33 0 -31 0 -29 0 -28 0 -74 0 -26 0 -24 0 -23 0 *
Fa
0  1e-07 48 0

0101000
+22 0 *
Ve
1.00000058592855e-07
94.188679245283 191.194968553459 0
0 0

0101101
*
Ed
 1e-07 1 1 0
1  105 0 0 4.42767295597486
2  184 49 0 0 4.42767295597486
0

0101000
+20 0 -62 0 *
Ed
 1e-07 1 1 0
1  106 0 0 4.83018867924528
2  185 49 0 0 4.83018867924528
0

0101000
+63 0 -54 0 *
Ve
1e-07
94.188679245283 247.547169811321 0
0 0

0101101
*
Ed
 1e-07 1 1 0
1  107 0 0 10.4654088050314
2  186 49 0 0 10.4654088050314
0

0101000
+56 0 -17 0 *
Ve
1e-07
130.415094339623 247.547169811321 0
0 0

0101101
*
Ed
 1e-07 1 1 0
1  108 0 0 36.2264150943396
2  187 49 0 0 36.2264150943396
0

0101000
+17 0 -15 0 *
Ve
1e-07
130.415094339623 191.194968553459 0
0 0

0101101
*
Ed
 1e-07 1 1 0
1  109 0 0 56.3522012578617
2  188 49 0 0 56.3522012578617
0

0101000
+15 0 -13 0 *
Ed
 1e-07 1 1 0
1  110 0 0 36.2264150943396
2  189 49 0 0 36.2264150943396
0

0101000
+13 0 -20 0 *
Wi

0101100
+19 0 -61 0 +18 0 -53 0 +16 0 +14 0 +12 0 +11 0 *
Fa
0  1e-07 49 0

0111000
+10 0 *
Ve
1e-07
237.88679245283 157.383647798742 0
0 0

0101101
*
Ed
 1e-07 1 1 0
1  111 0 0 4.83018867924528
2  190 52 0 0 4.83018867924528
0

0101000
+8 0 -25 0 *
Ve
1e-07
237.88679245283 173.48427672956 0
0 0

0101101
*
Ed
 1e-07 1 1 0
1  112 0 0 4.83018867924528
2  191 52 0 0 4.83018867924528
0

0101000
+35 0 -6 0 *
Ed
 1e-07 1 1 0
1  113 0 0 16.1006289308176
2  192 52 0 0 16.1006289308176
0

0101000
+6 0 -8 0 *
Wi

0101100
+7 0 +23 0 +5 0 +4 0 *
Fa
0  1e-07 52 0

0111000
+3 0 *
Sh

0101000
+217 0 +210 0 +203 0 +192 0 +185 0 +178 0 +171 0 +160 0 +137 0 +122 0 
+101 0 +94 0 +87 0 +78 0 +71 0 +64 0 +57 0 +50 0 +36 0 +21 0 
+9 0 +2 0 *

+1 0 