
CASCADE Topology V3, (c) Open Cascade
Locations 0
Curve2ds 184
1 -8.5209840810419664 -2.2228654124457137 1 0 
1 33.898697539797411 39.085383502170764 1 0 
1 8.5209840810419681 -2.2228654124457137 0 1 
1 8.5209840810419681 2.2228654124457421 -1 0 
1 26.631062975584705 -81.185677606087424 -1 0 
1 -8.5209840810419664 2.2228654124457421 0 -1 
1 -14.989021033045717 -37.849715460866364 1 0 
1 -55.386396526772778 39.085383502170764 1 0 
1 -9.0767004341533948 -2.2228654124457279 1 0 
1 -14.263386396526748 39.085383502170764 1 0 
1 -2.2228654124457279 -8.5209840810419735 1 0 
1 3.8900144717800487 39.085383502170764 1 0 
1 -10.558610709117218 -2.2228654124457279 1 0 
1 8.3357452966715044 39.085383502170764 1 0 
1 -10.558610709117218 -2.2228654124457279 1 0 
1 -2.222865412445735 -2.2228654124457279 1 0 
1 29.452966714905948 39.085383502170764 1 0 
1 45.608858075589801 62.628748359304005 0 -1 
1 50.940665701881343 43.53111432706222 0 -1 
1 45.608858075589801 -19.987749469928985 -1 0 
1 50.940665701881343 -39.085383502170771 -1 0 
1 -56.27247332817285 -19.987749469928985 0 1 
1 -50.940665701881308 -39.085383502170771 0 1 
1 2.2228654124457421 -10.558610709117232 0 1 
1 -50.940665701881308 17.968162083936313 0 1 
1 26.631062975584708 -81.185677606087424 -1.1335167110165238e-17 1 
1 26.631062975584705 75.526333971336584 -1 0 
1 -31.163437748004291 75.526333971336584 0 -1 
1 -31.163437748004291 61.077708790439345 1 0 
1 -15.973857429625134 61.077708790439345 0 -1 
1 -15.973857429625134 -15.611147938938359 -1 0 
1 -31.163437748004291 -15.611147938938359 0 -1 
1 2.222865412445735 7.7800289435600689 0 -1 
1 -31.163437748004291 -31.171205826058497 0 -1 
1 -31.163437748004291 -46.731263713178564 1 0 
1 -15.973857429625134 -46.731263713178592 0 -1 
1 2.2228654124457279 -7.5947901591895715 0 1 
1 -15.973857429625134 -68.589440268894947 0 1 
1 -15.973857429625134 -68.589440268894947 0 -1 
1 -15.973857429625134 -81.185677606087424 1 0 
1 -10.558610709117218 2.2228654124457279 1 0 
1 5.143363988609309 -81.185677606087424 1 0 
1 9.0767004341534019 -2.2228654124457279 0 1 
1 9.0767004341534019 2.2228654124457279 -1 0 
1 27.41534008683066 -15.004341534008688 -1 0 
1 -9.0767004341533948 2.2228654124457279 0 -1 
1 -10.558610709117218 2.2228654124457279 0 -1 
1 10.558610709117225 -2.2228654124457279 0 1 
1 -2.2228654124457279 -10.558610709117232 1 0 
1 2.2228654124457421 10.558610709117218 -1 0 
1 -1.8523878437047614 10.558610709117218 -1 0 
1 -2.2228654124457279 10.558610709117218 0 -1 
1 80.374318677369544 -21.466797260155445 0 -1 
1 -2.2228654124457279 -7.7800289435600689 1 0 
1 2.222865412445735 7.7800289435600689 -1 0 
1 -2.2228654124457279 7.7800289435600689 0 -1 
1 27.971056439942117 15.560057887120138 0 -1 
1 -2.2228654124457279 7.7800289435600689 0 -1 
1 -2.2228654124457279 -7.5947901591895715 1 0 
1 2.2228654124457279 7.5947901591895857 -1 0 
1 -2.2228654124457279 7.5947901591895857 0 -1 
1 27.41534008683066 12.781476121562946 0 -1 
1 -2.2228654124457279 7.5947901591895857 0 -1 
1 -2.2228654124457279 8.5209840810419593 0 -1 
1 27.41534008683066 -2.4081041968162111 0 -1 
1 26.133989097200313 -33.403984635974908 -1 0 
1 9.2619392185238638 -15.004341534008688 -1 0 
1 -10.543290208154247 -33.403984635974908 0 1 
1 -27.415340086830696 -15.004341534008688 0 1 
1 -10.543290208154247 -3.3953015679575458 1 0 
1 -27.415340086830696 15.004341534008674 1 0 
1 44.28738996550711 -3.3953015679575458 0 -1 
1 27.41534008683066 15.004341534008674 0 -1 
1 -31.29003405764773 36.616275856065613 0 -1 
1 64.07330565276753 52.999194056776531 0 -1 
1 -31.29003405764773 -3.3953015679575458 1 0 
1 64.07330565276753 12.987616632753372 1 0 
1 -14.989021033045717 -3.3953015679575458 0 -1 
1 80.374318677369544 12.987616632753372 0 -1 
1 -60.71820415306432 37.065796116178099 0 -1 
1 80.374318677369544 -42.584018678389896 0 -1 
1 13.892908827785817 2.2228654124457297 -1 0 
1 80.374318677369544 -99.637564264496973 -1 0 
1 42.949190557512509 -10.214340556814525 -1 0 
1 52.588501021797924 -99.637564264496973 -1 0 
1 -14.104355028594597 -10.214340556814525 0 1 
1 -4.4650445643091814 -99.637564264496973 0 1 
1 2.2228654124457421 -14.448625180897253 0 1 
1 -4.4650445643091814 -50.36404762194995 0 1 
1 42.993824868731025 -32.62142278055174 0 1 
1 -4.4650445643091814 -21.466797260155445 0 1 
1 42.993824868731025 9.613020055917147 -1 0 
1 -4.4650445643091814 20.767645576313441 -1 0 
1 32.164194941856266 -5.9469436276586976 0 1 
1 -5.2061997017910926 20.767545576313438 0 1 
1 0.3927838097907852 -25.223509444541264 1 0 
1 -8.9107753892006372 40.032479150843102 1 0 
1 4.838514634682241 -25.223509444541264 0 1 
1 -4.4650445643091814 40.032479150843102 0 1 
1 4.838514634682241 11.083292292072343 1 0 
1 -4.4650445643091814 76.339280887456709 1 0 
1 -25.933429811866858 -2.2228654124457137 1 0 
1 2.944506810509921 76.339280887456709 1 0 
1 -24.362077063183321 -40.572670100691369 1 0 
1 54.811366434243638 76.339280887456709 1 0 
1 -15.100137844659429 -40.572670100691369 0 -1 
1 64.07330565276753 76.339280887456709 0 -1 
1 -2.2228654124457421 10.188133140376266 0 -1 
1 64.07330565276753 73.375460337529063 0 -1 
1 29.097809647127946 16.610487144054019 0 -1 
1 27.971056439942117 0 0 -1 
1 29.097809647127946 1.0504292569339242 -1 0 
1 27.971056439942117 -15.560057887120095 -1 0 
1 -26.844303232756275 1.0504292569339242 0 1 
1 -27.971056439942103 -15.560057887120095 0 1 
1 -26.844303232756275 32.170545031174157 1 0 
1 -27.971056439942103 15.560057887120138 1 0 
1 -9.261939218523878 -2.2228654124457137 1 0 
1 9.4471780028943613 15.560057887120138 1 0 
1 -9.261939218523878 -2.2228654124457137 1 0 
1 13.892908827785817 -2.2228654124457323 0 1 
1 -13.892908827785803 2.2228654124457297 0 -1 
1 -13.892908827785803 -2.2228654124457323 1 0 
1 -2.2228654124457137 -14.448625180897253 1 0 
1 2.2228654124457421 14.448625180897253 -1 0 
1 1.852387843704804 14.448625180897253 -1 0 
1 -2.2228654124457137 14.448625180897253 0 -1 
1 42.993824868731025 9.613020055917147 -1 0 
1 32.905350079338177 -5.9468436276586942 -1 0 
1 38.548094043839569 9.613020055917147 0 -1 
1 28.459619254446721 -5.9468436276586942 0 -1 
1 38.548094043839569 -28.175691955660284 -1 0 
1 28.459619254446721 -43.735555639236125 -1 0 
1 -20.357839385972284 -28.175691955660284 0 1 
1 -30.446314175365131 -43.735555639236125 0 1 
1 -20.357839385972284 58.516059129723217 1 0 
1 -30.446314175365131 42.956195446147376 1 0 
1 -14.819102749638176 -2.2228654124457137 1 0 
1 -19.331987113136478 42.956195446147376 1 0 
1 -14.819102749638176 -2.2228654124457137 1 0 
1 -17.760617058516004 4.4146960547351455 1 0 
1 10.306218386139932 42.956195446147376 1 0 
1 0.3927838097907852 4.4146960547351455 0 -1 
1 28.459619254446721 42.956195446147376 0 -1 
1 0.3927838097907852 -25.223509444541264 1 0 
1 28.459619254446721 13.317989946870966 1 0 
1 25.933429811866858 -2.2228654124457137 0 1 
1 25.933429811866858 2.2228654124457421 -1 0 
1 -25.933429811866858 2.2228654124457421 0 -1 
1 -2.2228654124457421 -10.188133140376266 1 0 
1 2.2228654124457137 -10.188133140376266 0 1 
1 -34.129479665951635 -39.871881981436445 0 1 
1 2.2228654124457137 -10.188133140376266 0 1 
1 2.2228654124457137 10.188133140376266 -1 0 
1 9.261939218523878 -2.2228654124457137 0 1 
1 9.261939218523878 2.2228654124457421 -1 0 
1 21.812633213932585 -39.871881981436445 -1 0 
1 9.261939218523878 2.2228654124457421 -1 0 
1 -9.261939218523878 2.2228654124457421 0 -1 
1 14.819102749638233 -2.2228654124457137 0 1 
1 14.819102749638233 2.2228654124457421 -1 0 
1 -14.819102749638176 2.2228654124457421 0 -1 
1 -6.2981186685962314 -2.2228654124457137 1 0 
1 11.068783720444884 27.925513098158348 1 0 
1 -6.2981186685962314 -2.2228654124457137 1 0 
1 -12.540540540540555 34.508859076152874 1 0 
1 23.665021057637361 27.925513098158348 1 0 
1 0.79665193413383406 34.508859076152874 0 -1 
1 37.00221353231175 27.925513098158348 0 -1 
1 0.79665193413383406 -33.288536003441919 -1 0 
1 37.00221353231175 -39.871881981436445 -1 0 
1 10.57393121008019 36.616275856065613 -1 0 
1 3.2887547768848293 -39.871881981436445 -1 0 
1 -10.654407019767973 -43.536490650619015 0 1 
1 -34.129479665951635 -19.495615700683913 0 1 
1 -10.654407019767973 18.703740897861451 1 0 
1 -34.129479665951635 42.744615847796553 1 0 
1 30.09812554173709 18.703740897861451 0 -1 
1 6.6230528955534282 42.744615847796553 0 -1 
1 30.09812554173709 3.8846381482232459 1 0 
1 6.6230528955534282 27.925513098158348 1 0 
1 6.2981186685962456 -2.2228654124457137 0 1 
1 6.2981186685962456 2.2228654124457421 -1 0 
1 -6.2981186685962314 2.2228654124457421 0 -1 
Curves 110
1 17.782923299565844 88.544138929088277 0 -1 0 0 
1 0.74095513748191022 88.544138929088277 0 0 1 0 
1 0.74095513748191022 92.989869753979733 0 1 0 0 
1 17.782923299565844 92.989869753979733 0 0 -1 0 
1 107.06801736613603 88.544138929088277 0 -1 0 0 
1 65.945007235890003 88.544138929088277 0 -1 0 0 
1 47.791606367583206 88.544138929088277 0 -1 0 0 
1 43.345875542691751 88.544138929088277 0 -1 0 0 
1 22.228654124457307 88.544138929088277 0 -1 0 0 
1 0.74095513748191022 92.989869753979733 0 0 -1 0 
1 0.74095513748191022 10.373371924746744 0 1 0 0 
1 102.62228654124456 10.373371924746744 0 0 1 0 
1 102.62228654124456 67.426917510853826 0 0 1 0 
1 0.74095513748190878 92.989869753979733 0 1.1335167110165238e-17 1 0 
1 0.74095513748191055 249.70188133140374 0 1 0 0 
1 58.535455861070908 249.70188133140374 0 0 -1 0 
1 58.535455861070908 235.2532561505065 0 -1 0 0 
1 43.345875542691751 235.2532561505065 0 0 -1 0 
1 43.345875542691751 158.5643994211288 0 1 0 0 
1 58.535455861070908 158.5643994211288 0 0 -1 0 
1 58.535455861070908 143.00434153400866 0 0 -1 0 
1 58.535455861070908 127.44428364688859 0 -1 0 0 
1 43.345875542691751 127.44428364688856 0 0 -1 0 
1 43.345875542691751 105.58610709117221 0 0 1 0 
1 43.345875542691751 105.58610709117221 0 0 -1 0 
1 43.345875542691751 92.989869753979733 0 -1 0 0 
1 22.228654124457307 92.989869753979733 0 -1 0 0 
1 47.791606367583206 88.544138929088277 0 0 1 0 
1 47.791606367583206 92.989869753979733 0 1 0 0 
1 65.945007235890003 92.989869753979733 0 0 -1 0 
1 43.345875542691751 92.989869753979733 0 0 -1 0 
1 22.228654124457307 88.544138929088277 0 0 1 0 
1 107.06801736613603 67.426917510853826 0 -1 0 0 
1 102.62228654124456 88.544138929088277 0 1 0 0 
1 106.69753979739507 88.544138929088277 0 1 0 0 
1 107.06801736613603 88.544138929088277 0 0 -1 0 
1 62.981186685962371 143.00434153400866 0 -1 0 0 
1 58.535455861070908 158.5643994211288 0 1 0 0 
1 62.981186685962371 158.5643994211288 0 0 -1 0 
1 47.791606367583206 105.58610709117221 0 -1 0 0 
1 43.345875542691751 120.77568740955137 0 1 0 0 
1 47.791606367583206 120.77568740955137 0 0 -1 0 
1 47.791606367583206 105.58610709117221 0 0 -1 0 
1 65.945007235890003 92.989869753979733 0 1 0 0 
1 102.62228654124456 92.989869753979733 0 0 1 0 
1 102.62228654124456 122.99855282199709 0 -1 0 0 
1 47.791606367583206 122.99855282199709 0 0 -1 0 
1 123.36903039073805 163.01013024602025 0 0 -1 0 
1 123.36903039073805 122.99855282199709 0 -1 0 0 
1 107.06801736613603 122.99855282199709 0 0 -1 0 
1 107.06801736613603 67.426917510853826 0 0 -1 0 
1 107.06801736613603 10.373371924746744 0 1 0 0 
1 134.85383502170765 10.373371924746744 0 1 0 0 
1 191.90738060781476 10.373371924746744 0 0 1 0 
1 191.90738060781476 59.646888567293772 0 0 1 0 
1 191.90738060781476 88.544138929088277 0 0 1 0 
1 191.90738060781476 130.77858176555716 0 1 0 0 
1 192.64853574529667 130.77848176555716 0 0 1 0 
1 196.35311143270621 150.04341534008682 0 -1 0 0 
1 191.90738060781476 150.04341534008682 0 0 1 0 
1 191.90738060781476 186.35021707670043 0 -1 0 0 
1 184.49782923299566 186.35021707670043 0 -1 0 0 
1 132.63096960926194 186.35021707670043 0 -1 0 0 
1 123.36903039073805 186.35021707670043 0 0 -1 0 
1 123.36903039073805 183.38639652677278 0 0 -1 0 
1 62.981186685962371 143.00434153400866 0 0 -1 0 
1 62.981186685962371 127.44428364688856 0 1 0 0 
1 118.92329956584659 127.44428364688856 0 0 1 0 
1 118.92329956584659 158.5643994211288 0 -1 0 0 
1 81.505065123010127 158.5643994211288 0 -1 0 0 
1 107.06801736613603 5.9276410998552818 0 0 1 0 
1 134.85383502170765 10.373371924746744 0 0 -1 0 
1 134.85383502170765 5.9276410998552818 0 -1 0 0 
1 196.35311143270621 59.646888567293772 0 -1 0 0 
1 191.90738060781476 88.544138929088277 0 1 0 0 
1 192.2778581765557 88.544138929088277 0 1 0 0 
1 196.35311143270621 88.544138929088277 0 0 -1 0 
1 191.90738060781476 130.77858176555716 0 1 0 0 
1 196.35311143270621 130.77858176555716 0 0 -1 0 
1 196.35311143270621 92.989869753979733 0 1 0 0 
1 255.25904486251807 92.989869753979733 0 0 1 0 
1 255.25904486251807 179.68162083936323 0 -1 0 0 
1 244.14471780028941 179.68162083936323 0 -1 0 0 
1 214.506512301013 179.68162083936323 0 -1 0 0 
1 196.35311143270621 179.68162083936323 0 0 -1 0 
1 196.35311143270621 150.04341534008682 0 -1 0 0 
1 132.63096960926194 186.35021707670043 0 0 1 0 
1 132.63096960926194 190.79594790159189 0 1 0 0 
1 184.49782923299566 190.79594790159189 0 0 -1 0 
1 123.36903039073805 163.01013024602025 0 -1 0 0 
1 118.92329956584659 163.01013024602025 0 0 1 0 
1 118.92329956584659 183.38639652677278 0 1 0 0 
1 62.981186685962371 158.5643994211288 0 0 1 0 
1 62.981186685962371 163.01013024602025 0 1 0 0 
1 81.505065123010127 163.01013024602025 0 0 -1 0 
1 214.506512301013 179.68162083936323 0 0 1 0 
1 214.506512301013 184.12735166425469 0 1 0 0 
1 244.14471780028941 184.12735166425469 0 0 -1 0 
1 73.725036179450072 230.80752532561505 0 -1 0 0 
1 61.128798842257595 230.80752532561505 0 -1 0 0 
1 47.791606367583206 230.80752532561505 0 0 -1 0 
1 47.791606367583206 163.01013024602025 0 1 0 0 
1 81.505065123010127 163.01013024602025 0 1 0 0 
1 118.92329956584659 183.38639652677278 0 0 1 0 
1 118.92329956584659 245.62662807525325 0 -1 0 0 
1 78.170767004341528 245.62662807525325 0 0 -1 0 
1 78.170767004341528 230.80752532561505 0 -1 0 0 
1 61.128798842257595 230.80752532561505 0 0 1 0 
1 61.128798842257595 235.2532561505065 0 1 0 0 
1 73.725036179450072 235.2532561505065 0 0 -1 0 
Polygon3D 0
PolygonOnTriangulations 0
Surfaces 46
1 9.261939218523878 90.76700434153399 0 -0 -0 -1 -1 0 0 0 1 -0 
1 51.681620839363255 49.458755426917513 0 -0 -0 -1 -1 0 0 0 1 -0 
1 27.372018113066616 174.17554736006716 0 -0 -0 -1 -1 0 0 0 1 -0 
1 92.078996333090316 126.39385438995464 0 -0 -0 -1 -1 0 0 0 1 -0 
1 56.868306801736608 90.767004341534005 0 -0 -0 -1 -1 0 0 0 1 -0 
1 45.568740955137478 97.06512301013025 0 -0 -0 -1 -1 0 0 0 1 -0 
1 32.787264833574532 90.767004341534005 0 -0 -0 -1 -1 0 0 0 1 -0 
1 32.787264833574532 90.767004341534005 0 -0 -0 -1 -1 0 0 0 1 -0 
1 20.005788712011572 90.767004341534005 0 -0 -0 -1 -1 0 0 0 1 -0 
1 46.349813213071712 30.361121394675727 0 -0 -0 -1 -1 0 0 0 1 -0 
1 104.8451519536903 77.985528219971059 0 -0 -0 -1 -1 0 0 0 1 -0 
1 60.758321273516643 150.78437047756873 0 -0 -0 -1 -1 0 0 0 1 -0 
1 45.568740955137478 113.18089725036178 0 -0 -0 -1 -1 0 0 0 1 -0 
1 75.206946454413867 107.99421128798842 0 -0 -0 -1 -1 0 0 0 1 -0 
1 187.44233604350558 110.01093618924372 0 -0 -0 -1 -1 0 0 0 1 -0 
1 60.758321273516643 150.78437047756873 0 -0 -0 -1 -1 0 0 0 1 -0 
1 90.952243125904488 143.00434153400866 0 -0 -0 -1 -1 0 0 0 1 -0 
1 45.568740955137478 113.18089725036178 0 -0 -0 -1 -1 0 0 0 1 -0 
1 45.568740955137478 97.06512301013025 0 -0 -0 -1 -1 0 0 0 1 -0 
1 92.078996333090316 126.39385438995464 0 -0 -0 -1 -1 0 0 0 1 -0 
1 92.078996333090316 126.39385438995464 0 -0 -0 -1 -1 0 0 0 1 -0 
1 46.349813213071712 30.361121394675727 0 -0 -0 -1 -1 0 0 0 1 -0 
1 120.96092619392185 8.1505065123010141 0 -0 -0 -1 -1 0 0 0 1 -0 
1 177.80302557922016 20.587712481561269 0 -0 -0 -1 -1 0 0 0 1 -0 
1 194.1302460202605 74.095513748191024 0 -0 -0 -1 -1 0 0 0 1 -0 
1 234.90120547654578 121.16556170964002 0 -0 -0 -1 -1 0 0 0 1 -0 
1 224.81273068715294 136.72542539321586 0 -0 -0 -1 -1 0 0 0 1 -0 
1 196.745895242497 175.26692478462809 0 -0 -0 -1 -1 0 0 0 1 -0 
1 158.5643994211288 188.57308248914615 0 -0 -0 -1 -1 0 0 0 1 -0 
1 108.26889254607862 226.9228871773918 0 -0 -0 -1 -1 0 0 0 1 -0 
1 121.1461649782923 173.19826338639652 0 -0 -0 -1 -1 0 0 0 1 -0 
1 92.078996333090316 126.39385438995464 0 -0 -0 -1 -1 0 0 0 1 -0 
1 72.243125904486249 160.78726483357451 0 -0 -0 -1 -1 0 0 0 1 -0 
1 72.243125904486249 160.78726483357451 0 -0 -0 -1 -1 0 0 0 1 -0 
1 234.90120547654578 121.16556170964002 0 -0 -0 -1 -1 0 0 0 1 -0 
1 229.32561505065124 181.90448625180895 0 -0 -0 -1 -1 0 0 0 1 -0 
1 229.32561505065124 181.90448625180895 0 -0 -0 -1 -1 0 0 0 1 -0 
1 196.745895242497 175.26692478462809 0 -0 -0 -1 -1 0 0 0 1 -0 
1 121.1461649782923 173.19826338639652 0 -0 -0 -1 -1 0 0 0 1 -0 
1 84.793819899894956 202.8820122274567 0 -0 -0 -1 -1 0 0 0 1 -0 
1 72.243125904486249 160.78726483357451 0 -0 -0 -1 -1 0 0 0 1 -0 
1 67.426917510853841 233.03039073806076 0 -0 -0 -1 -1 0 0 0 1 -0 
1 67.426917510853841 233.03039073806076 0 -0 -0 -1 -1 0 0 0 1 -0 
1 48.58825830171704 196.29866624946217 0 -0 -0 -1 -1 0 0 0 1 -0 
1 92.078996333090316 126.39385438995464 0 -0 -0 -1 -1 0 0 0 1 -0 
1 108.26889254607862 226.9228871773918 0 -0 -0 -1 -1 0 0 0 1 -0 
Triangulations 0

TShapes 239
Ve
1e-07
17.7829232995658 88.5441389290883 0
0 0

0101101
*
Ve
1.00000000222045e-07
0.74095513748191 88.5441389290883 0
0 0

0101101
*
Ed
 1e-07 1 1 0
1  1 0 0 17.0419681620839
2  1 1 0 0 17.0419681620839
2  2 2 0 0 17.0419681620839
0

0101000
+239 0 -238 0 *
Ve
1.00000029145306e-07
0.74095513748191 92.9898697539797 0
0 0

0101101
*
Ed
 1e-07 1 1 0
1  2 0 0 4.44573082489146
2  3 1 0 0 4.44573082489146
0

0101000
+238 0 -236 0 *
Ve
1.00000040194367e-07
17.7829232995658 92.9898697539797 0
0 0

0101101
*
Ed
 1.00000000888178e-07 1 1 0
1  3 0 0 17.0419681620839
2  4 1 0 0 17.0419681620839
2  5 3 0 0 17.0419681620839
0

0101000
+236 0 -234 0 *
Ed
 1e-07 1 1 0
1  4 0 0 4.44573082489146
2  6 1 0 0 4.44573082489146
0

0101000
+234 0 -239 0 *
Wi

0101100
+237 0 +235 0 +233 0 +232 0 *
Fa
0  1e-07 1 0

0111000
+231 0 *
Ve
1.00000028421709e-07
102.622286541245 88.5441389290883 0
0 0

0101101
*
Ve
1e-07
65.94500723589 88.5441389290883 0
0 0

0101101
*
Ed
 1e-07 1 1 0
1  5 0 4.44573082489103 41.123010130246
2  7 4 0 4.44573082489103 41.123010130246
2  8 2 0 4.44573082489103 41.123010130246
0

0101000
+229 0 -228 0 *
Ve
1e-07
47.7916063675832 88.5441389290883 0
0 0

0101101
*
Ed
 1e-07 1 1 0
1  6 0 0 18.1534008683068
2  9 5 0 0 18.1534008683068
2  10 2 0 0 18.1534008683068
0

0101000
+228 0 -226 0 *
Ve
1e-07
43.3458755426918 88.5441389290883 0
0 0

0101101
*
Ed
 1e-07 1 1 0
1  7 0 0 4.44573082489146
2  11 6 0 0 4.44573082489146
2  12 2 0 0 4.44573082489146
0

0101000
+226 0 -224 0 *
Ve
1e-07
22.2286541244573 88.5441389290883 0
0 0

0101101
*
Ed
 1e-07 1 1 0
1  8 0 0 21.1172214182344
2  13 7 0 0 21.1172214182344
2  14 2 0 0 21.1172214182344
2  15 8 0 0 21.1172214182344
0

0101000
+224 0 -222 0 *
Ed
 1e-07 1 1 0
1  9 0 0 4.44573082489146
2  16 9 0 0 4.44573082489146
2  17 2 0 0 4.44573082489146
0

0101000
+222 0 -239 0 *
Ve
1e-07
0.74095513748191 10.3733719247467 0
0 0

0101101
*
Ed
 1e-07 1 1 0
1  10 0 4.44573082489143 82.616497829233
2  18 10 0 4.44573082489143 82.616497829233
2  19 2 0 4.44573082489143 82.616497829233
0

0101000
+238 0 -219 0 *
Ve
1e-07
102.622286541245 10.3733719247467 0
0 0

0101101
*
Ed
 1e-07 1 1 0
1  11 0 0 101.881331403763
2  20 10 0 0 101.881331403763
2  21 2 0 0 101.881331403763
0

0101000
+219 0 -217 0 *
Ve
1e-07
102.622286541245 67.4269175108538 0
0 0

0101101
*
Ed
 1e-07 1 1 0
1  12 0 0 57.0535455861071
2  22 10 0 0 57.0535455861071
2  23 2 0 0 57.0535455861071
0

0101000
+217 0 -215 0 *
Ed
 1e-07 1 1 0
1  13 0 0 21.1172214182345
2  24 11 0 0 21.1172214182345
2  25 2 0 0 21.1172214182345
0

0101000
+215 0 -229 0 *
Wi

0101100
-227 0 -225 0 -223 0 -221 0 -220 0 -237 0 -218 0 -216 0 -214 0 -213 0 
*
Fa
0  1e-07 2 0

0101000
+212 0 *
Ve
1e-07
0.740955137481911 249.701881331404 0
0 0

0101101
*
Ed
 1e-07 1 1 0
1  14 0 0 156.712011577424
2  26 3 0 0 156.712011577424
0

0101000
+236 0 -210 0 *
Ve
1e-07
58.5354558610709 249.701881331404 0
0 0

0101101
*
Ed
 1e-07 1 1 0
1  15 0 0 57.794500723589
2  27 3 0 0 57.794500723589
0

0101000
+210 0 -208 0 *
Ve
1e-07
58.5354558610709 235.253256150507 0
0 0

0101101
*
Ed
 1e-07 1 1 0
1  16 0 0 14.4486251808972
2  28 3 0 0 14.4486251808972
0

0101000
+208 0 -206 0 *
Ve
1.00000257001451e-07
43.3458755426918 235.253256150507 0
0 0

0101101
*
Ed
 1e-07 1 1 0
1  17 0 0 15.1895803183792
2  29 3 0 0 15.1895803183792
0

0101000
+206 0 -204 0 *
Ve
1.00000102537496e-07
43.3458755426918 158.564399421129 0
0 0

0101101
*
Ed
 1e-07 1 1 0
1  18 0 0 76.6888567293777
2  30 3 0 0 76.6888567293777
0

0101000
+204 0 -202 0 *
Ve
1.00000099539404e-07
58.5354558610709 158.564399421129 0
0 0

0101101
*
Ed
 1e-07 1 1 0
1  19 0 0 15.1895803183792
2  31 3 0 0 15.1895803183792
0

0101000
+202 0 -200 0 *
Ve
1.00000227373675e-07
58.5354558610709 143.004341534009 0
0 0

0101101
*
Ed
 1e-07 1 1 0
1  20 0 0 15.5600578871201
2  32 3 0 0 15.5600578871201
2  33 12 0 0 15.5600578871201
0

0101000
+200 0 -198 0 *
Ve
1.00000206088018e-07
58.5354558610709 127.444283646889 0
0 0

0101101
*
Ed
 1e-07 1 1 0
1  21 0 0 15.5600578871201
2  34 3 0 0 15.5600578871201
0

0101000
+198 0 -196 0 *
Ve
1.00000221714036e-07
43.3458755426918 127.444283646889 0
0 0

0101101
*
Ed
 1.00000028421709e-07 1 1 0
1  22 0 0 15.1895803183792
2  35 3 0 0 15.1895803183792
0

0101000
+196 0 -194 0 *
Ve
1.00000257369525e-07
43.3458755426918 120.775687409551 0
0 0

0101101
*
Ed
 1e-07 1 1 0
1  23 0 0 6.6685962373372
2  36 3 0 0 6.6685962373372
0

0101000
+194 0 -192 0 *
Ve
1.00000158882186e-07
43.3458755426918 105.586107091172 0
0 0

0101101
*
Ed
 1e-07 1 1 0
1  24 0 0 15.1895803183792
2  37 13 0 0 15.1895803183792
2  38 3 0 0 15.1895803183792
0

0101000
+190 0 -192 0 *
Ve
1.00000028642893e-07
43.3458755426918 92.9898697539797 0
0 0

0101101
*
Ed
 1e-07 1 1 0
1  25 0 0 12.5962373371925
2  39 3 0 0 12.5962373371925
0

0101000
+190 0 -188 0 *
Ve
1.00000028642893e-07
22.2286541244573 92.9898697539797 0
0 0

0101101
*
Ed
 1e-07 1 1 0
1  26 0 0 21.1172214182344
2  40 3 0 0 21.1172214182344
2  41 8 0 0 21.1172214182344
0

0101000
+188 0 -186 0 *
Ed
 1e-07 1 1 0
1  27 0 0 4.44573082489146
2  42 3 0 0 4.44573082489146
0

0101000
+186 0 -234 0 *
Wi

0101100
+209 0 +207 0 +205 0 +203 0 +201 0 +199 0 +197 0 +195 0 +193 0 +191 0 
-189 0 +187 0 +185 0 +184 0 -233 0 *
Fa
0  1e-07 3 0

0111000
+183 0 *
Ve
1.00000007105427e-07
47.7916063675832 92.9898697539797 0
0 0

0101101
*
Ed
 1e-07 1 1 0
1  28 0 0 4.44573082489146
2  43 5 0 0 4.44573082489146
0

0101000
+226 0 -181 0 *
Ve
1e-07
65.94500723589 92.9898697539797 0
0 0

0101101
*
Ed
 1e-07 1 1 0
1  29 0 0 18.1534008683068
2  44 5 0 0 18.1534008683068
2  45 14 0 0 18.1534008683068
0

0101000
+181 0 -179 0 *
Ed
 1e-07 1 1 0
1  30 0 0 4.44573082489146
2  46 5 0 0 4.44573082489146
0

0101000
+179 0 -228 0 *
Wi

0101100
+180 0 +178 0 +177 0 +225 0 *
Fa
0  1e-07 5 0

0111000
+176 0 *
Ed
 1e-07 1 1 0
1  31 0 0 4.44573082489146
2  47 8 0 0 4.44573082489146
0

0101000
+188 0 -224 0 *
Ed
 1e-07 1 1 0
1  32 0 0 4.44573082489146
2  48 8 0 0 4.44573082489146
0

0101000
+222 0 -186 0 *
Wi

0101100
-185 0 +174 0 +221 0 +173 0 *
Fa
0  1e-07 8 0

0111000
+172 0 *
Ve
1e-07
107.068017366136 67.4269175108538 0
0 0

0101101
*
Ed
 1e-07 1 1 0
1  33 0 0 4.44573082489147
2  49 11 0 0 4.44573082489147
0

0101000
+170 0 -215 0 *
Ve
1e-07
106.697539797395 88.5441389290883 0
0 0

0101101
*
Ed
 1e-07 1 1 0
1  34 0 0 4.0752532561505
2  50 11 0 0 4.0752532561505
0

0101000
+229 0 -168 0 *
Ve
1e-07
107.068017366136 88.5441389290883 0
0 0

0101101
*
Ed
 1e-07 1 1 0
1  35 0 0 0.370477568740966
2  51 11 0 0 0.370477568740966
0

0101000
+168 0 -166 0 *
Ed
 1e-07 1 1 0
1  36 0 0 21.1172214182345
2  52 11 0 0 21.1172214182345
2  53 15 0 0 21.1172214182345
0

0101000
+166 0 -170 0 *
Wi

0101100
+169 0 +213 0 +167 0 +165 0 +164 0 *
Fa
0  1e-07 11 0

0111000
+163 0 *
Ve
1e-07
62.9811866859624 143.004341534009 0
0 0

0101101
*
Ed
 1e-07 1 1 0
1  37 0 0 4.44573082489146
2  54 12 0 0 4.44573082489146
0

0101000
+161 0 -198 0 *
Ve
1e-07
62.9811866859624 158.564399421129 0
0 0

0101101
*
Ed
 1e-07 1 1 0
1  38 0 0 4.44573082489146
2  55 12 0 0 4.44573082489146
0

0101000
+200 0 -159 0 *
Ed
 1e-07 1 1 0
1  39 0 0 15.5600578871201
2  56 16 0 0 15.5600578871201
2  57 17 0 0 15.5600578871201
2  58 12 0 0 15.5600578871201
0

0101000
+159 0 -161 0 *
Wi

0101100
+160 0 -197 0 +158 0 +157 0 *
Fa
0  1e-07 12 0

0111000
+156 0 *
Ve
1e-07
47.7916063675832 105.586107091172 0
0 0

0101101
*
Ed
 1e-07 1 1 0
1  40 0 0 4.44573082489146
2  59 13 0 0 4.44573082489146
0

0101000
+154 0 -190 0 *
Ve
1e-07
47.7916063675832 120.775687409551 0
0 0

0101101
*
Ed
 1e-07 1 1 0
1  41 0 0 4.44573082489146
2  60 13 0 0 4.44573082489146
0

0101000
+192 0 -152 0 *
Ed
 1e-07 1 1 0
1  42 0 0 15.1895803183792
2  61 18 0 0 15.1895803183792
2  62 14 0 0 15.1895803183792
2  63 13 0 0 15.1895803183792
0

0101000
+152 0 -154 0 *
Wi

0101100
+153 0 +189 0 +151 0 +150 0 *
Fa
0  1e-07 13 0

0111000
+149 0 *
Ed
 1e-07 1 1 0
1  43 0 0 12.5962373371925
2  64 19 0 0 12.5962373371925
2  65 14 0 0 12.5962373371925
0

0101000
+154 0 -181 0 *
Ve
1e-07
102.622286541245 92.9898697539797 0
0 0

0101101
*
Ed
 1e-07 1 1 0
1  44 0 0 36.6772793053546
2  66 20 0 0 36.6772793053546
2  67 14 0 0 36.6772793053546
0

0101000
+179 0 -146 0 *
Ve
1e-07
102.622286541245 122.998552821997 0
0 0

0101101
*
Ed
 1e-07 1 1 0
1  45 0 0 30.0086830680174
2  68 20 0 0 30.0086830680174
2  69 14 0 0 30.0086830680174
0

0101000
+146 0 -144 0 *
Ve
1e-07
47.7916063675832 122.998552821997 0
0 0

0101101
*
Ed
 1e-07 1 1 0
1  46 0 0 54.8306801736614
2  70 20 0 0 54.8306801736614
2  71 14 0 0 54.8306801736614
0

0101000
+144 0 -142 0 *
Ed
 1e-07 1 1 0
1  47 0 0 2.22286541244573
2  72 20 0 0 2.22286541244573
2  73 14 0 0 2.22286541244573
0

0101000
+142 0 -152 0 *
Wi

0101100
-147 0 -178 0 -145 0 -143 0 -141 0 -140 0 -150 0 *
Fa
0  1e-07 14 0

0101000
+139 0 *
Ve
1e-07
123.369030390738 163.01013024602 0
0 0

0101101
*
Ve
1e-07
123.369030390738 122.998552821997 0
0 0

0101101
*
Ed
 1e-07 1 1 0
1  48 0 0 40.0115774240232
2  74 21 0 0 40.0115774240232
2  75 15 0 0 40.0115774240232
0

0101000
+137 0 -136 0 *
Ve
1e-07
107.068017366136 122.998552821997 0
0 0

0101101
*
Ed
 1e-07 1 1 0
1  49 0 0 16.301013024602
2  76 21 0 0 16.301013024602
2  77 15 0 0 16.301013024602
0

0101000
+136 0 -134 0 *
Ed
 1e-07 1 1 0
1  50 0 0 34.4544138929088
2  78 21 0 0 34.4544138929088
2  79 15 0 0 34.4544138929088
0

0101000
+134 0 -166 0 *
Ve
1.00000028421709e-07
107.068017366136 10.3733719247467 0
0 0

0101101
*
Ed
 1e-07 1 1 0
1  51 0 0 57.0535455861071
2  80 22 0 0 57.0535455861071
2  81 15 0 0 57.0535455861071
0

0101000
+170 0 -131 0 *
Ve
1e-07
134.853835021708 10.3733719247467 0
0 0

0101101
*
Ed
 1e-07 1 1 0
1  52 0 0 27.7858176555716
2  82 23 0 0 27.7858176555716
2  83 15 0 0 27.7858176555716
0

0101000
+131 0 -129 0 *
Ve
1e-07
191.907380607815 10.3733719247467 0
0 0

0101101
*
Ed
 1e-07 1 1 0
1  53 0 0 57.0535455861071
2  84 24 0 0 57.0535455861071
2  85 15 0 0 57.0535455861071
0

0101000
+129 0 -127 0 *
Ve
1e-07
191.907380607815 59.6468885672938 0
0 0

0101101
*
Ed
 1e-07 1 1 0
1  54 0 0 49.273516642547
2  86 24 0 0 49.273516642547
2  87 15 0 0 49.273516642547
0

0101000
+127 0 -125 0 *
Ve
1e-07
191.907380607815 88.5441389290883 0
0 0

0101101
*
Ed
 1e-07 1 1 0
1  55 0 0 28.8972503617945
2  88 25 0 0 28.8972503617945
2  89 15 0 0 28.8972503617945
0

0101000
+125 0 -123 0 *
Ve
1e-07
191.907380607815 130.778581765557 0
0 0

0101101
*
Ed
 1e-07 1 1 0
1  56 0 0 42.2344428364689
2  90 26 0 0 42.2344428364689
2  91 15 0 0 42.2344428364689
0

0101000
+123 0 -121 0 *
Ve
1e-07
192.648535745297 130.778581765557 0
0 0

0101101
*
Ed
 1e-07 1 1 0
1  57 0 0 0.741155137481911
2  92 26 0 0 0.741155137481911
2  93 15 0 0 0.741155137481911
0

0101000
+121 0 -119 0 *
Ve
1e-07
192.648535745297 150.043415340087 0
0 0

0101101
*
Ed
 1e-07 1 1 0
1  58 0 0.00010000000000332 19.2649335745297
2  94 27 0 0.00010000000000332 19.2649335745297
2  95 15 0 0.00010000000000332 19.2649335745297
0

0101000
+119 0 -117 0 *
Ve
1e-07
191.907380607815 150.043415340087 0
0 0

0101101
*
Ed
 1e-07 1 1 0
1  59 0 3.70457568740954 4.44573082489146
2  96 28 0 3.70457568740954 4.44573082489146
2  97 15 0 3.70457568740954 4.44573082489146
0

0101000
+117 0 -115 0 *
Ve
1e-07
191.907380607815 186.3502170767 0
0 0

0101101
*
Ed
 1e-07 1 1 0
1  60 0 0 36.3068017366136
2  98 28 0 0 36.3068017366136
2  99 15 0 0 36.3068017366136
0

0101000
+115 0 -113 0 *
Ve
1e-07
184.497829232996 186.3502170767 0
0 0

0101101
*
Ed
 1e-07 1 1 0
1  61 0 0 7.4095513748191
2  100 28 0 0 7.4095513748191
2  101 15 0 0 7.4095513748191
0

0101000
+113 0 -111 0 *
Ve
1e-07
132.630969609262 186.3502170767 0
0 0

0101101
*
Ed
 1e-07 1 1 0
1  62 0 0 51.8668596237337
2  102 29 0 0 51.8668596237337
2  103 15 0 0 51.8668596237337
0

0101000
+111 0 -109 0 *
Ve
1e-07
123.369030390738 186.3502170767 0
0 0

0101101
*
Ed
 1e-07 1 1 0
1  63 0 0 9.26193921852389
2  104 30 0 0 9.26193921852389
2  105 15 0 0 9.26193921852389
0

0101000
+109 0 -107 0 *
Ve
1e-07
123.369030390738 183.386396526773 0
0 0

0101101
*
Ed
 1e-07 1 1 0
1  64 0 0 2.96382054992765
2  106 30 0 0 2.96382054992765
2  107 15 0 0 2.96382054992765
0

0101000
+107 0 -105 0 *
Ed
 1e-07 1 1 0
1  65 0 0 20.3762662807525
2  108 31 0 0 20.3762662807525
2  109 15 0 0 20.3762662807525
0

0101000
+105 0 -137 0 *
Wi

0101100
-135 0 -133 0 -132 0 -164 0 -130 0 -128 0 -126 0 -124 0 -122 0 -120 0 
-118 0 -116 0 -114 0 -112 0 -110 0 -108 0 -106 0 -104 0 -103 0 *
Fa
0  1e-07 15 0

0101000
+102 0 *
Ve
1e-07
62.9811866859624 127.444283646889 0
0 0

0101101
*
Ed
 1e-07 1 1 0
1  66 0 0 15.5600578871201
2  110 32 0 0 15.5600578871201
2  111 17 0 0 15.5600578871201
0

0101000
+161 0 -100 0 *
Ve
1e-07
118.923299565847 127.444283646889 0
0 0

0101101
*
Ed
 1e-07 1 1 0
1  67 0 0 55.9421128798842
2  112 32 0 0 55.9421128798842
2  113 17 0 0 55.9421128798842
0

0101000
+100 0 -98 0 *
Ve
1e-07
118.923299565847 158.564399421129 0
0 0

0101101
*
Ed
 1e-07 1 1 0
1  68 0 0 31.1201157742402
2  114 32 0 0 31.1201157742402
2  115 17 0 0 31.1201157742402
0

0101000
+98 0 -96 0 *
Ve
1e-07
81.5050651230101 158.564399421129 0
0 0

0101101
*
Ed
 1e-07 1 1 0
1  69 0 0 37.4182344428365
2  116 32 0 0 37.4182344428365
2  117 17 0 0 37.4182344428365
0

0101000
+96 0 -94 0 *
Ed
 1e-07 1 1 0
1  70 0 0 18.5238784370478
2  118 33 0 0 18.5238784370478
2  119 17 0 0 18.5238784370478
2  120 34 0 0 18.5238784370478
0

0101000
+94 0 -159 0 *
Wi

0101100
-157 0 -99 0 -97 0 -95 0 -93 0 -92 0 *
Fa
0  1e-07 17 0

0101000
+91 0 *
Ve
1e-07
107.068017366136 5.92764109985528 0
0 0

0101101
*
Ed
 1e-07 1 1 0
1  71 0 0 4.44573082489146
2  121 23 0 0 4.44573082489146
0

0101000
+89 0 -131 0 *
Ve
1e-07
134.853835021708 5.92764109985528 0
0 0

0101101
*
Ed
 1e-07 1 1 0
1  72 0 0 4.44573082489146
2  122 23 0 0 4.44573082489146
0

0101000
+129 0 -87 0 *
Ed
 1e-07 1 1 0
1  73 0 0 27.7858176555716
2  123 23 0 0 27.7858176555716
0

0101000
+87 0 -89 0 *
Wi

0101100
+88 0 +128 0 +86 0 +85 0 *
Fa
0  1e-07 23 0

0111000
+84 0 *
Ve
1e-07
196.353111432706 59.6468885672938 0
0 0

0101101
*
Ed
 1e-07 1 1 0
1  74 0 0 4.44573082489146
2  124 25 0 0 4.44573082489146
0

0101000
+82 0 -125 0 *
Ve
1e-07
192.277858176556 88.5441389290883 0
0 0

0101101
*
Ed
 1e-07 1 1 0
1  75 0 0 0.370477568740938
2  125 25 0 0 0.370477568740938
0

0101000
+123 0 -80 0 *
Ve
1e-07
196.353111432706 88.5441389290883 0
0 0

0101101
*
Ed
 1e-07 1 1 0
1  76 0 0 4.07525325615052
2  126 25 0 0 4.07525325615052
0

0101000
+80 0 -78 0 *
Ed
 1e-07 1 1 0
1  77 0 0 28.8972503617945
2  127 25 0 0 28.8972503617945
0

0101000
+78 0 -82 0 *
Wi

0101100
+81 0 +122 0 +79 0 +77 0 +76 0 *
Fa
0  1e-07 25 0

0111000
+75 0 *
Ve
1e-07
196.353111432706 130.778581765557 0
0 0

0101101
*
Ed
 1e-07 1 1 0
1  78 0 0.741155137481911 4.44573082489146
2  128 35 0 0.741155137481911 4.44573082489146
2  129 27 0 0.741155137481911 4.44573082489146
0

0101000
+119 0 -73 0 *
Ve
1e-07
196.353111432706 92.9898697539797 0
0 0

0101101
*
Ed
 1e-07 1 1 0
1  79 0 0 37.7887120115774
2  130 35 0 0 37.7887120115774
2  131 27 0 0 37.7887120115774
0

0101000
+73 0 -71 0 *
Ve
1e-07
255.259044862518 92.9898697539797 0
0 0

0101101
*
Ed
 1e-07 1 1 0
1  80 0 0 58.9059334298119
2  132 35 0 0 58.9059334298119
2  133 27 0 0 58.9059334298119
0

0101000
+71 0 -69 0 *
Ve
1e-07
255.259044862518 179.681620839363 0
0 0

0101101
*
Ed
 1e-07 1 1 0
1  81 0 0 86.6917510853835
2  134 35 0 0 86.6917510853835
2  135 27 0 0 86.6917510853835
0

0101000
+69 0 -67 0 *
Ve
1e-07
244.144717800289 179.681620839363 0
0 0

0101101
*
Ed
 1e-07 1 1 0
1  82 0 0 11.1143270622287
2  136 35 0 0 11.1143270622287
2  137 27 0 0 11.1143270622287
0

0101000
+67 0 -65 0 *
Ve
1e-07
214.506512301013 179.681620839363 0
0 0

0101101
*
Ed
 1e-07 1 1 0
1  83 0 0 29.6382054992764
2  138 36 0 0 29.6382054992764
2  139 27 0 0 29.6382054992764
2  140 37 0 0 29.6382054992764
0

0101000
+65 0 -63 0 *
Ve
1e-07
196.353111432706 179.681620839363 0
0 0

0101101
*
Ed
 1e-07 1 1 0
1  84 0 0 18.1534008683068
2  141 38 0 0 18.1534008683068
2  142 27 0 0 18.1534008683068
0

0101000
+63 0 -61 0 *
Ve
1e-07
196.353111432706 150.043415340087 0
0 0

0101101
*
Ed
 1e-07 1 1 0
1  85 0 0 29.6382054992764
2  143 38 0 0 29.6382054992764
2  144 27 0 0 29.6382054992764
0

0101000
+61 0 -59 0 *
Ed
 1e-07 1 1 0
1  86 0 0 3.70457568740954
2  145 38 0 0 3.70457568740954
2  146 27 0 0 3.70457568740954
0

0101000
+59 0 -117 0 *
Wi

0101100
-72 0 -70 0 -68 0 -66 0 -64 0 -62 0 -60 0 -58 0 -57 0 +116 0 
*
Fa
0  1e-07 27 0

0101000
+56 0 *
Ve
1e-07
132.630969609262 190.795947901592 0
0 0

0101101
*
Ed
 1e-07 1 1 0
1  87 0 0 4.44573082489146
2  147 29 0 0 4.44573082489146
0

0101000
+109 0 -54 0 *
Ve
1e-07
184.497829232996 190.795947901592 0
0 0

0101101
*
Ed
 1e-07 1 1 0
1  88 0 0 51.8668596237337
2  148 29 0 0 51.8668596237337
0

0101000
+54 0 -52 0 *
Ed
 1e-07 1 1 0
1  89 0 0 4.44573082489146
2  149 29 0 0 4.44573082489146
0

0101000
+52 0 -111 0 *
Wi

0101100
+53 0 +51 0 +50 0 +108 0 *
Fa
0  1e-07 29 0

0111000
+49 0 *
Ve
1.00000255795385e-07
118.923299565847 163.01013024602 0
0 0

0101101
*
Ed
 1e-07 1 1 0
1  90 0 0 4.44573082489146
2  150 31 0 0 4.44573082489146
0

0101000
+137 0 -47 0 *
Ve
1e-07
118.923299565847 183.386396526773 0
0 0

0101101
*
Ed
 1e-07 1 1 0
1  91 0 0 20.3762662807525
2  151 39 0 0 20.3762662807525
2  152 40 0 0 20.3762662807525
2  153 31 0 0 20.3762662807525
0

0101000
+47 0 -45 0 *
Ed
 1e-07 1 1 0
1  92 0 0 4.44573082489146
2  154 31 0 0 4.44573082489146
0

0101000
+45 0 -105 0 *
Wi

0101100
+46 0 +44 0 +43 0 +103 0 *
Fa
0  1e-07 31 0

0111000
+42 0 *
Ve
1e-07
62.9811866859624 163.01013024602 0
0 0

0101101
*
Ed
 1e-07 1 1 0
1  93 0 0 4.44573082489146
2  155 34 0 0 4.44573082489146
0

0101000
+159 0 -40 0 *
Ve
1e-07
81.5050651230101 163.01013024602 0
0 0

0101101
*
Ed
 1e-07 1 1 0
1  94 0 0 18.5238784370478
2  156 41 0 0 18.5238784370478
2  157 40 0 0 18.5238784370478
2  158 34 0 0 18.5238784370478
0

0101000
+40 0 -38 0 *
Ed
 1e-07 1 1 0
1  95 0 0 4.44573082489146
2  159 34 0 0 4.44573082489146
0

0101000
+38 0 -94 0 *
Wi

0101100
+39 0 +37 0 +36 0 +92 0 *
Fa
0  1e-07 34 0

0111000
+35 0 *
Ve
1e-07
214.506512301013 184.127351664255 0
0 0

0101101
*
Ed
 1e-07 1 1 0
1  96 0 0 4.44573082489146
2  160 37 0 0 4.44573082489146
0

0101000
+63 0 -33 0 *
Ve
1e-07
244.144717800289 184.127351664255 0
0 0

0101101
*
Ed
 1e-07 1 1 0
1  97 0 0 29.6382054992764
2  161 37 0 0 29.6382054992764
0

0101000
+33 0 -31 0 *
Ed
 1e-07 1 1 0
1  98 0 0 4.44573082489146
2  162 37 0 0 4.44573082489146
0

0101000
+31 0 -65 0 *
Wi

0101100
+32 0 +30 0 +29 0 +62 0 *
Fa
0  1e-07 37 0

0111000
+28 0 *
Ve
1e-07
73.7250361794501 230.807525325615 0
0 0

0101101
*
Ve
1e-07
61.1287988422576 230.807525325615 0
0 0

0101101
*
Ed
 1e-07 1 1 0
1  99 0 0 12.5962373371925
2  163 42 0 0 12.5962373371925
2  164 40 0 0 12.5962373371925
2  165 43 0 0 12.5962373371925
0

0101000
+26 0 -25 0 *
Ve
1e-07
47.7916063675832 230.807525325615 0
0 0

0101101
*
Ed
 1e-07 1 1 0
1  100 0 0 13.3371924746744
2  166 44 0 0 13.3371924746744
2  167 40 0 0 13.3371924746744
0

0101000
+25 0 -23 0 *
Ve
1e-07
47.7916063675832 163.01013024602 0
0 0

0101101
*
Ed
 1e-07 1 1 0
1  101 0 0 67.7973950795948
2  168 44 0 0 67.7973950795948
2  169 40 0 0 67.7973950795948
0

0101000
+23 0 -21 0 *
Ed
 1e-07 1 1 0
1  102 0 0 15.1895803183792
2  170 44 0 0 15.1895803183792
2  171 40 0 0 15.1895803183792
0

0101000
+21 0 -40 0 *
Ed
 1e-07 1 1 0
1  103 0 0 37.4182344428369
2  172 45 0 0 37.4182344428369
2  173 40 0 0 37.4182344428369
0

0101000
+38 0 -47 0 *
Ve
1e-07
118.923299565847 245.626628075253 0
0 0

0101101
*
Ed
 1e-07 1 1 0
1  104 0 0 62.2402315484805
2  174 46 0 0 62.2402315484805
2  175 40 0 0 62.2402315484805
0

0101000
+45 0 -17 0 *
Ve
1e-07
78.1707670043415 245.626628075253 0
0 0

0101101
*
Ed
 1e-07 1 1 0
1  105 0 0 40.7525325615051
2  176 46 0 0 40.7525325615051
2  177 40 0 0 40.7525325615051
0

0101000
+17 0 -15 0 *
Ve
1e-07
78.1707670043415 230.807525325615 0
0 0

0101101
*
Ed
 1e-07 1 1 0
1  106 0 0 14.8191027496382
2  178 46 0 0 14.8191027496382
2  179 40 0 0 14.8191027496382
0

0101000
+15 0 -13 0 *
Ed
 1e-07 1 1 0
1  107 0 0 4.44573082489146
2  180 46 0 0 4.44573082489146
2  181 40 0 0 4.44573082489146
0

0101000
+13 0 -26 0 *
Wi

0101100
-24 0 -22 0 -20 0 -19 0 -37 0 -18 0 -44 0 -16 0 -14 0 -12 0 
-11 0 *
Fa
0  1e-07 40 0

0101000
+10 0 *
Ve
1e-07
61.1287988422576 235.253256150507 0
0 0

0101101
*
Ed
 1e-07 1 1 0
1  108 0 0 4.44573082489146
2  182 43 0 0 4.44573082489146
0

0101000
+25 0 -8 0 *
Ve
1e-07
73.7250361794501 235.253256150507 0
0 0

0101101
*
Ed
 1e-07 1 1 0
1  109 0 0 12.5962373371925
2  183 43 0 0 12.5962373371925
0

0101000
+8 0 -6 0 *
Ed
 1e-07 1 1 0
1  110 0 0 4.44573082489146
2  184 43 0 0 4.44573082489146
0

0101000
+6 0 -26 0 *
Wi

0101100
+7 0 +5 0 +4 0 +24 0 *
Fa
0  1e-07 43 0

0111000
+3 0 *
Sh

0101000
+230 0 +211 0 +182 0 +175 0 +171 0 +162 0 +155 0 +148 0 +138 0 +101 0 
+90 0 +83 0 +74 0 +55 0 +48 0 +41 0 +34 0 +27 0 +9 0 +2 0 
*

+1 0 