
CASCADE Topology V3, (c) Open Cascade
Locations 0
Curve2ds 183
1 7.1885339140043527 1.9468946017095163 -1 0 
1 19.019662647469872 -16.024440183301365 -1 0 
1 7.1885339140043527 1.9468946017095163 -1 0 
1 18.75710675425001 -0.18483176598508066 -1 0 
1 4.6425948194611593 -16.024440183301365 -1 0 
1 -15.687951583687521 -0.18483176598508066 0 1 
1 -29.802463518476372 -16.024440183301365 0 1 
1 -15.687951583687521 31.864048600617679 1 0 
1 -29.802463518476372 16.024440183301394 1 0 
1 -8.5363840228801706 -1.9468946017095163 1 0 
1 -10.932561994214943 16.024440183301394 1 0 
1 -8.5363840228801706 -1.9468946017095163 1 0 
1 -29.475753171023221 -26.294518782264561 1 0 
1 6.1402060515453982 16.024440183301394 1 0 
1 -5.8134957040922144 -26.294518782264561 0 -1 
1 29.802463518476408 16.024440183301394 0 -1 
1 -5.8134957040922144 -58.34339914886732 -1 0 
1 29.802463518476408 -16.024440183301365 -1 0 
1 7.1885339140043527 -1.9468946017095021 0 1 
1 -7.1885339140043598 1.9468946017095163 0 -1 
1 -7.1885339140043598 -1.9468946017095021 1 0 
1 8.5363840228801706 -1.9468946017095163 0 1 
1 8.5363840228801706 1.9468946017095163 -1 0 
1 0 -43.430725730442987 -1 0 
1 -8.5363840228801706 1.9468946017095163 0 -1 
1 3.4814345082743472 -41.746517720000924 0 1 
1 -35.942669570021771 -24.560824206181564 0 1 
1 3.4814345082743472 26.245032216623599 1 0 
1 -35.942669570021771 43.430725730442958 1 0 
1 -18.12109590821931 -1.9468946017094879 1 0 
1 -17.072768045760341 43.430725730442958 1 0 
1 -10.306329400344936 64.460721882040417 1 0 
1 19.169423770678286 43.430725730442958 1 0 
1 6.4669163989985599 64.460721882040417 0 -1 
1 35.942669570021785 43.430725730442958 0 -1 
1 6.4669163989985599 -22.400729578845528 -1 0 
1 35.942669570021785 -43.430725730442987 -1 0 
1 3.181949940573908 35.757837804036711 -1 0 
1 -17.072768045760341 -43.430725730442987 -1 0 
1 1.9468946017095163 -9.4349507621307112 0 1 
1 -35.942669570021771 -43.430725730442987 0 1 
1 18.121095908219317 -1.9468946017094879 0 1 
1 18.121095908219317 1.9468946017095448 -1 0 
1 -18.12109590821931 1.9468946017095448 0 -1 
1 -1.9468946017095163 -9.4349507621307112 1 0 
1 1.9468946017095163 9.4349507621307112 -1 0 
1 -1.9468946017095163 9.4349507621307112 0 -1 
1 71.606591031941434 63.248939007028611 0 -1 
1 89.91191368420597 12.610596743539553 -1 0 
1 80.592258424446882 -32.598179846362797 -1 0 
1 9.9394738909075215 12.610596743539553 0 1 
1 0.6198186311484335 -32.598179846362797 0 1 
1 9.9394738909075215 38.3695099353885 -1 0 
1 0.6198186311484335 -6.8392666545138496 -1 0 
1 6.0456846874884889 38.3695099353885 0 -1 
1 -3.2739705722705992 -6.8392666545138496 0 -1 
1 44.723555828173602 26.738039638415117 -1 0 
1 -3.2738705722705959 -6.8394666545138563 -1 0 
1 31.66714522237325 -13.843681720358745 0 1 
1 -21.844349850115179 -10.733055857932882 0 1 
1 31.66714522237325 -9.9498925169397126 -1 0 
1 -21.844349850115179 -6.8392666545138496 -1 0 
1 16.990555147947703 -9.9498925169397126 0 1 
1 -36.520939924540727 -6.8392666545138496 0 1 
1 16.990555147947703 19.103765385494555 1 0 
1 -36.520939924540727 22.214391247920418 1 0 
1 31.66714522237325 19.103765385494555 0 1 
1 -21.844349850115179 22.214391247920418 0 1 
1 1.9468946017095163 -9.2851896389222901 0 1 
1 -21.844349850115179 26.108180451339436 0 1 
1 -9.1651400858930288 -42.598986884243402 0 1 
1 -21.844349850115179 44.67855972918403 0 1 
1 -9.1651400858930288 12.213584210039784 1 0 
1 -21.844349850115179 99.491130823467216 1 0 
1 -8.9856673925054622 -1.9468946017095163 1 0 
1 27.726581931873184 99.491130823467216 1 0 
1 -26.321029010202039 -5.504325903562318 1 0 
1 45.69791671688408 99.491130823467216 1 0 
1 -0.41235469514468548 -5.504325903562318 0 -1 
1 71.606591031941434 99.491130823467216 0 -1 
1 -19.581740787106554 35.757837804036711 0 -1 
1 71.606591031941434 44.379037482767188 0 -1 
1 -19.581740787106554 -4.0786209694040991 1 0 
1 71.606591031941434 4.5425787093263779 1 0 
1 14.863317550830985 -4.0786209694040991 0 -1 
1 106.05164936987897 4.5425787093263779 0 -1 
1 14.863317550830985 -41.219379525093274 -1 0 
1 106.05164936987897 -32.598179846362797 -1 0 
1 10.782800871006536 1.9468946017095163 -1 0 
1 102.15786016645995 -32.598179846362797 -1 0 
1 6.0456846874884889 38.3695099353885 0 -1 
1 44.723455828173599 26.738239638415124 0 -1 
1 6.0456846874884889 -13.148316448309387 -1 0 
1 44.723455828173599 -24.779586745282764 -1 0 
1 -84.709555976816489 -13.148316448309387 0 1 
1 -46.031784836131379 -24.779586745282764 0 1 
1 1.9468946017094879 -9.8842341317559814 0 1 
1 -46.031784836131379 -19.388186309779499 0 1 
1 1.9468946017094879 -9.8842341317559814 0 1 
1 1.9468946017094879 -2.9952224641684779 0 1 
1 -46.031784836131379 0.38028195373247797 0 1 
1 1.9468946017095163 -8.2368617764633143 0 1 
1 -46.031784836131379 6.370726882069448 0 1 
1 -45.114550640345698 -13.843681720358745 1 0 
1 -50.62861931238993 22.844450434996091 1 0 
1 31.66714522237325 -13.843681720358745 0 1 
1 26.153076550329018 22.844450434996091 0 1 
1 -1.9468946017095163 -9.2851896389222901 1 0 
1 1.9468946017095163 9.2851896389223043 -1 0 
1 -1.9468946017095163 9.2851896389223043 0 -1 
1 39.408086640333153 -19.448034780577473 0 -1 
1 -1.9468946017095163 9.2851896389223043 0 -1 
1 8.9856673925054338 -1.9468946017095163 0 1 
1 -8.2368617764632432 -13.927784458383456 1 0 
1 -8.9856673925054622 1.9468946017095163 1 0 
1 -8.9856673925054622 1.9468946017095163 0 -1 
1 10.782800871006536 -1.9468946017095092 0 1 
1 -10.782800871006529 1.9468946017095163 0 -1 
1 -10.782800871006529 -1.9468946017095092 1 0 
1 -1.9468946017095448 -9.8842341317559814 1 0 
1 1.9468946017094879 9.8842341317559956 -1 0 
1 -1.9468946017095448 9.8842341317559956 0 -1 
1 -1.9468946017095163 -8.2368617764633143 1 0 
1 1.9468946017095163 8.2368617764633285 -1 0 
1 -1.9468946017095163 8.2368617764633285 0 -1 
1 -22.044596681817495 12.213584210039784 1 0 
1 30.422419247827719 35.364536313705713 1 0 
1 -13.058929289312061 12.213584210039784 0 -1 
1 39.408086640333153 35.364536313705713 0 -1 
1 31.66714522237325 22.997554588913573 -1 0 
1 43.301875843752185 -38.018414058422067 -1 0 
1 8.6861451460885633 1.9468946017095021 -1 0 
1 5.5620727952293123 -38.018414058422067 -1 0 
1 12.271854324621756 3.4530636122627953 -1 0 
1 -11.810217496947871 -38.018414058422067 -1 0 
1 1.9468946017095163 -13.927784458383442 0 1 
1 -28.882985542708212 -38.018414058422067 0 1 
1 1.9468946017095163 -13.927784458383442 0 1 
1 0.58926110287535494 -32.260352103394553 0 1 
1 -28.882985542708212 -10.162845141655168 0 1 
1 0.58926110287535494 -28.366562899975548 -1 0 
1 -28.882985542708212 -6.2690559382361641 -1 0 
1 -12.589717739465954 -28.366562899975548 0 1 
1 -42.061964385049521 -6.2690559382361641 0 1 
1 -12.589717739465954 13.267029351966329 1 0 
1 -42.061964385049521 35.364536313705713 1 0 
1 -9.8842341317559317 -1.9468946017095163 1 0 
1 10.653950984315742 35.364536313705713 1 0 
1 35.643147323605007 13.927784458383428 -1 0 
1 -35.643147323604865 13.927784458383428 0 -1 
1 -35.643147323604865 -13.927784458383456 1 0 
1 -17.671812538593969 -13.927784458383456 1 0 
1 9.7344730085476527 -13.927784458383456 1 0 
1 19.169423770678364 -13.927784458383456 1 0 
1 35.643147323605007 -13.927784458383456 0 1 
1 8.6861451460885633 -1.9468946017095163 0 1 
1 -8.6861451460886201 1.9468946017095021 0 -1 
1 -8.6861451460886201 -1.9468946017095163 1 0 
1 -9.7344730085475817 14.526828951217126 1 0 
1 -1.9468946017095163 -13.927784458383442 1 0 
1 1.9468946017095163 13.927784458383456 -1 0 
1 -1.9468946017095163 13.927784458383456 0 -1 
1 9.8842341317560454 -1.9468946017095163 0 1 
1 9.8842341317560454 1.9468946017095163 -1 0 
1 -9.8842341317559317 1.9468946017095163 0 -1 
1 -6.0726578261496229 19.103765385494555 1 0 
1 7.6378172836296017 14.526828951217126 1 0 
1 13.09676594452867 19.103765385494555 0 -1 
1 26.807241054307895 14.526828951217126 0 -1 
1 13.09676594452867 -9.9498925169397126 -1 0 
1 26.807241054307895 -14.526828951217141 -1 0 
1 -40.517716164087147 -9.9498925169397126 0 1 
1 -26.807241054307923 -14.526828951217141 0 1 
1 1.9468946017095163 -6.8890116675875106 0 1 
1 -26.807241054307923 -5.840683805128549 0 1 
1 1.9468946017095163 -6.8890116675875106 0 1 
1 -4.8009137211385848 -7.0302150123268774 0 1 
1 -26.807241054307923 7.9373395300464722 0 1 
1 -4.8009137211385848 -0.44072559115622312 1 0 
1 -26.807241054307923 14.526828951217126 1 0 
1 -1.9468946017095163 -6.8890116675875106 1 0 
1 1.9468946017095163 6.8890116675875106 -1 0 
1 -1.9468946017095163 6.8890116675875106 0 -1 
Curves 109
1 23.766258246936857 99.994669960024709 0 1 0 0 
1 38.14332607494557 99.994669960024709 0 1 0 0 
1 72.588384412883102 99.994669960024709 0 0 1 0 
1 72.588384412883102 132.04355032662747 0 -1 0 0 
1 53.718482888621672 132.04355032662747 0 -1 0 0 
1 36.645714842861331 132.04355032662747 0 -1 0 0 
1 12.983457375930323 132.04355032662747 0 0 -1 0 
1 12.983457375930323 99.994669960024709 0 1 0 0 
1 23.766258246936857 96.10088075660569 0 0 1 0 
1 38.14332607494557 99.994669960024709 0 0 -1 0 
1 38.14332607494557 96.10088075660569 0 -1 0 0 
1 36.645714842861331 132.04355032662747 0 0 1 0 
1 36.645714842861331 135.9373395300465 0 1 0 0 
1 53.718482888621672 135.9373395300465 0 0 -1 0 
1 72.588384412883102 154.80724105430792 0 0 1 0 
1 72.588384412883102 222.79879099093245 0 -1 0 0 
1 53.718482888621672 222.79879099093245 0 -1 0 0 
1 17.476291072183045 222.79879099093245 0 -1 0 0 
1 0.70304527283954832 222.79879099093245 0 0 -1 0 
1 0.70304527283954832 135.9373395300465 0 1 0 0 
1 53.718482888621672 135.9373395300465 0 1 0 0 
1 72.588384412883102 135.9373395300465 0 0 1 0 
1 17.476291072183045 222.79879099093245 0 0 1 0 
1 17.476291072183045 226.69258019435148 0 1 0 0 
1 53.718482888621672 226.69258019435148 0 0 -1 0 
1 76.482173616302134 135.9373395300465 0 -1 0 0 
1 72.588384412883102 154.80724105430792 0 1 0 0 
1 76.482173616302134 154.80724105430792 0 0 -1 0 
1 67.496506223796686 58.960122200916516 0 1 0 0 
1 147.46894601709513 58.960122200916516 0 0 1 0 
1 147.46894601709513 84.719035392765463 0 1 0 0 
1 151.36273522051417 84.719035392765463 0 0 -1 0 
1 151.36263522051416 84.718835392765456 0 1 0 0 
1 169.93311449835875 80.82524618934643 0 0 1 0 
1 169.93311449835875 84.719035392765463 0 1 0 0 
1 184.6097045727843 84.719035392765463 0 0 1 0 
1 184.6097045727843 113.77269329519973 0 -1 0 0 
1 169.93311449835875 113.77269329519973 0 0 1 0 
1 169.93311449835875 117.66648249861875 0 0 1 0 
1 169.93311449835875 136.23686177646334 0 0 1 0 
1 169.93311449835875 191.04943287074653 0 -1 0 0 
1 120.36218271637038 191.04943287074653 0 -1 0 0 
1 102.39084793135949 191.04943287074653 0 -1 0 0 
1 76.482173616302134 191.04943287074653 0 0 -1 0 
1 76.482173616302134 135.9373395300465 0 0 -1 0 
1 76.482173616302134 96.10088075660569 0 -1 0 0 
1 42.037115278364595 96.10088075660569 0 0 -1 0 
1 42.037115278364595 58.960122200916516 0 1 0 0 
1 45.930904481783621 58.960122200916516 0 1 0 0 
1 151.36273522051417 84.719035392765463 0 0 -1 0 
1 151.36273522051417 33.201209009067576 0 1 0 0 
1 242.11797588481915 33.201209009067576 0 0 1 0 
1 242.11797588481915 38.59260944457084 0 0 1 0 
1 242.11797588481915 58.361077708082817 0 0 1 0 
1 242.11797588481915 64.351522636419787 0 0 1 0 
1 246.7148103610777 80.82524618934643 0 -1 0 0 
1 169.93311449835875 80.82524618934643 0 0 1 0 
1 173.82690370177778 117.66648249861875 0 -1 0 0 
1 169.93311449835875 136.23686177646334 0 1 0 0 
1 173.82690370177778 136.23686177646334 0 0 -1 0 
1 102.39084793135949 191.04943287074653 0 0 1 0 
1 120.36218271637038 194.94322207416556 0 -1 0 0 
1 120.36218271637038 194.94322207416556 0 0 -1 0 
1 45.930904481783621 55.06633299749749 0 0 1 0 
1 67.496506223796686 58.960122200916516 0 0 -1 0 
1 67.496506223796686 55.06633299749749 0 -1 0 0 
1 246.01176508823818 38.59260944457084 0 -1 0 0 
1 242.11797588481915 58.361077708082817 0 1 0 0 
1 246.01176508823818 58.361077708082817 0 0 -1 0 
1 246.01176508823818 64.351522636419787 0 -1 0 0 
1 242.11797588481915 80.82524618934643 0 1 0 0 
1 246.01176508823818 80.82524618934643 0 0 -1 0 
1 182.81257109428321 191.04943287074653 0 -1 0 0 
1 173.82690370177778 191.04943287074653 0 0 -1 0 
1 169.93311449835875 117.66648249861875 0 1 0 0 
1 207.67291754688162 117.66648249861875 0 1 0 0 
1 225.0452078390588 117.66648249861875 0 1 0 0 
1 242.11797588481915 117.66648249861875 0 0 1 0 
1 242.11797588481915 145.52205141538565 0 0 1 0 
1 242.11797588481915 149.41584061880465 0 1 0 0 
1 255.29695472716045 149.41584061880465 0 0 1 0 
1 255.29695472716045 191.04943287074653 0 -1 0 0 
1 202.58103935779519 191.04943287074653 0 -1 0 0 
1 76.482173616302134 222.79879099093245 0 1 0 0 
1 147.76846826351201 222.79879099093245 0 0 -1 0 
1 147.76846826351201 194.94322207416556 0 -1 0 0 
1 129.79713347850111 194.94322207416556 0 -1 0 0 
1 102.39084793135949 194.94322207416556 0 -1 0 0 
1 92.955897169228777 194.94322207416556 0 -1 0 0 
1 76.482173616302134 194.94322207416556 0 0 1 0 
1 207.67291754688162 113.77269329519973 0 0 1 0 
1 225.0452078390588 117.66648249861875 0 0 -1 0 
1 225.0452078390588 113.77269329519973 0 -1 0 0 
1 246.01176508823818 117.66648249861875 0 -1 0 0 
1 242.11797588481915 145.52205141538565 0 1 0 0 
1 246.01176508823818 145.52205141538565 0 0 -1 0 
1 182.81257109428321 191.04943287074653 0 0 1 0 
1 182.81257109428321 194.94322207416556 0 1 0 0 
1 202.58103935779519 194.94322207416556 0 0 -1 0 
1 207.67291754688162 113.77269329519973 0 -1 0 0 
1 188.50349377620333 113.77269329519973 0 0 -1 0 
1 188.50349377620333 84.719035392765463 0 1 0 0 
1 242.11797588481915 84.719035392765463 0 0 1 0 
1 242.11797588481915 93.405180538854054 0 0 1 0 
1 242.11797588481915 107.18320387402908 0 0 1 0 
1 242.11797588481915 113.77269329519973 0 -1 0 0 
1 246.01176508823818 93.405180538854054 0 -1 0 0 
1 242.11797588481915 107.18320387402908 0 1 0 0 
1 246.01176508823818 107.18320387402908 0 0 -1 0 
Polygon3D 0
PolygonOnTriangulations 0
Surfaces 45
1 42.785920894406729 116.01911014332607 0 -0 -0 -1 -1 0 0 0 1 -0 
1 30.95479216094121 98.047775358315192 0 -0 -0 -1 -1 0 0 0 1 -0 
1 30.95479216094121 98.047775358315192 0 -0 -0 -1 -1 0 0 0 1 -0 
1 56.90043282919558 100.17950172600979 0 -0 -0 -1 -1 0 0 0 1 -0 
1 45.182098865741501 133.99044492833698 0 -0 -0 -1 -1 0 0 0 1 -0 
1 45.182098865741501 133.99044492833698 0 -0 -0 -1 -1 0 0 0 1 -0 
1 7.1699616718381085 158.33806910889203 0 -0 -0 -1 -1 0 0 0 1 -0 
1 36.645714842861331 179.36806526048949 0 -0 -0 -1 -1 0 0 0 1 -0 
1 76.069818921157449 196.55375877430885 0 -0 -0 -1 -1 0 0 0 1 -0 
1 35.597386980402362 224.74568559264193 0 -0 -0 -1 -1 0 0 0 1 -0 
1 7.1699616718381085 158.33806910889203 0 -0 -0 -1 -1 0 0 0 1 -0 
1 56.90043282919558 100.17950172600979 0 -0 -0 -1 -1 0 0 0 1 -0 
1 74.535279014592618 145.37229029217721 0 -0 -0 -1 -1 0 0 0 1 -0 
1 148.08876464824357 91.558302047279312 0 -0 -0 -1 -1 0 0 0 1 -0 
1 157.40841990800266 46.349525457376963 0 -0 -0 -1 -1 0 0 0 1 -0 
1 196.08619104868777 57.980795754350339 0 -0 -0 -1 -1 0 0 0 1 -0 
1 201.600259720732 94.668927909705175 0 -0 -0 -1 -1 0 0 0 1 -0 
1 171.88000910006826 126.95167213754104 0 -0 -0 -1 -1 0 0 0 1 -0 
1 160.76797441246572 178.83584866070674 0 -0 -0 -1 -1 0 0 0 1 -0 
1 111.37651532386492 192.99632747245604 0 -0 -0 -1 -1 0 0 0 1 -0 
1 76.069818921157449 196.55375877430885 0 -0 -0 -1 -1 0 0 0 1 -0 
1 56.90043282919558 100.17950172600979 0 -0 -0 -1 -1 0 0 0 1 -0 
1 56.713705352790157 57.013227599206999 0 -0 -0 -1 -1 0 0 0 1 -0 
1 157.40841990800266 46.349525457376963 0 -0 -0 -1 -1 0 0 0 1 -0 
1 244.06487048652863 48.476843576326822 0 -0 -0 -1 -1 0 0 0 1 -0 
1 244.06487048652863 48.476843576326822 0 -0 -0 -1 -1 0 0 0 1 -0 
1 244.06487048652863 61.356300172251295 0 -0 -0 -1 -1 0 0 0 1 -0 
1 244.06487048652866 72.588384412883102 0 -0 -0 -1 -1 0 0 0 1 -0 
1 201.600259720732 94.668927909705175 0 -0 -0 -1 -1 0 0 0 1 -0 
1 171.88000910006826 126.95167213754104 0 -0 -0 -1 -1 0 0 0 1 -0 
1 213.23499034211093 155.68489655704082 0 -0 -0 -1 -1 0 0 0 1 -0 
1 112.12532093990714 208.87100653254902 0 -0 -0 -1 -1 0 0 0 1 -0 
1 160.76797441246572 178.83584866070674 0 -0 -0 -1 -1 0 0 0 1 -0 
1 201.600259720732 94.668927909705175 0 -0 -0 -1 -1 0 0 0 1 -0 
1 216.35906269297018 115.71958789690925 0 -0 -0 -1 -1 0 0 0 1 -0 
1 237.31706216368056 114.21341888635595 0 -0 -0 -1 -1 0 0 0 1 -0 
1 244.06487048652866 131.59426695700219 0 -0 -0 -1 -1 0 0 0 1 -0 
1 244.06487048652866 131.59426695700219 0 -0 -0 -1 -1 0 0 0 1 -0 
1 242.7072369876945 177.7824035187802 0 -0 -0 -1 -1 0 0 0 1 -0 
1 192.69680522603926 192.99632747245604 0 -0 -0 -1 -1 0 0 0 1 -0 
1 215.31073483051122 99.245864343982603 0 -0 -0 -1 -1 0 0 0 1 -0 
1 201.600259720732 94.668927909705175 0 -0 -0 -1 -1 0 0 0 1 -0 
1 244.06487048652866 100.29419220644156 0 -0 -0 -1 -1 0 0 0 1 -0 
1 244.06487048652866 100.29419220644156 0 -0 -0 -1 -1 0 0 0 1 -0 
1 237.31706216368056 114.21341888635595 0 -0 -0 -1 -1 0 0 0 1 -0 
Triangulations 0

TShapes 240
Ve
1e-07
23.7662582469369 99.9946699600247 0
0 0

0101101
*
Ve
1e-07
38.1433260749456 99.9946699600247 0
0 0

0101101
*
Ed
 1e-07 1 1 0
1  1 0 0 14.3770678280087
2  1 2 0 0 14.3770678280087
2  2 1 0 0 14.3770678280087
2  3 3 0 0 14.3770678280087
0

0101000
+240 0 -239 0 *
Ve
1e-07
72.5883844128831 99.9946699600247 0
0 0

0101101
*
Ed
 1e-07 1 1 0
1  2 0 0 34.4450583379375
2  4 4 0 0 34.4450583379375
2  5 1 0 0 34.4450583379375
0

0101000
+239 0 -237 0 *
Ve
1e-07
72.5883844128831 132.043550326627 0
0 0

0101101
*
Ed
 1e-07 1 1 0
1  3 0 0 32.0488803666028
2  6 4 0 0 32.0488803666028
2  7 1 0 0 32.0488803666028
0

0101000
+237 0 -235 0 *
Ve
1e-07
53.7184828886217 132.043550326627 0
0 0

0101101
*
Ed
 1e-07 1 1 0
1  4 0 0 18.8699015242614
2  8 4 0 0 18.8699015242614
2  9 1 0 0 18.8699015242614
0

0101000
+235 0 -233 0 *
Ve
1e-07
36.6457148428613 132.043550326627 0
0 0

0101101
*
Ed
 1e-07 1 1 0
1  5 0 0 17.0727680457603
2  10 5 0 0 17.0727680457603
2  11 1 0 0 17.0727680457603
2  12 6 0 0 17.0727680457603
0

0101000
+233 0 -231 0 *
Ve
1e-07
12.9834573759303 132.043550326627 0
0 0

0101101
*
Ed
 1e-07 1 1 0
1  6 0 0 23.662257466931
2  13 7 0 0 23.662257466931
2  14 1 0 0 23.662257466931
0

0101000
+231 0 -229 0 *
Ve
1e-07
12.9834573759303 99.9946699600247 0
0 0

0101101
*
Ed
 1e-07 1 1 0
1  7 0 0 32.0488803666028
2  15 7 0 0 32.0488803666028
2  16 1 0 0 32.0488803666028
0

0101000
+229 0 -227 0 *
Ed
 1e-07 1 1 0
1  8 0 0 10.7828008710065
2  17 7 0 0 10.7828008710065
2  18 1 0 0 10.7828008710065
0

0101000
+227 0 -240 0 *
Wi

0101100
-238 0 -236 0 -234 0 -232 0 -230 0 -228 0 -226 0 -225 0 *
Fa
0  1e-07 1 0

0101000
+224 0 *
Ve
1e-07
23.7662582469369 96.1008807566057 0
0 0

0101101
*
Ed
 1e-07 1 1 0
1  9 0 0 3.89378920341902
2  19 3 0 0 3.89378920341902
0

0101000
+222 0 -240 0 *
Ve
1e-07
38.1433260749456 96.1008807566057 0
0 0

0101101
*
Ed
 1e-07 1 1 0
1  10 0 0 3.89378920341902
2  20 3 0 0 3.89378920341902
0

0101000
+239 0 -220 0 *
Ed
 1e-07 1 1 0
1  11 0 0 14.3770678280087
2  21 3 0 0 14.3770678280087
0

0101000
+220 0 -222 0 *
Wi

0101100
+221 0 +238 0 +219 0 +218 0 *
Fa
0  1e-07 3 0

0111000
+217 0 *
Ve
1e-07
36.6457148428613 135.937339530047 0
0 0

0101101
*
Ed
 1e-07 1 1 0
1  12 0 0 3.89378920341903
2  22 6 0 0 3.89378920341903
0

0101000
+231 0 -215 0 *
Ve
1e-07
53.7184828886217 135.937339530047 0
0 0

0101101
*
Ed
 1e-07 1 1 0
1  13 0 0 17.0727680457603
2  23 6 0 0 17.0727680457603
2  24 8 0 0 17.0727680457603
0

0101000
+215 0 -213 0 *
Ed
 1e-07 1 1 0
1  14 0 0 3.89378920341903
2  25 6 0 0 3.89378920341903
0

0101000
+213 0 -233 0 *
Wi

0101100
+214 0 +212 0 +211 0 +230 0 *
Fa
0  1e-07 6 0

0111000
+210 0 *
Ve
1e-07
72.5883844128831 154.807241054308 0
0 0

0101101
*
Ve
1e-07
72.5883844128831 222.798790990932 0
0 0

0101101
*
Ed
 1e-07 1 1 0
1  15 0 0 67.9915499366245
2  26 9 0 0 67.9915499366245
2  27 8 0 0 67.9915499366245
0

0101000
+208 0 -207 0 *
Ve
1e-07
53.7184828886217 222.798790990932 0
0 0

0101101
*
Ed
 1e-07 1 1 0
1  16 0 0 18.8699015242614
2  28 9 0 0 18.8699015242614
2  29 8 0 0 18.8699015242614
0

0101000
+207 0 -205 0 *
Ve
1e-07
17.476291072183 222.798790990932 0
0 0

0101101
*
Ed
 1e-07 1 1 0
1  17 0 0 36.2421918164386
2  30 10 0 0 36.2421918164386
2  31 8 0 0 36.2421918164386
0

0101000
+205 0 -203 0 *
Ve
1e-07
0.703045272839548 222.798790990932 0
0 0

0101101
*
Ed
 1e-07 1 1 0
1  18 0 0 16.7732457993435
2  32 11 0 0 16.7732457993435
2  33 8 0 0 16.7732457993435
0

0101000
+203 0 -201 0 *
Ve
1e-07
0.703045272839548 135.937339530047 0
0 0

0101101
*
Ed
 1e-07 1 1 0
1  19 0 0 86.8614514608859
2  34 11 0 0 86.8614514608859
2  35 8 0 0 86.8614514608859
0

0101000
+201 0 -199 0 *
Ed
 1e-07 1 1 0
1  20 0 0 35.9426695700218
2  36 11 0 0 35.9426695700218
2  37 8 0 0 35.9426695700218
0

0101000
+199 0 -215 0 *
Ve
1.0000051159077e-07
72.5883844128831 135.937339530047 0
0 0

0101101
*
Ed
 1e-07 1 1 0
1  21 0 0 18.8699015242614
2  38 12 0 0 18.8699015242614
2  39 8 0 0 18.8699015242614
0

0101000
+213 0 -196 0 *
Ed
 1e-07 1 1 0
1  22 0 0 18.8699015242614
2  40 13 0 0 18.8699015242614
2  41 8 0 0 18.8699015242614
0

0101000
+196 0 -208 0 *
Wi

0101100
-206 0 -204 0 -202 0 -200 0 -198 0 -197 0 -212 0 -195 0 -194 0 *
Fa
0  1e-07 8 0

0101000
+193 0 *
Ve
1e-07
17.476291072183 226.692580194351 0
0 0

0101101
*
Ed
 1e-07 1 1 0
1  23 0 0 3.89378920341903
2  42 10 0 0 3.89378920341903
0

0101000
+203 0 -191 0 *
Ve
1e-07
53.7184828886217 226.692580194351 0
0 0

0101101
*
Ed
 1e-07 1 1 0
1  24 0 0 36.2421918164386
2  43 10 0 0 36.2421918164386
0

0101000
+191 0 -189 0 *
Ed
 1e-07 1 1 0
1  25 0 0 3.89378920341903
2  44 10 0 0 3.89378920341903
0

0101000
+189 0 -205 0 *
Wi

0101100
+190 0 +188 0 +187 0 +202 0 *
Fa
0  1e-07 10 0

0111000
+186 0 *
Ve
1e-07
76.4821736163021 135.937339530047 0
0 0

0101101
*
Ed
 1e-07 1 1 0
1  26 0 0 3.89378920341903
2  45 13 0 0 3.89378920341903
0

0101000
+184 0 -196 0 *
Ve
1e-07
76.4821736163021 154.807241054308 0
0 0

0101101
*
Ed
 1e-07 1 1 0
1  27 0 0 3.89378920341903
2  46 13 0 0 3.89378920341903
0

0101000
+208 0 -182 0 *
Ed
 1e-07 1 1 0
1  28 0 0 18.8699015242614
2  47 13 0 0 18.8699015242614
2  48 14 0 0 18.8699015242614
0

0101000
+182 0 -184 0 *
Wi

0101100
+183 0 +194 0 +181 0 +180 0 *
Fa
0  1e-07 13 0

0111000
+179 0 *
Ve
1e-07
67.4965062237967 58.9601222009165 0
0 0

0101101
*
Ve
1e-07
147.468946017095 58.9601222009165 0
0 0

0101101
*
Ed
 1e-07 1 1 0
1  29 0 0 79.9724397932984
2  49 15 0 0 79.9724397932984
2  50 14 0 0 79.9724397932984
0

0101000
+177 0 -176 0 *
Ve
1e-07
147.468946017095 84.7190353927655 0
0 0

0101101
*
Ed
 1e-07 1 1 0
1  30 0 0 25.7589131918489
2  51 15 0 0 25.7589131918489
2  52 14 0 0 25.7589131918489
0

0101000
+176 0 -174 0 *
Ve
1e-07
151.362735220514 84.7190353927655 0
0 0

0101101
*
Ed
 1e-07 1 1 0
1  31 0 0 3.89378920341903
2  53 15 0 0 3.89378920341903
2  54 14 0 0 3.89378920341903
0

0101000
+174 0 -172 0 *
Ve
1e-07
151.362735220514 84.7188353927655 0
0 0

0101101
*
Ed
 1e-07 1 1 0
1  32 0 0 0.000200000000006639
2  55 15 0 0 0.000200000000006639
2  56 14 0 0 0.000200000000006639
0

0101000
+172 0 -170 0 *
Ve
1e-07
169.933114498359 84.7188353927655 0
0 0

0101101
*
Ed
 1e-07 1 1 0
1  33 0 0.00010000000000332 18.5704792778446
2  57 16 0 0.00010000000000332 18.5704792778446
2  58 14 0 0.00010000000000332 18.5704792778446
0

0101000
+170 0 -168 0 *
Ve
1e-07
169.933114498359 84.7190353927655 0
0 0

0101101
*
Ed
 1e-07 1 1 0
1  34 0 3.89358920341903 3.89378920341903
2  59 17 0 3.89358920341903 3.89378920341903
2  60 14 0 3.89358920341903 3.89378920341903
0

0101000
+168 0 -166 0 *
Ve
1e-07
184.609704572784 84.7190353927655 0
0 0

0101101
*
Ed
 1e-07 1 1 0
1  35 0 0 14.6765900744255
2  61 17 0 0 14.6765900744255
2  62 14 0 0 14.6765900744255
0

0101000
+166 0 -164 0 *
Ve
1e-07
184.609704572784 113.7726932952 0
0 0

0101101
*
Ed
 1e-07 1 1 0
1  36 0 0 29.0536579024343
2  63 17 0 0 29.0536579024343
2  64 14 0 0 29.0536579024343
0

0101000
+164 0 -162 0 *
Ve
1e-07
169.933114498359 113.7726932952 0
0 0

0101101
*
Ed
 1e-07 1 1 0
1  37 0 0 14.6765900744255
2  65 17 0 0 14.6765900744255
2  66 14 0 0 14.6765900744255
0

0101000
+162 0 -160 0 *
Ve
1e-07
169.933114498359 117.666482498619 0
0 0

0101101
*
Ed
 1e-07 1 1 0
1  38 0 0 3.89378920341902
2  67 17 0 0 3.89378920341902
2  68 14 0 0 3.89378920341902
0

0101000
+160 0 -158 0 *
Ve
1e-07
169.933114498359 136.236861776463 0
0 0

0101101
*
Ed
 1e-07 1 1 0
1  39 0 0 18.5703792778446
2  69 18 0 0 18.5703792778446
2  70 14 0 0 18.5703792778446
0

0101000
+158 0 -156 0 *
Ve
1e-07
169.933114498359 191.049432870747 0
0 0

0101101
*
Ed
 1e-07 1 1 0
1  40 0 0 54.8125710942832
2  71 19 0 0 54.8125710942832
2  72 14 0 0 54.8125710942832
0

0101000
+156 0 -154 0 *
Ve
1e-07
120.36218271637 191.049432870747 0
0 0

0101101
*
Ed
 1e-07 1 1 0
1  41 0 0 49.5709317819884
2  73 19 0 0 49.5709317819884
2  74 14 0 0 49.5709317819884
0

0101000
+154 0 -152 0 *
Ve
1e-07
102.390847931359 191.049432870747 0
0 0

0101101
*
Ed
 1e-07 1 1 0
1  42 0 0 17.9713347850109
2  75 20 0 0 17.9713347850109
2  76 14 0 0 17.9713347850109
0

0101000
+152 0 -150 0 *
Ve
1e-07
76.4821736163021 191.049432870747 0
0 0

0101101
*
Ed
 1e-07 1 1 0
1  43 0 0 25.9086743150574
2  77 21 0 0 25.9086743150574
2  78 14 0 0 25.9086743150574
0

0101000
+150 0 -148 0 *
Ed
 1e-07 1 1 0
1  44 0 0 36.2421918164386
2  79 21 0 0 36.2421918164386
2  80 14 0 0 36.2421918164386
0

0101000
+148 0 -182 0 *
Ve
1e-07
76.4821736163021 96.1008807566057 0
0 0

0101101
*
Ed
 1e-07 1 1 0
1  45 0 0 39.8364587734408
2  81 22 0 0 39.8364587734408
2  82 14 0 0 39.8364587734408
0

0101000
+184 0 -145 0 *
Ve
1e-07
42.0371152783646 96.1008807566057 0
0 0

0101101
*
Ed
 1e-07 1 1 0
1  46 0 0 34.4450583379375
2  83 22 0 0 34.4450583379375
2  84 14 0 0 34.4450583379375
0

0101000
+145 0 -143 0 *
Ve
1e-07
42.0371152783646 58.9601222009165 0
0 0

0101101
*
Ed
 1e-07 1 1 0
1  47 0 0 37.1407585556892
2  85 22 0 0 37.1407585556892
2  86 14 0 0 37.1407585556892
0

0101000
+143 0 -141 0 *
Ve
1e-07
45.9309044817836 58.9601222009165 0
0 0

0101101
*
Ed
 1e-07 1 1 0
1  48 0 0 3.89378920341903
2  87 22 0 0 3.89378920341903
2  88 14 0 0 3.89378920341903
0

0101000
+141 0 -139 0 *
Ed
 1e-07 1 1 0
1  49 0 0 21.5656017420131
2  89 23 0 0 21.5656017420131
2  90 14 0 0 21.5656017420131
0

0101000
+139 0 -177 0 *
Wi

0101100
-175 0 -173 0 -171 0 -169 0 -167 0 -165 0 -163 0 -161 0 -159 0 -157 0 
-155 0 -153 0 -151 0 -149 0 -147 0 -146 0 -180 0 -144 0 -142 0 -140 0 
-138 0 -137 0 *
Fa
0  1e-07 14 0

0101000
+136 0 *
Ve
1e-07
151.362735220514 33.2012090090676 0
0 0

0101101
*
Ed
 1e-07 1 1 0
1  50 0 0.000200000000006639 51.5178263836979
2  91 24 0 0.000200000000006639 51.5178263836979
2  92 16 0 0.000200000000006639 51.5178263836979
0

0101000
+170 0 -134 0 *
Ve
1e-07
242.117975884819 33.2012090090676 0
0 0

0101101
*
Ed
 1e-07 1 1 0
1  51 0 0 90.755240664305
2  93 24 0 0 90.755240664305
2  94 16 0 0 90.755240664305
0

0101000
+134 0 -132 0 *
Ve
1e-07
242.117975884819 38.5926094445708 0
0 0

0101101
*
Ed
 1e-07 1 1 0
1  52 0 0 5.39140043550326
2  95 24 0 0 5.39140043550326
2  96 16 0 0 5.39140043550326
0

0101000
+132 0 -130 0 *
Ve
1e-07
242.117975884819 58.3610777080828 0
0 0

0101101
*
Ed
 1e-07 1 1 0
1  53 0 0 19.768468263512
2  97 25 0 0 19.768468263512
2  98 16 0 0 19.768468263512
2  99 26 0 0 19.768468263512
0

0101000
+130 0 -128 0 *
Ve
1e-07
242.117975884819 64.3515226364198 0
0 0

0101101
*
Ed
 1e-07 1 1 0
1  54 0 0 5.99044492833697
2  100 27 0 0 5.99044492833697
2  101 16 0 0 5.99044492833697
0

0101000
+128 0 -126 0 *
Ve
1.00000028421709e-07
242.117975884819 80.8252461893464 0
0 0

0101101
*
Ed
 1e-07 1 1 0
1  55 0 0 16.4737235529266
2  102 28 0 0 16.4737235529266
2  103 16 0 0 16.4737235529266
0

0101000
+126 0 -124 0 *
Ve
1e-07
169.933114498359 80.8252461893464 0
0 0

0101101
*
Ed
 1e-07 1 1 0
1  56 0 4.59683447625869 76.7816958627189
2  104 29 0 4.59683447625869 76.7816958627189
2  105 16 0 4.59683447625869 76.7816958627189
0

0101000
+124 0 -122 0 *
Ed
 1e-07 1 1 0
1  57 0 0 3.89358920341903
2  106 29 0 0 3.89358920341903
2  107 16 0 0 3.89358920341903
0

0101000
+122 0 -168 0 *
Wi

0101100
+167 0 -133 0 -131 0 -129 0 -127 0 -125 0 -123 0 -121 0 -120 0 *
Fa
0  1e-07 16 0

0101000
+119 0 *
Ve
1.00000255795385e-07
173.826903701778 117.666482498619 0
0 0

0101101
*
Ed
 1e-07 1 1 0
1  58 0 0 3.89378920341903
2  108 18 0 0 3.89378920341903
0

0101000
+117 0 -158 0 *
Ve
1e-07
173.826903701778 136.236861776463 0
0 0

0101101
*
Ed
 1e-07 1 1 0
1  59 0 0 3.89378920341903
2  109 18 0 0 3.89378920341903
0

0101000
+156 0 -115 0 *
Ed
 1e-07 1 1 0
1  60 0 0 18.5703792778446
2  110 30 0 0 18.5703792778446
2  111 31 0 0 18.5703792778446
2  112 18 0 0 18.5703792778446
0

0101000
+115 0 -117 0 *
Wi

0101100
+116 0 +155 0 +114 0 +113 0 *
Fa
0  1e-07 18 0

0111000
+112 0 *
Ve
1.00000422519086e-07
102.390847931359 194.943222074166 0
0 0

0101101
*
Ed
 1e-07 1 1 0
1  61 0 0 3.89378920341903
2  113 20 0 0 3.89378920341903
0

0101000
+150 0 -110 0 *
Ve
1.00000382374993e-07
120.36218271637 194.943222074166 0
0 0

0101101
*
Ed
 1e-07 1 1 0
1  62 0 0 17.9713347850109
2  114 32 0 0 17.9713347850109
2  115 20 0 0 17.9713347850109
0

0101000
+108 0 -110 0 *
Ed
 1e-07 1 1 0
1  63 0 0 3.89378920341903
2  116 20 0 0 3.89378920341903
0

0101000
+108 0 -152 0 *
Wi

0101100
+149 0 +109 0 -107 0 +106 0 *
Fa
0  1e-07 20 0

0111000
+105 0 *
Ve
1e-07
45.9309044817836 55.0663329974975 0
0 0

0101101
*
Ed
 1e-07 1 1 0
1  64 0 0 3.89378920341903
2  117 23 0 0 3.89378920341903
0

0101000
+103 0 -139 0 *
Ve
1e-07
67.4965062237967 55.0663329974975 0
0 0

0101101
*
Ed
 1e-07 1 1 0
1  65 0 0 3.89378920341903
2  118 23 0 0 3.89378920341903
0

0101000
+177 0 -101 0 *
Ed
 1e-07 1 1 0
1  66 0 0 21.5656017420131
2  119 23 0 0 21.5656017420131
0

0101000
+101 0 -103 0 *
Wi

0101100
+102 0 +137 0 +100 0 +99 0 *
Fa
0  1e-07 23 0

0111000
+98 0 *
Ve
1e-07
246.011765088238 38.5926094445708 0
0 0

0101101
*
Ed
 1e-07 1 1 0
1  67 0 0 3.89378920341903
2  120 26 0 0 3.89378920341903
0

0101000
+96 0 -130 0 *
Ve
1e-07
246.011765088238 58.3610777080828 0
0 0

0101101
*
Ed
 1e-07 1 1 0
1  68 0 0 3.89378920341903
2  121 26 0 0 3.89378920341903
0

0101000
+128 0 -94 0 *
Ed
 1e-07 1 1 0
1  69 0 0 19.768468263512
2  122 26 0 0 19.768468263512
0

0101000
+94 0 -96 0 *
Wi

0101100
+95 0 +127 0 +93 0 +92 0 *
Fa
0  1e-07 26 0

0111000
+91 0 *
Ve
1e-07
246.011765088238 64.3515226364198 0
0 0

0101101
*
Ed
 1e-07 1 1 0
1  70 0 0 3.89378920341903
2  123 28 0 0 3.89378920341903
0

0101000
+89 0 -126 0 *
Ve
1e-07
246.011765088238 80.8252461893464 0
0 0

0101101
*
Ed
 1e-07 1 1 0
1  71 0 0 3.89378920341903
2  124 28 0 0 3.89378920341903
0

0101000
+124 0 -87 0 *
Ed
 1e-07 1 1 0
1  72 0 0 16.4737235529266
2  125 28 0 0 16.4737235529266
0

0101000
+87 0 -89 0 *
Wi

0101100
+88 0 +123 0 +86 0 +85 0 *
Fa
0  1e-07 28 0

0111000
+84 0 *
Ve
1e-07
182.812571094283 191.049432870747 0
0 0

0101101
*
Ve
1e-07
173.826903701778 191.049432870747 0
0 0

0101101
*
Ed
 1e-07 1 1 0
1  73 0 0 8.98566739250543
2  126 33 0 0 8.98566739250543
2  127 31 0 0 8.98566739250543
0

0101000
+82 0 -81 0 *
Ed
 1e-07 1 1 0
1  74 0 0 54.8125710942832
2  128 33 0 0 54.8125710942832
2  129 31 0 0 54.8125710942832
0

0101000
+81 0 -115 0 *
Ve
1e-07
207.672917546882 117.666482498619 0
0 0

0101101
*
Ed
 1e-07 1 1 0
1  75 0 3.89378920341926 37.7398030485229
2  130 34 0 3.89378920341926 37.7398030485229
2  131 31 0 3.89378920341926 37.7398030485229
0

0101000
+117 0 -78 0 *
Ve
1e-07
225.045207839059 117.666482498619 0
0 0

0101101
*
Ed
 1e-07 1 1 0
1  76 0 0 17.3722902921772
2  132 35 0 0 17.3722902921772
2  133 31 0 0 17.3722902921772
0

0101000
+78 0 -76 0 *
Ve
1.00000255795385e-07
242.117975884819 117.666482498619 0
0 0

0101101
*
Ed
 1e-07 1 1 0
1  77 0 0 17.0727680457602
2  134 36 0 0 17.0727680457602
2  135 31 0 0 17.0727680457602
0

0101000
+76 0 -74 0 *
Ve
1e-07
242.117975884819 145.522051415386 0
0 0

0101101
*
Ed
 1e-07 1 1 0
1  78 0 0 27.8555689167669
2  136 37 0 0 27.8555689167669
2  137 31 0 0 27.8555689167669
2  138 38 0 0 27.8555689167669
0

0101000
+74 0 -72 0 *
Ve
1e-07
242.117975884819 149.415840618805 0
0 0

0101101
*
Ed
 1e-07 1 1 0
1  79 0 0 3.893789203419
2  139 39 0 0 3.893789203419
2  140 31 0 0 3.893789203419
0

0101000
+72 0 -70 0 *
Ve
1e-07
255.29695472716 149.415840618805 0
0 0

0101101
*
Ed
 1e-07 1 1 0
1  80 0 0 13.1789788423413
2  141 39 0 0 13.1789788423413
2  142 31 0 0 13.1789788423413
0

0101000
+70 0 -68 0 *
Ve
1e-07
255.29695472716 191.049432870747 0
0 0

0101101
*
Ed
 1e-07 1 1 0
1  81 0 0 41.6335922519419
2  143 39 0 0 41.6335922519419
2  144 31 0 0 41.6335922519419
0

0101000
+68 0 -66 0 *
Ve
1e-07
202.581039357795 191.049432870747 0
0 0

0101101
*
Ed
 1e-07 1 1 0
1  82 0 0 52.7159153693653
2  145 39 0 0 52.7159153693653
2  146 31 0 0 52.7159153693653
0

0101000
+66 0 -64 0 *
Ed
 1e-07 1 1 0
1  83 0 0 19.768468263512
2  147 40 0 0 19.768468263512
2  148 31 0 0 19.768468263512
0

0101000
+64 0 -82 0 *
Wi

0101100
-80 0 -79 0 -113 0 -77 0 -75 0 -73 0 -71 0 -69 0 -67 0 -65 0 
-63 0 -62 0 *
Fa
0  1e-07 31 0

0101000
+61 0 *
Ve
1e-07
76.4821736163021 222.798790990932 0
0 0

0101101
*
Ve
1e-07
147.768468263512 222.798790990932 0
0 0

0101101
*
Ed
 1e-07 1 1 0
1  84 0 0 71.2862946472099
2  149 32 0 0 71.2862946472099
0

0101000
+59 0 -58 0 *
Ve
1e-07
147.768468263512 194.943222074166 0
0 0

0101101
*
Ed
 1e-07 1 1 0
1  85 0 0 27.8555689167669
2  150 32 0 0 27.8555689167669
0

0101000
+58 0 -56 0 *
Ve
1e-07
129.797133478501 194.943222074166 0
0 0

0101101
*
Ed
 1e-07 1 1 0
1  86 0 0 17.9713347850109
2  151 32 0 0 17.9713347850109
0

0101000
+56 0 -54 0 *
Ed
 1e-07 1 1 0
1  87 0 0 9.43495076213073
2  152 32 0 0 9.43495076213073
0

0101000
+54 0 -108 0 *
Ve
1e-07
92.9558971692288 194.943222074166 0
0 0

0101101
*
Ed
 1e-07 1 1 0
1  88 0 0 9.43495076213071
2  153 32 0 0 9.43495076213071
0

0101000
+110 0 -51 0 *
Ve
1.00000213635991e-07
76.4821736163021 194.943222074166 0
0 0

0101101
*
Ed
 1e-07 1 1 0
1  89 0 0 16.4737235529266
2  154 32 0 0 16.4737235529266
0

0101000
+51 0 -49 0 *
Ed
 1e-07 1 1 0
1  90 0 0 27.8555689167669
2  155 32 0 0 27.8555689167669
0

0101000
+49 0 -59 0 *
Wi

0101100
+57 0 +55 0 +53 0 +52 0 +107 0 +50 0 +48 0 +47 0 *
Fa
0  1e-07 32 0

0111000
+46 0 *
Ve
1e-07
207.672917546882 113.7726932952 0
0 0

0101101
*
Ed
 1e-07 1 1 0
1  91 0 0 3.89378920341902
2  156 35 0 0 3.89378920341902
0

0101000
+44 0 -78 0 *
Ve
1e-07
225.045207839059 113.7726932952 0
0 0

0101101
*
Ed
 1e-07 1 1 0
1  92 0 0 3.89378920341902
2  157 35 0 0 3.89378920341902
0

0101000
+76 0 -42 0 *
Ed
 1e-07 1 1 0
1  93 0 0 17.3722902921772
2  158 35 0 0 17.3722902921772
2  159 41 0 0 17.3722902921772
0

0101000
+42 0 -44 0 *
Wi

0101100
+43 0 +75 0 +41 0 +40 0 *
Fa
0  1e-07 35 0

0111000
+39 0 *
Ve
1e-07
246.011765088238 117.666482498619 0
0 0

0101101
*
Ed
 1e-07 1 1 0
1  94 0 0 3.89378920341903
2  160 38 0 0 3.89378920341903
0

0101000
+37 0 -74 0 *
Ve
1e-07
246.011765088238 145.522051415386 0
0 0

0101101
*
Ed
 1e-07 1 1 0
1  95 0 0 3.89378920341903
2  161 38 0 0 3.89378920341903
0

0101000
+72 0 -35 0 *
Ed
 1e-07 1 1 0
1  96 0 0 27.8555689167669
2  162 38 0 0 27.8555689167669
0

0101000
+35 0 -37 0 *
Wi

0101100
+36 0 +71 0 +34 0 +33 0 *
Fa
0  1e-07 38 0

0111000
+32 0 *
Ve
1e-07
182.812571094283 194.943222074166 0
0 0

0101101
*
Ed
 1e-07 1 1 0
1  97 0 0 3.89378920341903
2  163 40 0 0 3.89378920341903
0

0101000
+82 0 -30 0 *
Ve
1e-07
202.581039357795 194.943222074166 0
0 0

0101101
*
Ed
 1e-07 1 1 0
1  98 0 0 19.768468263512
2  164 40 0 0 19.768468263512
0

0101000
+30 0 -28 0 *
Ed
 1e-07 1 1 0
1  99 0 0 3.89378920341903
2  165 40 0 0 3.89378920341903
0

0101000
+28 0 -64 0 *
Wi

0101100
+29 0 +27 0 +26 0 +62 0 *
Fa
0  1e-07 40 0

0111000
+25 0 *
Ve
1e-07
188.503493776203 113.7726932952 0
0 0

0101101
*
Ed
 1e-07 1 1 0
1  100 0 0 19.1694237706783
2  166 42 0 0 19.1694237706783
2  167 41 0 0 19.1694237706783
0

0101000
+44 0 -23 0 *
Ve
1e-07
188.503493776203 84.7190353927655 0
0 0

0101101
*
Ed
 1e-07 1 1 0
1  101 0 0 29.0536579024343
2  168 42 0 0 29.0536579024343
2  169 41 0 0 29.0536579024343
0

0101000
+23 0 -21 0 *
Ve
1e-07
242.117975884819 84.7190353927655 0
0 0

0101101
*
Ed
 1e-07 1 1 0
1  102 0 0 53.6144821086158
2  170 42 0 0 53.6144821086158
2  171 41 0 0 53.6144821086158
0

0101000
+21 0 -19 0 *
Ve
1e-07
242.117975884819 93.4051805388541 0
0 0

0101101
*
Ed
 1e-07 1 1 0
1  103 0 0 8.68614514608859
2  172 42 0 0 8.68614514608859
2  173 41 0 0 8.68614514608859
0

0101000
+19 0 -17 0 *
Ve
1e-07
242.117975884819 107.183203874029 0
0 0

0101101
*
Ed
 1e-07 1 1 0
1  104 0 0 13.778023335175
2  174 43 0 0 13.778023335175
2  175 41 0 0 13.778023335175
2  176 44 0 0 13.778023335175
0

0101000
+17 0 -15 0 *
Ve
1e-07
242.117975884819 113.7726932952 0
0 0

0101101
*
Ed
 1e-07 1 1 0
1  105 0 0 6.58948942117065
2  177 45 0 0 6.58948942117065
2  178 41 0 0 6.58948942117065
0

0101000
+15 0 -13 0 *
Ed
 1e-07 1 1 0
1  106 0 0 17.0727680457603
2  179 45 0 0 17.0727680457603
2  180 41 0 0 17.0727680457603
0

0101000
+13 0 -42 0 *
Wi

0101100
-22 0 -20 0 -18 0 -16 0 -14 0 -12 0 -11 0 -40 0 *
Fa
0  1e-07 41 0

0101000
+10 0 *
Ve
1e-07
246.011765088238 93.4051805388541 0
0 0

0101101
*
Ed
 1e-07 1 1 0
1  107 0 0 3.89378920341903
2  181 44 0 0 3.89378920341903
0

0101000
+8 0 -17 0 *
Ve
1e-07
246.011765088238 107.183203874029 0
0 0

0101101
*
Ed
 1e-07 1 1 0
1  108 0 0 3.89378920341903
2  182 44 0 0 3.89378920341903
0

0101000
+15 0 -6 0 *
Ed
 1e-07 1 1 0
1  109 0 0 13.778023335175
2  183 44 0 0 13.778023335175
0

0101000
+6 0 -8 0 *
Wi

0101100
+7 0 +14 0 +5 0 +4 0 *
Fa
0  1e-07 44 0

0111000
+3 0 *
Sh

0101000
+223 0 +216 0 +209 0 +192 0 +185 0 +178 0 +135 0 +118 0 +111 0 +104 0 
+97 0 +90 0 +83 0 +60 0 +45 0 +38 0 +31 0 +24 0 +9 0 +2 0 
*

+1 0 