
CASCADE Topology V3, (c) Open Cascade
Locations 0
Curve2ds 181
1 9.9468650371944847 -2.1424017003187998 0 1 
1 9.9468650371944847 2.1424017003188283 -1 0 
1 36.505302190969346 -13.841137766522792 -1 0 
1 -9.9468650371944705 2.1424017003188283 0 -1 
1 -9.9468650371944705 -2.1424017003187998 1 0 
1 27.720143367368323 59.659240267063097 1 0 
1 36.505302190969346 13.397969566102063 -1 0 
1 -36.948470391389861 13.397969566102063 0 -1 
1 -36.948470391389861 -12.310850837723649 0 -1 
1 -36.948470391389861 -13.007981549732165 1 0 
1 12.326768715942777 -13.007981549732136 1 0 
1 16.61157211658039 -13.007981549732165 0 -1 
1 36.505302190969346 -13.841137766522792 0 1 
1 -9.8647383148443737 -17.242611148311795 1 0 
1 -25.839899140601929 60.492396483853724 1 0 
1 39.410500792488264 -17.242611148311795 0 -1 
1 23.435339966730709 60.492396483853724 0 -1 
1 39.410500792488264 -18.075767365102422 1 0 
1 23.435339966730709 59.659240267063097 1 0 
1 -3.2377410050098518 39.046455138909977 0 -1 
1 47.613873441757278 95.467954400963208 0 -1 
1 -2.1424017003188141 10.558979808714128 0 -1 
1 47.613873441757278 8.2415994594116739 0 -1 
1 -2.1424017003188141 10.558979808714128 0 -1 
1 -3.2671196073982998 35.568639625547767 0 -1 
1 47.613873441757278 -12.876360158016595 0 -1 
1 -3.2671196073982998 -6.055164837789107 -1 0 
1 47.613873441757278 -54.50016462135347 -1 0 
1 12.548352816153027 2.1424017003188212 -1 0 
1 -27.6762434551609 -54.50016462135347 -1 0 
1 12.548352816153027 2.1424017003188212 -1 0 
1 46.541090727716266 -16.778751970460306 0 1 
1 -52.772949087466955 -58.784968021991091 0 1 
1 2.1424017003188283 -10.558979808714142 0 1 
1 -52.772949087466955 -23.588368659610637 0 1 
1 4.8374441386800129 -13.114358505538561 0 1 
1 -52.772949087466955 -2.4704090421823679 0 1 
1 4.8374441386800129 -7.9113829476214619 1 0 
1 -52.772949087466955 2.7325665157347316 1 0 
1 31.770494085545039 -7.9113829476214619 0 1 
1 -25.839899140601929 2.7325665157347316 0 1 
1 31.770494085545039 -3.6265795469838338 -1 0 
1 -25.839899140601929 7.0173699163723597 -1 0 
1 18.916083883632211 -3.6265795469838338 0 1 
1 -38.694309342514757 7.0173699163723597 0 1 
1 18.916083883632211 23.918585171400878 1 0 
1 -38.694309342514757 34.562534634757071 1 0 
1 31.770494085545039 23.918585171400878 0 1 
1 -25.839899140601929 34.562534634757071 0 1 
1 2.1424017003188283 -10.405951115834199 0 1 
1 -25.839899140601929 38.847338035394671 0 1 
1 2.1424017003188283 -10.405951115834199 0 1 
1 -9.8647383148443737 -18.075767365102422 0 1 
1 -25.839899140601929 59.659240267063097 0 1 
1 -2.1424017003188141 -10.558979808714142 1 0 
1 2.1424017003187998 -10.558979808714142 0 1 
1 -36.420828905419775 -52.029755579171095 0 1 
1 2.1424017003187998 -10.558979808714142 0 1 
1 2.1424017003187998 10.558979808714128 -1 0 
1 12.548352816153027 -2.1424017003187998 0 1 
1 -12.548352816153027 2.1424017003188212 0 -1 
1 -12.548352816153027 -2.1424017003187998 1 0 
1 -2.1424017003187714 -10.558979808714142 1 0 
1 2.1424017003188283 10.558979808714128 -1 0 
1 1.8363443145589997 10.558979808714128 -1 0 
1 -2.1424017003187714 10.558979808714128 0 -1 
1 36.100416274011252 25.657610250329867 0 -1 
1 -2.1424017003187998 -10.405951115834199 1 0 
1 2.1424017003188283 10.405951115834227 -1 0 
1 -2.1424017003187998 10.405951115834227 0 -1 
1 35.655685441020182 -11.936238044633342 0 -1 
1 -2.1424017003187998 10.405951115834227 0 -1 
1 1.047062395627762 -48.179899802641557 0 1 
1 -36.420828905419775 -30.911795961742826 0 1 
1 1.047062395627762 34.761651738272349 1 0 
1 -36.420828905419775 52.029755579171081 1 0 
1 -24.637619553666312 -2.1424017003188283 1 0 
1 -25.096705632306062 52.029755579171081 1 0 
1 -8.0998380913698824 62.942597548558695 1 0 
1 24.178533475026565 52.029755579171081 1 0 
1 4.142457339023319 62.942597548558695 0 -1 
1 36.420828905419768 52.029755579171081 0 -1 
1 4.142457339023319 -41.116913609783481 -1 0 
1 36.420828905419768 -52.029755579171095 -1 0 
1 10.405951115834227 2.1424017003188141 -1 0 
1 -1.2242295430393213 -52.029755579171095 -1 0 
1 10.405951115834227 2.1424017003188141 -1 0 
1 15.402380923951327 35.568639625547767 -1 0 
1 -22.036131774707762 -52.029755579171095 -1 0 
1 42.256287327078667 18.417847391920148 0 -1 
1 36.100416274011252 4.5396506329015978 0 -1 
1 42.256287327078667 -12.493948569822685 -1 0 
1 36.100416274011252 -26.372145328841235 -1 0 
1 -30.27931309800104 -12.493948569822685 0 1 
1 -36.435184151068455 -26.372145328841235 0 1 
1 -30.27931309800104 39.535807009348417 1 0 
1 -36.435184151068455 25.657610250329867 1 0 
1 -12.242295430393227 -2.1424017003187998 1 0 
1 -34.292782450749655 25.657610250329867 1 0 
1 -45.355967125932096 -13.114358505538561 1 0 
1 -9.8081915899632577 25.657610250329867 1 0 
1 -30.982697932272629 26.608610955832745 1 0 
1 18.822529224229555 32.748140276301825 1 0 
1 -14.149541715482002 26.608610955832745 0 -1 
1 35.655685441020182 32.748140276301825 0 -1 
1 31.770494085545039 28.203388572038477 -1 0 
1 39.94048884165781 -32.748140276301768 -1 0 
1 10.099893730074371 2.1424017003187998 -1 0 
1 22.801275239107355 -32.748140276301768 -1 0 
1 10.099893730074371 2.1424017003187998 -1 0 
1 27.838264029344202 -0.81759281478181833 -1 0 
1 2.6014877789585853 -32.748140276301768 -1 0 
1 -10.418909190634565 -0.81759281478181833 0 1 
1 -35.655685441020182 -32.748140276301768 0 1 
1 2.1424017003187998 -12.395324123273099 0 1 
1 -35.655685441020182 -12.24229543039317 0 1 
1 -2.3266607386844385 -15.883753714025488 0 1 
1 -35.655685441020182 12.548352816153056 0 1 
1 -2.3266607386844385 4.3160337461232814 1 0 
1 -35.655685441020182 32.748140276301825 1 0 
1 -19.128586609989355 -2.1424017003188283 1 0 
1 -19.434643995749184 32.748140276301825 1 0 
1 -19.128586609989355 -2.1424017003188283 1 0 
1 24.637619553666315 -2.1424017003188283 0 1 
1 24.637619553666315 2.1424017003187998 -1 0 
1 -24.637619553666312 2.1424017003187998 0 -1 
1 10.405951115834227 -2.1424017003187998 0 1 
1 -10.405951115834213 2.1424017003188141 0 -1 
1 -10.405951115834213 -2.1424017003187998 1 0 
1 -15.91498405951117 18.669500531349627 1 0 
1 12.24229543039317 -2.1424017003187998 0 1 
1 12.24229543039317 2.1424017003188141 -1 0 
1 -12.242295430393227 2.1424017003188141 0 -1 
1 10.099893730074371 -2.1424017003187998 0 1 
1 10.099893730074371 1.8363443145589713 0 1 
1 -10.099893730074399 2.1424017003187998 0 -1 
1 -10.099893730074399 -2.1424017003187998 1 0 
1 6.0791863230358842 15.956945451671913 1 0 
1 -10.099893730074399 -2.1424017003187998 1 0 
1 -2.1424017003187998 -12.395324123273099 1 0 
1 2.1424017003187998 12.395324123273127 -1 0 
1 -2.1424017003187998 12.395324123273127 0 -1 
1 19.128586609989384 -2.1424017003188283 0 1 
1 19.128586609989384 2.1424017003187998 -1 0 
1 -19.128586609989355 2.1424017003187998 0 -1 
1 -33.502601109435766 -45.401717010421095 1 0 
1 4.896918172157271 18.669500531349627 1 0 
1 -8.0998380913698824 -45.401717010421095 0 -1 
1 30.299681190223158 18.669500531349627 0 -1 
1 -2.1424017003188087 7.8044633368756564 0 -1 
1 30.299681190223158 10.099893730074385 0 -1 
1 61.617046173685651 7.1053027498835846 0 -1 
1 30.299681190223158 -5.5090329436769423 0 -1 
1 61.617046173685651 -6.055164837789107 -1 0 
1 30.299681190223158 -18.669500531349634 -1 0 
1 1.0176837932393141 -6.055164837789107 0 1 
1 -30.299681190223183 -18.669500531349634 0 1 
1 1.0176837932393141 31.283836224910154 1 0 
1 -30.299681190223183 18.669500531349627 1 0 
1 2.1424017003187714 -7.6514346439957563 0 1 
1 -25.444724410226627 -7.9155306375948413 0 1 
1 -3.6856467039183087 -13.672003016694674 0 1 
1 -25.444724410226627 7.3873386503966572 0 1 
1 -3.6856467039183087 -5.102396215419418 1 0 
1 -25.444724410226627 15.956945451671913 1 0 
1 14.631280482994583 28.203388572038477 0 -1 
1 26.278973783184654 20.241748852309513 0 -1 
1 14.631280482994583 -3.6265795469838338 -1 0 
1 26.278973783184654 -11.588219266712798 -1 0 
1 0.5526407380424132 -3.6265795469838338 0 -1 
1 12.200334038232484 -11.588219266712798 0 -1 
1 0.5526407380424132 -8.8295551049009475 -1 0 
1 12.200334038232484 -16.791194824629912 -1 0 
1 -37.092417710416697 -8.8295551049009475 0 1 
1 -25.444724410226627 -16.791194824629912 0 1 
1 -2.1424017003188087 -7.8044633368756706 1 0 
1 2.1424017003188123 -7.8044633368756706 0 1 
1 2.1424017003188123 7.8044633368756564 -1 0 
1 -2.1424017003188283 -7.6514346439957563 1 0 
1 2.1424017003187714 7.6514346439957421 -1 0 
1 -2.1424017003188283 7.6514346439957421 0 -1 
Curves 107
1 77.959617428267805 162.7375132837407 0 0 1 0 
1 77.959617428267805 167.02231668437832 0 1 0 0 
1 97.85334750265676 167.02231668437832 0 0 -1 0 
1 97.85334750265676 162.7375132837407 0 -1 0 0 
1 77.959617428267805 194.26142401700318 0 1 0 0 
1 151.41339001062701 194.26142401700318 0 0 -1 0 
1 151.41339001062701 168.55260361317747 0 0 -1 0 
1 151.41339001062701 167.85547290116895 0 -1 0 0 
1 102.13815090329437 167.85547290116898 0 -1 0 0 
1 97.85334750265676 167.85547290116895 0 0 -1 0 
1 77.959617428267805 167.02231668437832 0 0 1 0 
1 151.41339001062701 163.57066950053132 0 -1 0 0 
1 102.13815090329437 163.57066950053132 0 0 -1 0 
1 102.13815090329437 162.7375132837407 0 -1 0 0 
1 77.959617428267805 198.54622741764081 0 0 -1 0 
1 77.959617428267805 111.31987247608927 0 0 -1 0 
1 77.959617428267805 90.201912858661004 0 0 -1 0 
1 77.959617428267805 48.578108395324129 0 1 0 0 
1 153.24973432518598 48.578108395324129 0 1 0 0 
1 178.34643995749204 44.293304994686508 0 0 1 0 
1 178.34643995749204 79.489904357066962 0 0 1 0 
1 178.34643995749204 100.60786397449523 0 0 1 0 
1 178.34643995749204 105.81083953241233 0 -1 0 0 
1 151.41339001062701 105.81083953241233 0 0 1 0 
1 151.41339001062701 110.09564293304996 0 1 0 0 
1 164.26780021253984 110.09564293304996 0 0 1 0 
1 164.26780021253984 137.64080765143467 0 -1 0 0 
1 151.41339001062701 137.64080765143467 0 0 1 0 
1 151.41339001062701 141.92561105207227 0 0 1 0 
1 151.41339001062701 162.7375132837407 0 0 1 0 
1 77.959617428267805 90.201912858661004 0 -1 0 0 
1 73.674814027630191 90.201912858661004 0 0 1 0 
1 73.674814027630191 111.31987247608927 0 1 0 0 
1 153.24973432518598 44.293304994686508 0 0 1 0 
1 178.34643995749204 48.578108395324129 0 0 -1 0 
1 178.34643995749204 44.293304994686508 0 -1 0 0 
1 182.63124335812964 79.489904357066962 0 -1 0 0 
1 178.34643995749204 100.60786397449523 0 1 0 0 
1 178.65249734325187 100.60786397449523 0 1 0 0 
1 182.63124335812964 100.60786397449523 0 0 -1 0 
1 155.69819341126464 141.92561105207227 0 -1 0 0 
1 151.41339001062701 162.7375132837407 0 1 0 0 
1 155.69819341126464 162.7375132837407 0 0 -1 0 
1 73.674814027630191 111.31987247608927 0 0 1 0 
1 73.674814027630191 194.26142401700318 0 -1 0 0 
1 62.350690754516478 194.26142401700318 0 -1 0 0 
1 13.075451647183851 194.26142401700318 0 -1 0 0 
1 0.83315621679065022 194.26142401700318 0 0 -1 0 
1 0.83315621679065022 90.201912858661004 0 1 0 0 
1 38.478214665249737 90.201912858661004 0 1 0 0 
1 59.290116896918178 90.201912858661004 0 1 0 0 
1 182.63124335812964 79.489904357066962 0 0 -1 0 
1 182.63124335812964 48.578108395324129 0 1 0 0 
1 255.16684378320934 48.578108395324129 0 0 1 0 
1 255.16684378320934 100.60786397449523 0 -1 0 0 
1 253.02444208289054 100.60786397449523 0 -1 0 0 
1 228.53985122210415 100.60786397449523 0 -1 0 0 
1 172.53134962805527 207.42189160467586 0 -1 0 0 
1 155.69819341126464 207.42189160467586 0 0 -1 0 
1 151.41339001062701 141.92561105207227 0 1 0 0 
1 168.55260361317747 141.92561105207227 0 1 0 0 
1 188.75239107332624 141.92561105207227 0 1 0 0 
1 227.009564293305 141.92561105207227 0 0 1 0 
1 227.009564293305 162.43145589798087 0 0 1 0 
1 227.009564293305 187.22210414452709 0 0 1 0 
1 227.009564293305 207.42189160467586 0 -1 0 0 
1 210.78852284803401 207.42189160467586 0 -1 0 0 
1 13.075451647183851 194.26142401700318 0 0 1 0 
1 13.075451647183851 198.54622741764081 0 1 0 0 
1 62.350690754516478 198.54622741764081 0 0 -1 0 
1 38.478214665249737 85.91710945802339 0 0 1 0 
1 59.290116896918178 90.201912858661004 0 0 -1 0 
1 59.290116896918178 85.91710945802339 0 -1 0 0 
1 228.53985122210415 100.60786397449523 0 0 1 0 
1 228.53985122210415 104.89266737513285 0 1 0 0 
1 253.02444208289054 104.89266737513285 0 0 -1 0 
1 168.55260361317747 137.64080765143467 0 0 1 0 
1 168.55260361317747 141.61955366631244 0 0 1 0 
1 188.75239107332624 141.92561105207227 0 0 -1 0 
1 188.75239107332624 137.64080765143467 0 -1 0 0 
1 231.2943676939426 162.43145589798087 0 -1 0 0 
1 227.009564293305 187.22210414452709 0 1 0 0 
1 231.2943676939426 187.22210414452709 0 0 -1 0 
1 172.53134962805527 207.42189160467586 0 0 1 0 
1 172.53134962805527 211.70669500531349 0 1 0 0 
1 210.78852284803401 211.70669500531349 0 0 -1 0 
1 38.478214665249737 85.91710945802339 0 -1 0 0 
1 13.075451647183851 85.91710945802339 0 0 -1 0 
1 13.075451647183851 77.347502656748148 0 0 -1 0 
1 13.075451647183851 61.738575982996821 0 0 -1 0 
1 13.075451647183851 48.578108395324129 0 1 0 0 
1 73.674814027630191 48.578108395324129 0 0 1 0 
1 73.674814027630191 85.91710945802339 0 -1 0 0 
1 220.27630180658875 113.76833156216792 0 0 1 0 
1 220.27630180658875 129.07120085015941 0 0 1 0 
1 220.27630180658875 137.64080765143467 0 -1 0 0 
1 168.55260361317747 141.92561105207227 0 0 -1 0 
1 168.55260361317747 110.09564293304996 0 1 0 0 
1 182.63124335812964 110.09564293304996 0 0 -1 0 
1 182.63124335812964 104.89266737513285 0 1 0 0 
1 220.27630180658875 104.89266737513285 0 0 1 0 
1 13.075451647183851 61.738575982996821 0 -1 0 0 
1 8.7906482465462297 61.738575982996821 0 0 1 0 
1 8.7906482465462297 77.347502656748148 0 1 0 0 
1 224.56110520722635 113.76833156216792 0 -1 0 0 
1 220.27630180658875 129.07120085015941 0 1 0 0 
1 224.56110520722635 129.07120085015941 0 0 -1 0 
Polygon3D 0
PolygonOnTriangulations 0
Surfaces 47
1 87.90648246546229 164.8799149840595 0 -0 -0 -1 -1 0 0 0 1 -0 
1 114.46491961923715 180.86345445090112 0 -0 -0 -1 -1 0 0 0 1 -0 
1 125.57349087002508 103.0782730166776 0 -0 -0 -1 -1 0 0 0 1 -0 
1 141.54865169578264 180.81328064884312 0 -0 -0 -1 -1 0 0 0 1 -0 
1 74.721876423257953 159.49977227873083 0 -0 -0 -1 -1 0 0 0 1 -0 
1 75.817215727948991 100.76089266737515 0 -0 -0 -1 -1 0 0 0 1 -0 
1 75.817215727948991 100.76089266737515 0 -0 -0 -1 -1 0 0 0 1 -0 
1 74.692497820869505 54.633273233113236 0 -0 -0 -1 -1 0 0 0 1 -0 
1 165.79808714133901 46.435706695005308 0 -0 -0 -1 -1 0 0 0 1 -0 
1 165.79808714133901 46.435706695005308 0 -0 -0 -1 -1 0 0 0 1 -0 
1 224.8875306852083 61.072056965146814 0 -0 -0 -1 -1 0 0 0 1 -0 
1 180.48884165781087 90.048884165781104 0 -0 -0 -1 -1 0 0 0 1 -0 
1 183.18388409617205 113.72222248003379 0 -0 -0 -1 -1 0 0 0 1 -0 
1 153.55579171094584 152.33156216790647 0 -0 -0 -1 -1 0 0 0 1 -0 
1 153.55579171094584 152.33156216790647 0 -0 -0 -1 -1 0 0 0 1 -0 
1 75.817215727948991 100.76089266737515 0 -0 -0 -1 -1 0 0 0 1 -0 
1 37.253985122210416 142.2316684378321 0 -0 -0 -1 -1 0 0 0 1 -0 
1 218.73165963214089 74.950253724165364 0 -0 -0 -1 -1 0 0 0 1 -0 
1 153.55579171094584 152.33156216790647 0 -0 -0 -1 -1 0 0 0 1 -0 
1 191.35387885228482 174.67375132837404 0 -0 -0 -1 -1 0 0 0 1 -0 
1 74.721876423257953 159.49977227873083 0 -0 -0 -1 -1 0 0 0 1 -0 
1 37.713071200850166 196.40382571732201 0 -0 -0 -1 -1 0 0 0 1 -0 
1 4.9756135558139691 131.31882646844448 0 -0 -0 -1 -1 0 0 0 1 -0 
1 48.884165781083965 88.05951115834219 0 -0 -0 -1 -1 0 0 0 1 -0 
1 48.884165781083965 88.05951115834219 0 -0 -0 -1 -1 0 0 0 1 -0 
1 74.692497820869505 54.633273233113236 0 -0 -0 -1 -1 0 0 0 1 -0 
1 224.8875306852083 61.072056965146814 0 -0 -0 -1 -1 0 0 0 1 -0 
1 240.78214665249732 102.75026567481403 0 -0 -0 -1 -1 0 0 0 1 -0 
1 183.18388409617205 113.72222248003379 0 -0 -0 -1 -1 0 0 0 1 -0 
1 141.54865169578264 180.81328064884312 0 -0 -0 -1 -1 0 0 0 1 -0 
1 183.18388409617205 113.72222248003379 0 -0 -0 -1 -1 0 0 0 1 -0 
1 178.65249734325184 139.78320935175347 0 -0 -0 -1 -1 0 0 0 1 -0 
1 178.65249734325184 139.78320935175347 0 -0 -0 -1 -1 0 0 0 1 -0 
1 216.59065510267044 142.74320386685409 0 -0 -0 -1 -1 0 0 0 1 -0 
1 229.1519659936238 174.82678002125397 0 -0 -0 -1 -1 0 0 0 1 -0 
1 224.68290355462057 203.10585785855258 0 -0 -0 -1 -1 0 0 0 1 -0 
1 191.65993623804465 209.56429330499469 0 -0 -0 -1 -1 0 0 0 1 -0 
1 191.65993623804465 209.56429330499469 0 -0 -0 -1 -1 0 0 0 1 -0 
1 43.375132837407008 67.247608926673763 0 -0 -0 -1 -1 0 0 0 1 -0 
1 178.65249734325184 139.78320935175347 0 -0 -0 -1 -1 0 0 0 1 -0 
1 194.83157739636212 121.68386219976276 0 -0 -0 -1 -1 0 0 0 1 -0 
1 4.9756135558139691 131.31882646844448 0 -0 -0 -1 -1 0 0 0 1 -0 
1 10.933049946865042 69.543039319872491 0 -0 -0 -1 -1 0 0 0 1 -0 
1 74.692497820869505 54.633273233113236 0 -0 -0 -1 -1 0 0 0 1 -0 
1 222.41870350690752 121.41976620616367 0 -0 -0 -1 -1 0 0 0 1 -0 
1 216.59065510267044 142.74320386685409 0 -0 -0 -1 -1 0 0 0 1 -0 
1 183.18388409617205 113.72222248003379 0 -0 -0 -1 -1 0 0 0 1 -0 
Triangulations 0

TShapes 236
Ve
1e-07
77.9596174282678 162.737513283741 0
0 0

0101101
*
Ve
1.00000156319402e-07
77.9596174282678 167.022316684378 0
0 0

0101101
*
Ed
 1e-07 1 1 0
1  1 0 0 4.28480340063763
2  1 1 0 0 4.28480340063763
0

0101000
+236 0 -235 0 *
Ve
1.0000015776609e-07
97.8533475026568 167.022316684378 0
0 0

0101101
*
Ed
 1e-07 1 1 0
1  2 0 0 19.893730074389
2  2 1 0 0 19.893730074389
2  3 2 0 0 19.893730074389
0

0101000
+235 0 -233 0 *
Ve
1e-07
97.8533475026568 162.737513283741 0
0 0

0101101
*
Ed
 1e-07 1 1 0
1  3 0 0 4.28480340063763
2  4 1 0 0 4.28480340063763
0

0101000
+233 0 -231 0 *
Ed
 1e-07 1 1 0
1  4 0 0 19.893730074389
2  5 1 0 0 19.893730074389
2  6 3 0 0 19.893730074389
0

0101000
+231 0 -236 0 *
Wi

0101100
+234 0 +232 0 +230 0 +229 0 *
Fa
0  1e-07 1 0

0111000
+228 0 *
Ve
1e-07
77.9596174282678 194.261424017003 0
0 0

0101101
*
Ve
1e-07
151.413390010627 194.261424017003 0
0 0

0101101
*
Ed
 1e-07 1 1 0
1  5 0 0 73.4537725823592
2  7 2 0 0 73.4537725823592
0

0101000
+226 0 -225 0 *
Ve
1e-07
151.413390010627 168.552603613177 0
0 0

0101101
*
Ed
 1e-07 1 1 0
1  6 0 0 25.7088204038257
2  8 2 0 0 25.7088204038257
0

0101000
+225 0 -223 0 *
Ve
1.00000028421709e-07
151.413390010627 167.855472901169 0
0 0

0101101
*
Ed
 1e-07 1 1 0
1  7 0 0 0.697130712008516
2  9 2 0 0 0.697130712008516
0

0101000
+223 0 -221 0 *
Ve
1.00000192392304e-07
102.138150903294 167.855472901169 0
0 0

0101101
*
Ed
 1.00000028421709e-07 1 1 0
1  8 0 0 49.2752391073326
2  10 2 0 0 49.2752391073326
0

0101000
+221 0 -219 0 *
Ve
1.0000003272441e-07
97.8533475026568 167.855472901169 0
0 0

0101101
*
Ed
 1e-07 1 1 0
1  9 0 0 4.28480340063761
2  11 2 0 0 4.28480340063761
0

0101000
+219 0 -217 0 *
Ed
 1e-07 1 1 0
1  10 0 0 0.833156216790627
2  12 2 0 0 0.833156216790627
0

0101000
+217 0 -233 0 *
Ed
 1e-07 1 1 0
1  11 0 0 27.2391073326249
2  13 2 0 0 27.2391073326249
0

0101000
+235 0 -226 0 *
Wi

0101100
+224 0 +222 0 +220 0 +218 0 +216 0 +215 0 -232 0 +214 0 *
Fa
0  1e-07 2 0

0111000
+213 0 *
Ve
1.00000341060513e-07
151.413390010627 163.570669500531 0
0 0

0101101
*
Ve
1.00000341060513e-07
102.138150903294 163.570669500531 0
0 0

0101101
*
Ed
 1.00000028421709e-07 1 1 0
1  12 0 0 49.2752391073326
2  14 4 0 0 49.2752391073326
2  15 3 0 0 49.2752391073326
0

0101000
+211 0 -210 0 *
Ve
1e-07
102.138150903294 162.737513283741 0
0 0

0101101
*
Ed
 1e-07 1 1 0
1  13 0 0 0.833156216790627
2  16 4 0 0 0.833156216790627
2  17 3 0 0 0.833156216790627
0

0101000
+210 0 -208 0 *
Ed
 1e-07 1 1 0
1  14 0 0 4.28480340063761
2  18 4 0 0 4.28480340063761
2  19 3 0 0 4.28480340063761
0

0101000
+208 0 -231 0 *
Ve
1e-07
77.9596174282678 111.319872476089 0
0 0

0101101
*
Ed
 1e-07 1 1 0
1  15 0 35.8087141338998 87.2263549415515
2  20 5 0 35.8087141338998 87.2263549415515
2  21 3 0 35.8087141338998 87.2263549415515
0

0101000
+236 0 -205 0 *
Ve
1e-07
77.9596174282678 90.201912858661 0
0 0

0101101
*
Ed
 1e-07 1 1 0
1  16 0 0 21.1179596174283
2  22 6 0 0 21.1179596174283
2  23 3 0 0 21.1179596174283
2  24 7 0 0 21.1179596174283
0

0101000
+205 0 -203 0 *
Ve
1e-07
77.9596174282678 48.5781083953241 0
0 0

0101101
*
Ed
 1e-07 1 1 0
1  17 0 0 41.6238044633369
2  25 8 0 0 41.6238044633369
2  26 3 0 0 41.6238044633369
0

0101000
+203 0 -201 0 *
Ve
1e-07
153.249734325186 48.5781083953241 0
0 0

0101101
*
Ed
 1e-07 1 1 0
1  18 0 0 75.2901168969182
2  27 8 0 0 75.2901168969182
2  28 3 0 0 75.2901168969182
0

0101000
+201 0 -199 0 *
Ve
1.00000028421709e-07
178.346439957492 48.5781083953241 0
0 0

0101101
*
Ed
 1e-07 1 1 0
1  19 0 0 25.0967056323061
2  29 9 0 0 25.0967056323061
2  30 3 0 0 25.0967056323061
2  31 10 0 0 25.0967056323061
0

0101000
+199 0 -197 0 *
Ve
1e-07
178.346439957492 79.489904357067 0
0 0

0101101
*
Ed
 1e-07 1 1 0
1  20 0 4.28480340063759 35.1965993623805
2  32 11 0 4.28480340063759 35.1965993623805
2  33 3 0 4.28480340063759 35.1965993623805
0

0101000
+197 0 -195 0 *
Ve
1e-07
178.346439957492 100.607863974495 0
0 0

0101101
*
Ed
 1e-07 1 1 0
1  21 0 0 21.1179596174283
2  34 12 0 0 21.1179596174283
2  35 3 0 0 21.1179596174283
0

0101000
+195 0 -193 0 *
Ve
1e-07
178.346439957492 105.810839532412 0
0 0

0101101
*
Ed
 1e-07 1 1 0
1  22 0 0 5.2029755579171
2  36 13 0 0 5.2029755579171
2  37 3 0 0 5.2029755579171
0

0101000
+193 0 -191 0 *
Ve
1e-07
151.413390010627 105.810839532412 0
0 0

0101101
*
Ed
 1e-07 1 1 0
1  23 0 0 26.933049946865
2  38 13 0 0 26.933049946865
2  39 3 0 0 26.933049946865
0

0101000
+191 0 -189 0 *
Ve
1e-07
151.413390010627 110.09564293305 0
0 0

0101101
*
Ed
 1e-07 1 1 0
1  24 0 0 4.28480340063763
2  40 13 0 0 4.28480340063763
2  41 3 0 0 4.28480340063763
0

0101000
+189 0 -187 0 *
Ve
1e-07
164.26780021254 110.09564293305 0
0 0

0101101
*
Ed
 1e-07 1 1 0
1  25 0 0 12.8544102019128
2  42 13 0 0 12.8544102019128
2  43 3 0 0 12.8544102019128
0

0101000
+187 0 -185 0 *
Ve
1e-07
164.26780021254 137.640807651435 0
0 0

0101101
*
Ed
 1e-07 1 1 0
1  26 0 0 27.5451647183847
2  44 13 0 0 27.5451647183847
2  45 3 0 0 27.5451647183847
0

0101000
+185 0 -183 0 *
Ve
1e-07
151.413390010627 137.640807651435 0
0 0

0101101
*
Ed
 1e-07 1 1 0
1  27 0 0 12.8544102019128
2  46 13 0 0 12.8544102019128
2  47 3 0 0 12.8544102019128
0

0101000
+183 0 -181 0 *
Ve
1e-07
151.413390010627 141.925611052072 0
0 0

0101101
*
Ed
 1e-07 1 1 0
1  28 0 0 4.2848034006376
2  48 13 0 0 4.2848034006376
2  49 3 0 0 4.2848034006376
0

0101000
+181 0 -179 0 *
Ve
1e-07
151.413390010627 162.737513283741 0
0 0

0101101
*
Ed
 1e-07 1 1 0
1  29 0 0 20.8119022316684
2  50 14 0 0 20.8119022316684
2  51 3 0 0 20.8119022316684
2  52 15 0 0 20.8119022316684
0

0101000
+179 0 -177 0 *
Ed
 1e-07 1 1 0
1  30 0 0 0.833156216790627
2  53 4 0 0 0.833156216790627
2  54 3 0 0 0.833156216790627
0

0101000
+177 0 -211 0 *
Wi

0101100
-209 0 -207 0 -206 0 -229 0 -204 0 -202 0 -200 0 -198 0 -196 0 -194 0 
-192 0 -190 0 -188 0 -186 0 -184 0 -182 0 -180 0 -178 0 -176 0 -175 0 
*
Fa
0  1e-07 3 0

0101000
+174 0 *
Ve
1e-07
73.6748140276302 90.201912858661 0
0 0

0101101
*
Ed
 1e-07 1 1 0
1  31 0 0 4.28480340063761
2  55 7 0 0 4.28480340063761
0

0101000
+203 0 -172 0 *
Ve
1e-07
73.6748140276302 111.319872476089 0
0 0

0101101
*
Ed
 1e-07 1 1 0
1  32 0 0 21.1179596174283
2  56 16 0 0 21.1179596174283
2  57 17 0 0 21.1179596174283
2  58 7 0 0 21.1179596174283
0

0101000
+172 0 -170 0 *
Ed
 1e-07 1 1 0
1  33 0 0 4.28480340063761
2  59 7 0 0 4.28480340063761
0

0101000
+170 0 -205 0 *
Wi

0101100
+171 0 +169 0 +168 0 +202 0 *
Fa
0  1e-07 7 0

0111000
+167 0 *
Ve
1e-07
153.249734325186 44.2933049946865 0
0 0

0101101
*
Ed
 1e-07 1 1 0
1  34 0 0 4.28480340063762
2  60 10 0 0 4.28480340063762
0

0101000
+165 0 -199 0 *
Ve
1e-07
178.346439957492 44.2933049946865 0
0 0

0101101
*
Ed
 1e-07 1 1 0
1  35 0 0 4.28480340063762
2  61 10 0 0 4.28480340063762
0

0101000
+197 0 -163 0 *
Ed
 1e-07 1 1 0
1  36 0 0 25.0967056323061
2  62 10 0 0 25.0967056323061
0

0101000
+163 0 -165 0 *
Wi

0101100
+164 0 +196 0 +162 0 +161 0 *
Fa
0  1e-07 10 0

0111000
+160 0 *
Ve
1e-07
182.63124335813 79.489904357067 0
0 0

0101101
*
Ed
 1e-07 1 1 0
1  37 0 0 4.2848034006376
2  63 12 0 0 4.2848034006376
0

0101000
+158 0 -195 0 *
Ve
1e-07
178.652497343252 100.607863974495 0
0 0

0101101
*
Ed
 1e-07 1 1 0
1  38 0 0 0.306057385759829
2  64 12 0 0 0.306057385759829
0

0101000
+193 0 -156 0 *
Ve
1.00000227373675e-07
182.63124335813 100.607863974495 0
0 0

0101101
*
Ed
 1e-07 1 1 0
1  39 0 0 3.97874601487777
2  65 12 0 0 3.97874601487777
0

0101000
+156 0 -154 0 *
Ed
 1e-07 1 1 0
1  40 0 0 21.1179596174283
2  66 12 0 0 21.1179596174283
2  67 18 0 0 21.1179596174283
0

0101000
+154 0 -158 0 *
Wi

0101100
+157 0 +192 0 +155 0 +153 0 +152 0 *
Fa
0  1e-07 12 0

0111000
+151 0 *
Ve
1.00000284217094e-07
155.698193411265 141.925611052072 0
0 0

0101101
*
Ed
 1e-07 1 1 0
1  41 0 0 4.28480340063763
2  68 15 0 0 4.28480340063763
0

0101000
+149 0 -179 0 *
Ve
1e-07
155.698193411265 162.737513283741 0
0 0

0101101
*
Ed
 1e-07 1 1 0
1  42 0 0 4.28480340063763
2  69 15 0 0 4.28480340063763
0

0101000
+177 0 -147 0 *
Ed
 1e-07 1 1 0
1  43 0 0 20.8119022316684
2  70 19 0 0 20.8119022316684
2  71 20 0 0 20.8119022316684
2  72 15 0 0 20.8119022316684
0

0101000
+147 0 -149 0 *
Wi

0101100
+148 0 +176 0 +146 0 +145 0 *
Fa
0  1e-07 15 0

0111000
+144 0 *
Ve
1e-07
73.6748140276302 194.261424017003 0
0 0

0101101
*
Ed
 1e-07 1 1 0
1  44 0 0 82.9415515409139
2  73 21 0 0 82.9415515409139
2  74 17 0 0 82.9415515409139
0

0101000
+170 0 -142 0 *
Ve
1e-07
62.3506907545165 194.261424017003 0
0 0

0101101
*
Ed
 1e-07 1 1 0
1  45 0 0 11.3241232731137
2  75 21 0 0 11.3241232731137
2  76 17 0 0 11.3241232731137
0

0101000
+142 0 -140 0 *
Ve
1e-07
13.0754516471839 194.261424017003 0
0 0

0101101
*
Ed
 1e-07 1 1 0
1  46 0 0 49.2752391073326
2  77 22 0 0 49.2752391073326
2  78 17 0 0 49.2752391073326
0

0101000
+140 0 -138 0 *
Ve
1e-07
0.83315621679065 194.261424017003 0
0 0

0101101
*
Ed
 1e-07 1 1 0
1  47 0 0 12.2422954303932
2  79 23 0 0 12.2422954303932
2  80 17 0 0 12.2422954303932
0

0101000
+138 0 -136 0 *
Ve
1e-07
0.83315621679065 90.201912858661 0
0 0

0101101
*
Ed
 1e-07 1 1 0
1  48 0 0 104.059511158342
2  81 23 0 0 104.059511158342
2  82 17 0 0 104.059511158342
0

0101000
+136 0 -134 0 *
Ve
1e-07
38.4782146652497 90.201912858661 0
0 0

0101101
*
Ed
 1e-07 1 1 0
1  49 0 0 37.6450584484591
2  83 23 0 0 37.6450584484591
2  84 17 0 0 37.6450584484591
0

0101000
+134 0 -132 0 *
Ve
1e-07
59.2901168969182 90.201912858661 0
0 0

0101101
*
Ed
 1e-07 1 1 0
1  50 0 0 20.8119022316684
2  85 24 0 0 20.8119022316684
2  86 17 0 0 20.8119022316684
2  87 25 0 0 20.8119022316684
0

0101000
+132 0 -130 0 *
Ed
 1e-07 1 1 0
1  51 0 0 14.384697130712
2  88 26 0 0 14.384697130712
2  89 17 0 0 14.384697130712
0

0101000
+130 0 -172 0 *
Wi

0101100
-141 0 -139 0 -137 0 -135 0 -133 0 -131 0 -129 0 -128 0 -169 0 *
Fa
0  1e-07 17 0

0101000
+127 0 *
Ve
1e-07
182.63124335813 48.5781083953241 0
0 0

0101101
*
Ed
 1e-07 1 1 0
1  52 0 0 30.9117959617428
2  90 27 0 0 30.9117959617428
2  91 18 0 0 30.9117959617428
0

0101000
+158 0 -125 0 *
Ve
1e-07
255.166843783209 48.5781083953241 0
0 0

0101101
*
Ed
 1e-07 1 1 0
1  53 0 0 72.5356004250797
2  92 27 0 0 72.5356004250797
2  93 18 0 0 72.5356004250797
0

0101000
+125 0 -123 0 *
Ve
1e-07
255.166843783209 100.607863974495 0
0 0

0101101
*
Ed
 1e-07 1 1 0
1  54 0 0 52.0297555791711
2  94 27 0 0 52.0297555791711
2  95 18 0 0 52.0297555791711
0

0101000
+123 0 -121 0 *
Ve
1e-07
253.024442082891 100.607863974495 0
0 0

0101101
*
Ed
 1e-07 1 1 0
1  55 0 0 2.1424017003188
2  96 27 0 0 2.1424017003188
2  97 18 0 0 2.1424017003188
0

0101000
+121 0 -119 0 *
Ve
1e-07
228.539851222104 100.607863974495 0
0 0

0101101
*
Ed
 1e-07 1 1 0
1  56 0 0 24.4845908607864
2  98 28 0 0 24.4845908607864
2  99 18 0 0 24.4845908607864
0

0101000
+119 0 -117 0 *
Ed
 1e-07 1 1 0
1  57 0 0 45.9086078639741
2  100 29 0 0 45.9086078639741
2  101 18 0 0 45.9086078639741
0

0101000
+117 0 -154 0 *
Wi

0101100
-124 0 -122 0 -120 0 -118 0 -116 0 -115 0 -152 0 *
Fa
0  1e-07 18 0

0101000
+114 0 *
Ve
1e-07
172.531349628055 207.421891604676 0
0 0

0101101
*
Ve
1e-07
155.698193411265 207.421891604676 0
0 0

0101101
*
Ed
 1e-07 1 1 0
1  58 0 0 16.8331562167906
2  102 30 0 0 16.8331562167906
2  103 20 0 0 16.8331562167906
0

0101000
+112 0 -111 0 *
Ed
 1e-07 1 1 0
1  59 0 0 44.6843783209352
2  104 30 0 0 44.6843783209352
2  105 20 0 0 44.6843783209352
0

0101000
+111 0 -147 0 *
Ve
1e-07
168.552603613177 141.925611052072 0
0 0

0101101
*
Ed
 1e-07 1 1 0
1  60 0 4.284803400638 17.1392136025505
2  106 31 0 4.284803400638 17.1392136025505
2  107 20 0 4.284803400638 17.1392136025505
0

0101000
+149 0 -108 0 *
Ve
1e-07
188.752391073326 141.925611052072 0
0 0

0101101
*
Ed
 1e-07 1 1 0
1  61 0 0 20.1997874601488
2  108 32 0 0 20.1997874601488
2  109 20 0 0 20.1997874601488
2  110 33 0 0 20.1997874601488
0

0101000
+108 0 -106 0 *
Ve
1e-07
227.009564293305 141.925611052072 0
0 0

0101101
*
Ed
 1e-07 1 1 0
1  62 0 0 38.2571732199788
2  111 34 0 0 38.2571732199788
2  112 20 0 0 38.2571732199788
0

0101000
+106 0 -104 0 *
Ve
1e-07
227.009564293305 162.431455897981 0
0 0

0101101
*
Ed
 1e-07 1 1 0
1  63 0 0 20.5058448459086
2  113 34 0 0 20.5058448459086
2  114 20 0 0 20.5058448459086
0

0101000
+104 0 -102 0 *
Ve
1e-07
227.009564293305 187.222104144527 0
0 0

0101101
*
Ed
 1e-07 1 1 0
1  64 0 0 24.7906482465462
2  115 35 0 0 24.7906482465462
2  116 20 0 0 24.7906482465462
0

0101000
+102 0 -100 0 *
Ve
1e-07
227.009564293305 207.421891604676 0
0 0

0101101
*
Ed
 1e-07 1 1 0
1  65 0 0 20.1997874601488
2  117 36 0 0 20.1997874601488
2  118 20 0 0 20.1997874601488
0

0101000
+100 0 -98 0 *
Ve
1e-07
210.788522848034 207.421891604676 0
0 0

0101101
*
Ed
 1e-07 1 1 0
1  66 0 0 16.221041445271
2  119 36 0 0 16.221041445271
2  120 20 0 0 16.221041445271
0

0101000
+98 0 -96 0 *
Ed
 1e-07 1 1 0
1  67 0 0 38.2571732199787
2  121 37 0 0 38.2571732199787
2  122 20 0 0 38.2571732199787
2  123 38 0 0 38.2571732199787
0

0101000
+96 0 -112 0 *
Wi

0101100
-110 0 -109 0 -145 0 -107 0 -105 0 -103 0 -101 0 -99 0 -97 0 -95 0 
-94 0 *
Fa
0  1e-07 20 0

0101000
+93 0 *
Ve
1e-07
13.0754516471839 198.546227417641 0
0 0

0101101
*
Ed
 1e-07 1 1 0
1  68 0 0 4.28480340063763
2  124 22 0 0 4.28480340063763
0

0101000
+138 0 -91 0 *
Ve
1e-07
62.3506907545165 198.546227417641 0
0 0

0101101
*
Ed
 1e-07 1 1 0
1  69 0 0 49.2752391073326
2  125 22 0 0 49.2752391073326
0

0101000
+91 0 -89 0 *
Ed
 1e-07 1 1 0
1  70 0 0 4.28480340063763
2  126 22 0 0 4.28480340063763
0

0101000
+89 0 -140 0 *
Wi

0101100
+90 0 +88 0 +87 0 +137 0 *
Fa
0  1e-07 22 0

0111000
+86 0 *
Ve
1e-07
38.4782146652497 85.9171094580234 0
0 0

0101101
*
Ed
 1e-07 1 1 0
1  71 0 0 4.28480340063761
2  127 25 0 0 4.28480340063761
0

0101000
+84 0 -132 0 *
Ve
1e-07
59.2901168969182 85.9171094580234 0
0 0

0101101
*
Ed
 1e-07 1 1 0
1  72 0 0 4.28480340063761
2  128 25 0 0 4.28480340063761
0

0101000
+130 0 -82 0 *
Ed
 1e-07 1 1 0
1  73 0 0 20.8119022316684
2  129 25 0 0 20.8119022316684
2  130 39 0 0 20.8119022316684
0

0101000
+82 0 -84 0 *
Wi

0101100
+83 0 +129 0 +81 0 +80 0 *
Fa
0  1e-07 25 0

0111000
+79 0 *
Ve
1e-07
228.539851222104 104.892667375133 0
0 0

0101101
*
Ed
 1e-07 1 1 0
1  74 0 0 4.28480340063761
2  131 28 0 0 4.28480340063761
0

0101000
+117 0 -77 0 *
Ve
1e-07
253.024442082891 104.892667375133 0
0 0

0101101
*
Ed
 1e-07 1 1 0
1  75 0 0 24.4845908607864
2  132 28 0 0 24.4845908607864
0

0101000
+77 0 -75 0 *
Ed
 1e-07 1 1 0
1  76 0 0 4.28480340063761
2  133 28 0 0 4.28480340063761
0

0101000
+75 0 -119 0 *
Wi

0101100
+76 0 +74 0 +73 0 +116 0 *
Fa
0  1e-07 28 0

0111000
+72 0 *
Ve
1.00000454747351e-07
168.552603613177 137.640807651435 0
0 0

0101101
*
Ve
1e-07
168.552603613177 141.619553666312 0
0 0

0101101
*
Ed
 1e-07 1 1 0
1  77 0 0 3.97874601487777
2  134 33 0 0 3.97874601487777
0

0101000
+70 0 -69 0 *
Ed
 1e-07 1 1 0
1  78 0 0 0.306057385759829
2  135 33 0 0 0.306057385759829
0

0101000
+69 0 -108 0 *
Ve
1e-07
188.752391073326 137.640807651435 0
0 0

0101101
*
Ed
 1e-07 1 1 0
1  79 0 0 4.2848034006376
2  136 33 0 0 4.2848034006376
0

0101000
+106 0 -66 0 *
Ed
 1e-07 1 1 0
1  80 0 0 20.1997874601488
2  137 40 0 0 20.1997874601488
2  138 41 0 0 20.1997874601488
2  139 33 0 0 20.1997874601488
0

0101000
+66 0 -70 0 *
Wi

0101100
+68 0 +67 0 +105 0 +65 0 +64 0 *
Fa
0  1e-07 33 0

0111000
+63 0 *
Ve
1e-07
231.294367693943 162.431455897981 0
0 0

0101101
*
Ed
 1e-07 1 1 0
1  81 0 0 4.2848034006376
2  140 35 0 0 4.2848034006376
0

0101000
+61 0 -102 0 *
Ve
1e-07
231.294367693943 187.222104144527 0
0 0

0101101
*
Ed
 1e-07 1 1 0
1  82 0 0 4.2848034006376
2  141 35 0 0 4.2848034006376
0

0101000
+100 0 -59 0 *
Ed
 1e-07 1 1 0
1  83 0 0 24.7906482465462
2  142 35 0 0 24.7906482465462
0

0101000
+59 0 -61 0 *
Wi

0101100
+60 0 +99 0 +58 0 +57 0 *
Fa
0  1e-07 35 0

0111000
+56 0 *
Ve
1e-07
172.531349628055 211.706695005313 0
0 0

0101101
*
Ed
 1e-07 1 1 0
1  84 0 0 4.28480340063763
2  143 38 0 0 4.28480340063763
0

0101000
+112 0 -54 0 *
Ve
1e-07
210.788522848034 211.706695005313 0
0 0

0101101
*
Ed
 1e-07 1 1 0
1  85 0 0 38.2571732199787
2  144 38 0 0 38.2571732199787
0

0101000
+54 0 -52 0 *
Ed
 1e-07 1 1 0
1  86 0 0 4.28480340063763
2  145 38 0 0 4.28480340063763
0

0101000
+52 0 -96 0 *
Wi

0101100
+53 0 +51 0 +50 0 +94 0 *
Fa
0  1e-07 38 0

0111000
+49 0 *
Ve
1e-07
13.0754516471839 85.9171094580234 0
0 0

0101101
*
Ed
 1e-07 1 1 0
1  87 0 0 25.4027630180659
2  146 42 0 0 25.4027630180659
2  147 39 0 0 25.4027630180659
0

0101000
+84 0 -47 0 *
Ve
1e-07
13.0754516471839 77.3475026567481 0
0 0

0101101
*
Ed
 1e-07 1 1 0
1  88 0 0 8.56960680127524
2  148 42 0 0 8.56960680127524
2  149 39 0 0 8.56960680127524
0

0101000
+47 0 -45 0 *
Ve
1e-07
13.0754516471839 61.7385759829968 0
0 0

0101101
*
Ed
 1e-07 1 1 0
1  89 0 0 15.6089266737513
2  150 43 0 0 15.6089266737513
2  151 39 0 0 15.6089266737513
0

0101000
+45 0 -43 0 *
Ve
1e-07
13.0754516471839 48.5781083953241 0
0 0

0101101
*
Ed
 1e-07 1 1 0
1  90 0 0 13.1604675876727
2  152 44 0 0 13.1604675876727
2  153 39 0 0 13.1604675876727
0

0101000
+43 0 -41 0 *
Ve
1e-07
73.6748140276302 48.5781083953241 0
0 0

0101101
*
Ed
 1e-07 1 1 0
1  91 0 0 60.5993623804463
2  154 44 0 0 60.5993623804463
2  155 39 0 0 60.5993623804463
0

0101000
+41 0 -39 0 *
Ve
1e-07
73.6748140276302 85.9171094580234 0
0 0

0101101
*
Ed
 1e-07 1 1 0
1  92 0 0 37.3390010626993
2  156 44 0 0 37.3390010626993
2  157 39 0 0 37.3390010626993
0

0101000
+39 0 -37 0 *
Ed
 1e-07 1 1 0
1  93 0 0 14.384697130712
2  158 44 0 0 14.384697130712
2  159 39 0 0 14.384697130712
0

0101000
+37 0 -82 0 *
Wi

0101100
-46 0 -44 0 -42 0 -40 0 -38 0 -36 0 -35 0 -80 0 *
Fa
0  1e-07 39 0

0101000
+34 0 *
Ve
1e-07
220.276301806589 113.768331562168 0
0 0

0101101
*
Ve
1e-07
220.276301806589 129.071200850159 0
0 0

0101101
*
Ed
 1e-07 1 1 0
1  94 0 0 15.3028692879915
2  160 45 0 0 15.3028692879915
2  161 41 0 0 15.3028692879915
0

0101000
+32 0 -31 0 *
Ve
1e-07
220.276301806589 137.640807651435 0
0 0

0101101
*
Ed
 1e-07 1 1 0
1  95 0 0 8.56960680127526
2  162 46 0 0 8.56960680127526
2  163 41 0 0 8.56960680127526
0

0101000
+31 0 -29 0 *
Ed
 1e-07 1 1 0
1  96 0 0 31.5239107332625
2  164 46 0 0 31.5239107332625
2  165 41 0 0 31.5239107332625
0

0101000
+29 0 -66 0 *
Ve
1e-07
168.552603613177 110.09564293305 0
0 0

0101101
*
Ed
 1e-07 1 1 0
1  97 0 4.28480340063726 31.8299681190223
2  166 47 0 4.28480340063726 31.8299681190223
2  167 41 0 4.28480340063726 31.8299681190223
0

0101000
+70 0 -26 0 *
Ve
1e-07
182.63124335813 110.09564293305 0
0 0

0101101
*
Ed
 1e-07 1 1 0
1  98 0 0 14.0786397449522
2  168 47 0 0 14.0786397449522
2  169 41 0 0 14.0786397449522
0

0101000
+26 0 -24 0 *
Ve
1e-07
182.63124335813 104.892667375133 0
0 0

0101101
*
Ed
 1e-07 1 1 0
1  99 0 0 5.20297555791711
2  170 47 0 0 5.20297555791711
2  171 41 0 0 5.20297555791711
0

0101000
+24 0 -22 0 *
Ve
1e-07
220.276301806589 104.892667375133 0
0 0

0101101
*
Ed
 1e-07 1 1 0
1  100 0 0 37.6450584484591
2  172 47 0 0 37.6450584484591
2  173 41 0 0 37.6450584484591
0

0101000
+22 0 -20 0 *
Ed
 1e-07 1 1 0
1  101 0 0 8.87566418703507
2  174 47 0 0 8.87566418703507
2  175 41 0 0 8.87566418703507
0

0101000
+20 0 -32 0 *
Wi

0101100
-30 0 -28 0 -27 0 -64 0 -25 0 -23 0 -21 0 -19 0 -18 0 *
Fa
0  1e-07 41 0

0101000
+17 0 *
Ve
1e-07
8.79064824654623 61.7385759829968 0
0 0

0101101
*
Ed
 1e-07 1 1 0
1  102 0 0 4.28480340063762
2  176 43 0 0 4.28480340063762
0

0101000
+43 0 -15 0 *
Ve
1e-07
8.79064824654623 77.3475026567481 0
0 0

0101101
*
Ed
 1e-07 1 1 0
1  103 0 0 15.6089266737513
2  177 43 0 0 15.6089266737513
0

0101000
+15 0 -13 0 *
Ed
 1e-07 1 1 0
1  104 0 0 4.28480340063762
2  178 43 0 0 4.28480340063762
0

0101000
+13 0 -45 0 *
Wi

0101100
+14 0 +12 0 +11 0 +42 0 *
Fa
0  1e-07 43 0

0111000
+10 0 *
Ve
1e-07
224.561105207226 113.768331562168 0
0 0

0101101
*
Ed
 1e-07 1 1 0
1  105 0 0 4.2848034006376
2  179 45 0 0 4.2848034006376
0

0101000
+8 0 -32 0 *
Ve
1e-07
224.561105207226 129.071200850159 0
0 0

0101101
*
Ed
 1e-07 1 1 0
1  106 0 0 4.2848034006376
2  180 45 0 0 4.2848034006376
0

0101000
+31 0 -6 0 *
Ed
 1e-07 1 1 0
1  107 0 0 15.3028692879915
2  181 45 0 0 15.3028692879915
0

0101000
+6 0 -8 0 *
Wi

0101100
+7 0 +30 0 +5 0 +4 0 *
Fa
0  1e-07 45 0

0111000
+3 0 *
Sh

0101000
+227 0 +212 0 +173 0 +166 0 +159 0 +150 0 +143 0 +126 0 +113 0 +92 0 
+85 0 +78 0 +71 0 +62 0 +55 0 +48 0 +33 0 +16 0 +9 0 +2 0 
*

+1 0 