
CASCADE Topology V3, (c) Open Cascade
Locations 0
Curve2ds 203
1 8.4880487697907938 -2.2230603920880867 0 1 
1 8.4880487697907938 2.2230603920880583 -1 0 
1 18.542106443425922 -25.817576817532284 -1 0 
1 -8.488048769790808 2.2230603920880583 0 -1 
1 -8.488048769790808 -2.2230603920880867 1 0 
1 -8.4880487697907796 15.157229946054969 1 0 
1 -18.383788063528101 48.154583739436688 -1 0 
1 1.5660089038443203 -25.817576817532284 -1 0 
1 -35.359885603109703 48.154583739436688 0 -1 
1 -15.410088635737281 -25.817576817532284 0 -1 
1 -35.359885603109703 13.394003063150549 -1 0 
1 -15.410088635737281 -60.578157493818424 -1 0 
1 9.9027235647559451 2.2230603920880867 -1 0 
1 -20.664595017036348 -60.578157493818424 -1 0 
1 0.29027066964002302 -72.2863842004231 0 1 
1 -40.470042146548209 -82.000375817576156 0 1 
1 0.29027066964002302 51.80080495794715 1 0 
1 -40.470042146548209 42.086813340794095 1 0 
1 -8.7911933687119159 -2.2230603920880867 1 0 
1 -15.511136835377656 42.086813340794095 1 0 
1 -35.841120881298423 24.296490734475242 1 0 
1 2.0712499020461479 42.086813340794095 1 0 
1 -10.882215570127855 24.296490734475242 0 1 
1 27.030155213216716 42.086813340794095 0 1 
1 -10.882215570127855 36.018081892757777 1 0 
1 27.030155213216716 53.80840449907663 1 0 
1 9.3274243579454819 36.018081892757777 0 -1 
1 47.239795141290053 53.80840449907663 0 -1 
1 9.3274243579454819 -43.607899423851137 -1 0 
1 47.239795141290053 -25.817576817532284 -1 0 
1 11.122286231458958 30.774293401293605 0 -1 
1 21.018025525196279 2.2230603920880299 0 -1 
1 11.122286231458958 13.394003063150549 -1 0 
1 21.018025525196279 -15.157229946055025 -1 0 
1 -30.913764818933558 13.394003063150549 0 1 
1 -21.018025525196236 -15.157229946055025 0 1 
1 -30.913764818933558 43.708462955260543 1 0 
1 -21.018025525196236 15.157229946054969 1 0 
1 -19.370264339918648 -48.054020208027282 1 0 
1 8.4880487697908222 15.157229946054969 1 0 
1 -6.8402875845131916 -48.054020208027282 0 -1 
1 21.018025525196279 15.157229946054969 0 -1 
1 -2.2230603920880725 5.0524099820183324 0 -1 
1 21.018025525196279 12.327880356124695 0 -1 
1 9.9027235647559451 -2.2230603920880441 0 1 
1 -9.9027235647559166 2.2230603920880867 0 -1 
1 -9.9027235647559166 -2.2230603920880441 1 0 
1 10.487382422917989 52.970886951232274 1 0 
1 -9.9027235647559166 -2.2230603920880441 1 0 
1 8.7911933687118875 -2.2230603920880867 0 1 
1 8.7911933687118875 2.2230603920880299 -1 0 
1 11.091270731226345 -14.175658851231731 -1 0 
1 -8.7911933687119159 2.2230603920880299 0 -1 
1 -2.2230603920880725 -5.0524099820183324 1 0 
1 2.2230603920880725 -5.0524099820183324 0 1 
1 2.2230603920880725 5.0524099820183324 -1 0 
1 -2.2230603920880725 9.0943379676330096 0 -1 
1 35.547335933728917 11.339028699401211 0 -1 
1 -2.2230603920880725 9.0943379676330096 0 -1 
1 -70.518096913372545 28.544326626911754 0 -1 
1 35.547335933728917 -6.8496472358647864 0 -1 
1 -2.2230603920880725 7.2754703741064048 0 -1 
1 35.547335933728917 -11.295768020040917 0 -1 
1 -2.2230603920880725 7.2754703741064048 0 -1 
1 47.547234610340112 22.090464081963361 -1 0 
1 39.993456717905062 -25.84670876825372 -1 0 
1 14.807617926861298 22.090464081963361 0 -1 
1 7.253840034426247 -25.84670876825372 0 -1 
1 14.807617926861298 -8.2239958101466328 -1 0 
1 7.253840034426247 -56.161168660363714 -1 0 
1 9.7006271654752254 2.2230603920880618 -1 0 
1 -75.605683670674409 -56.161168660363714 -1 0 
1 1.3835610837765273 -41.651268640462554 0 1 
1 -95.006938001624803 -60.607289444539845 0 1 
1 1.3835610837765273 30.295049503478502 1 0 
1 -95.006938001624803 11.339028699401211 1 0 
1 -8.7911933687119017 -2.2230603920880725 1 0 
1 -86.417841032193621 11.339028699401211 1 0 
1 -29.24788382195473 -34.567553969070687 1 0 
1 -68.835454294769818 11.339028699401211 1 0 
1 51.28753129141748 -34.567553969070687 0 1 
1 11.699960818602392 11.339028699401211 0 1 
1 51.28753129141748 -30.121433184894556 -1 0 
1 11.699960818602392 15.785149483577342 -1 0 
1 2.2230603920880583 -10.104819964036665 0 1 
1 10.487382422917989 15.785149483577342 0 1 
1 2.2230603920880583 -10.104819964036665 0 1 
1 0.29027066964002302 -72.2863842004231 0 1 
1 10.487382422917989 35.994789411650672 0 1 
1 -40.614391984408769 8.9478822789744186 1 0 
1 30.292829552429851 52.970886951232274 1 0 
1 -31.324891888513648 18.592968733827462 0 -1 
1 35.547535933728923 52.970986951232277 0 -1 
1 27.289998173917631 -28.237855188680513 -1 0 
1 98.197219710756258 15.785149483577342 -1 0 
1 -35.359885603109703 -28.237855188680513 0 -1 
1 35.547335933728917 15.785149483577342 0 -1 
1 32.008248056782264 14.117837048070925 -1 0 
1 -31.85421411592948 14.117837048070925 0 -1 
1 -31.85421411592948 -14.175658851231702 1 0 
1 -31.450021317368012 -14.175658851231702 1 0 
1 31.604055258220782 -14.175658851231702 0 1 
1 31.604055258220782 -2.4540676929491667 1 0 
1 31.771506560481953 -2.4540676929491667 0.014284256782851616 0.99989797479951015 
1 -2.2230603920880725 -9.0943379676329883 1 0 
1 2.2230603920880725 -9.0943379676329883 0 1 
1 -62.900239505716435 12.481717425997097 0 1 
1 2.2230603920880725 -9.0943379676329883 0 1 
1 2.2230603920880725 9.0943379676330096 -1 0 
1 -2.2230603920880725 -7.2754703741063977 1 0 
1 2.2230603920880725 -7.2754703741063977 0 1 
1 -14.753037147493529 7.8817595719485993 0 1 
1 2.2230603920880725 -7.2754703741063977 0 1 
1 2.2230603920880725 7.2754703741064048 -1 0 
1 9.7006271654752254 -2.2230603920880707 0 1 
1 -9.7006271654751686 2.2230603920880618 0 -1 
1 -9.7006271654751686 -2.2230603920880707 1 0 
1 8.7911933687119017 -2.2230603920880725 0 1 
1 8.7911933687119017 2.2230603920880725 -1 0 
1 6.7446195456716964 -13.825081591816698 -1 0 
1 -8.7911933687119017 2.2230603920880583 0 -1 
1 -2.2230603920880583 -10.104819964036665 1 0 
1 2.2230603920880583 10.104819964036665 -1 0 
1 -2.2230603920880583 10.104819964036665 0 -1 
1 30.978500445100565 -15.503671389468082 0 -1 
1 -2.2230603920880583 10.104819964036665 0 -1 
1 -40.614391984408769 8.9478822789744186 1 0 
1 -36.57959826981272 18.592868733827459 1 0 
1 27.289998173917631 8.9478822789744186 0 -1 
1 31.32479188851368 18.592868733827459 0 -1 
1 27.289998173917631 -28.237855188680513 -1 0 
1 31.32479188851368 -18.592868733827473 -1 0 
1 30.833247325915224 46.733002562177752 1 0 
1 34.004983949395182 30.670393361263095 1 0 
1 41.443308288153716 46.733002562177752 0 -1 
1 44.615044911633674 30.670393361263095 0 -1 
1 41.443308288153716 5.1011443103466902 1 0 
1 44.615044911633674 -10.961464890567967 1 0 
1 53.569092244997719 5.1011443103466902 0 -1 
1 56.740828868477678 -10.961464890567967 0 -1 
1 53.569092244997719 -20.767194797587173 -1 0 
1 56.740828868477678 -36.829803998501831 -1 0 
1 -32.119781050033204 -20.767194797587173 0 1 
1 -28.948044426553246 -36.829803998501831 0 1 
1 -32.119781050033204 28.544326626911754 -1 0 
1 -28.948044426553246 12.481717425997097 -1 0 
1 -35.359885603109703 -32.683975972856643 1 0 
1 -67.346360289892573 30.670393361263095 1 0 
1 -8.7911933687119017 -2.2230603920880867 1 0 
1 16.422597211971379 30.670393361263095 1 0 
1 2.2230603920880867 -5.0524099820183324 0 1 
1 -14.753037147493529 -22.432700320161395 0 1 
1 2.2230603920880867 -5.0524099820183324 0 1 
1 47.547234610340112 1.8808241538900319 0 1 
1 -14.753037147493529 -12.32788035612473 0 1 
1 -70.518096913372545 24.098205842735624 1 0 
1 -19.199157931669674 22.432700320161402 1 0 
1 -36.565901834209335 24.098205842735624 0 -1 
1 14.753037147493529 22.432700320161402 0 -1 
1 -36.565901834209335 -20.767194797587173 -1 0 
1 14.753037147493529 -22.432700320161395 -1 0 
1 18.567258903594592 10.810403926432926 -0.9098966369489111 0.41483503958689588 
1 15.230958214367973 12.331471674446618 -0.67673830801528767 0.73622364975909715 
1 13.266676107589717 14.468414307485958 -1 0 
1 -17.810092966937418 14.468414307485958 0 -1 
1 -17.810092966937418 -13.825081591816712 1 0 
1 6.7446195456716964 -13.825081591816712 1 0 
1 13.716945320856979 -13.825081591816712 1 0 
1 18.567258903594592 -13.825081591816712 0 1 
1 -14.361718278213147 -29.846140351469103 1 0 
1 20.772632281423512 26.936572459485916 1 0 
1 -4.1558501145360935 -29.846140351469103 0 -1 
1 30.978500445100565 26.936572459485916 0 -1 
1 51.28753129141748 -30.121433184894556 -1 0 
1 36.637199624961085 -35.713311317541411 -1 0 
1 -12.979123679855718 -30.121433184894556 0 1 
1 -27.629455346312113 -35.713311317541411 0 1 
1 -12.979123679855718 44.654234548976774 1 0 
1 -27.629455346312113 39.062356416329919 1 0 
1 8.038901845340547 44.654234548976774 0 -1 
1 -6.6114298211158484 39.062356416329919 0 -1 
1 8.038901845340547 32.528450592132771 1 0 
1 -6.6114298211158484 26.936572459485916 1 0 
1 -8.7911933687118733 -2.2230603920880583 1 0 
1 3.1902455439997084 26.936572459485916 1 0 
1 -8.7911933687118733 -2.2230603920880583 1 0 
1 8.7911933687119017 -2.2230603920880867 0 1 
1 8.7911933687119017 2.2230603920880583 -1 0 
1 -8.7911933687119017 2.2230603920880583 0 -1 
1 -2.2230603920880583 -5.0524099820183324 1 0 
1 2.2230603920880867 5.0524099820183324 -1 0 
1 -2.2230603920880583 5.0524099820183324 0 -1 
1 8.7911933687119301 -2.2230603920880583 0 1 
1 -16.205063350617365 -13.807816049024382 1 0 
1 -14.146747949651285 2.2230603920880867 1 0 
1 -8.7911933687118733 2.2230603920880583 0 -1 
1 16.938746131422903 10.827669469224873 -0.90989663694886125 0.41483503958700518 
1 13.602445442195943 12.348737217239204 -0.67673830801525969 0.7362236497591228 
1 11.638163335418085 14.485679850278274 -1 0 
1 -16.205063350617365 14.485679850278274 0 -1 
1 -16.205063350617365 -1.6820320921804068 0 -1 
1 12.08843254868529 -13.807816049024382 1 0 
1 16.938746131422903 -13.807816049024382 0 1 
Curves 122
1 90.814262532345069 157.91026709354853 0 0 1 0 
1 90.814262532345069 162.35638787772467 0 1 0 0 
1 107.79036007192667 162.35638787772467 0 0 -1 0 
1 107.79036007192667 157.91026709354853 0 -1 0 0 
1 107.79036007192667 162.35638787772467 0 1 0 0 
1 124.76645761150827 162.35638787772467 0 0 -1 0 
1 124.76645761150827 127.59580720143853 0 1 0 0 
1 130.02096399280734 127.59580720143853 0 1 0 0 
1 149.8264111223192 106.1735888776808 0 0 1 0 
1 149.8264111223192 230.26077803605105 0 -1 0 0 
1 124.86750581114865 230.26077803605105 0 -1 0 0 
1 107.28511907372484 230.26077803605105 0 -1 0 0 
1 82.326213762554275 230.26077803605105 0 0 1 0 
1 82.326213762554275 241.98236919433359 0 -1 0 0 
1 62.116573834480938 241.98236919433359 0 0 -1 0 
1 62.116573834480938 162.35638787772467 0 1 0 0 
1 78.284285776939612 144.97609753958159 0 0 -1 0 
1 78.284285776939612 127.59580720143853 0 1 0 0 
1 120.32033682733213 127.59580720143853 0 0 1 0 
1 120.32033682733213 157.91026709354853 0 -1 0 0 
1 90.814262532345069 157.91026709354853 0 -1 0 0 
1 78.284285776939612 157.91026709354853 0 0 -1 0 
1 78.284285776939612 155.08091750361825 0 0 -1 0 
1 130.02096399280734 123.1496864172624 0 0 1 0 
1 149.8264111223192 127.59580720143853 0 0 -1 0 
1 149.8264111223192 123.1496864172624 0 -1 0 0 
1 107.28511907372484 230.26077803605105 0 0 1 0 
1 107.28511907372484 234.70689882022717 0 1 0 0 
1 124.86750581114865 234.70689882022717 0 0 -1 0 
1 78.284285776939612 144.97609753958159 0 -1 0 0 
1 73.838164992763467 144.97609753958159 0 0 1 0 
1 73.838164992763467 155.08091750361825 0 1 0 0 
1 124.76645761150827 81.517828165431339 0 0 -1 0 
1 124.76645761150827 63.329152230165342 0 0 -1 0 
1 124.76645761150827 58.883031445989211 0 0 -1 0 
1 120.32033682733213 44.332090697776408 0 1 0 0 
1 153.05995351081094 44.332090697776408 0 0 -1 0 
1 153.05995351081094 14.017630805666414 0 1 0 0 
1 235.9194772159116 14.017630805666414 0 1 0 0 
1 255.32073154686199 9.5715100214902815 0 0 1 0 
1 255.32073154686199 81.517828165431339 0 -1 0 0 
1 246.73163457743081 81.517828165431339 0 -1 0 0 
1 229.14924784000701 81.517828165431339 0 -1 0 0 
1 148.6138327266348 81.517828165431339 0 0 1 0 
1 148.6138327266348 85.96394894960747 0 1 0 0 
1 149.8264111223192 85.96394894960747 0 0 1 0 
1 149.8264111223192 106.1735888776808 0 0 1 0 
1 130.02096399280734 123.1496864172624 0 -1 0 0 
1 124.76625761150827 123.1497864172624 0 0 -1 0 
1 62.116573834480938 85.96394894960747 0 1 0 0 
1 124.76645761150827 85.96394894960747 0 0 -1 0 
1 86.368141748168924 263.00039471952982 0 1 0 0 
1 150.23060392088067 263.00039471952982 0 0 -1 0 
1 150.23060392088067 234.7068988202272 0 -1 0 0 
1 149.8264111223192 234.7068988202272 0 -1 0 0 
1 86.772334546730406 234.7068988202272 0 0 1 0 
1 86.772334546730406 246.42848997850973 0 -1 0 0 
1 86.604883244469235 246.42848997850973 0 -0.014284256782851616 0.99989797479951015 0 
1 124.76645761150827 63.329152230165342 0 -1 0 0 
1 120.32033682733213 63.329152230165342 0 0 1 0 
1 120.32033682733213 81.517828165431339 0 1 0 0 
1 124.76645761150827 44.332090697776408 0 -1 0 0 
1 120.32033682733213 44.332090697776408 0 0 1 0 
1 120.32033682733213 58.883031445989211 0 1 0 0 
1 235.9194772159116 9.5715100214902815 0 0 1 0 
1 255.32073154686199 14.017630805666414 0 0 -1 0 
1 255.32073154686199 9.5715100214902815 0 -1 0 0 
1 229.14924784000701 81.517828165431339 0 0 1 0 
1 229.14924784000701 85.963948949607484 0 1 0 0 
1 246.73163457743081 85.96394894960747 0 0 -1 0 
1 154.27253190649532 85.96394894960747 0 -1 0 0 
1 149.8264111223192 106.1735888776808 0 1 0 0 
1 154.27253190649532 106.1735888776808 0 0 -1 0 
1 130.02096399280734 123.1496864172624 0 -1 0 0 
1 62.116573834480938 123.1496864172624 0 0 -1 0 
1 62.116573834480938 85.96394894960747 0 1 0 0 
1 23.41511337222051 81.517828165431339 0 -1 0 0 
1 12.805052409982014 81.517828165431339 0 0 -1 0 
1 12.805052409982014 39.885969913600277 0 -1 0 0 
1 0.67926845313801509 39.885969913600277 0 0 -1 0 
1 0.67926845313801509 14.017630805666414 0 1 0 0 
1 86.368141748168938 14.017630805666414 0 0 1 0 
1 86.368141748168938 63.329152230165342 0 1 0 0 
1 124.76645761150827 81.517828165431339 0 -1 0 0 
1 40.997500109644314 81.517828165431339 0 -1 0 0 
1 120.32033682733213 14.017630805666414 0 0 1 0 
1 120.32033682733213 24.122450769703079 0 0 1 0 
1 124.76645761150827 58.883031445989211 0 -1 0 0 
1 90.814262532345069 58.883031445989211 0 0 -1 0 
1 90.814262532345069 14.017630805666414 0 1 0 0 
1 217.32660848208411 110.59943446785711 0 0.9098966369489111 0.41483503958689588 0 
1 220.66290917131073 112.1205022158708 0 0.67673830801528767 0.73622364975909715 0 
1 222.62719127808899 114.25744484891014 0 1 0 0 
1 253.70396035261612 114.25744484891014 0 0 -1 0 
1 253.70396035261612 85.96394894960747 0 -1 0 0 
1 229.14924784000701 85.96394894960747 0 -1 0 0 
1 222.17692206482172 85.96394894960747 0 -1 0 0 
1 217.32660848208411 85.96394894960747 0 0 1 0 
1 164.47840007017237 148.6138327266348 0 -1 0 0 
1 154.27253190649532 148.6138327266348 0 0 -1 0 
1 148.6138327266348 85.96394894960747 0 1 0 0 
1 212.88048769790799 85.96394894960747 0 0 1 0 
1 212.88048769790799 160.7396166834788 0 -1 0 0 
1 191.86246217271173 160.7396166834788 0 0 -1 0 
1 191.86246217271173 148.6138327266348 0 -1 0 0 
1 182.06078680759617 148.6138327266348 0 -1 0 0 
1 23.41511337222051 81.517828165431339 0 0 1 0 
1 23.41511337222051 85.963948949607484 0 1 0 0 
1 40.997500109644314 85.963948949607484 0 0 -1 0 
1 124.76645761150827 14.017630805666414 0 -1 0 0 
1 120.32033682733213 24.122450769703079 0 1 0 0 
1 124.76645761150827 24.122450769703079 0 0 -1 0 
1 164.47840007017237 148.6138327266348 0 0 1 0 
1 187.41634138853559 153.05995351081094 0 -1 0 0 
1 182.06078680759617 153.05995351081091 0 0 -1 0 
1 154.27253190649532 177.6954390290602 0 0.90989663694886125 0.41483503958700518 0 
1 157.60883259572228 179.21650677707453 0 0.67673830801525969 0.7362236497591228 0 
1 159.57311470250013 181.3534494101136 0 1 0 0 
1 187.41634138853559 181.3534494101136 0 0 -1 0 
1 187.41634138853559 165.18573746765492 0 0 -1 0 
1 159.12284548923293 153.05995351081094 0 -1 0 0 
1 154.27253190649532 153.05995351081094 0 0 1 0 
Polygon3D 0
PolygonOnTriangulations 0
Surfaces 49
1 99.302311302135863 160.13332748563661 0 -0 -0 -1 -1 0 0 0 1 -0 
1 109.35636897577099 188.17396469525696 0 -0 -0 -1 -1 0 0 0 1 -0 
1 99.302311302135891 142.75303714749356 0 -0 -0 -1 -1 0 0 0 1 -0 
1 89.40657200839857 114.20180413828798 0 -0 -0 -1 -1 0 0 0 1 -0 
1 139.92368755756328 125.37274680935045 0 -0 -0 -1 -1 0 0 0 1 -0 
1 150.11668179195922 178.4599730781039 0 -0 -0 -1 -1 0 0 0 1 -0 
1 116.07631244243673 232.48383842813914 0 -0 -0 -1 -1 0 0 0 1 -0 
1 71.44399819242642 205.96428730157581 0 -0 -0 -1 -1 0 0 0 1 -0 
1 89.40657200839857 114.20180413828798 0 -0 -0 -1 -1 0 0 0 1 -0 
1 71.44399819242642 205.96428730157581 0 -0 -0 -1 -1 0 0 0 1 -0 
1 76.061225384851539 150.02850752159992 0 -0 -0 -1 -1 0 0 0 1 -0 
1 139.92368755756328 125.37274680935045 0 -0 -0 -1 -1 0 0 0 1 -0 
1 160.31379354523719 70.178799466030128 0 -0 -0 -1 -1 0 0 0 1 -0 
1 118.37638980495119 248.8825576714589 0 -0 -0 -1 -1 0 0 0 1 -0 
1 122.5433972194202 72.42349019779833 0 -0 -0 -1 -1 0 0 0 1 -0 
1 122.5433972194202 72.42349019779833 0 -0 -0 -1 -1 0 0 0 1 -0 
1 54.248360698135734 34.784825603253587 0 -0 -0 -1 -1 0 0 0 1 -0 
1 122.5433972194202 51.607561071882806 0 -0 -0 -1 -1 0 0 0 1 -0 
1 122.5433972194202 51.607561071882806 0 -0 -0 -1 -1 0 0 0 1 -0 
1 167.86757143767224 22.241626615813047 0 -0 -0 -1 -1 0 0 0 1 -0 
1 245.62010438138682 11.794570413578352 0 -0 -0 -1 -1 0 0 0 1 -0 
1 256.70429263063852 51.222778661952837 0 -0 -0 -1 -1 0 0 0 1 -0 
1 237.94044120871891 83.740888557519412 0 -0 -0 -1 -1 0 0 0 1 -0 
1 199.90136401805228 116.08538213450203 0 -0 -0 -1 -1 0 0 0 1 -0 
1 152.04947151440726 96.068768913644135 0 -0 -0 -1 -1 0 0 0 1 -0 
1 152.04947151440726 96.068768913644135 0 -0 -0 -1 -1 0 0 0 1 -0 
1 150.11668179195922 178.4599730781039 0 -0 -0 -1 -1 0 0 0 1 -0 
1 89.40657200839857 114.20180413828798 0 -0 -0 -1 -1 0 0 0 1 -0 
1 93.441365722994618 104.55681768343494 0 -0 -0 -1 -1 0 0 0 1 -0 
1 122.5433972194202 72.42349019779833 0 -0 -0 -1 -1 0 0 0 1 -0 
1 57.420097321615692 50.847434804168245 0 -0 -0 -1 -1 0 0 0 1 -0 
1 122.5433972194202 51.607561071882806 0 -0 -0 -1 -1 0 0 0 1 -0 
1 105.5672996798386 36.450331125827809 0 -0 -0 -1 -1 0 0 0 1 -0 
1 235.8938673856787 99.789030541424182 0 -0 -0 -1 -1 0 0 0 1 -0 
1 152.04947151440726 96.068768913644135 0 -0 -0 -1 -1 0 0 0 1 -0 
1 185.25103235159588 121.67726026714888 0 -0 -0 -1 -1 0 0 0 1 -0 
1 89.40657200839857 114.20180413828798 0 -0 -0 -1 -1 0 0 0 1 -0 
1 54.248360698135734 34.784825603253587 0 -0 -0 -1 -1 0 0 0 1 -0 
1 89.40657200839857 114.20180413828798 0 -0 -0 -1 -1 0 0 0 1 -0 
1 32.206306740932412 83.740888557519426 0 -0 -0 -1 -1 0 0 0 1 -0 
1 122.54339721942021 19.070040787684746 0 -0 -0 -1 -1 0 0 0 1 -0 
1 122.54339721942021 19.070040787684746 0 -0 -0 -1 -1 0 0 0 1 -0 
1 167.86757143767224 22.241626615813047 0 -0 -0 -1 -1 0 0 0 1 -0 
1 54.248360698135734 34.784825603253587 0 -0 -0 -1 -1 0 0 0 1 -0 
1 150.11668179195922 178.4599730781039 0 -0 -0 -1 -1 0 0 0 1 -0 
1 199.90136401805228 116.08538213450203 0 -0 -0 -1 -1 0 0 0 1 -0 
1 173.2695934388843 150.83689311872286 0 -0 -0 -1 -1 0 0 0 1 -0 
1 173.2695934388843 150.83689311872286 0 -0 -0 -1 -1 0 0 0 1 -0 
1 171.21127803791822 166.86776955983532 0 -0 -0 -1 -1 0 0 0 1 -0 
Triangulations 0

TShapes 274
Ve
1e-07
90.8142625323451 157.910267093549 0
0 0

0101101
*
Ve
1e-07
90.8142625323451 162.356387877725 0
0 0

0101101
*
Ed
 1e-07 1 1 0
1  1 0 0 4.44612078417614
2  1 1 0 0 4.44612078417614
0

0101000
+274 0 -273 0 *
Ve
1e-07
107.790360071927 162.356387877725 0
0 0

0101101
*
Ed
 1e-07 1 1 0
1  2 0 0 16.9760975395816
2  2 1 0 0 16.9760975395816
2  3 2 0 0 16.9760975395816
0

0101000
+273 0 -271 0 *
Ve
1e-07
107.790360071927 157.910267093549 0
0 0

0101101
*
Ed
 1e-07 1 1 0
1  3 0 0 4.44612078417614
2  4 1 0 0 4.44612078417614
0

0101000
+271 0 -269 0 *
Ed
 1e-07 1 1 0
1  4 0 0 16.9760975395816
2  5 1 0 0 16.9760975395816
2  6 3 0 0 16.9760975395816
0

0101000
+269 0 -274 0 *
Wi

0101100
+272 0 +270 0 +268 0 +267 0 *
Fa
0  1e-07 1 0

0111000
+266 0 *
Ve
1e-07
124.766457611508 162.356387877725 0
0 0

0101101
*
Ed
 1e-07 1 1 0
1  5 0 0 16.9760975395816
2  7 4 0 0 16.9760975395816
2  8 2 0 0 16.9760975395816
0

0101000
+271 0 -264 0 *
Ve
1e-07
124.766457611508 127.595807201439 0
0 0

0101101
*
Ed
 1e-07 1 1 0
1  6 0 0 34.7605806762861
2  9 4 0 0 34.7605806762861
2  10 2 0 0 34.7605806762861
0

0101000
+264 0 -262 0 *
Ve
1e-07
130.020963992807 127.595807201439 0
0 0

0101101
*
Ed
 1e-07 1 1 0
1  7 0 0 5.25450638129907
2  11 4 0 0 5.25450638129907
2  12 2 0 0 5.25450638129907
0

0101000
+262 0 -260 0 *
Ve
1.00000198951966e-07
149.826411122319 127.595807201439 0
0 0

0101101
*
Ed
 1e-07 1 1 0
1  8 0 0 19.8054471295119
2  13 5 0 0 19.8054471295119
2  14 2 0 0 19.8054471295119
0

0101000
+260 0 -258 0 *
Ve
1e-07
149.826411122319 230.260778036051 0
0 0

0101101
*
Ed
 1e-07 1 1 0
1  9 0 21.4222183237582 124.08718915837
2  15 6 0 21.4222183237582 124.08718915837
2  16 2 0 21.4222183237582 124.08718915837
0

0101000
+258 0 -256 0 *
Ve
1e-07
124.867505811149 230.260778036051 0
0 0

0101101
*
Ed
 1e-07 1 1 0
1  10 0 0 24.9589053111706
2  17 6 0 0 24.9589053111706
2  18 2 0 0 24.9589053111706
0

0101000
+256 0 -254 0 *
Ve
1e-07
107.285119073725 230.260778036051 0
0 0

0101101
*
Ed
 1e-07 1 1 0
1  11 0 0 17.5823867374238
2  19 7 0 0 17.5823867374238
2  20 2 0 0 17.5823867374238
0

0101000
+254 0 -252 0 *
Ve
1e-07
82.3262137625543 230.260778036051 0
0 0

0101101
*
Ed
 1e-07 1 1 0
1  12 0 0 24.9589053111706
2  21 8 0 0 24.9589053111706
2  22 2 0 0 24.9589053111706
0

0101000
+252 0 -250 0 *
Ve
1e-07
82.3262137625543 241.982369194334 0
0 0

0101101
*
Ed
 1e-07 1 1 0
1  13 0 0 11.7215911582825
2  23 8 0 0 11.7215911582825
2  24 2 0 0 11.7215911582825
0

0101000
+250 0 -248 0 *
Ve
1e-07
62.1165738344809 241.982369194334 0
0 0

0101101
*
Ed
 1e-07 1 1 0
1  14 0 0 20.2096399280733
2  25 8 0 0 20.2096399280733
2  26 2 0 0 20.2096399280733
0

0101000
+248 0 -246 0 *
Ve
1e-07
62.1165738344809 162.356387877725 0
0 0

0101101
*
Ed
 1e-07 1 1 0
1  15 0 0 79.6259813166089
2  27 8 0 0 79.6259813166089
2  28 2 0 0 79.6259813166089
0

0101000
+246 0 -244 0 *
Ed
 1e-07 1 1 0
1  16 0 0 28.6976886978641
2  29 8 0 0 28.6976886978641
2  30 2 0 0 28.6976886978641
0

0101000
+244 0 -273 0 *
Wi

0101100
-270 0 -263 0 -261 0 -259 0 -257 0 -255 0 -253 0 -251 0 -249 0 -247 0 
-245 0 -243 0 -242 0 *
Fa
0  1e-07 2 0

0101000
+241 0 *
Ve
1e-07
78.2842857769396 144.976097539582 0
0 0

0101101
*
Ve
1e-07
78.2842857769396 127.595807201439 0
0 0

0101101
*
Ed
 1e-07 1 1 0
1  17 0 0 17.3802903381431
2  31 9 0 0 17.3802903381431
2  32 3 0 0 17.3802903381431
0

0101000
+239 0 -238 0 *
Ve
1e-07
120.320336827332 127.595807201439 0
0 0

0101101
*
Ed
 1e-07 1 1 0
1  18 0 0 42.0360510503925
2  33 9 0 0 42.0360510503925
2  34 3 0 0 42.0360510503925
0

0101000
+238 0 -236 0 *
Ve
1e-07
120.320336827332 157.910267093549 0
0 0

0101101
*
Ed
 1e-07 1 1 0
1  19 0 0 30.31445989211
2  35 9 0 0 30.31445989211
2  36 3 0 0 30.31445989211
0

0101000
+236 0 -234 0 *
Ed
 1e-07 1 1 0
1  20 0 0 12.5299767554055
2  37 9 0 0 12.5299767554055
2  38 3 0 0 12.5299767554055
0

0101000
+234 0 -269 0 *
Ve
1e-07
78.2842857769396 157.910267093549 0
0 0

0101101
*
Ed
 1e-07 1 1 0
1  21 0 0 12.5299767554055
2  39 10 0 0 12.5299767554055
2  40 3 0 0 12.5299767554055
0

0101000
+274 0 -231 0 *
Ve
1e-07
78.2842857769396 155.080917503618 0
0 0

0101101
*
Ed
 1e-07 1 1 0
1  22 0 0 2.82934958993027
2  41 10 0 0 2.82934958993027
2  42 3 0 0 2.82934958993027
0

0101000
+231 0 -229 0 *
Ed
 1e-07 1 1 0
1  23 0 0 10.1048199640367
2  43 11 0 0 10.1048199640367
2  44 3 0 0 10.1048199640367
0

0101000
+229 0 -239 0 *
Wi

0101100
-237 0 -235 0 -233 0 -232 0 -267 0 -230 0 -228 0 -227 0 *
Fa
0  1e-07 3 0

0101000
+226 0 *
Ve
1e-07
130.020963992807 123.149686417262 0
0 0

0101101
*
Ed
 1e-07 1 1 0
1  24 0 0 4.44612078417613
2  45 5 0 0 4.44612078417613
0

0101000
+224 0 -260 0 *
Ve
1.00000198951966e-07
149.826411122319 123.149686417262 0
0 0

0101101
*
Ed
 1e-07 1 1 0
1  25 0 0 4.44612078417613
2  46 5 0 0 4.44612078417613
0

0101000
+258 0 -222 0 *
Ed
 1e-07 1 1 0
1  26 0 0 19.8054471295119
2  47 12 0 0 19.8054471295119
2  48 13 0 0 19.8054471295119
2  49 5 0 0 19.8054471295119
0

0101000
+222 0 -224 0 *
Wi

0101100
+223 0 +257 0 +221 0 +220 0 *
Fa
0  1e-07 5 0

0111000
+219 0 *
Ve
1.00000198951966e-07
107.285119073725 234.706898820227 0
0 0

0101101
*
Ed
 1e-07 1 1 0
1  27 0 0 4.44612078417612
2  50 7 0 0 4.44612078417612
0

0101000
+252 0 -217 0 *
Ve
1.00000198951966e-07
124.867505811149 234.706898820227 0
0 0

0101101
*
Ed
 1.00000056843418e-07 1 1 0
1  28 0 0 17.5823867374238
2  51 7 0 0 17.5823867374238
2  52 14 0 0 17.5823867374238
0

0101000
+217 0 -215 0 *
Ed
 1e-07 1 1 0
1  29 0 0 4.44612078417612
2  53 7 0 0 4.44612078417612
0

0101000
+215 0 -254 0 *
Wi

0101100
+251 0 +216 0 +214 0 +213 0 *
Fa
0  1e-07 7 0

0111000
+212 0 *
Ve
1e-07
73.8381649927635 144.976097539582 0
0 0

0101101
*
Ed
 1e-07 1 1 0
1  30 0 0 4.44612078417614
2  54 11 0 0 4.44612078417614
0

0101000
+239 0 -210 0 *
Ve
1e-07
73.8381649927635 155.080917503618 0
0 0

0101101
*
Ed
 1e-07 1 1 0
1  31 0 0 10.1048199640367
2  55 11 0 0 10.1048199640367
0

0101000
+210 0 -208 0 *
Ed
 1e-07 1 1 0
1  32 0 0 4.44612078417614
2  56 11 0 0 4.44612078417614
0

0101000
+208 0 -229 0 *
Wi

0101100
+209 0 +207 0 +206 0 +227 0 *
Fa
0  1e-07 11 0

0111000
+205 0 *
Ve
1e-07
124.766457611508 81.5178281654313 0
0 0

0101101
*
Ve
1e-07
124.766457611508 63.3291522301653 0
0 0

0101101
*
Ed
 1e-07 1 1 0
1  33 0 0 18.188675935266
2  57 15 0 0 18.188675935266
2  58 13 0 0 18.188675935266
2  59 16 0 0 18.188675935266
0

0101000
+203 0 -202 0 *
Ve
1e-07
124.766457611508 58.8830314459892 0
0 0

0101101
*
Ed
 1e-07 1 1 0
1  34 0 0 4.44612078417613
2  60 17 0 0 4.44612078417613
2  61 13 0 0 4.44612078417613
0

0101000
+202 0 -200 0 *
Ve
1.00000007105427e-07
124.766457611508 44.3320906977764 0
0 0

0101101
*
Ed
 1e-07 1 1 0
1  35 0 0 14.5509407482128
2  62 18 0 0 14.5509407482128
2  63 13 0 0 14.5509407482128
2  64 19 0 0 14.5509407482128
0

0101000
+200 0 -198 0 *
Ve
1e-07
153.059953510811 44.3320906977764 0
0 0

0101101
*
Ed
 1e-07 1 1 0
1  36 0 4.44612078417587 32.7396166834788
2  65 20 0 4.44612078417587 32.7396166834788
2  66 13 0 4.44612078417587 32.7396166834788
0

0101000
+198 0 -196 0 *
Ve
1e-07
153.059953510811 14.0176308056664 0
0 0

0101101
*
Ed
 1e-07 1 1 0
1  37 0 0 30.31445989211
2  67 20 0 0 30.31445989211
2  68 13 0 0 30.31445989211
0

0101000
+196 0 -194 0 *
Ve
1e-07
235.919477215912 14.0176308056664 0
0 0

0101101
*
Ed
 1e-07 1 1 0
1  38 0 0 82.8595237051007
2  69 20 0 0 82.8595237051007
2  70 13 0 0 82.8595237051007
0

0101000
+194 0 -192 0 *
Ve
1e-07
255.320731546862 14.0176308056664 0
0 0

0101101
*
Ed
 1e-07 1 1 0
1  39 0 0 19.4012543309504
2  71 21 0 0 19.4012543309504
2  72 13 0 0 19.4012543309504
0

0101000
+192 0 -190 0 *
Ve
1e-07
255.320731546862 81.5178281654313 0
0 0

0101101
*
Ed
 1e-07 1 1 0
1  40 0 4.44612078417612 71.9463181439411
2  73 22 0 4.44612078417612 71.9463181439411
2  74 13 0 4.44612078417612 71.9463181439411
0

0101000
+190 0 -188 0 *
Ve
1e-07
246.731634577431 81.5178281654313 0
0 0

0101101
*
Ed
 1e-07 1 1 0
1  41 0 0 8.58909696943118
2  75 22 0 0 8.58909696943118
2  76 13 0 0 8.58909696943118
0

0101000
+188 0 -186 0 *
Ve
1e-07
229.149247840007 81.5178281654313 0
0 0

0101101
*
Ed
 1e-07 1 1 0
1  42 0 0 17.5823867374238
2  77 23 0 0 17.5823867374238
2  78 13 0 0 17.5823867374238
0

0101000
+186 0 -184 0 *
Ve
1e-07
148.613832726635 81.5178281654313 0
0 0

0101101
*
Ed
 1e-07 1 1 0
1  43 0 0 80.5354151133722
2  79 24 0 0 80.5354151133722
2  80 13 0 0 80.5354151133722
0

0101000
+184 0 -182 0 *
Ve
1e-07
148.613832726635 85.9639489496075 0
0 0

0101101
*
Ed
 1e-07 1 1 0
1  44 0 0 4.44612078417613
2  81 24 0 0 4.44612078417613
2  82 13 0 0 4.44612078417613
0

0101000
+182 0 -180 0 *
Ve
1.00000028421709e-07
149.826411122319 85.9639489496075 0
0 0

0101101
*
Ed
 1e-07 1 1 0
1  45 0 0 1.2125783956842
2  83 24 0 0 1.2125783956842
2  84 13 0 0 1.2125783956842
0

0101000
+180 0 -178 0 *
Ve
1e-07
149.826411122319 106.173588877681 0
0 0

0101101
*
Ed
 1e-07 1 1 0
1  46 0 0 20.2096399280733
2  85 25 0 0 20.2096399280733
2  86 13 0 0 20.2096399280733
2  87 26 0 0 20.2096399280733
0

0101000
+178 0 -176 0 *
Ed
 1e-07 1 1 0
1  47 0 0 16.9760975395812
2  88 27 0 0 16.9760975395812
2  89 13 0 0 16.9760975395812
0

0101000
+176 0 -222 0 *
Ve
1e-07
124.766257611508 123.149686417262 0
0 0

0101101
*
Ed
 1e-07 1 1 0
1  48 0 0 5.25470638129907
2  90 28 0 0 5.25470638129907
2  91 13 0 0 5.25470638129907
0

0101000
+224 0 -173 0 *
Ve
1e-07
124.766257611508 85.9639489496075 0
0 0

0101101
*
Ed
 1e-07 1 1 0
1  49 0 0.00010000000000332 37.1858374676549
2  92 29 0 0.00010000000000332 37.1858374676549
2  93 13 0 0.00010000000000332 37.1858374676549
0

0101000
+173 0 -171 0 *
Ve
1e-07
124.766457611508 85.9639489496075 0
0 0

0101101
*
Ed
 1e-07 1 1 0
1  50 0 62.6496837770273 62.6498837770273
2  94 28 0 62.6496837770273 62.6498837770273
2  95 13 0 62.6496837770273 62.6498837770273
0

0101000
+171 0 -169 0 *
Ed
 1e-07 1 1 0
1  51 0 0 4.44612078417613
2  96 28 0 0 4.44612078417613
2  97 13 0 0 4.44612078417613
0

0101000
+169 0 -203 0 *
Wi

0101100
-201 0 -199 0 -197 0 -195 0 -193 0 -191 0 -189 0 -187 0 -185 0 -183 0 
-181 0 -179 0 -177 0 -175 0 -174 0 -220 0 -172 0 -170 0 -168 0 -167 0 
*
Fa
0  1e-07 13 0

0101000
+166 0 *
Ve
1e-07
86.3681417481689 263.00039471953 0
0 0

0101101
*
Ve
1e-07
150.230603920881 263.00039471953 0
0 0

0101101
*
Ed
 1e-07 1 1 0
1  52 0 0 63.8624621727117
2  98 14 0 0 63.8624621727117
0

0101000
+164 0 -163 0 *
Ve
1e-07
150.230603920881 234.706898820227 0
0 0

0101101
*
Ed
 1e-07 1 1 0
1  53 0 0 28.2934958993026
2  99 14 0 0 28.2934958993026
0

0101000
+163 0 -161 0 *
Ve
1e-07
149.826411122319 234.706898820227 0
0 0

0101101
*
Ed
 1e-07 1 1 0
1  54 0 0 0.404192798561468
2  100 14 0 0 0.404192798561468
0

0101000
+161 0 -159 0 *
Ed
 1e-07 1 1 0
1  55 0 0 24.9589053111702
2  101 14 0 0 24.9589053111702
0

0101000
+159 0 -215 0 *
Ve
1.00000099475983e-07
86.7723345467304 234.706898820227 0
0 0

0101101
*
Ed
 1e-07 1 1 0
1  55 0 42.5412920485942 63.0540765755888
2  101 14 0 42.5412920485942 63.0540765755888
0

0101000
+217 0 -156 0 *
Ve
1.00000127897692e-07
86.7723345467304 246.42848997851 0
0 0

0101101
*
Ed
 1e-07 1 1 0
1  56 0 0 11.7215911582825
2  102 14 0 0 11.7215911582825
0

0101000
+156 0 -154 0 *
Ve
1e-07
86.6048832444692 246.42848997851 0
0 0

0101101
*
Ed
 1e-07 1 1 0
1  57 0 0 0.167451302261171
2  103 14 0 0 0.167451302261171
0

0101000
+154 0 -152 0 *
Ed
 1e-07 1 1 0
1  58 0 0 16.5735956654407
2  104 14 0 0 16.5735956654407
0

0101000
+152 0 -164 0 *
Wi

0101100
+162 0 +160 0 +158 0 +157 0 -214 0 +155 0 +153 0 +151 0 +150 0 *
Fa
0  1e-07 14 0

0111000
+149 0 *
Ve
1.00000042632564e-07
120.320336827332 63.3291522301653 0
0 0

0101101
*
Ed
 1e-07 1 1 0
1  59 0 0 4.44612078417614
2  105 16 0 0 4.44612078417614
0

0101000
+202 0 -147 0 *
Ve
1.00000042632564e-07
120.320336827332 81.5178281654313 0
0 0

0101101
*
Ed
 1e-07 1 1 0
1  60 0 0 18.188675935266
2  106 30 0 0 18.188675935266
2  107 31 0 0 18.188675935266
2  108 16 0 0 18.188675935266
0

0101000
+147 0 -145 0 *
Ed
 1e-07 1 1 0
1  61 0 0 4.44612078417614
2  109 16 0 0 4.44612078417614
0

0101000
+145 0 -203 0 *
Wi

0101100
+146 0 +144 0 +143 0 +201 0 *
Fa
0  1e-07 16 0

0111000
+142 0 *
Ve
1e-07
120.320336827332 44.3320906977764 0
0 0

0101101
*
Ed
 1e-07 1 1 0
1  62 0 0 4.44612078417614
2  110 19 0 0 4.44612078417614
0

0101000
+198 0 -140 0 *
Ve
1.00000014210855e-07
120.320336827332 58.8830314459892 0
0 0

0101101
*
Ed
 1e-07 1 1 0
1  63 0 0 14.5509407482128
2  111 32 0 0 14.5509407482128
2  112 33 0 0 14.5509407482128
2  113 19 0 0 14.5509407482128
0

0101000
+140 0 -138 0 *
Ed
 1e-07 1 1 0
1  64 0 0 4.44612078417614
2  114 19 0 0 4.44612078417614
0

0101000
+138 0 -200 0 *
Wi

0101100
+139 0 +137 0 +136 0 +197 0 *
Fa
0  1e-07 19 0

0111000
+135 0 *
Ve
1e-07
235.919477215912 9.57151002149028 0
0 0

0101101
*
Ed
 1e-07 1 1 0
1  65 0 0 4.44612078417613
2  115 21 0 0 4.44612078417613
0

0101000
+133 0 -192 0 *
Ve
1e-07
255.320731546862 9.57151002149028 0
0 0

0101101
*
Ed
 1e-07 1 1 0
1  66 0 0 4.44612078417613
2  116 21 0 0 4.44612078417613
0

0101000
+190 0 -131 0 *
Ed
 1e-07 1 1 0
1  67 0 0 19.4012543309504
2  117 21 0 0 19.4012543309504
0

0101000
+131 0 -133 0 *
Wi

0101100
+132 0 +189 0 +130 0 +129 0 *
Fa
0  1e-07 21 0

0111000
+128 0 *
Ve
1.00000021316282e-07
229.149247840007 85.9639489496075 0
0 0

0101101
*
Ed
 1e-07 1 1 0
1  68 0 0 4.44612078417613
2  118 23 0 0 4.44612078417613
0

0101000
+184 0 -126 0 *
Ve
1.00000121677001e-07
246.731634577431 85.9639489496075 0
0 0

0101101
*
Ed
 1e-07 1 1 0
1  69 0 0 17.5823867374238
2  119 23 0 0 17.5823867374238
2  120 34 0 0 17.5823867374238
0

0101000
+126 0 -124 0 *
Ed
 1e-07 1 1 0
1  70 0 0 4.44612078417613
2  121 23 0 0 4.44612078417613
0

0101000
+124 0 -186 0 *
Wi

0101100
+183 0 +125 0 +123 0 +122 0 *
Fa
0  1e-07 23 0

0111000
+121 0 *
Ve
1.00000028421709e-07
154.272531906495 85.9639489496075 0
0 0

0101101
*
Ed
 1e-07 1 1 0
1  71 0 0 4.44612078417612
2  122 26 0 0 4.44612078417612
0

0101000
+119 0 -178 0 *
Ve
1e-07
154.272531906495 106.173588877681 0
0 0

0101101
*
Ed
 1e-07 1 1 0
1  72 0 0 4.44612078417612
2  123 26 0 0 4.44612078417612
0

0101000
+176 0 -117 0 *
Ed
 1e-07 1 1 0
1  73 0 0 20.2096399280733
2  124 35 0 0 20.2096399280733
2  125 36 0 0 20.2096399280733
2  126 26 0 0 20.2096399280733
0

0101000
+117 0 -119 0 *
Wi

0101100
+118 0 +175 0 +116 0 +115 0 *
Fa
0  1e-07 26 0

0111000
+114 0 *
Ve
1e-07
62.1165738344809 123.149686417262 0
0 0

0101101
*
Ed
 1e-07 1 1 0
1  74 0 5.25470638129907 67.9043901583264
2  127 37 0 5.25470638129907 67.9043901583264
2  128 29 0 5.25470638129907 67.9043901583264
0

0101000
+173 0 -112 0 *
Ve
1e-07
62.1165738344809 85.9639489496075 0
0 0

0101101
*
Ed
 1e-07 1 1 0
1  75 0 0 37.1857374676549
2  129 37 0 0 37.1857374676549
2  130 29 0 0 37.1857374676549
0

0101000
+112 0 -110 0 *
Ed
 1e-07 1 1 0
1  76 0 0 62.6496837770273
2  131 37 0 0 62.6496837770273
2  132 29 0 0 62.6496837770273
0

0101000
+110 0 -171 0 *
Wi

0101100
+170 0 -111 0 -109 0 -108 0 *
Fa
0  1e-07 29 0

0101000
+107 0 *
Ve
1e-07
23.4151133722205 81.5178281654313 0
0 0

0101101
*
Ve
1e-07
12.805052409982 81.5178281654313 0
0 0

0101101
*
Ed
 1e-07 1 1 0
1  77 0 0 10.6100609622385
2  133 38 0 0 10.6100609622385
2  134 31 0 0 10.6100609622385
0

0101000
+105 0 -104 0 *
Ve
1e-07
12.805052409982 39.8859699136003 0
0 0

0101101
*
Ed
 1e-07 1 1 0
1  78 0 0 41.6318582518311
2  135 38 0 0 41.6318582518311
2  136 31 0 0 41.6318582518311
0

0101000
+104 0 -102 0 *
Ve
1e-07
0.679268453138015 39.8859699136003 0
0 0

0101101
*
Ed
 1e-07 1 1 0
1  79 0 0 12.125783956844
2  137 38 0 0 12.125783956844
2  138 31 0 0 12.125783956844
0

0101000
+102 0 -100 0 *
Ve
1e-07
0.679268453138015 14.0176308056664 0
0 0

0101101
*
Ed
 1e-07 1 1 0
1  80 0 0 25.8683391079339
2  139 38 0 0 25.8683391079339
2  140 31 0 0 25.8683391079339
0

0101000
+100 0 -98 0 *
Ve
1e-07
86.3681417481689 14.0176308056664 0
0 0

0101101
*
Ed
 1e-07 1 1 0
1  81 0 0 85.6888732950309
2  141 38 0 0 85.6888732950309
2  142 31 0 0 85.6888732950309
0

0101000
+98 0 -96 0 *
Ve
1e-07
86.3681417481689 63.3291522301653 0
0 0

0101101
*
Ed
 1e-07 1 1 0
1  82 0 0 49.3115214244989
2  143 38 0 0 49.3115214244989
2  144 31 0 0 49.3115214244989
0

0101000
+96 0 -94 0 *
Ed
 1e-07 1 1 0
1  83 0 0 33.9521950791631
2  145 38 0 0 33.9521950791631
2  146 31 0 0 33.9521950791631
0

0101000
+94 0 -147 0 *
Ve
1e-07
40.9975001096443 81.5178281654313 0
0 0

0101101
*
Ed
 1e-07 1 1 0
1  84 0 4.44612078417627 83.768957501864
2  147 39 0 4.44612078417627 83.768957501864
2  148 31 0 4.44612078417627 83.768957501864
0

0101000
+145 0 -91 0 *
Ed
 1e-07 1 1 0
1  85 0 0 17.5823867374238
2  149 40 0 0 17.5823867374238
2  150 31 0 0 17.5823867374238
0

0101000
+91 0 -105 0 *
Wi

0101100
-103 0 -101 0 -99 0 -97 0 -95 0 -93 0 -92 0 -144 0 -90 0 -89 0 
*
Fa
0  1e-07 31 0

0101000
+88 0 *
Ve
1.00000014210855e-07
120.320336827332 14.0176308056664 0
0 0

0101101
*
Ve
1e-07
120.320336827332 24.1224507697031 0
0 0

0101101
*
Ed
 1e-07 1 1 0
1  86 0 0 10.1048199640367
2  151 41 0 0 10.1048199640367
2  152 33 0 0 10.1048199640367
2  153 42 0 0 10.1048199640367
0

0101000
+86 0 -85 0 *
Ed
 1e-07 1 1 0
1  87 0 0 20.2096399280733
2  154 43 0 0 20.2096399280733
2  155 33 0 0 20.2096399280733
0

0101000
+85 0 -140 0 *
Ve
1e-07
90.8142625323451 58.8830314459892 0
0 0

0101101
*
Ed
 1e-07 1 1 0
1  88 0 4.44612078417627 33.9521950791632
2  156 44 0 4.44612078417627 33.9521950791632
2  157 33 0 4.44612078417627 33.9521950791632
0

0101000
+138 0 -82 0 *
Ve
1e-07
90.8142625323451 14.0176308056664 0
0 0

0101101
*
Ed
 1e-07 1 1 0
1  89 0 0 44.8654006403228
2  158 44 0 0 44.8654006403228
2  159 33 0 0 44.8654006403228
0

0101000
+82 0 -80 0 *
Ed
 1e-07 1 1 0
1  90 0 0 29.5060742949869
2  160 44 0 0 29.5060742949869
2  161 33 0 0 29.5060742949869
0

0101000
+80 0 -86 0 *
Wi

0101100
-84 0 -83 0 -137 0 -81 0 -79 0 -78 0 *
Fa
0  1e-07 33 0

0101000
+77 0 *
Ve
1e-07
217.326608482084 110.599434467857 0
0 0

0101101
*
Ve
1e-07
220.662909171311 112.120502215871 0
0 0

0101101
*
Ed
 1e-07 1 1 0
1  91 0 0 3.66668097643924
2  162 34 0 0 3.66668097643924
0

0101000
+75 0 -74 0 *
Ve
1e-07
222.627191278089 114.25744484891 0
0 0

0101101
*
Ed
 1e-07 1 1 0
1  92 0 0 2.90257265402786
2  163 34 0 0 2.90257265402786
0

0101000
+74 0 -72 0 *
Ve
1e-07
253.703960352616 114.25744484891 0
0 0

0101101
*
Ed
 1e-07 1 1 0
1  93 0 0 31.0767690745271
2  164 34 0 0 31.0767690745271
0

0101000
+72 0 -70 0 *
Ve
1e-07
253.703960352616 85.9639489496075 0
0 0

0101101
*
Ed
 1e-07 1 1 0
1  94 0 0 28.2934958993027
2  165 34 0 0 28.2934958993027
0

0101000
+70 0 -68 0 *
Ed
 1e-07 1 1 0
1  95 0 0 6.97232577518531
2  166 34 0 0 6.97232577518531
0

0101000
+68 0 -124 0 *
Ve
1e-07
222.176922064822 85.9639489496075 0
0 0

0101101
*
Ed
 1e-07 1 1 0
1  96 0 0 6.97232577518528
2  167 34 0 0 6.97232577518528
0

0101000
+126 0 -65 0 *
Ve
1.00000058592855e-07
217.326608482084 85.9639489496075 0
0 0

0101101
*
Ed
 1e-07 1 1 0
1  97 0 0 4.85031358273761
2  168 34 0 0 4.85031358273761
0

0101000
+65 0 -63 0 *
Ed
 1e-07 1 1 0
1  98 0 0 24.6354855182496
2  169 34 0 0 24.6354855182496
0

0101000
+63 0 -75 0 *
Wi

0101100
+73 0 +71 0 +69 0 +67 0 +66 0 -123 0 +64 0 +62 0 +61 0 *
Fa
0  1e-07 34 0

0111000
+60 0 *
Ve
1e-07
164.478400070172 148.613832726635 0
0 0

0101101
*
Ve
1e-07
154.272531906495 148.613832726635 0
0 0

0101101
*
Ed
 1e-07 1 1 0
1  99 0 0 10.2058681636771
2  170 45 0 0 10.2058681636771
2  171 36 0 0 10.2058681636771
0

0101000
+58 0 -57 0 *
Ed
 1e-07 1 1 0
1  100 0 0 42.440243848954
2  172 45 0 0 42.440243848954
2  173 36 0 0 42.440243848954
0

0101000
+57 0 -117 0 *
Ve
1e-07
212.880487697908 85.9639489496075 0
0 0

0101101
*
Ed
 1e-07 1 1 0
1  101 0 5.65869917986021 64.2666549712732
2  174 46 0 5.65869917986021 64.2666549712732
2  175 36 0 5.65869917986021 64.2666549712732
0

0101000
+119 0 -54 0 *
Ve
1e-07
212.880487697908 160.739616683479 0
0 0

0101101
*
Ed
 1e-07 1 1 0
1  102 0 0 74.7756677338713
2  176 46 0 0 74.7756677338713
2  177 36 0 0 74.7756677338713
0

0101000
+54 0 -52 0 *
Ve
1e-07
191.862462172712 160.739616683479 0
0 0

0101101
*
Ed
 1e-07 1 1 0
1  103 0 0 21.0180255251963
2  178 46 0 0 21.0180255251963
2  179 36 0 0 21.0180255251963
0

0101000
+52 0 -50 0 *
Ve
1e-07
191.862462172712 148.613832726635 0
0 0

0101101
*
Ed
 1e-07 1 1 0
1  104 0 0 12.125783956844
2  180 46 0 0 12.125783956844
2  181 36 0 0 12.125783956844
0

0101000
+50 0 -48 0 *
Ve
1e-07
182.060786807596 148.613832726635 0
0 0

0101101
*
Ed
 1e-07 1 1 0
1  105 0 0 9.80167536511556
2  182 46 0 0 9.80167536511556
2  183 36 0 0 9.80167536511556
0

0101000
+48 0 -46 0 *
Ed
 1e-07 1 1 0
1  106 0 0 17.5823867374238
2  184 47 0 0 17.5823867374238
2  185 36 0 0 17.5823867374238
2  186 48 0 0 17.5823867374238
0

0101000
+46 0 -58 0 *
Wi

0101100
-56 0 -55 0 -115 0 -53 0 -51 0 -49 0 -47 0 -45 0 -44 0 *
Fa
0  1e-07 36 0

0101000
+43 0 *
Ve
1e-07
23.4151133722205 85.9639489496075 0
0 0

0101101
*
Ed
 1e-07 1 1 0
1  107 0 0 4.44612078417614
2  187 40 0 0 4.44612078417614
0

0101000
+105 0 -41 0 *
Ve
1e-07
40.9975001096443 85.9639489496075 0
0 0

0101101
*
Ed
 1e-07 1 1 0
1  108 0 0 17.5823867374238
2  188 40 0 0 17.5823867374238
0

0101000
+41 0 -39 0 *
Ed
 1e-07 1 1 0
1  109 0 0 4.44612078417614
2  189 40 0 0 4.44612078417614
0

0101000
+39 0 -91 0 *
Wi

0101100
+89 0 +40 0 +38 0 +37 0 *
Fa
0  1e-07 40 0

0111000
+36 0 *
Ve
1e-07
124.766457611508 14.0176308056664 0
0 0

0101101
*
Ed
 1e-07 1 1 0
1  110 0 0 4.44612078417614
2  190 42 0 0 4.44612078417614
0

0101000
+34 0 -86 0 *
Ve
1e-07
124.766457611508 24.1224507697031 0
0 0

0101101
*
Ed
 1e-07 1 1 0
1  111 0 0 4.44612078417614
2  191 42 0 0 4.44612078417614
0

0101000
+85 0 -32 0 *
Ed
 1e-07 1 1 0
1  112 0 0 10.1048199640367
2  192 42 0 0 10.1048199640367
0

0101000
+32 0 -34 0 *
Wi

0101100
+33 0 +84 0 +31 0 +30 0 *
Fa
0  1e-07 42 0

0111000
+29 0 *
Ve
1.00000056843419e-07
164.478400070172 153.059953510811 0
0 0

0101101
*
Ed
 1e-07 1 1 0
1  113 0 0 4.44612078417612
2  193 48 0 0 4.44612078417612
0

0101000
+58 0 -27 0 *
Ve
1.00000085265128e-07
182.060786807596 153.059953510811 0
0 0

0101101
*
Ed
 1.00000028421709e-07 1 1 0
1  114 0 5.35555458093958 22.9379413183636
2  194 49 0 5.35555458093958 22.9379413183636
2  195 48 0 5.35555458093958 22.9379413183636
0

0101000
+25 0 -27 0 *
Ed
 1e-07 1 1 0
1  115 0 0 4.44612078417612
2  196 48 0 0 4.44612078417612
0

0101000
+25 0 -46 0 *
Wi

0101100
+44 0 +26 0 -24 0 +23 0 *
Fa
0  1e-07 48 0

0111000
+22 0 *
Ve
1e-07
154.272531906495 177.69543902906 0
0 0

0101101
*
Ve
1e-07
157.608832595722 179.216506777075 0
0 0

0101101
*
Ed
 1e-07 1 1 0
1  116 0 0 3.66668097643982
2  197 49 0 0 3.66668097643982
0

0101000
+20 0 -19 0 *
Ve
1e-07
159.5731147025 181.353449410114 0
0 0

0101101
*
Ed
 1e-07 1 1 0
1  117 0 0 2.90257265402739
2  198 49 0 0 2.90257265402739
0

0101000
+19 0 -17 0 *
Ve
1e-07
187.416341388536 181.353449410114 0
0 0

0101101
*
Ed
 1e-07 1 1 0
1  118 0 0 27.8432266860355
2  199 49 0 0 27.8432266860355
0

0101000
+17 0 -15 0 *
Ve
1.00000217384276e-07
187.416341388536 165.185737467655 0
0 0

0101101
*
Ed
 1e-07 1 1 0
1  119 0 0 16.1677119424587
2  200 49 0 0 16.1677119424587
0

0101000
+15 0 -13 0 *
Ve
1.00000215049254e-07
187.416341388536 153.059953510811 0
0 0

0101101
*
Ed
 1e-07 1 1 0
1  120 0 0 12.125783956844
2  201 49 0 0 12.125783956844
0

0101000
+13 0 -11 0 *
Ed
 1e-07 1 1 0
1  114 0 0 5.35555458093958
2  194 49 0 0 5.35555458093958
0

0101000
+11 0 -25 0 *
Ve
1e-07
159.122845489233 153.059953510811 0
0 0

0101101
*
Ed
 1e-07 1 1 0
1  114 0 22.9379413183636 28.2934958993027
2  194 49 0 22.9379413183636 28.2934958993027
0

0101000
+27 0 -8 0 *
Ve
1.00000158882186e-07
154.272531906495 153.059953510811 0
0 0

0101101
*
Ed
 1e-07 1 1 0
1  121 0 0 4.85031358273761
2  202 49 0 0 4.85031358273761
0

0101000
+8 0 -6 0 *
Ed
 1e-07 1 1 0
1  122 0 0 24.6354855182493
2  203 49 0 0 24.6354855182493
0

0101000
+6 0 -20 0 *
Wi

0101100
+18 0 +16 0 +14 0 +12 0 +10 0 +9 0 +24 0 +7 0 +5 0 +4 0 
*
Fa
0  1e-07 49 0

0111000
+3 0 *
Sh

0101000
+265 0 +240 0 +225 0 +218 0 +211 0 +204 0 +165 0 +148 0 +141 0 +134 0 
+127 0 +120 0 +113 0 +106 0 +87 0 +76 0 +59 0 +42 0 +35 0 +28 0 
+21 0 +2 0 *

+1 0 