
CASCADE Topology V3, (c) Open Cascade
Locations 0
Curve2ds 298
1 28.623060995892843 -9.8538406707172044 0 1 
1 28.623060995892843 -9.3281287125352037 0 1 
1 28.623060995892843 9.8538406707172328 -1 0 
1 -28.623060995892899 9.8538406707172328 0 -1 
1 -28.623060995892899 -9.3281287125352037 0 -1 
1 -28.623060995892899 -9.8538406707172044 1 0 
1 -7.9769186381996917 -9.8538406707172044 1 0 
1 0.15641016937644281 -9.8538406707172044 1 0 
1 -6.7256372831879219 1.7205118631410983 1 0 
1 13.607684735752301 -9.8538406707172044 1 0 
1 21.741013543328435 -9.8538406707172044 1 0 
1 -6.7256372831879219 -1.7205118631410983 1 0 
1 -3.7424955444554655 56.91067025613529 1 0 
1 -6.7256372831879219 -1.7205118631410983 1 0 
1 6.7256372831879361 -1.7205118631410983 0 1 
1 -6.7256372831879219 1.7205118631410983 0 -1 
1 -1.7205118631411016 7.9769186381996349 0 -1 
1 134.52409418433851 -6.2790381719561026 0 -1 
1 -1.7205118631411016 7.9769186381996349 0 -1 
1 8.5980937252181864 41.374955390562022 0 -1 
1 134.52409418433851 -22.232875448355401 0 -1 
1 8.5980937252181864 -14.93270558496495 -1 0 
1 134.52409418433851 -78.540536423882372 -1 0 
1 6.7256372831879432 1.7205118631411054 -1 0 
1 90.88565692830511 -78.540536423882358 -1 0 
1 6.7256372831879432 1.7205118631411054 -1 0 
1 44.532352526588561 -18.520969641259214 -1 0 
1 77.434382361929238 -78.540536423882372 -1 0 
1 13.719549159425185 -18.520969641259214 0 1 
1 46.621578994765855 -78.540536423882372 0 1 
1 13.719549159425185 37.786691334267758 -1 0 
1 46.621578994765855 -22.232875448355401 -1 0 
1 6.7256372831879219 1.7205118631410841 -1 0 
1 -9.6860819807611165 -22.232875448355401 -1 0 
1 6.7256372831879219 1.7205118631410841 -1 0 
1 18.99686680931768 -7.7536082775651494 0 1 
1 -23.137356547136989 -46.007221193577905 0 1 
1 18.99686680931768 28.846371356527371 -1 0 
1 -23.137356547136989 -9.4072415594853851 -1 0 
1 6.0999966056820938 1.7205118631410983 -1 0 
1 -38.778373484783373 -9.4072415594853851 -1 0 
1 6.0999966056820938 1.7205118631410983 -1 0 
1 -8.8441433396928915 28.846371356527371 -1 0 
1 -50.97836669614756 -9.4072415594853851 -1 0 
1 6.7256372831879503 1.7205118631410983 -1 0 
1 -56.296312454947326 -9.4072415594853851 -1 0 
1 28.812323151351393 -30.434175789742909 0 1 
1 -69.747587021323199 -12.848265285767582 0 1 
1 28.812323151351393 -4.1572673344969928 1 0 
1 -69.747587021323199 13.428643169478335 1 0 
1 40.073855346456781 -4.1572673344969928 0 1 
1 -58.48605482621781 13.428643169478335 0 1 
1 40.073855346456781 -0.71624360821479627 -1 0 
1 -58.48605482621781 16.869666895760531 -1 0 
1 -58.486254826217817 30.008221123383493 0 -1 
1 31.447896844549717 -6.7219358105304536 0 -1 
1 -1.6375647842544367 -20.874460327505915 1 0 
1 -61.927078552500006 30.008121123383489 1 0 
1 1.8034589420277598 -20.874460327505915 0 1 
1 -58.48605482621781 30.008121123383489 0 1 
1 1.8034589420277598 6.0280888052458579 1 0 
1 -58.48605482621781 56.910670256135262 1 0 
1 -5.3179457587997661 -1.7205118631410983 1 0 
1 -46.598881953606565 56.910670256135262 1 0 
1 -5.3179457587997661 -1.7205118631410983 1 0 
1 -15.901199780329875 -1.7743201767862331 1 0 
1 -35.962990436007033 56.910670256135262 1 0 
1 -62.651666064875329 20.233765230588062 1 0 
1 -35.962990436007033 56.910670256135262 1 0 
1 -8.8465677993717691 20.233765230588062 0 -1 
1 17.842107829496527 56.910670256135262 0 -1 
1 -8.8465677993717691 -19.807238129786668 1 0 
1 17.842107829496527 16.869666895760531 1 0 
1 -1.7205118631410983 6.7256372831879787 0 -1 
1 43.180555268483658 16.869666895760531 0 -1 
1 -1.7205118631410983 6.7256372831879787 0 -1 
1 -65.498078050380954 -10.77591056798272 0 -1 
1 43.180555268483658 3.418392329384659 0 -1 
1 -65.498078050380954 -17.032317343041285 1 0 
1 43.180555268483658 -2.838014445673906 1 0 
1 25.845460865473896 -17.032317343041285 0 -1 
1 134.52409418433851 -2.838014445673906 0 -1 
1 -1.7205118631411016 -7.9769186381996633 1 0 
1 1.7205118631411016 -7.9769186381996633 0 1 
1 1.7205118631411016 7.9769186381996349 -1 0 
1 29.248701673398735 10.010250840093669 -1 0 
1 20.958962696446157 -1.7205118631411125 -1 0 
1 6.7256372831879432 -1.7205118631411054 0 1 
1 -6.725637283187929 1.7205118631410912 0 -1 
1 6.7256372831879219 -1.7205118631411267 0 1 
1 -6.7256372831879503 1.7205118631410841 0 -1 
1 -6.7256372831879503 -1.7205118631411267 1 0 
1 -34.091301138752328 30.19327847497425 1 0 
1 6.0999966056820938 -1.7205118631410983 0 1 
1 -6.0999966056820938 1.7205118631410983 0 -1 
1 -6.0999966056820938 -1.7205118631410983 1 0 
1 6.7256372831879503 -1.7205118631410983 0 1 
1 -6.7256372831879219 1.7205118631410983 0 -1 
1 -6.7256372831879219 -1.7205118631410983 1 0 
1 18.617480249459447 36.595309540432268 1 0 
1 -6.7256372831879219 -1.7205118631410983 1 0 
1 40.073855346456781 -0.71624360821479627 -1 0 
1 31.448096844549724 -19.860490038153415 -1 0 
1 -21.86457172662287 -0.71624360821479627 0 1 
1 -30.490330228529928 -19.860490038153415 0 1 
1 -21.86457172662287 39.324759752159935 1 0 
1 -30.490330228529928 20.180513322221316 1 0 
1 -9.5410203319642903 -1.7205118631411551 1 0 
1 -23.608282775965534 20.180513322221316 1 0 
1 -9.5410203319642903 -1.7205118631411551 1 0 
1 -3.5974338956586678 -1.7205118631410699 1 0 
1 -4.5262421120369538 20.180513322221316 1 0 
1 -6.5692271138114791 -1.7205118631410983 1 0 
1 2.6686256792803817 20.180513322221316 1 0 
1 -6.5692271138114791 -1.7205118631410983 1 0 
1 -13.837557995618624 6.0280888052458579 1 0 
1 15.80707990690334 20.180513322221316 1 0 
1 -1.6375647842544367 6.0280888052458579 0 -1 
1 28.007073118267527 20.180513322221316 0 -1 
1 -1.6375647842544367 -20.874460327505915 1 0 
1 28.007073118267527 -6.722035810530457 1 0 
1 5.3179457587997661 -1.7205118631410983 0 1 
1 5.3179457587997661 1.7205118631411267 -1 0 
1 -5.3179457587997661 1.7205118631411267 0 -1 
1 -1.7205118631410983 -6.7256372831878934 1 0 
1 1.7205118631410983 -6.7256372831878934 0 1 
1 -43.951257594786327 -25.338447438987117 0 1 
1 1.7205118631410983 6.7256372831879787 -1 0 
1 1.40769152438817 6.7256372831879787 -1 0 
1 -29.248701673398728 10.010250840093669 0 -1 
1 -29.248701673398728 0.099928719323848725 0 -1 
1 -29.248701673398728 -10.01025084009369 1 0 
1 29.248701673398735 -10.01025084009369 0 1 
1 18.99686680931768 -7.7536082775651494 0 1 
1 -34.091301138752328 9.8599564560339559 0 1 
1 -42.588111816101787 34.345667607985547 1 0 
1 -20.640026572376456 30.19327847497425 1 0 
1 10.278525433142988 34.345667607985547 0 -1 
1 32.226610676868319 30.19327847497425 0 -1 
1 10.278525433142988 -27.90557980384704 -1 0 
1 32.226610676868319 -32.057968936858337 -1 0 
1 -30.075298265984685 -27.90557980384704 0 1 
1 -8.1272130222593546 -32.057968936858337 0 1 
1 -30.075298265984685 -18.520969641259214 -1 0 
1 -8.1272130222593546 -22.673358774270511 -1 0 
1 11.261532195105389 1.7205118631410983 -1 0 
1 -11.568236748541551 -22.673358774270511 -1 0 
1 3.4221965762646391 -9.0529626738173619 0 1 
1 -34.091301138752328 -26.114382500552708 0 1 
1 1.7205118631410983 -6.7256372831879503 0 1 
1 -34.091301138752328 -3.5913181103419305 0 1 
1 12.669223719493544 1.7205118631411054 -1 0 
1 33.945676848352889 -29.096961597682522 -1 0 
1 12.669223719493544 1.7205118631411054 -1 0 
1 22.242881747446546 8.7475322773764859 -1 0 
1 8.6072294093657717 -29.096961597682522 -1 0 
1 18.801858021164321 8.7475322773764859 0 -1 
1 5.1662056830835468 -29.096961597682522 0 -1 
1 18.801858021164321 -0.63707788521134034 -1 0 
1 5.1662056830835468 -38.481571760270349 -1 0 
1 -18.423762290434041 -0.63707788521134034 0 1 
1 -32.059414628514816 -38.481571760270349 0 1 
1 1.7205118631411267 -6.2564067750585508 0 1 
1 -32.059414628514816 -29.096961597682522 0 1 
1 1.7205118631411267 -6.2564067750585508 0 1 
1 -1.0642690128193237 -34.398183046765595 0 1 
1 -32.059414628514816 -16.584148047565421 0 1 
1 -1.0642690128193237 18.781274541232094 1 0 
1 -32.059414628514816 36.595309540432268 1 0 
1 -6.7256372831879219 -1.7205118631410983 1 0 
1 -14.228655319597948 36.595309540432268 1 0 
1 -6.7256372831879219 -1.7205118631410983 1 0 
1 9.4174621486698697 -30.434175789742909 1 0 
1 -0.77738075322207578 36.595309540432268 1 0 
1 -14.162089098492658 25.405347630245174 1 0 
1 32.06875481583532 36.595309540432268 1 0 
1 -12.285167065975088 25.405347630245174 0 -1 
1 33.945676848352889 36.595309540432268 0 -1 
1 9.5410203319642903 -1.7205118631411551 0 1 
1 9.5410203319642903 1.7205118631410699 -1 0 
1 -9.5410203319642903 1.7205118631410699 0 -1 
1 6.5692271138114791 -1.7205118631410983 0 1 
1 6.5692271138114791 1.7205118631411267 -1 0 
1 -6.5692271138114791 1.7205118631411267 0 -1 
1 -0.35725369227724002 -10.316265542996632 0 1 
1 -43.951257594786327 15.015376260140528 0 1 
1 -0.35725369227724002 2.822188684626326 1 0 
1 -43.951257594786327 28.153830487763486 1 0 
1 -6.7256372831879361 -1.7205118631410983 1 0 
1 -35.974338956586649 28.153830487763486 1 0 
1 -20.474193540054962 -1.7642912364292727 1 0 
1 -22.523064390210777 28.153830487763486 1 0 
1 -7.0384576219408714 -1.7205118631410699 1 0 
1 17.987169478293335 28.153830487763486 1 0 
1 13.958287992862648 42.716367358767883 1 0 
1 32.064084722175075 28.153830487763486 1 0 
1 25.845460865473896 42.716367358767883 0 -1 
1 43.951257594786327 28.153830487763486 0 -1 
1 25.845460865473896 -13.59129361675906 -1 0 
1 43.951257594786327 -28.153830487763457 -1 0 
1 -62.057054324098758 -13.59129361675906 0 1 
1 -43.951257594786327 -28.153830487763457 0 1 
1 19.932903365897559 -19.807238129786668 0 1 
1 -43.951257594786327 -11.887172872611245 0 1 
1 1.7205118631410841 -6.4128169444350078 0 1 
1 -43.951257594786327 2.189742371270512 0 1 
1 11.261532195105389 -1.7205118631410983 0 1 
1 -11.261532195105389 1.7205118631410983 0 -1 
1 -11.261532195105389 -1.7205118631410983 1 0 
1 -1.7205118631410983 -6.7256372831879503 1 0 
1 1.7205118631410983 6.7256372831879361 -1 0 
1 -1.7205118631410983 6.7256372831879361 0 -1 
1 12.199993211364159 12.043583041987716 0 -1 
1 -1.7205118631410983 6.7256372831879361 0 -1 
1 12.669223719493544 -1.7205118631410912 0 1 
1 12.669223719493544 -1.40769152438817 0 1 
1 -12.669223719493573 1.7205118631411054 0 -1 
1 -12.669223719493573 -1.7205118631410912 1 0 
1 -1.7205118631410983 -6.2564067750585508 1 0 
1 1.7205118631411267 6.2564067750585508 -1 0 
1 9.5410203319643188 -22.679474559587248 0 1 
1 -1.7205118631410983 -6.2564067750585508 0 1 
1 6.7256372831879503 -1.7205118631410983 0 1 
1 6.7256372831879503 1.7205118631410983 -1 0 
1 7.6640982994467208 -11.417942364481831 -1 0 
1 -6.7256372831879219 1.7205118631410983 0 -1 
1 -6.7256372831879361 1.7205118631410983 0 -1 
1 6.7256372831879361 -1.7205118631410983 0 1 
1 -29.168349023391869 -9.8730150800958256 1 0 
1 -14.702555921387614 1.7205118631411267 1 0 
1 7.0384576219408679 -1.7205118631410699 0 1 
1 7.0384576219408679 1.7205118631411551 -1 0 
1 -7.0384576219408714 1.7205118631411551 0 -1 
1 -1.7205118631411125 -6.4128169444350078 1 0 
1 1.7205118631410841 6.4128169444350078 -1 0 
1 -1.7205118631411125 6.4128169444350078 0 -1 
1 10.94871185635246 5.1615355894232948 0 -1 
1 -1.9620958871284699 -40.286923507869616 -1 0 
1 -5.3179457587997945 -20.489732188316751 -1 0 
1 -8.8441433396928915 -40.286923507869616 0 1 
1 -12.199993211364216 -20.489732188316751 0 1 
1 -8.8441433396928915 0.6925408687638992 1 0 
1 -12.199993211364216 20.489732188316765 1 0 
1 15.555843083035484 0.6925408687638992 0 -1 
1 12.199993211364159 20.489732188316765 0 -1 
1 -0.018827150017557415 13.470101716393415 0 -1 
1 12.199993211364159 -1.40769152438817 0 -1 
1 -0.018827150017557415 -5.6119389475351653 -1 0 
1 12.199993211364159 -20.489732188316751 -1 0 
1 4.8487152506703808 1.7205118631411054 -1 0 
1 4.3794847425409671 -20.489732188316751 -1 0 
1 9.5410203319643188 22.679474559587248 -1 0 
1 9.0153083737823181 22.679474559587248 -1 0 
1 -9.5410203319642619 22.679474559587248 0 -1 
1 -9.5410203319642619 -22.679474559587248 1 0 
1 9.0153083737823181 -22.679474559587248 1 0 
1 9.5410203319643188 -10.166661009470147 0 1 
1 -21.86457172662287 -17.608541900872865 0 1 
1 -23.617935575846019 -2.0333322018939839 0 1 
1 -21.86457172662287 -4.1572673344969928 1 0 
1 -23.617935575846019 11.417942364481888 1 0 
1 25.371299425069196 -4.1572673344969928 0 -1 
1 23.617935575846047 11.417942364481888 0 -1 
1 25.371299425069196 -26.993152063460712 -1 0 
1 23.617935575846047 -11.417942364481831 -1 0 
1 16.766490296097544 22.22229826751429 -1 0 
1 -5.7871762669291513 -11.417942364481831 -1 0 
1 1.7205118631411267 -4.692305081293938 0 1 
1 -23.617935575846019 -11.417942364481831 0 1 
1 29.329054323405593 9.8346662613386115 -1 0 
1 -29.481169362144797 9.8346662613386115 0.01587101662672373 -0.99987404748359898 
1 -29.368530490481717 2.7384173465645461 0.015871016626723834 -0.99987404748359898 
1 -29.176693657648727 -9.347303121913825 1 0 
1 -29.168349023391869 -9.347303121913825 0 -1 
1 0.23676281938332977 -9.8730150800958256 1 0 
1 29.32905432340559 -9.8730150800958256 0 1 
1 29.329054323405593 -9.347303121913825 0 1 
1 16.491879639615362 -5.7303228859049113 0 -1 
1 10.94871185635246 -7.6640982994467208 0 -1 
1 16.491879639615362 -16.366214403504443 -1 0 
1 10.94871185635246 -18.299989817046253 -1 0 
1 -5.4055440730895725 -16.366214403504443 0 1 
1 -10.948711856352475 -18.299989817046253 0 1 
1 -5.4055440730895725 20.233765230588062 1 0 
1 -10.948711856352475 18.299989817046253 1 0 
1 -4.6923050812938953 -1.7205118631410983 1 0 
1 1.564101693764627 18.299989817046253 1 0 
1 -3.7982774185594366 6.7889243690905516 0 -1 
1 10.94871185635246 22.266725501510479 0 -1 
1 4.8487152506703808 -1.7205118631410912 0 1 
1 -4.8487152506703808 1.7205118631411054 0 -1 
1 -4.8487152506703808 -1.7205118631410912 1 0 
1 -1.7205118631410983 -4.692305081293938 1 0 
1 1.7205118631411267 4.6923050812939096 -1 0 
1 -1.7205118631410983 4.6923050812939096 0 -1 
1 4.692305081293938 -1.7205118631410983 0 1 
1 4.692305081293938 1.7205118631411267 -1 0 
1 -4.6923050812938953 1.7205118631411267 0 -1 
Curves 182
1 110.32565086045958 203.85893214758494 0 0 1 0 
1 110.32565086045958 204.38464410576694 0 0 1 0 
1 110.32565086045958 223.56661348901937 0 1 0 0 
1 167.57177285224532 223.56661348901937 0 0 -1 0 
1 167.57177285224532 204.38464410576694 0 0 -1 0 
1 167.57177285224532 203.85893214758494 0 -1 0 0 
1 146.92563049455211 203.85893214758494 0 -1 0 0 
1 138.79230168697597 203.85893214758494 0 -1 0 0 
1 125.34102712060012 203.85893214758494 0 -1 0 0 
1 117.20769831302398 203.85893214758494 0 -1 0 0 
1 138.79230168697597 200.41790842130274 0 -1 0 0 
1 125.34102712060012 200.41790842130274 0 0 1 0 
1 138.79230168697597 203.85893214758494 0 0 -1 0 
1 0.52571195818200378 137.22819999321135 0 0 -1 0 
1 0.52571195818200378 121.27436271681205 0 0 -1 0 
1 0.52571195818200378 64.966701741285078 0 1 0 0 
1 44.164149214215406 64.966701741285092 0 1 0 0 
1 57.615423780591279 64.966701741285078 0 1 0 0 
1 88.428227147754654 64.966701741285078 0 0 1 0 
1 88.428227147754654 121.27436271681205 0 1 0 0 
1 144.73588812328163 121.27436271681205 0 1 0 0 
1 158.1871626896575 97.500016971589545 0 0 1 0 
1 158.1871626896575 134.09999660568207 0 1 0 0 
1 173.82817962730388 134.09999660568207 0 1 0 0 
1 186.02817283866807 134.09999660568207 0 1 0 0 
1 191.34611859746784 134.09999660568207 0 1 0 0 
1 204.79739316384371 130.65897287939987 0 0 1 0 
1 204.79739316384371 156.93588133464579 0 -1 0 0 
1 193.53586096873832 156.93588133464579 0 0 1 0 
1 193.53586096873832 160.37690506092798 0 1 0 0 
1 193.53606096873833 173.51545928855094 0 0 -1 0 
1 196.97688469502052 173.51535928855094 0 -1 0 0 
1 193.53586096873832 173.51535928855094 0 0 1 0 
1 193.53586096873832 200.41790842130271 0 -1 0 0 
1 181.64868809612707 200.41790842130271 0 -1 0 0 
1 171.01279657852754 200.41790842130271 0 -1 0 0 
1 117.20769831302398 200.41790842130271 0 0 -1 0 
1 117.20769831302398 160.37690506092798 0 -1 0 0 
1 91.869250874036851 160.37690506092798 0 0 -1 0 
1 91.869250874036851 146.92563049455211 0 0 -1 0 
1 91.869250874036851 140.66922371949354 0 -1 0 0 
1 0.52571195818200378 140.66922371949354 0 0 -1 0 
1 0.52571195818200378 121.27436271681205 0 -1 0 0 
1 -2.9153117681001994 121.27436271681205 0 0 1 0 
1 -2.9153117681001994 137.22819999321135 0 1 0 0 
1 29.930823800957192 61.525678015002875 0 1 0 0 
1 44.164149214215406 61.525678015002882 0 0 1 0 
1 57.615423780591279 64.966701741285078 0 0 -1 0 
1 144.73588812328163 117.83333899052984 0 0 1 0 
1 158.1871626896575 121.27436271681205 0 0 -1 0 
1 158.1871626896575 117.83333899052984 0 -1 0 0 
1 173.82817962730388 130.65897287939987 0 0 1 0 
1 186.02817283866807 134.09999660568207 0 0 -1 0 
1 186.02817283866807 130.65897287939987 0 -1 0 0 
1 191.34611859746784 130.65897287939987 0 0 1 0 
1 204.79739316384371 134.09999660568207 0 0 -1 0 
1 204.79739316384371 130.65897287939987 0 -1 0 0 
1 193.53586096873832 160.37690506092798 0 1 0 0 
1 255.47428804181797 160.37690506092798 0 0 1 0 
1 255.47428804181797 200.41790842130271 0 -1 0 0 
1 248.59224058925358 200.41790842130271 0 -1 0 0 
1 229.510199925325 200.41790842130271 0 -1 0 0 
1 222.31533213400766 200.41790842130271 0 -1 0 0 
1 209.1768779063847 200.41790842130271 0 -1 0 0 
1 196.97688469502052 200.41790842130271 0 0 -1 0 
1 196.97688469502052 173.51535928855094 0 -1 0 0 
1 171.01279657852754 200.41790842130271 0 0 1 0 
1 171.01279657852754 203.85893214758494 0 1 0 0 
1 181.64868809612707 203.85893214758494 0 0 -1 0 
1 91.869250874036851 146.92563049455211 0 -1 0 0 
1 88.428227147754654 146.92563049455211 0 0 1 0 
1 88.428227147754654 160.37690506092798 0 1 0 0 
1 88.741047486507583 160.37690506092798 0 1 0 0 
1 88.428227147754654 61.525678015002875 0 0 -1 0 
1 88.428227147754654 51.615355894233055 0 0 -1 0 
1 88.428227147754654 41.505176334815516 0 -1 0 0 
1 29.930823800957192 41.505176334815516 0 0 1 0 
1 158.1871626896575 97.500016971589545 0 0 1 0 
1 144.73588812328163 117.83333899052984 0 -1 0 0 
1 91.869250874036851 117.83333899052984 0 0 -1 0 
1 91.869250874036851 55.582091578697252 0 1 0 0 
1 132.22307457316452 55.582091578697252 0 0 1 0 
1 132.22307457316452 64.966701741285078 0 1 0 0 
1 135.66409829944672 64.966701741285078 0 1 0 0 
1 158.1871626896575 61.525678015002882 0 0 1 0 
1 158.1871626896575 84.048742405213659 0 0 1 0 
1 189.46919656495027 64.966701741285078 0 1 0 0 
1 214.80764400393738 64.966701741285078 0 1 0 0 
1 218.24866773021961 64.966701741285078 0 0 -1 0 
1 218.24866773021961 55.582091578697252 0 1 0 0 
1 255.47428804181797 55.582091578697252 0 0 1 0 
1 255.47428804181797 64.966701741285078 0 0 1 0 
1 255.47428804181797 77.47951529140218 0 0 1 0 
1 255.47428804181797 130.65897287939987 0 -1 0 0 
1 237.6435287329011 130.65897287939987 0 -1 0 0 
1 224.19225416652523 130.65897287939987 0 -1 0 0 
1 191.34611859746784 130.65897287939987 0 -1 0 0 
1 189.46919656495027 130.65897287939987 0 0 -1 0 
1 229.510199925325 200.41790842130271 0 0 1 0 
1 229.510199925325 203.85893214758494 0 1 0 0 
1 248.59224058925358 203.85893214758494 0 0 -1 0 
1 209.1768779063847 200.41790842130271 0 0 1 0 
1 209.1768779063847 203.85893214758494 0 1 0 0 
1 222.31533213400766 203.85893214758494 0 0 -1 0 
1 88.428227147754654 187.27945419367975 0 0 1 0 
1 88.428227147754654 200.41790842130271 0 -1 0 0 
1 80.451308509554977 200.41790842130271 0 -1 0 0 
1 67.000033943179105 200.41790842130271 0 -1 0 0 
1 26.489800074674992 200.41790842130271 0 -1 0 0 
1 12.412884830793253 200.41790842130271 0 -1 0 0 
1 0.52571195818200378 200.41790842130271 0 0 -1 0 
1 0.52571195818200378 144.11024744577577 0 1 0 0 
1 88.428227147754654 144.11024744577577 0 0 1 0 
1 88.428227147754654 160.37690506092798 0 0 1 0 
1 88.428227147754654 174.45382030480974 0 0 1 0 
1 135.66409829944672 61.525678015002882 0 0 1 0 
1 158.1871626896575 64.966701741285078 0 0 -1 0 
1 158.1871626896575 61.525678015002882 0 -1 0 0 
1 161.62818641593969 84.048742405213659 0 -1 0 0 
1 158.1871626896575 97.500016971589545 0 1 0 0 
1 161.62818641593969 97.500016971589545 0 0 -1 0 
1 189.46919656495027 61.525678015002882 0 0 1 0 
1 189.46919656495027 61.838498353755803 0 0 1 0 
1 214.80764400393738 64.966701741285078 0 0 -1 0 
1 214.80764400393738 61.525678015002882 0 -1 0 0 
1 258.9153117681002 64.966701741285078 0 -1 0 0 
1 255.47428804181797 77.47951529140218 0 1 0 0 
1 258.9153117681002 64.966701741285078 0 0 1 0 
1 224.19225416652523 130.65897287939987 0 0 1 0 
1 224.19225416652523 134.09999660568207 0 1 0 0 
1 237.6435287329011 134.09999660568207 0 0 -1 0 
1 80.451308509554977 203.85893214758491 0 0 -1 0 
1 67.000033943179105 200.41790842130271 0 0 1 0 
1 88.428227147754654 203.85893214758494 0 -1 0 0 
1 12.412884830793253 200.41790842130271 0 0 1 0 
1 12.412884830793253 203.85893214758494 0 1 0 0 
1 26.489800074674992 203.85893214758494 0 0 -1 0 
1 91.869250874036851 174.45382030480974 0 -1 0 0 
1 88.428227147754654 187.27945419367975 0 1 0 0 
1 91.869250874036851 187.27945419367975 0 0 -1 0 
1 179.14612538610365 64.966701741285078 0 1 0 0 
1 186.02817283866807 64.966701741285078 0 0 1 0 
1 186.02817283866807 105.94616611791859 0 -1 0 0 
1 161.62818641593969 105.94616611791859 0 0 -1 0 
1 161.62818641593969 84.048742405213659 0 0 -1 0 
1 161.62818641593969 64.966701741285078 0 1 0 0 
1 169.44869488476289 64.966701741285078 0 1 0 0 
1 258.9153117681002 110.32565086045958 0 1 0 0 
1 259.4410237262822 110.32565086045958 0 1 0 0 
1 277.99735243202878 110.32565086045958 0 0 -1 0 
1 277.99735243202878 64.966701741285078 0 -1 0 0 
1 259.4410237262822 64.966701741285078 0 -1 0 0 
1 258.9153117681002 77.47951529140218 0 0 1 0 
1 255.47428804181797 143.48460676826991 0 0 1 0 
1 255.47428804181797 156.93588133464579 0 -1 0 0 
1 208.2384168901259 156.93588133464579 0 0 -1 0 
1 208.2384168901259 134.09999660568207 0 1 0 0 
1 237.6435287329011 134.09999660568207 0 1 0 0 
1 255.47428804181797 134.09999660568207 0 0 1 0 
1 29.930823800957192 223.56661348901937 0 1 0 0 
1 88.741047486507583 223.56661348901937 0 -0.01587101662672373 -0.99987404748359898 0 
1 88.628408614844503 216.47036457424531 0 -0.015871016626723834 -0.99987404748359898 0 
1 88.436571782011512 204.38464410576694 0 -1 0 0 
1 88.428227147754654 204.38464410576694 0 0 -1 0 
1 59.023115304979456 203.85893214758494 0 -1 0 0 
1 29.930823800957196 203.85893214758494 0 0 1 0 
1 29.930823800957192 204.38464410576694 0 0 1 0 
1 91.869250874036851 174.45382030480974 0 0 -1 0 
1 91.869250874036851 163.81792878721021 0 1 0 0 
1 113.76667458674179 163.81792878721021 0 0 1 0 
1 113.76667458674179 200.41790842130271 0 -1 0 0 
1 101.25386103662468 200.41790842130271 0 -1 0 0 
1 91.869250874036851 204.38464410576694 0 0 -1 0 
1 169.44869488476289 61.525678015002882 0 0 1 0 
1 179.14612538610365 64.966701741285078 0 0 -1 0 
1 179.14612538610365 61.525678015002882 0 -1 0 0 
1 258.9153117681002 134.09999660568207 0 -1 0 0 
1 255.47428804181797 143.48460676826991 0 1 0 0 
1 258.9153117681002 143.48460676826991 0 0 -1 0 
1 91.869250874036851 200.41790842130271 0 0 1 0 
1 91.869250874036851 203.85893214758494 0 1 0 0 
1 101.25386103662468 203.85893214758494 0 0 -1 0 
Polygon3D 0
PolygonOnTriangulations 0
Surfaces 75
1 138.94871185635242 213.71277281830214 0 -0 -0 -1 -1 0 0 0 1 -0 
1 132.06666440378805 202.13842028444384 0 -0 -0 -1 -1 0 0 0 1 -0 
1 132.06666440378805 202.13842028444384 0 -0 -0 -1 -1 0 0 0 1 -0 
1 135.04980614252051 143.50723816516745 0 -0 -0 -1 -1 0 0 0 1 -0 
1 -1.1947999049590978 129.25128135501171 0 -0 -0 -1 -1 0 0 0 1 -0 
1 -1.1947999049590978 129.25128135501171 0 -0 -0 -1 -1 0 0 0 1 -0 
1 9.1238056834001906 79.899407326250028 0 -0 -0 -1 -1 0 0 0 1 -0 
1 50.88978649740335 63.246189878143987 0 -0 -0 -1 -1 0 0 0 1 -0 
1 50.88978649740335 63.246189878143987 0 -0 -0 -1 -1 0 0 0 1 -0 
1 102.14777630717984 83.487671382544292 0 -0 -0 -1 -1 0 0 0 1 -0 
1 151.46152540646955 119.55385085367097 0 -0 -0 -1 -1 0 0 0 1 -0 
1 151.46152540646955 119.55385085367097 0 -0 -0 -1 -1 0 0 0 1 -0 
1 177.18402949897518 105.25362524915469 0 -0 -0 -1 -1 0 0 0 1 -0 
1 179.92817623298598 132.37948474254097 0 -0 -0 -1 -1 0 0 0 1 -0 
1 179.92817623298598 132.37948474254097 0 -0 -0 -1 -1 0 0 0 1 -0 
1 198.07175588065579 132.37948474254097 0 -0 -0 -1 -1 0 0 0 1 -0 
1 233.6097163151951 161.09314866914278 0 -0 -0 -1 -1 0 0 0 1 -0 
1 224.98395781328804 180.2373950990814 0 -0 -0 -1 -1 0 0 0 1 -0 
1 195.33931991076608 194.38981961605685 0 -0 -0 -1 -1 0 0 0 1 -0 
1 176.33074233732731 202.13842028444381 0 -0 -0 -1 -1 0 0 0 1 -0 
1 176.33074233732731 202.13842028444381 0 -0 -0 -1 -1 0 0 0 1 -0 
1 155.11159679819767 202.19222859808895 0 -0 -0 -1 -1 0 0 0 1 -0 
1 108.36113051365221 180.18414319071465 0 -0 -0 -1 -1 0 0 0 1 -0 
1 90.148739010895753 153.65126777774 0 -0 -0 -1 -1 0 0 0 1 -0 
1 90.148739010895753 153.65126777774 0 -0 -0 -1 -1 0 0 0 1 -0 
1 26.3711728236559 157.70154106253483 0 -0 -0 -1 -1 0 0 0 1 -0 
1 59.179525474355927 51.515427174909206 0 -0 -0 -1 -1 0 0 0 1 -0 
1 124.09586155090517 87.640060515555589 0 -0 -0 -1 -1 0 0 0 1 -0 
1 198.07175588065579 132.37948474254097 0 -0 -0 -1 -1 0 0 0 1 -0 
1 223.41487341330316 94.063663338967601 0 -0 -0 -1 -1 0 0 0 1 -0 
1 233.6097163151951 161.09314866914278 0 -0 -0 -1 -1 0 0 0 1 -0 
1 239.05122025728929 202.13842028444387 0 -0 -0 -1 -1 0 0 0 1 -0 
1 239.05122025728929 202.13842028444387 0 -0 -0 -1 -1 0 0 0 1 -0 
1 225.91276602966633 202.13842028444378 0 -0 -0 -1 -1 0 0 0 1 -0 
1 215.74610502019618 202.13842028444381 0 -0 -0 -1 -1 0 0 0 1 -0 
1 215.74610502019618 202.13842028444381 0 -0 -0 -1 -1 0 0 0 1 -0 
1 195.33931991076608 194.38981961605685 0 -0 -0 -1 -1 0 0 0 1 -0 
1 44.476969552968328 172.26407793353923 0 -0 -0 -1 -1 0 0 0 1 -0 
1 177.18402949897518 105.25362524915469 0 -0 -0 -1 -1 0 0 0 1 -0 
1 102.14777630717984 83.487671382544292 0 -0 -0 -1 -1 0 0 0 1 -0 
1 146.92563049455211 63.24618987814398 0 -0 -0 -1 -1 0 0 0 1 -0 
1 161.60935926592214 70.578640688820244 0 -0 -0 -1 -1 0 0 0 1 -0 
1 159.9076745527986 90.774379688401609 0 -0 -0 -1 -1 0 0 0 1 -0 
1 202.13842028444381 63.246189878143973 0 -0 -0 -1 -1 0 0 0 1 -0 
1 202.13842028444381 63.246189878143973 0 -0 -0 -1 -1 0 0 0 1 -0 
1 237.05052575138393 56.219169463908592 0 -0 -0 -1 -1 0 0 0 1 -0 
1 257.1947999049591 71.223108516343629 0 -0 -0 -1 -1 0 0 0 1 -0 
1 257.1947999049591 71.223108516343629 0 -0 -0 -1 -1 0 0 0 1 -0 
1 254.41001902899865 111.87769833816778 0 -0 -0 -1 -1 0 0 0 1 -0 
1 230.91789144971318 132.37948474254097 0 -0 -0 -1 -1 0 0 0 1 -0 
1 230.91789144971318 132.37948474254097 0 -0 -0 -1 -1 0 0 0 1 -0 
1 233.6097163151951 161.09314866914278 0 -0 -0 -1 -1 0 0 0 1 -0 
1 177.18402949897518 105.25362524915469 0 -0 -0 -1 -1 0 0 0 1 -0 
1 88.070973455477414 197.59571973667639 0 -0 -0 -1 -1 0 0 0 1 -0 
1 73.725671226367041 202.13842028444381 0 -0 -0 -1 -1 0 0 0 1 -0 
1 46.525840403124143 202.18219965773199 0 -0 -0 -1 -1 0 0 0 1 -0 
1 19.451342452734121 202.13842028444378 0 -0 -0 -1 -1 0 0 0 1 -0 
1 26.3711728236559 157.70154106253483 0 -0 -0 -1 -1 0 0 0 1 -0 
1 108.36113051365221 180.18414319071465 0 -0 -0 -1 -1 0 0 0 1 -0 
1 90.148739010895738 180.86663724924475 0 -0 -0 -1 -1 0 0 0 1 -0 
1 159.9076745527986 90.774379688401609 0 -0 -0 -1 -1 0 0 0 1 -0 
1 173.82817962730385 85.456433929601829 0 -0 -0 -1 -1 0 0 0 1 -0 
1 268.45633210006451 87.646176300872327 0 -0 -0 -1 -1 0 0 0 1 -0 
1 231.85635246597195 145.5179389701639 0 -0 -0 -1 -1 0 0 0 1 -0 
1 59.259878124362785 213.73194722768076 0 -0 -0 -1 -1 0 0 0 1 -0 
1 102.81796273038931 182.11791860425646 0 -0 -0 -1 -1 0 0 0 1 -0 
1 177.18402949897518 105.25362524915469 0 -0 -0 -1 -1 0 0 0 1 -0 
1 161.60935926592214 70.578640688820244 0 -0 -0 -1 -1 0 0 0 1 -0 
1 174.29741013543327 63.246189878143973 0 -0 -0 -1 -1 0 0 0 1 -0 
1 233.6097163151951 161.09314866914278 0 -0 -0 -1 -1 0 0 0 1 -0 
1 254.41001902899865 111.87769833816778 0 -0 -0 -1 -1 0 0 0 1 -0 
1 257.1947999049591 138.792301686976 0 -0 -0 -1 -1 0 0 0 1 -0 
1 108.36113051365221 180.18414319071465 0 -0 -0 -1 -1 0 0 0 1 -0 
1 96.561555955330789 202.13842028444381 0 -0 -0 -1 -1 0 0 0 1 -0 
1 88.070973455477414 197.59571973667639 0 -0 -0 -1 -1 0 0 0 1 -0 
Triangulations 0

TShapes 409
Ve
1.00000215049254e-07
110.32565086046 203.858932147585 0
0 0

0101101
*
Ve
1.00000215049254e-07
110.32565086046 204.384644105767 0
0 0

0101101
*
Ed
 1e-07 1 1 0
1  1 0 0 0.525711958182001
2  1 1 0 0 0.525711958182001
0

0101000
+409 0 -408 0 *
Ve
1e-07
110.32565086046 223.566613489019 0
0 0

0101101
*
Ed
 1e-07 1 1 0
1  2 0 0 19.1819693832524
2  2 1 0 0 19.1819693832524
0

0101000
+408 0 -406 0 *
Ve
1e-07
167.571772852245 223.566613489019 0
0 0

0101101
*
Ed
 1e-07 1 1 0
1  3 0 0 57.2461219917857
2  3 1 0 0 57.2461219917857
0

0101000
+406 0 -404 0 *
Ve
1.00000158882186e-07
167.571772852245 204.384644105767 0
0 0

0101101
*
Ed
 1e-07 1 1 0
1  4 0 0 19.1819693832524
2  4 1 0 0 19.1819693832524
0

0101000
+404 0 -402 0 *
Ve
1.00000158882186e-07
167.571772852245 203.858932147585 0
0 0

0101101
*
Ed
 1e-07 1 1 0
1  5 0 0 0.525711958182001
2  5 1 0 0 0.525711958182001
0

0101000
+402 0 -400 0 *
Ve
1e-07
146.925630494552 203.858932147585 0
0 0

0101101
*
Ed
 1e-07 1 1 0
1  6 0 0 20.6461423576932
2  6 1 0 0 20.6461423576932
0

0101000
+400 0 -398 0 *
Ve
1.00000040194367e-07
138.792301686976 203.858932147585 0
0 0

0101101
*
Ed
 1e-07 1 1 0
1  7 0 0 8.13332880757613
2  7 1 0 0 8.13332880757613
0

0101000
+398 0 -396 0 *
Ve
1.00000089877337e-07
125.3410271206 203.858932147585 0
0 0

0101101
*
Ed
 1e-07 1 1 0
1  8 0 0 13.4512745663759
2  8 1 0 0 13.4512745663759
2  9 2 0 0 13.4512745663759
0

0101000
+396 0 -394 0 *
Ve
1e-07
117.207698313024 203.858932147585 0
0 0

0101101
*
Ed
 1e-07 1 1 0
1  9 0 0 8.13332880757613
2  10 1 0 0 8.13332880757613
0

0101000
+394 0 -392 0 *
Ed
 1e-07 1 1 0
1  10 0 0 6.88204745256441
2  11 1 0 0 6.88204745256441
0

0101000
+392 0 -409 0 *
Wi

0101100
+407 0 +405 0 +403 0 +401 0 +399 0 +397 0 +395 0 +393 0 +391 0 +390 0 
*
Fa
0  1e-07 1 0

0111000
+389 0 *
Ve
1.00000028421709e-07
138.792301686976 200.417908421303 0
0 0

0101101
*
Ve
1.00000028421709e-07
125.3410271206 200.417908421303 0
0 0

0101101
*
Ed
 1e-07 1 1 0
1  11 0 0 13.4512745663759
2  12 3 0 0 13.4512745663759
2  13 4 0 0 13.4512745663759
2  14 2 0 0 13.4512745663759
0

0101000
+387 0 -386 0 *
Ed
 1e-07 1 1 0
1  12 0 0 3.4410237262822
2  15 2 0 0 3.4410237262822
0

0101000
+386 0 -394 0 *
Ed
 1e-07 1 1 0
1  13 0 0 3.4410237262822
2  16 2 0 0 3.4410237262822
0

0101000
+396 0 -387 0 *
Wi

0101100
+385 0 +384 0 -393 0 +383 0 *
Fa
0  1e-07 2 0

0111000
+382 0 *
Ve
1.00000000222045e-07
0.525711958182004 137.228199993211 0
0 0

0101101
*
Ve
1.00000000222045e-07
0.525711958182004 121.274362716812 0
0 0

0101101
*
Ed
 1e-07 1 1 0
1  14 0 0 15.9538372763993
2  17 5 0 0 15.9538372763993
2  18 4 0 0 15.9538372763993
2  19 6 0 0 15.9538372763993
0

0101000
+380 0 -379 0 *
Ve
1e-07
0.525711958182004 64.9667017412851 0
0 0

0101101
*
Ed
 1e-07 1 1 0
1  15 0 0 56.307660975527
2  20 7 0 0 56.307660975527
2  21 4 0 0 56.307660975527
0

0101000
+379 0 -377 0 *
Ve
1.00000007105427e-07
44.1641492142154 64.9667017412851 0
0 0

0101101
*
Ed
 1e-07 1 1 0
1  16 0 0 43.6384372560334
2  22 7 0 0 43.6384372560334
2  23 4 0 0 43.6384372560334
0

0101000
+377 0 -375 0 *
Ve
1.00000007105427e-07
57.6154237805913 64.9667017412851 0
0 0

0101101
*
Ed
 1e-07 1 1 0
1  17 0 0 13.4512745663759
2  24 8 0 0 13.4512745663759
2  25 4 0 0 13.4512745663759
2  26 9 0 0 13.4512745663759
0

0101000
+375 0 -373 0 *
Ve
1e-07
88.4282271477547 64.9667017412851 0
0 0

0101101
*
Ed
 1e-07 1 1 0
1  18 0 0 30.8128033671634
2  27 10 0 0 30.8128033671634
2  28 4 0 0 30.8128033671634
0

0101000
+373 0 -371 0 *
Ve
1e-07
88.4282271477547 121.274362716812 0
0 0

0101101
*
Ed
 1e-07 1 1 0
1  19 0 0 56.307660975527
2  29 10 0 0 56.307660975527
2  30 4 0 0 56.307660975527
0

0101000
+371 0 -369 0 *
Ve
1e-07
144.735888123282 121.274362716812 0
0 0

0101101
*
Ed
 1e-07 1 1 0
1  20 0 0 56.307660975527
2  31 10 0 0 56.307660975527
2  32 4 0 0 56.307660975527
0

0101000
+369 0 -367 0 *
Ve
1.0000051159077e-07
158.187162689657 121.274362716812 0
0 0

0101101
*
Ed
 1e-07 1 1 0
1  21 0 0 13.4512745663759
2  33 11 0 0 13.4512745663759
2  34 4 0 0 13.4512745663759
2  35 12 0 0 13.4512745663759
0

0101000
+367 0 -365 0 *
Ve
1e-07
158.187162689657 134.099996605682 0
0 0

0101101
*
Ed
 1e-07 1 1 0
1  22 0 23.7743457452225 36.5999796340925
2  36 13 0 23.7743457452225 36.5999796340925
2  37 4 0 23.7743457452225 36.5999796340925
0

0101000
+365 0 -363 0 *
Ve
1e-07
173.828179627304 134.099996605682 0
0 0

0101101
*
Ed
 1e-07 1 1 0
1  23 0 0 15.6410169376464
2  38 13 0 0 15.6410169376464
2  39 4 0 0 15.6410169376464
0

0101000
+363 0 -361 0 *
Ve
1e-07
186.028172838668 134.099996605682 0
0 0

0101101
*
Ed
 1e-07 1 1 0
1  24 0 0 12.1999932113642
2  40 14 0 0 12.1999932113642
2  41 4 0 0 12.1999932113642
2  42 15 0 0 12.1999932113642
0

0101000
+361 0 -359 0 *
Ve
1e-07
191.346118597468 134.099996605682 0
0 0

0101101
*
Ed
 1e-07 1 1 0
1  25 0 0 5.31794575879977
2  43 13 0 0 5.31794575879977
2  44 4 0 0 5.31794575879977
0

0101000
+359 0 -357 0 *
Ve
1.00000284217094e-07
204.797393163844 134.099996605682 0
0 0

0101101
*
Ed
 1e-07 1 1 0
1  26 0 0 13.4512745663759
2  45 16 0 0 13.4512745663759
2  46 4 0 0 13.4512745663759
0

0101000
+357 0 -355 0 *
Ve
1e-07
204.797393163844 156.935881334646 0
0 0

0101101
*
Ed
 1e-07 1 1 0
1  27 0 3.44102372628214 26.2769084552459
2  47 17 0 3.44102372628214 26.2769084552459
2  48 4 0 3.44102372628214 26.2769084552459
0

0101000
+355 0 -353 0 *
Ve
1e-07
193.535860968738 156.935881334646 0
0 0

0101101
*
Ed
 1e-07 1 1 0
1  28 0 0 11.2615321951054
2  49 17 0 0 11.2615321951054
2  50 4 0 0 11.2615321951054
0

0101000
+353 0 -351 0 *
Ve
1e-07
193.535860968738 160.376905060928 0
0 0

0101101
*
Ed
 1e-07 1 1 0
1  29 0 0 3.4410237262822
2  51 17 0 0 3.4410237262822
2  52 4 0 0 3.4410237262822
0

0101000
+351 0 -349 0 *
Ve
1e-07
193.536060968738 160.376905060928 0
0 0

0101101
*
Ed
 1e-07 1 1 0
1  30 0 0 0.000200000000006639
2  53 17 0 0 0.000200000000006639
2  54 4 0 0 0.000200000000006639
0

0101000
+349 0 -347 0 *
Ve
1e-07
193.536060968738 173.515359288551 0
0 0

0101101
*
Ed
 1e-07 1 1 0
1  31 0 0.00010000000000332 13.138554227623
2  55 4 0 0.00010000000000332 13.138554227623
2  56 18 0 0.00010000000000332 13.138554227623
0

0101000
+345 0 -347 0 *
Ve
1e-07
193.535860968738 173.515359288551 0
0 0

0101101
*
Ed
 1e-07 1 1 0
1  32 0 3.44082372628219 3.4410237262822
2  57 19 0 3.44082372628219 3.4410237262822
2  58 4 0 3.44082372628219 3.4410237262822
0

0101000
+345 0 -343 0 *
Ve
1e-07
193.535860968738 200.417908421303 0
0 0

0101101
*
Ed
 1e-07 1 1 0
1  33 0 0 26.9025491327518
2  59 19 0 0 26.9025491327518
2  60 4 0 0 26.9025491327518
0

0101000
+343 0 -341 0 *
Ve
1e-07
181.648688096127 200.417908421303 0
0 0

0101101
*
Ed
 1e-07 1 1 0
1  34 0 0 11.8871728726112
2  61 19 0 0 11.8871728726112
2  62 4 0 0 11.8871728726112
0

0101000
+341 0 -339 0 *
Ve
1e-07
171.012796578528 200.417908421303 0
0 0

0101101
*
Ed
 1e-07 1 1 0
1  35 0 0 10.6358915175995
2  63 20 0 0 10.6358915175995
2  64 4 0 0 10.6358915175995
2  65 21 0 0 10.6358915175995
0

0101000
+339 0 -337 0 *
Ed
 1e-07 1 1 0
1  36 0 0 32.2204948915516
2  66 22 0 0 32.2204948915516
2  67 4 0 0 32.2204948915516
0

0101000
+337 0 -387 0 *
Ve
1e-07
117.207698313024 200.417908421303 0
0 0

0101101
*
Ed
 1e-07 1 1 0
1  36 0 45.6717694579274 53.8050982655036
2  68 23 0 45.6717694579274 53.8050982655036
2  69 4 0 45.6717694579274 53.8050982655036
0

0101000
+386 0 -334 0 *
Ve
1e-07
117.207698313024 160.376905060928 0
0 0

0101101
*
Ed
 1e-07 1 1 0
1  37 0 0 40.0410033603747
2  70 23 0 0 40.0410033603747
2  71 4 0 0 40.0410033603747
0

0101000
+334 0 -332 0 *
Ve
1.00000028421709e-07
91.8692508740369 160.376905060928 0
0 0

0101101
*
Ed
 1e-07 1 1 0
1  38 0 0 25.3384474389871
2  72 23 0 0 25.3384474389871
2  73 4 0 0 25.3384474389871
0

0101000
+332 0 -330 0 *
Ve
1e-07
91.8692508740369 146.925630494552 0
0 0

0101101
*
Ed
 1e-07 1 1 0
1  39 0 0 13.4512745663759
2  74 24 0 0 13.4512745663759
2  75 4 0 0 13.4512745663759
2  76 25 0 0 13.4512745663759
0

0101000
+330 0 -328 0 *
Ve
1e-07
91.8692508740369 140.669223719494 0
0 0

0101101
*
Ed
 1e-07 1 1 0
1  40 0 0 6.25640677505857
2  77 26 0 0 6.25640677505857
2  78 4 0 0 6.25640677505857
0

0101000
+328 0 -326 0 *
Ve
1e-07
0.525711958182004 140.669223719494 0
0 0

0101101
*
Ed
 1e-07 1 1 0
1  41 0 0 91.3435389158549
2  79 26 0 0 91.3435389158549
2  80 4 0 0 91.3435389158549
0

0101000
+326 0 -324 0 *
Ed
 1e-07 1 1 0
1  42 0 0 3.4410237262822
2  81 26 0 0 3.4410237262822
2  82 4 0 0 3.4410237262822
0

0101000
+324 0 -380 0 *
Wi

0101100
-378 0 -376 0 -374 0 -372 0 -370 0 -368 0 -366 0 -364 0 -362 0 -360 0 
-358 0 -356 0 -354 0 -352 0 -350 0 -348 0 -346 0 +344 0 -342 0 -340 0 
-338 0 -336 0 -335 0 -385 0 -333 0 -331 0 -329 0 -327 0 -325 0 -323 0 
-322 0 *
Fa
0  1e-07 4 0

0101000
+321 0 *
Ve
1e-07
-2.9153117681002 121.274362716812 0
0 0

0101101
*
Ed
 1e-07 1 1 0
1  43 0 0 3.4410237262822
2  83 6 0 0 3.4410237262822
0

0101000
+379 0 -319 0 *
Ve
1e-07
-2.9153117681002 137.228199993211 0
0 0

0101101
*
Ed
 1e-07 1 1 0
1  44 0 0 15.9538372763993
2  84 6 0 0 15.9538372763993
0

0101000
+319 0 -317 0 *
Ed
 1e-07 1 1 0
1  45 0 0 3.4410237262822
2  85 6 0 0 3.4410237262822
0

0101000
+317 0 -380 0 *
Wi

0101100
+318 0 +316 0 +315 0 +378 0 *
Fa
0  1e-07 6 0

0111000
+314 0 *
Ve
1.00000028421709e-07
44.1641492142154 61.5256780150029 0
0 0

0101101
*
Ve
1.00000028421709e-07
57.6154237805913 61.5256780150029 0
0 0

0101101
*
Ed
 1.00000007105427e-07 1 1 0
1  46 0 14.2333254132582 27.6845999796341
2  86 27 0 14.2333254132582 27.6845999796341
2  87 9 0 14.2333254132582 27.6845999796341
0

0101000
+312 0 -311 0 *
Ed
 1e-07 1 1 0
1  47 0 0 3.4410237262822
2  88 9 0 0 3.4410237262822
0

0101000
+312 0 -375 0 *
Ed
 1e-07 1 1 0
1  48 0 0 3.4410237262822
2  89 9 0 0 3.4410237262822
0

0101000
+373 0 -311 0 *
Wi

0101100
-310 0 +309 0 +372 0 +308 0 *
Fa
0  1e-07 9 0

0111000
+307 0 *
Ve
1e-07
144.735888123282 117.83333899053 0
0 0

0101101
*
Ed
 1e-07 1 1 0
1  49 0 0 3.44102372628221
2  90 12 0 0 3.44102372628221
0

0101000
+305 0 -367 0 *
Ve
1.0000051159077e-07
158.187162689657 117.83333899053 0
0 0

0101101
*
Ed
 1e-07 1 1 0
1  50 0 0 3.44102372628221
2  91 12 0 0 3.44102372628221
0

0101000
+365 0 -303 0 *
Ed
 1e-07 1 1 0
1  51 0 0 13.4512745663759
2  92 12 0 0 13.4512745663759
2  93 28 0 0 13.4512745663759
0

0101000
+303 0 -305 0 *
Wi

0101100
+304 0 +364 0 +302 0 +301 0 *
Fa
0  1e-07 12 0

0111000
+300 0 *
Ve
1e-07
173.828179627304 130.6589728794 0
0 0

0101101
*
Ed
 1e-07 1 1 0
1  52 0 0 3.4410237262822
2  94 15 0 0 3.4410237262822
0

0101000
+298 0 -361 0 *
Ve
1e-07
186.028172838668 130.6589728794 0
0 0

0101101
*
Ed
 1e-07 1 1 0
1  53 0 0 3.4410237262822
2  95 15 0 0 3.4410237262822
0

0101000
+359 0 -296 0 *
Ed
 1e-07 1 1 0
1  54 0 0 12.1999932113642
2  96 15 0 0 12.1999932113642
0

0101000
+296 0 -298 0 *
Wi

0101100
+297 0 +358 0 +295 0 +294 0 *
Fa
0  1e-07 15 0

0111000
+293 0 *
Ve
1e-07
191.346118597468 130.6589728794 0
0 0

0101101
*
Ed
 1e-07 1 1 0
1  55 0 0 3.4410237262822
2  97 16 0 0 3.4410237262822
0

0101000
+291 0 -357 0 *
Ve
1e-07
204.797393163844 130.6589728794 0
0 0

0101101
*
Ed
 1e-07 1 1 0
1  56 0 0 3.4410237262822
2  98 16 0 0 3.4410237262822
0

0101000
+355 0 -289 0 *
Ed
 1e-07 1 1 0
1  57 0 0 13.4512745663759
2  99 29 0 0 13.4512745663759
2  100 30 0 0 13.4512745663759
2  101 16 0 0 13.4512745663759
0

0101000
+289 0 -291 0 *
Wi

0101100
+290 0 +354 0 +288 0 +287 0 *
Fa
0  1e-07 16 0

0111000
+286 0 *
Ve
1e-07
255.474288041818 160.376905060928 0
0 0

0101101
*
Ed
 1e-07 1 1 0
1  58 0 0.000200000000006639 61.9384270730797
2  102 31 0 0.000200000000006639 61.9384270730797
2  103 18 0 0.000200000000006639 61.9384270730797
0

0101000
+347 0 -284 0 *
Ve
1e-07
255.474288041818 200.417908421303 0
0 0

0101101
*
Ed
 1e-07 1 1 0
1  59 0 0 40.0410033603747
2  104 31 0 0 40.0410033603747
2  105 18 0 0 40.0410033603747
0

0101000
+284 0 -282 0 *
Ve
1e-07
248.592240589254 200.417908421303 0
0 0

0101101
*
Ed
 1e-07 1 1 0
1  60 0 0 6.88204745256439
2  106 31 0 0 6.88204745256439
2  107 18 0 0 6.88204745256439
0

0101000
+282 0 -280 0 *
Ve
1e-07
229.510199925325 200.417908421303 0
0 0

0101101
*
Ed
 1e-07 1 1 0
1  61 0 0 19.0820406639286
2  108 32 0 0 19.0820406639286
2  109 18 0 0 19.0820406639286
2  110 33 0 0 19.0820406639286
0

0101000
+280 0 -278 0 *
Ve
1e-07
222.315332134008 200.417908421303 0
0 0

0101101
*
Ed
 1e-07 1 1 0
1  62 0 0 7.19486779131734
2  111 34 0 0 7.19486779131734
2  112 18 0 0 7.19486779131734
0

0101000
+278 0 -276 0 *
Ve
1e-07
209.176877906385 200.417908421303 0
0 0

0101101
*
Ed
 1e-07 1 1 0
1  63 0 0 13.138454227623
2  113 35 0 0 13.138454227623
2  114 18 0 0 13.138454227623
2  115 36 0 0 13.138454227623
0

0101000
+276 0 -274 0 *
Ve
1e-07
196.976884695021 200.417908421303 0
0 0

0101101
*
Ed
 1e-07 1 1 0
1  64 0 0 12.1999932113642
2  116 37 0 0 12.1999932113642
2  117 18 0 0 12.1999932113642
0

0101000
+274 0 -272 0 *
Ve
1e-07
196.976884695021 173.515359288551 0
0 0

0101101
*
Ed
 1e-07 1 1 0
1  65 0 0 26.9025491327518
2  118 37 0 0 26.9025491327518
2  119 18 0 0 26.9025491327518
0

0101000
+272 0 -270 0 *
Ed
 1e-07 1 1 0
1  66 0 0 3.44082372628219
2  120 37 0 0 3.44082372628219
2  121 18 0 0 3.44082372628219
0

0101000
+270 0 -345 0 *
Wi

0101100
-344 0 -283 0 -281 0 -279 0 -277 0 -275 0 -273 0 -271 0 -269 0 -268 0 
*
Fa
0  1e-07 18 0

0101000
+267 0 *
Ve
1e-07
171.012796578528 203.858932147585 0
0 0

0101101
*
Ed
 1e-07 1 1 0
1  67 0 0 3.44102372628222
2  122 21 0 0 3.44102372628222
0

0101000
+337 0 -265 0 *
Ve
1e-07
181.648688096127 203.858932147585 0
0 0

0101101
*
Ed
 1e-07 1 1 0
1  68 0 0 10.6358915175995
2  123 21 0 0 10.6358915175995
0

0101000
+265 0 -263 0 *
Ed
 1e-07 1 1 0
1  69 0 0 3.44102372628222
2  124 21 0 0 3.44102372628222
0

0101000
+263 0 -339 0 *
Wi

0101100
+264 0 +262 0 +261 0 +336 0 *
Fa
0  1e-07 21 0

0111000
+260 0 *
Ve
1e-07
88.4282271477547 146.925630494552 0
0 0

0101101
*
Ed
 1e-07 1 1 0
1  70 0 0 3.4410237262822
2  125 25 0 0 3.4410237262822
0

0101000
+328 0 -258 0 *
Ve
1e-07
88.4282271477547 160.376905060928 0
0 0

0101101
*
Ed
 1e-07 1 1 0
1  71 0 0 13.4512745663759
2  126 25 0 0 13.4512745663759
2  127 38 0 0 13.4512745663759
0

0101000
+258 0 -256 0 *
Ve
1e-07
88.7410474865076 160.376905060928 0
0 0

0101101
*
Ed
 1e-07 1 1 0
1  72 0 0 0.312820338752928
2  128 25 0 0 0.312820338752928
0

0101000
+256 0 -254 0 *
Ed
 1e-07 1 1 0
1  73 0 0 3.12820338752927
2  129 25 0 0 3.12820338752927
0

0101000
+254 0 -330 0 *
Wi

0101100
+257 0 +255 0 +253 0 +252 0 +327 0 *
Fa
0  1e-07 25 0

0111000
+251 0 *
Ve
1.00000007105427e-07
29.9308238009572 61.5256780150029 0
0 0

0101101
*
Ed
 1.00000007105427e-07 1 1 0
1  46 0 0 14.2333254132582
2  86 27 0 0 14.2333254132582
0

0101000
+249 0 -312 0 *
Ve
1.00000025618983e-07
88.4282271477547 61.5256780150029 0
0 0

0101101
*
Ed
 1.00000007105427e-07 1 1 0
1  46 0 27.6845999796341 58.4974033467975
2  86 27 0 27.6845999796341 58.4974033467975
0

0101000
+311 0 -247 0 *
Ve
1.00000030145775e-07
88.4282271477547 51.6153558942331 0
0 0

0101101
*
Ed
 1e-07 1 1 0
1  74 0 0 9.91032212076982
2  130 27 0 0 9.91032212076982
0

0101000
+247 0 -245 0 *
Ve
1e-07
88.4282271477547 41.5051763348155 0
0 0

0101101
*
Ed
 1e-07 1 1 0
1  75 0 0 10.1101795594175
2  131 27 0 0 10.1101795594175
0

0101000
+245 0 -243 0 *
Ve
1e-07
29.9308238009572 41.5051763348155 0
0 0

0101101
*
Ed
 1e-07 1 1 0
1  76 0 0 58.4974033467975
2  132 27 0 0 58.4974033467975
0

0101000
+243 0 -241 0 *
Ed
 1e-07 1 1 0
1  77 0 0 20.0205016801874
2  133 27 0 0 20.0205016801874
0

0101000
+241 0 -249 0 *
Wi

0101100
+248 0 +310 0 +246 0 +244 0 +242 0 +240 0 +239 0 *
Fa
0  1e-07 27 0

0111000
+238 0 *
Ve
1e-07
158.187162689657 97.5000169715895 0
0 0

0101101
*
Ed
 1e-07 1 1 0
1  78 0 0 20.3333220189404
2  134 39 0 0 20.3333220189404
2  135 28 0 0 20.3333220189404
0

0101000
+236 0 -303 0 *
Ve
1e-07
91.8692508740369 117.83333899053 0
0 0

0101101
*
Ed
 1e-07 1 1 0
1  79 0 0 52.8666372492448
2  136 40 0 0 52.8666372492448
2  137 28 0 0 52.8666372492448
0

0101000
+305 0 -234 0 *
Ve
1e-07
91.8692508740369 55.5820915786973 0
0 0

0101101
*
Ed
 1e-07 1 1 0
1  80 0 0 62.2512474118326
2  138 40 0 0 62.2512474118326
2  139 28 0 0 62.2512474118326
0

0101000
+234 0 -232 0 *
Ve
1e-07
132.223074573165 55.5820915786973 0
0 0

0101101
*
Ed
 1e-07 1 1 0
1  81 0 0 40.3538236991277
2  140 40 0 0 40.3538236991277
2  141 28 0 0 40.3538236991277
0

0101000
+232 0 -230 0 *
Ve
1e-07
132.223074573165 64.9667017412851 0
0 0

0101101
*
Ed
 1e-07 1 1 0
1  82 0 0 9.38461016258783
2  142 40 0 0 9.38461016258783
2  143 28 0 0 9.38461016258783
0

0101000
+230 0 -228 0 *
Ve
1e-07
135.664098299447 64.9667017412851 0
0 0

0101101
*
Ed
 1e-07 1 1 0
1  83 0 0 3.4410237262822
2  144 40 0 0 3.4410237262822
2  145 28 0 0 3.4410237262822
0

0101000
+228 0 -226 0 *
Ve
1.0000051159077e-07
158.187162689657 64.9667017412851 0
0 0

0101101
*
Ed
 1e-07 1 1 0
1  84 0 0 22.5230643902108
2  146 41 0 0 22.5230643902108
2  147 28 0 0 22.5230643902108
0

0101000
+226 0 -224 0 *
Ve
1e-07
158.187162689657 84.0487424052137 0
0 0

0101101
*
Ed
 1e-07 1 1 0
1  85 0 3.44102372628222 22.5230643902108
2  148 42 0 3.44102372628222 22.5230643902108
2  149 28 0 3.44102372628222 22.5230643902108
0

0101000
+224 0 -222 0 *
Ed
 1e-07 1 1 0
1  86 0 0 13.4512745663759
2  150 43 0 0 13.4512745663759
2  151 28 0 0 13.4512745663759
0

0101000
+222 0 -236 0 *
Wi

0101100
-235 0 -301 0 -233 0 -231 0 -229 0 -227 0 -225 0 -223 0 -221 0 -220 0 
*
Fa
0  1e-07 28 0

0101000
+219 0 *
Ve
1.00000255795385e-07
189.46919656495 64.9667017412851 0
0 0

0101101
*
Ve
1e-07
214.807644003937 64.9667017412851 0
0 0

0101101
*
Ed
 1e-07 1 1 0
1  87 0 0 25.3384474389871
2  152 44 0 0 25.3384474389871
2  153 30 0 0 25.3384474389871
2  154 45 0 0 25.3384474389871
0

0101000
+217 0 -216 0 *
Ve
1e-07
218.24866773022 64.9667017412851 0
0 0

0101101
*
Ed
 1e-07 1 1 0
1  88 0 0 3.44102372628222
2  155 46 0 0 3.44102372628222
2  156 30 0 0 3.44102372628222
0

0101000
+216 0 -214 0 *
Ve
1e-07
218.24866773022 55.5820915786973 0
0 0

0101101
*
Ed
 1e-07 1 1 0
1  89 0 0 9.38461016258783
2  157 46 0 0 9.38461016258783
2  158 30 0 0 9.38461016258783
0

0101000
+214 0 -212 0 *
Ve
1e-07
255.474288041818 55.5820915786973 0
0 0

0101101
*
Ed
 1e-07 1 1 0
1  90 0 0 37.2256203115984
2  159 46 0 0 37.2256203115984
2  160 30 0 0 37.2256203115984
0

0101000
+212 0 -210 0 *
Ve
1e-07
255.474288041818 64.9667017412851 0
0 0

0101101
*
Ed
 1e-07 1 1 0
1  91 0 0 9.38461016258783
2  161 46 0 0 9.38461016258783
2  162 30 0 0 9.38461016258783
0

0101000
+210 0 -208 0 *
Ve
1e-07
255.474288041818 77.4795152914022 0
0 0

0101101
*
Ed
 1e-07 1 1 0
1  92 0 0 12.5128135501171
2  163 47 0 0 12.5128135501171
2  164 30 0 0 12.5128135501171
2  165 48 0 0 12.5128135501171
0

0101000
+208 0 -206 0 *
Ve
1e-07
255.474288041818 130.6589728794 0
0 0

0101101
*
Ed
 1e-07 1 1 0
1  93 0 0 53.1794575879977
2  166 49 0 0 53.1794575879977
2  167 30 0 0 53.1794575879977
0

0101000
+206 0 -204 0 *
Ve
1e-07
237.643528732901 130.6589728794 0
0 0

0101101
*
Ed
 1e-07 1 1 0
1  94 0 0 17.8307593089169
2  168 49 0 0 17.8307593089169
2  169 30 0 0 17.8307593089169
0

0101000
+204 0 -202 0 *
Ve
1e-07
224.192254166525 130.6589728794 0
0 0

0101101
*
Ed
 1e-07 1 1 0
1  95 0 0 13.4512745663759
2  170 50 0 0 13.4512745663759
2  171 30 0 0 13.4512745663759
2  172 51 0 0 13.4512745663759
0

0101000
+202 0 -200 0 *
Ed
 1e-07 1 1 0
1  96 0 0 19.3948610026815
2  173 52 0 0 19.3948610026815
2  174 30 0 0 19.3948610026815
0

0101000
+200 0 -289 0 *
Ve
1e-07
189.46919656495 130.6589728794 0
0 0

0101101
*
Ed
 1e-07 1 1 0
1  97 0 0 1.87692203251757
2  175 53 0 0 1.87692203251757
2  176 30 0 0 1.87692203251757
0

0101000
+291 0 -197 0 *
Ed
 1e-07 1 1 0
1  98 0 0 65.6922711381148
2  177 53 0 0 65.6922711381148
2  178 30 0 0 65.6922711381148
0

0101000
+197 0 -217 0 *
Wi

0101100
-215 0 -213 0 -211 0 -209 0 -207 0 -205 0 -203 0 -201 0 -199 0 -198 0 
-287 0 -196 0 -195 0 *
Fa
0  1e-07 30 0

0101000
+194 0 *
Ve
1e-07
229.510199925325 203.858932147585 0
0 0

0101101
*
Ed
 1e-07 1 1 0
1  99 0 0 3.44102372628222
2  179 33 0 0 3.44102372628222
0

0101000
+278 0 -192 0 *
Ve
1e-07
248.592240589254 203.858932147585 0
0 0

0101101
*
Ed
 1e-07 1 1 0
1  100 0 0 19.0820406639286
2  180 33 0 0 19.0820406639286
0

0101000
+192 0 -190 0 *
Ed
 1e-07 1 1 0
1  101 0 0 3.44102372628222
2  181 33 0 0 3.44102372628222
0

0101000
+190 0 -280 0 *
Wi

0101100
+191 0 +189 0 +188 0 +277 0 *
Fa
0  1e-07 33 0

0111000
+187 0 *
Ve
1e-07
209.176877906385 203.858932147585 0
0 0

0101101
*
Ed
 1e-07 1 1 0
1  102 0 0 3.44102372628222
2  182 36 0 0 3.44102372628222
0

0101000
+274 0 -185 0 *
Ve
1e-07
222.315332134008 203.858932147585 0
0 0

0101101
*
Ed
 1e-07 1 1 0
1  103 0 0 13.138454227623
2  183 36 0 0 13.138454227623
0

0101000
+185 0 -183 0 *
Ed
 1e-07 1 1 0
1  104 0 0 3.44102372628222
2  184 36 0 0 3.44102372628222
0

0101000
+183 0 -276 0 *
Wi

0101100
+184 0 +182 0 +181 0 +273 0 *
Fa
0  1e-07 36 0

0111000
+180 0 *
Ve
1e-07
88.4282271477547 187.27945419368 0
0 0

0101101
*
Ve
1e-07
88.4282271477547 200.417908421303 0
0 0

0101101
*
Ed
 1e-07 1 1 0
1  105 0 0 13.138454227623
2  185 54 0 0 13.138454227623
2  186 38 0 0 13.138454227623
0

0101000
+178 0 -177 0 *
Ve
1e-07
80.451308509555 200.417908421303 0
0 0

0101101
*
Ed
 1e-07 1 1 0
1  106 0 0 7.97691863819968
2  187 54 0 0 7.97691863819968
2  188 38 0 0 7.97691863819968
0

0101000
+177 0 -175 0 *
Ve
1e-07
67.0000339431791 200.417908421303 0
0 0

0101101
*
Ed
 1e-07 1 1 0
1  107 0 0 13.4512745663759
2  189 55 0 0 13.4512745663759
2  190 38 0 0 13.4512745663759
0

0101000
+175 0 -173 0 *
Ve
1e-07
26.489800074675 200.417908421303 0
0 0

0101101
*
Ed
 1e-07 1 1 0
1  108 0 0 40.5102338685041
2  191 56 0 0 40.5102338685041
2  192 38 0 0 40.5102338685041
0

0101000
+173 0 -171 0 *
Ve
1e-07
12.4128848307933 200.417908421303 0
0 0

0101101
*
Ed
 1e-07 1 1 0
1  109 0 0 14.0769152438817
2  193 57 0 0 14.0769152438817
2  194 38 0 0 14.0769152438817
0

0101000
+171 0 -169 0 *
Ve
1e-07
0.525711958182004 200.417908421303 0
0 0

0101101
*
Ed
 1e-07 1 1 0
1  110 0 0 11.8871728726112
2  195 58 0 0 11.8871728726112
2  196 38 0 0 11.8871728726112
0

0101000
+169 0 -167 0 *
Ve
1e-07
0.525711958182004 144.110247445776 0
0 0

0101101
*
Ed
 1e-07 1 1 0
1  111 0 0 56.3076609755269
2  197 58 0 0 56.3076609755269
2  198 38 0 0 56.3076609755269
0

0101000
+167 0 -165 0 *
Ve
1e-07
88.4282271477547 144.110247445776 0
0 0

0101101
*
Ed
 1e-07 1 1 0
1  112 0 0 87.9025151895727
2  199 58 0 0 87.9025151895727
2  200 38 0 0 87.9025151895727
0

0101000
+165 0 -163 0 *
Ed
 1e-07 1 1 0
1  113 0 0 2.81538304877634
2  201 58 0 0 2.81538304877634
2  202 38 0 0 2.81538304877634
0

0101000
+163 0 -258 0 *
Ve
1e-07
88.4282271477547 174.45382030481 0
0 0

0101101
*
Ed
 1e-07 1 1 0
1  114 0 0 14.0769152438818
2  203 59 0 0 14.0769152438818
2  204 38 0 0 14.0769152438818
0

0101000
+256 0 -160 0 *
Ed
 1e-07 1 1 0
1  115 0 0 12.82563388887
2  205 60 0 0 12.82563388887
2  206 38 0 0 12.82563388887
0

0101000
+160 0 -178 0 *
Wi

0101100
-176 0 -174 0 -172 0 -170 0 -168 0 -166 0 -164 0 -162 0 -161 0 -255 0 
-159 0 -158 0 *
Fa
0  1e-07 38 0

0101000
+157 0 *
Ve
1e-07
135.664098299447 61.5256780150029 0
0 0

0101101
*
Ed
 1e-07 1 1 0
1  116 0 0 3.4410237262822
2  207 41 0 0 3.4410237262822
0

0101000
+155 0 -226 0 *
Ve
1e-07
158.187162689657 61.5256780150029 0
0 0

0101101
*
Ed
 1e-07 1 1 0
1  117 0 0 3.4410237262822
2  208 41 0 0 3.4410237262822
0

0101000
+224 0 -153 0 *
Ed
 1e-07 1 1 0
1  118 0 0 22.5230643902108
2  209 41 0 0 22.5230643902108
0

0101000
+153 0 -155 0 *
Wi

0101100
+154 0 +223 0 +152 0 +151 0 *
Fa
0  1e-07 41 0

0111000
+150 0 *
Ve
1e-07
161.62818641594 84.0487424052137 0
0 0

0101101
*
Ed
 1e-07 1 1 0
1  119 0 0 3.4410237262822
2  210 43 0 0 3.4410237262822
0

0101000
+148 0 -222 0 *
Ve
1e-07
161.62818641594 97.5000169715895 0
0 0

0101101
*
Ed
 1e-07 1 1 0
1  120 0 0 3.4410237262822
2  211 43 0 0 3.4410237262822
0

0101000
+236 0 -146 0 *
Ed
 1e-07 1 1 0
1  121 0 0 13.4512745663759
2  212 61 0 0 13.4512745663759
2  213 62 0 0 13.4512745663759
2  214 43 0 0 13.4512745663759
0

0101000
+146 0 -148 0 *
Wi

0101100
+147 0 +220 0 +145 0 +144 0 *
Fa
0  1e-07 43 0

0111000
+143 0 *
Ve
1e-07
189.46919656495 61.5256780150029 0
0 0

0101101
*
Ve
1e-07
189.46919656495 61.8384983537558 0
0 0

0101101
*
Ed
 1e-07 1 1 0
1  122 0 0 0.312820338752921
2  215 45 0 0 0.312820338752921
0

0101000
+141 0 -140 0 *
Ed
 1e-07 1 1 0
1  123 0 0 3.12820338752928
2  216 45 0 0 3.12820338752928
0

0101000
+140 0 -217 0 *
Ve
1e-07
214.807644003937 61.5256780150029 0
0 0

0101101
*
Ed
 1e-07 1 1 0
1  124 0 0 3.4410237262822
2  217 45 0 0 3.4410237262822
0

0101000
+216 0 -137 0 *
Ed
 1e-07 1 1 0
1  125 0 0 25.3384474389871
2  218 45 0 0 25.3384474389871
0

0101000
+137 0 -141 0 *
Wi

0101100
+139 0 +138 0 +215 0 +136 0 +135 0 *
Fa
0  1e-07 45 0

0111000
+134 0 *
Ve
1.00000086441255e-07
258.9153117681 64.9667017412851 0
0 0

0101101
*
Ed
 1e-07 1 1 0
1  126 0 0 3.44102372628222
2  219 48 0 0 3.44102372628222
0

0101000
+132 0 -208 0 *
Ve
1.00000114571574e-07
258.9153117681 77.4795152914022 0
0 0

0101101
*
Ed
 1e-07 1 1 0
1  127 0 0 3.44102372628222
2  220 48 0 0 3.44102372628222
0

0101000
+206 0 -130 0 *
Ed
 1e-07 1 1 0
1  128 0 0 12.5128135501171
2  221 63 0 0 12.5128135501171
2  222 48 0 0 12.5128135501171
0

0101000
+132 0 -130 0 *
Wi

0101100
+131 0 +205 0 +129 0 -128 0 *
Fa
0  1e-07 48 0

0111000
+127 0 *
Ve
1e-07
224.192254166525 134.099996605682 0
0 0

0101101
*
Ed
 1e-07 1 1 0
1  129 0 0 3.4410237262822
2  223 51 0 0 3.4410237262822
0

0101000
+200 0 -125 0 *
Ve
1e-07
237.643528732901 134.099996605682 0
0 0

0101101
*
Ed
 1e-07 1 1 0
1  130 0 0 13.4512745663759
2  224 51 0 0 13.4512745663759
2  225 64 0 0 13.4512745663759
0

0101000
+125 0 -123 0 *
Ed
 1e-07 1 1 0
1  131 0 0 3.4410237262822
2  226 51 0 0 3.4410237262822
0

0101000
+123 0 -202 0 *
Wi

0101100
+124 0 +122 0 +121 0 +199 0 *
Fa
0  1e-07 51 0

0111000
+120 0 *
Ve
1.00000085265128e-07
80.451308509555 203.858932147585 0
0 0

0101101
*
Ed
 1e-07 1 1 0
1  132 0 0 3.4410237262822
2  227 55 0 0 3.4410237262822
0

0101000
+118 0 -175 0 *
Ve
1.00000085265128e-07
67.0000339431791 203.858932147585 0
0 0

0101101
*
Ed
 1e-07 1 1 0
1  133 0 0 3.4410237262822
2  228 55 0 0 3.4410237262822
0

0101000
+173 0 -116 0 *
Ed
 1.00000028421709e-07 1 1 0
1  134 0 7.97691863819965 21.4281932045755
2  229 65 0 7.97691863819965 21.4281932045755
2  230 55 0 7.97691863819965 21.4281932045755
0

0101000
+118 0 -116 0 *
Wi

0101100
+117 0 +172 0 +115 0 -114 0 *
Fa
0  1e-07 55 0

0111000
+113 0 *
Ve
1e-07
12.4128848307933 203.858932147585 0
0 0

0101101
*
Ed
 1e-07 1 1 0
1  135 0 0 3.44102372628222
2  231 57 0 0 3.44102372628222
0

0101000
+169 0 -111 0 *
Ve
1e-07
26.489800074675 203.858932147585 0
0 0

0101101
*
Ed
 1e-07 1 1 0
1  136 0 0 14.0769152438817
2  232 57 0 0 14.0769152438817
0

0101000
+111 0 -109 0 *
Ed
 1e-07 1 1 0
1  137 0 0 3.44102372628222
2  233 57 0 0 3.44102372628222
0

0101000
+109 0 -171 0 *
Wi

0101100
+110 0 +108 0 +107 0 +168 0 *
Fa
0  1e-07 57 0

0111000
+106 0 *
Ve
1e-07
91.8692508740369 174.45382030481 0
0 0

0101101
*
Ed
 1e-07 1 1 0
1  138 0 0 3.4410237262822
2  234 60 0 0 3.4410237262822
0

0101000
+104 0 -160 0 *
Ve
1e-07
91.8692508740369 187.27945419368 0
0 0

0101101
*
Ed
 1e-07 1 1 0
1  139 0 0 3.4410237262822
2  235 60 0 0 3.4410237262822
0

0101000
+178 0 -102 0 *
Ed
 1e-07 1 1 0
1  140 0 0 12.82563388887
2  236 60 0 0 12.82563388887
2  237 66 0 0 12.82563388887
0

0101000
+102 0 -104 0 *
Wi

0101100
+103 0 +158 0 +101 0 +100 0 *
Fa
0  1e-07 60 0

0111000
+99 0 *
Ve
1e-07
179.146125386104 64.9667017412851 0
0 0

0101101
*
Ve
1e-07
186.028172838668 64.9667017412851 0
0 0

0101101
*
Ed
 1e-07 1 1 0
1  141 0 0 6.88204745256442
2  238 67 0 0 6.88204745256442
2  239 62 0 0 6.88204745256442
0

0101000
+97 0 -96 0 *
Ve
1e-07
186.028172838668 105.946166117919 0
0 0

0101101
*
Ed
 1e-07 1 1 0
1  142 0 0 40.9794643766335
2  240 67 0 0 40.9794643766335
2  241 62 0 0 40.9794643766335
0

0101000
+96 0 -94 0 *
Ve
1e-07
161.62818641594 105.946166117919 0
0 0

0101101
*
Ed
 1e-07 1 1 0
1  143 0 0 24.3999864227284
2  242 67 0 0 24.3999864227284
2  243 62 0 0 24.3999864227284
0

0101000
+94 0 -92 0 *
Ed
 1e-07 1 1 0
1  144 0 0 8.44614914632905
2  244 67 0 0 8.44614914632905
2  245 62 0 0 8.44614914632905
0

0101000
+92 0 -146 0 *
Ve
1e-07
161.62818641594 64.9667017412851 0
0 0

0101101
*
Ed
 1e-07 1 1 0
1  145 0 0 19.0820406639286
2  246 68 0 0 19.0820406639286
2  247 62 0 0 19.0820406639286
0

0101000
+148 0 -89 0 *
Ve
1e-07
169.448694884763 64.9667017412851 0
0 0

0101101
*
Ed
 1e-07 1 1 0
1  146 0 0 7.82050846882319
2  248 68 0 0 7.82050846882319
2  249 62 0 0 7.82050846882319
0

0101000
+89 0 -87 0 *
Ed
 1e-07 1 1 0
1  147 0 0 9.69743050134076
2  250 69 0 0 9.69743050134076
2  251 62 0 0 9.69743050134076
0

0101000
+87 0 -97 0 *
Wi

0101100
-95 0 -93 0 -91 0 -90 0 -144 0 -88 0 -86 0 -85 0 *
Fa
0  1e-07 62 0

0101000
+84 0 *
Ve
1.00000229583384e-07
258.9153117681 110.32565086046 0
0 0

0101101
*
Ve
1.00000229583384e-07
259.441023726282 110.32565086046 0
0 0

0101101
*
Ed
 1e-07 1 1 0
1  148 0 0 0.525711958182001
2  252 63 0 0 0.525711958182001
0

0101000
+82 0 -81 0 *
Ve
1e-07
277.997352432029 110.32565086046 0
0 0

0101101
*
Ed
 1e-07 1 1 0
1  149 0 0 18.5563287057466
2  253 63 0 0 18.5563287057466
0

0101000
+81 0 -79 0 *
Ve
1e-07
277.997352432029 64.9667017412851 0
0 0

0101101
*
Ed
 1e-07 1 1 0
1  150 0 0 45.3589491191745
2  254 63 0 0 45.3589491191745
0

0101000
+79 0 -77 0 *
Ve
1.00000086441255e-07
259.441023726282 64.9667017412851 0
0 0

0101101
*
Ed
 1e-07 1 1 0
1  151 0 0 18.5563287057466
2  255 63 0 0 18.5563287057466
0

0101000
+77 0 -75 0 *
Ed
 1e-07 1 1 0
1  152 0 0 0.525711958182001
2  256 63 0 0 0.525711958182001
0

0101000
+75 0 -132 0 *
Ed
 1e-07 1 1 0
1  153 0 0 32.8461355690574
2  257 63 0 0 32.8461355690574
0

0101000
+130 0 -82 0 *
Wi

0101100
+80 0 +78 0 +76 0 +74 0 +73 0 +128 0 +72 0 *
Fa
0  1e-07 63 0

0111000
+71 0 *
Ve
1e-07
255.474288041818 143.48460676827 0
0 0

0101101
*
Ve
1e-07
255.474288041818 156.935881334646 0
0 0

0101101
*
Ed
 1e-07 1 1 0
1  154 0 0 13.4512745663759
2  258 70 0 0 13.4512745663759
2  259 64 0 0 13.4512745663759
0

0101000
+69 0 -68 0 *
Ve
1e-07
208.238416890126 156.935881334646 0
0 0

0101101
*
Ed
 1e-07 1 1 0
1  155 0 0 47.2358711516921
2  260 70 0 0 47.2358711516921
2  261 64 0 0 47.2358711516921
0

0101000
+68 0 -66 0 *
Ve
1e-07
208.238416890126 134.099996605682 0
0 0

0101101
*
Ed
 1e-07 1 1 0
1  156 0 0 22.8358847289637
2  262 70 0 0 22.8358847289637
2  263 64 0 0 22.8358847289637
0

0101000
+66 0 -64 0 *
Ed
 1e-07 1 1 0
1  157 0 0 15.9538372763993
2  264 70 0 0 15.9538372763993
2  265 64 0 0 15.9538372763993
0

0101000
+64 0 -125 0 *
Ve
1.00000056843419e-07
255.474288041818 134.099996605682 0
0 0

0101101
*
Ed
 1e-07 1 1 0
1  158 0 0 17.8307593089169
2  266 71 0 0 17.8307593089169
2  267 64 0 0 17.8307593089169
0

0101000
+123 0 -61 0 *
Ed
 1e-07 1 1 0
1  159 0 0 9.38461016258785
2  268 72 0 0 9.38461016258785
2  269 64 0 0 9.38461016258785
0

0101000
+61 0 -69 0 *
Wi

0101100
-67 0 -65 0 -63 0 -62 0 -122 0 -60 0 -59 0 *
Fa
0  1e-07 64 0

0101000
+58 0 *
Ve
1e-07
29.9308238009572 223.566613489019 0
0 0

0101101
*
Ve
1e-07
88.7410474865076 223.566613489019 0
0 0

0101101
*
Ed
 1e-07 1 1 0
1  160 0 0 58.8102236855504
2  270 65 0 0 58.8102236855504
0

0101000
+56 0 -55 0 *
Ve
1e-07
88.6284086148445 216.470364574245 0
0 0

0101101
*
Ed
 1e-07 1 1 0
1  161 0 0 7.09714281777122
2  271 65 0 0 7.09714281777122
0

0101000
+55 0 -53 0 *
Ve
1e-07
88.4365717820115 204.384644105767 0
0 0

0101101
*
Ed
 1e-07 1 1 0
1  162 0 0 12.0872428871364
2  272 65 0 0 12.0872428871364
0

0101000
+53 0 -51 0 *
Ve
1.00000035527137e-07
88.4282271477547 204.384644105767 0
0 0

0101101
*
Ed
 1e-07 1 1 0
1  163 0 0 0.00834463425685783
2  273 65 0 0 0.00834463425685783
0

0101000
+51 0 -49 0 *
Ve
1.00000035527137e-07
88.4282271477547 203.858932147585 0
0 0

0101101
*
Ed
 1e-07 1 1 0
1  164 0 0 0.525711958182001
2  274 65 0 0 0.525711958182001
0

0101000
+49 0 -47 0 *
Ed
 1e-07 1 1 0
1  134 0 0 7.97691863819965
2  229 65 0 0 7.97691863819965
0

0101000
+47 0 -118 0 *
Ve
1.00000007105427e-07
59.0231153049795 203.858932147585 0
0 0

0101101
*
Ed
 1.00000007105427e-07 1 1 0
1  134 0 21.4281932045755 29.4051118427752
2  229 65 0 21.4281932045755 29.4051118427752
0

0101000
+116 0 -44 0 *
Ve
1.00000028477166e-07
29.9308238009572 203.858932147585 0
0 0

0101101
*
Ed
 1e-07 1 1 0
1  165 0 0 29.0922915040223
2  275 65 0 0 29.0922915040223
0

0101000
+44 0 -42 0 *
Ve
1.00000029531072e-07
29.9308238009572 204.384644105767 0
0 0

0101101
*
Ed
 1e-07 1 1 0
1  166 0 0 0.525711958182001
2  276 65 0 0 0.525711958182001
0

0101000
+42 0 -40 0 *
Ed
 1e-07 1 1 0
1  167 0 0 19.1819693832524
2  277 65 0 0 19.1819693832524
0

0101000
+40 0 -56 0 *
Wi

0101100
+54 0 +52 0 +50 0 +48 0 +46 0 +45 0 +114 0 +43 0 +41 0 +39 0 
+38 0 *
Fa
0  1e-07 65 0

0111000
+37 0 *
Ve
1e-07
91.8692508740369 163.81792878721 0
0 0

0101101
*
Ed
 1e-07 1 1 0
1  168 0 0 10.6358915175995
2  278 73 0 0 10.6358915175995
2  279 66 0 0 10.6358915175995
0

0101000
+104 0 -35 0 *
Ve
1e-07
113.766674586742 163.81792878721 0
0 0

0101101
*
Ed
 1e-07 1 1 0
1  169 0 0 21.8974237127049
2  280 73 0 0 21.8974237127049
2  281 66 0 0 21.8974237127049
0

0101000
+35 0 -33 0 *
Ve
1e-07
113.766674586742 200.417908421303 0
0 0

0101101
*
Ed
 1e-07 1 1 0
1  170 0 0 36.5999796340925
2  282 73 0 0 36.5999796340925
2  283 66 0 0 36.5999796340925
0

0101000
+33 0 -31 0 *
Ve
1e-07
101.253861036625 200.417908421303 0
0 0

0101101
*
Ed
 1e-07 1 1 0
1  171 0 0 12.5128135501171
2  284 73 0 0 12.5128135501171
2  285 66 0 0 12.5128135501171
0

0101000
+31 0 -29 0 *
Ve
1.00000042632564e-07
91.8692508740369 200.417908421303 0
0 0

0101101
*
Ed
 1e-07 1 1 0
1  172 0 0 9.38461016258783
2  286 74 0 0 9.38461016258783
2  287 66 0 0 9.38461016258783
0

0101000
+29 0 -27 0 *
Ed
 1e-07 1 1 0
1  173 0 3.96673568446394 17.1051899120872
2  288 75 0 3.96673568446394 17.1051899120872
2  289 66 0 3.96673568446394 17.1051899120872
0

0101000
+27 0 -102 0 *
Wi

0101100
-34 0 -32 0 -30 0 -28 0 -26 0 -25 0 -100 0 *
Fa
0  1e-07 66 0

0101000
+24 0 *
Ve
1e-07
169.448694884763 61.5256780150029 0
0 0

0101101
*
Ed
 1e-07 1 1 0
1  174 0 0 3.4410237262822
2  290 69 0 0 3.4410237262822
0

0101000
+22 0 -87 0 *
Ve
1e-07
179.146125386104 61.5256780150029 0
0 0

0101101
*
Ed
 1e-07 1 1 0
1  175 0 0 3.4410237262822
2  291 69 0 0 3.4410237262822
0

0101000
+97 0 -20 0 *
Ed
 1e-07 1 1 0
1  176 0 0 9.69743050134076
2  292 69 0 0 9.69743050134076
0

0101000
+20 0 -22 0 *
Wi

0101100
+21 0 +85 0 +19 0 +18 0 *
Fa
0  1e-07 69 0

0111000
+17 0 *
Ve
1e-07
258.9153117681 134.099996605682 0
0 0

0101101
*
Ed
 1e-07 1 1 0
1  177 0 0 3.44102372628222
2  293 72 0 0 3.44102372628222
0

0101000
+15 0 -61 0 *
Ve
1e-07
258.9153117681 143.48460676827 0
0 0

0101101
*
Ed
 1e-07 1 1 0
1  178 0 0 3.44102372628222
2  294 72 0 0 3.44102372628222
0

0101000
+69 0 -13 0 *
Ed
 1e-07 1 1 0
1  179 0 0 9.38461016258785
2  295 72 0 0 9.38461016258785
0

0101000
+13 0 -15 0 *
Wi

0101100
+14 0 +59 0 +12 0 +11 0 *
Fa
0  1e-07 72 0

0111000
+10 0 *
Ve
1e-07
91.8692508740369 203.858932147585 0
0 0

0101101
*
Ed
 1e-07 1 1 0
1  180 0 0 3.44102372628222
2  296 74 0 0 3.44102372628222
0

0101000
+27 0 -8 0 *
Ve
1e-07
101.253861036625 203.858932147585 0
0 0

0101101
*
Ed
 1e-07 1 1 0
1  181 0 0 9.38461016258783
2  297 74 0 0 9.38461016258783
0

0101000
+8 0 -6 0 *
Ed
 1e-07 1 1 0
1  182 0 0 3.44102372628222
2  298 74 0 0 3.44102372628222
0

0101000
+6 0 -29 0 *
Wi

0101100
+7 0 +5 0 +4 0 +26 0 *
Fa
0  1e-07 74 0

0111000
+3 0 *
Sh

0101000
+388 0 +381 0 +320 0 +313 0 +306 0 +299 0 +292 0 +285 0 +266 0 +259 0 
+250 0 +237 0 +218 0 +193 0 +186 0 +179 0 +156 0 +149 0 +142 0 +133 0 
+126 0 +119 0 +112 0 +105 0 +98 0 +83 0 +70 0 +57 0 +36 0 +23 0 
+16 0 +9 0 +2 0 *

+1 0 