
CASCADE Topology V3, (c) Open Cascade
Locations 0
Curve2ds 207
1 -0.73394495412844662 0.73394495412843241 0 -1 
1 1.7614678899082605 -6.6055045871559628 0 -1 
1 -0.73394495412844662 -0.73394495412844662 1 0 
1 0.73394495412843241 -0.73394495412844662 0 1 
1 -27.635700832371342 -3.2026247038094908 0 1 
1 0.73394495412843241 0.73394495412843241 -1 0 
1 -27.635700832371342 -1.7347347955526118 -1 0 
1 0.29357798165138149 -8.0733944954128418 1 0 
1 1.7614678899082605 -8.0733944954128418 0 1 
1 -29.103590740628221 -3.2026247038094908 0 1 
1 1.7614678899082605 -8.0733944954128418 0 1 
1 1.7614678899082605 8.0733944954128276 -1 0 
1 -1.7614678899082534 8.0733944954128276 0 -1 
1 84.953734582822619 5.7735537896418236 0 -1 
1 -1.7614678899082534 8.0733944954128276 0 -1 
1 -1.7614678899082534 -8.0733944954128418 1 0 
1 84.953734582822619 -10.373235201183846 1 0 
1 -1.7614678899082534 -8.0733944954128418 1 0 
1 -38.293384838242382 -3.0964751327861109 1 0 
1 -32.626526520444735 12.944164287016179 1 0 
1 24.238725253500743 -3.0964751327861109 0 -1 
1 29.90558357129839 12.944164287016179 0 -1 
1 -1.7614678899082568 6.1651376146789119 0 -1 
1 29.90558357129839 11.182696397107946 0 -1 
1 -1.7614678899082568 6.1651376146789119 0 -1 
1 24.172521430495479 21.817559537956939 0 -1 
1 29.90558357129839 -1.1475788322498488 0 -1 
1 24.172521430495479 19.762513666397297 -1 0 
1 29.90558357129839 -3.2026247038094908 -1 0 
1 15.365181980954194 19.762513666397297 0 -1 
1 21.098244121757105 -3.2026247038094908 0 -1 
1 15.365181980954194 8.6065503636449989 -1 0 
1 21.098244121757105 -14.358588006561789 -1 0 
1 -32.781607009871493 8.6065503636449989 0 1 
1 -27.048544869068586 -14.358588006561789 0 1 
1 -32.781607009871493 19.762513666397297 -1 0 
1 -27.048544869068586 -3.2026247038094908 -1 0 
1 -36.304542789688014 19.762513666397297 0 -1 
1 87.008780454382247 -10.373235201183846 0 -1 
1 -36.304542789688014 8.6065503636449989 -1 0 
1 87.008780454382247 -21.529198503936144 -1 0 
1 7.9266055045871582 1.7614678899082463 -1 0 
1 82.017954766308847 -21.529198503936144 -1 0 
1 42.858823045406922 45.640408596894147 -1 0 
1 66.164743757134545 -21.529198503936144 -1 0 
1 -6.4622778720242877 45.640408596894147 0 -1 
1 16.843642839703335 -21.529198503936144 0 -1 
1 -6.4622778720242877 -6.322894155399446 -1 0 
1 16.843642839703335 -73.49250125622973 -1 0 
1 1.7614678899082605 -9.2477064220183536 0 1 
1 -55.670118628186572 -73.49250125622973 0 1 
1 1.7614678899082605 -9.2477064220183536 0 1 
1 18.919580888207975 -54.319074737398154 0 1 
1 -55.670118628186572 -54.997088412193023 0 1 
1 18.919580888207975 -44.924579324554117 -1 0 
1 -55.670118628186572 -45.602592999348985 -1 0 
1 -32.75014388243423 -44.924579324554117 0 1 
1 -107.33984339882878 -45.602592999348985 0 1 
1 -32.75014388243423 -7.3465976731779676 1 0 
1 -107.33984339882878 -8.0246113479728365 1 0 
1 18.919580888207975 -7.3465976731779676 0 1 
1 -55.670118628186572 -8.0246113479728365 0 1 
1 18.919580888207975 66.04789773966607 1 0 
1 -55.670118628186572 65.369884064871201 1 0 
1 -7.7064220183486327 -1.761467889908289 1 0 
1 -30.789384683232413 65.369884064871172 1 0 
1 -7.7064220183486327 -1.761467889908289 1 0 
1 -29.512497804171772 19.582503640824825 1 0 
1 -15.376540646535148 65.369884064871201 1 0 
1 2.7076856820667103 19.582503640824825 0 -1 
1 16.843642839703335 65.369884064871201 0 -1 
1 2.7076856820667103 -48.234010120643063 1 0 
1 16.843642839703335 -2.4466296965966876 1 0 
1 6.2306214618832314 -48.234010120643063 0 1 
1 20.366578619519856 -2.4466296965966876 0 1 
1 57.357504307593246 -2.446429696596681 -1 0 
1 14.056451188285962 -34.313181922230967 -1 0 
1 -36.406153846153856 -53.033959068454408 0 -1 
1 57.357404307593256 1.0763060832198335 0 -1 
1 -36.406153846153856 -56.556894848270929 1 0 
1 57.357404307593256 -2.4466296965966876 1 0 
1 -23.782300635144679 -56.556894848270929 0 1 
1 69.981257518602433 -2.4466296965966876 0 1 
1 -7.4862385321100788 -1.7614678899082321 1 0 
1 69.981257518602433 5.7735537896418236 1 0 
1 -1.7614678899082568 -6.1651376146788834 1 0 
1 1.7614678899082572 -6.1651376146788834 0 1 
1 1.7614678899082572 6.1651376146789119 -1 0 
1 7.9266055045871582 -1.7614678899082747 0 1 
1 -7.926605504587144 1.7614678899082463 0 -1 
1 -7.926605504587144 -1.7614678899082747 1 0 
1 13.504587155963307 33.761467889908246 1 0 
1 -7.926605504587144 -1.7614678899082747 1 0 
1 -1.7614678899082605 -9.2477064220183536 1 0 
1 1.7614678899082605 9.2477064220183536 -1 0 
1 -1.7614678899082605 9.2477064220183536 0 -1 
1 7.7064220183486327 -1.7614678899082605 0 1 
1 -20.697247706422019 -13.504587155963293 1 0 
1 -17.027522935779842 1.7614678899082605 1 0 
1 -7.7064220183486327 1.7614678899082321 0 -1 
1 6.2306214618832314 -48.234010120643063 0 1 
1 -22.934474499787427 -34.313381922230974 0 1 
1 6.2306214618832314 19.582503640824825 1 0 
1 -22.934474499787427 33.503131839236914 1 0 
1 -17.467889908256893 -1.7614678899082321 1 0 
1 -11.778511197035129 33.503131839236914 1 0 
1 -17.467889908256893 -1.7614678899082321 1 0 
1 -4.2568807339449677 -1.7614678899082321 1 0 
1 1.4324979772767961 33.503131839236914 1 0 
1 -4.2568807339449677 -1.7614678899082321 1 0 
1 3.376146788990809 -1.7614678899082321 1 0 
1 9.0655255002125728 33.503131839236914 1 0 
1 3.376146788990809 -1.7614678899082321 1 0 
1 -27.3052364149612 23.589894142554755 0 -1 
1 23.157268619478629 45.83340706859471 0 -1 
1 -27.3052364149612 -53.033959068454408 -1 0 
1 23.157268619478629 -30.790446142414453 -1 0 
1 -36.406153846153856 -53.033959068454408 0 -1 
1 14.056351188285973 -30.790446142414453 0 -1 
1 7.4862385321101002 -1.7614678899082321 0 1 
1 7.4862385321101002 1.761467889908289 -1 0 
1 -23.779816513761475 -32.146788990825684 -1 0 
1 7.4862385321101002 1.761467889908289 -1 0 
1 -7.4862385321100788 1.761467889908289 0 -1 
1 -41.295368477761414 5.0836145838284779 1 0 
1 29.357798165137609 33.761467889908246 1 0 
1 -38.359588661247642 5.0836145838284779 0 -1 
1 32.293577981651374 33.761467889908246 0 -1 
1 -1.7614678899082605 7.4862385321101073 0 -1 
1 32.293577981651374 18.201834862385311 0 -1 
1 -1.7614678899082605 7.4862385321101073 0 -1 
1 -15.471515352788963 3.1045428757247464 0 -1 
1 32.293577981651374 3.2293577981651254 0 -1 
1 -1.7614678899082605 7.7064220183486185 0 -1 
1 32.293577981651367 -8.7339449541284466 0 -1 
1 -1.7614678899082605 7.7064220183486185 0 -1 
1 61.647813871094989 -15.790784063656318 0 -1 
1 32.293577981651374 -24.146788990825698 0 -1 
1 61.647813871094989 -25.405462962738888 -1 0 
1 32.293577981651374 -33.761467889908268 -1 0 
1 -2.9393420922077667 -25.405462962738888 0 1 
1 -32.293577981651381 -33.761467889908268 0 1 
1 -2.9393420922077667 42.117472817077626 1 0 
1 -32.293577981651381 33.761467889908246 1 0 
1 36.256880733944939 13.504587155963293 -1 0 
1 -36.256880733944968 13.504587155963293 0 -1 
1 -36.256880733944968 -12.917431192660558 0 -1 
1 -36.256880733944968 -13.504587155963293 1 0 
1 13.357798165137609 -13.504587155963293 1 0 
1 36.256880733944939 -13.504587155963293 0 1 
1 36.256880733944939 -12.917431192660558 0 1 
1 17.467889908256865 -1.7614678899082321 0 1 
1 17.467889908256865 1.761467889908289 -1 0 
1 3.376146788990809 1.761467889908289 -1 0 
1 -4.2568807339449677 1.761467889908289 -1 0 
1 -17.467889908256893 1.761467889908289 0 -1 
1 -1.761467889908257 17.467889908256865 0 -1 
1 38.752293577981646 15.119266055045898 0 -1 
1 24.238725253500743 12.756735876388205 0 -1 
1 38.752293577981646 -19.816513761467888 0 -1 
1 24.238725253500743 0.4264606470304102 -1 0 
1 38.752293577981646 -32.146788990825684 -1 0 
1 -23.782300635144679 -56.556894848270929 0 1 
1 -38.752293577981654 -43.889908256880716 0 1 
1 -23.782300635144679 19.479802399435499 1 0 
1 -38.752293577981654 32.146788990825712 1 0 
1 53.722286520818628 19.479802399435499 0 -1 
1 38.752293577981646 32.146788990825712 0 -1 
1 -1.7614678899082605 -7.4862385321100788 1 0 
1 1.7614678899082534 -7.4862385321100788 0 1 
1 -28.843333235630336 -14.6048011255386 0 1 
1 1.7614678899082534 7.4862385321101073 -1 0 
1 -1.7614678899082534 -7.7064220183486327 1 0 
1 1.7614678899082605 -7.7064220183486327 0 1 
1 -13.357798165137616 -7.11926605504582 0 1 
1 1.7614678899082605 7.7064220183486185 -1 0 
1 -1.761467889908257 -17.467889908256922 1 0 
1 1.761467889908257 -17.467889908256922 0 1 
1 1.761467889908257 17.467889908256865 -1 0 
1 5.5779816513761453 1.7614678899082605 -1 0 
1 15.486941993727466 -14.6048011255386 -1 0 
1 5.5779816513761453 1.7614678899082605 -1 0 
1 21.22573235363306 3.1045428757247464 -1 0 
1 4.3309786909751722 -14.6048011255386 -1 0 
1 -34.836652881431135 -10.476018443694457 0 1 
1 -28.843333235630336 0.36767593868158599 0 1 
1 -34.836652881431135 5.0836145838284779 1 0 
1 -28.843333235630336 15.927308966204521 1 0 
1 15.365181980954194 5.0836145838284779 0 -1 
1 21.35850162675499 15.927308966204521 0 -1 
1 15.365181980954194 -8.7145505537861965 1 0 
1 21.35850162675499 2.1291438285898465 1 0 
1 24.172521430495479 -8.7145505537861965 0 -1 
1 30.165841076296275 2.1291438285898465 0 -1 
1 24.172521430495479 -25.448495507914643 -1 0 
1 30.165841076296275 -14.6048011255386 -1 0 
1 13.357798165137616 16.733944954128425 -1 0 
1 -13.357798165137616 16.733944954128425 0 -1 
1 -13.357798165137616 14.972477064220236 0 -1 
1 -13.357798165137616 -7.11926605504582 0 -1 
1 -13.357798165137616 -13.798165137614625 0 -1 
1 -13.357798165137616 -16.73394495412839 1 0 
1 -12.77064220183486 -16.733944954128397 1 0 
1 13.357798165137616 -16.733944954128397 0 1 
1 5.5779816513761453 -1.7614678899082463 0 1 
1 -5.5779816513761489 1.7614678899082605 0 -1 
1 -5.5779816513761489 -1.7614678899082463 1 0 
Curves 119
1 59.596330275229363 128.58715596330276 0 0 -1 0 
1 59.596330275229363 127.11926605504588 0 -1 0 0 
1 58.128440366972484 127.11926605504588 0 0 1 0 
1 58.128440366972484 128.58715596330276 0 1 0 0 
1 61.064220183486242 127.11926605504588 0 -1 0 0 
1 59.596330275229363 127.11926605504588 0 0 1 0 
1 59.596330275229363 143.26605504587155 0 1 0 0 
1 63.119266055045877 143.26605504587155 0 0 -1 0 
1 63.119266055045877 127.11926605504588 0 -1 0 0 
1 63.119266055045877 143.26605504587155 0 -1 0 0 
1 0.58715596330275233 143.26605504587155 0 0 -1 0 
1 0.58715596330275233 141.50458715596332 0 0 -1 0 
1 0.58715596330275233 129.17431192660553 0 0 -1 0 
1 0.58715596330275233 127.11926605504588 0 1 0 0 
1 9.3944954128440372 127.11926605504588 0 0 -1 0 
1 9.3944954128440372 115.96330275229359 0 1 0 0 
1 57.541284403669728 115.96330275229359 0 0 1 0 
1 57.541284403669728 127.11926605504588 0 1 0 0 
1 61.064220183486242 127.11926605504588 0 0 -1 0 
1 61.064220183486242 115.96330275229359 0 1 0 0 
1 66.055045871559642 115.96330275229359 0 1 0 0 
1 81.908256880733944 115.96330275229359 0 1 0 0 
1 131.22935779816515 115.96330275229359 0 0 -1 0 
1 131.22935779816515 63.999999999999993 0 1 0 0 
1 203.74311926605506 64 0 0 1 0 
1 203.74311926605506 82.495412844036707 0 0 1 0 
1 203.74311926605506 91.889908256880744 0 1 0 0 
1 255.41284403669727 91.889908256880744 0 0 1 0 
1 255.41284403669727 129.46788990825689 0 -1 0 0 
1 203.74311926605506 129.46788990825689 0 0 1 0 
1 203.74311926605506 202.86238532110093 0 -1 0 0 
1 178.8623853211009 202.8623853211009 0 -1 0 0 
1 163.44954128440364 202.86238532110093 0 -1 0 0 
1 131.22935779816515 202.86238532110093 0 0 -1 0 
1 131.22935779816515 135.04587155963304 0 -1 0 0 
1 127.70642201834863 135.04587155963304 0 0 1 0 
1 90.715496330275244 135.04607155963305 0 1 0 0 
1 90.715596330275233 138.56880733944956 0 0 -1 0 
1 90.715596330275233 135.04587155963304 0 -1 0 0 
1 78.091743119266056 135.04587155963304 0 0 1 0 
1 78.091743119266056 143.26605504587155 0 -1 0 0 
1 0.58715596330275233 129.17431192660553 0 -1 0 0 
1 -2.9357798165137616 129.17431192660553 0 0 1 0 
1 -2.9357798165137616 141.50458715596332 0 1 0 0 
1 66.055045871559642 112.44036697247707 0 0 1 0 
1 81.908256880733944 115.96330275229359 0 0 -1 0 
1 81.908256880733944 112.44036697247707 0 -1 0 0 
1 207.26605504587158 64 0 -1 0 0 
1 203.74311926605506 82.495412844036707 0 1 0 0 
1 207.26605504587158 82.495412844036707 0 0 -1 0 
1 163.44954128440364 202.86238532110093 0 0 1 0 
1 188.18348623853211 206.38532110091745 0 -1 0 0 
1 178.8623853211009 206.38532110091742 0 0 -1 0 
1 127.70642201834863 135.04587155963304 0 0 1 0 
1 127.70642201834863 202.86238532110093 0 -1 0 0 
1 116.55045871559633 202.86238532110093 0 -1 0 0 
1 103.33944954128441 202.86238532110093 0 -1 0 0 
1 95.706422018348633 202.86238532110093 0 -1 0 0 
1 81.614678899082577 215.19266055045873 0 0 -1 0 
1 81.614678899082577 138.56880733944956 0 1 0 0 
1 90.715596330275233 138.56880733944956 0 0 -1 0 
1 63.119266055045877 143.26605504587155 0 0 1 0 
1 63.119266055045877 146.78899082568807 0 1 0 0 
1 78.091743119266056 146.78899082568807 0 0 -1 0 
1 66.055045871559642 112.44036697247707 0 -1 0 0 
1 63.119266055045877 112.44036697247707 0 0 -1 0 
1 63.119266055045877 96.88073394495413 0 0 -1 0 
1 63.119266055045877 81.908256880733944 0 0 -1 0 
1 63.119266055045884 69.944954128440372 0 0 -1 0 
1 63.119266055045877 54.532110091743121 0 0 -1 0 
1 63.119266055045877 44.917431192660551 0 1 0 0 
1 127.70642201834863 44.917431192660551 0 0 1 0 
1 127.70642201834863 112.44036697247707 0 -1 0 0 
1 131.22935779816515 233.39449541284404 0 1 0 0 
1 203.74311926605506 233.39449541284404 0 0 -1 0 
1 203.74311926605506 206.97247706422019 0 0 -1 0 
1 203.74311926605506 206.38532110091745 0 -1 0 0 
1 154.12844036697248 206.38532110091745 0 -1 0 0 
1 131.22935779816515 206.38532110091745 0 0 1 0 
1 131.22935779816515 206.97247706422019 0 0 1 0 
1 81.614678899082577 202.86238532110093 0 0 1 0 
1 81.614678899082577 206.38532110091745 0 1 0 0 
1 95.706422018348633 206.38532110091745 0 1 0 0 
1 103.33944954128441 206.38532110091745 0 1 0 0 
1 116.55045871559633 206.38532110091745 0 0 -1 0 
1 0.58715596330275233 194.05504587155966 0 0 -1 0 
1 0.58715596330275233 159.11926605504587 0 0 -1 0 
1 0.58715596330275233 146.78899082568807 0 1 0 0 
1 78.091743119266056 135.04587155963304 0 0 1 0 
1 78.091743119266056 211.08256880733947 0 -1 0 0 
1 0.58715596330275233 211.08256880733947 0 0 -1 0 
1 63.119266055045877 81.908256880733944 0 -1 0 0 
1 59.596330275229363 81.908256880733944 0 0 1 0 
1 59.596330275229363 96.88073394495413 0 1 0 0 
1 63.119266055045877 54.532110091743121 0 -1 0 0 
1 59.596330275229363 54.532110091743121 0 0 1 0 
1 59.596330275229363 69.944954128440372 0 1 0 0 
1 0.58715596330275233 159.11926605504587 0 -1 0 0 
1 -2.9357798165137616 159.11926605504587 0 0 1 0 
1 -2.9357798165137616 194.05504587155966 0 1 0 0 
1 15.26605504587156 81.908256880733944 0 1 0 0 
1 26.422018348623855 81.908256880733944 0 1 0 0 
1 59.596330275229363 96.88073394495413 0 0 1 0 
1 59.596330275229363 112.44036697247707 0 -1 0 0 
1 9.3944954128440372 112.44036697247707 0 0 -1 0 
1 9.3944954128440372 98.642201834862391 0 -1 0 0 
1 0.58715596330275233 98.642201834862391 0 0 -1 0 
1 0.58715596330275233 81.908256880733944 0 1 0 0 
1 32.88073394495413 78.385321100917366 0 1 0 0 
1 59.596330275229363 78.385321100917366 0 0 -1 0 
1 59.596330275229363 76.623853211009177 0 0 -1 0 
1 59.596330275229363 54.532110091743121 0 0 -1 0 
1 59.596330275229363 47.853211009174316 0 0 -1 0 
1 59.596330275229363 44.917431192660551 0 -1 0 0 
1 59.009174311926607 44.917431192660544 0 -1 0 0 
1 32.88073394495413 44.917431192660544 0 0 1 0 
1 15.26605504587156 78.385321100917437 0 0 1 0 
1 26.422018348623855 81.908256880733944 0 0 -1 0 
1 26.422018348623855 78.385321100917437 0 -1 0 0 
Polygon3D 0
PolygonOnTriangulations 0
Surfaces 47
1 58.862385321100916 127.85321100917433 0 -0 -0 -1 -1 0 0 0 1 -0 
1 61.357798165137623 135.19266055045873 0 -0 -0 -1 -1 0 0 0 1 -0 
1 30.492739534601142 130.32189075885537 0 -0 -0 -1 -1 0 0 0 1 -0 
1 61.357798165137623 135.19266055045873 0 -0 -0 -1 -1 0 0 0 1 -0 
1 61.357798165137623 135.19266055045873 0 -0 -0 -1 -1 0 0 0 1 -0 
1 148.07300063786849 137.49250125622973 0 -0 -0 -1 -1 0 0 0 1 -0 
1 24.825881216803495 146.36253017865766 0 -0 -0 -1 -1 0 0 0 1 -0 
1 -1.1743119266055044 135.33944954128441 0 -0 -0 -1 -1 0 0 0 1 -0 
1 -1.1743119266055044 135.33944954128441 0 -0 -0 -1 -1 0 0 0 1 -0 
1 24.759677393798231 107.35675238864859 0 -0 -0 -1 -1 0 0 0 1 -0 
1 24.759677393798231 107.35675238864859 0 -0 -0 -1 -1 0 0 0 1 -0 
1 73.9816513761468 114.20183486238534 0 -0 -0 -1 -1 0 0 0 1 -0 
1 124.76707992614087 70.322894155399439 0 -0 -0 -1 -1 0 0 0 1 -0 
1 205.50458715596332 73.247706422018354 0 -0 -0 -1 -1 0 0 0 1 -0 
1 205.50458715596332 73.247706422018354 0 -0 -0 -1 -1 0 0 0 1 -0 
1 222.66270015426304 136.81448758143486 0 -0 -0 -1 -1 0 0 0 1 -0 
1 171.15596330275227 204.62385321100919 0 -0 -0 -1 -1 0 0 0 1 -0 
1 171.15596330275227 204.62385321100919 0 -0 -0 -1 -1 0 0 0 1 -0 
1 133.93704348023186 183.27988168027611 0 -0 -0 -1 -1 0 0 0 1 -0 
1 104.77194751856121 169.35925348186402 0 -0 -0 -1 -1 0 0 0 1 -0 
1 54.309442484121377 191.60276640790397 0 -0 -0 -1 -1 0 0 0 1 -0 
1 70.605504587155977 145.02752293577979 0 -0 -0 -1 -1 0 0 0 1 -0 
1 73.9816513761468 114.20183486238534 0 -0 -0 -1 -1 0 0 0 1 -0 
1 95.412844036697251 78.678899082568819 0 -0 -0 -1 -1 0 0 0 1 -0 
1 167.48623853211009 219.88990825688074 0 -0 -0 -1 -1 0 0 0 1 -0 
1 133.93704348023186 183.27988168027611 0 -0 -0 -1 -1 0 0 0 1 -0 
1 99.082568807339442 204.62385321100916 0 -0 -0 -1 -1 0 0 0 1 -0 
1 99.082568807339442 204.62385321100916 0 -0 -0 -1 -1 0 0 0 1 -0 
1 54.309442484121377 191.60276640790397 0 -0 -0 -1 -1 0 0 0 1 -0 
1 70.605504587155977 145.02752293577979 0 -0 -0 -1 -1 0 0 0 1 -0 
1 39.339449541284402 178.93577981651376 0 -0 -0 -1 -1 0 0 0 1 -0 
1 24.759677393798231 107.35675238864859 0 -0 -0 -1 -1 0 0 0 1 -0 
1 61.357798165137616 89.394495412844023 0 -0 -0 -1 -1 0 0 0 1 -0 
1 61.357798165137616 89.394495412844023 0 -0 -0 -1 -1 0 0 0 1 -0 
1 47.647750702256914 78.803714005009198 0 -0 -0 -1 -1 0 0 0 1 -0 
1 61.357798165137623 62.238532110091754 0 -0 -0 -1 -1 0 0 0 1 -0 
1 61.357798165137623 62.238532110091754 0 -0 -0 -1 -1 0 0 0 1 -0 
1 124.76707992614087 70.322894155399439 0 -0 -0 -1 -1 0 0 0 1 -0 
1 -1.1743119266055047 176.58715596330279 0 -0 -0 -1 -1 0 0 0 1 -0 
1 24.825881216803495 146.36253017865766 0 -0 -0 -1 -1 0 0 0 1 -0 
1 54.309442484121377 191.60276640790397 0 -0 -0 -1 -1 0 0 0 1 -0 
1 30.752997039599027 96.513058006272544 0 -0 -0 -1 -1 0 0 0 1 -0 
1 46.238532110091747 61.651376146788941 0 -0 -0 -1 -1 0 0 0 1 -0 
1 20.844036697247706 80.146788990825684 0 -0 -0 -1 -1 0 0 0 1 -0 
1 20.844036697247706 80.146788990825684 0 -0 -0 -1 -1 0 0 0 1 -0 
1 47.647750702256914 78.803714005009198 0 -0 -0 -1 -1 0 0 0 1 -0 
1 24.759677393798231 107.35675238864859 0 -0 -0 -1 -1 0 0 0 1 -0 
Triangulations 0

TShapes 264
Ve
1.00000227373675e-07
59.5963302752294 128.587155963303 0
0 0

0101101
*
Ve
1e-07
59.5963302752294 127.119266055046 0
0 0

0101101
*
Ed
 1e-07 1 1 0
1  1 0 0 1.46788990825688
2  1 1 0 0 1.46788990825688
2  2 2 0 0 1.46788990825688
0

0101000
+264 0 -263 0 *
Ve
1.00000113686838e-07
58.1284403669725 127.119266055046 0
0 0

0101101
*
Ed
 1e-07 1 1 0
1  2 0 0 1.46788990825688
2  3 1 0 0 1.46788990825688
0

0101000
+263 0 -261 0 *
Ve
1.00000113908666e-07
58.1284403669725 128.587155963303 0
0 0

0101101
*
Ed
 1e-07 1 1 0
1  3 0 0 1.46788990825688
2  4 1 0 0 1.46788990825688
2  5 3 0 0 1.46788990825688
0

0101000
+261 0 -259 0 *
Ed
 1e-07 1 1 0
1  4 0 0 1.46788990825688
2  6 1 0 0 1.46788990825688
2  7 3 0 0 1.46788990825688
0

0101000
+259 0 -264 0 *
Wi

0101100
+262 0 +260 0 +258 0 +257 0 *
Fa
0  1e-07 1 0

0111000
+256 0 *
Ve
1e-07
61.0642201834862 127.119266055046 0
0 0

0101101
*
Ed
 1e-07 1 1 0
1  5 0 0 1.46788990825688
2  8 2 0 0 1.46788990825688
0

0101000
+254 0 -263 0 *
Ve
1.00000454747351e-07
59.5963302752294 143.266055045872 0
0 0

0101101
*
Ed
 1e-07 1 1 0
1  6 0 1.46788990825711 16.1467889908257
2  9 4 0 1.46788990825711 16.1467889908257
2  10 3 0 1.46788990825711 16.1467889908257
2  11 2 0 1.46788990825711 16.1467889908257
0

0101000
+264 0 -252 0 *
Ve
1e-07
63.1192660550459 143.266055045872 0
0 0

0101101
*
Ed
 1e-07 1 1 0
1  7 0 0 3.52293577981651
2  12 2 0 0 3.52293577981651
0

0101000
+252 0 -250 0 *
Ve
1e-07
63.1192660550459 127.119266055046 0
0 0

0101101
*
Ed
 1e-07 1 1 0
1  8 0 0 16.1467889908257
2  13 5 0 0 16.1467889908257
2  14 6 0 0 16.1467889908257
2  15 2 0 0 16.1467889908257
0

0101000
+250 0 -248 0 *
Ed
 1e-07 1 1 0
1  9 0 0 2.05504587155963
2  16 5 0 0 2.05504587155963
2  17 6 0 0 2.05504587155963
2  18 2 0 0 2.05504587155963
0

0101000
+248 0 -254 0 *
Wi

0101100
+253 0 -262 0 +251 0 +249 0 +247 0 +246 0 *
Fa
0  1e-07 2 0

0111000
+245 0 *
Ve
1e-07
0.587155963302752 143.266055045872 0
0 0

0101101
*
Ed
 1e-07 1 1 0
1  10 0 3.52293577981648 62.5321100917431
2  19 7 0 3.52293577981648 62.5321100917431
2  20 3 0 3.52293577981648 62.5321100917431
0

0101000
+252 0 -243 0 *
Ve
1.00000000222045e-07
0.587155963302752 141.504587155963 0
0 0

0101101
*
Ed
 1e-07 1 1 0
1  11 0 0 1.76146788990823
2  21 7 0 0 1.76146788990823
2  22 3 0 0 1.76146788990823
0

0101000
+243 0 -241 0 *
Ve
1e-07
0.587155963302752 129.174311926606 0
0 0

0101101
*
Ed
 1e-07 1 1 0
1  12 0 0 12.3302752293578
2  23 8 0 0 12.3302752293578
2  24 3 0 0 12.3302752293578
2  25 9 0 0 12.3302752293578
0

0101000
+241 0 -239 0 *
Ve
1e-07
0.587155963302752 127.119266055046 0
0 0

0101101
*
Ed
 1e-07 1 1 0
1  13 0 0 2.05504587155964
2  26 10 0 0 2.05504587155964
2  27 3 0 0 2.05504587155964
0

0101000
+239 0 -237 0 *
Ve
1e-07
9.39449541284404 127.119266055046 0
0 0

0101101
*
Ed
 1e-07 1 1 0
1  14 0 0 8.80733944954128
2  28 10 0 0 8.80733944954128
2  29 3 0 0 8.80733944954128
0

0101000
+237 0 -235 0 *
Ve
1e-07
9.39449541284404 115.963302752294 0
0 0

0101101
*
Ed
 1e-07 1 1 0
1  15 0 0 11.1559633027523
2  30 10 0 0 11.1559633027523
2  31 3 0 0 11.1559633027523
0

0101000
+235 0 -233 0 *
Ve
1e-07
57.5412844036697 115.963302752294 0
0 0

0101101
*
Ed
 1e-07 1 1 0
1  16 0 0 48.1467889908257
2  32 10 0 0 48.1467889908257
2  33 3 0 0 48.1467889908257
0

0101000
+233 0 -231 0 *
Ve
1e-07
57.5412844036697 127.119266055046 0
0 0

0101101
*
Ed
 1e-07 1 1 0
1  17 0 0 11.1559633027523
2  34 10 0 0 11.1559633027523
2  35 3 0 0 11.1559633027523
0

0101000
+231 0 -229 0 *
Ed
 1e-07 1 1 0
1  18 0 0 0.58715596330277
2  36 10 0 0 0.58715596330277
2  37 3 0 0 0.58715596330277
0

0101000
+229 0 -261 0 *
Wi

0101100
-257 0 -251 0 -242 0 -240 0 -238 0 -236 0 -234 0 -232 0 -230 0 -228 0 
-227 0 -258 0 *
Fa
0  1e-07 3 0

0101000
+226 0 *
Ve
1e-07
61.0642201834862 115.963302752294 0
0 0

0101101
*
Ed
 1e-07 1 1 0
1  19 0 0 11.1559633027523
2  38 11 0 0 11.1559633027523
2  39 6 0 0 11.1559633027523
0

0101000
+254 0 -224 0 *
Ve
1e-07
66.0550458715596 115.963302752294 0
0 0

0101101
*
Ed
 1e-07 1 1 0
1  20 0 0 4.9908256880734
2  40 11 0 0 4.9908256880734
2  41 6 0 0 4.9908256880734
0

0101000
+224 0 -222 0 *
Ve
1e-07
81.9082568807339 115.963302752294 0
0 0

0101101
*
Ed
 1e-07 1 1 0
1  21 0 0 15.8532110091743
2  42 12 0 0 15.8532110091743
2  43 6 0 0 15.8532110091743
0

0101000
+222 0 -220 0 *
Ve
1e-07
131.229357798165 115.963302752294 0
0 0

0101101
*
Ed
 1e-07 1 1 0
1  22 0 0 49.3211009174312
2  44 13 0 0 49.3211009174312
2  45 6 0 0 49.3211009174312
0

0101000
+220 0 -218 0 *
Ve
1e-07
131.229357798165 64 0
0 0

0101101
*
Ed
 1e-07 1 1 0
1  23 0 0 51.9633027522936
2  46 13 0 0 51.9633027522936
2  47 6 0 0 51.9633027522936
0

0101000
+218 0 -216 0 *
Ve
1.00000007105427e-07
203.743119266055 64 0
0 0

0101101
*
Ed
 1e-07 1 1 0
1  24 0 0 72.5137614678899
2  48 13 0 0 72.5137614678899
2  49 6 0 0 72.5137614678899
0

0101000
+216 0 -214 0 *
Ve
1e-07
203.743119266055 82.4954128440367 0
0 0

0101101
*
Ed
 1e-07 1 1 0
1  25 0 0 18.4954128440367
2  50 14 0 0 18.4954128440367
2  51 6 0 0 18.4954128440367
2  52 15 0 0 18.4954128440367
0

0101000
+214 0 -212 0 *
Ve
1e-07
203.743119266055 91.8899082568807 0
0 0

0101101
*
Ed
 1e-07 1 1 0
1  26 0 0 9.39449541284404
2  53 16 0 0 9.39449541284404
2  54 6 0 0 9.39449541284404
0

0101000
+212 0 -210 0 *
Ve
1e-07
255.412844036697 91.8899082568807 0
0 0

0101101
*
Ed
 1e-07 1 1 0
1  27 0 0 51.6697247706422
2  55 16 0 0 51.6697247706422
2  56 6 0 0 51.6697247706422
0

0101000
+210 0 -208 0 *
Ve
1e-07
255.412844036697 129.467889908257 0
0 0

0101101
*
Ed
 1e-07 1 1 0
1  28 0 0 37.5779816513761
2  57 16 0 0 37.5779816513761
2  58 6 0 0 37.5779816513761
0

0101000
+208 0 -206 0 *
Ve
1e-07
203.743119266055 129.467889908257 0
0 0

0101101
*
Ed
 1e-07 1 1 0
1  29 0 0 51.6697247706422
2  59 16 0 0 51.6697247706422
2  60 6 0 0 51.6697247706422
0

0101000
+206 0 -204 0 *
Ve
1e-07
203.743119266055 202.862385321101 0
0 0

0101101
*
Ed
 1e-07 1 1 0
1  30 0 0 73.394495412844
2  61 16 0 0 73.394495412844
2  62 6 0 0 73.394495412844
0

0101000
+204 0 -202 0 *
Ve
1.00000014210855e-07
178.862385321101 202.862385321101 0
0 0

0101101
*
Ed
 1e-07 1 1 0
1  31 0 0 24.8807339449542
2  63 16 0 0 24.8807339449542
2  64 6 0 0 24.8807339449542
0

0101000
+202 0 -200 0 *
Ve
1.00000014210855e-07
163.449541284404 202.862385321101 0
0 0

0101101
*
Ed
 1e-07 1 1 0
1  32 0 0 15.4128440366973
2  65 17 0 0 15.4128440366973
2  66 6 0 0 15.4128440366973
2  67 18 0 0 15.4128440366973
0

0101000
+200 0 -198 0 *
Ve
1e-07
131.229357798165 202.862385321101 0
0 0

0101101
*
Ed
 1e-07 1 1 0
1  33 0 0 32.2201834862385
2  68 19 0 0 32.2201834862385
2  69 6 0 0 32.2201834862385
0

0101000
+198 0 -196 0 *
Ve
1e-07
131.229357798165 135.045871559633 0
0 0

0101101
*
Ed
 1e-07 1 1 0
1  34 0 0 67.8165137614679
2  70 19 0 0 67.8165137614679
2  71 6 0 0 67.8165137614679
0

0101000
+196 0 -194 0 *
Ve
1e-07
127.706422018349 135.045871559633 0
0 0

0101101
*
Ed
 1e-07 1 1 0
1  35 0 0 3.52293577981652
2  72 19 0 0 3.52293577981652
2  73 6 0 0 3.52293577981652
0

0101000
+194 0 -192 0 *
Ve
1e-07
127.706422018349 135.046071559633 0
0 0

0101101
*
Ed
 1e-07 1 1 0
1  36 0 0 0.000200000000006639
2  74 19 0 0 0.000200000000006639
2  75 6 0 0 0.000200000000006639
0

0101000
+192 0 -190 0 *
Ve
1e-07
90.7155963302752 135.046071559633 0
0 0

0101101
*
Ed
 1e-07 1 1 0
1  37 0 9.99999999891088e-05 36.9909256880734
2  76 6 0 9.99999999891088e-05 36.9909256880734
2  77 20 0 9.99999999891088e-05 36.9909256880734
0

0101000
+188 0 -190 0 *
Ve
1e-07
90.7155963302752 135.045871559633 0
0 0

0101101
*
Ed
 1e-07 1 1 0
1  38 0 3.52273577981651 3.52293577981652
2  78 21 0 3.52273577981651 3.52293577981652
2  79 6 0 3.52273577981651 3.52293577981652
0

0101000
+188 0 -186 0 *
Ve
1e-07
78.0917431192661 135.045871559633 0
0 0

0101101
*
Ed
 1e-07 1 1 0
1  39 0 0 12.6238532110092
2  80 21 0 0 12.6238532110092
2  81 6 0 0 12.6238532110092
0

0101000
+186 0 -184 0 *
Ve
1.00000042632564e-07
78.0917431192661 143.266055045872 0
0 0

0101101
*
Ed
 1e-07 1 1 0
1  40 0 0 8.22018348623897
2  82 21 0 0 8.22018348623897
2  83 6 0 0 8.22018348623897
0

0101000
+184 0 -182 0 *
Ed
 1e-07 1 1 0
1  41 0 0 14.9724770642202
2  84 22 0 0 14.9724770642202
2  85 6 0 0 14.9724770642202
0

0101000
+182 0 -250 0 *
Wi

0101100
-223 0 -221 0 -219 0 -217 0 -215 0 -213 0 -211 0 -209 0 -207 0 -205 0 
-203 0 -201 0 -199 0 -197 0 -195 0 -193 0 -191 0 -189 0 +187 0 -185 0 
-183 0 -181 0 -180 0 -247 0 -246 0 *
Fa
0  1e-07 6 0

0101000
+179 0 *
Ve
1e-07
-2.93577981651376 129.174311926606 0
0 0

0101101
*
Ed
 1e-07 1 1 0
1  42 0 0 3.52293577981651
2  86 9 0 0 3.52293577981651
0

0101000
+239 0 -177 0 *
Ve
1e-07
-2.93577981651376 141.504587155963 0
0 0

0101101
*
Ed
 1e-07 1 1 0
1  43 0 0 12.3302752293578
2  87 9 0 0 12.3302752293578
0

0101000
+177 0 -175 0 *
Ed
 1e-07 1 1 0
1  44 0 0 3.52293577981651
2  88 9 0 0 3.52293577981651
0

0101000
+175 0 -241 0 *
Wi

0101100
+176 0 +174 0 +173 0 +238 0 *
Fa
0  1e-07 9 0

0111000
+172 0 *
Ve
1e-07
66.0550458715596 112.440366972477 0
0 0

0101101
*
Ed
 1e-07 1 1 0
1  45 0 0 3.52293577981652
2  89 12 0 0 3.52293577981652
0

0101000
+170 0 -222 0 *
Ve
1e-07
81.9082568807339 112.440366972477 0
0 0

0101101
*
Ed
 1e-07 1 1 0
1  46 0 0 3.52293577981652
2  90 12 0 0 3.52293577981652
0

0101000
+220 0 -168 0 *
Ed
 1e-07 1 1 0
1  47 0 0 15.8532110091743
2  91 23 0 0 15.8532110091743
2  92 24 0 0 15.8532110091743
2  93 12 0 0 15.8532110091743
0

0101000
+168 0 -170 0 *
Wi

0101100
+169 0 +219 0 +167 0 +166 0 *
Fa
0  1e-07 12 0

0111000
+165 0 *
Ve
1e-07
207.266055045872 64 0
0 0

0101101
*
Ed
 1e-07 1 1 0
1  48 0 0 3.52293577981652
2  94 15 0 0 3.52293577981652
0

0101000
+163 0 -214 0 *
Ve
1e-07
207.266055045872 82.4954128440367 0
0 0

0101101
*
Ed
 1e-07 1 1 0
1  49 0 0 3.52293577981652
2  95 15 0 0 3.52293577981652
0

0101000
+212 0 -161 0 *
Ed
 1e-07 1 1 0
1  50 0 0 18.4954128440367
2  96 15 0 0 18.4954128440367
0

0101000
+161 0 -163 0 *
Wi

0101100
+162 0 +211 0 +160 0 +159 0 *
Fa
0  1e-07 15 0

0111000
+158 0 *
Ve
1.0000048316906e-07
163.449541284404 206.385321100917 0
0 0

0101101
*
Ed
 1e-07 1 1 0
1  51 0 0 3.52293577981649
2  97 18 0 0 3.52293577981649
0

0101000
+198 0 -156 0 *
Ve
1.0000048316906e-07
178.862385321101 206.385321100917 0
0 0

0101101
*
Ed
 1.00000028421709e-07 1 1 0
1  52 0 9.32110091743112 24.7339449541281
2  98 25 0 9.32110091743112 24.7339449541281
2  99 18 0 9.32110091743112 24.7339449541281
0

0101000
+154 0 -156 0 *
Ed
 1e-07 1 1 0
1  53 0 0 3.52293577981649
2  100 18 0 0 3.52293577981649
0

0101000
+154 0 -200 0 *
Wi

0101100
+197 0 +155 0 -153 0 +152 0 *
Fa
0  1e-07 18 0

0111000
+151 0 *
Ve
1e-07
127.706422018349 202.862385321101 0
0 0

0101101
*
Ed
 1e-07 1 1 0
1  54 0 0.000200000000006639 67.8165137614679
2  101 26 0 0.000200000000006639 67.8165137614679
2  102 20 0 0.000200000000006639 67.8165137614679
0

0101000
+190 0 -149 0 *
Ve
1e-07
116.550458715596 202.862385321101 0
0 0

0101101
*
Ed
 1e-07 1 1 0
1  55 0 0 11.1559633027523
2  103 26 0 0 11.1559633027523
2  104 20 0 0 11.1559633027523
0

0101000
+149 0 -147 0 *
Ve
1e-07
103.339449541284 202.862385321101 0
0 0

0101101
*
Ed
 1e-07 1 1 0
1  56 0 0 13.2110091743119
2  105 27 0 0 13.2110091743119
2  106 20 0 0 13.2110091743119
2  107 28 0 0 13.2110091743119
0

0101000
+147 0 -145 0 *
Ve
1e-07
95.7064220183486 202.862385321101 0
0 0

0101101
*
Ed
 1e-07 1 1 0
1  57 0 0 7.63302752293578
2  108 27 0 0 7.63302752293578
2  109 20 0 0 7.63302752293578
2  110 28 0 0 7.63302752293578
0

0101000
+145 0 -143 0 *
Ve
1.00000028421709e-07
81.6146788990826 202.862385321101 0
0 0

0101101
*
Ed
 1e-07 1 1 0
1  58 0 0 14.0917431192661
2  111 27 0 0 14.0917431192661
2  112 20 0 0 14.0917431192661
2  113 28 0 0 14.0917431192661
0

0101000
+143 0 -141 0 *
Ve
1e-07
81.6146788990826 138.56880733945 0
0 0

0101101
*
Ed
 1e-07 1 1 0
1  59 0 12.3302752293577 76.6238532110092
2  114 29 0 12.3302752293577 76.6238532110092
2  115 20 0 12.3302752293577 76.6238532110092
0

0101000
+141 0 -139 0 *
Ve
1e-07
90.7155963302752 138.56880733945 0
0 0

0101101
*
Ed
 1e-07 1 1 0
1  60 0 0 9.10091743119266
2  116 29 0 0 9.10091743119266
2  117 20 0 0 9.10091743119266
0

0101000
+139 0 -137 0 *
Ed
 1e-07 1 1 0
1  61 0 0 3.52273577981651
2  118 29 0 0 3.52273577981651
2  119 20 0 0 3.52273577981651
0

0101000
+137 0 -188 0 *
Wi

0101100
-187 0 -148 0 -146 0 -144 0 -142 0 -140 0 -138 0 -136 0 -135 0 *
Fa
0  1e-07 20 0

0101000
+134 0 *
Ve
1e-07
63.1192660550459 146.788990825688 0
0 0

0101101
*
Ed
 1e-07 1 1 0
1  62 0 0 3.52293577981652
2  120 22 0 0 3.52293577981652
0

0101000
+250 0 -132 0 *
Ve
1.00000042632564e-07
78.0917431192661 146.788990825688 0
0 0

0101101
*
Ed
 1e-07 1 1 0
1  63 0 0 14.9724770642202
2  121 30 0 0 14.9724770642202
2  122 31 0 0 14.9724770642202
2  123 22 0 0 14.9724770642202
0

0101000
+132 0 -130 0 *
Ed
 1e-07 1 1 0
1  64 0 0 3.52293577981652
2  124 22 0 0 3.52293577981652
0

0101000
+130 0 -182 0 *
Wi

0101100
+131 0 +129 0 +128 0 +180 0 *
Fa
0  1e-07 22 0

0111000
+127 0 *
Ve
1e-07
63.1192660550459 112.440366972477 0
0 0

0101101
*
Ed
 1e-07 1 1 0
1  65 0 0 2.93577981651377
2  125 32 0 0 2.93577981651377
2  126 24 0 0 2.93577981651377
0

0101000
+170 0 -125 0 *
Ve
1e-07
63.1192660550459 96.8807339449541 0
0 0

0101101
*
Ed
 1e-07 1 1 0
1  66 0 0 15.5596330275229
2  127 32 0 0 15.5596330275229
2  128 24 0 0 15.5596330275229
0

0101000
+125 0 -123 0 *
Ve
1e-07
63.1192660550459 81.9082568807339 0
0 0

0101101
*
Ed
 1e-07 1 1 0
1  67 0 0 14.9724770642202
2  129 33 0 0 14.9724770642202
2  130 24 0 0 14.9724770642202
2  131 34 0 0 14.9724770642202
0

0101000
+123 0 -121 0 *
Ve
1.00000003552714e-07
63.1192660550459 69.9449541284404 0
0 0

0101101
*
Ed
 1e-07 1 1 0
1  68 0 0 11.9633027522936
2  132 35 0 0 11.9633027522936
2  133 24 0 0 11.9633027522936
0

0101000
+121 0 -119 0 *
Ve
1.00000003552714e-07
63.1192660550459 54.5321100917431 0
0 0

0101101
*
Ed
 1e-07 1 1 0
1  69 0 0 15.4128440366973
2  134 36 0 0 15.4128440366973
2  135 24 0 0 15.4128440366973
2  136 37 0 0 15.4128440366973
0

0101000
+119 0 -117 0 *
Ve
1e-07
63.1192660550459 44.9174311926606 0
0 0

0101101
*
Ed
 1e-07 1 1 0
1  70 0 0 9.61467889908257
2  137 38 0 0 9.61467889908257
2  138 24 0 0 9.61467889908257
0

0101000
+117 0 -115 0 *
Ve
1e-07
127.706422018349 44.9174311926606 0
0 0

0101101
*
Ed
 1e-07 1 1 0
1  71 0 0 64.5871559633028
2  139 38 0 0 64.5871559633028
2  140 24 0 0 64.5871559633028
0

0101000
+115 0 -113 0 *
Ve
1e-07
127.706422018349 112.440366972477 0
0 0

0101101
*
Ed
 1e-07 1 1 0
1  72 0 0 67.5229357798165
2  141 38 0 0 67.5229357798165
2  142 24 0 0 67.5229357798165
0

0101000
+113 0 -111 0 *
Ed
 1e-07 1 1 0
1  73 0 0 45.7981651376147
2  143 38 0 0 45.7981651376147
2  144 24 0 0 45.7981651376147
0

0101000
+111 0 -168 0 *
Wi

0101100
-124 0 -122 0 -120 0 -118 0 -116 0 -114 0 -112 0 -110 0 -109 0 -166 0 
*
Fa
0  1e-07 24 0

0101000
+108 0 *
Ve
1e-07
131.229357798165 233.394495412844 0
0 0

0101101
*
Ve
1e-07
203.743119266055 233.394495412844 0
0 0

0101101
*
Ed
 1e-07 1 1 0
1  74 0 0 72.5137614678899
2  145 25 0 0 72.5137614678899
0

0101000
+106 0 -105 0 *
Ve
1.00000103456584e-07
203.743119266055 206.97247706422 0
0 0

0101101
*
Ed
 1e-07 1 1 0
1  75 0 0 26.4220183486239
2  146 25 0 0 26.4220183486239
0

0101000
+105 0 -103 0 *
Ve
1.00000229143147e-07
203.743119266055 206.385321100917 0
0 0

0101101
*
Ed
 1e-07 1 1 0
1  76 0 0 0.587155963302735
2  147 25 0 0 0.587155963302735
0

0101000
+103 0 -101 0 *
Ve
1e-07
188.183486238532 206.385321100917 0
0 0

0101101
*
Ed
 1e-07 1 1 0
1  77 0 0 15.5596330275229
2  148 25 0 0 15.5596330275229
0

0101000
+101 0 -99 0 *
Ed
 1e-07 1 1 0
1  52 0 0 9.32110091743112
2  98 25 0 0 9.32110091743112
0

0101000
+99 0 -154 0 *
Ve
1e-07
154.128440366972 206.385321100917 0
0 0

0101101
*
Ed
 1e-07 1 1 0
1  52 0 24.7339449541281 34.0550458715596
2  98 25 0 24.7339449541281 34.0550458715596
0

0101000
+156 0 -96 0 *
Ve
1.00000238217334e-07
131.229357798165 206.385321100917 0
0 0

0101101
*
Ed
 1e-07 1 1 0
1  78 0 0 22.8990825688073
2  149 25 0 0 22.8990825688073
0

0101000
+96 0 -94 0 *
Ve
1.00000122246395e-07
131.229357798165 206.97247706422 0
0 0

0101101
*
Ed
 1e-07 1 1 0
1  79 0 0 0.587155963302735
2  150 25 0 0 0.587155963302735
0

0101000
+94 0 -92 0 *
Ed
 1e-07 1 1 0
1  80 0 0 26.4220183486239
2  151 25 0 0 26.4220183486239
0

0101000
+92 0 -106 0 *
Wi

0101100
+104 0 +102 0 +100 0 +98 0 +97 0 +153 0 +95 0 +93 0 +91 0 +90 0 
*
Fa
0  1e-07 25 0

0111000
+89 0 *
Ve
1e-07
81.6146788990826 206.385321100917 0
0 0

0101101
*
Ed
 1e-07 1 1 0
1  81 0 0 3.52293577981652
2  152 28 0 0 3.52293577981652
0

0101000
+141 0 -87 0 *
Ve
1e-07
95.7064220183486 206.385321100917 0
0 0

0101101
*
Ed
 1e-07 1 1 0
1  82 0 0 14.0917431192661
2  153 28 0 0 14.0917431192661
0

0101000
+87 0 -85 0 *
Ve
1e-07
103.339449541284 206.385321100917 0
0 0

0101101
*
Ed
 1e-07 1 1 0
1  83 0 0 7.63302752293578
2  154 28 0 0 7.63302752293578
0

0101000
+85 0 -83 0 *
Ve
1e-07
116.550458715596 206.385321100917 0
0 0

0101101
*
Ed
 1e-07 1 1 0
1  84 0 0 13.2110091743119
2  155 28 0 0 13.2110091743119
0

0101000
+83 0 -81 0 *
Ed
 1e-07 1 1 0
1  85 0 0 3.52293577981652
2  156 28 0 0 3.52293577981652
0

0101000
+81 0 -147 0 *
Wi

0101100
+142 0 +140 0 +86 0 +84 0 +82 0 +80 0 +79 0 +144 0 *
Fa
0  1e-07 28 0

0111000
+78 0 *
Ve
1.00000000222045e-07
0.587155963302752 194.05504587156 0
0 0

0101101
*
Ve
1e-07
0.587155963302752 159.119266055046 0
0 0

0101101
*
Ed
 1e-07 1 1 0
1  86 0 0 34.9357798165138
2  157 39 0 0 34.9357798165138
2  158 31 0 0 34.9357798165138
0

0101000
+76 0 -75 0 *
Ve
1e-07
0.587155963302752 146.788990825688 0
0 0

0101101
*
Ed
 1e-07 1 1 0
1  87 0 0 12.3302752293578
2  159 40 0 0 12.3302752293578
2  160 31 0 0 12.3302752293578
0

0101000
+75 0 -73 0 *
Ed
 1e-07 1 1 0
1  88 0 0 62.5321100917431
2  161 40 0 0 62.5321100917431
2  162 31 0 0 62.5321100917431
0

0101000
+73 0 -132 0 *
Ve
1e-07
78.0917431192661 211.082568807339 0
0 0

0101101
*
Ed
 1e-07 1 1 0
1  89 0 11.7431192660549 76.0366972477064
2  163 41 0 11.7431192660549 76.0366972477064
2  164 31 0 11.7431192660549 76.0366972477064
0

0101000
+130 0 -70 0 *
Ve
1e-07
0.587155963302752 211.082568807339 0
0 0

0101101
*
Ed
 1e-07 1 1 0
1  90 0 0 77.5045871559633
2  165 41 0 0 77.5045871559633
2  166 31 0 0 77.5045871559633
0

0101000
+70 0 -68 0 *
Ed
 1e-07 1 1 0
1  91 0 0 17.0275229357798
2  167 41 0 0 17.0275229357798
2  168 31 0 0 17.0275229357798
0

0101000
+68 0 -76 0 *
Wi

0101100
-74 0 -72 0 -71 0 -129 0 -69 0 -67 0 -66 0 *
Fa
0  1e-07 31 0

0101000
+65 0 *
Ve
1.00000043220627e-07
59.5963302752294 81.9082568807339 0
0 0

0101101
*
Ed
 1e-07 1 1 0
1  92 0 0 3.52293577981651
2  169 34 0 0 3.52293577981651
0

0101000
+121 0 -63 0 *
Ve
1e-07
59.5963302752294 96.8807339449541 0
0 0

0101101
*
Ed
 1e-07 1 1 0
1  93 0 0 14.9724770642202
2  170 34 0 0 14.9724770642202
2  171 42 0 0 14.9724770642202
0

0101000
+63 0 -61 0 *
Ed
 1e-07 1 1 0
1  94 0 0 3.52293577981651
2  172 34 0 0 3.52293577981651
0

0101000
+61 0 -123 0 *
Wi

0101100
+62 0 +60 0 +59 0 +120 0 *
Fa
0  1e-07 34 0

0111000
+58 0 *
Ve
1.00000025618983e-07
59.5963302752294 54.5321100917431 0
0 0

0101101
*
Ed
 1e-07 1 1 0
1  95 0 0 3.52293577981651
2  173 37 0 0 3.52293577981651
0

0101000
+117 0 -56 0 *
Ve
1.00000025618983e-07
59.5963302752294 69.9449541284404 0
0 0

0101101
*
Ed
 1e-07 1 1 0
1  96 0 0 15.4128440366973
2  174 37 0 0 15.4128440366973
2  175 43 0 0 15.4128440366973
0

0101000
+56 0 -54 0 *
Ed
 1e-07 1 1 0
1  97 0 0 3.52293577981651
2  176 37 0 0 3.52293577981651
0

0101000
+54 0 -119 0 *
Wi

0101100
+55 0 +53 0 +52 0 +116 0 *
Fa
0  1e-07 37 0

0111000
+51 0 *
Ve
1e-07
-2.93577981651376 159.119266055046 0
0 0

0101101
*
Ed
 1e-07 1 1 0
1  98 0 0 3.52293577981651
2  177 39 0 0 3.52293577981651
0

0101000
+75 0 -49 0 *
Ve
1e-07
-2.93577981651376 194.05504587156 0
0 0

0101101
*
Ed
 1e-07 1 1 0
1  99 0 0 34.9357798165138
2  178 39 0 0 34.9357798165138
0

0101000
+49 0 -47 0 *
Ed
 1e-07 1 1 0
1  100 0 0 3.52293577981651
2  179 39 0 0 3.52293577981651
0

0101000
+47 0 -76 0 *
Wi

0101100
+48 0 +46 0 +45 0 +74 0 *
Fa
0  1e-07 39 0

0111000
+44 0 *
Ve
1e-07
15.2660550458716 81.9082568807339 0
0 0

0101101
*
Ve
1e-07
26.4220183486239 81.9082568807339 0
0 0

0101101
*
Ed
 1e-07 1 1 0
1  101 0 0 11.1559633027523
2  180 44 0 0 11.1559633027523
2  181 42 0 0 11.1559633027523
2  182 45 0 0 11.1559633027523
0

0101000
+42 0 -41 0 *
Ed
 1e-07 1 1 0
1  102 0 0 33.1743119266055
2  183 46 0 0 33.1743119266055
2  184 42 0 0 33.1743119266055
0

0101000
+41 0 -63 0 *
Ve
1e-07
59.5963302752294 112.440366972477 0
0 0

0101101
*
Ed
 1e-07 1 1 0
1  103 0 0 15.5596330275229
2  185 47 0 0 15.5596330275229
2  186 42 0 0 15.5596330275229
0

0101000
+61 0 -38 0 *
Ve
1e-07
9.39449541284404 112.440366972477 0
0 0

0101101
*
Ed
 1e-07 1 1 0
1  104 0 0 50.2018348623853
2  187 47 0 0 50.2018348623853
2  188 42 0 0 50.2018348623853
0

0101000
+38 0 -36 0 *
Ve
1e-07
9.39449541284404 98.6422018348624 0
0 0

0101101
*
Ed
 1e-07 1 1 0
1  105 0 0 13.7981651376147
2  189 47 0 0 13.7981651376147
2  190 42 0 0 13.7981651376147
0

0101000
+36 0 -34 0 *
Ve
1e-07
0.587155963302752 98.6422018348624 0
0 0

0101101
*
Ed
 1e-07 1 1 0
1  106 0 0 8.80733944954128
2  191 47 0 0 8.80733944954128
2  192 42 0 0 8.80733944954128
0

0101000
+34 0 -32 0 *
Ve
1e-07
0.587155963302752 81.9082568807339 0
0 0

0101101
*
Ed
 1e-07 1 1 0
1  107 0 0 16.7339449541284
2  193 47 0 0 16.7339449541284
2  194 42 0 0 16.7339449541284
0

0101000
+32 0 -30 0 *
Ed
 1e-07 1 1 0
1  108 0 0 14.6788990825688
2  195 47 0 0 14.6788990825688
2  196 42 0 0 14.6788990825688
0

0101000
+30 0 -42 0 *
Wi

0101100
-40 0 -39 0 -60 0 -37 0 -35 0 -33 0 -31 0 -29 0 -28 0 *
Fa
0  1e-07 42 0

0101000
+27 0 *
Ve
1.00000071054274e-07
32.8807339449541 78.3853211009174 0
0 0

0101101
*
Ve
1.00000071054274e-07
59.5963302752294 78.3853211009174 0
0 0

0101101
*
Ed
 1.00000071054274e-07 1 1 0
1  109 0 0 26.7155963302752
2  197 43 0 0 26.7155963302752
0

0101000
+25 0 -24 0 *
Ve
1e-07
59.5963302752294 76.6238532110092 0
0 0

0101101
*
Ed
 1e-07 1 1 0
1  110 0 0 1.76146788990819
2  198 43 0 0 1.76146788990819
0

0101000
+24 0 -22 0 *
Ed
 1e-07 1 1 0
1  111 0 0 6.6788990825688
2  199 43 0 0 6.6788990825688
0

0101000
+22 0 -54 0 *
Ve
1e-07
59.5963302752294 47.8532110091743 0
0 0

0101101
*
Ed
 1e-07 1 1 0
1  112 0 0 6.6788990825688
2  200 43 0 0 6.6788990825688
0

0101000
+56 0 -19 0 *
Ve
1.00000030561599e-07
59.5963302752294 44.9174311926606 0
0 0

0101101
*
Ed
 1e-07 1 1 0
1  113 0 0 2.93577981651377
2  201 43 0 0 2.93577981651377
0

0101000
+19 0 -17 0 *
Ve
1.0000003041925e-07
59.0091743119266 44.9174311926606 0
0 0

0101101
*
Ed
 1e-07 1 1 0
1  114 0 0 0.587155963302756
2  202 43 0 0 0.587155963302756
0

0101000
+17 0 -15 0 *
Ve
1e-07
32.8807339449541 44.9174311926605 0
0 0

0101101
*
Ed
 1e-07 1 1 0
1  115 0 0 26.1284403669725
2  203 43 0 0 26.1284403669725
0

0101000
+15 0 -13 0 *
Ed
 1e-07 1 1 0
1  116 0 0 33.4678899082568
2  204 43 0 0 33.4678899082568
0

0101000
+13 0 -25 0 *
Wi

0101100
+23 0 +21 0 +20 0 -53 0 +18 0 +16 0 +14 0 +12 0 +11 0 *
Fa
0  1e-07 43 0

0111000
+10 0 *
Ve
1e-07
15.2660550458716 78.3853211009174 0
0 0

0101101
*
Ed
 1e-07 1 1 0
1  117 0 0 3.52293577981651
2  205 45 0 0 3.52293577981651
0

0101000
+8 0 -42 0 *
Ve
1e-07
26.4220183486239 78.3853211009174 0
0 0

0101101
*
Ed
 1e-07 1 1 0
1  118 0 0 3.52293577981651
2  206 45 0 0 3.52293577981651
0

0101000
+41 0 -6 0 *
Ed
 1e-07 1 1 0
1  119 0 0 11.1559633027523
2  207 45 0 0 11.1559633027523
0

0101000
+6 0 -8 0 *
Wi

0101100
+7 0 +40 0 +5 0 +4 0 *
Fa
0  1e-07 45 0

0111000
+3 0 *
Sh

0101000
+255 0 +244 0 +225 0 +178 0 +171 0 +164 0 +157 0 +150 0 +133 0 +126 0 
+107 0 +88 0 +77 0 +64 0 +57 0 +50 0 +43 0 +26 0 +9 0 +2 0 
*

+1 0 