
CASCADE Topology V3, (c) Open Cascade
Locations 0
Curve2ds 271
1 6.8904672897196519 1.7226168224298988 -1 0 
1 60.640764857734894 -5.4491210154000242 -1 0 
1 6.8904672897196519 1.7226168224298988 -1 0 
1 -13.79645149926435 53.666818907101558 -1 0 
1 46.859830278295618 -5.4491210154000242 -1 0 
1 -17.241685144124148 53.666818907101558 0 -1 
1 43.414596633435821 -5.4491210154000242 0 -1 
1 -17.241685144124148 -9.6001989348695602 -1 0 
1 43.414596633435821 -68.716138857371135 -1 0 
1 8.9262871707731506 1.7226168224299059 -1 0 
1 -1.0602376911181182 -68.716138857371135 -1 0 
1 8.9262871707731506 1.7226168224299059 -1 0 
1 3.0910507467901027 -10.220079244713702 -1 0 
1 -18.912812032664419 -68.716138857371135 -1 0 
1 1.5250354536719897 -10.220079244713702 0 1 
1 -20.478827325782532 -68.716138857371135 0 1 
1 1.7226168224298988 -10.648903993203078 0 1 
1 -20.478827325782532 -43.659894167481596 0 1 
1 1.7226168224298988 -10.648903993203078 0 1 
1 18.771685438270111 -38.009542291004891 0 1 
1 -20.478827325782532 -22.362086181075469 0 1 
1 18.771685438270111 -7.3156425458901992 -1 0 
1 -20.478827325782532 8.3318135640392228 -1 0 
1 -21.005382465969461 22.426051202102087 0 -1 
1 23.258792422325371 18.699568224950752 0 -1 
1 5.9303600347017209 6.7784950921726619 1 0 
1 -33.320152729350923 22.425951202102084 1 0 
1 18.771685438270111 6.7784950921726619 0 1 
1 -20.478827325782532 22.425951202102084 0 1 
1 18.771685438270111 46.868486595995947 1 0 
1 -20.478827325782532 62.515942705925369 1 0 
1 -6.8121665250637591 -1.7226168224298988 1 0 
1 -0.82533539715043958 62.515942705925426 1 0 
1 -6.8121665250637591 -1.7226168224298988 1 0 
1 -59.270181539895162 3.0737421758223604 1 0 
1 -20.478827325782532 62.515942705925369 1 0 
1 -6.6520676911271153 3.0737421758223604 0 -1 
1 32.139286522985515 62.515942705925369 0 -1 
1 -6.6520676911271153 -22.295705572690792 1 0 
1 32.139286522985515 37.146494957412216 1 0 
1 -7.2036703483432234 -1.7226168224298704 1 0 
1 73.795293319926898 37.146494957412216 1 0 
1 -7.2036703483432234 -1.7226168224298704 1 0 
1 -29.837099559743592 0.83449633119650457 0 -1 
1 88.202634016613388 80.36851704747167 0 -1 
1 -1.7226168224298988 7.360271877655066 0 -1 
1 88.202634016613388 32.761652136681533 0 -1 
1 -1.7226168224298988 7.360271877655066 0 -1 
1 72.23622421675006 9.730768973103963 -1 0 
1 178.40511490021575 18.04110838137143 -1 0 
1 -45.528125825730811 9.730768973103963 0 -1 
1 60.640764857734894 18.04110838137143 0 -1 
1 6.8904672897196519 -1.722616822429913 0 1 
1 -6.8904672897196235 1.7226168224298988 0 -1 
1 -6.8904672897196235 -1.722616822429913 1 0 
1 -37.192418039803769 30.616044152209838 1 0 
1 8.9262871707731506 -1.7226168224299059 0 1 
1 -8.9262871707731506 1.7226168224299059 0 -1 
1 -8.9262871707731506 -1.7226168224299059 1 0 
1 -1.7226168224298988 -10.648903993203078 1 0 
1 1.7226168224298988 10.648903993203049 -1 0 
1 1.4094137638062705 10.648903993203049 -1 0 
1 -1.7226168224298988 10.648903993203049 0 -1 
1 18.771685438270111 -7.3156425458901992 -1 0 
1 23.7853475625123 4.605330586887888 -1 0 
1 15.326451793410314 -7.3156425458901992 0 -1 
1 20.340113917652502 4.605330586887888 0 -1 
1 15.326451793410314 -34.564308646145079 -1 0 
1 20.340113917652502 -22.643335513366992 -1 0 
1 -27.26916417940194 -34.564308646145079 0 1 
1 -22.255502055159752 -22.643335513366992 0 1 
1 -27.26916417940194 6.7784950921726619 1 0 
1 -22.255502055159752 18.699468224950749 1 0 
1 -17.873072420693347 6.7784950921726619 0 1 
1 -12.859410296451159 18.699468224950749 0 1 
1 -17.873072420693347 10.223728737032488 -1 0 
1 -12.859410296451159 22.144701869810575 -1 0 
1 -18.39942756088027 10.223728737032488 0 1 
1 -13.385765436638081 22.144701869810575 0 1 
1 -18.39942756088027 10.75008387721941 1 0 
1 -13.385765436638081 22.671057009997497 1 0 
1 11.470477299130835 18.699568224950752 0 1 
1 15.326451793410314 10.223728737032488 -1 0 
1 20.340113917652502 22.144701869810575 -1 0 
1 5.9303600347017209 10.223728737032488 0 -1 
1 10.944022158943909 22.144701869810575 0 -1 
1 5.9303600347017209 6.7784950921726619 1 0 
1 10.944022158943909 18.699468224950749 1 0 
1 6.8121665250637022 -1.7226168224298988 0 1 
1 -6.4989634664400739 -15.033746813933618 1 0 
1 -6.8121665250637591 1.7226168224298988 1 0 
1 -6.8121665250637591 1.7226168224298704 0 -1 
1 7.203670348343266 -1.7226168224298704 0 1 
1 7.203670348343266 1.7226168224299272 -1 0 
1 25.474340654624456 -32.365318861074655 -1 0 
1 -7.2036703483432234 1.7226168224299272 0 -1 
1 -1.7226168224298988 -7.3602718776550375 1 0 
1 1.722616822429913 -7.3602718776550375 0 1 
1 -47.954987661173895 -43.45832503076565 0 1 
1 1.722616822429913 7.360271877655066 -1 0 
1 -6.8904672897196235 -1.7226168224298988 1 0 
1 8.5352285192446686 27.48401356597364 1 0 
1 -7.4663254396101735 -4.497962929471413 1 0 
1 22.316163098683916 27.48401356597364 1 0 
1 -1.722616822429913 6.4206627017841953 0 -1 
1 38.602722147112132 27.48401356597364 0 -1 
1 -1.722616822429913 6.5772642310959952 0 -1 
1 38.602722147112132 14.64268816240525 0 -1 
1 -1.7226168224298988 9.5526932880203859 0 -1 
1 38.602722147112132 1.488159700213231 0 -1 
1 -1.7226168224298988 9.5526932880203859 0 -1 
1 61.998688687651551 1.9883142342043598 0 -1 
1 38.602722147112132 -17.617226875827548 0 -1 
1 61.998688687651551 -9.6001989348695602 -1 0 
1 38.602722147112132 -29.205740044901468 -1 0 
1 -13.79645149926435 -9.6001989348695602 0 1 
1 -37.192418039803769 -29.205740044901468 0 1 
1 -45.528125825730811 9.730768973103963 0 -1 
1 -23.411483460364494 57.551507193841104 0 -1 
1 -45.528125825730811 -33.178050058331891 1 0 
1 -23.411483460364494 14.64268816240525 1 0 
1 -42.082892180871013 -33.178050058331891 0 1 
1 -19.966249815504696 14.64268816240525 0 1 
1 -42.082892180871013 -20.336724654763501 1 0 
1 -19.966249815504696 27.48401356597364 1 0 
1 26.46565845369588 -15.033746813933647 0 1 
1 26.46565845369588 15.033746813933789 -1 0 
1 -26.465658453695795 15.033746813933789 0 -1 
1 -26.465658453695795 -15.033746813933647 1 0 
1 -18.322378929481687 -15.033746813933647 1 0 
1 7.1253695836873874 -15.033746813933647 1 0 
1 18.948785046729029 -15.033746813933647 1 0 
1 -1.7226168224298846 5.9508581138487671 0 -1 
1 25.474340654624456 19.313185811822535 0 -1 
1 -1.7226168224298846 5.9508581138487671 0 -1 
1 -29.837099559743592 0.83449633119650457 0 -1 
1 25.474340654624456 7.4114695841250011 0 -1 
1 35.003939105814268 -18.850471927830995 -1 0 
1 11.066999957937966 -32.365318861074655 -1 0 
1 -3.2068340462672893 -18.850471927830995 0 1 
1 -27.143773194143591 -32.365318861074655 0 1 
1 -3.2068340462672893 36.273266389926022 1 0 
1 -27.143773194143591 22.758419456682361 1 0 
1 -0.30970575399882705 36.27326638992605 0 1 
1 -24.246644901875129 22.75841945668239 0 1 
1 -24.246644901875129 26.203653101542187 0 -1 
1 -0.30970575399882705 39.718500034785848 0 -1 
1 -4.8063050548063018 26.203653101542187 -1 0 
1 -22.770959727764236 -4.5467249074060589 0 -1 
1 -10.622311851747668 26.203653101542159 0 -1 
1 -39.29242107016016 -7.9919585522658565 1 0 
1 -27.143773194143591 22.758419456682361 1 0 
1 -19.873831435495774 -7.9919585522658565 0 1 
1 -7.7251835594792055 22.758419456682361 0 1 
1 -19.873831435495774 -7.6787554936422566 1 0 
1 -7.7251835594792055 23.071622515305961 1 0 
1 -16.428597790635948 -7.6787554936422566 0 1 
1 -4.2799499146193796 23.071622515305961 0 1 
1 -16.428597790635948 3.283351558184421 1 0 
1 -4.2799499146193796 34.033729567132639 1 0 
1 13.325692778607888 3.283351558184421 0 -1 
1 25.474340654624456 34.033729567132639 0 -1 
1 -1.7869370782716021 14.432132649621423 0 -1 
1 48.824757453524484 37.661267152751748 0 -1 
1 -1.7226168224299068 6.7338657604078094 0 -1 
1 48.824757453524484 7.9069765835079124 0 -1 
1 24.66277633129609 12.817750979801019 0 -1 
1 48.824757453524484 -5.5607549373077063 0 -1 
1 24.66277633129609 1.8556439279743415 -1 0 
1 48.824757453524484 -16.522861989134384 -1 0 
1 -30.460961986460916 1.8556439279743415 0 -1 
1 -6.2989808642325187 -16.522861989134384 0 -1 
1 -1.7226168224298988 6.7338657604078094 0 -1 
1 -6.2989808642325187 -29.990593509950031 0 -1 
1 72.23622421675006 9.730768973103963 -1 0 
1 38.80225957756867 -43.45832503076565 -1 0 
1 -26.39186591488378 -46.772368579593632 0 1 
1 -47.954987661173895 -28.737781275455546 0 1 
1 -26.39186591488378 -31.7386217656599 1 0 
1 -47.954987661173895 -13.704034461521815 1 0 
1 0.5435971267474855 -31.7386217656599 0 1 
1 -21.019524619542629 -13.704034461521815 0 1 
1 0.5435971267474855 27.456756314204142 1 0 
1 -21.019524619542629 45.491343618342228 1 0 
1 46.897649803043151 27.456756314204142 0 -1 
1 25.334528056753037 45.491343618342228 0 -1 
1 46.897649803043151 16.494649262377465 1 0 
1 25.334528056753037 34.52923656651555 1 0 
1 -10.022497875955819 -1.4094137638063557 0 -1 
1 28.779761701612848 34.52923656651555 0 -1 
1 -10.022497875955819 -1.7226168224299556 1 0 
1 28.779761701612848 34.21603350789195 1 0 
1 6.8904672897196235 -1.7226168224298988 0 1 
1 6.8904672897196235 1.722616822429913 -1 0 
1 21.141206457094299 -11.588513169073906 -1 0 
1 -6.8904672897196235 1.722616822429913 0 -1 
1 -1.722616822429913 -6.4206627017841953 1 0 
1 -10.492302463891242 -6.8904672897196235 0 -1 
1 1.7226168224298988 6.4206627017841953 0 -1 
1 1.7226168224298988 6.4206627017841953 -1 0 
1 -1.7226168224298988 -9.552693288020393 1 0 
1 1.722616822429913 -9.552693288020393 0 1 
1 1.722616822429913 9.5526932880203859 -1 0 
1 -1.7226168224298846 -5.9508581138487671 1 0 
1 1.7226168224299272 -5.9508581138487671 0 1 
1 -11.74511469838572 8.6130841121495223 0 1 
1 1.7226168224299272 -5.9508581138487671 0 1 
1 1.7226168224299272 5.9508581138487671 -1 0 
1 -1.7226168224299068 -6.7338657604078094 1 0 
1 1.7226168224299063 -6.7338657604078094 0 1 
1 1.7226168224299063 6.7338657604078094 -1 0 
1 -1.7226168224298988 -6.7338657604078094 1 0 
1 1.722616822429913 -6.7338657604078094 0 1 
1 -20.828003398470685 -11.745114698385692 0 1 
1 1.722616822429913 -6.7338657604078094 0 1 
1 1.722616822429913 6.7338657604078094 -1 0 
1 10.022497875955819 -1.7226168224299556 0 1 
1 10.022497875955819 1.7226168224298419 -1 0 
1 -10.022497875955819 1.7226168224298419 0 -1 
1 -13.581413846121649 -16.891491009903689 -1 0 
1 7.3602718776550518 -11.588513169073906 -1 0 
1 -42.082892180871013 -16.891491009903689 0 1 
1 -21.141206457094313 -11.588513169073906 0 1 
1 -42.082892180871013 6.2855353282441371 1 0 
1 -21.141206457094313 11.58851316907392 1 0 
1 0.19952073331759834 6.2855353282441371 0 -1 
1 21.141206457094299 11.58851316907392 0 -1 
1 -1.722616822429913 5.0112489379778964 0 -1 
1 21.141206457094299 9.0828887000849647 0 -1 
1 -7.4663254396101735 9.5961747085914624 0 -1 
1 21.141206457094299 -0.93960917587084225 0 -1 
1 10.492302463891249 19.731792693288014 -1 0 
1 -10.492302463891242 19.731792693288014 0 -1 
1 -10.492302463891242 19.205437553101106 0 -1 
1 -10.492302463891242 -2.9188785046729038 0 -1 
1 -10.492302463891242 -19.731792693288014 1 0 
1 10.492302463891249 -19.731792693288014 0 1 
1 -11.671322159573677 12.736212558894039 1 0 
1 2.9754290569243835 20.514800339847056 1 0 
1 -2.9016365181123263 12.736212558894039 0 -1 
1 11.745114698385734 20.514800339847056 0 -1 
1 -2.9016365181123263 -28.293388120800103 -1 0 
1 11.745114698385734 -20.514800339847085 -1 0 
1 -26.39186591488378 -28.293388120800103 0 1 
1 -11.74511469838572 -20.514800339847085 0 1 
1 13.325692778607888 -11.437192197125682 1 0 
1 -15.190348343245532 20.514800339847056 1 0 
1 -4.6980458793542965 -1.7226168224299272 1 0 
1 -6.4206627017841953 20.514800339847056 1 0 
1 -1.7226168224299059 5.6376550552251672 0 -1 
1 20.828003398470692 7.3602718776550944 0 -1 
1 -1.7226168224299059 5.6376550552251672 0 -1 
1 72.23622421675006 17.560845438694443 0 -1 
1 20.828003398470692 -3.9150382327952116 0 -1 
1 72.23622421675006 9.730768973103963 -1 0 
1 20.828003398470692 -11.745114698385692 -1 0 
1 -27.015728341601104 -11.612087592841306 0 1 
1 -20.828003398470685 1.7226168224299272 0 1 
1 -27.015728341601104 -1.5895897168854844 1 0 
1 -20.828003398470685 11.745114698385748 1 0 
1 14.640278455340271 -1.5895897168854844 0 -1 
1 20.828003398470692 11.745114698385748 0 -1 
1 -1.722616822429913 -5.0112489379779106 1 0 
1 1.722616822429913 -5.0112489379779106 0 1 
1 1.722616822429913 5.0112489379778964 -1 0 
1 4.6980458793542823 -1.7226168224299272 0 1 
1 4.6980458793542823 1.7226168224298988 -1 0 
1 -4.6980458793542965 1.7226168224298988 0 -1 
1 -1.7226168224299059 -5.6376550552251388 1 0 
1 1.7226168224299068 -5.6376550552251388 0 1 
1 1.7226168224299068 5.6376550552251672 -1 0 
Curves 156
1 128.3132030586236 103.41355989804588 0 1 0 0 
1 142.09413763806288 103.41355989804588 0 1 0 0 
1 145.53937128292267 103.41355989804588 0 0 -1 0 
1 145.53937128292267 40.146542056074757 0 1 0 0 
1 190.01420560747661 40.146542056074757 0 1 0 0 
1 207.86677994902291 40.146542056074757 0 1 0 0 
1 209.43279524214103 40.146542056074757 0 0 1 0 
1 209.43279524214103 65.202786745964303 0 0 1 0 
1 209.43279524214103 86.500594732370431 0 0 1 0 
1 209.43279524214103 117.19449447748512 0 1 0 0 
1 209.95935038232795 131.28873211554799 0 0 -1 0 
1 222.27412064570942 131.28863211554798 0 -1 0 0 
1 209.43279524214103 131.28863211554798 0 0 1 0 
1 209.43279524214103 171.37862361937127 0 -1 0 0 
1 189.77930331350893 171.37862361937133 0 -1 0 0 
1 156.81468139337298 171.37862361937127 0 0 -1 0 
1 156.81468139337298 146.00917587085812 0 -1 0 0 
1 115.1586745964316 146.00917587085812 0 -1 0 0 
1 100.75133389974511 189.23119796091757 0 0 -1 0 
1 100.75133389974511 141.62433305012743 0 0 -1 0 
1 10.548853016142731 126.90378929481733 0 1 0 0 
1 128.3132030586236 126.90378929481733 0 0 -1 0 
1 128.3132030586236 99.968326253186063 0 0 1 0 
1 142.09413763806288 103.41355989804588 0 0 -1 0 
1 142.09413763806288 99.968326253186063 0 -1 0 0 
1 190.01420560747661 36.701308411214946 0 0 1 0 
1 207.86677994902291 40.146542056074757 0 0 -1 0 
1 207.86677994902291 36.701308411214946 0 -1 0 0 
1 212.87802888700082 65.202786745964303 0 -1 0 0 
1 209.43279524214103 86.500594732370431 0 1 0 0 
1 209.74599830076465 86.500594732370431 0 1 0 0 
1 212.87802888700082 86.500594732370431 0 0 -1 0 
1 209.43279524214103 117.19449447748512 0 1 0 0 
1 212.87802888700082 117.19449447748512 0 0 -1 0 
1 212.87802888700082 89.945828377230242 0 1 0 0 
1 255.47364485981308 89.945828377230242 0 0 1 0 
1 255.47364485981308 131.28863211554798 0 -1 0 0 
1 246.07755310110448 131.28863211554798 0 0 1 0 
1 246.07755310110448 134.73386576040781 0 1 0 0 
1 246.60390824129141 134.73386576040781 0 0 1 0 
1 246.60390824129141 135.26022090059473 0 -1 0 0 
1 221.74766550552249 131.28873211554799 0 0 1 0 
1 212.87802888700082 134.73386576040781 0 1 0 0 
1 222.27412064570942 134.73386576040781 0 0 -1 0 
1 222.27412064570942 131.28863211554798 0 -1 0 0 
1 176.15497026338147 171.37862361937133 0 0 1 0 
1 189.77930331350893 174.82385726423112 0 -1 0 0 
1 189.77930331350893 174.82385726423109 0 0 -1 0 
1 100.75133389974511 146.00917587085812 0 0 1 0 
1 100.75133389974511 149.45440951571791 0 1 0 0 
1 115.1586745964316 149.45440951571791 0 0 -1 0 
1 100.75133389974511 126.90378929481733 0 -1 0 0 
1 97.306100254885294 126.90378929481733 0 0 1 0 
1 97.306100254885294 141.62433305012743 0 1 0 0 
1 96.366491079014438 96.836295666949866 0 -1 0 0 
1 82.585556499575191 96.836295666949866 0 -1 0 0 
1 66.298997451146974 96.836295666949866 0 0 -1 0 
1 66.298997451146974 83.994970263381475 0 0 -1 0 
1 66.298997451146974 70.840441801189456 0 0 -1 0 
1 66.298997451146974 51.735055225148677 0 0 -1 0 
1 66.298997451146974 40.146542056074757 0 1 0 0 
1 142.09413763806288 40.146542056074757 0 0 1 0 
1 128.3132030586236 126.90378929481733 0 0 -1 0 
1 128.3132030586236 83.994970263381475 0 -1 0 0 
1 124.8679694137638 83.994970263381475 0 0 1 0 
1 124.8679694137638 96.836295666949866 0 -1 0 0 
1 156.81468139337298 174.82385726423109 0 0 1 0 
1 156.81468139337298 204.89135089209853 0 1 0 0 
1 209.74599830076465 204.89135089209853 0 0 -1 0 
1 209.74599830076465 174.82385726423109 0 -1 0 0 
1 201.60271877655055 174.82385726423109 0 -1 0 0 
1 176.15497026338147 174.82385726423109 0 -1 0 0 
1 164.33155480033983 174.82385726423109 0 -1 0 0 
1 100.75133389974511 201.1329141886151 0 0 -1 0 
1 100.75133389974511 189.23119796091757 0 0 -1 0 
1 115.1586745964316 149.45440951571791 0 1 0 0 
1 153.36944774851315 149.45440951571791 0 0 1 0 
1 153.36944774851315 204.57814783347493 0 -1 0 0 
1 150.47231945624469 204.57814783347496 0 0 1 0 
1 150.47231945624469 208.02338147833476 0 0 -1 0 
1 131.03197960917586 208.02338147833476 0 1 0 0 
1 136.84798640611723 208.02338147833473 0 0 -1 0 
1 133.95085811384877 204.57814783347493 0 0 1 0 
1 133.95085811384877 204.89135089209853 0 -1 0 0 
1 130.50562446898894 204.89135089209853 0 0 1 0 
1 130.50562446898894 215.85345794392521 0 -1 0 0 
1 100.75133389974511 215.85345794392521 0 0 -1 0 
1 0.52635514018691187 208.02338147833473 0 0 -1 0 
1 0.52635514018691187 178.26909090909089 0 0 -1 0 
1 0.52635514018691187 164.80135938827527 0 0 -1 0 
1 0.52635514018691187 153.8392523364486 0 1 0 0 
1 55.650093457943917 153.8392523364486 0 0 -1 0 
1 55.650093457943917 140.37152081563295 0 0 -1 0 
1 10.548853016142731 126.90378929481733 0 1 0 0 
1 97.306100254885294 141.62433305012743 0 0 1 0 
1 97.306100254885294 156.65807986406116 0 -1 0 0 
1 70.370637213254028 156.65807986406116 0 0 1 0 
1 70.370637213254028 215.85345794392521 0 -1 0 0 
1 24.016584536958362 215.85345794392521 0 0 -1 0 
1 24.016584536958362 204.89135089209853 0 -1 0 0 
1 20.57135089209855 204.89135089209853 0 0 -1 0 
1 20.57135089209855 204.57814783347493 0 -1 0 0 
1 82.585556499575191 96.836295666949866 0 0 1 0 
1 82.585556499575191 100.28152931180968 0 1 0 0 
1 96.366491079014438 100.28152931180968 0 0 -1 0 
1 66.298997451146974 83.994970263381475 0 -1 0 0 
1 62.853763806287162 96.836295666949866 0 0 -1 0 
1 62.853763806287162 96.836295666949866 0 1 0 0 
1 66.298997451146974 51.735055225148677 0 -1 0 0 
1 62.853763806287162 51.735055225148677 0 0 1 0 
1 62.853763806287162 70.840441801189456 0 1 0 0 
1 100.75133389974511 189.23119796091757 0 -1 0 0 
1 97.306100254885294 189.23119796091757 0 0 1 0 
1 97.306100254885294 201.1329141886151 0 1 0 0 
1 0.52635514018691187 164.80135938827527 0 -1 0 0 
1 -2.9188785046729011 164.80135938827527 0 0 1 0 
1 -2.9188785046729011 178.26909090909089 0 1 0 0 
1 55.650093457943917 126.90378929481733 0 -1 0 0 
1 52.204859813084106 126.90378929481733 0 0 1 0 
1 52.204859813084106 140.37152081563295 0 1 0 0 
1 0.52635514018691187 204.57814783347493 0 0 1 0 
1 0.52635514018691187 208.02338147833473 0 1 0 0 
1 20.57135089209855 208.02338147833473 0 0 -1 0 
1 96.366491079014438 100.28152931180968 0 1 0 0 
1 124.8679694137638 100.28152931180968 0 0 1 0 
1 124.8679694137638 123.4585556499575 0 -1 0 0 
1 82.585556499575191 123.4585556499575 0 0 -1 0 
1 82.585556499575191 120.95293118096855 0 0 -1 0 
1 82.585556499575191 110.93043330501274 0 0 -1 0 
1 41.86915887850467 123.4585556499575 0 1 0 0 
1 62.853763806287162 123.4585556499575 0 0 -1 0 
1 62.853763806287162 122.9322005097706 0 0 -1 0 
1 62.853763806287162 100.80788445199659 0 0 -1 0 
1 62.853763806287162 83.994970263381475 0 -1 0 0 
1 41.86915887850467 83.994970263381475 0 0 1 0 
1 82.585556499575191 201.1329141886151 0 -1 0 0 
1 73.81587085811384 201.1329141886151 0 0 -1 0 
1 73.81587085811384 160.10331350892096 0 1 0 0 
1 97.306100254885294 160.10331350892096 0 0 1 0 
1 100.75133389974511 201.1329141886151 0 -1 0 0 
1 91.981648258283769 201.1329141886151 0 -1 0 0 
1 10.548853016142731 146.00917587085812 0 0 -1 0 
1 10.548853016142731 134.73386576040781 0 0 -1 0 
1 10.548853016142731 126.90378929481733 0 1 0 0 
1 52.204859813084106 140.37152081563295 0 0 1 0 
1 52.204859813084106 150.39401869158877 0 -1 0 0 
1 10.548853016142731 150.39401869158877 0 0 -1 0 
1 82.585556499575191 110.93043330501274 0 -1 0 0 
1 79.140322854715365 110.93043330501274 0 0 1 0 
1 79.140322854715365 120.95293118096855 0 1 0 0 
1 82.585556499575191 201.1329141886151 0 0 1 0 
1 82.585556499575191 204.57814783347493 0 1 0 0 
1 91.981648258283769 204.57814783347493 0 0 -1 0 
1 10.548853016142731 134.73386576040781 0 -1 0 0 
1 7.1036193712829183 134.73386576040781 0 0 1 0 
1 7.1036193712829183 146.00917587085812 0 1 0 0 
Polygon3D 0
PolygonOnTriangulations 0
Surfaces 61
1 188.95396791635849 108.8626809134459 0 -0 -0 -1 -1 0 0 0 1 -0 
1 135.20367034834325 101.69094307561598 0 -0 -0 -1 -1 0 0 0 1 -0 
1 135.20367034834325 101.69094307561598 0 -0 -0 -1 -1 0 0 0 1 -0 
1 128.29768613879853 49.746740990944318 0 -0 -0 -1 -1 0 0 0 1 -0 
1 198.94049277824976 38.423925233644852 0 -0 -0 -1 -1 0 0 0 1 -0 
1 198.94049277824976 38.423925233644852 0 -0 -0 -1 -1 0 0 0 1 -0 
1 210.95783069581302 50.366621300788459 0 -0 -0 -1 -1 0 0 0 1 -0 
1 211.15541206457092 75.851690739167381 0 -0 -0 -1 -1 0 0 0 1 -0 
1 211.15541206457092 75.851690739167381 0 -0 -0 -1 -1 0 0 0 1 -0 
1 228.20448068041114 124.51013702337532 0 -0 -0 -1 -1 0 0 0 1 -0 
1 233.21814280465333 112.58916389059723 0 -0 -0 -1 -1 0 0 0 1 -0 
1 182.96713678844517 173.10124044180122 0 -0 -0 -1 -1 0 0 0 1 -0 
1 182.96713678844517 173.10124044180122 0 -0 -0 -1 -1 0 0 0 1 -0 
1 150.16261370224586 168.30488144354891 0 -0 -0 -1 -1 0 0 0 1 -0 
1 107.95500424808837 147.73179269328799 0 -0 -0 -1 -1 0 0 0 1 -0 
1 107.95500424808837 147.73179269328799 0 -0 -0 -1 -1 0 0 0 1 -0 
1 70.914234340001514 188.39670162972106 0 -0 -0 -1 -1 0 0 0 1 -0 
1 99.028717077315207 134.26406117247237 0 -0 -0 -1 -1 0 0 0 1 -0 
1 99.028717077315207 134.26406117247237 0 -0 -0 -1 -1 0 0 0 1 -0 
1 82.785077232892789 117.17302032171337 0 -0 -0 -1 -1 0 0 0 1 -0 
1 104.90171959825911 69.352282100976225 0 -0 -0 -1 -1 0 0 0 1 -0 
1 228.20448068041114 124.51013702337532 0 -0 -0 -1 -1 0 0 0 1 -0 
1 183.28033984706886 189.85760407816474 0 -0 -0 -1 -1 0 0 0 1 -0 
1 126.22567455436956 181.81972837679257 0 -0 -0 -1 -1 0 0 0 1 -0 
1 49.351112593711399 170.36211432558298 0 -0 -0 -1 -1 0 0 0 1 -0 
1 89.476023789294814 98.558912489379765 0 -0 -0 -1 -1 0 0 0 1 -0 
1 75.119231059965017 101.33425859642128 0 -0 -0 -1 -1 0 0 0 1 -0 
1 64.576380628717061 90.41563296516567 0 -0 -0 -1 -1 0 0 0 1 -0 
1 64.576380628717061 77.41770603228548 0 -0 -0 -1 -1 0 0 0 1 -0 
1 64.576380628717075 61.28774851316907 0 -0 -0 -1 -1 0 0 0 1 -0 
1 64.576380628717075 61.28774851316907 0 -0 -0 -1 -1 0 0 0 1 -0 
1 128.29768613879853 49.746740990944318 0 -0 -0 -1 -1 0 0 0 1 -0 
1 82.785077232892789 117.17302032171337 0 -0 -0 -1 -1 0 0 0 1 -0 
1 99.028717077315221 195.18205607476634 0 -0 -0 -1 -1 0 0 0 1 -0 
1 99.028717077315221 195.18205607476634 0 -0 -0 -1 -1 0 0 0 1 -0 
1 70.914234340001514 188.39670162972106 0 -0 -0 -1 -1 0 0 0 1 -0 
1 150.16261370224586 168.30488144354891 0 -0 -0 -1 -1 0 0 0 1 -0 
1 114.07702667835299 212.57010638574079 0 -0 -0 -1 -1 0 0 0 1 -0 
1 -1.2605819380846903 193.5912488287133 0 -0 -0 -1 -1 0 0 0 1 -0 
1 -1.1962616822429948 171.53522514868308 0 -0 -0 -1 -1 0 0 0 1 -0 
1 25.189131471483002 151.98360840847425 0 -0 -0 -1 -1 0 0 0 1 -0 
1 53.927476635514019 133.63765505522514 0 -0 -0 -1 -1 0 0 0 1 -0 
1 82.785077232892789 117.17302032171337 0 -0 -0 -1 -1 0 0 0 1 -0 
1 70.914234340001514 188.39670162972106 0 -0 -0 -1 -1 0 0 0 1 -0 
1 10.548853016142731 206.30076465590489 0 -0 -0 -1 -1 0 0 0 1 -0 
1 103.72676295666949 111.87004248088358 0 -0 -0 -1 -1 0 0 0 1 -0 
1 52.36146134239592 103.72676295666949 0 -0 -0 -1 -1 0 0 0 1 -0 
1 99.028717077315221 195.18205607476634 0 -0 -0 -1 -1 0 0 0 1 -0 
1 85.560985556499574 180.61811384876805 0 -0 -0 -1 -1 0 0 0 1 -0 
1 53.927476635514019 133.63765505522514 0 -0 -0 -1 -1 0 0 0 1 -0 
1 31.376856414613421 138.64890399320302 0 -0 -0 -1 -1 0 0 0 1 -0 
1 82.785077232892789 117.17302032171337 0 -0 -0 -1 -1 0 0 0 1 -0 
1 80.862939677145278 115.94168224299065 0 -0 -0 -1 -1 0 0 0 1 -0 
1 75.119231059965017 101.33425859642128 0 -0 -0 -1 -1 0 0 0 1 -0 
1 70.914234340001514 188.39670162972106 0 -0 -0 -1 -1 0 0 0 1 -0 
1 114.07702667835299 212.57010638574079 0 -0 -0 -1 -1 0 0 0 1 -0 
1 87.283602378929473 202.85553101104503 0 -0 -0 -1 -1 0 0 0 1 -0 
1 8.8262361937128251 140.37152081563295 0 -0 -0 -1 -1 0 0 0 1 -0 
1 8.8262361937128251 140.37152081563295 0 -0 -0 -1 -1 0 0 0 1 -0 
1 82.785077232892789 117.17302032171337 0 -0 -0 -1 -1 0 0 0 1 -0 
1 25.189131471483002 151.98360840847425 0 -0 -0 -1 -1 0 0 0 1 -0 
Triangulations 0

TShapes 344
Ve
1.00000397903932e-07
128.313203058624 103.413559898046 0
0 0

0101101
*
Ve
1e-07
142.094137638063 103.413559898046 0
0 0

0101101
*
Ed
 1e-07 1 1 0
1  1 0 0 13.7809345794393
2  1 2 0 0 13.7809345794393
2  2 1 0 0 13.7809345794393
2  3 3 0 0 13.7809345794393
0

0101000
+344 0 -343 0 *
Ve
1e-07
145.539371282923 103.413559898046 0
0 0

0101101
*
Ed
 1e-07 1 1 0
1  2 0 0 3.4452336448598
2  4 4 0 0 3.4452336448598
2  5 1 0 0 3.4452336448598
0

0101000
+343 0 -341 0 *
Ve
1e-07
145.539371282923 40.1465420560748 0
0 0

0101101
*
Ed
 1e-07 1 1 0
1  3 0 0 63.2670178419711
2  6 4 0 0 63.2670178419711
2  7 1 0 0 63.2670178419711
0

0101000
+341 0 -339 0 *
Ve
1e-07
190.014205607477 40.1465420560748 0
0 0

0101101
*
Ed
 1e-07 1 1 0
1  4 0 0 44.4748343245539
2  8 4 0 0 44.4748343245539
2  9 1 0 0 44.4748343245539
0

0101000
+339 0 -337 0 *
Ve
1e-07
207.866779949023 40.1465420560748 0
0 0

0101101
*
Ed
 1e-07 1 1 0
1  5 0 0 17.8525743415463
2  10 5 0 0 17.8525743415463
2  11 1 0 0 17.8525743415463
2  12 6 0 0 17.8525743415463
0

0101000
+337 0 -335 0 *
Ve
1e-07
209.432795242141 40.1465420560748 0
0 0

0101101
*
Ed
 1e-07 1 1 0
1  6 0 0 1.56601529311811
2  13 7 0 0 1.56601529311811
2  14 1 0 0 1.56601529311811
0

0101000
+335 0 -333 0 *
Ve
1e-07
209.432795242141 65.2027867459643 0
0 0

0101101
*
Ed
 1e-07 1 1 0
1  7 0 0 25.0562446898895
2  15 7 0 0 25.0562446898895
2  16 1 0 0 25.0562446898895
0

0101000
+333 0 -331 0 *
Ve
1e-07
209.432795242141 86.5005947323704 0
0 0

0101101
*
Ed
 1e-07 1 1 0
1  8 0 0 21.2978079864061
2  17 8 0 0 21.2978079864061
2  18 1 0 0 21.2978079864061
2  19 9 0 0 21.2978079864061
0

0101000
+331 0 -329 0 *
Ve
1e-07
209.432795242141 117.194494477485 0
0 0

0101101
*
Ed
 1e-07 1 1 0
1  9 0 0 30.6938997451147
2  20 10 0 0 30.6938997451147
2  21 1 0 0 30.6938997451147
0

0101000
+329 0 -327 0 *
Ve
1e-07
209.959350382328 117.194494477485 0
0 0

0101101
*
Ed
 1e-07 1 1 0
1  10 0 0 0.526555140186929
2  22 10 0 0 0.526555140186929
2  23 1 0 0 0.526555140186929
0

0101000
+327 0 -325 0 *
Ve
1e-07
209.959350382328 131.288632115548 0
0 0

0101101
*
Ed
 1e-07 1 1 0
1  11 0 0.00010000000000332 14.0942376380629
2  24 1 0 0.00010000000000332 14.0942376380629
2  25 11 0 0.00010000000000332 14.0942376380629
0

0101000
+323 0 -325 0 *
Ve
1e-07
209.432795242141 131.288632115548 0
0 0

0101101
*
Ed
 1e-07 1 1 0
1  12 0 12.3147702633815 12.8413254035684
2  26 10 0 12.3147702633815 12.8413254035684
2  27 1 0 12.3147702633815 12.8413254035684
0

0101000
+323 0 -321 0 *
Ve
1e-07
209.432795242141 171.378623619371 0
0 0

0101101
*
Ed
 1e-07 1 1 0
1  13 0 0 40.0899915038233
2  28 10 0 0 40.0899915038233
2  29 1 0 0 40.0899915038233
0

0101000
+321 0 -319 0 *
Ve
1.00000113686838e-07
189.779303313509 171.378623619371 0
0 0

0101101
*
Ed
 1e-07 1 1 0
1  14 0 0 19.6534919286321
2  30 10 0 0 19.6534919286321
2  31 1 0 0 19.6534919286321
0

0101000
+319 0 -317 0 *
Ve
1.00000113686838e-07
176.154970263381 171.378623619371 0
0 0

0101101
*
Ed
 1e-07 1 1 0
1  15 0 0 13.6243330501275
2  32 12 0 0 13.6243330501275
2  33 1 0 0 13.6243330501275
2  34 13 0 0 13.6243330501275
0

0101000
+317 0 -315 0 *
Ve
1e-07
156.814681393373 171.378623619371 0
0 0

0101101
*
Ed
 1e-07 1 1 0
1  14 0 33.2778249787596 52.618113848768
2  35 14 0 33.2778249787596 52.618113848768
2  36 1 0 33.2778249787596 52.618113848768
0

0101000
+315 0 -313 0 *
Ve
1e-07
156.814681393373 146.009175870858 0
0 0

0101101
*
Ed
 1e-07 1 1 0
1  16 0 0 25.3694477485132
2  37 14 0 0 25.3694477485132
2  38 1 0 0 25.3694477485132
0

0101000
+313 0 -311 0 *
Ve
1e-07
115.158674596432 146.009175870858 0
0 0

0101101
*
Ed
 1e-07 1 1 0
1  17 0 0 41.6560067969414
2  39 14 0 0 41.6560067969414
2  40 1 0 0 41.6560067969414
0

0101000
+311 0 -309 0 *
Ve
1.00000099475983e-07
100.751333899745 146.009175870858 0
0 0

0101101
*
Ed
 1e-07 1 1 0
1  18 0 0 14.4073406966865
2  41 15 0 0 14.4073406966865
2  42 1 0 0 14.4073406966865
2  43 16 0 0 14.4073406966865
0

0101000
+309 0 -307 0 *
Ve
1e-07
100.751333899745 141.624333050127 0
0 0

0101101
*
Ed
 1e-07 1 1 0
1  19 0 43.2220220900596 47.6068649107901
2  44 17 0 43.2220220900596 47.6068649107901
2  45 1 0 43.2220220900596 47.6068649107901
0

0101000
+307 0 -305 0 *
Ve
1.00000326849658e-07
100.751333899745 126.903789294817 0
0 0

0101101
*
Ed
 1e-07 1 1 0
1  20 0 0 14.7205437553101
2  46 18 0 0 14.7205437553101
2  47 1 0 0 14.7205437553101
2  48 19 0 0 14.7205437553101
0

0101000
+305 0 -303 0 *
Ve
1e-07
128.313203058624 126.903789294817 0
0 0

0101101
*
Ed
 1e-07 1 1 0
1  21 0 90.2024808836023 117.764350042481
2  49 20 0 90.2024808836023 117.764350042481
2  50 1 0 90.2024808836023 117.764350042481
0

0101000
+303 0 -301 0 *
Ed
 1e-07 1 1 0
1  22 0 0 23.4902293967713
2  51 20 0 0 23.4902293967713
2  52 1 0 0 23.4902293967713
0

0101000
+301 0 -344 0 *
Wi

0101100
-342 0 -340 0 -338 0 -336 0 -334 0 -332 0 -330 0 -328 0 -326 0 -324 0 
+322 0 -320 0 -318 0 -316 0 -314 0 -312 0 -310 0 -308 0 -306 0 -304 0 
-302 0 -300 0 -299 0 *
Fa
0  1e-07 1 0

0101000
+298 0 *
Ve
1.00000397903932e-07
128.313203058624 99.9683262531861 0
0 0

0101101
*
Ed
 1e-07 1 1 0
1  23 0 0 3.44523364485981
2  53 3 0 0 3.44523364485981
0

0101000
+296 0 -344 0 *
Ve
1.00000113686838e-07
142.094137638063 99.9683262531861 0
0 0

0101101
*
Ed
 1e-07 1 1 0
1  24 0 0 3.44523364485981
2  54 3 0 0 3.44523364485981
0

0101000
+343 0 -294 0 *
Ed
 1e-07 1 1 0
1  25 0 0 13.7809345794393
2  55 3 0 0 13.7809345794393
2  56 21 0 0 13.7809345794393
0

0101000
+294 0 -296 0 *
Wi

0101100
+295 0 +342 0 +293 0 +292 0 *
Fa
0  1e-07 3 0

0111000
+291 0 *
Ve
1e-07
190.014205607477 36.7013084112149 0
0 0

0101101
*
Ed
 1e-07 1 1 0
1  26 0 0 3.44523364485981
2  57 6 0 0 3.44523364485981
0

0101000
+289 0 -337 0 *
Ve
1e-07
207.866779949023 36.7013084112149 0
0 0

0101101
*
Ed
 1e-07 1 1 0
1  27 0 0 3.44523364485981
2  58 6 0 0 3.44523364485981
0

0101000
+335 0 -287 0 *
Ed
 1e-07 1 1 0
1  28 0 0 17.8525743415463
2  59 6 0 0 17.8525743415463
0

0101000
+287 0 -289 0 *
Wi

0101100
+288 0 +334 0 +286 0 +285 0 *
Fa
0  1e-07 6 0

0111000
+284 0 *
Ve
1e-07
212.878028887001 65.2027867459643 0
0 0

0101101
*
Ed
 1e-07 1 1 0
1  29 0 0 3.4452336448598
2  60 9 0 0 3.4452336448598
0

0101000
+282 0 -331 0 *
Ve
1e-07
209.745998300765 86.5005947323704 0
0 0

0101101
*
Ed
 1e-07 1 1 0
1  30 0 0 0.313203058623628
2  61 9 0 0 0.313203058623628
0

0101000
+329 0 -280 0 *
Ve
1e-07
212.878028887001 86.5005947323704 0
0 0

0101101
*
Ed
 1e-07 1 1 0
1  31 0 0 3.13203058623617
2  62 9 0 0 3.13203058623617
0

0101000
+280 0 -278 0 *
Ed
 1e-07 1 1 0
1  32 0 0 21.2978079864061
2  63 9 0 0 21.2978079864061
0

0101000
+278 0 -282 0 *
Wi

0101100
+281 0 +328 0 +279 0 +277 0 +276 0 *
Fa
0  1e-07 9 0

0111000
+275 0 *
Ve
1e-07
212.878028887001 117.194494477485 0
0 0

0101101
*
Ed
 1e-07 1 1 0
1  33 0 0.526555140186929 3.4452336448598
2  64 22 0 0.526555140186929 3.4452336448598
2  65 11 0 0.526555140186929 3.4452336448598
0

0101000
+325 0 -273 0 *
Ve
1e-07
212.878028887001 89.9458283772302 0
0 0

0101101
*
Ed
 1e-07 1 1 0
1  34 0 0 27.2486661002549
2  66 22 0 0 27.2486661002549
2  67 11 0 0 27.2486661002549
0

0101000
+273 0 -271 0 *
Ve
1e-07
255.473644859813 89.9458283772302 0
0 0

0101101
*
Ed
 1e-07 1 1 0
1  35 0 0 42.5956159728123
2  68 22 0 0 42.5956159728123
2  69 11 0 0 42.5956159728123
0

0101000
+271 0 -269 0 *
Ve
1e-07
255.473644859813 131.288632115548 0
0 0

0101101
*
Ed
 1e-07 1 1 0
1  36 0 0 41.3428037383177
2  70 22 0 0 41.3428037383177
2  71 11 0 0 41.3428037383177
0

0101000
+269 0 -267 0 *
Ve
1e-07
246.077553101104 131.288632115548 0
0 0

0101101
*
Ed
 1e-07 1 1 0
1  37 0 0 9.39609175870859
2  72 22 0 0 9.39609175870859
2  73 11 0 0 9.39609175870859
0

0101000
+267 0 -265 0 *
Ve
1e-07
246.077553101104 134.733865760408 0
0 0

0101101
*
Ed
 1e-07 1 1 0
1  38 0 0 3.44523364485983
2  74 22 0 0 3.44523364485983
2  75 11 0 0 3.44523364485983
0

0101000
+265 0 -263 0 *
Ve
1e-07
246.603908241291 134.733865760408 0
0 0

0101101
*
Ed
 1e-07 1 1 0
1  39 0 0 0.526355140186922
2  76 22 0 0 0.526355140186922
2  77 11 0 0 0.526355140186922
0

0101000
+263 0 -261 0 *
Ve
1e-07
246.603908241291 135.260220900595 0
0 0

0101101
*
Ed
 1e-07 1 1 0
1  40 0 0 0.526355140186922
2  78 22 0 0 0.526355140186922
2  79 11 0 0 0.526355140186922
0

0101000
+261 0 -259 0 *
Ve
1e-07
221.747665505522 135.260220900595 0
0 0

0101101
*
Ed
 1e-07 1 1 0
1  41 0 0 24.8562427357689
2  80 22 0 0 24.8562427357689
2  81 11 0 0 24.8562427357689
0

0101000
+259 0 -257 0 *
Ve
1e-07
221.747665505522 134.733865760408 0
0 0

0101101
*
Ed
 1e-07 1 1 0
1  42 0 3.44513364485982 3.97148878504674
2  82 11 0 3.44513364485982 3.97148878504674
0

0101000
+255 0 -257 0 *
Ve
1e-07
222.274120645709 134.733865760408 0
0 0

0101101
*
Ed
 1e-07 1 1 0
1  43 0 8.86963661852167 9.39609175870859
2  83 22 0 8.86963661852167 9.39609175870859
2  84 11 0 8.86963661852167 9.39609175870859
0

0101000
+255 0 -253 0 *
Ve
1e-07
222.274120645709 131.288632115548 0
0 0

0101101
*
Ed
 1e-07 1 1 0
1  44 0 0 3.44523364485983
2  85 22 0 0 3.44523364485983
2  86 11 0 0 3.44523364485983
0

0101000
+253 0 -251 0 *
Ed
 1e-07 1 1 0
1  45 0 0 12.3147702633815
2  87 22 0 0 12.3147702633815
2  88 11 0 0 12.3147702633815
0

0101000
+251 0 -323 0 *
Wi

0101100
-272 0 -270 0 -268 0 -266 0 -264 0 -262 0 -260 0 -258 0 -256 0 +254 0 
-252 0 -250 0 -249 0 -322 0 *
Fa
0  1e-07 11 0

0101000
+248 0 *
Ve
1.00000331975226e-07
176.154970263381 174.823857264231 0
0 0

0101101
*
Ed
 1e-07 1 1 0
1  46 0 0 3.44523364485977
2  89 13 0 0 3.44523364485977
0

0101000
+315 0 -246 0 *
Ve
1.00000094599589e-07
189.779303313509 174.823857264231 0
0 0

0101101
*
Ed
 1e-07 1 1 0
1  47 0 0 13.6243330501275
2  90 23 0 0 13.6243330501275
2  91 13 0 0 13.6243330501275
0

0101000
+244 0 -246 0 *
Ed
 1e-07 1 1 0
1  48 0 0 3.44523364485977
2  92 13 0 0 3.44523364485977
0

0101000
+244 0 -317 0 *
Wi

0101100
+314 0 +245 0 -243 0 +242 0 *
Fa
0  1e-07 13 0

0111000
+241 0 *
Ve
1.00000099475983e-07
100.751333899745 149.454409515718 0
0 0

0101101
*
Ed
 1e-07 1 1 0
1  49 0 0 3.4452336448598
2  93 16 0 0 3.4452336448598
0

0101000
+307 0 -239 0 *
Ve
1e-07
115.158674596432 149.454409515718 0
0 0

0101101
*
Ed
 1e-07 1 1 0
1  50 0 0 14.4073406966865
2  94 16 0 0 14.4073406966865
2  95 24 0 0 14.4073406966865
0

0101000
+239 0 -237 0 *
Ed
 1e-07 1 1 0
1  51 0 0 3.4452336448598
2  96 16 0 0 3.4452336448598
0

0101000
+237 0 -309 0 *
Wi

0101100
+238 0 +236 0 +235 0 +306 0 *
Fa
0  1e-07 16 0

0111000
+234 0 *
Ve
1.00000326849658e-07
97.3061002548853 126.903789294817 0
0 0

0101101
*
Ed
 1e-07 1 1 0
1  52 0 0 3.44523364485981
2  97 19 0 0 3.44523364485981
0

0101000
+303 0 -232 0 *
Ve
1e-07
97.3061002548853 141.624333050127 0
0 0

0101101
*
Ed
 1e-07 1 1 0
1  53 0 0 14.7205437553101
2  98 19 0 0 14.7205437553101
2  99 25 0 0 14.7205437553101
0

0101000
+232 0 -230 0 *
Ed
 1e-07 1 1 0
1  54 0 0 3.44523364485981
2  100 19 0 0 3.44523364485981
0

0101000
+230 0 -305 0 *
Wi

0101100
+231 0 +229 0 +228 0 +302 0 *
Fa
0  1e-07 19 0

0111000
+227 0 *
Ve
1e-07
96.3664910790144 96.8362956669499 0
0 0

0101101
*
Ve
1e-07
82.5855564995752 96.8362956669499 0
0 0

0101101
*
Ed
 1e-07 1 1 0
1  55 0 0 13.7809345794392
2  101 26 0 0 13.7809345794392
2  102 21 0 0 13.7809345794392
0

0101000
+225 0 -224 0 *
Ve
1.00000028421709e-07
66.298997451147 96.8362956669499 0
0 0

0101101
*
Ed
 1e-07 1 1 0
1  56 0 0 16.2865590484282
2  103 27 0 0 16.2865590484282
2  104 21 0 0 16.2865590484282
0

0101000
+224 0 -222 0 *
Ve
1e-07
66.298997451147 83.9949702633815 0
0 0

0101101
*
Ed
 1e-07 1 1 0
1  57 0 0 12.8413254035684
2  105 28 0 0 12.8413254035684
2  106 21 0 0 12.8413254035684
0

0101000
+222 0 -220 0 *
Ve
1e-07
66.298997451147 70.8404418011895 0
0 0

0101101
*
Ed
 1e-07 1 1 0
1  58 0 0 13.154528462192
2  107 29 0 0 13.154528462192
2  108 21 0 0 13.154528462192
0

0101000
+220 0 -218 0 *
Ve
1e-07
66.298997451147 51.7350552251487 0
0 0

0101101
*
Ed
 1e-07 1 1 0
1  59 0 0 19.1053865760408
2  109 30 0 0 19.1053865760408
2  110 21 0 0 19.1053865760408
2  111 31 0 0 19.1053865760408
0

0101000
+218 0 -216 0 *
Ve
1e-07
66.298997451147 40.1465420560748 0
0 0

0101101
*
Ed
 1e-07 1 1 0
1  60 0 0 11.5885131690739
2  112 32 0 0 11.5885131690739
2  113 21 0 0 11.5885131690739
0

0101000
+216 0 -214 0 *
Ve
1e-07
142.094137638063 40.1465420560748 0
0 0

0101101
*
Ed
 1e-07 1 1 0
1  61 0 0 75.7951401869159
2  114 32 0 0 75.7951401869159
2  115 21 0 0 75.7951401869159
0

0101000
+214 0 -212 0 *
Ed
 1e-07 1 1 0
1  62 0 0 59.8217841971113
2  116 32 0 0 59.8217841971113
2  117 21 0 0 59.8217841971113
0

0101000
+212 0 -294 0 *
Ve
1e-07
128.313203058624 83.9949702633815 0
0 0

0101101
*
Ed
 1e-07 1 1 0
1  63 0 26.9354630416312 42.9088190314359
2  118 33 0 26.9354630416312 42.9088190314359
2  119 21 0 26.9354630416312 42.9088190314359
0

0101000
+296 0 -209 0 *
Ve
1e-07
124.867969413764 83.9949702633815 0
0 0

0101101
*
Ed
 1e-07 1 1 0
1  64 0 0 3.4452336448598
2  120 33 0 0 3.4452336448598
2  121 21 0 0 3.4452336448598
0

0101000
+209 0 -207 0 *
Ve
1e-07
124.867969413764 96.8362956669499 0
0 0

0101101
*
Ed
 1e-07 1 1 0
1  65 0 0 12.8413254035684
2  122 33 0 0 12.8413254035684
2  123 21 0 0 12.8413254035684
0

0101000
+207 0 -205 0 *
Ed
 1e-07 1 1 0
1  66 0 0 28.5014783347494
2  124 33 0 0 28.5014783347494
2  125 21 0 0 28.5014783347494
0

0101000
+205 0 -225 0 *
Wi

0101100
-223 0 -221 0 -219 0 -217 0 -215 0 -213 0 -211 0 -210 0 -292 0 -208 0 
-206 0 -204 0 -203 0 *
Fa
0  1e-07 21 0

0101000
+202 0 *
Ve
1.00000044938668e-07
156.814681393373 174.823857264231 0
0 0

0101101
*
Ve
1e-07
156.814681393373 204.891350892099 0
0 0

0101101
*
Ed
 1e-07 1 1 0
1  67 0 0 30.0674936278674
2  126 23 0 0 30.0674936278674
0

0101000
+200 0 -199 0 *
Ve
1e-07
209.745998300765 204.891350892099 0
0 0

0101101
*
Ed
 1e-07 1 1 0
1  68 0 0 52.9313169073917
2  127 23 0 0 52.9313169073917
0

0101000
+199 0 -197 0 *
Ve
1e-07
209.745998300765 174.823857264231 0
0 0

0101101
*
Ed
 1e-07 1 1 0
1  69 0 0 30.0674936278674
2  128 23 0 0 30.0674936278674
0

0101000
+197 0 -195 0 *
Ve
1e-07
201.602718776551 174.823857264231 0
0 0

0101101
*
Ed
 1e-07 1 1 0
1  70 0 0 8.14327952421411
2  129 23 0 0 8.14327952421411
0

0101000
+195 0 -193 0 *
Ed
 1e-07 1 1 0
1  71 0 0 11.8234154630416
2  130 23 0 0 11.8234154630416
0

0101000
+193 0 -244 0 *
Ve
1e-07
164.33155480034 174.823857264231 0
0 0

0101101
*
Ed
 1e-07 1 1 0
1  72 0 0 11.8234154630416
2  131 23 0 0 11.8234154630416
0

0101000
+246 0 -190 0 *
Ed
 1e-07 1 1 0
1  73 0 0 7.51687340696685
2  132 23 0 0 7.51687340696685
0

0101000
+190 0 -200 0 *
Wi

0101100
+198 0 +196 0 +194 0 +192 0 +191 0 +243 0 +189 0 +188 0 *
Fa
0  1e-07 23 0

0111000
+187 0 *
Ve
1e-07
100.751333899745 201.132914188615 0
0 0

0101101
*
Ve
1e-07
100.751333899745 189.231197960918 0
0 0

0101101
*
Ed
 1e-07 1 1 0
1  74 0 0 11.9017162276975
2  133 34 0 0 11.9017162276975
2  134 24 0 0 11.9017162276975
2  135 35 0 0 11.9017162276975
0

0101000
+185 0 -184 0 *
Ed
 1e-07 1 1 0
1  75 0 0 39.7767884451996
2  136 36 0 0 39.7767884451996
2  137 24 0 0 39.7767884451996
0

0101000
+184 0 -239 0 *
Ve
1e-07
153.369447748513 149.454409515718 0
0 0

0101101
*
Ed
 1e-07 1 1 0
1  76 0 0 38.2107731520816
2  138 37 0 0 38.2107731520816
2  139 24 0 0 38.2107731520816
0

0101000
+237 0 -181 0 *
Ve
1e-07
153.369447748513 204.578147833475 0
0 0

0101101
*
Ed
 1e-07 1 1 0
1  77 0 0 55.123738317757
2  140 37 0 0 55.123738317757
2  141 24 0 0 55.123738317757
0

0101000
+181 0 -179 0 *
Ve
1.00000056843419e-07
150.472319456245 204.578147833475 0
0 0

0101101
*
Ed
 1e-07 1 1 0
1  78 0 0 2.89712829226846
2  142 37 0 0 2.89712829226846
2  143 24 0 0 2.89712829226846
0

0101000
+179 0 -177 0 *
Ve
1e-07
150.472319456245 205.144239046201 0
0 0

0101101
*
Ed
 1e-07 1 1 0
1  79 0 0 0.566091212725894
2  144 37 0 0 0.566091212725894
2  145 24 0 0 0.566091212725894
0

0101000
+177 0 -175 0 *
Ve
1.00000201974194e-07
150.472319456245 208.023381478335 0
0 0

0101101
*
Ed
 1e-07 1 1 0
1  80 0 0 2.8791424321339
2  146 24 0 0 2.8791424321339
2  147 37 0 0 2.8791424321339
0

0101000
+173 0 -175 0 *
Ve
1.00000255795385e-07
136.847986406117 208.023381478335 0
0 0

0101101
*
Ed
 1e-07 1 1 0
1  81 0 5.81600679694114 19.4403398470688
2  148 24 0 5.81600679694114 19.4403398470688
0

0101000
+171 0 -173 0 *
Ve
1.00000056843419e-07
136.847986406117 204.578147833475 0
0 0

0101101
*
Ed
 1e-07 1 1 0
1  82 0 0 3.44523364485977
2  149 38 0 0 3.44523364485977
2  150 24 0 0 3.44523364485977
0

0101000
+171 0 -169 0 *
Ve
1e-07
133.950858113849 204.578147833475 0
0 0

0101101
*
Ed
 1e-07 1 1 0
1  78 0 16.5214613423959 19.4185896346644
2  151 38 0 16.5214613423959 19.4185896346644
2  152 24 0 16.5214613423959 19.4185896346644
0

0101000
+169 0 -167 0 *
Ve
1e-07
133.950858113849 204.891350892099 0
0 0

0101101
*
Ed
 1e-07 1 1 0
1  83 0 0 0.3132030586236
2  153 38 0 0 0.3132030586236
2  154 24 0 0 0.3132030586236
0

0101000
+167 0 -165 0 *
Ve
1e-07
130.505624468989 204.891350892099 0
0 0

0101101
*
Ed
 1e-07 1 1 0
1  84 0 0 3.44523364485983
2  155 38 0 0 3.44523364485983
2  156 24 0 0 3.44523364485983
0

0101000
+165 0 -163 0 *
Ve
1e-07
130.505624468989 215.853457943925 0
0 0

0101101
*
Ed
 1e-07 1 1 0
1  85 0 0 10.9621070518267
2  157 38 0 0 10.9621070518267
2  158 24 0 0 10.9621070518267
0

0101000
+163 0 -161 0 *
Ve
1e-07
100.751333899745 215.853457943925 0
0 0

0101101
*
Ed
 1e-07 1 1 0
1  86 0 0 29.7542905692438
2  159 38 0 0 29.7542905692438
2  160 24 0 0 29.7542905692438
0

0101000
+161 0 -159 0 *
Ed
 1e-07 1 1 0
1  87 0 0 14.7205437553101
2  161 38 0 0 14.7205437553101
2  162 24 0 0 14.7205437553101
0

0101000
+159 0 -185 0 *
Wi

0101100
-183 0 -182 0 -236 0 -180 0 -178 0 -176 0 -174 0 +172 0 +170 0 -168 0 
-166 0 -164 0 -162 0 -160 0 -158 0 -157 0 *
Fa
0  1e-07 24 0

0101000
+156 0 *
Ve
1.00000000111022e-07
0.526355140186912 204.578147833475 0
0 0

0101101
*
Ve
1.00000000222045e-07
0.526355140186912 178.269090909091 0
0 0

0101101
*
Ed
 1e-07 1 1 0
1  88 0 3.44523364485974 29.7542905692438
2  163 39 0 3.44523364485974 29.7542905692438
2  164 25 0 3.44523364485974 29.7542905692438
0

0101000
+154 0 -153 0 *
Ve
1.00000000222045e-07
0.526355140186912 164.801359388275 0
0 0

0101101
*
Ed
 1e-07 1 1 0
1  89 0 0 13.4677315208156
2  165 40 0 0 13.4677315208156
2  166 25 0 0 13.4677315208156
0

0101000
+153 0 -151 0 *
Ve
1e-07
0.526355140186912 153.839252336449 0
0 0

0101101
*
Ed
 1e-07 1 1 0
1  90 0 0 10.9621070518267
2  167 41 0 0 10.9621070518267
2  168 25 0 0 10.9621070518267
0

0101000
+151 0 -149 0 *
Ve
1e-07
55.6500934579439 153.839252336449 0
0 0

0101101
*
Ed
 1e-07 1 1 0
1  91 0 0 55.123738317757
2  169 41 0 0 55.123738317757
2  170 25 0 0 55.123738317757
0

0101000
+149 0 -147 0 *
Ve
1e-07
55.6500934579439 140.371520815633 0
0 0

0101101
*
Ed
 1e-07 1 1 0
1  92 0 0 13.4677315208156
2  171 41 0 0 13.4677315208156
2  172 25 0 0 13.4677315208156
0

0101000
+147 0 -145 0 *
Ve
1.00000326849658e-07
55.6500934579439 126.903789294817 0
0 0

0101101
*
Ed
 1e-07 1 1 0
1  93 0 0 13.4677315208156
2  173 42 0 0 13.4677315208156
2  174 25 0 0 13.4677315208156
0

0101000
+145 0 -143 0 *
Ed
 1e-07 1 1 0
1  94 0 45.1012404418012 86.7572472387426
2  175 43 0 45.1012404418012 86.7572472387426
2  176 25 0 45.1012404418012 86.7572472387426
0

0101000
+143 0 -232 0 *
Ve
1e-07
97.3061002548853 156.658079864061 0
0 0

0101101
*
Ed
 1e-07 1 1 0
1  95 0 0 15.0337468139337
2  177 44 0 0 15.0337468139337
2  178 25 0 0 15.0337468139337
0

0101000
+230 0 -140 0 *
Ve
1e-07
70.370637213254 156.658079864061 0
0 0

0101101
*
Ed
 1e-07 1 1 0
1  96 0 0 26.9354630416313
2  179 44 0 0 26.9354630416313
2  180 25 0 0 26.9354630416313
0

0101000
+140 0 -138 0 *
Ve
1e-07
70.370637213254 215.853457943925 0
0 0

0101101
*
Ed
 1e-07 1 1 0
1  97 0 0 59.195378079864
2  181 44 0 0 59.195378079864
2  182 25 0 0 59.195378079864
0

0101000
+138 0 -136 0 *
Ve
1e-07
24.0165845369584 215.853457943925 0
0 0

0101101
*
Ed
 1e-07 1 1 0
1  98 0 0 46.3540526762957
2  183 44 0 0 46.3540526762957
2  184 25 0 0 46.3540526762957
0

0101000
+136 0 -134 0 *
Ve
1e-07
24.0165845369584 204.891350892099 0
0 0

0101101
*
Ed
 1e-07 1 1 0
1  99 0 0 10.9621070518267
2  185 44 0 0 10.9621070518267
2  186 25 0 0 10.9621070518267
0

0101000
+134 0 -132 0 *
Ve
1e-07
20.5713508920986 204.891350892099 0
0 0

0101101
*
Ed
 1e-07 1 1 0
1  100 0 0 3.44523364485981
2  187 44 0 0 3.44523364485981
2  188 25 0 0 3.44523364485981
0

0101000
+132 0 -130 0 *
Ve
1e-07
20.5713508920986 204.578147833475 0
0 0

0101101
*
Ed
 1e-07 1 1 0
1  101 0 0 0.3132030586236
2  189 45 0 0 0.3132030586236
2  190 25 0 0 0.3132030586236
0

0101000
+130 0 -128 0 *
Ed
 1e-07 1 1 0
1  102 0 0 20.0449957519116
2  191 45 0 0 20.0449957519116
2  192 25 0 0 20.0449957519116
0

0101000
+128 0 -154 0 *
Wi

0101100
-152 0 -150 0 -148 0 -146 0 -144 0 -142 0 -141 0 -229 0 -139 0 -137 0 
-135 0 -133 0 -131 0 -129 0 -127 0 -126 0 *
Fa
0  1e-07 25 0

0101000
+125 0 *
Ve
1.00000014210855e-07
82.5855564995752 100.28152931181 0
0 0

0101101
*
Ed
 1e-07 1 1 0
1  103 0 0 3.44523364485981
2  193 26 0 0 3.44523364485981
0

0101000
+224 0 -123 0 *
Ve
1e-07
96.3664910790144 100.28152931181 0
0 0

0101101
*
Ed
 1e-07 1 1 0
1  104 0 0 13.7809345794392
2  194 26 0 0 13.7809345794392
2  195 46 0 0 13.7809345794392
0

0101000
+123 0 -121 0 *
Ed
 1e-07 1 1 0
1  105 0 0 3.44523364485981
2  196 26 0 0 3.44523364485981
0

0101000
+121 0 -225 0 *
Wi

0101100
+122 0 +120 0 +119 0 +223 0 *
Fa
0  1e-07 26 0

0111000
+118 0 *
Ve
1.00000025618983e-07
62.8537638062872 83.9949702633815 0
0 0

0101101
*
Ed
 1e-07 1 1 0
1  106 0 0 3.44523364485981
2  197 28 0 0 3.44523364485981
0

0101000
+220 0 -116 0 *
Ve
1.00000025618983e-07
62.8537638062872 96.8362956669499 0
0 0

0101101
*
Ed
 1e-07 1 1 0
1  107 0 0 12.8413254035684
2  198 47 0 0 12.8413254035684
2  199 28 0 0 12.8413254035684
0

0101000
+114 0 -116 0 *
Ed
 1e-07 1 1 0
1  108 0 0 3.44523364485981
2  200 28 0 0 3.44523364485981
0

0101000
+114 0 -222 0 *
Wi

0101100
+115 0 -113 0 +112 0 +219 0 *
Fa
0  1e-07 28 0

0111000
+111 0 *
Ve
1e-07
62.8537638062872 51.7350552251487 0
0 0

0101101
*
Ed
 1e-07 1 1 0
1  109 0 0 3.44523364485981
2  201 31 0 0 3.44523364485981
0

0101000
+216 0 -109 0 *
Ve
1e-07
62.8537638062872 70.8404418011895 0
0 0

0101101
*
Ed
 1e-07 1 1 0
1  110 0 0 19.1053865760408
2  202 31 0 0 19.1053865760408
0

0101000
+109 0 -107 0 *
Ed
 1e-07 1 1 0
1  111 0 0 3.44523364485981
2  203 31 0 0 3.44523364485981
0

0101000
+107 0 -218 0 *
Wi

0101100
+108 0 +106 0 +105 0 +215 0 *
Fa
0  1e-07 31 0

0111000
+104 0 *
Ve
1e-07
97.3061002548853 189.231197960918 0
0 0

0101101
*
Ed
 1e-07 1 1 0
1  112 0 0 3.44523364485981
2  204 35 0 0 3.44523364485981
0

0101000
+184 0 -102 0 *
Ve
1.00000113686838e-07
97.3061002548853 201.132914188615 0
0 0

0101101
*
Ed
 1e-07 1 1 0
1  113 0 0 11.9017162276975
2  205 48 0 0 11.9017162276975
2  206 49 0 0 11.9017162276975
2  207 35 0 0 11.9017162276975
0

0101000
+102 0 -100 0 *
Ed
 1e-07 1 1 0
1  114 0 0 3.44523364485981
2  208 35 0 0 3.44523364485981
0

0101000
+100 0 -185 0 *
Wi

0101100
+101 0 +99 0 +98 0 +183 0 *
Fa
0  1e-07 35 0

0111000
+97 0 *
Ve
1e-07
-2.9188785046729 164.801359388275 0
0 0

0101101
*
Ed
 1e-07 1 1 0
1  115 0 0 3.44523364485981
2  209 40 0 0 3.44523364485981
0

0101000
+151 0 -95 0 *
Ve
1e-07
-2.9188785046729 178.269090909091 0
0 0

0101101
*
Ed
 1e-07 1 1 0
1  116 0 0 13.4677315208156
2  210 40 0 0 13.4677315208156
0

0101000
+95 0 -93 0 *
Ed
 1e-07 1 1 0
1  117 0 0 3.44523364485981
2  211 40 0 0 3.44523364485981
0

0101000
+93 0 -153 0 *
Wi

0101100
+94 0 +92 0 +91 0 +150 0 *
Fa
0  1e-07 40 0

0111000
+90 0 *
Ve
1.00000326849658e-07
52.2048598130841 126.903789294817 0
0 0

0101101
*
Ed
 1e-07 1 1 0
1  118 0 0 3.44523364485981
2  212 42 0 0 3.44523364485981
0

0101000
+143 0 -88 0 *
Ve
1e-07
52.2048598130841 140.371520815633 0
0 0

0101101
*
Ed
 1e-07 1 1 0
1  119 0 0 13.4677315208156
2  213 50 0 0 13.4677315208156
2  214 51 0 0 13.4677315208156
2  215 42 0 0 13.4677315208156
0

0101000
+88 0 -86 0 *
Ed
 1e-07 1 1 0
1  120 0 0 3.44523364485981
2  216 42 0 0 3.44523364485981
0

0101000
+86 0 -145 0 *
Wi

0101100
+87 0 +85 0 +84 0 +142 0 *
Fa
0  1e-07 42 0

0111000
+83 0 *
Ve
1e-07
0.526355140186912 208.023381478335 0
0 0

0101101
*
Ed
 1e-07 1 1 0
1  121 0 0 3.4452336448598
2  217 45 0 0 3.4452336448598
0

0101000
+154 0 -81 0 *
Ve
1e-07
20.5713508920986 208.023381478335 0
0 0

0101101
*
Ed
 1e-07 1 1 0
1  122 0 0 20.0449957519116
2  218 45 0 0 20.0449957519116
0

0101000
+81 0 -79 0 *
Ed
 1e-07 1 1 0
1  123 0 0 3.1320305862362
2  219 45 0 0 3.1320305862362
0

0101000
+79 0 -130 0 *
Wi

0101100
+126 0 +80 0 +78 0 +77 0 +127 0 *
Fa
0  1e-07 45 0

0111000
+76 0 *
Ve
1e-07
124.867969413764 100.28152931181 0
0 0

0101101
*
Ed
 1e-07 1 1 0
1  124 0 0 28.5014783347494
2  220 52 0 0 28.5014783347494
2  221 46 0 0 28.5014783347494
0

0101000
+121 0 -74 0 *
Ve
1e-07
124.867969413764 123.458555649958 0
0 0

0101101
*
Ed
 1e-07 1 1 0
1  125 0 0 23.1770263381478
2  222 52 0 0 23.1770263381478
2  223 46 0 0 23.1770263381478
0

0101000
+74 0 -72 0 *
Ve
1e-07
82.5855564995752 123.458555649958 0
0 0

0101101
*
Ed
 1e-07 1 1 0
1  126 0 0 42.2824129141886
2  224 52 0 0 42.2824129141886
2  225 46 0 0 42.2824129141886
0

0101000
+72 0 -70 0 *
Ve
1e-07
82.5855564995752 120.952931180969 0
0 0

0101101
*
Ed
 1e-07 1 1 0
1  127 0 0 2.50562446898896
2  226 52 0 0 2.50562446898896
2  227 46 0 0 2.50562446898896
0

0101000
+70 0 -68 0 *
Ve
1e-07
82.5855564995752 110.930433305013 0
0 0

0101101
*
Ed
 1e-07 1 1 0
1  128 0 0 10.0224978759558
2  228 53 0 0 10.0224978759558
2  229 46 0 0 10.0224978759558
0

0101000
+68 0 -66 0 *
Ed
 1e-07 1 1 0
1  129 0 0 10.6489039932027
2  230 54 0 0 10.6489039932027
2  231 46 0 0 10.6489039932027
0

0101000
+66 0 -123 0 *
Wi

0101100
-73 0 -71 0 -69 0 -67 0 -65 0 -64 0 -120 0 *
Fa
0  1e-07 46 0

0101000
+63 0 *
Ve
1e-07
41.8691588785047 123.458555649958 0
0 0

0101101
*
Ve
1.00000249323564e-07
62.8537638062872 123.458555649958 0
0 0

0101101
*
Ed
 1e-07 1 1 0
1  130 0 0 20.9846049277825
2  232 47 0 0 20.9846049277825
0

0101000
+61 0 -60 0 *
Ve
1.00000199743408e-07
62.8537638062872 122.932200509771 0
0 0

0101101
*
Ed
 1e-07 1 1 0
1  131 0 0 0.526355140186908
2  233 47 0 0 0.526355140186908
0

0101000
+60 0 -58 0 *
Ve
1.00000206821647e-07
62.8537638062872 100.807884451997 0
0 0

0101101
*
Ed
 1e-07 1 1 0
1  132 0 0 22.124316057774
2  234 47 0 0 22.124316057774
0

0101000
+58 0 -56 0 *
Ed
 1e-07 1 1 0
1  133 0 0 3.97158878504672
2  235 47 0 0 3.97158878504672
0

0101000
+56 0 -114 0 *
Ve
1e-07
41.8691588785047 83.9949702633815 0
0 0

0101101
*
Ed
 1e-07 1 1 0
1  134 0 0 20.9846049277825
2  236 47 0 0 20.9846049277825
0

0101000
+116 0 -53 0 *
Ed
 1e-07 1 1 0
1  135 0 0 39.463585386576
2  237 47 0 0 39.463585386576
0

0101000
+53 0 -61 0 *
Wi

0101100
+59 0 +57 0 +55 0 +54 0 +113 0 +52 0 +51 0 *
Fa
0  1e-07 47 0

0111000
+50 0 *
Ve
1e-07
82.5855564995752 201.132914188615 0
0 0

0101101
*
Ve
1e-07
73.8158708581138 201.132914188615 0
0 0

0101101
*
Ed
 1e-07 1 1 0
1  136 0 0 8.76968564146135
2  238 55 0 0 8.76968564146135
2  239 49 0 0 8.76968564146135
0

0101000
+48 0 -47 0 *
Ve
1e-07
73.8158708581138 160.103313508921 0
0 0

0101101
*
Ed
 1e-07 1 1 0
1  137 0 0 41.0296006796941
2  240 55 0 0 41.0296006796941
2  241 49 0 0 41.0296006796941
0

0101000
+47 0 -45 0 *
Ve
1e-07
97.3061002548853 160.103313508921 0
0 0

0101101
*
Ed
 1e-07 1 1 0
1  138 0 0 23.4902293967715
2  242 55 0 0 23.4902293967715
2  243 49 0 0 23.4902293967715
0

0101000
+45 0 -43 0 *
Ed
 1e-07 1 1 0
1  139 0 0 29.1278844519966
2  244 55 0 0 29.1278844519966
2  245 49 0 0 29.1278844519966
0

0101000
+43 0 -102 0 *
Ve
1e-07
91.9816482582838 201.132914188615 0
0 0

0101101
*
Ed
 1e-07 1 1 0
1  140 0 3.44523364485981 8.76968564146134
2  246 56 0 3.44523364485981 8.76968564146134
2  247 49 0 3.44523364485981 8.76968564146134
0

0101000
+100 0 -40 0 *
Ed
 1e-07 1 1 0
1  141 0 0 9.39609175870858
2  248 57 0 0 9.39609175870858
2  249 49 0 0 9.39609175870858
0

0101000
+40 0 -48 0 *
Wi

0101100
-46 0 -44 0 -42 0 -41 0 -99 0 -39 0 -38 0 *
Fa
0  1e-07 49 0

0101000
+37 0 *
Ve
1e-07
10.5488530161427 146.009175870858 0
0 0

0101101
*
Ve
1e-07
10.5488530161427 134.733865760408 0
0 0

0101101
*
Ed
 1e-07 1 1 0
1  142 0 0 11.2753101104503
2  250 58 0 0 11.2753101104503
2  251 51 0 0 11.2753101104503
2  252 59 0 0 11.2753101104503
0

0101000
+35 0 -34 0 *
Ve
1e-07
10.5488530161427 126.903789294817 0
0 0

0101101
*
Ed
 1e-07 1 1 0
1  143 0 0 7.83007646559048
2  253 60 0 0 7.83007646559048
2  254 51 0 0 7.83007646559048
0

0101000
+34 0 -32 0 *
Ed
 1e-07 1 1 0
1  144 0 0 41.6560067969414
2  255 60 0 0 41.6560067969414
2  256 51 0 0 41.6560067969414
0

0101000
+32 0 -88 0 *
Ve
1e-07
52.2048598130841 150.394018691589 0
0 0

0101101
*
Ed
 1e-07 1 1 0
1  145 0 0 10.0224978759558
2  257 61 0 0 10.0224978759558
2  258 51 0 0 10.0224978759558
0

0101000
+86 0 -29 0 *
Ve
1e-07
10.5488530161427 150.394018691589 0
0 0

0101101
*
Ed
 1e-07 1 1 0
1  146 0 0 41.6560067969414
2  259 61 0 0 41.6560067969414
2  260 51 0 0 41.6560067969414
0

0101000
+29 0 -27 0 *
Ed
 1e-07 1 1 0
1  147 0 0 4.38484282073065
2  261 61 0 0 4.38484282073065
2  262 51 0 0 4.38484282073065
0

0101000
+27 0 -35 0 *
Wi

0101100
-33 0 -31 0 -30 0 -85 0 -28 0 -26 0 -25 0 *
Fa
0  1e-07 51 0

0101000
+24 0 *
Ve
1e-07
79.1403228547154 110.930433305013 0
0 0

0101101
*
Ed
 1e-07 1 1 0
1  148 0 0 3.44523364485983
2  263 53 0 0 3.44523364485983
0

0101000
+66 0 -22 0 *
Ve
1e-07
79.1403228547154 120.952931180969 0
0 0

0101101
*
Ed
 1e-07 1 1 0
1  149 0 0 10.0224978759558
2  264 53 0 0 10.0224978759558
0

0101000
+22 0 -20 0 *
Ed
 1e-07 1 1 0
1  150 0 0 3.44523364485983
2  265 53 0 0 3.44523364485983
0

0101000
+20 0 -68 0 *
Wi

0101100
+21 0 +19 0 +18 0 +65 0 *
Fa
0  1e-07 53 0

0111000
+17 0 *
Ve
1e-07
82.5855564995752 204.578147833475 0
0 0

0101101
*
Ed
 1e-07 1 1 0
1  151 0 0 3.44523364485983
2  266 57 0 0 3.44523364485983
0

0101000
+48 0 -15 0 *
Ve
1e-07
91.9816482582838 204.578147833475 0
0 0

0101101
*
Ed
 1e-07 1 1 0
1  152 0 0 9.39609175870858
2  267 57 0 0 9.39609175870858
0

0101000
+15 0 -13 0 *
Ed
 1e-07 1 1 0
1  153 0 0 3.44523364485983
2  268 57 0 0 3.44523364485983
0

0101000
+13 0 -40 0 *
Wi

0101100
+14 0 +12 0 +11 0 +38 0 *
Fa
0  1e-07 57 0

0111000
+10 0 *
Ve
1e-07
7.10361937128292 134.733865760408 0
0 0

0101101
*
Ed
 1e-07 1 1 0
1  154 0 0 3.44523364485981
2  269 59 0 0 3.44523364485981
0

0101000
+34 0 -8 0 *
Ve
1e-07
7.10361937128292 146.009175870858 0
0 0

0101101
*
Ed
 1e-07 1 1 0
1  155 0 0 11.2753101104503
2  270 59 0 0 11.2753101104503
0

0101000
+8 0 -6 0 *
Ed
 1e-07 1 1 0
1  156 0 0 3.44523364485981
2  271 59 0 0 3.44523364485981
0

0101000
+6 0 -35 0 *
Wi

0101100
+7 0 +5 0 +4 0 +33 0 *
Fa
0  1e-07 59 0

0111000
+3 0 *
Sh

0101000
+297 0 +290 0 +283 0 +274 0 +247 0 +240 0 +233 0 +226 0 +201 0 +186 0 
+155 0 +124 0 +117 0 +110 0 +103 0 +96 0 +89 0 +82 0 +75 0 +62 0 
+49 0 +36 0 +23 0 +16 0 +9 0 +2 0 *

+1 0 