
CASCADE Topology V3, (c) Open Cascade
Locations 0
Curve2ds 271
1 7.203670348343266 -1.7226168224298704 0 1 
1 7.203670348343266 1.7226168224299272 -1 0 
1 25.237809474174881 -32.119024115086404 -1 0 
1 -7.2036703483432234 1.7226168224299272 0 -1 
1 -7.2036703483432234 -1.7226168224298704 1 0 
1 73.795293319926898 37.146494957412216 1 0 
1 -1.7226168224298846 5.9508581138487671 0 -1 
1 25.237809474174881 19.559480557810787 0 -1 
1 -29.835315868827308 0.91568065172498336 0 -1 
1 25.237809474174881 7.6577643301132525 0 -1 
1 32.75048728277612 -18.354749676813697 -1 0 
1 10.830468777488392 -32.119024115086404 -1 0 
1 -5.4602858693054372 -18.354749676813697 0 1 
1 -27.380304374593166 -32.119024115086404 0 1 
1 -5.4602858693054372 36.76898864094332 1 0 
1 -27.380304374593166 23.004714202670613 1 0 
1 -6.8121665250637591 -1.7226168224298988 1 0 
1 -24.483176082324704 23.004714202670641 1 0 
1 -39.29242107016016 -7.9919585522658565 1 0 
1 -27.380304374593166 23.004714202670613 1 0 
1 -19.873831435495774 -7.9919585522658565 0 1 
1 -7.9617147399287802 23.004714202670613 0 1 
1 -19.873831435495774 -7.6787554936422566 1 0 
1 -7.9617147399287802 23.317917261294212 1 0 
1 -16.428597790635948 -7.6787554936422566 0 1 
1 -4.5164810950689542 23.317917261294212 0 1 
1 -16.428597790635948 3.283351558184421 1 0 
1 -4.5164810950689542 34.28002431312089 1 0 
1 13.325692778607888 3.283351558184421 0 -1 
1 25.237809474174881 34.28002431312089 0 -1 
1 6.8904672897196519 1.7226168224298988 -1 0 
1 60.640764857734894 -5.4491210154000242 -1 0 
1 -13.79645149926435 53.666818907101558 -1 0 
1 46.859830278295618 -5.4491210154000242 -1 0 
1 -17.241685144124148 53.666818907101558 0 -1 
1 43.414596633435821 -5.4491210154000242 0 -1 
1 -17.241685144124148 -9.6001989348695602 -1 0 
1 43.414596633435821 -68.716138857371135 -1 0 
1 8.9262871707731506 1.7226168224299059 -1 0 
1 -1.0602376911181182 -68.716138857371135 -1 0 
1 3.0910507467901027 -10.220079244713702 -1 0 
1 -18.912812032664419 -68.716138857371135 -1 0 
1 1.5250354536719897 -10.220079244713702 0 1 
1 -20.478827325782532 -68.716138857371135 0 1 
1 1.7226168224298988 -10.648903993203078 0 1 
1 -20.478827325782532 -43.659894167481596 0 1 
1 20.502465941810215 -35.553054323381915 0 1 
1 -20.478827325782532 -22.362086181075469 0 1 
1 20.502465941810215 -4.8591545782672227 -1 0 
1 -20.478827325782532 8.3318135640392228 -1 0 
1 23.258792422325371 4.6052305868878847 0 1 
1 -21.005382465969461 8.3317135640392195 0 1 
1 7.6611405382418241 9.2349830597956384 1 0 
1 -33.320152729350923 22.425951202102084 1 0 
1 20.502465941810215 9.2349830597956384 0 1 
1 -20.478827325782532 22.425951202102084 0 1 
1 20.502465941810215 49.324974563618923 1 0 
1 -20.478827325782532 62.515942705925369 1 0 
1 -18.635581988105372 -1.7226168224299272 1 0 
1 -12.648750860192052 62.515942705925369 1 0 
1 -16.422392921132115 3.5694644268396587 1 0 
1 24.622413116018663 62.515942705925369 1 0 
1 -8.9055195141652632 3.5694644268396587 0 -1 
1 32.139286522985515 62.515942705925369 0 -1 
1 -8.9055195141652632 -21.799983321673494 1 0 
1 32.139286522985515 37.146494957412216 1 0 
1 -29.835315868827308 0.91568065172498336 0 -1 
1 88.202634016613388 80.36851704747167 0 -1 
1 -1.7226168224298988 7.360271877655066 0 -1 
1 88.202634016613388 32.761652136681533 0 -1 
1 72.23622421675006 9.730768973103963 -1 0 
1 178.40511490021575 18.04110838137143 -1 0 
1 -45.528125825730811 9.730768973103963 0 -1 
1 60.640764857734894 18.04110838137143 0 -1 
1 -1.7226168224298846 -5.9508581138487671 1 0 
1 1.7226168224299272 -5.9508581138487671 0 1 
1 -11.74511469838572 8.7696856414613364 0 1 
1 1.7226168224299272 5.9508581138487671 -1 0 
1 6.8121665250637022 -1.7226168224298988 0 1 
1 6.8121665250637022 1.7226168224298988 -1 0 
1 63.543133106469668 15.112947382625151 -1 0 
1 -6.8121665250637591 1.7226168224298704 0 -1 
1 6.8904672897196519 -1.722616822429913 0 1 
1 -6.8904672897196235 1.7226168224298988 0 -1 
1 -6.8904672897196235 -1.722616822429913 1 0 
1 -37.192418039803769 30.616044152209838 1 0 
1 8.9262871707731506 -1.7226168224299059 0 1 
1 -8.9262871707731506 1.7226168224299059 0 -1 
1 -8.9262871707731506 -1.7226168224299059 1 0 
1 -1.7226168224298988 -10.648903993203078 1 0 
1 1.7226168224298988 10.648903993203049 -1 0 
1 1.4094137638062705 10.648903993203049 -1 0 
1 -1.7226168224298988 10.648903993203049 0 -1 
1 20.502465941810215 -4.8591545782672227 -1 0 
1 23.7853475625123 4.605330586887888 -1 0 
1 17.057232296950417 -4.8591545782672227 0 -1 
1 20.340113917652502 4.605330586887888 0 -1 
1 17.057232296950417 -32.107820678522103 -1 0 
1 20.340113917652502 -22.643335513366992 -1 0 
1 -25.538383675861837 -32.107820678522103 0 1 
1 -22.255502055159752 -22.643335513366992 0 1 
1 -25.538383675861837 9.2349830597956384 1 0 
1 -22.255502055159752 18.699468224950749 1 0 
1 -16.142291917153244 9.2349830597956384 0 1 
1 -12.859410296451159 18.699468224950749 0 1 
1 -16.142291917153244 12.680216704655464 -1 0 
1 -12.859410296451159 22.144701869810575 -1 0 
1 -16.668647057340166 12.680216704655464 0 1 
1 -13.385765436638081 22.144701869810575 0 1 
1 -16.668647057340166 13.206571844842387 1 0 
1 -13.385765436638081 22.671057009997497 1 0 
1 11.470477299130835 18.699568224950752 0 1 
1 17.057232296950417 12.680216704655464 -1 0 
1 20.340113917652502 22.144701869810575 -1 0 
1 7.6611405382418241 12.680216704655464 0 -1 
1 10.944022158943909 22.144701869810575 0 -1 
1 7.6611405382418241 9.2349830597956384 1 0 
1 10.944022158943909 18.699468224950749 1 0 
1 18.635581988105343 -1.7226168224299272 0 1 
1 18.635581988105343 1.7226168224298988 -1 0 
1 36.059564712247067 -18.08657683147851 -1 0 
1 -18.635581988105372 1.7226168224298988 0 -1 
1 -1.7226168224298988 -7.3602718776550375 1 0 
1 1.722616822429913 -7.3602718776550375 0 1 
1 -47.977462890074399 -43.435849801865146 0 1 
1 1.722616822429913 7.360271877655066 -1 0 
1 -11.669538468657393 12.817396879422517 1 0 
1 2.9754290569243835 20.671401869158871 1 0 
1 -2.8998528271960424 12.817396879422517 0 -1 
1 11.745114698385734 20.671401869158871 0 -1 
1 -2.8998528271960424 -28.525406858895224 -1 0 
1 11.745114698385734 -20.671401869158871 -1 0 
1 -26.390082223967497 -28.525406858895224 0 1 
1 -11.74511469838572 -20.671401869158871 0 1 
1 13.325692778607888 -11.437192197125682 1 0 
1 -15.190348343245532 20.671401869158871 1 0 
1 -4.6980458793542965 -1.7226168224299272 1 0 
1 -6.4206627017841953 20.671401869158871 1 0 
1 -4.6980458793542965 -1.7226168224299272 1 0 
1 66.440261398727074 15.112947382625123 0 1 
1 66.440261398727074 22.943023848430556 -1 0 
1 -55.082525347553286 22.943023848430556 0 -1 
1 -55.082525347553286 -34.686338938425934 0.99997296822402926 0.0073527424288201016 
1 -40.20307303901086 -34.576931200633851 0.99997296822430182 0.0073527423917603158 
1 -16.350647528452043 -34.401545719455072 0.99847421393529834 0.055219961121754486 
1 -12.486909374413926 -34.187864216545023 0 1 
1 -12.486909374413926 -18.08657683147851 1 0 
1 36.059564712247067 -18.08657683147851 1 0 
1 43.576438119213918 -18.08657683147851 0 1 
1 43.576438119213918 15.112947382625123 0 1 
1 43.576438119213918 15.426150441248751 1 0 
1 47.021671764073744 15.426150441248751 0 -1 
1 47.021671764073744 15.112947382625123 1 0 
1 63.543133106469668 15.112947382625123 1 0 
1 -6.8904672897196235 -1.7226168224298988 1 0 
1 8.5352285192446686 27.48401356597364 1 0 
1 -7.4663254396101735 -4.497962929471413 1 0 
1 22.316163098683916 27.48401356597364 1 0 
1 -1.722616822429913 6.4206627017841953 0 -1 
1 38.602722147112132 27.48401356597364 0 -1 
1 -1.722616822429913 6.4206627017841953 0 -1 
1 -1.722616822429913 6.5772642310959952 0 -1 
1 38.602722147112132 14.64268816240525 0 -1 
1 -1.7226168224298988 9.5526932880203859 0 -1 
1 38.602722147112132 1.488159700213231 0 -1 
1 61.998688687651551 1.9883142342043598 0 -1 
1 38.602722147112132 -17.617226875827548 0 -1 
1 61.998688687651551 -9.6001989348695602 -1 0 
1 38.602722147112132 -29.205740044901468 -1 0 
1 -13.79645149926435 -9.6001989348695602 0 1 
1 -37.192418039803769 -29.205740044901468 0 1 
1 -45.528125825730811 9.730768973103963 0 -1 
1 -23.411483460364494 57.551507193841104 0 -1 
1 -45.528125825730811 -33.178050058331891 1 0 
1 -23.411483460364494 14.64268816240525 1 0 
1 -42.082892180871013 -33.178050058331891 0 1 
1 -19.966249815504696 14.64268816240525 0 1 
1 -42.082892180871013 -20.336724654763501 1 0 
1 -19.966249815504696 27.48401356597364 1 0 
1 -1.7869370782716021 14.432132649621423 0 -1 
1 48.80228222462398 37.683742381652252 0 -1 
1 -1.7226168224299068 6.7338657604078094 0 -1 
1 48.80228222462398 7.9294518124084163 0 -1 
1 24.66277633129609 12.817750979801019 0 -1 
1 48.80228222462398 -5.5382797084072024 0 -1 
1 24.66277633129609 1.8556439279743415 -1 0 
1 48.80228222462398 -16.50038676023388 -1 0 
1 -30.460961986460916 1.8556439279743415 0 -1 
1 -6.3214560931330226 -16.50038676023388 0 -1 
1 -1.7226168224298988 6.7338657604078094 0 -1 
1 -6.3214560931330226 -29.968118281049527 0 -1 
1 72.23622421675006 9.730768973103963 -1 0 
1 38.779784348668166 -43.435849801865146 -1 0 
1 -26.390082223967497 -46.691184259065153 0 1 
1 -47.977462890074399 -28.715306046555042 0 1 
1 -26.390082223967497 -31.97064050375505 1 0 
1 -47.977462890074399 -13.994762291244939 1 0 
1 0.54538081766376934 -31.97064050375505 0 1 
1 -21.041999848443133 -13.994762291244939 0 1 
1 0.54538081766376934 27.537940634732621 1 0 
1 -21.041999848443133 45.513818847242732 1 0 
1 46.899433493959435 27.537940634732621 0 -1 
1 25.312052827852533 45.513818847242732 0 -1 
1 46.899433493959435 16.575833582905943 1 0 
1 25.312052827852533 34.551711795416054 1 0 
1 -10.022497875955819 -1.4094137638063557 0 -1 
1 28.757286472712345 34.551711795416054 0 -1 
1 -10.022497875955819 -1.7226168224299556 1 0 
1 28.757286472712345 34.238508736792454 1 0 
1 4.6980458793542823 -1.7226168224299272 0 1 
1 4.6980458793542823 1.7226168224298988 -1 0 
1 -4.6980458793542965 1.7226168224298988 0 -1 
1 6.8904672897196235 -1.7226168224298988 0 1 
1 6.8904672897196235 1.722616822429913 -1 0 
1 21.141206457094299 -11.58851316907392 -1 0 
1 -6.8904672897196235 1.722616822429913 0 -1 
1 -1.722616822429913 -6.4206627017841953 1 0 
1 -10.492302463891242 -6.8904672897196235 0 -1 
1 1.7226168224298988 6.4206627017841953 0 -1 
1 1.7226168224298988 6.4206627017841953 -1 0 
1 -1.7226168224298988 -9.552693288020393 1 0 
1 1.722616822429913 -9.552693288020393 0 1 
1 1.722616822429913 9.5526932880203859 -1 0 
1 -1.7226168224299068 -6.7338657604078094 1 0 
1 1.7226168224299063 -6.7338657604078094 0 1 
1 1.7226168224299063 6.7338657604078094 -1 0 
1 -1.7226168224298988 -6.7338657604078094 1 0 
1 1.722616822429913 -6.7338657604078094 0 1 
1 -20.828003398470685 -11.745114698385692 0 1 
1 1.722616822429913 -6.7338657604078094 0 1 
1 1.722616822429913 6.7338657604078094 -1 0 
1 10.022497875955819 -1.7226168224299556 0 1 
1 10.022497875955819 1.7226168224298419 -1 0 
1 -10.022497875955819 1.7226168224298419 0 -1 
1 -7.4663254396101735 9.5961747085914624 0 -1 
1 21.141206457094299 -0.93960917587085646 0 -1 
1 -13.581413846121649 -16.891491009903689 -1 0 
1 7.3602718776550518 -11.58851316907392 -1 0 
1 -42.082892180871013 -16.891491009903689 0 1 
1 -21.141206457094313 -11.58851316907392 0 1 
1 -42.082892180871013 6.2855353282441371 1 0 
1 -21.141206457094313 11.588513169073906 1 0 
1 0.19952073331759834 6.2855353282441371 0 -1 
1 21.141206457094299 11.588513169073906 0 -1 
1 -1.722616822429913 5.0112489379778964 0 -1 
1 21.141206457094299 9.0828887000849505 0 -1 
1 -1.722616822429913 5.0112489379778964 0 -1 
1 10.492302463891249 19.731792693288014 -1 0 
1 -10.492302463891242 19.731792693288014 0 -1 
1 -10.492302463891242 19.205437553101106 0 -1 
1 -10.492302463891242 -2.9188785046729038 0 -1 
1 -10.492302463891242 -19.731792693288014 1 0 
1 10.492302463891249 -19.731792693288014 0 1 
1 -1.7226168224299059 5.6376550552251672 0 -1 
1 20.828003398470692 7.3602718776550944 0 -1 
1 72.23622421675006 17.560845438694443 0 -1 
1 20.828003398470692 -3.9150382327952116 0 -1 
1 72.23622421675006 9.730768973103963 -1 0 
1 20.828003398470692 -11.745114698385692 -1 0 
1 -27.015728341601104 -11.612087592841306 0 1 
1 -20.828003398470685 1.7226168224299272 0 1 
1 -27.015728341601104 -1.5895897168854844 1 0 
1 -20.828003398470685 11.745114698385748 1 0 
1 14.640278455340271 -1.5895897168854844 0 -1 
1 20.828003398470692 11.745114698385748 0 -1 
1 -1.722616822429913 -5.0112489379779106 1 0 
1 1.722616822429913 -5.0112489379779106 0 1 
1 1.722616822429913 5.0112489379778964 -1 0 
1 -1.7226168224299059 -5.6376550552251388 1 0 
1 1.7226168224299068 -5.6376550552251388 0 1 
1 1.7226168224299068 5.6376550552251672 -1 0 
Curves 165
1 100.75133389974511 146.00917587085812 0 0 1 0 
1 100.75133389974511 149.45440951571791 0 1 0 0 
1 115.1586745964316 149.45440951571791 0 0 -1 0 
1 115.1586745964316 146.00917587085812 0 -1 0 0 
1 100.75133389974511 201.1329141886151 0 0 -1 0 
1 100.75133389974511 189.23119796091757 0 0 -1 0 
1 115.1586745964316 149.45440951571791 0 1 0 0 
1 153.36944774851315 149.45440951571791 0 0 1 0 
1 153.36944774851315 204.57814783347493 0 -1 0 0 
1 150.47231945624469 204.57814783347496 0 -1 0 0 
1 133.95085811384877 204.57814783347493 0 0 1 0 
1 133.95085811384877 204.89135089209853 0 -1 0 0 
1 130.50562446898894 204.89135089209853 0 0 1 0 
1 130.50562446898894 215.85345794392521 0 -1 0 0 
1 100.75133389974511 215.85345794392521 0 0 -1 0 
1 128.3132030586236 103.41355989804588 0 1 0 0 
1 142.09413763806288 103.41355989804588 0 1 0 0 
1 145.53937128292267 103.41355989804588 0 0 -1 0 
1 145.53937128292267 40.146542056074757 0 1 0 0 
1 190.01420560747661 40.146542056074757 0 1 0 0 
1 207.86677994902291 40.146542056074757 0 1 0 0 
1 209.43279524214103 40.146542056074757 0 0 1 0 
1 209.43279524214103 65.202786745964303 0 0 1 0 
1 209.43279524214103 86.500594732370431 0 0 1 0 
1 209.43279524214103 117.19449447748512 0 1 0 0 
1 209.95935038232795 117.19439447748512 0 0 1 0 
1 222.27412064570942 131.28863211554798 0 -1 0 0 
1 209.43279524214103 131.28863211554798 0 0 1 0 
1 209.43279524214103 171.37862361937127 0 -1 0 0 
1 201.60271877655055 171.37862361937127 0 -1 0 0 
1 164.33155480033983 171.37862361937127 0 -1 0 0 
1 156.81468139337298 171.37862361937127 0 0 -1 0 
1 156.81468139337298 146.00917587085812 0 -1 0 0 
1 100.75133389974511 189.23119796091757 0 0 -1 0 
1 100.75133389974511 141.62433305012743 0 0 -1 0 
1 10.548853016142731 126.90378929481733 0 1 0 0 
1 128.3132030586236 126.90378929481733 0 0 -1 0 
1 100.75133389974511 189.23119796091757 0 -1 0 0 
1 97.306100254885294 189.23119796091757 0 0 1 0 
1 97.306100254885294 201.1329141886151 0 1 0 0 
1 136.84798640611723 204.57814783347496 0 0 1 0 
1 136.84798640611723 208.02338147833476 0 1 0 0 
1 150.47231945624469 208.02338147833473 0 0 -1 0 
1 128.3132030586236 99.968326253186063 0 0 1 0 
1 142.09413763806288 103.41355989804588 0 0 -1 0 
1 142.09413763806288 99.968326253186063 0 -1 0 0 
1 190.01420560747661 36.701308411214946 0 0 1 0 
1 207.86677994902291 40.146542056074757 0 0 -1 0 
1 207.86677994902291 36.701308411214946 0 -1 0 0 
1 212.87802888700082 65.202786745964303 0 -1 0 0 
1 209.43279524214103 86.500594732370431 0 1 0 0 
1 209.74599830076465 86.500594732370431 0 1 0 0 
1 212.87802888700082 86.500594732370431 0 0 -1 0 
1 209.43279524214103 117.19449447748512 0 1 0 0 
1 212.87802888700082 117.19449447748512 0 0 -1 0 
1 212.87802888700082 89.945828377230242 0 1 0 0 
1 255.47364485981308 89.945828377230242 0 0 1 0 
1 255.47364485981308 131.28863211554798 0 -1 0 0 
1 246.07755310110448 131.28863211554798 0 0 1 0 
1 246.07755310110448 134.73386576040781 0 1 0 0 
1 246.60390824129141 134.73386576040781 0 0 1 0 
1 246.60390824129141 135.26022090059473 0 -1 0 0 
1 221.74766550552249 131.28873211554799 0 0 1 0 
1 212.87802888700082 134.73386576040781 0 1 0 0 
1 222.27412064570942 134.73386576040781 0 0 -1 0 
1 222.27412064570942 131.28863211554798 0 -1 0 0 
1 164.33155480033983 171.37862361937127 0 0 1 0 
1 164.33155480033983 174.82385726423109 0 1 0 0 
1 201.60271877655055 174.82385726423109 0 0 -1 0 
1 100.75133389974511 126.90378929481733 0 -1 0 0 
1 97.306100254885294 126.90378929481733 0 0 1 0 
1 97.306100254885294 141.62433305012743 0 1 0 0 
1 82.585556499575191 201.1329141886151 0 -1 0 0 
1 73.81587085811384 201.1329141886151 0 0 -1 0 
1 73.81587085811384 159.79011045029736 0 1 0 0 
1 97.306100254885294 159.79011045029736 0 0 1 0 
1 100.75133389974511 201.1329141886151 0 -1 0 0 
1 91.981648258283769 201.1329141886151 0 -1 0 0 
1 133.95085811385982 208.02338147833473 0 0 1 0 
1 133.95085811385982 215.85345794414016 0 1 0 0 
1 255.47364486014018 215.85345794414016 0 0 -1 0 
1 255.47364486014018 158.22409515728367 0 -0.99997296822402926 0.0073527424288201016 0 
1 240.59419255159776 158.33350289507575 0 -0.99997296822430182 0.0073527423917603158 0 
1 216.74176704103894 158.50888837625453 0 -0.99847421393529834 0.055219961121754486 0 
1 212.87802888700082 158.72256987916458 0 0 1 0 
1 212.87802888700082 174.82385726423109 0 -1 0 0 
1 164.33155480033983 174.82385726423109 0 -1 0 0 
1 156.81468139337298 174.82385726423109 0 0 1 0 
1 156.81468139337298 208.02338147833473 0 0 1 0 
1 156.81468139337298 208.33658453695836 0 -1 0 0 
1 153.36944774851315 208.33658453695836 0 0 -1 0 
1 153.36944774851315 208.02338147833473 0 -1 0 0 
1 136.84798640611723 208.02338147833473 0 -1 0 0 
1 96.366491079014438 96.836295666949866 0 -1 0 0 
1 82.585556499575191 96.836295666949866 0 -1 0 0 
1 66.298997451146974 96.836295666949866 0 0 -1 0 
1 66.298997451146974 83.994970263381475 0 0 -1 0 
1 66.298997451146974 70.840441801189456 0 0 -1 0 
1 66.298997451146974 51.735055225148677 0 0 -1 0 
1 66.298997451146974 40.146542056074757 0 1 0 0 
1 142.09413763806288 40.146542056074757 0 0 1 0 
1 128.3132030586236 126.90378929481733 0 0 -1 0 
1 128.3132030586236 83.994970263381475 0 -1 0 0 
1 124.8679694137638 83.994970263381475 0 0 1 0 
1 124.8679694137638 96.836295666949866 0 -1 0 0 
1 0.52635514018691187 208.02338147833473 0 0 -1 0 
1 0.52635514018691187 178.26909090909089 0 0 -1 0 
1 0.52635514018691187 164.80135938827527 0 0 -1 0 
1 0.52635514018691187 153.8392523364486 0 1 0 0 
1 55.650093457943917 153.8392523364486 0 0 -1 0 
1 55.650093457943917 140.37152081563295 0 0 -1 0 
1 10.548853016142731 126.90378929481733 0 1 0 0 
1 97.306100254885294 141.62433305012743 0 0 1 0 
1 97.306100254885294 156.34487680543754 0 -1 0 0 
1 70.370637213254028 156.34487680543754 0 0 1 0 
1 70.370637213254028 215.85345794392521 0 -1 0 0 
1 24.016584536958362 215.85345794392521 0 0 -1 0 
1 24.016584536958362 204.89135089209853 0 -1 0 0 
1 20.57135089209855 204.89135089209853 0 0 -1 0 
1 20.57135089209855 204.57814783347493 0 -1 0 0 
1 82.585556499575191 201.1329141886151 0 0 1 0 
1 82.585556499575191 204.57814783347493 0 1 0 0 
1 91.981648258283769 204.57814783347493 0 0 -1 0 
1 82.585556499575191 96.836295666949866 0 0 1 0 
1 82.585556499575191 100.28152931180968 0 1 0 0 
1 96.366491079014438 100.28152931180968 0 0 -1 0 
1 66.298997451146974 83.994970263381475 0 -1 0 0 
1 62.853763806287162 96.836295666949866 0 0 -1 0 
1 62.853763806287162 96.836295666949866 0 1 0 0 
1 66.298997451146974 51.735055225148677 0 -1 0 0 
1 62.853763806287162 51.735055225148677 0 0 1 0 
1 62.853763806287162 70.840441801189456 0 1 0 0 
1 0.52635514018691187 164.80135938827527 0 -1 0 0 
1 -2.9188785046729011 164.80135938827527 0 0 1 0 
1 -2.9188785046729011 178.26909090909089 0 1 0 0 
1 55.650093457943917 126.90378929481733 0 -1 0 0 
1 52.204859813084106 126.90378929481733 0 0 1 0 
1 52.204859813084106 140.37152081563295 0 1 0 0 
1 0.52635514018691187 204.57814783347493 0 0 1 0 
1 0.52635514018691187 208.02338147833473 0 1 0 0 
1 20.57135089209855 208.02338147833473 0 0 -1 0 
1 82.585556499575191 110.93043330501274 0 0 -1 0 
1 96.366491079014438 100.28152931180968 0 1 0 0 
1 124.8679694137638 100.28152931180968 0 0 1 0 
1 124.8679694137638 123.4585556499575 0 -1 0 0 
1 82.585556499575191 123.4585556499575 0 0 -1 0 
1 82.585556499575191 120.95293118096855 0 0 -1 0 
1 41.86915887850467 123.4585556499575 0 1 0 0 
1 62.853763806287162 123.4585556499575 0 0 -1 0 
1 62.853763806287162 122.9322005097706 0 0 -1 0 
1 62.853763806287162 100.80788445199659 0 0 -1 0 
1 62.853763806287162 83.994970263381475 0 -1 0 0 
1 41.86915887850467 83.994970263381475 0 0 1 0 
1 10.548853016142731 146.00917587085812 0 0 -1 0 
1 10.548853016142731 134.73386576040781 0 0 -1 0 
1 10.548853016142731 126.90378929481733 0 1 0 0 
1 52.204859813084106 140.37152081563295 0 0 1 0 
1 52.204859813084106 150.39401869158877 0 -1 0 0 
1 10.548853016142731 150.39401869158877 0 0 -1 0 
1 82.585556499575191 110.93043330501274 0 -1 0 0 
1 79.140322854715365 110.93043330501274 0 0 1 0 
1 79.140322854715365 120.95293118096855 0 1 0 0 
1 10.548853016142731 134.73386576040781 0 -1 0 0 
1 7.1036193712829183 134.73386576040781 0 0 1 0 
1 7.1036193712829183 146.00917587085812 0 1 0 0 
Polygon3D 0
PolygonOnTriangulations 0
Surfaces 55
1 107.95500424808837 147.73179269328799 0 -0 -0 -1 -1 0 0 0 1 -0 
1 125.98914337391999 181.57343363080432 0 -0 -0 -1 -1 0 0 0 1 -0 
1 188.95396791635849 108.8626809134459 0 -0 -0 -1 -1 0 0 0 1 -0 
1 99.028717077315221 195.18205607476634 0 -0 -0 -1 -1 0 0 0 1 -0 
1 70.916018030917797 188.31551730919259 0 -0 -0 -1 -1 0 0 0 1 -0 
1 147.90916187920772 167.80915919253161 0 -0 -0 -1 -1 0 0 0 1 -0 
1 143.66015293118093 206.30076465590486 0 -0 -0 -1 -1 0 0 0 1 -0 
1 114.07702667835299 212.57010638574079 0 -0 -0 -1 -1 0 0 0 1 -0 
1 135.20367034834325 101.69094307561598 0 -0 -0 -1 -1 0 0 0 1 -0 
1 128.29768613879853 49.746740990944318 0 -0 -0 -1 -1 0 0 0 1 -0 
1 198.94049277824976 38.423925233644852 0 -0 -0 -1 -1 0 0 0 1 -0 
1 210.95783069581302 50.366621300788459 0 -0 -0 -1 -1 0 0 0 1 -0 
1 211.15541206457092 75.851690739167381 0 -0 -0 -1 -1 0 0 0 1 -0 
1 229.93526118395124 122.05364905575235 0 -0 -0 -1 -1 0 0 0 1 -0 
1 233.21814280465333 112.58916389059723 0 -0 -0 -1 -1 0 0 0 1 -0 
1 182.96713678844517 173.1012404418012 0 -0 -0 -1 -1 0 0 0 1 -0 
1 147.90916187920772 167.80915919253161 0 -0 -0 -1 -1 0 0 0 1 -0 
1 70.916018030917797 188.31551730919259 0 -0 -0 -1 -1 0 0 0 1 -0 
1 99.028717077315207 134.26406117247237 0 -0 -0 -1 -1 0 0 0 1 -0 
1 82.785077232892789 117.17302032171337 0 -0 -0 -1 -1 0 0 0 1 -0 
1 85.560985556499574 180.46151231945623 0 -0 -0 -1 -1 0 0 0 1 -0 
1 200.3911195125869 192.9104340957096 0 -0 -0 -1 -1 0 0 0 1 -0 
1 104.90171959825911 69.352282100976225 0 -0 -0 -1 -1 0 0 0 1 -0 
1 229.93526118395124 122.05364905575235 0 -0 -0 -1 -1 0 0 0 1 -0 
1 49.328637364810895 170.33963909668248 0 -0 -0 -1 -1 0 0 0 1 -0 
1 70.916018030917797 188.31551730919259 0 -0 -0 -1 -1 0 0 0 1 -0 
1 114.07702667835299 212.57010638574079 0 -0 -0 -1 -1 0 0 0 1 -0 
1 87.283602378929473 202.85553101104503 0 -0 -0 -1 -1 0 0 0 1 -0 
1 87.283602378929473 202.85553101104503 0 -0 -0 -1 -1 0 0 0 1 -0 
1 89.476023789294814 98.558912489379765 0 -0 -0 -1 -1 0 0 0 1 -0 
1 75.119231059965017 101.33425859642128 0 -0 -0 -1 -1 0 0 0 1 -0 
1 64.576380628717061 90.41563296516567 0 -0 -0 -1 -1 0 0 0 1 -0 
1 64.576380628717061 90.41563296516567 0 -0 -0 -1 -1 0 0 0 1 -0 
1 64.576380628717061 77.41770603228548 0 -0 -0 -1 -1 0 0 0 1 -0 
1 64.576380628717075 61.28774851316907 0 -0 -0 -1 -1 0 0 0 1 -0 
1 128.29768613879853 49.746740990944318 0 -0 -0 -1 -1 0 0 0 1 -0 
1 82.785077232892789 117.17302032171337 0 -0 -0 -1 -1 0 0 0 1 -0 
1 -1.2605819380846903 193.5912488287133 0 -0 -0 -1 -1 0 0 0 1 -0 
1 -1.1962616822429948 171.53522514868308 0 -0 -0 -1 -1 0 0 0 1 -0 
1 25.189131471483002 151.98360840847425 0 -0 -0 -1 -1 0 0 0 1 -0 
1 53.927476635514019 133.63765505522514 0 -0 -0 -1 -1 0 0 0 1 -0 
1 82.785077232892789 117.17302032171337 0 -0 -0 -1 -1 0 0 0 1 -0 
1 70.916018030917797 188.31551730919259 0 -0 -0 -1 -1 0 0 0 1 -0 
1 10.548853016142731 206.30076465590489 0 -0 -0 -1 -1 0 0 0 1 -0 
1 103.72676295666949 111.8700424808836 0 -0 -0 -1 -1 0 0 0 1 -0 
1 52.36146134239592 103.72676295666949 0 -0 -0 -1 -1 0 0 0 1 -0 
1 53.927476635514019 133.63765505522514 0 -0 -0 -1 -1 0 0 0 1 -0 
1 31.376856414613421 138.64890399320302 0 -0 -0 -1 -1 0 0 0 1 -0 
1 75.119231059965017 101.33425859642128 0 -0 -0 -1 -1 0 0 0 1 -0 
1 82.785077232892789 117.17302032171337 0 -0 -0 -1 -1 0 0 0 1 -0 
1 80.862939677145278 115.94168224299065 0 -0 -0 -1 -1 0 0 0 1 -0 
1 80.862939677145278 115.94168224299065 0 -0 -0 -1 -1 0 0 0 1 -0 
1 8.8262361937128251 140.37152081563295 0 -0 -0 -1 -1 0 0 0 1 -0 
1 82.785077232892789 117.17302032171337 0 -0 -0 -1 -1 0 0 0 1 -0 
1 25.189131471483002 151.98360840847425 0 -0 -0 -1 -1 0 0 0 1 -0 
Triangulations 0

TShapes 360
Ve
1.00000099475983e-07
100.751333899745 146.009175870858 0
0 0

0101101
*
Ve
1.00000099475983e-07
100.751333899745 149.454409515718 0
0 0

0101101
*
Ed
 1e-07 1 1 0
1  1 0 0 3.4452336448598
2  1 1 0 0 3.4452336448598
0

0101000
+360 0 -359 0 *
Ve
1e-07
115.158674596432 149.454409515718 0
0 0

0101101
*
Ed
 1e-07 1 1 0
1  2 0 0 14.4073406966865
2  2 1 0 0 14.4073406966865
2  3 2 0 0 14.4073406966865
0

0101000
+359 0 -357 0 *
Ve
1e-07
115.158674596432 146.009175870858 0
0 0

0101101
*
Ed
 1e-07 1 1 0
1  3 0 0 3.4452336448598
2  4 1 0 0 3.4452336448598
0

0101000
+357 0 -355 0 *
Ed
 1e-07 1 1 0
1  4 0 0 14.4073406966865
2  5 1 0 0 14.4073406966865
2  6 3 0 0 14.4073406966865
0

0101000
+355 0 -360 0 *
Wi

0101100
+358 0 +356 0 +354 0 +353 0 *
Fa
0  1e-07 1 0

0111000
+352 0 *
Ve
1e-07
100.751333899745 201.132914188615 0
0 0

0101101
*
Ve
1e-07
100.751333899745 189.231197960918 0
0 0

0101101
*
Ed
 1e-07 1 1 0
1  5 0 0 11.9017162276975
2  7 4 0 0 11.9017162276975
2  8 2 0 0 11.9017162276975
0

0101000
+350 0 -349 0 *
Ed
 1e-07 1 1 0
1  6 0 0 39.7767884451996
2  9 5 0 0 39.7767884451996
2  10 2 0 0 39.7767884451996
0

0101000
+349 0 -359 0 *
Ve
1e-07
153.369447748513 149.454409515718 0
0 0

0101101
*
Ed
 1e-07 1 1 0
1  7 0 0 38.2107731520816
2  11 6 0 0 38.2107731520816
2  12 2 0 0 38.2107731520816
0

0101000
+357 0 -346 0 *
Ve
1e-07
153.369447748513 204.578147833475 0
0 0

0101101
*
Ed
 1e-07 1 1 0
1  8 0 0 55.123738317757
2  13 6 0 0 55.123738317757
2  14 2 0 0 55.123738317757
0

0101000
+346 0 -344 0 *
Ve
1.00000056843419e-07
150.472319456245 204.578147833475 0
0 0

0101101
*
Ed
 1e-07 1 1 0
1  9 0 0 2.89712829226846
2  15 6 0 0 2.89712829226846
2  16 2 0 0 2.89712829226846
0

0101000
+344 0 -342 0 *
Ve
1.00000056843419e-07
136.847986406117 204.578147833475 0
0 0

0101101
*
Ed
 1e-07 1 1 0
1  10 0 0 13.6243330501275
2  17 7 0 0 13.6243330501275
2  18 2 0 0 13.6243330501275
0

0101000
+342 0 -340 0 *
Ve
1e-07
133.950858113849 204.578147833475 0
0 0

0101101
*
Ed
 1e-07 1 1 0
1  9 0 16.5214613423959 19.4185896346644
2  19 8 0 16.5214613423959 19.4185896346644
2  20 2 0 16.5214613423959 19.4185896346644
0

0101000
+340 0 -338 0 *
Ve
1e-07
133.950858113849 204.891350892099 0
0 0

0101101
*
Ed
 1e-07 1 1 0
1  11 0 0 0.3132030586236
2  21 8 0 0 0.3132030586236
2  22 2 0 0 0.3132030586236
0

0101000
+338 0 -336 0 *
Ve
1e-07
130.505624468989 204.891350892099 0
0 0

0101101
*
Ed
 1e-07 1 1 0
1  12 0 0 3.44523364485983
2  23 8 0 0 3.44523364485983
2  24 2 0 0 3.44523364485983
0

0101000
+336 0 -334 0 *
Ve
1e-07
130.505624468989 215.853457943925 0
0 0

0101101
*
Ed
 1e-07 1 1 0
1  13 0 0 10.9621070518267
2  25 8 0 0 10.9621070518267
2  26 2 0 0 10.9621070518267
0

0101000
+334 0 -332 0 *
Ve
1e-07
100.751333899745 215.853457943925 0
0 0

0101101
*
Ed
 1e-07 1 1 0
1  14 0 0 29.7542905692438
2  27 8 0 0 29.7542905692438
2  28 2 0 0 29.7542905692438
0

0101000
+332 0 -330 0 *
Ed
 1e-07 1 1 0
1  15 0 0 14.7205437553101
2  29 8 0 0 14.7205437553101
2  30 2 0 0 14.7205437553101
0

0101000
+330 0 -350 0 *
Wi

0101100
-348 0 -347 0 -356 0 -345 0 -343 0 -341 0 -339 0 -337 0 -335 0 -333 0 
-331 0 -329 0 -328 0 *
Fa
0  1e-07 2 0

0101000
+327 0 *
Ve
1.00000397903932e-07
128.313203058624 103.413559898046 0
0 0

0101101
*
Ve
1e-07
142.094137638063 103.413559898046 0
0 0

0101101
*
Ed
 1e-07 1 1 0
1  16 0 0 13.7809345794393
2  31 9 0 0 13.7809345794393
2  32 3 0 0 13.7809345794393
0

0101000
+325 0 -324 0 *
Ve
1e-07
145.539371282923 103.413559898046 0
0 0

0101101
*
Ed
 1e-07 1 1 0
1  17 0 0 3.4452336448598
2  33 10 0 0 3.4452336448598
2  34 3 0 0 3.4452336448598
0

0101000
+324 0 -322 0 *
Ve
1e-07
145.539371282923 40.1465420560748 0
0 0

0101101
*
Ed
 1e-07 1 1 0
1  18 0 0 63.2670178419711
2  35 10 0 0 63.2670178419711
2  36 3 0 0 63.2670178419711
0

0101000
+322 0 -320 0 *
Ve
1e-07
190.014205607477 40.1465420560748 0
0 0

0101101
*
Ed
 1e-07 1 1 0
1  19 0 0 44.4748343245539
2  37 10 0 0 44.4748343245539
2  38 3 0 0 44.4748343245539
0

0101000
+320 0 -318 0 *
Ve
1e-07
207.866779949023 40.1465420560748 0
0 0

0101101
*
Ed
 1e-07 1 1 0
1  20 0 0 17.8525743415463
2  39 11 0 0 17.8525743415463
2  40 3 0 0 17.8525743415463
0

0101000
+318 0 -316 0 *
Ve
1e-07
209.432795242141 40.1465420560748 0
0 0

0101101
*
Ed
 1e-07 1 1 0
1  21 0 0 1.56601529311811
2  41 12 0 0 1.56601529311811
2  42 3 0 0 1.56601529311811
0

0101000
+316 0 -314 0 *
Ve
1e-07
209.432795242141 65.2027867459643 0
0 0

0101101
*
Ed
 1e-07 1 1 0
1  22 0 0 25.0562446898895
2  43 12 0 0 25.0562446898895
2  44 3 0 0 25.0562446898895
0

0101000
+314 0 -312 0 *
Ve
1e-07
209.432795242141 86.5005947323704 0
0 0

0101101
*
Ed
 1e-07 1 1 0
1  23 0 0 21.2978079864061
2  45 13 0 0 21.2978079864061
2  46 3 0 0 21.2978079864061
0

0101000
+312 0 -310 0 *
Ve
1e-07
209.432795242141 117.194494477485 0
0 0

0101101
*
Ed
 1e-07 1 1 0
1  24 0 0 30.6938997451147
2  47 14 0 0 30.6938997451147
2  48 3 0 0 30.6938997451147
0

0101000
+310 0 -308 0 *
Ve
1e-07
209.959350382328 117.194494477485 0
0 0

0101101
*
Ed
 1e-07 1 1 0
1  25 0 0 0.526555140186929
2  49 14 0 0 0.526555140186929
2  50 3 0 0 0.526555140186929
0

0101000
+308 0 -306 0 *
Ve
1e-07
209.959350382328 131.288632115548 0
0 0

0101101
*
Ed
 1e-07 1 1 0
1  26 0 0.00010000000000332 14.0942376380629
2  51 15 0 0.00010000000000332 14.0942376380629
2  52 3 0 0.00010000000000332 14.0942376380629
0

0101000
+306 0 -304 0 *
Ve
1e-07
209.432795242141 131.288632115548 0
0 0

0101101
*
Ed
 1e-07 1 1 0
1  27 0 12.3147702633815 12.8413254035684
2  53 14 0 12.3147702633815 12.8413254035684
2  54 3 0 12.3147702633815 12.8413254035684
0

0101000
+304 0 -302 0 *
Ve
1e-07
209.432795242141 171.378623619371 0
0 0

0101101
*
Ed
 1e-07 1 1 0
1  28 0 0 40.0899915038233
2  55 14 0 0 40.0899915038233
2  56 3 0 0 40.0899915038233
0

0101000
+302 0 -300 0 *
Ve
1e-07
201.602718776551 171.378623619371 0
0 0

0101101
*
Ed
 1e-07 1 1 0
1  29 0 0 7.83007646559048
2  57 14 0 0 7.83007646559048
2  58 3 0 0 7.83007646559048
0

0101000
+300 0 -298 0 *
Ve
1e-07
164.33155480034 171.378623619371 0
0 0

0101101
*
Ed
 1e-07 1 1 0
1  30 0 0 37.2711639762107
2  59 16 0 0 37.2711639762107
2  60 3 0 0 37.2711639762107
0

0101000
+298 0 -296 0 *
Ve
1e-07
156.814681393373 171.378623619371 0
0 0

0101101
*
Ed
 1e-07 1 1 0
1  31 0 0 7.51687340696685
2  61 17 0 0 7.51687340696685
2  62 3 0 0 7.51687340696685
0

0101000
+296 0 -294 0 *
Ve
1e-07
156.814681393373 146.009175870858 0
0 0

0101101
*
Ed
 1e-07 1 1 0
1  32 0 0 25.3694477485132
2  63 17 0 0 25.3694477485132
2  64 3 0 0 25.3694477485132
0

0101000
+294 0 -292 0 *
Ed
 1e-07 1 1 0
1  33 0 0 41.6560067969414
2  65 17 0 0 41.6560067969414
2  66 3 0 0 41.6560067969414
0

0101000
+292 0 -355 0 *
Ve
1e-07
100.751333899745 141.624333050127 0
0 0

0101101
*
Ed
 1e-07 1 1 0
1  34 0 43.2220220900596 47.6068649107901
2  67 18 0 43.2220220900596 47.6068649107901
2  68 3 0 43.2220220900596 47.6068649107901
0

0101000
+360 0 -289 0 *
Ve
1.00000326849658e-07
100.751333899745 126.903789294817 0
0 0

0101101
*
Ed
 1e-07 1 1 0
1  35 0 0 14.7205437553101
2  69 19 0 0 14.7205437553101
2  70 3 0 0 14.7205437553101
0

0101000
+289 0 -287 0 *
Ve
1e-07
128.313203058624 126.903789294817 0
0 0

0101101
*
Ed
 1e-07 1 1 0
1  36 0 90.2024808836023 117.764350042481
2  71 20 0 90.2024808836023 117.764350042481
2  72 3 0 90.2024808836023 117.764350042481
0

0101000
+287 0 -285 0 *
Ed
 1e-07 1 1 0
1  37 0 0 23.4902293967713
2  73 20 0 0 23.4902293967713
2  74 3 0 0 23.4902293967713
0

0101000
+285 0 -325 0 *
Wi

0101100
-323 0 -321 0 -319 0 -317 0 -315 0 -313 0 -311 0 -309 0 -307 0 -305 0 
-303 0 -301 0 -299 0 -297 0 -295 0 -293 0 -291 0 -290 0 -353 0 -288 0 
-286 0 -284 0 -283 0 *
Fa
0  1e-07 3 0

0101000
+282 0 *
Ve
1e-07
97.3061002548853 189.231197960918 0
0 0

0101101
*
Ed
 1e-07 1 1 0
1  38 0 0 3.44523364485981
2  75 4 0 0 3.44523364485981
0

0101000
+349 0 -280 0 *
Ve
1.00000113686838e-07
97.3061002548853 201.132914188615 0
0 0

0101101
*
Ed
 1e-07 1 1 0
1  39 0 0 11.9017162276975
2  76 4 0 0 11.9017162276975
2  77 21 0 0 11.9017162276975
0

0101000
+280 0 -278 0 *
Ed
 1e-07 1 1 0
1  40 0 0 3.44523364485981
2  78 4 0 0 3.44523364485981
0

0101000
+278 0 -350 0 *
Wi

0101100
+279 0 +277 0 +276 0 +348 0 *
Fa
0  1e-07 4 0

0111000
+275 0 *
Ve
1.00000258703644e-07
136.847986406117 208.023381478335 0
0 0

0101101
*
Ed
 1e-07 1 1 0
1  41 0 0 3.44523364485977
2  79 7 0 0 3.44523364485977
0

0101000
+340 0 -273 0 *
Ve
1.0000031633777e-07
150.472319456245 208.023381478335 0
0 0

0101101
*
Ed
 1e-07 1 1 0
1  42 0 0 13.6243330501275
2  80 7 0 0 13.6243330501275
2  81 22 0 0 13.6243330501275
0

0101000
+273 0 -271 0 *
Ed
 1e-07 1 1 0
1  43 0 0 3.44523364485977
2  82 7 0 0 3.44523364485977
0

0101000
+271 0 -342 0 *
Wi

0101100
+339 0 +272 0 +270 0 +269 0 *
Fa
0  1e-07 7 0

0111000
+268 0 *
Ve
1.00000397903932e-07
128.313203058624 99.9683262531861 0
0 0

0101101
*
Ed
 1e-07 1 1 0
1  44 0 0 3.44523364485981
2  83 9 0 0 3.44523364485981
0

0101000
+266 0 -325 0 *
Ve
1.00000113686838e-07
142.094137638063 99.9683262531861 0
0 0

0101101
*
Ed
 1e-07 1 1 0
1  45 0 0 3.44523364485981
2  84 9 0 0 3.44523364485981
0

0101000
+324 0 -264 0 *
Ed
 1e-07 1 1 0
1  46 0 0 13.7809345794393
2  85 9 0 0 13.7809345794393
2  86 23 0 0 13.7809345794393
0

0101000
+264 0 -266 0 *
Wi

0101100
+265 0 +323 0 +263 0 +262 0 *
Fa
0  1e-07 9 0

0111000
+261 0 *
Ve
1e-07
190.014205607477 36.7013084112149 0
0 0

0101101
*
Ed
 1e-07 1 1 0
1  47 0 0 3.44523364485981
2  87 11 0 0 3.44523364485981
0

0101000
+259 0 -318 0 *
Ve
1e-07
207.866779949023 36.7013084112149 0
0 0

0101101
*
Ed
 1e-07 1 1 0
1  48 0 0 3.44523364485981
2  88 11 0 0 3.44523364485981
0

0101000
+316 0 -257 0 *
Ed
 1e-07 1 1 0
1  49 0 0 17.8525743415463
2  89 11 0 0 17.8525743415463
0

0101000
+257 0 -259 0 *
Wi

0101100
+258 0 +315 0 +256 0 +255 0 *
Fa
0  1e-07 11 0

0111000
+254 0 *
Ve
1e-07
212.878028887001 65.2027867459643 0
0 0

0101101
*
Ed
 1e-07 1 1 0
1  50 0 0 3.4452336448598
2  90 13 0 0 3.4452336448598
0

0101000
+252 0 -312 0 *
Ve
1e-07
209.745998300765 86.5005947323704 0
0 0

0101101
*
Ed
 1e-07 1 1 0
1  51 0 0 0.313203058623628
2  91 13 0 0 0.313203058623628
0

0101000
+310 0 -250 0 *
Ve
1e-07
212.878028887001 86.5005947323704 0
0 0

0101101
*
Ed
 1e-07 1 1 0
1  52 0 0 3.13203058623617
2  92 13 0 0 3.13203058623617
0

0101000
+250 0 -248 0 *
Ed
 1e-07 1 1 0
1  53 0 0 21.2978079864061
2  93 13 0 0 21.2978079864061
0

0101000
+248 0 -252 0 *
Wi

0101100
+251 0 +309 0 +249 0 +247 0 +246 0 *
Fa
0  1e-07 13 0

0111000
+245 0 *
Ve
1e-07
212.878028887001 117.194494477485 0
0 0

0101101
*
Ed
 1e-07 1 1 0
1  54 0 0.526555140186929 3.4452336448598
2  94 24 0 0.526555140186929 3.4452336448598
2  95 15 0 0.526555140186929 3.4452336448598
0

0101000
+306 0 -243 0 *
Ve
1e-07
212.878028887001 89.9458283772302 0
0 0

0101101
*
Ed
 1e-07 1 1 0
1  55 0 0 27.2486661002549
2  96 24 0 0 27.2486661002549
2  97 15 0 0 27.2486661002549
0

0101000
+243 0 -241 0 *
Ve
1e-07
255.473644859813 89.9458283772302 0
0 0

0101101
*
Ed
 1e-07 1 1 0
1  56 0 0 42.5956159728123
2  98 24 0 0 42.5956159728123
2  99 15 0 0 42.5956159728123
0

0101000
+241 0 -239 0 *
Ve
1e-07
255.473644859813 131.288632115548 0
0 0

0101101
*
Ed
 1e-07 1 1 0
1  57 0 0 41.3428037383177
2  100 24 0 0 41.3428037383177
2  101 15 0 0 41.3428037383177
0

0101000
+239 0 -237 0 *
Ve
1e-07
246.077553101104 131.288632115548 0
0 0

0101101
*
Ed
 1e-07 1 1 0
1  58 0 0 9.39609175870859
2  102 24 0 0 9.39609175870859
2  103 15 0 0 9.39609175870859
0

0101000
+237 0 -235 0 *
Ve
1e-07
246.077553101104 134.733865760408 0
0 0

0101101
*
Ed
 1e-07 1 1 0
1  59 0 0 3.44523364485983
2  104 24 0 0 3.44523364485983
2  105 15 0 0 3.44523364485983
0

0101000
+235 0 -233 0 *
Ve
1e-07
246.603908241291 134.733865760408 0
0 0

0101101
*
Ed
 1e-07 1 1 0
1  60 0 0 0.526355140186922
2  106 24 0 0 0.526355140186922
2  107 15 0 0 0.526355140186922
0

0101000
+233 0 -231 0 *
Ve
1e-07
246.603908241291 135.260220900595 0
0 0

0101101
*
Ed
 1e-07 1 1 0
1  61 0 0 0.526355140186922
2  108 24 0 0 0.526355140186922
2  109 15 0 0 0.526355140186922
0

0101000
+231 0 -229 0 *
Ve
1e-07
221.747665505522 135.260220900595 0
0 0

0101101
*
Ed
 1e-07 1 1 0
1  62 0 0 24.8562427357689
2  110 24 0 0 24.8562427357689
2  111 15 0 0 24.8562427357689
0

0101000
+229 0 -227 0 *
Ve
1e-07
221.747665505522 134.733865760408 0
0 0

0101101
*
Ed
 1e-07 1 1 0
1  63 0 3.44513364485982 3.97148878504674
2  112 15 0 3.44513364485982 3.97148878504674
0

0101000
+225 0 -227 0 *
Ve
1e-07
222.274120645709 134.733865760408 0
0 0

0101101
*
Ed
 1e-07 1 1 0
1  64 0 8.86963661852167 9.39609175870859
2  113 24 0 8.86963661852167 9.39609175870859
2  114 15 0 8.86963661852167 9.39609175870859
0

0101000
+225 0 -223 0 *
Ve
1e-07
222.274120645709 131.288632115548 0
0 0

0101101
*
Ed
 1e-07 1 1 0
1  65 0 0 3.44523364485983
2  115 24 0 0 3.44523364485983
2  116 15 0 0 3.44523364485983
0

0101000
+223 0 -221 0 *
Ed
 1e-07 1 1 0
1  66 0 0 12.3147702633815
2  117 24 0 0 12.3147702633815
2  118 15 0 0 12.3147702633815
0

0101000
+221 0 -304 0 *
Wi

0101100
-242 0 -240 0 -238 0 -236 0 -234 0 -232 0 -230 0 -228 0 -226 0 +224 0 
-222 0 -220 0 -219 0 +303 0 *
Fa
0  1e-07 15 0

0101000
+218 0 *
Ve
1.00000127105749e-07
164.33155480034 174.823857264231 0
0 0

0101101
*
Ed
 1e-07 1 1 0
1  67 0 0 3.44523364485983
2  119 16 0 0 3.44523364485983
0

0101000
+296 0 -216 0 *
Ve
1.00000317764372e-07
201.602718776551 174.823857264231 0
0 0

0101101
*
Ed
 1e-07 1 1 0
1  68 0 0 37.2711639762107
2  120 16 0 0 37.2711639762107
2  121 22 0 0 37.2711639762107
0

0101000
+216 0 -214 0 *
Ed
 1e-07 1 1 0
1  69 0 0 3.44523364485983
2  122 16 0 0 3.44523364485983
0

0101000
+214 0 -298 0 *
Wi

0101100
+215 0 +213 0 +212 0 +295 0 *
Fa
0  1e-07 16 0

0111000
+211 0 *
Ve
1.00000326849658e-07
97.3061002548853 126.903789294817 0
0 0

0101101
*
Ed
 1e-07 1 1 0
1  70 0 0 3.44523364485981
2  123 19 0 0 3.44523364485981
0

0101000
+287 0 -209 0 *
Ve
1e-07
97.3061002548853 141.624333050127 0
0 0

0101101
*
Ed
 1e-07 1 1 0
1  71 0 0 14.7205437553101
2  124 19 0 0 14.7205437553101
2  125 25 0 0 14.7205437553101
0

0101000
+209 0 -207 0 *
Ed
 1e-07 1 1 0
1  72 0 0 3.44523364485981
2  126 19 0 0 3.44523364485981
0

0101000
+207 0 -289 0 *
Wi

0101100
+208 0 +206 0 +205 0 +286 0 *
Fa
0  1e-07 19 0

0111000
+204 0 *
Ve
1e-07
82.5855564995752 201.132914188615 0
0 0

0101101
*
Ve
1e-07
73.8158708581138 201.132914188615 0
0 0

0101101
*
Ed
 1e-07 1 1 0
1  73 0 0 8.76968564146135
2  127 26 0 0 8.76968564146135
2  128 21 0 0 8.76968564146135
0

0101000
+202 0 -201 0 *
Ve
1e-07
73.8158708581138 159.790110450297 0
0 0

0101101
*
Ed
 1e-07 1 1 0
1  74 0 0 41.3428037383177
2  129 26 0 0 41.3428037383177
2  130 21 0 0 41.3428037383177
0

0101000
+201 0 -199 0 *
Ve
1e-07
97.3061002548853 159.790110450297 0
0 0

0101101
*
Ed
 1e-07 1 1 0
1  75 0 0 23.4902293967715
2  131 26 0 0 23.4902293967715
2  132 21 0 0 23.4902293967715
0

0101000
+199 0 -197 0 *
Ed
 1e-07 1 1 0
1  76 0 0 29.4410875106202
2  133 26 0 0 29.4410875106202
2  134 21 0 0 29.4410875106202
0

0101000
+197 0 -280 0 *
Ve
1e-07
91.9816482582838 201.132914188615 0
0 0

0101101
*
Ed
 1e-07 1 1 0
1  77 0 3.44523364485981 8.76968564146134
2  135 27 0 3.44523364485981 8.76968564146134
2  136 21 0 3.44523364485981 8.76968564146134
0

0101000
+278 0 -194 0 *
Ed
 1e-07 1 1 0
1  78 0 0 9.39609175870858
2  137 28 0 0 9.39609175870858
2  138 21 0 0 9.39609175870858
2  139 29 0 0 9.39609175870858
0

0101000
+194 0 -202 0 *
Wi

0101100
-200 0 -198 0 -196 0 -195 0 -277 0 -193 0 -192 0 *
Fa
0  1e-07 21 0

0101000
+191 0 *
Ve
1.00011084466678e-07
133.950858113854 208.023381478335 0
0 0

0101101
*
Ve
1.00011056044968e-07
133.95085811386 215.85345794414 0
0 0

0101101
*
Ed
 1.00011056044968e-07 1 1 0
1  79 0 0 7.83007646580543
2  140 22 0 0 7.83007646580543
0

0101000
+189 0 -188 0 *
Ve
1e-07
255.47364486014 215.85345794414 0
0 0

0101101
*
Ed
 1e-07 1 1 0
1  80 0 0 121.52278674628
2  141 22 0 0 121.52278674628
0

0101000
+188 0 -186 0 *
Ve
1e-07
255.47364486014 158.224095157284 0
0 0

0101101
*
Ed
 1e-07 1 1 0
1  81 0 0 57.6293627868565
2  142 22 0 0 57.6293627868565
0

0101000
+186 0 -184 0 *
Ve
1e-07
240.594192551598 158.333502895076 0
0 0

0101101
*
Ed
 1e-07 1 1 0
1  82 0 0 14.8798545374368
2  143 22 0 0 14.8798545374368
0

0101000
+184 0 -182 0 *
Ve
1e-07
216.741767041039 158.508888376255 0
0 0

0101101
*
Ed
 1e-07 1 1 0
1  83 0 0 23.8530703014049
2  144 22 0 0 23.8530703014049
0

0101000
+182 0 -180 0 *
Ve
1e-07
212.878028887001 158.722569879165 0
0 0

0101101
*
Ed
 1e-07 1 1 0
1  84 0 0 3.86964240048816
2  145 22 0 0 3.86964240048816
0

0101000
+180 0 -178 0 *
Ve
1.00000095329311e-07
212.878028887001 174.823857264231 0
0 0

0101101
*
Ed
 1e-07 1 1 0
1  85 0 0 16.1012873850665
2  146 22 0 0 16.1012873850665
0

0101000
+178 0 -176 0 *
Ed
 1e-07 1 1 0
1  86 0 0 11.2753101104503
2  147 22 0 0 11.2753101104503
0

0101000
+176 0 -214 0 *
Ve
1.00000044938668e-07
156.814681393373 174.823857264231 0
0 0

0101101
*
Ed
 1e-07 1 1 0
1  87 0 0 7.51687340696685
2  148 22 0 0 7.51687340696685
0

0101000
+216 0 -173 0 *
Ve
1e-07
156.814681393373 208.023381478335 0
0 0

0101101
*
Ed
 1e-07 1 1 0
1  88 0 0 33.1995242141036
2  149 22 0 0 33.1995242141036
0

0101000
+173 0 -171 0 *
Ve
1.00000185286876e-07
156.814681393373 208.336584536958 0
0 0

0101101
*
Ed
 1e-07 1 1 0
1  89 0 0 0.313203058623628
2  150 22 0 0 0.313203058623628
0

0101000
+171 0 -169 0 *
Ve
1.00000197934302e-07
153.369447748513 208.336584536958 0
0 0

0101101
*
Ed
 1e-07 1 1 0
1  90 0 0 3.44523364485983
2  151 22 0 0 3.44523364485983
0

0101000
+169 0 -167 0 *
Ve
1.00000158882186e-07
153.369447748513 208.023381478335 0
0 0

0101101
*
Ed
 1e-07 1 1 0
1  91 0 0 0.313203058623628
2  152 22 0 0 0.313203058623628
0

0101000
+167 0 -165 0 *
Ed
 1e-07 1 1 0
1  92 0 0 2.89712829226846
2  153 22 0 0 2.89712829226846
0

0101000
+165 0 -271 0 *
Ed
 1e-07 1 1 0
1  93 0 0 2.89712829225741
2  154 22 0 0 2.89712829225741
0

0101000
+273 0 -189 0 *
Wi

0101100
+187 0 +185 0 +183 0 +181 0 +179 0 +177 0 +175 0 +174 0 -213 0 +172 0 
+170 0 +168 0 +166 0 +164 0 +163 0 -270 0 +162 0 *
Fa
0  1e-07 22 0

0111000
+161 0 *
Ve
1e-07
96.3664910790144 96.8362956669499 0
0 0

0101101
*
Ve
1e-07
82.5855564995752 96.8362956669499 0
0 0

0101101
*
Ed
 1e-07 1 1 0
1  94 0 0 13.7809345794392
2  155 30 0 0 13.7809345794392
2  156 23 0 0 13.7809345794392
0

0101000
+159 0 -158 0 *
Ve
1.00000028421709e-07
66.298997451147 96.8362956669499 0
0 0

0101101
*
Ed
 1e-07 1 1 0
1  95 0 0 16.2865590484282
2  157 31 0 0 16.2865590484282
2  158 23 0 0 16.2865590484282
0

0101000
+158 0 -156 0 *
Ve
1e-07
66.298997451147 83.9949702633815 0
0 0

0101101
*
Ed
 1e-07 1 1 0
1  96 0 0 12.8413254035684
2  159 32 0 0 12.8413254035684
2  160 23 0 0 12.8413254035684
2  161 33 0 0 12.8413254035684
0

0101000
+156 0 -154 0 *
Ve
1e-07
66.298997451147 70.8404418011895 0
0 0

0101101
*
Ed
 1e-07 1 1 0
1  97 0 0 13.154528462192
2  162 34 0 0 13.154528462192
2  163 23 0 0 13.154528462192
0

0101000
+154 0 -152 0 *
Ve
1e-07
66.298997451147 51.7350552251487 0
0 0

0101101
*
Ed
 1e-07 1 1 0
1  98 0 0 19.1053865760408
2  164 35 0 0 19.1053865760408
2  165 23 0 0 19.1053865760408
0

0101000
+152 0 -150 0 *
Ve
1e-07
66.298997451147 40.1465420560748 0
0 0

0101101
*
Ed
 1e-07 1 1 0
1  99 0 0 11.5885131690739
2  166 36 0 0 11.5885131690739
2  167 23 0 0 11.5885131690739
0

0101000
+150 0 -148 0 *
Ve
1e-07
142.094137638063 40.1465420560748 0
0 0

0101101
*
Ed
 1e-07 1 1 0
1  100 0 0 75.7951401869159
2  168 36 0 0 75.7951401869159
2  169 23 0 0 75.7951401869159
0

0101000
+148 0 -146 0 *
Ed
 1e-07 1 1 0
1  101 0 0 59.8217841971113
2  170 36 0 0 59.8217841971113
2  171 23 0 0 59.8217841971113
0

0101000
+146 0 -264 0 *
Ve
1e-07
128.313203058624 83.9949702633815 0
0 0

0101101
*
Ed
 1e-07 1 1 0
1  102 0 26.9354630416312 42.9088190314359
2  172 37 0 26.9354630416312 42.9088190314359
2  173 23 0 26.9354630416312 42.9088190314359
0

0101000
+266 0 -143 0 *
Ve
1e-07
124.867969413764 83.9949702633815 0
0 0

0101101
*
Ed
 1e-07 1 1 0
1  103 0 0 3.4452336448598
2  174 37 0 0 3.4452336448598
2  175 23 0 0 3.4452336448598
0

0101000
+143 0 -141 0 *
Ve
1e-07
124.867969413764 96.8362956669499 0
0 0

0101101
*
Ed
 1e-07 1 1 0
1  104 0 0 12.8413254035684
2  176 37 0 0 12.8413254035684
2  177 23 0 0 12.8413254035684
0

0101000
+141 0 -139 0 *
Ed
 1e-07 1 1 0
1  105 0 0 28.5014783347494
2  178 37 0 0 28.5014783347494
2  179 23 0 0 28.5014783347494
0

0101000
+139 0 -159 0 *
Wi

0101100
-157 0 -155 0 -153 0 -151 0 -149 0 -147 0 -145 0 -144 0 -262 0 -142 0 
-140 0 -138 0 -137 0 *
Fa
0  1e-07 23 0

0101000
+136 0 *
Ve
1.00000000111022e-07
0.526355140186912 204.578147833475 0
0 0

0101101
*
Ve
1.00000000222045e-07
0.526355140186912 178.269090909091 0
0 0

0101101
*
Ed
 1e-07 1 1 0
1  106 0 3.44523364485974 29.7542905692438
2  180 38 0 3.44523364485974 29.7542905692438
2  181 25 0 3.44523364485974 29.7542905692438
0

0101000
+134 0 -133 0 *
Ve
1.00000000222045e-07
0.526355140186912 164.801359388275 0
0 0

0101101
*
Ed
 1e-07 1 1 0
1  107 0 0 13.4677315208156
2  182 39 0 0 13.4677315208156
2  183 25 0 0 13.4677315208156
0

0101000
+133 0 -131 0 *
Ve
1e-07
0.526355140186912 153.839252336449 0
0 0

0101101
*
Ed
 1e-07 1 1 0
1  108 0 0 10.9621070518267
2  184 40 0 0 10.9621070518267
2  185 25 0 0 10.9621070518267
0

0101000
+131 0 -129 0 *
Ve
1e-07
55.6500934579439 153.839252336449 0
0 0

0101101
*
Ed
 1e-07 1 1 0
1  109 0 0 55.123738317757
2  186 40 0 0 55.123738317757
2  187 25 0 0 55.123738317757
0

0101000
+129 0 -127 0 *
Ve
1e-07
55.6500934579439 140.371520815633 0
0 0

0101101
*
Ed
 1e-07 1 1 0
1  110 0 0 13.4677315208156
2  188 40 0 0 13.4677315208156
2  189 25 0 0 13.4677315208156
0

0101000
+127 0 -125 0 *
Ve
1.00000326849658e-07
55.6500934579439 126.903789294817 0
0 0

0101101
*
Ed
 1e-07 1 1 0
1  111 0 0 13.4677315208156
2  190 41 0 0 13.4677315208156
2  191 25 0 0 13.4677315208156
0

0101000
+125 0 -123 0 *
Ed
 1e-07 1 1 0
1  112 0 45.1012404418012 86.7572472387426
2  192 42 0 45.1012404418012 86.7572472387426
2  193 25 0 45.1012404418012 86.7572472387426
0

0101000
+123 0 -209 0 *
Ve
1e-07
97.3061002548853 156.344876805438 0
0 0

0101101
*
Ed
 1e-07 1 1 0
1  113 0 0 14.7205437553101
2  194 43 0 0 14.7205437553101
2  195 25 0 0 14.7205437553101
0

0101000
+207 0 -120 0 *
Ve
1e-07
70.370637213254 156.344876805438 0
0 0

0101101
*
Ed
 1e-07 1 1 0
1  114 0 0 26.9354630416313
2  196 43 0 0 26.9354630416313
2  197 25 0 0 26.9354630416313
0

0101000
+120 0 -118 0 *
Ve
1e-07
70.370637213254 215.853457943925 0
0 0

0101101
*
Ed
 1e-07 1 1 0
1  115 0 0 59.5085811384877
2  198 43 0 0 59.5085811384877
2  199 25 0 0 59.5085811384877
0

0101000
+118 0 -116 0 *
Ve
1e-07
24.0165845369584 215.853457943925 0
0 0

0101101
*
Ed
 1e-07 1 1 0
1  116 0 0 46.3540526762957
2  200 43 0 0 46.3540526762957
2  201 25 0 0 46.3540526762957
0

0101000
+116 0 -114 0 *
Ve
1e-07
24.0165845369584 204.891350892099 0
0 0

0101101
*
Ed
 1e-07 1 1 0
1  117 0 0 10.9621070518267
2  202 43 0 0 10.9621070518267
2  203 25 0 0 10.9621070518267
0

0101000
+114 0 -112 0 *
Ve
1e-07
20.5713508920986 204.891350892099 0
0 0

0101101
*
Ed
 1e-07 1 1 0
1  118 0 0 3.44523364485981
2  204 43 0 0 3.44523364485981
2  205 25 0 0 3.44523364485981
0

0101000
+112 0 -110 0 *
Ve
1e-07
20.5713508920986 204.578147833475 0
0 0

0101101
*
Ed
 1e-07 1 1 0
1  119 0 0 0.3132030586236
2  206 44 0 0 0.3132030586236
2  207 25 0 0 0.3132030586236
0

0101000
+110 0 -108 0 *
Ed
 1e-07 1 1 0
1  120 0 0 20.0449957519116
2  208 44 0 0 20.0449957519116
2  209 25 0 0 20.0449957519116
0

0101000
+108 0 -134 0 *
Wi

0101100
-132 0 -130 0 -128 0 -126 0 -124 0 -122 0 -121 0 -206 0 -119 0 -117 0 
-115 0 -113 0 -111 0 -109 0 -107 0 -106 0 *
Fa
0  1e-07 25 0

0101000
+105 0 *
Ve
1e-07
82.5855564995752 204.578147833475 0
0 0

0101101
*
Ed
 1e-07 1 1 0
1  121 0 0 3.44523364485983
2  210 29 0 0 3.44523364485983
0

0101000
+202 0 -103 0 *
Ve
1e-07
91.9816482582838 204.578147833475 0
0 0

0101101
*
Ed
 1e-07 1 1 0
1  122 0 0 9.39609175870858
2  211 29 0 0 9.39609175870858
0

0101000
+103 0 -101 0 *
Ed
 1e-07 1 1 0
1  123 0 0 3.44523364485983
2  212 29 0 0 3.44523364485983
0

0101000
+101 0 -194 0 *
Wi

0101100
+102 0 +100 0 +99 0 +192 0 *
Fa
0  1e-07 29 0

0111000
+98 0 *
Ve
1.00000014210855e-07
82.5855564995752 100.28152931181 0
0 0

0101101
*
Ed
 1e-07 1 1 0
1  124 0 0 3.44523364485981
2  213 30 0 0 3.44523364485981
0

0101000
+158 0 -96 0 *
Ve
1e-07
96.3664910790144 100.28152931181 0
0 0

0101101
*
Ed
 1e-07 1 1 0
1  125 0 0 13.7809345794392
2  214 30 0 0 13.7809345794392
2  215 45 0 0 13.7809345794392
0

0101000
+96 0 -94 0 *
Ed
 1e-07 1 1 0
1  126 0 0 3.44523364485981
2  216 30 0 0 3.44523364485981
0

0101000
+94 0 -159 0 *
Wi

0101100
+95 0 +93 0 +92 0 +157 0 *
Fa
0  1e-07 30 0

0111000
+91 0 *
Ve
1.00000025618983e-07
62.8537638062872 83.9949702633815 0
0 0

0101101
*
Ed
 1e-07 1 1 0
1  127 0 0 3.44523364485981
2  217 33 0 0 3.44523364485981
0

0101000
+154 0 -89 0 *
Ve
1.00000025618983e-07
62.8537638062872 96.8362956669499 0
0 0

0101101
*
Ed
 1e-07 1 1 0
1  128 0 0 12.8413254035684
2  218 46 0 0 12.8413254035684
2  219 33 0 0 12.8413254035684
0

0101000
+87 0 -89 0 *
Ed
 1e-07 1 1 0
1  129 0 0 3.44523364485981
2  220 33 0 0 3.44523364485981
0

0101000
+87 0 -156 0 *
Wi

0101100
+88 0 -86 0 +85 0 +153 0 *
Fa
0  1e-07 33 0

0111000
+84 0 *
Ve
1e-07
62.8537638062872 51.7350552251487 0
0 0

0101101
*
Ed
 1e-07 1 1 0
1  130 0 0 3.44523364485981
2  221 35 0 0 3.44523364485981
0

0101000
+150 0 -82 0 *
Ve
1e-07
62.8537638062872 70.8404418011895 0
0 0

0101101
*
Ed
 1e-07 1 1 0
1  131 0 0 19.1053865760408
2  222 35 0 0 19.1053865760408
0

0101000
+82 0 -80 0 *
Ed
 1e-07 1 1 0
1  132 0 0 3.44523364485981
2  223 35 0 0 3.44523364485981
0

0101000
+80 0 -152 0 *
Wi

0101100
+81 0 +79 0 +78 0 +149 0 *
Fa
0  1e-07 35 0

0111000
+77 0 *
Ve
1e-07
-2.9188785046729 164.801359388275 0
0 0

0101101
*
Ed
 1e-07 1 1 0
1  133 0 0 3.44523364485981
2  224 39 0 0 3.44523364485981
0

0101000
+131 0 -75 0 *
Ve
1e-07
-2.9188785046729 178.269090909091 0
0 0

0101101
*
Ed
 1e-07 1 1 0
1  134 0 0 13.4677315208156
2  225 39 0 0 13.4677315208156
0

0101000
+75 0 -73 0 *
Ed
 1e-07 1 1 0
1  135 0 0 3.44523364485981
2  226 39 0 0 3.44523364485981
0

0101000
+73 0 -133 0 *
Wi

0101100
+74 0 +72 0 +71 0 +130 0 *
Fa
0  1e-07 39 0

0111000
+70 0 *
Ve
1.00000326849658e-07
52.2048598130841 126.903789294817 0
0 0

0101101
*
Ed
 1e-07 1 1 0
1  136 0 0 3.44523364485981
2  227 41 0 0 3.44523364485981
0

0101000
+123 0 -68 0 *
Ve
1e-07
52.2048598130841 140.371520815633 0
0 0

0101101
*
Ed
 1e-07 1 1 0
1  137 0 0 13.4677315208156
2  228 47 0 0 13.4677315208156
2  229 48 0 0 13.4677315208156
2  230 41 0 0 13.4677315208156
0

0101000
+68 0 -66 0 *
Ed
 1e-07 1 1 0
1  138 0 0 3.44523364485981
2  231 41 0 0 3.44523364485981
0

0101000
+66 0 -125 0 *
Wi

0101100
+67 0 +65 0 +64 0 +122 0 *
Fa
0  1e-07 41 0

0111000
+63 0 *
Ve
1e-07
0.526355140186912 208.023381478335 0
0 0

0101101
*
Ed
 1e-07 1 1 0
1  139 0 0 3.4452336448598
2  232 44 0 0 3.4452336448598
0

0101000
+134 0 -61 0 *
Ve
1e-07
20.5713508920986 208.023381478335 0
0 0

0101101
*
Ed
 1e-07 1 1 0
1  140 0 0 20.0449957519116
2  233 44 0 0 20.0449957519116
0

0101000
+61 0 -59 0 *
Ed
 1e-07 1 1 0
1  141 0 0 3.1320305862362
2  234 44 0 0 3.1320305862362
0

0101000
+59 0 -110 0 *
Wi

0101100
+106 0 +60 0 +58 0 +57 0 +107 0 *
Fa
0  1e-07 44 0

0111000
+56 0 *
Ve
1e-07
82.5855564995752 110.930433305013 0
0 0

0101101
*
Ed
 1e-07 1 1 0
1  142 0 0 10.6489039932027
2  235 49 0 0 10.6489039932027
2  236 45 0 0 10.6489039932027
0

0101000
+54 0 -96 0 *
Ve
1e-07
124.867969413764 100.28152931181 0
0 0

0101101
*
Ed
 1e-07 1 1 0
1  143 0 0 28.5014783347494
2  237 50 0 0 28.5014783347494
2  238 45 0 0 28.5014783347494
0

0101000
+94 0 -52 0 *
Ve
1e-07
124.867969413764 123.458555649958 0
0 0

0101101
*
Ed
 1e-07 1 1 0
1  144 0 0 23.1770263381478
2  239 50 0 0 23.1770263381478
2  240 45 0 0 23.1770263381478
0

0101000
+52 0 -50 0 *
Ve
1e-07
82.5855564995752 123.458555649958 0
0 0

0101101
*
Ed
 1e-07 1 1 0
1  145 0 0 42.2824129141886
2  241 50 0 0 42.2824129141886
2  242 45 0 0 42.2824129141886
0

0101000
+50 0 -48 0 *
Ve
1e-07
82.5855564995752 120.952931180969 0
0 0

0101101
*
Ed
 1e-07 1 1 0
1  146 0 0 2.50562446898896
2  243 50 0 0 2.50562446898896
2  244 45 0 0 2.50562446898896
0

0101000
+48 0 -46 0 *
Ed
 1e-07 1 1 0
1  147 0 0 10.0224978759558
2  245 51 0 0 10.0224978759558
2  246 45 0 0 10.0224978759558
2  247 52 0 0 10.0224978759558
0

0101000
+46 0 -54 0 *
Wi

0101100
-53 0 -93 0 -51 0 -49 0 -47 0 -45 0 -44 0 *
Fa
0  1e-07 45 0

0101000
+43 0 *
Ve
1e-07
41.8691588785047 123.458555649958 0
0 0

0101101
*
Ve
1.00000249323564e-07
62.8537638062872 123.458555649958 0
0 0

0101101
*
Ed
 1e-07 1 1 0
1  148 0 0 20.9846049277825
2  248 46 0 0 20.9846049277825
0

0101000
+41 0 -40 0 *
Ve
1.00000199743408e-07
62.8537638062872 122.932200509771 0
0 0

0101101
*
Ed
 1e-07 1 1 0
1  149 0 0 0.526355140186908
2  249 46 0 0 0.526355140186908
0

0101000
+40 0 -38 0 *
Ve
1.00000206821647e-07
62.8537638062872 100.807884451997 0
0 0

0101101
*
Ed
 1e-07 1 1 0
1  150 0 0 22.124316057774
2  250 46 0 0 22.124316057774
0

0101000
+38 0 -36 0 *
Ed
 1e-07 1 1 0
1  151 0 0 3.97158878504672
2  251 46 0 0 3.97158878504672
0

0101000
+36 0 -87 0 *
Ve
1e-07
41.8691588785047 83.9949702633815 0
0 0

0101101
*
Ed
 1e-07 1 1 0
1  152 0 0 20.9846049277825
2  252 46 0 0 20.9846049277825
0

0101000
+89 0 -33 0 *
Ed
 1e-07 1 1 0
1  153 0 0 39.463585386576
2  253 46 0 0 39.463585386576
0

0101000
+33 0 -41 0 *
Wi

0101100
+39 0 +37 0 +35 0 +34 0 +86 0 +32 0 +31 0 *
Fa
0  1e-07 46 0

0111000
+30 0 *
Ve
1e-07
10.5488530161427 146.009175870858 0
0 0

0101101
*
Ve
1e-07
10.5488530161427 134.733865760408 0
0 0

0101101
*
Ed
 1e-07 1 1 0
1  154 0 0 11.2753101104503
2  254 53 0 0 11.2753101104503
2  255 48 0 0 11.2753101104503
0

0101000
+28 0 -27 0 *
Ve
1e-07
10.5488530161427 126.903789294817 0
0 0

0101101
*
Ed
 1e-07 1 1 0
1  155 0 0 7.83007646559048
2  256 54 0 0 7.83007646559048
2  257 48 0 0 7.83007646559048
0

0101000
+27 0 -25 0 *
Ed
 1e-07 1 1 0
1  156 0 0 41.6560067969414
2  258 54 0 0 41.6560067969414
2  259 48 0 0 41.6560067969414
0

0101000
+25 0 -68 0 *
Ve
1e-07
52.2048598130841 150.394018691589 0
0 0

0101101
*
Ed
 1e-07 1 1 0
1  157 0 0 10.0224978759558
2  260 55 0 0 10.0224978759558
2  261 48 0 0 10.0224978759558
0

0101000
+66 0 -22 0 *
Ve
1e-07
10.5488530161427 150.394018691589 0
0 0

0101101
*
Ed
 1e-07 1 1 0
1  158 0 0 41.6560067969414
2  262 55 0 0 41.6560067969414
2  263 48 0 0 41.6560067969414
0

0101000
+22 0 -20 0 *
Ed
 1e-07 1 1 0
1  159 0 0 4.38484282073065
2  264 55 0 0 4.38484282073065
2  265 48 0 0 4.38484282073065
0

0101000
+20 0 -28 0 *
Wi

0101100
-26 0 -24 0 -23 0 -65 0 -21 0 -19 0 -18 0 *
Fa
0  1e-07 48 0

0101000
+17 0 *
Ve
1e-07
79.1403228547154 110.930433305013 0
0 0

0101101
*
Ed
 1e-07 1 1 0
1  160 0 0 3.44523364485983
2  266 52 0 0 3.44523364485983
0

0101000
+54 0 -15 0 *
Ve
1e-07
79.1403228547154 120.952931180969 0
0 0

0101101
*
Ed
 1e-07 1 1 0
1  161 0 0 10.0224978759558
2  267 52 0 0 10.0224978759558
0

0101000
+15 0 -13 0 *
Ed
 1e-07 1 1 0
1  162 0 0 3.44523364485983
2  268 52 0 0 3.44523364485983
0

0101000
+13 0 -46 0 *
Wi

0101100
+14 0 +12 0 +11 0 +44 0 *
Fa
0  1e-07 52 0

0111000
+10 0 *
Ve
1e-07
7.10361937128292 134.733865760408 0
0 0

0101101
*
Ed
 1e-07 1 1 0
1  163 0 0 3.44523364485981
2  269 53 0 0 3.44523364485981
0

0101000
+27 0 -8 0 *
Ve
1e-07
7.10361937128292 146.009175870858 0
0 0

0101101
*
Ed
 1e-07 1 1 0
1  164 0 0 11.2753101104503
2  270 53 0 0 11.2753101104503
0

0101000
+8 0 -6 0 *
Ed
 1e-07 1 1 0
1  165 0 0 3.44523364485981
2  271 53 0 0 3.44523364485981
0

0101000
+6 0 -28 0 *
Wi

0101100
+7 0 +5 0 +4 0 +26 0 *
Fa
0  1e-07 53 0

0111000
+3 0 *
Sh

0101000
+351 0 +326 0 +281 0 +274 0 +267 0 +260 0 +253 0 +244 0 +217 0 +210 0 
+203 0 +190 0 +160 0 +135 0 +104 0 +97 0 +90 0 +83 0 +76 0 +69 0 
+62 0 +55 0 +42 0 +29 0 +16 0 +9 0 +2 0 *

+1 0 