
CASCADE Topology V3, (c) Open Cascade
Locations 0
Curve2ds 192
1 8.129800573390888 1.8872751331086022 -1 0 
1 49.830696447854855 -2.5036431099007928 -1 0 
1 8.129800573390888 1.8872751331086022 -1 0 
1 75.980703681304377 29.218906234281363 -1 0 
1 33.571095301073086 -2.5036431099007928 -1 0 
1 72.206153415087186 29.218906234281363 0 -1 
1 29.796545034855889 -2.5036431099007928 0 -1 
1 72.206153415087186 -1.8485459568909448 -1 0 
1 29.796545034855889 -33.5710953010731 -1 0 
1 -3.5752019297349733 -1.8485459568909448 0 1 
1 -45.984810309966264 -33.5710953010731 0 1 
1 1.8872751331086022 -8.5653256041082386 0 1 
1 -45.984810309966264 12.594557954967982 0 1 
1 1.8872751331086022 -8.5653256041082386 0 1 
1 -72.025160539669656 -3.7561948051525178 1 0 
1 -49.759360576183468 29.725209163184488 1 0 
1 -1.8872751331085951 7.9846255631517522 0 -1 
1 49.830696447854855 29.725209163184488 0 -1 
1 -1.8872751331085951 7.9846255631517522 0 -1 
1 2.4679751740650886 1.887275133108588 -1 0 
1 53.605246714072052 13.755958036880969 -1 0 
1 -2.4679751740650886 1.887275133108588 0 -1 
1 48.669296365941875 13.755958036880969 0 -1 
1 -2.4679751740650886 -1.8872751331086022 1 0 
1 48.669296365941875 9.9814077706637789 1 0 
1 -1.8872751331085951 6.2425254402822929 0 -1 
1 49.830696447854855 9.9814077706637789 0 -1 
1 -1.8872751331085951 6.2425254402822929 0 -1 
1 8.129800573390888 -1.8872751331086022 0 1 
1 -8.1298005733908809 1.8872751331086022 0 -1 
1 -8.1298005733908809 -1.8872751331086022 1 0 
1 -20.179326423238081 13.64645096247753 1 0 
1 -8.1298005733908809 -1.8872751331086022 1 0 
1 -1.8872751331086022 -8.5653256041082386 1 0 
1 1.8872751331086022 8.565325604108267 -1 0 
1 -1.8872751331086022 8.565325604108267 0 -1 
1 58.140283658107876 22.935252231750695 0 -1 
1 -1.8872751331085951 -7.9846255631517664 1 0 
1 -10.162250716738601 16.114426136542647 0 -1 
1 1.8872751331086022 7.9846255631517522 0 -1 
1 1.8872751331085986 7.9846255631517522 -1 0 
1 -1.8872751331085951 -6.2425254402822787 1 0 
1 1.8872751331086022 25.986326832803002 0 -1 
1 1.8872751331085986 6.2425254402822929 -1 0 
1 116.33935652778055 5.7005545755434497 0 -1 
1 20.179326423238091 -6.0973504300431784 0 -1 
1 116.33935652778055 -1.8485459568909448 -1 0 
1 20.179326423238091 -13.646450962477573 -1 0 
1 75.980703681304377 -1.8485459568909448 0 1 
1 -20.179326423238081 -13.646450962477573 0 1 
1 -16.184846850464602 -0.50594574463933384 1 0 
1 -3.9197252764563117 13.64645096247753 1 0 
1 7.9142048492297983 -0.50594574463933384 0 -1 
1 20.179326423238091 13.64645096247753 0 -1 
1 -1.8872751331085977 6.2425254402822787 0 -1 
1 20.179326423238091 6.3877004505213932 0 -1 
1 -1.8872751331085977 6.2425254402822787 0 -1 
1 -9.5851800510380798 29.6048139630131 0 -1 
1 58.140283658107876 91.748207085094947 0 -1 
1 -1.8872751331086022 8.2749755836300096 0 -1 
1 58.140283658107876 43.259753665227919 0 -1 
1 -72.025160539669656 0.018355461064686551 0 -1 
1 58.140283658107876 26.7098024979679 0 -1 
1 -7.3497521959521777 44.317107299150138 0 -1 
1 58.140283658107876 5.8046010235341896 0 -1 
1 -7.3497521959521777 -5.9134462435863853 -1 0 
1 58.140283658107876 -44.425952519202333 -1 0 
1 1.8872751331085738 -10.16225071673859 0 1 
1 -72.807575577580963 -44.425952519202333 0 1 
1 -23.877226945935547 -52.935859996741215 0 1 
1 -72.807575577580963 -24.101451085725131 0 1 
1 -23.877226945935547 -28.256108256090315 -1 0 
1 -72.807575577580963 0.57830065492576921 -1 0 
1 -73.489091597870129 0.92365095798865582 0 -1 
1 -64.553195108561738 7.4766417168147825 -0.80640499585570669 -0.5913636636275158 
1 -15.622846476916322 -21.357767194201301 -0.80640499585570669 -0.5913636636275158 
1 -57.655523870324316 14.949118891571942 -0.67828010273306816 -0.73480344462748581 
1 -8.7251752386789008 -13.885290019444142 -0.67828010273306816 -0.73480344462748581 
1 -51.084814579266606 23.909177015741648 -0.59136366362751314 -0.80640499585570879 
1 -2.1544659476211905 -4.9252318952744361 -0.59136366362751314 -0.80640499585570879 
1 -2.6436866011781888 23.620836968253087 -0.99998228505123909 0.0059522755062561142 
1 -1.8106253895888642 -4.4563584070486115 0 -1 
1 -50.74097402123428 24.378050503967472 0 -1 
1 -1.8106253895888642 -5.8991566792653884 1 0 
1 -50.74097402123428 22.935252231750695 1 0 
1 46.968178050756421 -5.8991566792653884 0 1 
1 -1.9621705808889942 22.935252231750695 0 1 
1 1.8872751331085738 -8.2749755836300096 0 1 
1 -1.9621705808889942 26.7098024979679 0 1 
1 1.8872751331085738 -8.2749755836300096 0 1 
1 1.7443684824045533 -21.683248794934002 0 1 
1 -1.9621705808889942 43.259753665227919 0 1 
1 1.7443684824045533 -8.6174978734129581 1 0 
1 -1.9621705808889942 56.325504586748963 1 0 
1 -15.533726095586161 -1.8872751331086022 1 0 
1 3.8448298286759268 56.325504586748963 1 0 
1 -15.533726095586161 -1.8872751331086022 1 0 
1 -3.1938502252606895 -1.8872751331085738 1 0 
1 34.91228201984822 56.325504586748963 1 0 
1 -8.4201505938691241 -1.8872751331085738 1 0 
1 41.299982470369628 56.325504586748963 1 0 
1 -8.4201505938691241 -1.8872751331085738 1 0 
1 10.162250716738603 16.114426136542647 -1 0 
1 -10.162250716738601 -16.114426136542633 1 0 
1 10.162250716738603 -16.114426136542633 3.4448109266128528e-18 1 
1 -1.8872751331085977 -6.2425254402822929 1 0 
1 1.8872751331085982 -6.2425254402822929 0 1 
1 1.8872751331085982 6.2425254402822787 -1 0 
1 -1.8872751331086022 -8.2749755836300096 1 0 
1 1.8872751331086022 -8.2749755836300096 0 1 
1 -63.782228818764665 -26.806977570448026 0 1 
1 1.8872751331086022 8.2749755836300096 -1 0 
1 -1.8872751331086306 -10.16225071673859 1 0 
1 1.8872751331085738 10.162250716738612 -1 0 
1 -1.8872751331086306 10.162250716738612 0 -1 
1 -1.8872751331086306 -8.2749755836300096 1 0 
1 1.8872751331085738 8.2749755836300096 -1 0 
1 -1.8872751331086306 8.2749755836300096 0 -1 
1 20.409647824413014 -10.625028913625925 0 -1 
1 -1.8872751331086306 8.2749755836300096 0 -1 
1 15.533726095586132 -1.8872751331086022 0 1 
1 15.533726095586132 1.8872751331086022 -1 0 
1 -15.533726095586161 1.8872751331086022 0 -1 
1 8.4201505938691241 -1.8872751331085738 0 1 
1 8.4201505938691241 1.8872751331086306 -1 0 
1 -8.4201505938691241 1.8872751331086306 0 -1 
1 -13.168746705812334 4.5426045433606816 1 0 
1 40.743778553403828 34.456876750461845 1 0 
1 2.2198043795346942 4.5426045433606816 0 -1 
1 56.132329638750853 34.456876750461845 0 -1 
1 -1.8872751331085982 10.452600737216898 0 -1 
1 56.132329638750853 14.422725337462879 0 -1 
1 51.663948184063059 20.342856894541882 0 -1 
1 56.132329638750853 -6.4824761369708312 0 -1 
1 51.663948184063059 0.018355461064686551 -1 0 
1 56.132329638750853 -26.806977570448026 -1 0 
1 -5.8106297848208754 -18.883639456853928 0 1 
1 -63.782228818764665 -10.257026403188007 0 1 
1 -5.8106297848208754 -17.431889354462726 1 0 
1 -63.782228818764665 -8.8052763007968053 1 0 
1 26.708572508742648 -17.431889354462726 0 1 
1 -31.263026525201141 -8.8052763007968053 0 1 
1 1.887275133108588 -8.1298005733908667 0 1 
1 -31.263026525201141 -5.030726034579601 0 1 
1 -9.6593981450407824 -20.654827181412571 0 1 
1 -31.263026525201141 11.228875112202161 0 1 
1 -9.6593981450407824 2.5731744568471129 1 0 
1 -31.263026525201141 34.456876750461845 1 0 
1 -15.533726095586154 -1.8872751331085738 1 0 
1 9.6763263622315208 34.456876750461845 1 0 
1 46.968178050756421 -2.1246064130481841 -1 0 
1 24.184198090630218 -27.174980080885945 -1 0 
1 1.9639248766283117 -2.1246064130481841 0 1 
1 -20.820055083497891 -27.174980080885945 0 1 
1 1.9639248766283117 51.880497395905536 1 0 
1 -20.820055083497891 26.830123728067775 1 0 
1 -15.824076116064418 -1.8872751331086022 1 0 
1 -16.174454755845943 26.830123728067775 1 0 
1 -15.824076116064418 -1.8872751331086022 1 0 
1 -6.9661321319428282 15.771903846759699 1 0 
1 15.473697476282837 26.830123728067775 1 0 
1 -2.030181783812651 15.771903846759699 0 -1 
1 20.409647824413014 26.830123728067775 0 -1 
1 -1.8872751331085982 -10.452600737216812 1 0 
1 1.8872751331085977 -10.452600737216812 0 1 
1 1.8872751331085977 10.452600737216898 -1 0 
1 -1.8872751331086022 -8.1298005733908667 1 0 
1 1.887275133108588 8.1298005733908951 -1 0 
1 -1.8872751331086022 8.1298005733908951 0 -1 
1 14.372326013673174 -3.4842002457389469 0 -1 
1 15.533726095586154 -1.8872751331085738 0 1 
1 15.533726095586154 1.8872751331086022 -1 0 
1 -15.533726095586154 1.8872751331086022 0 -1 
1 15.824076116064361 -1.8872751331086022 0 1 
1 15.824076116064361 1.8872751331086022 -1 0 
1 -15.824076116064418 1.8872751331086022 0 -1 
1 -21.854099005127111 2.5731744568471129 1 0 
1 5.9521754198040355 19.743801392520737 1 0 
1 -13.433948411257973 2.5731744568471129 0 -1 
1 14.372326013673174 19.743801392520737 0 -1 
1 26.708572508742648 -13.657339088245521 -1 0 
1 18.146876279890364 -19.743801392520709 -1 0 
1 -5.8106297848208754 -13.657339088245521 0 1 
1 -14.37232601367316 -19.743801392520709 0 1 
1 -5.8106297848208754 25.830263696795924 1 0 
1 -14.37232601367316 19.743801392520737 1 0 
1 -6.0973504300431642 -1.8872751331085738 1 0 
1 -6.2425254402822787 19.743801392520737 1 0 
1 -6.0973504300431642 -1.8872751331085738 1 0 
1 6.09735043004315 -1.8872751331085738 0 1 
1 6.09735043004315 1.8872751331086022 -1 0 
1 -6.0973504300431642 1.8872751331086022 0 -1 
Curves 111
1 24.780567719983615 96.932547808827692 0 1 0 0 
1 41.040168866765384 96.932547808827692 0 1 0 0 
1 44.814719132982582 96.932547808827692 0 0 -1 0 
1 44.814719132982582 65.865095617655385 0 1 0 0 
1 120.59607447780473 65.865095617655385 0 0 1 0 
1 120.59607447780473 112.03074887369647 0 0 1 0 
1 124.37062474402194 129.16140008191297 0 -1 0 0 
1 24.780567719983615 129.16140008191297 0 0 -1 0 
1 21.006017453766422 113.19214895560945 0 1 0 0 
1 25.941967801896599 113.19214895560945 0 0 -1 0 
1 25.941967801896599 109.41759868939226 0 -1 0 0 
1 24.780567719983615 109.41759868939226 0 0 -1 0 
1 24.780567719983615 93.157997542610488 0 0 1 0 
1 41.040168866765384 96.932547808827692 0 0 -1 0 
1 41.040168866765384 93.157997542610488 0 -1 0 0 
1 124.37062474402194 112.03074887369647 0 -1 0 0 
1 120.59607447780473 129.16140008191297 0 1 0 0 
1 124.37062474402194 129.16140008191297 0 0 -1 0 
1 24.780567719983615 113.19214895560945 0 -1 0 0 
1 21.006017453766418 129.16140008191297 0 0 -1 0 
1 21.006017453766422 129.16140008191297 0 1 0 0 
1 24.780567719983615 96.932547808827692 0 -1 0 0 
1 21.006017453766422 109.41759868939226 0 1 0 0 
1 0.68151602028921354 73.414196150089779 0 0 -1 0 
1 0.68151602028921354 65.865095617655385 0 1 0 0 
1 41.040168866765384 65.865095617655385 0 0 1 0 
1 24.780567719983615 93.157997542610488 0 -1 0 0 
1 0.68151602028921354 93.157997542610488 0 0 -1 0 
1 0.68151602028921354 85.899247030654351 0 0 -1 0 
1 124.37062474402194 197.97435493525722 0 0 -1 0 
1 124.37062474402194 149.4859015153902 0 0 -1 0 
1 124.37062474402194 132.93595034813018 0 0 -1 0 
1 124.37062474402194 112.03074887369647 0 0 -1 0 
1 124.37062474402194 61.800195330959944 0 1 0 0 
1 255.31848397971078 61.800195330959944 0 0 1 0 
1 255.31848397971078 82.124696764437147 0 0 1 0 
1 255.31848397971078 106.80444850508805 0 1 0 0 
1 255.99999999999994 107.14979880815093 0 0 -1 0 
1 247.06410351069155 113.70278956697706 0 0.80640499585570669 -0.5913636636275158 0 
1 240.16643227245413 121.17526674173422 0 0.67828010273306816 -0.73480344462748581 0 
1 233.59572298139642 130.13532486590393 0 0.59136366362751314 -0.80640499585570879 0 
1 185.154595003308 129.84698481841536 0 0.99998228505123909 0.0059522755062561142 0 
1 233.25188242336409 130.60419835412975 0 0 -1 0 
1 233.25188242336409 129.16140008191297 0 -1 0 0 
1 184.47307898301881 129.16140008191297 0 0 1 0 
1 184.47307898301881 132.93595034813018 0 0 1 0 
1 184.47307898301881 149.4859015153902 0 0 1 0 
1 184.47307898301881 162.55165243691124 0 -1 0 0 
1 178.66607857345389 162.55165243691124 0 -1 0 0 
1 147.59862638228159 162.55165243691124 0 -1 0 0 
1 141.21092593176019 162.55165243691124 0 -1 0 0 
1 0.68151602028921399 129.16140008191297 0 1 0 0 
1 21.006017453766418 96.932547808827692 0 -1 0 0 
1 0.6815160202892141 96.932547808827692 0 -3.4448109266128528e-18 1 0 
1 0.68151602028921354 73.414196150089779 0 -1 0 0 
1 -3.0930342459279823 73.414196150089779 0 0 1 0 
1 -3.0930342459279823 85.899247030654351 0 1 0 0 
1 124.37062474402194 132.93595034813018 0 -1 0 0 
1 120.59607447780473 132.93595034813018 0 0 1 0 
1 120.59607447780473 149.4859015153902 0 1 0 0 
1 259.09303424592798 61.800195330959944 0 -1 0 0 
1 255.31848397971078 82.124696764437147 0 1 0 0 
1 259.09303424592798 82.124696764437147 0 0 -1 0 
1 188.24762924923601 132.93595034813018 0 -1 0 0 
1 184.47307898301881 149.4859015153902 0 1 0 0 
1 188.24762924923601 149.4859015153902 0 0 -1 0 
1 147.59862638228159 162.55165243691124 0 0 1 0 
1 147.59862638228159 166.32620270312844 0 1 0 0 
1 178.66607857345389 166.32620270312844 0 0 -1 0 
1 124.37062474402194 162.55165243691124 0 0 1 0 
1 124.37062474402194 166.32620270312844 0 1 0 0 
1 141.21092593176019 166.32620270312844 0 0 -1 0 
1 16.070067105636241 194.19980466904005 0 -1 0 0 
1 0.68151602028921354 194.19980466904005 0 0 -1 0 
1 0.68151602028921354 174.16565325604108 0 0 -1 0 
1 0.68151602028921354 153.26045178160737 0 0 -1 0 
1 0.68151602028921354 132.93595034813018 0 1 0 0 
1 120.59607447780473 149.4859015153902 0 0 1 0 
1 120.59607447780473 150.9376516177814 0 -1 0 0 
1 88.076872184241211 150.9376516177814 0 0 1 0 
1 88.076872184241211 154.7122018839986 0 0 1 0 
1 88.076872184241211 170.97180303078036 0 0 1 0 
1 88.076872184241211 194.19980466904005 0 -1 0 0 
1 47.137519296808549 194.19980466904005 0 -1 0 0 
1 184.47307898301881 132.93595034813018 0 1 0 0 
1 229.47733215714692 132.93595034813018 0 0 1 0 
1 229.47733215714692 186.9410541570839 0 -1 0 0 
1 224.83173182949497 186.9410541570839 0 -1 0 0 
1 193.18357959736619 186.9410541570839 0 -1 0 0 
1 188.24762924923601 186.9410541570839 0 0 -1 0 
1 0.68151602028921354 153.26045178160737 0 -1 0 0 
1 -3.0930342459279823 153.26045178160737 0 0 1 0 
1 -3.0930342459279823 174.16565325604108 0 1 0 0 
1 91.851422450458401 154.7122018839986 0 -1 0 0 
1 88.076872184241211 170.97180303078036 0 1 0 0 
1 91.851422450458401 170.97180303078036 0 0 -1 0 
1 16.070067105636241 194.19980466904005 0 0 1 0 
1 16.070067105636241 197.97435493525722 0 1 0 0 
1 47.137519296808549 197.97435493525722 0 0 -1 0 
1 193.18357959736619 186.9410541570839 0 0 1 0 
1 193.18357959736619 190.7156044233011 0 1 0 0 
1 224.83173182949497 190.7156044233011 0 0 -1 0 
1 100.27157304432754 194.19980466904005 0 -1 0 0 
1 91.851422450458401 194.19980466904005 0 0 -1 0 
1 88.076872184241211 154.7122018839986 0 1 0 0 
1 120.59607447780473 154.7122018839986 0 0 1 0 
1 120.59607447780473 194.19980466904005 0 -1 0 0 
1 112.46627390441385 194.19980466904005 0 -1 0 0 
1 100.27157304432754 194.19980466904005 0 0 1 0 
1 100.27157304432754 197.97435493525722 0 1 0 0 
1 112.46627390441385 197.97435493525722 0 0 -1 0 
Polygon3D 0
PolygonOnTriangulations 0
Surfaces 53
1 74.61126416783847 99.436190918728485 0 -0 -0 -1 -1 0 0 0 1 -0 
1 32.910368293374503 95.04527267571909 0 -0 -0 -1 -1 0 0 0 1 -0 
1 32.910368293374503 95.04527267571909 0 -0 -0 -1 -1 0 0 0 1 -0 
1 117.02087254806976 67.71364157454633 0 -0 -0 -1 -1 0 0 0 1 -0 
1 122.48334961091334 120.59607447780471 0 -0 -0 -1 -1 0 0 0 1 -0 
1 122.48334961091334 120.59607447780471 0 -0 -0 -1 -1 0 0 0 1 -0 
1 52.345464204352275 132.91759488706549 0 -0 -0 -1 -1 0 0 0 1 -0 
1 22.89329258687502 121.17677451876122 0 -0 -0 -1 -1 0 0 0 1 -0 
1 22.89329258687502 121.17677451876122 0 -0 -0 -1 -1 0 0 0 1 -0 
1 23.47399262783151 111.30487382250087 0 -0 -0 -1 -1 0 0 0 1 -0 
1 22.89329258687502 103.17507324910997 0 -0 -0 -1 -1 0 0 0 1 -0 
1 22.89329258687502 103.17507324910997 0 -0 -0 -1 -1 0 0 0 1 -0 
1 32.910368293374503 95.04527267571909 0 -0 -0 -1 -1 0 0 0 1 -0 
1 20.860842443527304 79.511546580132958 0 -0 -0 -1 -1 0 0 0 1 -0 
1 182.51090840212981 106.22614785016228 0 -0 -0 -1 -1 0 0 0 1 -0 
1 10.843766737027817 113.04697394537033 0 -0 -0 -1 -1 0 0 0 1 -0 
1 117.02087254806976 67.71364157454633 0 -0 -0 -1 -1 0 0 0 1 -0 
1 8.5957208695190115 93.663943287249822 0 -0 -0 -1 -1 0 0 0 1 -0 
1 -1.2057591128193841 79.656721590372072 0 -0 -0 -1 -1 0 0 0 1 -0 
1 -1.2057591128193841 79.656721590372072 0 -0 -0 -1 -1 0 0 0 1 -0 
1 114.78544469298386 168.36954097224412 0 -0 -0 -1 -1 0 0 0 1 -0 
1 122.48334961091334 141.21092593176019 0 -0 -0 -1 -1 0 0 0 1 -0 
1 52.345464204352275 132.91759488706549 0 -0 -0 -1 -1 0 0 0 1 -0 
1 117.02087254806976 67.71364157454633 0 -0 -0 -1 -1 0 0 0 1 -0 
1 257.20575911281935 71.962446047698535 0 -0 -0 -1 -1 0 0 0 1 -0 
1 231.44125703377523 135.06055676117836 0 -0 -0 -1 -1 0 0 0 1 -0 
1 186.36035411612738 141.21092593176019 0 -0 -0 -1 -1 0 0 0 1 -0 
1 186.36035411612738 141.21092593176019 0 -0 -0 -1 -1 0 0 0 1 -0 
1 186.21744746542336 171.1691503103242 0 -0 -0 -1 -1 0 0 0 1 -0 
1 163.13235247786773 164.43892757001984 0 -0 -0 -1 -1 0 0 0 1 -0 
1 163.13235247786773 164.43892757001984 0 -0 -0 -1 -1 0 0 0 1 -0 
1 144.4047761570209 164.43892757001981 0 -0 -0 -1 -1 0 0 0 1 -0 
1 132.79077533789106 164.43892757001981 0 -0 -0 -1 -1 0 0 0 1 -0 
1 132.79077533789106 164.43892757001981 0 -0 -0 -1 -1 0 0 0 1 -0 
1 56.813845659040069 159.7429279185782 0 -0 -0 -1 -1 0 0 0 1 -0 
1 186.36035411612738 141.21092593176019 0 -0 -0 -1 -1 0 0 0 1 -0 
1 208.65727707364903 160.11093042901612 0 -0 -0 -1 -1 0 0 0 1 -0 
1 2.9013203998239079 189.65720012567937 0 -0 -0 -1 -1 0 0 0 1 -0 
1 -1.2057591128193845 163.71305251882418 0 -0 -0 -1 -1 0 0 0 1 -0 
1 52.345464204352275 132.91759488706549 0 -0 -0 -1 -1 0 0 0 1 -0 
1 114.78544469298386 168.36954097224412 0 -0 -0 -1 -1 0 0 0 1 -0 
1 89.964147317349799 162.84200245738947 0 -0 -0 -1 -1 0 0 0 1 -0 
1 78.417474039200428 191.62663021219294 0 -0 -0 -1 -1 0 0 0 1 -0 
1 31.603793201222395 196.08707980214862 0 -0 -0 -1 -1 0 0 0 1 -0 
1 231.44125703377523 135.06055676117836 0 -0 -0 -1 -1 0 0 0 1 -0 
1 209.00765571343055 188.8283292901925 0 -0 -0 -1 -1 0 0 0 1 -0 
1 209.00765571343055 188.8283292901925 0 -0 -0 -1 -1 0 0 0 1 -0 
1 186.21744746542336 171.1691503103242 0 -0 -0 -1 -1 0 0 0 1 -0 
1 106.22374846413157 174.45600327651931 0 -0 -0 -1 -1 0 0 0 1 -0 
1 78.417474039200428 191.62663021219294 0 -0 -0 -1 -1 0 0 0 1 -0 
1 114.78544469298386 168.36954097224412 0 -0 -0 -1 -1 0 0 0 1 -0 
1 106.36892347437069 196.08707980214862 0 -0 -0 -1 -1 0 0 0 1 -0 
1 106.36892347437069 196.08707980214862 0 -0 -0 -1 -1 0 0 0 1 -0 
Triangulations 0

TShapes 249
Ve
1.00000029296428e-07
24.7805677199836 96.9325478088277 0
0 0

0101101
*
Ve
1e-07
41.0401688667654 96.9325478088277 0
0 0

0101101
*
Ed
 1e-07 1 1 0
1  1 0 0 16.2596011467818
2  1 2 0 0 16.2596011467818
2  2 1 0 0 16.2596011467818
2  3 3 0 0 16.2596011467818
0

0101000
+249 0 -248 0 *
Ve
1e-07
44.8147191329826 96.9325478088277 0
0 0

0101101
*
Ed
 1e-07 1 1 0
1  2 0 0 3.7745502662172
2  4 4 0 0 3.7745502662172
2  5 1 0 0 3.7745502662172
0

0101000
+248 0 -246 0 *
Ve
1e-07
44.8147191329826 65.8650956176554 0
0 0

0101101
*
Ed
 1e-07 1 1 0
1  3 0 0 31.0674521911723
2  6 4 0 0 31.0674521911723
2  7 1 0 0 31.0674521911723
0

0101000
+246 0 -244 0 *
Ve
1e-07
120.596074477805 65.8650956176554 0
0 0

0101101
*
Ed
 1e-07 1 1 0
1  4 0 0 75.7813553448221
2  8 4 0 0 75.7813553448221
2  9 1 0 0 75.7813553448221
0

0101000
+244 0 -242 0 *
Ve
1e-07
120.596074477805 112.030748873696 0
0 0

0101101
*
Ed
 1e-07 1 1 0
1  5 0 0 46.1656532560411
2  10 4 0 0 46.1656532560411
2  11 1 0 0 46.1656532560411
0

0101000
+242 0 -240 0 *
Ve
1.00000028421709e-07
120.596074477805 129.161400081913 0
0 0

0101101
*
Ed
 1e-07 1 1 0
1  6 0 0 17.1306512082165
2  12 5 0 0 17.1306512082165
2  13 1 0 0 17.1306512082165
2  14 6 0 0 17.1306512082165
0

0101000
+240 0 -238 0 *
Ve
1.00000029296427e-07
24.7805677199836 129.161400081913 0
0 0

0101101
*
Ed
 1e-07 1 1 0
1  7 0 3.77455026621693 99.5900570240383
2  15 7 0 3.77455026621693 99.5900570240383
2  16 1 0 3.77455026621693 99.5900570240383
0

0101000
+238 0 -236 0 *
Ve
1.00000454747351e-07
24.7805677199836 113.192148955609 0
0 0

0101101
*
Ed
 1e-07 1 1 0
1  8 0 0 15.9692511263035
2  17 8 0 0 15.9692511263035
2  18 1 0 0 15.9692511263035
2  19 9 0 0 15.9692511263035
0

0101000
+236 0 -234 0 *
Ve
1e-07
25.9419678018966 113.192148955609 0
0 0

0101101
*
Ed
 1e-07 1 1 0
1  9 0 3.77455026621718 4.93595034813018
2  20 10 0 3.77455026621718 4.93595034813018
2  21 1 0 3.77455026621718 4.93595034813018
0

0101000
+234 0 -232 0 *
Ve
1e-07
25.9419678018966 109.417598689392 0
0 0

0101101
*
Ed
 1e-07 1 1 0
1  10 0 0 3.77455026621719
2  22 10 0 0 3.77455026621719
2  23 1 0 0 3.77455026621719
0

0101000
+232 0 -230 0 *
Ve
1.0000027000624e-07
24.7805677199836 109.417598689392 0
0 0

0101101
*
Ed
 1e-07 1 1 0
1  11 0 0 1.161400081913
2  24 10 0 0 1.161400081913
2  25 1 0 0 1.161400081913
0

0101000
+230 0 -228 0 *
Ed
 1e-07 1 1 0
1  12 0 0 12.4850508805646
2  26 11 0 0 12.4850508805646
2  27 1 0 0 12.4850508805646
2  28 12 0 0 12.4850508805646
0

0101000
+228 0 -249 0 *
Wi

0101100
-247 0 -245 0 -243 0 -241 0 -239 0 -237 0 -235 0 -233 0 -231 0 -229 0 
-227 0 -226 0 *
Fa
0  1e-07 1 0

0101000
+225 0 *
Ve
1e-07
24.7805677199836 93.1579975426105 0
0 0

0101101
*
Ed
 1e-07 1 1 0
1  13 0 0 3.7745502662172
2  29 3 0 0 3.7745502662172
0

0101000
+223 0 -249 0 *
Ve
1.00000014210855e-07
41.0401688667654 93.1579975426105 0
0 0

0101101
*
Ed
 1e-07 1 1 0
1  14 0 0 3.7745502662172
2  30 3 0 0 3.7745502662172
0

0101000
+248 0 -221 0 *
Ed
 1e-07 1 1 0
1  15 0 0 16.2596011467818
2  31 13 0 0 16.2596011467818
2  32 14 0 0 16.2596011467818
2  33 3 0 0 16.2596011467818
0

0101000
+221 0 -223 0 *
Wi

0101100
+222 0 +247 0 +220 0 +219 0 *
Fa
0  1e-07 3 0

0111000
+218 0 *
Ve
1e-07
124.370624744022 112.030748873696 0
0 0

0101101
*
Ed
 1e-07 1 1 0
1  16 0 0 3.7745502662172
2  34 6 0 0 3.7745502662172
0

0101000
+216 0 -240 0 *
Ve
1e-07
124.370624744022 129.161400081913 0
0 0

0101101
*
Ed
 1e-07 1 1 0
1  17 0 0 3.7745502662172
2  35 6 0 0 3.7745502662172
0

0101000
+238 0 -214 0 *
Ed
 1e-07 1 1 0
1  18 0 0 17.1306512082165
2  36 6 0 0 17.1306512082165
2  37 15 0 0 17.1306512082165
0

0101000
+214 0 -216 0 *
Wi

0101100
+215 0 +237 0 +213 0 +212 0 *
Fa
0  1e-07 6 0

0111000
+211 0 *
Ve
1.00000017763568e-07
21.0060174537664 113.192148955609 0
0 0

0101101
*
Ed
 1e-07 1 1 0
1  19 0 0 3.77455026621719
2  38 9 0 0 3.77455026621719
0

0101000
+234 0 -209 0 *
Ve
1.00000016758117e-07
21.0060174537664 129.161400081913 0
0 0

0101101
*
Ed
 1.00000003552714e-07 1 1 0
1  20 0 0 15.969251126304
2  39 16 0 0 15.969251126304
2  40 9 0 0 15.969251126304
0

0101000
+207 0 -209 0 *
Ed
 1e-07 1 1 0
1  21 0 0 3.77455026621719
2  41 9 0 0 3.77455026621719
0

0101000
+207 0 -236 0 *
Wi

0101100
+208 0 -206 0 +205 0 +233 0 *
Fa
0  1e-07 9 0

0111000
+204 0 *
Ve
1.00000028859068e-07
21.0060174537664 96.9325478088277 0
0 0

0101101
*
Ed
 1e-07 1 1 0
1  22 0 0 3.77455026621719
2  42 12 0 0 3.77455026621719
0

0101000
+249 0 -202 0 *
Ve
1.00000017763568e-07
21.0060174537664 109.417598689392 0
0 0

0101101
*
Ed
 1.00000003552714e-07 1 1 0
1  20 0 19.743801392521 32.2288522730853
2  39 16 0 19.743801392521 32.2288522730853
2  43 12 0 19.743801392521 32.2288522730853
0

0101000
+200 0 -202 0 *
Ed
 1e-07 1 1 0
1  23 0 0 3.77455026621719
2  44 12 0 0 3.77455026621719
0

0101000
+200 0 -228 0 *
Wi

0101100
+201 0 -199 0 +198 0 +226 0 *
Fa
0  1e-07 12 0

0111000
+197 0 *
Ve
1.00000000222045e-07
0.681516020289214 73.4141961500898 0
0 0

0101101
*
Ve
1e-07
0.681516020289214 65.8650956176554 0
0 0

0101101
*
Ed
 1e-07 1 1 0
1  24 0 0 7.54910053243439
2  45 17 0 0 7.54910053243439
2  46 14 0 0 7.54910053243439
0

0101000
+195 0 -194 0 *
Ve
1e-07
41.0401688667654 65.8650956176554 0
0 0

0101101
*
Ed
 1e-07 1 1 0
1  25 0 0 40.3586528464762
2  47 17 0 0 40.3586528464762
2  48 14 0 0 40.3586528464762
0

0101000
+194 0 -192 0 *
Ed
 1e-07 1 1 0
1  26 0 0 27.2929019249551
2  49 17 0 0 27.2929019249551
2  50 14 0 0 27.2929019249551
0

0101000
+192 0 -221 0 *
Ve
1e-07
0.681516020289214 93.1579975426105 0
0 0

0101101
*
Ed
 1e-07 1 1 0
1  27 0 0 24.0990516996944
2  51 18 0 0 24.0990516996944
2  52 14 0 0 24.0990516996944
0

0101000
+223 0 -189 0 *
Ve
1.00000000222045e-07
0.681516020289214 85.8992470306544 0
0 0

0101101
*
Ed
 1e-07 1 1 0
1  28 0 0 7.25875051195614
2  53 18 0 0 7.25875051195614
2  54 14 0 0 7.25875051195614
0

0101000
+189 0 -187 0 *
Ed
 1e-07 1 1 0
1  29 0 0 12.4850508805646
2  55 19 0 0 12.4850508805646
2  56 14 0 0 12.4850508805646
2  57 20 0 0 12.4850508805646
0

0101000
+187 0 -195 0 *
Wi

0101100
-193 0 -191 0 -190 0 -219 0 -188 0 -186 0 -185 0 *
Fa
0  1e-07 14 0

0101000
+184 0 *
Ve
1.00000056843419e-07
124.370624744022 162.551652436911 0
0 0

0101101
*
Ve
1e-07
124.370624744022 149.48590151539 0
0 0

0101101
*
Ed
 1e-07 1 1 0
1  30 0 35.4227024983462 48.488453419867
2  58 21 0 35.4227024983462 48.488453419867
2  59 15 0 35.4227024983462 48.488453419867
0

0101000
+182 0 -181 0 *
Ve
1e-07
124.370624744022 132.93595034813 0
0 0

0101101
*
Ed
 1e-07 1 1 0
1  31 0 0 16.54995116726
2  60 22 0 0 16.54995116726
2  61 15 0 0 16.54995116726
0

0101000
+181 0 -179 0 *
Ed
 1e-07 1 1 0
1  32 0 0 3.7745502662172
2  62 23 0 0 3.7745502662172
2  63 15 0 0 3.7745502662172
0

0101000
+179 0 -214 0 *
Ve
1e-07
124.370624744022 61.8001953309599 0
0 0

0101101
*
Ed
 1e-07 1 1 0
1  33 0 0 50.2305535427365
2  64 24 0 0 50.2305535427365
2  65 15 0 0 50.2305535427365
0

0101000
+216 0 -176 0 *
Ve
1.00000042632564e-07
255.318483979711 61.8001953309599 0
0 0

0101101
*
Ed
 1e-07 1 1 0
1  34 0 0 130.947859235689
2  66 24 0 0 130.947859235689
2  67 15 0 0 130.947859235689
0

0101000
+176 0 -174 0 *
Ve
1e-07
255.318483979711 82.1246967644371 0
0 0

0101101
*
Ed
 1e-07 1 1 0
1  35 0 0 20.3245014334772
2  68 25 0 0 20.3245014334772
2  69 15 0 0 20.3245014334772
0

0101000
+174 0 -172 0 *
Ve
1e-07
255.318483979711 106.804448505088 0
0 0

0101101
*
Ed
 1e-07 1 1 0
1  36 0 0 24.6797517406509
2  70 26 0 0 24.6797517406509
2  71 15 0 0 24.6797517406509
0

0101000
+172 0 -170 0 *
Ve
1e-07
256 106.804448505088 0
0 0

0101101
*
Ed
 1e-07 1 1 0
1  37 0 0 0.681516020289166
2  72 26 0 0 0.681516020289166
2  73 15 0 0 0.681516020289166
0

0101000
+170 0 -168 0 *
Ve
1.00000014210855e-07
256 107.149798808151 0
0 0

0101101
*
Ed
 1e-07 1 1 0
1  38 0 0 0.345350303062887
2  74 15 0 0 0.345350303062887
0

0101000
+166 0 -168 0 *
Ve
1.00000229143147e-07
247.064103510692 113.702789566977 0
0 0

0101101
*
Ed
 1.00000014210855e-07 1 1 0
1  39 0 0 11.0811521942844
2  75 15 0 0 11.0811521942844
2  76 26 0 0 11.0811521942844
0

0101000
+164 0 -166 0 *
Ve
1.00000128094913e-07
240.166432272454 121.175266741734 0
0 0

0101101
*
Ed
 1.00000014210855e-07 1 1 0
1  40 0 0 10.1693551240024
2  77 15 0 0 10.1693551240024
2  78 26 0 0 10.1693551240024
0

0101000
+162 0 -164 0 *
Ve
1.00000040194367e-07
233.595722981396 130.135324865904 0
0 0

0101101
*
Ed
 1.00000040194367e-07 1 1 0
1  41 0 0 11.1111143534792
2  79 15 0 0 11.1111143534792
2  80 26 0 0 11.1111143534792
0

0101000
+160 0 -162 0 *
Ve
1e-07
233.251882423364 130.133278195916 0
0 0

0101101
*
Ed
 1e-07 1 1 0
1  42 0 48.0981394761324 48.4419861253905
2  81 15 0 48.0981394761324 48.4419861253905
0

0101000
+158 0 -160 0 *
Ve
1e-07
233.251882423364 129.161400081913 0
0 0

0101101
*
Ed
 1e-07 1 1 0
1  43 0 0.470920158214113 1.44279827221678
2  82 26 0 0.470920158214113 1.44279827221678
2  83 15 0 0.470920158214113 1.44279827221678
0

0101000
+158 0 -156 0 *
Ve
1e-07
184.473078983019 129.161400081913 0
0 0

0101101
*
Ed
 1e-07 1 1 0
1  44 0 0 48.7788034403453
2  84 26 0 0 48.7788034403453
2  85 15 0 0 48.7788034403453
0

0101000
+156 0 -154 0 *
Ve
1e-07
184.473078983019 132.93595034813 0
0 0

0101101
*
Ed
 1e-07 1 1 0
1  45 0 0 3.7745502662172
2  86 26 0 0 3.7745502662172
2  87 15 0 0 3.7745502662172
0

0101000
+154 0 -152 0 *
Ve
1e-07
184.473078983019 149.48590151539 0
0 0

0101101
*
Ed
 1e-07 1 1 0
1  46 0 0 16.54995116726
2  88 27 0 0 16.54995116726
2  89 15 0 0 16.54995116726
2  90 28 0 0 16.54995116726
0

0101000
+152 0 -150 0 *
Ve
1e-07
184.473078983019 162.551652436911 0
0 0

0101101
*
Ed
 1e-07 1 1 0
1  47 0 0 13.065750921521
2  91 29 0 0 13.065750921521
2  92 15 0 0 13.065750921521
0

0101000
+150 0 -148 0 *
Ve
1e-07
178.666078573454 162.551652436911 0
0 0

0101101
*
Ed
 1e-07 1 1 0
1  48 0 0 5.80700040956492
2  93 29 0 0 5.80700040956492
2  94 15 0 0 5.80700040956492
0

0101000
+148 0 -146 0 *
Ve
1e-07
147.598626382282 162.551652436911 0
0 0

0101101
*
Ed
 1e-07 1 1 0
1  49 0 0 31.0674521911723
2  95 30 0 0 31.0674521911723
2  96 15 0 0 31.0674521911723
2  97 31 0 0 31.0674521911723
0

0101000
+146 0 -144 0 *
Ve
1e-07
141.21092593176 162.551652436911 0
0 0

0101101
*
Ed
 1e-07 1 1 0
1  50 0 0 6.38770045052141
2  98 32 0 0 6.38770045052141
2  99 15 0 0 6.38770045052141
0

0101000
+144 0 -142 0 *
Ed
 1e-07 1 1 0
1  51 0 0 16.8403011877382
2  100 33 0 0 16.8403011877382
2  101 15 0 0 16.8403011877382
2  102 34 0 0 16.8403011877382
0

0101000
+142 0 -182 0 *
Wi

0101100
-180 0 -178 0 -177 0 -212 0 -175 0 -173 0 -171 0 -169 0 -167 0 +165 0 
+163 0 +161 0 +159 0 +157 0 -155 0 -153 0 -151 0 -149 0 -147 0 -145 0 
-143 0 -141 0 -140 0 *
Fa
0  1e-07 15 0

0101000
+139 0 *
Ve
1.00000007105427e-07
0.681516020289214 129.161400081913 0
0 0

0101101
*
Ed
 1.00000007105427e-07 1 1 0
1  52 0 0 20.3245014334772
2  103 16 0 0 20.3245014334772
0

0101000
+137 0 -207 0 *
Ed
 1.00000003552714e-07 1 1 0
1  20 0 15.969251126304 19.743801392521
2  39 16 0 15.969251126304 19.743801392521
0

0101000
+209 0 -200 0 *
Ve
1.00000001776357e-07
0.681516020289214 96.9325478088277 0
0 0

0101101
*
Ed
 1.00000001776357e-07 1 1 0
1  53 0 0 20.3245014334772
2  104 16 0 0 20.3245014334772
0

0101000
+202 0 -134 0 *
Ed
 1e-07 1 1 0
1  54 0 0 32.2288522730853
2  105 16 0 0 32.2288522730853
0

0101000
+134 0 -137 0 *
Wi

0101100
+136 0 +206 0 +135 0 +199 0 +133 0 +132 0 *
Fa
0  1e-07 16 0

0111000
+131 0 *
Ve
1e-07
-3.09303424592798 73.4141961500898 0
0 0

0101101
*
Ed
 1e-07 1 1 0
1  55 0 0 3.7745502662172
2  106 20 0 0 3.7745502662172
0

0101000
+195 0 -129 0 *
Ve
1e-07
-3.09303424592798 85.8992470306544 0
0 0

0101101
*
Ed
 1e-07 1 1 0
1  56 0 0 12.4850508805646
2  107 20 0 0 12.4850508805646
0

0101000
+129 0 -127 0 *
Ed
 1e-07 1 1 0
1  57 0 0 3.7745502662172
2  108 20 0 0 3.7745502662172
0

0101000
+127 0 -187 0 *
Wi

0101100
+128 0 +126 0 +125 0 +185 0 *
Fa
0  1e-07 20 0

0111000
+124 0 *
Ve
1.00000170530257e-07
120.596074477805 132.93595034813 0
0 0

0101101
*
Ed
 1e-07 1 1 0
1  58 0 0 3.7745502662172
2  109 22 0 0 3.7745502662172
0

0101000
+179 0 -122 0 *
Ve
1e-07
120.596074477805 149.48590151539 0
0 0

0101101
*
Ed
 1e-07 1 1 0
1  59 0 0 16.54995116726
2  110 22 0 0 16.54995116726
2  111 35 0 0 16.54995116726
0

0101000
+122 0 -120 0 *
Ed
 1e-07 1 1 0
1  60 0 0 3.7745502662172
2  112 22 0 0 3.7745502662172
0

0101000
+120 0 -181 0 *
Wi

0101100
+121 0 +119 0 +118 0 +178 0 *
Fa
0  1e-07 22 0

0111000
+117 0 *
Ve
1e-07
259.093034245928 61.8001953309599 0
0 0

0101101
*
Ed
 1e-07 1 1 0
1  61 0 0 3.7745502662172
2  113 25 0 0 3.7745502662172
0

0101000
+115 0 -174 0 *
Ve
1e-07
259.093034245928 82.1246967644371 0
0 0

0101101
*
Ed
 1e-07 1 1 0
1  62 0 0 3.7745502662172
2  114 25 0 0 3.7745502662172
0

0101000
+172 0 -113 0 *
Ed
 1e-07 1 1 0
1  63 0 0 20.3245014334772
2  115 25 0 0 20.3245014334772
0

0101000
+113 0 -115 0 *
Wi

0101100
+114 0 +171 0 +112 0 +111 0 *
Fa
0  1e-07 25 0

0111000
+110 0 *
Ve
1.00000170530257e-07
188.247629249236 132.93595034813 0
0 0

0101101
*
Ed
 1e-07 1 1 0
1  64 0 0 3.7745502662172
2  116 28 0 0 3.7745502662172
0

0101000
+108 0 -152 0 *
Ve
1e-07
188.247629249236 149.48590151539 0
0 0

0101101
*
Ed
 1e-07 1 1 0
1  65 0 0 3.7745502662172
2  117 28 0 0 3.7745502662172
0

0101000
+150 0 -106 0 *
Ed
 1e-07 1 1 0
1  66 0 0 16.54995116726
2  118 36 0 0 16.54995116726
2  119 37 0 0 16.54995116726
2  120 28 0 0 16.54995116726
0

0101000
+106 0 -108 0 *
Wi

0101100
+107 0 +149 0 +105 0 +104 0 *
Fa
0  1e-07 28 0

0111000
+103 0 *
Ve
1e-07
147.598626382282 166.326202703128 0
0 0

0101101
*
Ed
 1e-07 1 1 0
1  67 0 0 3.7745502662172
2  121 31 0 0 3.7745502662172
0

0101000
+144 0 -101 0 *
Ve
1e-07
178.666078573454 166.326202703128 0
0 0

0101101
*
Ed
 1e-07 1 1 0
1  68 0 0 31.0674521911723
2  122 31 0 0 31.0674521911723
0

0101000
+101 0 -99 0 *
Ed
 1e-07 1 1 0
1  69 0 0 3.7745502662172
2  123 31 0 0 3.7745502662172
0

0101000
+99 0 -146 0 *
Wi

0101100
+100 0 +98 0 +97 0 +143 0 *
Fa
0  1e-07 31 0

0111000
+96 0 *
Ve
1e-07
124.370624744022 166.326202703128 0
0 0

0101101
*
Ed
 1e-07 1 1 0
1  70 0 0 3.7745502662172
2  124 34 0 0 3.7745502662172
0

0101000
+182 0 -94 0 *
Ve
1e-07
141.21092593176 166.326202703128 0
0 0

0101101
*
Ed
 1e-07 1 1 0
1  71 0 0 16.8403011877382
2  125 34 0 0 16.8403011877382
0

0101000
+94 0 -92 0 *
Ed
 1e-07 1 1 0
1  72 0 0 3.7745502662172
2  126 34 0 0 3.7745502662172
0

0101000
+92 0 -142 0 *
Wi

0101100
+93 0 +91 0 +90 0 +140 0 *
Fa
0  1e-07 34 0

0111000
+89 0 *
Ve
1e-07
16.0700671056362 194.19980466904 0
0 0

0101101
*
Ve
1e-07
0.681516020289214 194.19980466904 0
0 0

0101101
*
Ed
 1e-07 1 1 0
1  73 0 0 15.388551085347
2  127 38 0 0 15.388551085347
2  128 35 0 0 15.388551085347
0

0101000
+87 0 -86 0 *
Ve
1.00000000222045e-07
0.681516020289214 174.165653256041 0
0 0

0101101
*
Ed
 1e-07 1 1 0
1  74 0 0 20.034151412999
2  129 38 0 0 20.034151412999
2  130 35 0 0 20.034151412999
0

0101000
+86 0 -84 0 *
Ve
1.00000000222045e-07
0.681516020289214 153.260451781607 0
0 0

0101101
*
Ed
 1e-07 1 1 0
1  75 0 0 20.9052014744337
2  131 39 0 0 20.9052014744337
2  132 35 0 0 20.9052014744337
0

0101000
+84 0 -82 0 *
Ve
1e-07
0.681516020289214 132.93595034813 0
0 0

0101101
*
Ed
 1e-07 1 1 0
1  76 0 0 20.3245014334772
2  133 40 0 0 20.3245014334772
2  134 35 0 0 20.3245014334772
0

0101000
+82 0 -80 0 *
Ed
 1e-07 1 1 0
1  77 0 0 119.914558457516
2  135 40 0 0 119.914558457516
2  136 35 0 0 119.914558457516
0

0101000
+80 0 -122 0 *
Ve
1e-07
120.596074477805 150.937651617781 0
0 0

0101101
*
Ed
 1e-07 1 1 0
1  78 0 0 1.4517501023912
2  137 41 0 0 1.4517501023912
2  138 35 0 0 1.4517501023912
0

0101000
+120 0 -77 0 *
Ve
1e-07
88.0768721842412 150.937651617781 0
0 0

0101101
*
Ed
 1e-07 1 1 0
1  79 0 0 32.5192022935635
2  139 41 0 0 32.5192022935635
2  140 35 0 0 32.5192022935635
0

0101000
+77 0 -75 0 *
Ve
1e-07
88.0768721842412 154.712201883999 0
0 0

0101101
*
Ed
 1e-07 1 1 0
1  80 0 0 3.7745502662172
2  141 41 0 0 3.7745502662172
2  142 35 0 0 3.7745502662172
0

0101000
+75 0 -73 0 *
Ve
1e-07
88.0768721842412 170.97180303078 0
0 0

0101101
*
Ed
 1e-07 1 1 0
1  81 0 0 16.2596011467818
2  143 42 0 0 16.2596011467818
2  144 35 0 0 16.2596011467818
0

0101000
+73 0 -71 0 *
Ve
1e-07
88.0768721842412 194.19980466904 0
0 0

0101101
*
Ed
 1e-07 1 1 0
1  82 0 0 23.2280016382597
2  145 43 0 0 23.2280016382597
2  146 35 0 0 23.2280016382597
0

0101000
+71 0 -69 0 *
Ve
1e-07
47.1375192968085 194.19980466904 0
0 0

0101101
*
Ed
 1e-07 1 1 0
1  83 0 0 40.9393528874327
2  147 43 0 0 40.9393528874327
2  148 35 0 0 40.9393528874327
0

0101000
+69 0 -67 0 *
Ed
 1e-07 1 1 0
1  84 0 0 31.0674521911723
2  149 44 0 0 31.0674521911723
2  150 35 0 0 31.0674521911723
0

0101000
+67 0 -87 0 *
Wi

0101100
-85 0 -83 0 -81 0 -79 0 -78 0 -119 0 -76 0 -74 0 -72 0 -70 0 
-68 0 -66 0 -65 0 *
Fa
0  1e-07 35 0

0101000
+64 0 *
Ve
1e-07
229.477332157147 132.93595034813 0
0 0

0101101
*
Ed
 1e-07 1 1 0
1  85 0 3.7745502662172 45.0042531741281
2  151 45 0 3.7745502662172 45.0042531741281
2  152 37 0 3.7745502662172 45.0042531741281
0

0101000
+108 0 -62 0 *
Ve
1e-07
229.477332157147 186.941054157084 0
0 0

0101101
*
Ed
 1e-07 1 1 0
1  86 0 0 54.0051038089537
2  153 45 0 0 54.0051038089537
2  154 37 0 0 54.0051038089537
0

0101000
+62 0 -60 0 *
Ve
1e-07
224.831731829495 186.941054157084 0
0 0

0101101
*
Ed
 1e-07 1 1 0
1  87 0 0 4.64560032765195
2  155 45 0 0 4.64560032765195
2  156 37 0 0 4.64560032765195
0

0101000
+60 0 -58 0 *
Ve
1e-07
193.183579597366 186.941054157084 0
0 0

0101101
*
Ed
 1e-07 1 1 0
1  88 0 0 31.6481522321288
2  157 46 0 0 31.6481522321288
2  158 37 0 0 31.6481522321288
2  159 47 0 0 31.6481522321288
0

0101000
+58 0 -56 0 *
Ve
1e-07
188.247629249236 186.941054157084 0
0 0

0101101
*
Ed
 1e-07 1 1 0
1  89 0 0 4.93595034813018
2  160 48 0 0 4.93595034813018
2  161 37 0 0 4.93595034813018
0

0101000
+56 0 -54 0 *
Ed
 1e-07 1 1 0
1  90 0 0 37.4551526416937
2  162 48 0 0 37.4551526416937
2  163 37 0 0 37.4551526416937
0

0101000
+54 0 -106 0 *
Wi

0101100
-61 0 -59 0 -57 0 -55 0 -53 0 -52 0 -104 0 *
Fa
0  1e-07 37 0

0101000
+51 0 *
Ve
1e-07
-3.09303424592798 153.260451781607 0
0 0

0101101
*
Ed
 1e-07 1 1 0
1  91 0 0 3.7745502662172
2  164 39 0 0 3.7745502662172
0

0101000
+82 0 -49 0 *
Ve
1e-07
-3.09303424592798 174.165653256041 0
0 0

0101101
*
Ed
 1e-07 1 1 0
1  92 0 0 20.9052014744337
2  165 39 0 0 20.9052014744337
0

0101000
+49 0 -47 0 *
Ed
 1e-07 1 1 0
1  93 0 0 3.7745502662172
2  166 39 0 0 3.7745502662172
0

0101000
+47 0 -84 0 *
Wi

0101100
+48 0 +46 0 +45 0 +81 0 *
Fa
0  1e-07 39 0

0111000
+44 0 *
Ve
1.00000397903932e-07
91.8514224504584 154.712201883999 0
0 0

0101101
*
Ed
 1e-07 1 1 0
1  94 0 0 3.77455026621719
2  167 42 0 0 3.77455026621719
0

0101000
+42 0 -73 0 *
Ve
1e-07
91.8514224504584 170.97180303078 0
0 0

0101101
*
Ed
 1e-07 1 1 0
1  95 0 0 3.77455026621719
2  168 42 0 0 3.77455026621719
0

0101000
+71 0 -40 0 *
Ed
 1e-07 1 1 0
1  96 0 0 16.2596011467818
2  169 42 0 0 16.2596011467818
2  170 49 0 0 16.2596011467818
0

0101000
+40 0 -42 0 *
Wi

0101100
+41 0 +70 0 +39 0 +38 0 *
Fa
0  1e-07 42 0

0111000
+37 0 *
Ve
1e-07
16.0700671056362 197.974354935257 0
0 0

0101101
*
Ed
 1e-07 1 1 0
1  97 0 0 3.77455026621718
2  171 44 0 0 3.77455026621718
0

0101000
+87 0 -35 0 *
Ve
1e-07
47.1375192968085 197.974354935257 0
0 0

0101101
*
Ed
 1e-07 1 1 0
1  98 0 0 31.0674521911723
2  172 44 0 0 31.0674521911723
0

0101000
+35 0 -33 0 *
Ed
 1e-07 1 1 0
1  99 0 0 3.77455026621718
2  173 44 0 0 3.77455026621718
0

0101000
+33 0 -67 0 *
Wi

0101100
+34 0 +32 0 +31 0 +65 0 *
Fa
0  1e-07 44 0

0111000
+30 0 *
Ve
1e-07
193.183579597366 190.715604423301 0
0 0

0101101
*
Ed
 1e-07 1 1 0
1  100 0 0 3.7745502662172
2  174 47 0 0 3.7745502662172
0

0101000
+56 0 -28 0 *
Ve
1e-07
224.831731829495 190.715604423301 0
0 0

0101101
*
Ed
 1e-07 1 1 0
1  101 0 0 31.6481522321288
2  175 47 0 0 31.6481522321288
0

0101000
+28 0 -26 0 *
Ed
 1e-07 1 1 0
1  102 0 0 3.7745502662172
2  176 47 0 0 3.7745502662172
0

0101000
+26 0 -58 0 *
Wi

0101100
+27 0 +25 0 +24 0 +55 0 *
Fa
0  1e-07 47 0

0111000
+23 0 *
Ve
1e-07
100.271573044328 194.19980466904 0
0 0

0101101
*
Ve
1e-07
91.8514224504584 194.19980466904 0
0 0

0101101
*
Ed
 1e-07 1 1 0
1  103 0 0 8.42015059386914
2  177 50 0 0 8.42015059386914
2  178 49 0 0 8.42015059386914
0

0101000
+21 0 -20 0 *
Ed
 1e-07 1 1 0
1  104 0 0 23.2280016382597
2  179 50 0 0 23.2280016382597
2  180 49 0 0 23.2280016382597
0

0101000
+20 0 -40 0 *
Ve
1e-07
120.596074477805 154.712201883999 0
0 0

0101101
*
Ed
 1e-07 1 1 0
1  105 0 3.77455026621719 32.5192022935635
2  181 51 0 3.77455026621719 32.5192022935635
2  182 49 0 3.77455026621719 32.5192022935635
0

0101000
+42 0 -17 0 *
Ve
1e-07
120.596074477805 194.19980466904 0
0 0

0101101
*
Ed
 1e-07 1 1 0
1  106 0 0 39.4876027850414
2  183 51 0 0 39.4876027850414
2  184 49 0 0 39.4876027850414
0

0101000
+17 0 -15 0 *
Ve
1e-07
112.466273904414 194.19980466904 0
0 0

0101101
*
Ed
 1e-07 1 1 0
1  107 0 0 8.12980057339088
2  185 51 0 0 8.12980057339088
2  186 49 0 0 8.12980057339088
0

0101000
+15 0 -13 0 *
Ed
 1e-07 1 1 0
1  108 0 0 12.1947008600863
2  187 52 0 0 12.1947008600863
2  188 49 0 0 12.1947008600863
2  189 53 0 0 12.1947008600863
0

0101000
+13 0 -21 0 *
Wi

0101100
-19 0 -18 0 -38 0 -16 0 -14 0 -12 0 -11 0 *
Fa
0  1e-07 49 0

0101000
+10 0 *
Ve
1e-07
100.271573044328 197.974354935257 0
0 0

0101101
*
Ed
 1e-07 1 1 0
1  109 0 0 3.77455026621718
2  190 53 0 0 3.77455026621718
0

0101000
+21 0 -8 0 *
Ve
1e-07
112.466273904414 197.974354935257 0
0 0

0101101
*
Ed
 1e-07 1 1 0
1  110 0 0 12.1947008600863
2  191 53 0 0 12.1947008600863
0

0101000
+8 0 -6 0 *
Ed
 1e-07 1 1 0
1  111 0 0 3.77455026621718
2  192 53 0 0 3.77455026621718
0

0101000
+6 0 -13 0 *
Wi

0101100
+7 0 +5 0 +4 0 +11 0 *
Fa
0  1e-07 53 0

0111000
+3 0 *
Sh

0101000
+224 0 +217 0 +210 0 +203 0 +196 0 +183 0 +138 0 +130 0 +123 0 +116 0 
+109 0 +102 0 +95 0 +88 0 +63 0 +50 0 +43 0 +36 0 +29 0 +22 0 
+9 0 +2 0 *

+1 0 