
CASCADE Topology V3, (c) Open Cascade
Locations 0
Curve2ds 187
1 9.3053311793214846 -2.4814216478190616 0 1 
1 9.3053311793214846 2.4814216478190758 -1 0 
1 52.155113238028378 3.9593501386899277 -1 0 
1 -9.3053311793214846 2.4814216478190758 0 -1 
1 -9.3053311793214846 -2.4814216478190616 1 0 
1 -17.990306946688236 29.570274636510504 1 0 
1 -2.6511415246746139 34.113695247965381 0 -1 
1 69.525064772761823 8.0950528850550256 0 -1 
1 -2.6511415246746139 29.977992501600284 -1 0 
1 69.525064772761823 3.9593501386899277 -1 0 
1 9.6496838070738704 44.478474732330454 -1 0 
1 33.544450879385408 3.9593501386899277 -1 0 
1 4.6868405114357472 44.478474732330454 0 -1 
1 28.581607583747285 3.9593501386899277 0 -1 
1 4.6868405114357472 -7.631379871869882 -1 0 
1 28.581607583747285 -48.150504465510409 -1 0 
1 9.4087237479806731 2.4814216478190616 -1 0 
1 -13.085597585881118 -48.150504465510402 -1 0 
1 -17.93562243783083 -75.188006996770497 -1 0 
1 -31.90304508184235 -48.150504465510409 -1 0 
1 -41.405735523452847 -75.188006996770497 0 1 
1 -55.373158167464368 -48.150504465510409 0 1 
1 -41.405735523452847 15.797453423261828 1 0 
1 -55.373158167464368 42.834955954521917 1 0 
1 21.870516495933259 15.797453423261828 0 -1 
1 7.9030938519217386 42.834955954521917 0 -1 
1 21.870516495933259 0.081782987074419111 1 0 
1 7.9030938519217386 27.119285518334507 1 0 
1 -2.4814216478190616 9.5121163166397338 0 -1 
1 69.525064772761823 27.119285518334507 0 -1 
1 -20.021093059408059 25.015149205962146 1 0 
1 0.62035541195473343 29.570274636510504 1 0 
1 -2.6511415246746139 25.015149205962146 0 -1 
1 17.990306946688179 29.570274636510504 0 -1 
1 -2.6511415246746139 -34.125400067058855 -1 0 
1 17.990306946688179 -29.570274636510497 -1 0 
1 7.0306946688207006 2.4814216478190625 -1 0 
1 9.7189014539579546 -29.570274636510497 -1 0 
1 7.0306946688207006 2.4814216478190625 -1 0 
1 23.297502870078716 -19.624917836328684 -1 0 
1 -4.3424878836833898 -29.570274636510497 -1 0 
1 9.6496838070738704 -19.624917836328684 0 1 
1 -17.990306946688236 -29.570274636510497 0 1 
1 -9.4087237479805594 -2.4814216478190669 1 0 
1 -8.2733920714873648 18.648068282752178 1 0 
1 9.4087237479806731 -2.4814216478190669 0 1 
1 -9.4087237479805594 2.4814216478190581 0 -1 
1 -2.4814216478190616 -9.512116316639748 1 0 
1 2.4814216478190616 -9.512116316639748 0 1 
1 -22.493525522398713 -93.905146659880558 0 1 
1 2.4814216478190616 9.5121163166397338 -1 0 
1 7.0306946688207006 -2.4814216478190643 0 1 
1 -7.0306946688206438 2.4814216478190625 0 -1 
1 -7.0306946688206438 -2.4814216478190643 1 0 
1 31.946317136913166 -18.573256434533771 -0.011110425303552612 0.99993827731994245 
1 31.541937312824217 17.820927733479156 -1 0 
1 31.532746862276724 17.820927733479156 0 1 
1 31.532746862276724 18.648068282752178 -1 0 
1 23.261341369546528 18.648068282752178 -1 0 
1 -8.2733920714873648 18.648068282752178 -1 0 
1 -20.990678016560111 18.648068282752178 -1 0 
1 -31.743505157109382 18.648068282752178 0 -1 
1 -31.743505157109411 17.820927733479156 0 -1 
1 -31.743505157109411 -18.573256434533771 1 0 
1 -29.405070569018648 29.015799600715212 0 -1 
1 8.1108748007030727 77.726617314271323 0 -1 
1 -33.263351842436762 18.428557205873147 -1 0 
1 13.073518096341189 33.060927653528182 -1 0 
1 -38.226195138074885 18.428557205873147 0 -1 
1 8.110674800703066 33.060927653528182 0 -1 
1 -38.226195138074885 -0.59567542740634849 1 0 
1 8.110674800703066 14.036695020248686 1 0 
1 19.26007303640008 -0.59567542740634849 0 -1 
1 65.596942975178024 14.036695020248686 0 -1 
1 -2.4814216478190616 9.4087237479806163 0 -1 
1 65.596942975178024 -15.430187047602686 0 -1 
1 -2.504977754076684 35.607229532966343 0 -1 
1 65.596942975178024 -34.247634543563919 0 -1 
1 -2.504977754076684 -0.063206654432676146 -1 0 
1 65.596942975178024 -69.918070730962938 -1 0 
1 -56.26911345682305 -0.063206654432676146 0 -1 
1 11.832807272431666 -69.918070730962938 0 -1 
1 -2.4814216478190474 9.5121163166397338 0 -1 
1 11.832807272431666 -74.880914026601076 0 -1 
1 -36.424322892480347 55.114517996245738 0 -1 
1 11.832807272431666 -93.905146659880558 0 -1 
1 9.0985460420032354 2.4814216478190758 -1 0 
1 11.832807272431666 -98.040849406245655 -1 0 
1 18.440942481787417 29.977992501600284 -1 0 
1 -6.3642848115748052 -98.040849406245655 -1 0 
1 2.3117017709635093 29.977992501600284 0 1 
1 -22.493525522398713 -98.040849406245655 0 1 
1 88.455330712411467 0.081782987074419111 0 1 
1 -22.493525522398713 -74.880914026601076 0 1 
1 88.455330712411467 5.0446262827125565 -1 0 
1 -22.493525522398713 -69.918070730962938 -1 0 
1 26.833359791571411 5.0446262827125565 0 1 
1 -84.115496443238769 -69.918070730962938 0 1 
1 2.4814216478190758 -11.786752827140532 0 1 
1 -84.115496443238769 9.9009922738835883 0 1 
1 2.4814216478190758 -11.786752827140532 0 1 
1 -78.225145220547276 -26.614919399808116 1 0 
1 -89.07833973887692 33.474497928164681 1 0 
1 -5.0232066098848946 -26.614919399808116 0 1 
1 -15.876401128214539 33.474497928164681 0 1 
1 -5.0232066098848946 17.637099986298523 1 0 
1 -15.876401128214539 77.726517314271319 1 0 
1 19.26007303640008 18.428557205873147 0 -1 
1 28.080997605456311 -15.649890060027928 0 -1 
1 19.26007303640008 4.3671678682317747 -1 0 
1 28.080997605456311 -29.711279397669301 -1 0 
1 -33.263351842436762 4.3671678682317747 0 1 
1 -24.442427273380531 -29.711279397669301 0 1 
1 -33.263351842436762 18.428557205873147 -1 0 
1 -24.442427273380531 -15.649890060027928 -1 0 
1 -5.0232066098848946 17.637099986298523 1 0 
1 -53.392346497936259 29.015699600715209 1 0 
1 -2.4814216478190687 22.332794830371597 0 -1 
1 28.080997605456311 29.015699600715209 0 -1 
1 -2.4814216478190687 22.332794830371597 0 -1 
1 -2.4814216478190687 3.7221324717286279 0 -1 
1 28.080997605456311 10.40503724207224 0 -1 
1 -2.4814216478190687 3.7221324717286279 0 -1 
1 -2.4814216478190687 -3.7221324717285711 0 -1 
1 28.080997605456311 2.9607722986150407 0 -1 
1 -2.4814216478190687 -3.7221324717285711 0 -1 
1 -2.4814216478190616 -9.4087237479806163 1 0 
1 2.4814216478190616 -9.4087237479806163 0 1 
1 -15.760595002761338 -13.292716790453539 0 1 
1 2.4814216478190616 9.4087237479806163 -1 0 
1 -2.4814216478190474 -9.512116316639748 1 0 
1 2.4814216478190758 -9.512116316639748 0 1 
1 -42.597738287560581 24.60743134087236 0 1 
1 2.4814216478190758 9.5121163166397338 -1 0 
1 9.0985460420032354 -2.4814216478190616 0 1 
1 -9.0985460420032354 2.4814216478190758 0 -1 
1 -9.0985460420032354 -2.4814216478190616 1 0 
1 -1.0339256865913029 29.570274636510504 1 0 
1 -9.0985460420032354 -2.4814216478190616 1 0 
1 -2.4814216478190758 -11.786752827140532 1 0 
1 2.4814216478190758 11.78675282714056 -1 0 
1 -2.4814216478190758 11.78675282714056 0 -1 
1 -2.4814216478190687 -22.33279483037154 1 0 
1 2.4814216478190545 -22.33279483037154 0 1 
1 2.4814216478190545 -3.7221324717285711 0 1 
1 2.4814216478190545 3.7221324717286279 0 1 
1 2.4814216478190545 22.332794830371597 -1 0 
1 15.670745869613464 49.053002111000438 -1 0 
1 -14.933454453488316 49.053002111000438 0 -1 
1 -14.933454453488316 34.991612773359066 -1 0 
1 -15.760595002761338 34.991612773359066 0 -1 
1 -15.760595002761338 18.035231513262147 0 -1 
1 -15.760595002761338 -13.292716790453539 0 -1 
1 -15.760595002761338 -25.803217598207979 0 -1 
1 -15.760595002761338 -48.963152977852559 1 0 
1 15.670745869613464 -48.963152977852559 -9.0615513217691437e-18 1 
1 -2.4814216478190629 17.783521809369965 0 -1 
1 42.597738287560588 19.644588045234237 0 -1 
1 53.733996978278945 14.584631081867709 0 -1 
1 42.597738287560588 -15.922455573505673 0 -1 
1 53.733996978278945 -13.124577318778494 -1 0 
1 42.597738287560588 -43.631663974151877 -1 0 
1 -31.461479596842224 -13.124577318778494 0 1 
1 -42.597738287560581 -43.631663974151877 0 1 
1 -56.26911345682305 -5.0260499500708136 1 0 
1 -47.560581583198704 43.631663974151842 1 0 
1 33.889206413936243 -5.0260499500708136 0 -1 
1 42.597738287560588 43.631663974151842 0 -1 
1 -36.424322892480347 55.114517996245738 0 -1 
1 17.163166397415168 38.66882067851374 0 -1 
1 -36.424322892480347 -13.124577318778494 -1 0 
1 17.163166397415168 -29.570274636510497 -1 0 
1 7.2374798061389356 2.4814216478190634 -1 0 
1 8.8917609046849577 -29.570274636510497 -1 0 
1 7.2374798061389356 2.4814216478190634 -1 0 
1 13.891669460785806 -34.125400067058855 -1 0 
1 -5.5831987075929135 -29.570274636510497 -1 0 
1 2.3117017709635093 -34.125400067058855 0 1 
1 -17.16316639741521 -29.570274636510497 0 1 
1 2.3117017709635093 25.015149205962146 1 0 
1 -17.16316639741521 29.570274636510504 1 0 
1 -2.4814216478190629 -17.783521809369944 1 0 
1 2.4814216478190634 -17.783521809369944 0 1 
1 2.4814216478190634 17.783521809369965 -1 0 
1 7.2374798061389356 -2.4814216478190634 0 1 
1 -7.2374798061389356 2.4814216478190634 0 -1 
1 -7.2374798061389356 -2.4814216478190634 1 0 
Curves 114
1 147.64458804523426 67.205169628432955 0 0 1 0 
1 147.64458804523426 72.168012924071093 0 1 0 0 
1 166.25525040387723 72.168012924071093 0 0 -1 0 
1 166.25525040387723 67.205169628432955 0 -1 0 0 
1 130.27463651050081 76.303715670436191 0 0 -1 0 
1 130.27463651050081 72.168012924071093 0 1 0 0 
1 166.25525040387723 72.168012924071093 0 1 0 0 
1 171.21809369951535 72.168012924071093 0 0 -1 0 
1 171.21809369951535 20.05815831987076 0 1 0 0 
1 212.88529886914375 20.058158319870763 0 1 0 0 
1 231.70274636510499 20.05815831987076 0 1 0 0 
1 255.172859450727 20.05815831987076 0 0 1 0 
1 255.172859450727 111.04361873990308 0 -1 0 0 
1 191.8966074313409 111.04361873990308 0 0 -1 0 
1 191.8966074313409 95.327948303715672 0 -1 0 0 
1 130.27463651050081 95.327948303715672 0 0 -1 0 
1 147.64458804523426 67.205169628432955 0 -1 0 0 
1 130.27463651050081 67.205169628432955 0 0 -1 0 
1 130.27463651050081 8.0646203554119555 0 1 0 0 
1 138.54604200323104 8.0646203554119555 0 1 0 0 
1 152.60743134087238 8.0646203554119555 0 1 0 0 
1 166.25525040387723 8.0646203554119555 0 0 1 0 
1 231.70274636510499 15.095315024232635 0 -1 0 0 
1 212.88529886914375 15.095315024232635 0 0 1 0 
1 231.70274636510499 20.05815831987076 0 0 -1 0 
1 130.27463651050081 76.303715670436191 0 -1 0 0 
1 125.31179321486269 76.303715670436191 0 0 1 0 
1 125.31179321486269 95.327948303715672 0 1 0 0 
1 138.54604200323104 3.1017770597738288 0 0 1 0 
1 152.60743134087238 8.0646203554119555 0 0 -1 0 
1 152.60743134087238 3.1017770597738288 0 -1 0 0 
1 191.48303715670446 -22.126009693053312 0 0.011110425303552612 0.99993827731994245 0 
1 191.8874169807934 14.268174474959613 0 1 0 0 
1 191.8966074313409 14.268174474959613 0 0 1 0 
1 191.8966074313409 15.095315024232635 0 1 0 0 
1 200.16801292407109 15.095315024232635 0 1 0 0 
1 231.70274636510499 15.095315024232635 0 1 0 0 
1 244.42003231017773 15.095315024232635 0 1 0 0 
1 255.172859450727 15.095315024232635 0 0 -1 0 
1 255.17285945072703 14.268174474959613 0 0 -1 0 
1 255.17285945072703 -22.126009693053312 0 -1 0 0 
1 94.707392891760904 247.93547964458807 0 0 -1 0 
1 89.744749596122787 203.26978998384493 0 1 0 0 
1 94.70759289176091 203.26978998384493 0 0 -1 0 
1 94.70759289176091 184.24555735056543 0 -1 0 0 
1 37.221324717285945 184.24555735056543 0 0 -1 0 
1 37.221324717285945 154.77867528271406 0 0 -1 0 
1 37.221324717285945 135.96122778675283 0 0 -1 0 
1 37.221324717285945 100.29079159935381 0 1 0 0 
1 90.985460420032311 100.29079159935381 0 0 -1 0 
1 90.985460420032311 95.327948303715672 0 0 -1 0 
1 90.985460420032311 76.303715670436191 0 0 -1 0 
1 90.985460420032311 72.168012924071093 0 1 0 0 
1 109.18255250403878 72.168012924071093 0 1 0 0 
1 125.31179321486269 72.168012924071093 0 0 1 0 
1 125.31179321486269 95.327948303715672 0 0 1 0 
1 125.31179321486269 100.29079159935381 0 1 0 0 
1 186.93376413570275 100.29079159935381 0 0 1 0 
1 186.93376413570275 180.10985460420034 0 0 1 0 
1 191.8966074313409 203.68336025848143 0 -1 0 0 
1 118.69466882067852 203.68336025848143 0 0 1 0 
1 118.69466882067852 247.93537964458807 0 -1 0 0 
1 37.221324717285945 203.26978998384493 0 0 -1 0 
1 37.221324717285945 189.20840064620356 0 1 0 0 
1 89.744749596122787 189.20840064620356 0 0 1 0 
1 89.744749596122787 203.26978998384493 0 1 0 0 
1 118.69466882067852 247.93537964458807 0 -1 0 0 
1 37.221324717285945 247.93537964458807 0 0 -1 0 
1 37.221324717285945 229.3247172859451 0 0 -1 0 
1 37.221324717285945 221.8804523424879 0 0 -1 0 
1 37.221324717285945 135.96122778675283 0 -1 0 0 
1 32.258481421647822 135.96122778675283 0 0 1 0 
1 32.258481421647822 154.77867528271406 0 1 0 0 
1 90.985460420032311 76.303715670436191 0 -1 0 0 
1 86.022617124394188 76.303715670436191 0 0 1 0 
1 86.022617124394188 95.327948303715672 0 1 0 0 
1 90.985460420032311 67.205169628432955 0 0 1 0 
1 109.18255250403878 72.168012924071093 0 0 -1 0 
1 109.18255250403878 67.205169628432955 0 -1 0 0 
1 191.8966074313409 180.10985460420034 0 -1 0 0 
1 186.93376413570275 203.68336025848143 0 1 0 0 
1 191.8966074313409 203.68336025848143 0 0 -1 0 
1 37.221324717285945 203.26978998384493 0 -1 0 0 
1 32.258481421647822 203.26978998384493 0 0 1 0 
1 32.258481421647822 221.8804523424879 0 0 1 0 
1 32.258481421647822 229.3247172859451 0 0 1 0 
1 32.258481421647822 247.93537964458807 0 1 0 0 
1 0.82714054927302072 198.30694668820681 0 1 0 0 
1 31.4313408723748 198.30694668820681 0 0 -1 0 
1 31.4313408723748 184.24555735056543 0 1 0 0 
1 32.258481421647822 184.24555735056543 0 0 -1 0 
1 32.258481421647822 167.28917609046852 0 0 -1 0 
1 32.258481421647822 135.96122778675283 0 0 -1 0 
1 32.258481421647822 123.45072697899839 0 0 -1 0 
1 32.258481421647822 100.29079159935381 0 -1 0 0 
1 0.82714054927301983 100.29079159935381 0 9.0615513217691437e-18 1 0 
1 0.82714054927302105 71.340872374798067 0 0 -1 0 
1 0.82714054927302105 35.773828756058158 0 0 -1 0 
1 0.82714054927302105 8.0646203554119555 0 1 0 0 
1 86.022617124394188 8.0646203554119555 0 0 1 0 
1 90.985460420032311 95.327948303715672 0 -1 0 0 
1 0.82714054927302105 95.327948303715672 0 0 -1 0 
1 90.985460420032311 76.303715670436191 0 0 -1 0 
1 90.985460420032311 8.0646203554119555 0 1 0 0 
1 99.256865912762521 8.0646203554119555 0 1 0 0 
1 113.73182552504039 8.0646203554119555 0 1 0 0 
1 125.31179321486269 8.0646203554119555 0 0 1 0 
1 125.31179321486269 67.205169628432955 0 -1 0 0 
1 0.82714054927302105 35.773828756058158 0 -1 0 0 
1 -4.135702746365105 35.773828756058158 0 0 1 0 
1 -4.135702746365105 71.340872374798067 0 1 0 0 
1 99.256865912762521 3.1017770597738288 0 0 1 0 
1 113.73182552504039 8.0646203554119555 0 0 -1 0 
1 113.73182552504039 3.1017770597738288 0 -1 0 0 
Polygon3D 0
PolygonOnTriangulations 0
Surfaces 41
1 156.94991922455574 69.686591276252017 0 -0 -0 -1 -1 0 0 0 1 -0 
1 199.79970128326264 68.208662785381165 0 -0 -0 -1 -1 0 0 0 1 -0 
1 148.26494345718899 37.634894991922451 0 -0 -0 -1 -1 0 0 0 1 -0 
1 127.6234949858262 42.190020422470809 0 -0 -0 -1 -1 0 0 0 1 -0 
1 175.9049342109511 27.689538191740642 0 -0 -0 -1 -1 0 0 0 1 -0 
1 222.29402261712443 17.576736672051702 0 -0 -0 -1 -1 0 0 0 1 -0 
1 213.76712392727416 95.246165316641253 0 -0 -0 -1 -1 0 0 0 1 -0 
1 127.79321486268175 85.815831987075939 0 -0 -0 -1 -1 0 0 0 1 -0 
1 127.6234949858262 42.190020422470809 0 -0 -0 -1 -1 0 0 0 1 -0 
1 145.57673667205174 5.5831987075928931 0 -0 -0 -1 -1 0 0 0 1 -0 
1 145.57673667205174 5.5831987075928931 0 -0 -0 -1 -1 0 0 0 1 -0 
1 175.9049342109511 27.689538191740642 0 -0 -0 -1 -1 0 0 0 1 -0 
1 223.42935429361762 -3.5527532585195423 0 -0 -0 -1 -1 0 0 0 1 -0 
1 102.81826769246398 170.20886233031675 0 -0 -0 -1 -1 0 0 0 1 -0 
1 65.302322322742256 218.91968004387286 0 -0 -0 -1 -1 0 0 0 1 -0 
1 56.481397753686025 184.84123277797178 0 -0 -0 -1 -1 0 0 0 1 -0 
1 34.739903069466884 145.36995153473345 0 -0 -0 -1 -1 0 0 0 1 -0 
1 34.716346963209261 100.35399825378649 0 -0 -0 -1 -1 0 0 0 1 -0 
1 88.504038772213264 85.815831987075939 0 -0 -0 -1 -1 0 0 0 1 -0 
1 54.561137527551963 21.189197674190449 0 -0 -0 -1 -1 0 0 0 1 -0 
1 100.08400646203555 69.686591276252017 0 -0 -0 -1 -1 0 0 0 1 -0 
1 127.6234949858262 42.190020422470809 0 -0 -0 -1 -1 0 0 0 1 -0 
1 213.76712392727416 95.246165316641253 0 -0 -0 -1 -1 0 0 0 1 -0 
1 189.41518578352182 191.89660743134087 0 -0 -0 -1 -1 0 0 0 1 -0 
1 189.41518578352182 191.89660743134087 0 -0 -0 -1 -1 0 0 0 1 -0 
1 113.67146221079362 230.29827965828954 0 -0 -0 -1 -1 0 0 0 1 -0 
1 56.481397753686025 184.84123277797178 0 -0 -0 -1 -1 0 0 0 1 -0 
1 113.67146221079362 230.29827965828954 0 -0 -0 -1 -1 0 0 0 1 -0 
1 34.739903069466877 225.60258481421647 0 -0 -0 -1 -1 0 0 0 1 -0 
1 34.739903069466877 225.60258481421647 0 -0 -0 -1 -1 0 0 0 1 -0 
1 16.497886418886484 149.25394457720637 0 -0 -0 -1 -1 0 0 0 1 -0 
1 43.424878836833606 51.696284329563831 0 -0 -0 -1 -1 0 0 0 1 -0 
1 100.08400646203555 69.686591276252017 0 -0 -0 -1 -1 0 0 0 1 -0 
1 108.14862681744748 37.634894991922451 0 -0 -0 -1 -1 0 0 0 1 -0 
1 -1.6542810985460419 53.557350565428102 0 -0 -0 -1 -1 0 0 0 1 -0 
1 54.561137527551963 21.189197674190449 0 -0 -0 -1 -1 0 0 0 1 -0 
1 34.716346963209261 100.35399825378649 0 -0 -0 -1 -1 0 0 0 1 -0 
1 54.561137527551963 21.189197674190449 0 -0 -0 -1 -1 0 0 0 1 -0 
1 106.49434571890146 5.5831987075928922 0 -0 -0 -1 -1 0 0 0 1 -0 
1 106.49434571890146 5.5831987075928922 0 -0 -0 -1 -1 0 0 0 1 -0 
1 127.6234949858262 42.190020422470809 0 -0 -0 -1 -1 0 0 0 1 -0 
Triangulations 0

TShapes 249
Ve
1e-07
147.644588045234 67.205169628433 0
0 0

0101101
*
Ve
1e-07
147.644588045234 72.1680129240711 0
0 0

0101101
*
Ed
 1e-07 1 1 0
1  1 0 0 4.96284329563814
2  1 1 0 0 4.96284329563814
0

0101000
+249 0 -248 0 *
Ve
1e-07
166.255250403877 72.1680129240711 0
0 0

0101101
*
Ed
 1e-07 1 1 0
1  2 0 0 18.610662358643
2  2 1 0 0 18.610662358643
2  3 2 0 0 18.610662358643
0

0101000
+248 0 -246 0 *
Ve
1.00000227373675e-07
166.255250403877 67.205169628433 0
0 0

0101101
*
Ed
 1e-07 1 1 0
1  3 0 0 4.96284329563814
2  4 1 0 0 4.96284329563814
0

0101000
+246 0 -244 0 *
Ed
 1e-07 1 1 0
1  4 0 0 18.610662358643
2  5 1 0 0 18.610662358643
2  6 3 0 0 18.610662358643
0

0101000
+244 0 -249 0 *
Wi

0101100
+247 0 +245 0 +243 0 +242 0 *
Fa
0  1e-07 1 0

0111000
+241 0 *
Ve
1e-07
130.274636510501 76.3037156704362 0
0 0

0101101
*
Ve
1e-07
130.274636510501 72.1680129240711 0
0 0

0101101
*
Ed
 1e-07 1 1 0
1  5 0 0 4.1357027463651
2  7 4 0 0 4.1357027463651
2  8 2 0 0 4.1357027463651
0

0101000
+239 0 -238 0 *
Ed
 1e-07 1 1 0
1  6 0 0 17.3699515347334
2  9 4 0 0 17.3699515347334
2  10 2 0 0 17.3699515347334
0

0101000
+238 0 -248 0 *
Ve
1e-07
171.218093699515 72.1680129240711 0
0 0

0101101
*
Ed
 1e-07 1 1 0
1  7 0 0 4.96284329563812
2  11 5 0 0 4.96284329563812
2  12 2 0 0 4.96284329563812
0

0101000
+246 0 -235 0 *
Ve
1e-07
171.218093699515 20.0581583198708 0
0 0

0101101
*
Ed
 1e-07 1 1 0
1  8 0 0 52.1098546042003
2  13 5 0 0 52.1098546042003
2  14 2 0 0 52.1098546042003
0

0101000
+235 0 -233 0 *
Ve
1.00000001776357e-07
212.885298869144 20.0581583198708 0
0 0

0101101
*
Ed
 1e-07 1 1 0
1  9 0 0 41.6672051696284
2  15 5 0 0 41.6672051696284
2  16 2 0 0 41.6672051696284
0

0101000
+233 0 -231 0 *
Ve
1.00000001776357e-07
231.702746365105 20.0581583198708 0
0 0

0101101
*
Ed
 1e-07 1 1 0
1  10 0 0 18.8174474959612
2  17 6 0 0 18.8174474959612
2  18 2 0 0 18.8174474959612
0

0101000
+231 0 -229 0 *
Ve
1e-07
255.172859450727 20.0581583198708 0
0 0

0101101
*
Ed
 1e-07 1 1 0
1  11 0 0 23.470113085622
2  19 7 0 0 23.470113085622
2  20 2 0 0 23.470113085622
0

0101000
+229 0 -227 0 *
Ve
1e-07
255.172859450727 111.043618739903 0
0 0

0101101
*
Ed
 1e-07 1 1 0
1  12 0 0 90.9854604200323
2  21 7 0 0 90.9854604200323
2  22 2 0 0 90.9854604200323
0

0101000
+227 0 -225 0 *
Ve
1e-07
191.896607431341 111.043618739903 0
0 0

0101101
*
Ed
 1e-07 1 1 0
1  13 0 0 63.2762520193861
2  23 7 0 0 63.2762520193861
2  24 2 0 0 63.2762520193861
0

0101000
+225 0 -223 0 *
Ve
1e-07
191.896607431341 95.3279483037157 0
0 0

0101101
*
Ed
 1e-07 1 1 0
1  14 0 0 15.7156704361874
2  25 7 0 0 15.7156704361874
2  26 2 0 0 15.7156704361874
0

0101000
+223 0 -221 0 *
Ve
1.00000028421709e-07
130.274636510501 95.3279483037157 0
0 0

0101101
*
Ed
 1e-07 1 1 0
1  15 0 0 61.6219709208399
2  27 7 0 0 61.6219709208399
2  28 2 0 0 61.6219709208399
0

0101000
+221 0 -219 0 *
Ed
 1e-07 1 1 0
1  16 0 0 19.0242326332795
2  29 8 0 0 19.0242326332795
2  30 2 0 0 19.0242326332795
0

0101000
+219 0 -239 0 *
Wi

0101100
-237 0 -236 0 -245 0 -234 0 -232 0 -230 0 -228 0 -226 0 -224 0 -222 0 
-220 0 -218 0 -217 0 *
Fa
0  1e-07 2 0

0101000
+216 0 *
Ve
1e-07
130.274636510501 67.205169628433 0
0 0

0101101
*
Ed
 1e-07 1 1 0
1  17 0 0 17.3699515347334
2  31 9 0 0 17.3699515347334
2  32 3 0 0 17.3699515347334
0

0101000
+249 0 -214 0 *
Ve
1e-07
130.274636510501 8.06462035541196 0
0 0

0101101
*
Ed
 1e-07 1 1 0
1  18 0 0 59.140549273021
2  33 9 0 0 59.140549273021
2  34 3 0 0 59.140549273021
0

0101000
+214 0 -212 0 *
Ve
1e-07
138.546042003231 8.06462035541196 0
0 0

0101101
*
Ed
 1e-07 1 1 0
1  19 0 0 8.27140549273022
2  35 9 0 0 8.27140549273022
2  36 3 0 0 8.27140549273022
0

0101000
+212 0 -210 0 *
Ve
1e-07
152.607431340872 8.06462035541196 0
0 0

0101101
*
Ed
 1e-07 1 1 0
1  20 0 0 14.0613893376413
2  37 10 0 0 14.0613893376413
2  38 3 0 0 14.0613893376413
2  39 11 0 0 14.0613893376413
0

0101000
+210 0 -208 0 *
Ve
1e-07
166.255250403877 8.06462035541196 0
0 0

0101101
*
Ed
 1e-07 1 1 0
1  21 0 0 13.6478190630048
2  40 12 0 0 13.6478190630048
2  41 3 0 0 13.6478190630048
0

0101000
+208 0 -206 0 *
Ed
 1e-07 1 1 0
1  22 0 0 59.140549273021
2  42 12 0 0 59.140549273021
2  43 3 0 0 59.140549273021
0

0101000
+206 0 -244 0 *
Wi

0101100
-213 0 -211 0 -209 0 -207 0 -205 0 -204 0 -242 0 *
Fa
0  1e-07 3 0

0101000
+203 0 *
Ve
1.00000031022738e-07
231.702746365105 15.0953150242326 0
0 0

0101101
*
Ve
1.00000143972599e-07
212.885298869144 15.0953150242326 0
0 0

0101101
*
Ed
 1e-07 1 1 0
1  23 0 0 18.8174474959612
2  44 6 0 0 18.8174474959612
2  45 13 0 0 18.8174474959612
0

0101000
+201 0 -200 0 *
Ed
 1e-07 1 1 0
1  24 0 0 4.96284329563812
2  46 6 0 0 4.96284329563812
0

0101000
+200 0 -231 0 *
Ed
 1e-07 1 1 0
1  25 0 0 4.96284329563812
2  47 6 0 0 4.96284329563812
0

0101000
+229 0 -201 0 *
Wi

0101100
+199 0 +198 0 +228 0 +197 0 *
Fa
0  1e-07 6 0

0111000
+196 0 *
Ve
1e-07
125.311793214863 76.3037156704362 0
0 0

0101101
*
Ed
 1e-07 1 1 0
1  26 0 0 4.96284329563812
2  48 8 0 0 4.96284329563812
0

0101000
+239 0 -194 0 *
Ve
1e-07
125.311793214863 95.3279483037157 0
0 0

0101101
*
Ed
 1e-07 1 1 0
1  27 0 0 19.0242326332795
2  49 8 0 0 19.0242326332795
2  50 14 0 0 19.0242326332795
0

0101000
+194 0 -192 0 *
Ed
 1e-07 1 1 0
1  28 0 0 4.96284329563812
2  51 8 0 0 4.96284329563812
0

0101000
+192 0 -219 0 *
Wi

0101100
+193 0 +191 0 +190 0 +217 0 *
Fa
0  1e-07 8 0

0111000
+189 0 *
Ve
1e-07
138.546042003231 3.10177705977383 0
0 0

0101101
*
Ed
 1e-07 1 1 0
1  29 0 0 4.96284329563813
2  52 11 0 0 4.96284329563813
0

0101000
+187 0 -210 0 *
Ve
1e-07
152.607431340872 3.10177705977383 0
0 0

0101101
*
Ed
 1e-07 1 1 0
1  30 0 0 4.96284329563813
2  53 11 0 0 4.96284329563813
0

0101000
+208 0 -185 0 *
Ed
 1e-07 1 1 0
1  31 0 0 14.0613893376413
2  54 11 0 0 14.0613893376413
0

0101000
+185 0 -187 0 *
Wi

0101100
+186 0 +207 0 +184 0 +183 0 *
Fa
0  1e-07 11 0

0111000
+182 0 *
Ve
1e-07
191.483037156704 -22.1260096930533 0
0 0

0101101
*
Ve
1e-07
191.887416980793 14.2681744749596 0
0 0

0101101
*
Ed
 1e-07 1 1 0
1  32 0 0 36.3964306532574
2  55 13 0 0 36.3964306532574
0

0101000
+180 0 -179 0 *
Ve
1.00000057182414e-07
191.896607431341 14.2681744749596 0
0 0

0101101
*
Ed
 1e-07 1 1 0
1  33 0 0 0.0091904505474929
2  56 13 0 0 0.0091904505474929
0

0101000
+179 0 -177 0 *
Ve
1.00000059554333e-07
191.896607431341 15.0953150242326 0
0 0

0101101
*
Ed
 1e-07 1 1 0
1  34 0 0 0.827140549273022
2  57 13 0 0 0.827140549273022
0

0101000
+177 0 -175 0 *
Ve
1e-07
200.168012924071 15.0953150242326 0
0 0

0101101
*
Ed
 1e-07 1 1 0
1  35 0 0 8.2714054927302
2  58 13 0 0 8.2714054927302
0

0101000
+175 0 -173 0 *
Ed
 1e-07 1 1 0
1  36 0 0 12.7172859450727
2  59 13 0 0 12.7172859450727
0

0101000
+173 0 -200 0 *
Ve
1e-07
244.420032310178 15.0953150242326 0
0 0

0101101
*
Ed
 1e-07 1 1 0
1  37 0 0 12.7172859450727
2  60 13 0 0 12.7172859450727
0

0101000
+201 0 -170 0 *
Ve
1.00000017763568e-07
255.172859450727 15.0953150242326 0
0 0

0101101
*
Ed
 1e-07 1 1 0
1  38 0 0 10.7528271405493
2  61 13 0 0 10.7528271405493
0

0101000
+170 0 -168 0 *
Ve
1.00000014210855e-07
255.172859450727 14.2681744749596 0
0 0

0101101
*
Ed
 1e-07 1 1 0
1  39 0 0 0.827140549273022
2  62 13 0 0 0.827140549273022
0

0101000
+168 0 -166 0 *
Ve
1e-07
255.172859450727 -22.1260096930533 0
0 0

0101101
*
Ed
 1e-07 1 1 0
1  40 0 0 36.3941841680129
2  63 13 0 0 36.3941841680129
0

0101000
+166 0 -164 0 *
Ed
 1e-07 1 1 0
1  41 0 0 63.6898222940226
2  64 13 0 0 63.6898222940226
0

0101000
+164 0 -180 0 *
Wi

0101100
+178 0 +176 0 +174 0 +172 0 +171 0 -199 0 +169 0 +167 0 +165 0 +163 0 
+162 0 *
Fa
0  1e-07 13 0

0111000
+161 0 *
Ve
1e-07
94.7073928917609 247.935379644588 0
0 0

0101101
*
Ve
1e-07
94.7073928917609 203.269789983845 0
0 0

0101101
*
Ed
 1e-07 1 1 0
1  42 0 0.00010000000000332 44.6656896607431
2  65 15 0 0.00010000000000332 44.6656896607431
2  66 14 0 0.00010000000000332 44.6656896607431
0

0101000
+159 0 -158 0 *
Ve
1e-07
94.7075928917609 203.269789983845 0
0 0

0101101
*
Ed
 1e-07 1 1 0
1  43 0 4.96264329563812 4.96284329563812
2  67 16 0 4.96264329563812 4.96284329563812
2  68 14 0 4.96264329563812 4.96284329563812
0

0101000
+158 0 -156 0 *
Ve
1e-07
94.7075928917609 184.245557350565 0
0 0

0101101
*
Ed
 1e-07 1 1 0
1  44 0 0 19.0242326332795
2  69 16 0 0 19.0242326332795
2  70 14 0 0 19.0242326332795
0

0101000
+156 0 -154 0 *
Ve
1e-07
37.2213247172859 184.245557350565 0
0 0

0101101
*
Ed
 1e-07 1 1 0
1  45 0 0 57.486268174475
2  71 16 0 0 57.486268174475
2  72 14 0 0 57.486268174475
0

0101000
+154 0 -152 0 *
Ve
1e-07
37.2213247172859 154.778675282714 0
0 0

0101101
*
Ed
 1e-07 1 1 0
1  46 0 0 29.4668820678514
2  73 16 0 0 29.4668820678514
2  74 14 0 0 29.4668820678514
0

0101000
+152 0 -150 0 *
Ve
1e-07
37.2213247172859 135.961227786753 0
0 0

0101101
*
Ed
 1e-07 1 1 0
1  47 0 0 18.8174474959612
2  75 17 0 0 18.8174474959612
2  76 14 0 0 18.8174474959612
0

0101000
+150 0 -148 0 *
Ve
1e-07
37.2213247172859 100.290791599354 0
0 0

0101101
*
Ed
 1e-07 1 1 0
1  48 0 0 35.670436187399
2  77 18 0 0 35.670436187399
2  78 14 0 0 35.670436187399
0

0101000
+148 0 -146 0 *
Ve
1e-07
90.9854604200323 100.290791599354 0
0 0

0101101
*
Ed
 1e-07 1 1 0
1  49 0 0 53.7641357027464
2  79 18 0 0 53.7641357027464
2  80 14 0 0 53.7641357027464
0

0101000
+146 0 -144 0 *
Ve
1e-07
90.9854604200323 95.3279483037157 0
0 0

0101101
*
Ed
 1e-07 1 1 0
1  50 0 0 4.96284329563814
2  81 18 0 0 4.96284329563814
2  82 14 0 0 4.96284329563814
0

0101000
+144 0 -142 0 *
Ve
1e-07
90.9854604200323 76.3037156704362 0
0 0

0101101
*
Ed
 1e-07 1 1 0
1  51 0 0 19.0242326332795
2  83 19 0 0 19.0242326332795
2  84 14 0 0 19.0242326332795
0

0101000
+142 0 -140 0 *
Ve
1.00000014210855e-07
90.9854604200323 72.1680129240711 0
0 0

0101101
*
Ed
 1e-07 1 1 0
1  52 0 0 4.13570274636508
2  85 20 0 0 4.13570274636508
2  86 14 0 0 4.13570274636508
0

0101000
+140 0 -138 0 *
Ve
1e-07
109.182552504039 72.1680129240711 0
0 0

0101101
*
Ed
 1e-07 1 1 0
1  53 0 0 18.1970920840065
2  87 21 0 0 18.1970920840065
2  88 14 0 0 18.1970920840065
0

0101000
+138 0 -136 0 *
Ve
1e-07
125.311793214863 72.1680129240711 0
0 0

0101101
*
Ed
 1e-07 1 1 0
1  54 0 0 16.1292407108239
2  89 22 0 0 16.1292407108239
2  90 14 0 0 16.1292407108239
0

0101000
+136 0 -134 0 *
Ed
 1e-07 1 1 0
1  55 0 0 4.1357027463651
2  91 22 0 0 4.1357027463651
2  92 14 0 0 4.1357027463651
0

0101000
+134 0 -194 0 *
Ve
1e-07
125.311793214863 100.290791599354 0
0 0

0101101
*
Ed
 1e-07 1 1 0
1  56 0 0 4.96284329563814
2  93 23 0 0 4.96284329563814
2  94 14 0 0 4.96284329563814
0

0101000
+192 0 -131 0 *
Ve
1e-07
186.933764135703 100.290791599354 0
0 0

0101101
*
Ed
 1e-07 1 1 0
1  57 0 0 61.6219709208401
2  95 23 0 0 61.6219709208401
2  96 14 0 0 61.6219709208401
0

0101000
+131 0 -129 0 *
Ve
1e-07
186.933764135703 180.1098546042 0
0 0

0101101
*
Ed
 1e-07 1 1 0
1  58 0 0 79.8190630048465
2  97 23 0 0 79.8190630048465
2  98 14 0 0 79.8190630048465
0

0101000
+129 0 -127 0 *
Ve
1.00000426325641e-07
186.933764135703 203.683360258481 0
0 0

0101101
*
Ed
 1e-07 1 1 0
1  59 0 0 23.5735056542811
2  99 24 0 0 23.5735056542811
2  100 14 0 0 23.5735056542811
2  101 25 0 0 23.5735056542811
0

0101000
+127 0 -125 0 *
Ve
1e-07
118.694668820679 203.683360258481 0
0 0

0101101
*
Ed
 1e-07 1 1 0
1  60 0 4.9628432956379 73.2019386106624
2  102 26 0 4.9628432956379 73.2019386106624
2  103 14 0 4.9628432956379 73.2019386106624
0

0101000
+125 0 -123 0 *
Ve
1e-07
118.694668820679 247.935379644588 0
0 0

0101101
*
Ed
 1e-07 1 1 0
1  61 0 0 44.2520193861066
2  104 26 0 0 44.2520193861066
2  105 14 0 0 44.2520193861066
0

0101000
+123 0 -121 0 *
Ed
 1e-07 1 1 0
1  62 0 0 23.9872759289176
2  106 26 0 0 23.9872759289176
2  107 14 0 0 23.9872759289176
0

0101000
+121 0 -159 0 *
Wi

0101100
-157 0 -155 0 -153 0 -151 0 -149 0 -147 0 -145 0 -143 0 -141 0 -139 0 
-137 0 -135 0 -133 0 -132 0 -191 0 -130 0 -128 0 -126 0 -124 0 -122 0 
-120 0 -119 0 *
Fa
0  1e-07 14 0

0101000
+118 0 *
Ve
1e-07
37.2213247172859 203.269789983845 0
0 0

0101101
*
Ve
1e-07
37.2213247172859 189.208400646204 0
0 0

0101101
*
Ed
 1e-07 1 1 0
1  63 0 0 14.0613893376414
2  108 27 0 0 14.0613893376414
2  109 15 0 0 14.0613893376414
0

0101000
+116 0 -115 0 *
Ve
1e-07
89.7447495961228 189.208400646204 0
0 0

0101101
*
Ed
 1e-07 1 1 0
1  64 0 0 52.5234248788368
2  110 27 0 0 52.5234248788368
2  111 15 0 0 52.5234248788368
0

0101000
+115 0 -113 0 *
Ve
1e-07
89.7447495961228 203.269789983845 0
0 0

0101101
*
Ed
 1e-07 1 1 0
1  65 0 0 14.0613893376414
2  112 27 0 0 14.0613893376414
2  113 15 0 0 14.0613893376414
0

0101000
+113 0 -111 0 *
Ed
 1e-07 1 1 0
1  66 0 0 4.96264329563812
2  114 27 0 0 4.96264329563812
2  115 15 0 0 4.96264329563812
0

0101000
+111 0 -158 0 *
Ve
1.00000057285787e-07
37.2213247172859 247.935379644588 0
0 0

0101101
*
Ed
 1e-07 1 1 0
1  67 0 23.9872759289176 81.4733441033926
2  116 28 0 23.9872759289176 81.4733441033926
2  117 15 0 23.9872759289176 81.4733441033926
0

0101000
+159 0 -108 0 *
Ve
1e-07
37.2213247172859 229.324717285945 0
0 0

0101101
*
Ed
 1e-07 1 1 0
1  68 0 0 18.610662358643
2  118 29 0 0 18.610662358643
2  119 15 0 0 18.610662358643
2  120 30 0 0 18.610662358643
0

0101000
+108 0 -106 0 *
Ve
1e-07
37.2213247172859 221.880452342488 0
0 0

0101101
*
Ed
 1e-07 1 1 0
1  69 0 0 7.4442649434572
2  121 29 0 0 7.4442649434572
2  122 15 0 0 7.4442649434572
2  123 30 0 0 7.4442649434572
0

0101000
+106 0 -104 0 *
Ed
 1e-07 1 1 0
1  70 0 0 18.610662358643
2  124 29 0 0 18.610662358643
2  125 15 0 0 18.610662358643
2  126 30 0 0 18.610662358643
0

0101000
+104 0 -116 0 *
Wi

0101100
-114 0 -112 0 -110 0 -109 0 +157 0 -107 0 -105 0 -103 0 -102 0 *
Fa
0  1e-07 15 0

0101000
+101 0 *
Ve
1.00000114571574e-07
32.2584814216478 135.961227786753 0
0 0

0101101
*
Ed
 1e-07 1 1 0
1  71 0 0 4.96284329563812
2  127 17 0 0 4.96284329563812
0

0101000
+148 0 -99 0 *
Ve
1.00000031776437e-07
32.2584814216478 154.778675282714 0
0 0

0101101
*
Ed
 1e-07 1 1 0
1  72 0 0 18.8174474959612
2  128 17 0 0 18.8174474959612
2  129 31 0 0 18.8174474959612
0

0101000
+99 0 -97 0 *
Ed
 1e-07 1 1 0
1  73 0 0 4.96284329563812
2  130 17 0 0 4.96284329563812
0

0101000
+97 0 -150 0 *
Wi

0101100
+98 0 +96 0 +95 0 +147 0 *
Fa
0  1e-07 17 0

0111000
+94 0 *
Ve
1e-07
86.0226171243942 76.3037156704362 0
0 0

0101101
*
Ed
 1e-07 1 1 0
1  74 0 0 4.96284329563812
2  131 19 0 0 4.96284329563812
0

0101000
+140 0 -92 0 *
Ve
1.00000028421709e-07
86.0226171243942 95.3279483037157 0
0 0

0101101
*
Ed
 1e-07 1 1 0
1  75 0 0 19.0242326332795
2  132 19 0 0 19.0242326332795
2  133 32 0 0 19.0242326332795
0

0101000
+92 0 -90 0 *
Ed
 1e-07 1 1 0
1  76 0 0 4.96284329563812
2  134 19 0 0 4.96284329563812
0

0101000
+90 0 -142 0 *
Wi

0101100
+91 0 +89 0 +88 0 +139 0 *
Fa
0  1e-07 19 0

0111000
+87 0 *
Ve
1.00000014210855e-07
90.9854604200323 67.205169628433 0
0 0

0101101
*
Ed
 1e-07 1 1 0
1  77 0 0 4.96284329563814
2  135 21 0 0 4.96284329563814
0

0101000
+85 0 -138 0 *
Ve
1e-07
109.182552504039 67.205169628433 0
0 0

0101101
*
Ed
 1e-07 1 1 0
1  78 0 0 4.96284329563814
2  136 21 0 0 4.96284329563814
0

0101000
+136 0 -83 0 *
Ed
 1e-07 1 1 0
1  79 0 0 18.1970920840065
2  137 33 0 0 18.1970920840065
2  138 34 0 0 18.1970920840065
2  139 21 0 0 18.1970920840065
0

0101000
+83 0 -85 0 *
Wi

0101100
+84 0 +135 0 +82 0 +81 0 *
Fa
0  1e-07 21 0

0111000
+80 0 *
Ve
1e-07
191.896607431341 180.1098546042 0
0 0

0101101
*
Ed
 1e-07 1 1 0
1  80 0 0 4.96284329563815
2  140 25 0 0 4.96284329563815
0

0101000
+78 0 -127 0 *
Ve
1e-07
191.896607431341 203.683360258481 0
0 0

0101101
*
Ed
 1e-07 1 1 0
1  81 0 0 4.96284329563815
2  141 25 0 0 4.96284329563815
0

0101000
+125 0 -76 0 *
Ed
 1e-07 1 1 0
1  82 0 0 23.5735056542811
2  142 25 0 0 23.5735056542811
0

0101000
+76 0 -78 0 *
Wi

0101100
+77 0 +124 0 +75 0 +74 0 *
Fa
0  1e-07 25 0

0111000
+73 0 *
Ve
1e-07
32.2584814216478 203.269789983845 0
0 0

0101101
*
Ed
 1e-07 1 1 0
1  83 0 0 4.96284329563812
2  143 30 0 0 4.96284329563812
0

0101000
+116 0 -71 0 *
Ve
1e-07
32.2584814216478 221.880452342488 0
0 0

0101101
*
Ed
 1e-07 1 1 0
1  84 0 0 18.610662358643
2  144 30 0 0 18.610662358643
0

0101000
+71 0 -69 0 *
Ve
1e-07
32.2584814216478 229.324717285945 0
0 0

0101101
*
Ed
 1e-07 1 1 0
1  85 0 0 7.4442649434572
2  145 30 0 0 7.4442649434572
0

0101000
+69 0 -67 0 *
Ve
1e-07
32.2584814216478 247.935379644588 0
0 0

0101101
*
Ed
 1e-07 1 1 0
1  86 0 0 18.610662358643
2  146 30 0 0 18.610662358643
0

0101000
+67 0 -65 0 *
Ed
 1e-07 1 1 0
1  87 0 0 4.96284329563812
2  147 30 0 0 4.96284329563812
0

0101000
+65 0 -108 0 *
Wi

0101100
+103 0 +102 0 +70 0 +68 0 +66 0 +64 0 +63 0 +105 0 *
Fa
0  1e-07 30 0

0111000
+62 0 *
Ve
1e-07
0.827140549273021 198.306946688207 0
0 0

0101101
*
Ve
1e-07
31.4313408723748 198.306946688207 0
0 0

0101101
*
Ed
 1e-07 1 1 0
1  88 0 0 30.6042003231018
2  148 31 0 0 30.6042003231018
0

0101000
+60 0 -59 0 *
Ve
1.00000213162821e-07
31.4313408723748 184.245557350565 0
0 0

0101101
*
Ed
 1e-07 1 1 0
1  89 0 0 14.0613893376414
2  149 31 0 0 14.0613893376414
0

0101000
+59 0 -57 0 *
Ve
1.00000213429108e-07
32.2584814216478 184.245557350565 0
0 0

0101101
*
Ed
 1e-07 1 1 0
1  90 0 0 0.827140549273022
2  150 31 0 0 0.827140549273022
0

0101000
+57 0 -55 0 *
Ve
1e-07
32.2584814216478 167.289176090469 0
0 0

0101101
*
Ed
 1e-07 1 1 0
1  91 0 0 16.9563812600969
2  151 31 0 0 16.9563812600969
0

0101000
+55 0 -53 0 *
Ed
 1e-07 1 1 0
1  92 0 0 12.5105008077545
2  152 31 0 0 12.5105008077545
0

0101000
+53 0 -97 0 *
Ve
1e-07
32.2584814216478 123.450726978998 0
0 0

0101101
*
Ed
 1e-07 1 1 0
1  93 0 0 12.5105008077544
2  153 31 0 0 12.5105008077544
0

0101000
+99 0 -50 0 *
Ve
1.00000092983415e-07
32.2584814216478 100.290791599354 0
0 0

0101101
*
Ed
 1e-07 1 1 0
1  94 0 0 23.1599353796446
2  154 31 0 0 23.1599353796446
0

0101000
+50 0 -48 0 *
Ve
1.00000000111022e-07
0.82714054927302 100.290791599354 0
0 0

0101101
*
Ed
 1e-07 1 1 0
1  95 0 0 31.4313408723748
2  155 31 0 0 31.4313408723748
0

0101000
+48 0 -46 0 *
Ed
 1e-07 1 1 0
1  96 0 0 98.016155088853
2  156 31 0 0 98.016155088853
0

0101000
+46 0 -60 0 *
Wi

0101100
+58 0 +56 0 +54 0 +52 0 +51 0 -96 0 +49 0 +47 0 +45 0 +44 0 
*
Fa
0  1e-07 31 0

0111000
+43 0 *
Ve
1.00000000555112e-07
0.827140549273021 71.3408723747981 0
0 0

0101101
*
Ve
1.00000000333067e-07
0.827140549273021 35.7738287560582 0
0 0

0101101
*
Ed
 1e-07 1 1 0
1  97 0 0 35.5670436187399
2  157 35 0 0 35.5670436187399
2  158 32 0 0 35.5670436187399
0

0101000
+41 0 -40 0 *
Ve
1e-07
0.827140549273021 8.06462035541196 0
0 0

0101101
*
Ed
 1e-07 1 1 0
1  98 0 0 27.7092084006462
2  159 36 0 0 27.7092084006462
2  160 32 0 0 27.7092084006462
0

0101000
+40 0 -38 0 *
Ve
1e-07
86.0226171243942 8.06462035541196 0
0 0

0101101
*
Ed
 1e-07 1 1 0
1  99 0 0 85.1954765751212
2  161 36 0 0 85.1954765751212
2  162 32 0 0 85.1954765751212
0

0101000
+38 0 -36 0 *
Ed
 1e-07 1 1 0
1  100 0 0 68.2390953150242
2  163 36 0 0 68.2390953150242
2  164 32 0 0 68.2390953150242
0

0101000
+36 0 -92 0 *
Ve
1e-07
0.827140549273021 95.3279483037157 0
0 0

0101101
*
Ed
 1e-07 1 1 0
1  101 0 4.96284329563811 90.1583198707593
2  165 37 0 4.96284329563811 90.1583198707593
2  166 32 0 4.96284329563811 90.1583198707593
0

0101000
+90 0 -33 0 *
Ed
 1e-07 1 1 0
1  102 0 0 23.9870759289176
2  167 37 0 0 23.9870759289176
2  168 32 0 0 23.9870759289176
0

0101000
+33 0 -41 0 *
Wi

0101100
-39 0 -37 0 -35 0 -34 0 -89 0 -32 0 -31 0 *
Fa
0  1e-07 32 0

0101000
+30 0 *
Ve
1e-07
90.9854604200323 8.06462035541196 0
0 0

0101101
*
Ed
 1e-07 1 1 0
1  103 0 9.09854604200319 68.2390953150242
2  169 38 0 9.09854604200319 68.2390953150242
2  170 34 0 9.09854604200319 68.2390953150242
0

0101000
+85 0 -28 0 *
Ve
1e-07
99.2568659127625 8.06462035541196 0
0 0

0101101
*
Ed
 1e-07 1 1 0
1  104 0 0 8.27140549273021
2  171 38 0 0 8.27140549273021
2  172 34 0 0 8.27140549273021
0

0101000
+28 0 -26 0 *
Ve
1e-07
113.73182552504 8.06462035541196 0
0 0

0101101
*
Ed
 1e-07 1 1 0
1  105 0 0 14.4749596122779
2  173 39 0 0 14.4749596122779
2  174 34 0 0 14.4749596122779
2  175 40 0 0 14.4749596122779
0

0101000
+26 0 -24 0 *
Ve
1e-07
125.311793214863 8.06462035541196 0
0 0

0101101
*
Ed
 1e-07 1 1 0
1  106 0 0 11.5799676898223
2  176 41 0 0 11.5799676898223
2  177 34 0 0 11.5799676898223
0

0101000
+24 0 -22 0 *
Ve
1e-07
125.311793214863 67.205169628433 0
0 0

0101101
*
Ed
 1e-07 1 1 0
1  107 0 0 59.140549273021
2  178 41 0 0 59.140549273021
2  179 34 0 0 59.140549273021
0

0101000
+22 0 -20 0 *
Ed
 1e-07 1 1 0
1  108 0 0 16.1292407108239
2  180 41 0 0 16.1292407108239
2  181 34 0 0 16.1292407108239
0

0101000
+20 0 -83 0 *
Wi

0101100
-27 0 -25 0 -23 0 -21 0 -19 0 -18 0 -81 0 *
Fa
0  1e-07 34 0

0101000
+17 0 *
Ve
1e-07
-4.13570274636511 35.7738287560582 0
0 0

0101101
*
Ed
 1e-07 1 1 0
1  109 0 0 4.96284329563813
2  182 35 0 0 4.96284329563813
0

0101000
+40 0 -15 0 *
Ve
1e-07
-4.13570274636511 71.3408723747981 0
0 0

0101101
*
Ed
 1e-07 1 1 0
1  110 0 0 35.5670436187399
2  183 35 0 0 35.5670436187399
0

0101000
+15 0 -13 0 *
Ed
 1e-07 1 1 0
1  111 0 0 4.96284329563813
2  184 35 0 0 4.96284329563813
0

0101000
+13 0 -41 0 *
Wi

0101100
+14 0 +12 0 +11 0 +39 0 *
Fa
0  1e-07 35 0

0111000
+10 0 *
Ve
1e-07
99.2568659127625 3.10177705977383 0
0 0

0101101
*
Ed
 1e-07 1 1 0
1  112 0 0 4.96284329563813
2  185 40 0 0 4.96284329563813
0

0101000
+8 0 -26 0 *
Ve
1e-07
113.73182552504 3.10177705977383 0
0 0

0101101
*
Ed
 1e-07 1 1 0
1  113 0 0 4.96284329563813
2  186 40 0 0 4.96284329563813
0

0101000
+24 0 -6 0 *
Ed
 1e-07 1 1 0
1  114 0 0 14.4749596122779
2  187 40 0 0 14.4749596122779
0

0101000
+6 0 -8 0 *
Wi

0101100
+7 0 +23 0 +5 0 +4 0 *
Fa
0  1e-07 40 0

0111000
+3 0 *
Sh

0101000
+240 0 +215 0 +202 0 +195 0 +188 0 +181 0 +160 0 +117 0 +100 0 +93 0 
+86 0 +79 0 +72 0 +61 0 +42 0 +29 0 +16 0 +9 0 +2 0 *

+1 0 