
CASCADE Topology V3, (c) Open Cascade
Locations 0
Curve2ds 141
1 15.040643863179071 -3.090543259557343 0 1 
1 15.040643863179071 3.0905432595573501 -1 0 
1 -8.0264508594607662 -100.69412952848347 -1 0 
1 -15.040643863179071 3.0905432595573501 0 -1 
1 -15.040643863179071 -3.090543259557343 1 0 
1 -23.90020120724347 23.07605633802816 1 0 
1 -3.0905432595573643 15.040643863179071 0 -1 
1 9.6926638286680031 -28.581453472145455 0 -1 
1 -3.0905432595573643 15.040643863179071 0 -1 
1 -49.718573626633713 74.484473225910065 0 -1 
1 9.6926638286680031 -58.662741198503596 0 -1 
1 -49.718573626633713 32.453084895930189 -1 0 
1 9.6926638286680031 -100.69412952848347 -1 0 
1 10.828788113295161 -14.98913480885312 0 1 
1 -38.107738585818907 -130.77541725484161 0 1 
1 3.0905432595573643 -14.422535211267601 0 1 
1 -38.107738585818907 -98.633767355445244 0 1 
1 3.0905432595573643 -14.422535211267601 0 1 
1 42.02488192311759 10.514353489357205 0 1 
1 -38.107738585818907 -69.788696932910042 0 1 
1 42.02488192311759 16.695440008471905 -1 0 
1 -38.107738585818907 -63.607610413795342 -1 0 
1 3.0905432595573359 -18.955331991951709 0 1 
1 -92.501299954028156 -63.607610413795342 0 1 
1 3.0905432595573359 -18.955331991951709 0 1 
1 -33.345596470388614 -97.281365300235137 0 1 
1 -92.501299954028156 -25.696946429891938 0 1 
1 -33.345596470388614 28.812799689704519 1 0 
1 -92.501299954028156 100.39721856004772 1 0 
1 -3.0905432595573501 28.226961770623774 0 -1 
1 36.47737207816499 100.39721856004772 0 -1 
1 -3.0905432595573643 5.1509054325955788 0 -1 
1 36.47737207816499 43.943295018800228 0 -1 
1 -3.0905432595573643 -5.1509054325955788 1 0 
1 36.47737207816499 33.641484153609071 1 0 
1 -43.747724421069123 27.209584381649393 0 -1 
1 37.765298436313898 33.641584153609074 0 -1 
1 -28.358029364304613 23.015367452238138 -1 0 
1 42.658458597279676 1.4998342542126863 -1 0 
1 -34.539115883419299 23.015367452238138 0 -1 
1 36.47737207816499 1.4998342542126863 0 -1 
1 -34.539115883419299 -0.88483375500530315 -1 0 
1 36.47737207816499 -22.400366953030755 -1 0 
1 -61.323824132916286 -0.88483375500530315 0 -1 
1 9.6926638286680031 -22.400366953030755 0 -1 
1 -67.437688314762482 26.271998376815496 1 0 
1 6.1810865191146718 23.07605633802816 1 0 
1 -49.718573626633713 26.271998376815496 0 -1 
1 23.900201207243441 23.07605633802816 0 -1 
1 -49.718573626633713 -19.880114299240837 -1 0 
1 23.900201207243441 -23.076056338028174 -1 0 
1 3.0905432595573075 -11.125955734406437 0 1 
1 -23.90020120724347 -23.076056338028174 0 1 
1 10.828788113295161 -14.98913480885312 0 1 
1 -23.90020120724347 -0.82414486921529928 0 1 
1 -3.0905432595573643 -15.040643863179071 1 0 
1 3.0905432595573359 -15.040643863179071 0 1 
1 -61.993736608088767 35.4613941766195 0 1 
1 3.0905432595573359 -15.040643863179071 0 1 
1 3.0905432595573359 15.040643863179071 -1 0 
1 -3.0905432595573359 -14.422535211267601 1 0 
1 3.0905432595573643 14.422535211267601 -1 0 
1 -3.0905432595573359 14.422535211267601 0 -1 
1 24.106237424547288 22.251911468812857 0 -1 
1 -3.0905432595573359 14.422535211267601 0 -1 
1 -3.0905432595573643 -18.955331991951709 1 0 
1 3.0905432595573359 18.955331991951695 -1 0 
1 -3.0905432595573643 18.955331991951695 0 -1 
1 -3.0905432595573501 -28.226961770623717 1 0 
1 3.0905432595573359 -28.226961770623717 0 1 
1 3.0905432595573359 28.226961770623774 -1 0 
1 52.820240253401629 15.185991194692889 0 -1 
1 42.323705357602897 -12.761541775292244 0 -1 
1 52.820240253401629 -0.88483375500530315 -1 0 
1 42.323705357602897 -28.832366724990436 -1 0 
1 -28.358029364304613 -0.88483375500530315 0 1 
1 -38.854564260103345 -28.832366724990436 0 1 
1 -28.358029364304613 23.015367452238138 -1 0 
1 -38.854564260103345 -4.932165517746995 -1 0 
1 -3.0905432595573643 -5.1509054325955788 1 0 
1 -45.035650779218031 27.209484381649389 1 0 
1 -14.834607645875266 -3.0905432595573643 1 0 
1 -38.854564260103345 27.209484381649389 1 0 
1 -14.834607645875266 -3.0905432595573643 1 0 
1 -32.785653813591914 -1.2621125661070209 1 0 
1 -9.1853489683528409 27.209484381649389 1 0 
1 18.723400512363824 -1.2621125661070209 0 -1 
1 42.323705357602897 27.209484381649389 0 -1 
1 -3.090543259557343 14.216498993963768 0 -1 
1 42.323705357602897 15.67145621263532 0 -1 
1 -3.090543259557343 14.216498993963768 0 -1 
1 -3.0905432595573927 -11.125955734406437 1 0 
1 3.0905432595573075 11.125955734406439 -1 0 
1 -3.0905432595573927 11.125955734406439 0 -1 
1 -3.0905432595573465 35.026156941649887 0 -1 
1 45.969241259114447 65.542681902977648 0 -1 
1 -3.0905432595573465 35.026156941649887 0 -1 
1 -3.0905432595573465 4.9448692152917459 0 -1 
1 45.969241259114447 35.4613941766195 0 -1 
1 -3.0905432595573465 4.9448692152917459 0 -1 
1 -3.0905432595573465 -1.4422535211267586 0 -1 
1 45.969241259114447 29.074271440200995 0 -1 
1 -3.0905432595573465 -1.4422535211267586 0 -1 
1 64.425490759684209 34.513447068968418 0 -1 
1 45.969241259114447 -4.5096319803221476 0 -1 
1 64.425490759684209 28.332360549853725 1 0 
1 45.969241259114447 -10.690718499436841 1 0 
1 87.089474663104724 28.332360549853725 0 -1 
1 68.63322516253497 -10.690718499436841 0 -1 
1 87.089474663104724 -19.880114299240837 -1 0 
1 68.63322516253497 -58.903193348531403 -1 0 
1 -43.537487107519013 -19.880114299240837 0 1 
1 -61.993736608088767 -58.903193348531403 0 1 
1 -61.323824132916286 -7.0659202741200033 1 0 
1 -68.174823127203467 65.542681902977648 1 0 
1 4.6477015941804609 17.152515090543261 0 -1 
1 24.106237424547288 -6.5931589537223445 0 -1 
1 4.6477015941804609 1.4937625754527133 -1 0 
1 24.106237424547288 -22.251911468812892 -1 0 
1 11.125955734406432 3.090543259557343 -1 0 
1 -1.8543259557343958 -22.251911468812892 -1 0 
1 11.125955734406432 3.090543259557343 -1 0 
1 -12.368679445091658 -40.17055596738323 0 1 
1 -24.10623742454726 -28.432997987927578 0 1 
1 -12.368679445091658 10.514353489357205 1 0 
1 -24.10623742454726 22.251911468812857 1 0 
1 14.834607645875238 -3.0905432595573643 0 1 
1 14.834607645875238 3.0905432595573359 -1 0 
1 -14.834607645875266 3.0905432595573359 0 -1 
1 -3.090543259557343 -14.216498993963796 1 0 
1 3.090543259557343 -14.216498993963796 0 1 
1 3.090543259557343 14.216498993963768 -1 0 
1 -3.0905432595573465 -35.026156941649901 1 0 
1 3.0905432595573394 -35.026156941649901 0 1 
1 3.0905432595573394 -1.4422535211267586 0 1 
1 3.0905432595573394 4.9448692152917459 0 1 
1 3.0905432595573394 35.026156941649887 -1 0 
1 2.6784708249496951 35.026156941649887 -1 0 
1 11.125955734406432 -3.090543259557343 0 1 
1 -11.125955734406432 3.090543259557343 0 -1 
1 -11.125955734406432 -3.090543259557343 1 0 
Curves 80
1 163.0261569416499 47.439839034205228 0 0 1 0 
1 163.0261569416499 53.620925553319921 0 1 0 0 
1 193.10744466800804 53.620925553319921 0 0 -1 0 
1 193.10744466800804 47.439839034205228 0 -1 0 0 
1 145.30704225352113 125.73360160965794 0 0 -1 0 
1 145.30704225352113 95.652313883299797 0 0 -1 0 
1 145.30704225352113 53.620925553319921 0 1 0 0 
1 193.10744466800804 23.539637826961769 0 0 1 0 
1 193.10744466800804 55.68128772635815 0 0 1 0 
1 193.10744466800804 84.526358148893351 0 0 1 0 
1 193.10744466800804 90.707444668008051 0 1 0 0 
1 247.50100603621729 90.707444668008051 0 0 1 0 
1 247.50100603621729 128.61810865191146 0 0 1 0 
1 247.50100603621729 254.71227364185111 0 -1 0 0 
1 118.52233400402415 254.71227364185111 0 0 -1 0 
1 118.52233400402415 198.25835010060362 0 0 -1 0 
1 118.52233400402415 187.95653923541246 0 -1 0 0 
1 117.23440764587524 187.95663923541247 0 0 -1 0 
1 112.34124748490946 155.81488933601608 0 1 0 0 
1 118.52233400402415 155.81488933601608 0 0 -1 0 
1 118.52233400402415 131.91468812877264 0 1 0 0 
1 145.30704225352113 131.91468812877264 0 0 -1 0 
1 163.0261569416499 47.439839034205228 0 -1 0 0 
1 145.30704225352113 47.439839034205228 0 0 -1 0 
1 145.30704225352113 1.2877263581488934 0 1 0 0 
1 193.10744466800804 1.2877263581488934 0 0 1 0 
1 193.10744466800804 23.539637826961769 0 0 1 0 
1 145.30704225352113 95.652313883299797 0 -1 0 0 
1 139.12595573440643 95.652313883299797 0 0 1 0 
1 139.12595573440643 125.73360160965794 0 1 0 0 
1 199.28853118712274 55.68128772635815 0 -1 0 0 
1 193.10744466800804 84.526358148893351 0 1 0 0 
1 199.28853118712274 84.526358148893351 0 0 -1 0 
1 253.68209255533199 90.707444668008051 0 -1 0 0 
1 247.50100603621729 128.61810865191146 0 1 0 0 
1 253.68209255533199 128.61810865191146 0 0 -1 0 
1 118.52233400402415 198.25835010060362 0 -1 0 0 
1 112.34124748490946 198.25835010060362 0 0 1 0 
1 112.34124748490946 254.71227364185111 0 1 0 0 
1 31.162977867203217 147.98551307847083 0 0 -1 0 
1 31.162977867203217 131.91468812877264 0 1 0 0 
1 112.34124748490946 131.91468812877264 0 0 1 0 
1 112.34124748490946 155.81488933601608 0 1 0 0 
1 118.52233400402415 187.95653923541246 0 -1 0 0 
1 112.34124748490946 187.95653923541246 0 -1 0 0 
1 82.672032193158955 187.95653923541246 0 -1 0 0 
1 31.162977867203217 187.95653923541246 0 0 -1 0 
1 31.162977867203217 176.41851106639839 0 0 -1 0 
1 199.28853118712274 1.2877263581488934 0 -1 0 0 
1 193.10744466800804 23.539637826961769 0 1 0 0 
1 199.28853118712274 23.539637826961769 0 0 -1 0 
1 31.162977867203217 125.73360160965794 0 0 -1 0 
1 31.162977867203217 95.652313883299797 0 0 -1 0 
1 31.162977867203217 89.265191146881293 0 0 -1 0 
1 31.162977867203217 55.68128772635815 0 0 -1 0 
1 31.162977867203217 49.500201207243457 0 -1 0 0 
1 8.4989939637826968 49.500201207243457 0 0 -1 0 
1 8.4989939637826968 1.2877263581488934 0 1 0 0 
1 139.12595573440643 1.2877263581488934 0 0 1 0 
1 145.30704225352113 125.73360160965794 0 -1 0 0 
1 199.28853118712274 55.68128772635815 0 0 -1 0 
1 199.28853118712274 40.022535211267602 0 1 0 0 
1 225.24909456740443 40.022535211267602 0 1 0 0 
1 247.50100603621729 33.841448692152916 0 0 1 0 
1 247.50100603621729 84.526358148893351 0 -1 0 0 
1 82.672032193158955 187.95653923541246 0 0 1 0 
1 82.672032193158955 194.13762575452716 0 1 0 0 
1 112.34124748490946 194.13762575452716 0 0 -1 0 
1 31.162977867203217 147.98551307847083 0 -1 0 0 
1 24.981891348088531 147.98551307847083 0 0 1 0 
1 24.981891348088531 176.41851106639839 0 1 0 0 
1 31.162977867203217 55.68128772635815 0 -1 0 0 
1 24.981891348088531 55.68128772635815 0 0 1 0 
1 24.981891348088531 89.265191146881293 0 0 1 0 
1 24.981891348088531 95.652313883299797 0 0 1 0 
1 24.981891348088531 125.73360160965794 0 1 0 0 
1 25.393963782696176 125.73360160965794 0 1 0 0 
1 225.24909456740443 33.841448692152916 0 0 1 0 
1 247.50100603621729 40.022535211267602 0 0 -1 0 
1 247.50100603621729 33.841448692152916 0 -1 0 0 
Polygon3D 0
PolygonOnTriangulations 0
Surfaces 39
1 178.06680080482897 50.530382293762571 0 -0 -0 -1 -1 0 0 0 1 -0 
1 154.99970608218914 154.31505508180339 0 -0 -0 -1 -1 0 0 0 1 -0 
1 169.20724346076457 24.363782696177068 0 -0 -0 -1 -1 0 0 0 1 -0 
1 142.21649899396377 110.69295774647887 0 -0 -0 -1 -1 0 0 0 1 -0 
1 142.21649899396377 110.69295774647887 0 -0 -0 -1 -1 0 0 0 1 -0 
1 95.588468626887419 21.167840657389732 0 -0 -0 -1 -1 0 0 0 1 -0 
1 203.9362327813032 38.528772635814889 0 -0 -0 -1 -1 0 0 0 1 -0 
1 196.19798792756541 70.10382293762575 0 -0 -0 -1 -1 0 0 0 1 -0 
1 196.19798792756541 70.10382293762575 0 -0 -0 -1 -1 0 0 0 1 -0 
1 235.13232659112563 74.012004659536146 0 -0 -0 -1 -1 0 0 0 1 -0 
1 250.59154929577463 109.66277665995976 0 -0 -0 -1 -1 0 0 0 1 -0 
1 250.59154929577463 109.66277665995976 0 -0 -0 -1 -1 0 0 0 1 -0 
1 214.15540956582868 225.89947395214659 0 -0 -0 -1 -1 0 0 0 1 -0 
1 115.4317907444668 226.48531187122734 0 -0 -0 -1 -1 0 0 0 1 -0 
1 115.43179074446678 193.10744466800804 0 -0 -0 -1 -1 0 0 0 1 -0 
1 73.486683224806114 160.74705485376307 0 -0 -0 -1 -1 0 0 0 1 -0 
1 83.983218120604846 132.79952188377794 0 -0 -0 -1 -1 0 0 0 1 -0 
1 95.588468626887419 21.167840657389732 0 -0 -0 -1 -1 0 0 0 1 -0 
1 196.19798792756535 12.41368209255533 0 -0 -0 -1 -1 0 0 0 1 -0 
1 203.9362327813032 38.528772635814889 0 -0 -0 -1 -1 0 0 0 1 -0 
1 142.21649899396377 110.69295774647887 0 -0 -0 -1 -1 0 0 0 1 -0 
1 77.132219126317665 60.190919706680297 0 -0 -0 -1 -1 0 0 0 1 -0 
1 196.19798792756541 70.10382293762575 0 -0 -0 -1 -1 0 0 0 1 -0 
1 223.39476861167003 62.274446680080494 0 -0 -0 -1 -1 0 0 0 1 -0 
1 83.983218120604846 132.79952188377794 0 -0 -0 -1 -1 0 0 0 1 -0 
1 115.43179074446678 193.10744466800804 0 -0 -0 -1 -1 0 0 0 1 -0 
1 97.506639839034193 191.04708249496983 0 -0 -0 -1 -1 0 0 0 1 -0 
1 97.506639839034193 191.04708249496983 0 -0 -0 -1 -1 0 0 0 1 -0 
1 49.886378379567041 189.21865180151948 0 -0 -0 -1 -1 0 0 0 1 -0 
1 28.072434607645874 162.20201207243463 0 -0 -0 -1 -1 0 0 0 1 -0 
1 28.072434607645874 162.20201207243463 0 -0 -0 -1 -1 0 0 0 1 -0 
1 28.072434607645871 90.707444668008051 0 -0 -0 -1 -1 0 0 0 1 -0 
1 28.072434607645871 90.707444668008051 0 -0 -0 -1 -1 0 0 0 1 -0 
1 95.588468626887419 21.167840657389732 0 -0 -0 -1 -1 0 0 0 1 -0 
1 83.983218120604846 132.79952188377794 0 -0 -0 -1 -1 0 0 0 1 -0 
1 203.9362327813032 38.528772635814889 0 -0 -0 -1 -1 0 0 0 1 -0 
1 236.37505030181086 36.931991951710259 0 -0 -0 -1 -1 0 0 0 1 -0 
1 236.37505030181086 36.931991951710259 0 -0 -0 -1 -1 0 0 0 1 -0 
1 235.13232659112563 74.012004659536146 0 -0 -0 -1 -1 0 0 0 1 -0 
Triangulations 0

TShapes 177
Ve
1e-07
163.02615694165 47.4398390342052 0
0 0

0101101
*
Ve
1e-07
163.02615694165 53.6209255533199 0
0 0

0101101
*
Ed
 1e-07 1 1 0
1  1 0 0 6.18108651911469
2  1 1 0 0 6.18108651911469
0

0101000
+177 0 -176 0 *
Ve
1.00000056843419e-07
193.107444668008 53.6209255533199 0
0 0

0101101
*
Ed
 1e-07 1 1 0
1  2 0 0 30.0812877263581
2  2 1 0 0 30.0812877263581
2  3 2 0 0 30.0812877263581
0

0101000
+176 0 -174 0 *
Ve
1.00000056843419e-07
193.107444668008 47.4398390342052 0
0 0

0101101
*
Ed
 1e-07 1 1 0
1  3 0 0 6.18108651911469
2  4 1 0 0 6.18108651911469
0

0101000
+174 0 -172 0 *
Ed
 1e-07 1 1 0
1  4 0 0 30.0812877263581
2  5 1 0 0 30.0812877263581
2  6 3 0 0 30.0812877263581
0

0101000
+172 0 -177 0 *
Wi

0101100
+175 0 +173 0 +171 0 +170 0 *
Fa
0  1e-07 1 0

0111000
+169 0 *
Ve
1e-07
145.307042253521 125.733601609658 0
0 0

0101101
*
Ve
1e-07
145.307042253521 95.6523138832998 0
0 0

0101101
*
Ed
 1e-07 1 1 0
1  5 0 0 30.0812877263581
2  7 4 0 0 30.0812877263581
2  8 2 0 0 30.0812877263581
2  9 5 0 0 30.0812877263581
0

0101000
+167 0 -166 0 *
Ve
1e-07
145.307042253521 53.6209255533199 0
0 0

0101101
*
Ed
 1e-07 1 1 0
1  6 0 0 42.0313883299799
2  10 6 0 0 42.0313883299799
2  11 2 0 0 42.0313883299799
0

0101000
+166 0 -164 0 *
Ed
 1e-07 1 1 0
1  7 0 0 17.7191146881288
2  12 6 0 0 17.7191146881288
2  13 2 0 0 17.7191146881288
0

0101000
+164 0 -176 0 *
Ve
1e-07
193.107444668008 55.6812877263581 0
0 0

0101101
*
Ed
 1e-07 1 1 0
1  8 0 30.0812877263581 32.1416498993964
2  14 7 0 30.0812877263581 32.1416498993964
2  15 2 0 30.0812877263581 32.1416498993964
0

0101000
+174 0 -161 0 *
Ve
1e-07
193.107444668008 84.5263581488934 0
0 0

0101101
*
Ed
 1e-07 1 1 0
1  9 0 0 28.8450704225352
2  16 8 0 0 28.8450704225352
2  17 2 0 0 28.8450704225352
2  18 9 0 0 28.8450704225352
0

0101000
+161 0 -159 0 *
Ve
1e-07
193.107444668008 90.7074446680081 0
0 0

0101101
*
Ed
 1e-07 1 1 0
1  10 0 0 6.1810865191147
2  19 10 0 0 6.1810865191147
2  20 2 0 0 6.1810865191147
0

0101000
+159 0 -157 0 *
Ve
1.00000042632564e-07
247.501006036217 90.7074446680081 0
0 0

0101101
*
Ed
 1e-07 1 1 0
1  11 0 0 54.393561368209
2  21 10 0 0 54.393561368209
2  22 2 0 0 54.393561368209
0

0101000
+157 0 -155 0 *
Ve
1e-07
247.501006036217 128.618108651911 0
0 0

0101101
*
Ed
 1e-07 1 1 0
1  12 0 0 37.9106639839034
2  23 11 0 0 37.9106639839034
2  24 2 0 0 37.9106639839034
2  25 12 0 0 37.9106639839034
0

0101000
+155 0 -153 0 *
Ve
1e-07
247.501006036217 254.712273641851 0
0 0

0101101
*
Ed
 1e-07 1 1 0
1  13 0 0 126.09416498994
2  26 13 0 0 126.09416498994
2  27 2 0 0 126.09416498994
0

0101000
+153 0 -151 0 *
Ve
1.00000113686838e-07
118.522334004024 254.712273641851 0
0 0

0101101
*
Ed
 1e-07 1 1 0
1  14 0 0 128.978672032193
2  28 13 0 0 128.978672032193
2  29 2 0 0 128.978672032193
0

0101000
+151 0 -149 0 *
Ve
1e-07
118.522334004024 198.258350100604 0
0 0

0101101
*
Ed
 1e-07 1 1 0
1  15 0 0 56.4539235412475
2  30 14 0 0 56.4539235412475
2  31 2 0 0 56.4539235412475
0

0101000
+149 0 -147 0 *
Ve
1e-07
118.522334004024 187.956539235412 0
0 0

0101101
*
Ed
 1e-07 1 1 0
1  16 0 0 10.3018108651912
2  32 15 0 0 10.3018108651912
2  33 2 0 0 10.3018108651912
0

0101000
+147 0 -145 0 *
Ve
1e-07
117.234407645875 187.956539235412 0
0 0

0101101
*
Ed
 1e-07 1 1 0
1  17 0 0 1.28792635814891
2  34 15 0 0 1.28792635814891
2  35 2 0 0 1.28792635814891
0

0101000
+145 0 -143 0 *
Ve
1e-07
117.234407645875 155.814889336016 0
0 0

0101101
*
Ed
 1e-07 1 1 0
1  18 0 0.00010000000000332 32.1417498993964
2  36 16 0 0.00010000000000332 32.1417498993964
2  37 2 0 0.00010000000000332 32.1417498993964
0

0101000
+143 0 -141 0 *
Ve
1e-07
118.522334004024 155.814889336016 0
0 0

0101101
*
Ed
 1e-07 1 1 0
1  19 0 4.89316016096578 6.18108651911469
2  38 17 0 4.89316016096578 6.18108651911469
2  39 2 0 4.89316016096578 6.18108651911469
0

0101000
+141 0 -139 0 *
Ve
1e-07
118.522334004024 131.914688128773 0
0 0

0101101
*
Ed
 1e-07 1 1 0
1  20 0 0 23.9002012072434
2  40 17 0 0 23.9002012072434
2  41 2 0 0 23.9002012072434
0

0101000
+139 0 -137 0 *
Ve
1e-07
145.307042253521 131.914688128773 0
0 0

0101101
*
Ed
 1e-07 1 1 0
1  21 0 0 26.784708249497
2  42 17 0 0 26.784708249497
2  43 2 0 0 26.784708249497
0

0101000
+137 0 -135 0 *
Ed
 1e-07 1 1 0
1  22 0 0 6.1810865191147
2  44 17 0 0 6.1810865191147
2  45 2 0 0 6.1810865191147
0

0101000
+135 0 -167 0 *
Wi

0101100
-165 0 -163 0 -162 0 -173 0 -160 0 -158 0 -156 0 -154 0 -152 0 -150 0 
-148 0 -146 0 -144 0 -142 0 -140 0 -138 0 -136 0 -134 0 -133 0 *
Fa
0  1e-07 2 0

0101000
+132 0 *
Ve
1e-07
145.307042253521 47.4398390342052 0
0 0

0101101
*
Ed
 1e-07 1 1 0
1  23 0 0 17.7191146881288
2  46 18 0 0 17.7191146881288
2  47 3 0 0 17.7191146881288
0

0101000
+177 0 -130 0 *
Ve
1e-07
145.307042253521 1.28772635814889 0
0 0

0101101
*
Ed
 1e-07 1 1 0
1  24 0 0 46.1521126760563
2  48 18 0 0 46.1521126760563
2  49 3 0 0 46.1521126760563
0

0101000
+130 0 -128 0 *
Ve
1.00000003330669e-07
193.107444668008 1.28772635814889 0
0 0

0101101
*
Ed
 1e-07 1 1 0
1  25 0 0 47.8004024144869
2  50 18 0 0 47.8004024144869
2  51 3 0 0 47.8004024144869
0

0101000
+128 0 -126 0 *
Ve
1e-07
193.107444668008 23.5396378269618 0
0 0

0101101
*
Ed
 1e-07 1 1 0
1  26 0 0 22.2519114688129
2  52 19 0 0 22.2519114688129
2  53 3 0 0 22.2519114688129
0

0101000
+126 0 -124 0 *
Ed
 1e-07 1 1 0
1  27 0 0 23.9002012072434
2  54 20 0 0 23.9002012072434
2  55 3 0 0 23.9002012072434
0

0101000
+124 0 -172 0 *
Wi

0101100
-129 0 -127 0 -125 0 -123 0 -122 0 -170 0 *
Fa
0  1e-07 3 0

0101000
+121 0 *
Ve
1e-07
139.125955734406 95.6523138832998 0
0 0

0101101
*
Ed
 1e-07 1 1 0
1  28 0 0 6.1810865191147
2  56 5 0 0 6.1810865191147
0

0101000
+166 0 -119 0 *
Ve
1.00000056843419e-07
139.125955734406 125.733601609658 0
0 0

0101101
*
Ed
 1e-07 1 1 0
1  29 0 0 30.0812877263581
2  57 21 0 0 30.0812877263581
2  58 22 0 0 30.0812877263581
2  59 5 0 0 30.0812877263581
0

0101000
+119 0 -117 0 *
Ed
 1e-07 1 1 0
1  30 0 0 6.1810865191147
2  60 5 0 0 6.1810865191147
0

0101000
+117 0 -167 0 *
Wi

0101100
+118 0 +116 0 +115 0 +165 0 *
Fa
0  1e-07 5 0

0111000
+114 0 *
Ve
1e-07
199.288531187123 55.6812877263581 0
0 0

0101101
*
Ed
 1e-07 1 1 0
1  31 0 0 6.1810865191147
2  61 9 0 0 6.1810865191147
0

0101000
+112 0 -161 0 *
Ve
1.00000042632564e-07
199.288531187123 84.5263581488934 0
0 0

0101101
*
Ed
 1e-07 1 1 0
1  32 0 0 6.1810865191147
2  62 9 0 0 6.1810865191147
0

0101000
+159 0 -110 0 *
Ed
 1e-07 1 1 0
1  33 0 0 28.8450704225352
2  63 23 0 0 28.8450704225352
2  64 24 0 0 28.8450704225352
2  65 9 0 0 28.8450704225352
0

0101000
+110 0 -112 0 *
Wi

0101100
+111 0 +158 0 +109 0 +108 0 *
Fa
0  1e-07 9 0

0111000
+107 0 *
Ve
1e-07
253.682092555332 90.7074446680081 0
0 0

0101101
*
Ed
 1e-07 1 1 0
1  34 0 0 6.1810865191147
2  66 12 0 0 6.1810865191147
0

0101000
+105 0 -155 0 *
Ve
1e-07
253.682092555332 128.618108651911 0
0 0

0101101
*
Ed
 1e-07 1 1 0
1  35 0 0 6.1810865191147
2  67 12 0 0 6.1810865191147
0

0101000
+153 0 -103 0 *
Ed
 1e-07 1 1 0
1  36 0 0 37.9106639839034
2  68 12 0 0 37.9106639839034
0

0101000
+103 0 -105 0 *
Wi

0101100
+104 0 +152 0 +102 0 +101 0 *
Fa
0  1e-07 12 0

0111000
+100 0 *
Ve
1e-07
112.341247484909 198.258350100604 0
0 0

0101101
*
Ed
 1e-07 1 1 0
1  37 0 0 6.18108651911469
2  69 14 0 0 6.18108651911469
0

0101000
+147 0 -98 0 *
Ve
1e-07
112.341247484909 254.712273641851 0
0 0

0101101
*
Ed
 1e-07 1 1 0
1  38 0 0 56.4539235412475
2  70 14 0 0 56.4539235412475
0

0101000
+98 0 -96 0 *
Ed
 1e-07 1 1 0
1  39 0 0 6.18108651911469
2  71 14 0 0 6.18108651911469
0

0101000
+96 0 -149 0 *
Wi

0101100
+97 0 +95 0 +94 0 +146 0 *
Fa
0  1e-07 14 0

0111000
+93 0 *
Ve
1e-07
31.1629778672032 147.985513078471 0
0 0

0101101
*
Ve
1e-07
31.1629778672032 131.914688128773 0
0 0

0101101
*
Ed
 1e-07 1 1 0
1  40 0 0 16.0708249496982
2  72 25 0 0 16.0708249496982
2  73 16 0 0 16.0708249496982
0

0101000
+91 0 -90 0 *
Ve
1e-07
112.341247484909 131.914688128773 0
0 0

0101101
*
Ed
 1e-07 1 1 0
1  41 0 0 81.1782696177062
2  74 25 0 0 81.1782696177062
2  75 16 0 0 81.1782696177062
0

0101000
+90 0 -88 0 *
Ve
1e-07
112.341247484909 155.814889336016 0
0 0

0101101
*
Ed
 1e-07 1 1 0
1  42 0 0 23.9002012072434
2  76 25 0 0 23.9002012072434
2  77 16 0 0 23.9002012072434
0

0101000
+88 0 -86 0 *
Ed
 1e-07 1 1 0
1  43 0 0 4.89316016096578
2  78 25 0 0 4.89316016096578
2  79 16 0 0 4.89316016096578
0

0101000
+86 0 -141 0 *
Ve
1e-07
112.341247484909 187.956539235412 0
0 0

0101101
*
Ed
 1e-07 1 1 0
1  44 0 1.28792635814891 6.18108651911469
2  80 26 0 1.28792635814891 6.18108651911469
2  81 16 0 1.28792635814891 6.18108651911469
0

0101000
+143 0 -83 0 *
Ve
1e-07
82.672032193159 187.956539235412 0
0 0

0101101
*
Ed
 1e-07 1 1 0
1  45 0 0 29.6692152917505
2  82 27 0 0 29.6692152917505
2  83 16 0 0 29.6692152917505
2  84 28 0 0 29.6692152917505
0

0101000
+83 0 -81 0 *
Ve
1e-07
31.1629778672032 187.956539235412 0
0 0

0101101
*
Ed
 1e-07 1 1 0
1  46 0 0 51.5090543259557
2  85 29 0 0 51.5090543259557
2  86 16 0 0 51.5090543259557
0

0101000
+81 0 -79 0 *
Ve
1e-07
31.1629778672032 176.418511066398 0
0 0

0101101
*
Ed
 1e-07 1 1 0
1  47 0 0 11.5380281690141
2  87 29 0 0 11.5380281690141
2  88 16 0 0 11.5380281690141
0

0101000
+79 0 -77 0 *
Ed
 1e-07 1 1 0
1  48 0 0 28.4329979879276
2  89 30 0 0 28.4329979879276
2  90 16 0 0 28.4329979879276
2  91 31 0 0 28.4329979879276
0

0101000
+77 0 -91 0 *
Wi

0101100
-89 0 -87 0 -85 0 -84 0 +140 0 -82 0 -80 0 -78 0 -76 0 -75 0 
*
Fa
0  1e-07 16 0

0101000
+74 0 *
Ve
1e-07
199.288531187123 1.28772635814889 0
0 0

0101101
*
Ed
 1e-07 1 1 0
1  49 0 0 6.1810865191147
2  92 19 0 0 6.1810865191147
0

0101000
+72 0 -126 0 *
Ve
1e-07
199.288531187123 23.5396378269618 0
0 0

0101101
*
Ed
 1e-07 1 1 0
1  50 0 0 6.1810865191147
2  93 19 0 0 6.1810865191147
0

0101000
+124 0 -70 0 *
Ed
 1e-07 1 1 0
1  51 0 0 22.2519114688129
2  94 19 0 0 22.2519114688129
0

0101000
+70 0 -72 0 *
Wi

0101100
+71 0 +123 0 +69 0 +68 0 *
Fa
0  1e-07 19 0

0111000
+67 0 *
Ve
1.00000056954333e-07
31.1629778672032 125.733601609658 0
0 0

0101101
*
Ve
1e-07
31.1629778672032 95.6523138832998 0
0 0

0101101
*
Ed
 1e-07 1 1 0
1  52 0 0 30.0812877263581
2  95 32 0 0 30.0812877263581
2  96 22 0 0 30.0812877263581
2  97 33 0 0 30.0812877263581
0

0101000
+65 0 -64 0 *
Ve
1e-07
31.1629778672032 89.2651911468813 0
0 0

0101101
*
Ed
 1e-07 1 1 0
1  53 0 0 6.3871227364185
2  98 32 0 0 6.3871227364185
2  99 22 0 0 6.3871227364185
2  100 33 0 0 6.3871227364185
0

0101000
+64 0 -62 0 *
Ve
1e-07
31.1629778672032 55.6812877263581 0
0 0

0101101
*
Ed
 1e-07 1 1 0
1  54 0 0 33.5839034205231
2  101 32 0 0 33.5839034205231
2  102 22 0 0 33.5839034205231
2  103 33 0 0 33.5839034205231
0

0101000
+62 0 -60 0 *
Ve
1e-07
31.1629778672032 49.5002012072435 0
0 0

0101101
*
Ed
 1e-07 1 1 0
1  55 0 0 6.18108651911469
2  104 34 0 0 6.18108651911469
2  105 22 0 0 6.18108651911469
0

0101000
+60 0 -58 0 *
Ve
1e-07
8.4989939637827 49.5002012072435 0
0 0

0101101
*
Ed
 1e-07 1 1 0
1  56 0 0 22.6639839034205
2  106 34 0 0 22.6639839034205
2  107 22 0 0 22.6639839034205
0

0101000
+58 0 -56 0 *
Ve
1e-07
8.4989939637827 1.28772635814889 0
0 0

0101101
*
Ed
 1e-07 1 1 0
1  57 0 0 48.2124748490946
2  108 34 0 0 48.2124748490946
2  109 22 0 0 48.2124748490946
0

0101000
+56 0 -54 0 *
Ve
1e-07
139.125955734406 1.28772635814889 0
0 0

0101101
*
Ed
 1e-07 1 1 0
1  58 0 0 130.626961770624
2  110 34 0 0 130.626961770624
2  111 22 0 0 130.626961770624
0

0101000
+54 0 -52 0 *
Ed
 1e-07 1 1 0
1  59 0 0 94.3645875251509
2  112 34 0 0 94.3645875251509
2  113 22 0 0 94.3645875251509
0

0101000
+52 0 -119 0 *
Ed
 1e-07 1 1 0
1  60 0 6.18108651911513 114.144064386318
2  114 35 0 6.18108651911513 114.144064386318
2  115 22 0 6.18108651911513 114.144064386318
0

0101000
+117 0 -65 0 *
Wi

0101100
-63 0 -61 0 -59 0 -57 0 -55 0 -53 0 -51 0 -50 0 -116 0 -49 0 
*
Fa
0  1e-07 22 0

0101000
+48 0 *
Ve
1e-07
199.288531187123 40.0225352112676 0
0 0

0101101
*
Ed
 1e-07 1 1 0
1  61 0 0 15.6587525150905
2  116 36 0 0 15.6587525150905
2  117 24 0 0 15.6587525150905
0

0101000
+112 0 -46 0 *
Ve
1e-07
225.249094567404 40.0225352112676 0
0 0

0101101
*
Ed
 1e-07 1 1 0
1  62 0 0 25.9605633802817
2  118 36 0 0 25.9605633802817
2  119 24 0 0 25.9605633802817
0

0101000
+46 0 -44 0 *
Ve
1.00000284217094e-07
247.501006036217 40.0225352112676 0
0 0

0101101
*
Ed
 1e-07 1 1 0
1  63 0 0 22.2519114688129
2  120 37 0 0 22.2519114688129
2  121 24 0 0 22.2519114688129
2  122 38 0 0 22.2519114688129
0

0101000
+44 0 -42 0 *
Ve
1e-07
247.501006036217 84.5263581488934 0
0 0

0101101
*
Ed
 1e-07 1 1 0
1  64 0 6.18108651911469 50.6849094567404
2  123 39 0 6.18108651911469 50.6849094567404
2  124 24 0 6.18108651911469 50.6849094567404
0

0101000
+42 0 -40 0 *
Ed
 1e-07 1 1 0
1  65 0 0 48.2124748490943
2  125 39 0 0 48.2124748490943
2  126 24 0 0 48.2124748490943
0

0101000
+40 0 -110 0 *
Wi

0101100
-45 0 -43 0 -41 0 -39 0 -38 0 -108 0 *
Fa
0  1e-07 24 0

0101000
+37 0 *
Ve
1e-07
82.672032193159 194.137625754527 0
0 0

0101101
*
Ed
 1e-07 1 1 0
1  66 0 0 6.1810865191147
2  127 28 0 0 6.1810865191147
0

0101000
+81 0 -35 0 *
Ve
1e-07
112.341247484909 194.137625754527 0
0 0

0101101
*
Ed
 1e-07 1 1 0
1  67 0 0 29.6692152917505
2  128 28 0 0 29.6692152917505
0

0101000
+35 0 -33 0 *
Ed
 1e-07 1 1 0
1  68 0 0 6.1810865191147
2  129 28 0 0 6.1810865191147
0

0101000
+33 0 -83 0 *
Wi

0101100
+34 0 +32 0 +31 0 +80 0 *
Fa
0  1e-07 28 0

0111000
+30 0 *
Ve
1e-07
24.9818913480885 147.985513078471 0
0 0

0101101
*
Ed
 1e-07 1 1 0
1  69 0 0 6.18108651911469
2  130 31 0 0 6.18108651911469
0

0101000
+91 0 -28 0 *
Ve
1e-07
24.9818913480885 176.418511066398 0
0 0

0101101
*
Ed
 1e-07 1 1 0
1  70 0 0 28.4329979879276
2  131 31 0 0 28.4329979879276
0

0101000
+28 0 -26 0 *
Ed
 1e-07 1 1 0
1  71 0 0 6.18108651911469
2  132 31 0 0 6.18108651911469
0

0101000
+26 0 -77 0 *
Wi

0101100
+27 0 +25 0 +24 0 +75 0 *
Fa
0  1e-07 31 0

0111000
+23 0 *
Ve
1e-07
24.9818913480885 55.6812877263581 0
0 0

0101101
*
Ed
 1e-07 1 1 0
1  72 0 0 6.18108651911469
2  133 33 0 0 6.18108651911469
0

0101000
+60 0 -21 0 *
Ve
1e-07
24.9818913480885 89.2651911468813 0
0 0

0101101
*
Ed
 1e-07 1 1 0
1  73 0 0 33.5839034205231
2  134 33 0 0 33.5839034205231
0

0101000
+21 0 -19 0 *
Ve
1e-07
24.9818913480885 95.6523138832998 0
0 0

0101101
*
Ed
 1e-07 1 1 0
1  74 0 0 6.3871227364185
2  135 33 0 0 6.3871227364185
0

0101000
+19 0 -17 0 *
Ve
1e-07
24.9818913480885 125.733601609658 0
0 0

0101101
*
Ed
 1e-07 1 1 0
1  75 0 0 30.0812877263581
2  136 33 0 0 30.0812877263581
0

0101000
+17 0 -15 0 *
Ve
1e-07
25.3939637826962 125.733601609658 0
0 0

0101101
*
Ed
 1e-07 1 1 0
1  76 0 0 0.412072434607644
2  137 33 0 0 0.412072434607644
0

0101000
+15 0 -13 0 *
Ed
 1e-07 1 1 0
1  77 0 0 5.76901408450704
2  138 33 0 0 5.76901408450704
0

0101000
+13 0 -65 0 *
Wi

0101100
+61 0 +59 0 +20 0 +18 0 +16 0 +14 0 +12 0 +11 0 +63 0 *
Fa
0  1e-07 33 0

0111000
+10 0 *
Ve
1e-07
225.249094567404 33.8414486921529 0
0 0

0101101
*
Ed
 1e-07 1 1 0
1  78 0 0 6.18108651911469
2  139 38 0 0 6.18108651911469
0

0101000
+8 0 -44 0 *
Ve
1e-07
247.501006036217 33.8414486921529 0
0 0

0101101
*
Ed
 1e-07 1 1 0
1  79 0 0 6.18108651911469
2  140 38 0 0 6.18108651911469
0

0101000
+42 0 -6 0 *
Ed
 1e-07 1 1 0
1  80 0 0 22.2519114688129
2  141 38 0 0 22.2519114688129
0

0101000
+6 0 -8 0 *
Wi

0101100
+7 0 +41 0 +5 0 +4 0 *
Fa
0  1e-07 38 0

0111000
+3 0 *
Sh

0101000
+168 0 +131 0 +120 0 +113 0 +106 0 +99 0 +92 0 +73 0 +66 0 +47 0 
+36 0 +29 0 +22 0 +9 0 +2 0 *

+1 0 