
CASCADE Topology V3, (c) Open Cascade
Locations 0
Curve2ds 234
1 -2.4227129337539433 -7.4700315457413495 1 0 
1 2.4227129337539433 -7.4700315457413495 0 1 
1 2.4227129337539433 7.4700315457412927 -1 0 
1 -2.4227129337539433 7.4700315457412927 0 -1 
1 30.082018927444793 10.296529968454266 0 -1 
1 26.332669379663965 33.817949622118206 0 -1 
1 30.082018927444793 -4.6435331230283765 0 -1 
1 26.332669379663965 19.68545750855354 -1 0 
1 30.082018927444793 -18.776025236593043 -1 0 
1 -33.831368475225624 19.68545750855354 0 1 
1 -30.082018927444796 -18.776025236593043 0 1 
1 -33.831368475225624 57.237507981739668 1 0 
1 -30.082018927444796 18.776025236593085 1 0 
1 -9.4889589905362897 -2.4227129337539282 1 0 
1 -26.447949526813883 18.776025236593085 1 0 
1 -9.4889589905362897 -2.4227129337539282 1 0 
1 -28.473219152063685 -5.7375592514905804 1 0 
1 -7.4700315457413247 18.776025236593085 1 0 
1 9.0788313211224327 -5.7375592514905804 0 -1 
1 30.082018927444793 18.776025236593085 0 -1 
1 9.4889589905362683 -2.4227129337539282 0 1 
1 9.4889589905362683 2.4227129337539566 -1 0 
1 11.683026607662377 -33.083657522488835 -1 0 
1 9.4889589905362683 2.4227129337539566 -1 0 
1 -9.4889589905362897 2.4227129337539566 0 -1 
1 9.0788313211224327 20.508497530843783 0 -1 
1 49.235077080848491 -11.683026607662356 0 -1 
1 9.0788313211224327 -0.8921333839826957 -1 0 
1 49.235077080848491 -33.083657522488835 -1 0 
1 -30.19729907459471 62.082933849247553 -1 0 
1 -7.2948913734101808 -33.083657522488835 -1 0 
1 -38.676794342733515 62.082933849247553 0 -1 
1 -15.774386641548986 -33.083657522488835 0 -1 
1 -38.676794342733515 19.68545750855354 -1 0 
1 -15.774386641548986 -75.481133863182848 -1 0 
1 2.4227129337539424 -9.6908517350157837 0 1 
1 -37.175017556375479 -75.481133863182848 0 1 
1 2.4227129337539424 -9.6908517350157837 0 1 
1 2.7399159611476023 -84.656500542387235 0 1 
1 -37.175017556375479 -56.099430393151309 0 1 
1 2.7399159611476023 34.864004189473974 1 0 
1 -37.175017556375479 63.4210743387099 1 0 
1 -14.132492113564666 -2.422712933753985 1 0 
1 -10.928960774041094 63.4210743387099 1 0 
1 -14.132492113564666 -2.422712933753985 1 0 
1 -26.854488098652133 12.716489819328956 1 0 
1 17.336023453088245 63.4210743387099 1 0 
1 5.0445655291081133 12.716489819328956 0 -1 
1 49.235077080848491 63.4210743387099 0 -1 
1 -2.4227129337539433 13.930599369085172 0 -1 
1 49.235077080848491 16.178172130507988 0 -1 
1 -2.4227129337539433 13.930599369085172 0 -1 
1 -2.4227129337539424 -9.6908517350157837 1 0 
1 2.4227129337539424 9.6908517350157553 -1 0 
1 -2.4227129337539424 9.6908517350157553 0 -1 
1 78.998486266625036 -13.670283449463213 0 -1 
1 14.132492113564673 -2.422712933753985 0 1 
1 14.132492113564673 2.4227129337538997 -1 0 
1 -14.132492113564666 2.4227129337538997 0 -1 
1 -2.4227129337539433 -13.930599369085172 1 0 
1 2.4227129337539433 -13.930599369085172 0 1 
1 2.4227129337539433 13.930599369085172 -1 0 
1 -8.5660777297041335 -45.085522624406167 1 0 
1 72.537918443281185 25.900694468517855 1 0 
1 -2.1055099063602825 -45.085522624406167 0 -1 
1 78.998486266625036 25.900694468517855 0 -1 
1 -64.922851125067893 19.68545750855354 0 -1 
1 78.998486266625036 -33.051986919494752 0 -1 
1 -64.922851125067893 14.840031641045655 1 0 
1 78.998486266625036 -37.897412787002636 1 0 
1 -2.4227129337539424 11.709779179810738 0 -1 
1 96.765047780820623 -37.897412787002636 0 -1 
1 -4.1617154690251539 41.634495171372706 0 -1 
1 96.765047780820623 -61.316971146624098 0 -1 
1 -4.1617154690251539 35.981498325946845 -1 0 
1 96.765047780820623 -66.969967992049959 -1 0 
1 8.4794952681388054 2.4227129337539424 -1 0 
1 78.998486266625036 -66.969967992049959 -1 0 
1 14.439030835549175 22.083472343799038 -1 0 
1 62.03949573034744 -66.969967992049959 -1 0 
1 -24.728161593472905 22.083472343799038 0 1 
1 22.87230330132536 -66.969967992049959 0 1 
1 -24.728161593472905 43.887888747584533 -1 0 
1 22.87230330132536 -45.165551588264464 -1 0 
1 10.498422712933717 2.4227129337539566 -1 0 
1 16.007949989022507 -45.165551588264464 -1 0 
1 10.498422712933717 2.4227129337539566 -1 0 
1 59.287767262530735 36.014020329477724 -1 0 
1 -4.9888954368449845 -45.165551588264464 -1 0 
1 2.4227129337538713 -11.709779179810738 0 1 
1 -84.130851272807149 -45.165551588264464 0 1 
1 2.4227129337538713 -11.709779179810738 0 1 
1 -2.1918973522843999 -64.657285648459919 0 1 
1 -84.130851272807149 -21.745993228643016 0 1 
1 -2.1918973522843999 36.692872080246701 1 0 
1 -84.130851272807149 79.604164500063604 1 0 
1 -9.488958990536247 -2.422712933753985 1 0 
1 -52.231797645046868 79.604164500063547 1 0 
1 -9.488958990536247 -2.422712933753985 1 0 
1 -38.7719981206792 9.6279799132339576 1 0 
1 -33.253879663974317 79.604164500063604 1 0 
1 -8.8918719377139155 9.6279799132339576 0 -1 
1 -3.3737534810090324 79.604164500063604 0 -1 
1 -8.8918719377139155 -44.075490118311791 1 0 
1 -3.3737534810090324 25.900694468517855 1 0 
1 -9.4889589905362755 -2.4227129337539282 1 0 
1 53.560000462208635 25.900694468517855 1 0 
1 -9.4889589905362755 -2.4227129337539282 1 0 
1 -2.4227129337539424 -11.709779179810724 1 0 
1 2.4227129337539424 -11.709779179810724 0 1 
1 -34.133062254953458 21.938335880867392 0 1 
1 2.4227129337539424 11.709779179810738 -1 0 
1 8.4794952681388054 -2.4227129337539424 0 1 
1 -8.4794952681387912 2.4227129337539424 0 -1 
1 -8.4794952681387912 -2.4227129337539424 1 0 
1 -17.362776025236585 28.264984227129336 1 0 
1 10.498422712933717 -2.4227129337539424 0 1 
1 -10.498422712933774 2.4227129337539566 0 -1 
1 -10.498422712933774 -2.4227129337539424 1 0 
1 26.636086941449719 40.594196970222193 1 0 
1 -10.498422712933774 -2.4227129337539424 1 0 
1 -2.422712933753985 -11.709779179810738 1 0 
1 2.4227129337538713 11.70977917981071 -1 0 
1 -2.422712933753985 11.70977917981071 0 -1 
1 9.4889589905363039 -2.4227129337539282 0 1 
1 9.4889589905363039 2.4227129337539282 -1 0 
1 10.498422712933689 -10.700315457413211 -1 0 
1 -9.488958990536247 2.4227129337539282 0 -1 
1 9.4889589905362755 -2.4227129337539282 0 1 
1 9.4889589905362755 2.4227129337539566 -1 0 
1 32.302839116719255 -45.425867507886494 -1 0 
1 9.4889589905362755 2.4227129337539566 -1 0 
1 -9.4889589905362755 2.4227129337539566 0 -1 
1 14.536277602523667 2.4227129337539428 -1 0 
1 23.608262666182185 -45.090055286325025 -1 0 
1 14.536277602523667 2.4227129337539428 -1 0 
1 29.352480114571051 -25.393895995819715 -1 0 
1 -5.4642925388651378 -45.090055286325025 -1 0 
1 0.68371039848273085 -25.393895995819715 0 1 
1 -34.133062254953458 -45.090055286325025 0 1 
1 -64.922851125067893 14.840031641045655 1 0 
1 -56.74504963665693 45.357894240488854 1 0 
1 26.332669379663965 14.840031641045655 0 -1 
1 34.510470868074925 45.357894240488854 0 -1 
1 26.332669379663965 -75.607917885768231 -1 0 
1 34.510470868074925 -45.090055286325025 -1 0 
1 26.148810015359899 -39.291921977967519 -1 0 
1 -5.6529968454258608 -28.264984227129339 -1 0 
1 14.439030835549175 -39.291921977967519 0 1 
1 -17.362776025236585 -28.264984227129339 0 1 
1 -21.928276983220741 31.13607245843896 1 0 
1 -0.40378548895898803 28.264984227129336 1 0 
1 -4.1617154690251539 31.13607245843896 0 -1 
1 17.362776025236599 28.264984227129336 0 -1 
1 -4.1617154690251539 -25.393895995819715 -1 0 
1 17.362776025236599 -28.264984227129339 -1 0 
1 7.2681388012618271 2.4227129337539433 -1 0 
1 8.8832807570977934 -28.264984227129339 -1 0 
1 -31.592514905775758 39.042462880076634 1 0 
1 47.63293236731721 40.594196970222193 1 0 
1 -29.573587460980789 39.042462880076634 0 -1 
1 49.651859812112178 40.594196970222193 0 -1 
1 -2.4227129337539566 9.2870662460567814 0 -1 
1 49.651859812112178 18.789780566436711 0 -1 
1 3.8853332965988727 30.59953439036822 0 -1 
1 49.651859812112178 0.21564807432314836 0 -1 
1 3.8853332965988727 -7.3563015717768918 -1 0 
1 49.651859812112178 -37.740187887821961 -1 0 
1 13.930599369085172 2.4227129337539433 -1 0 
1 16.541449717474933 -37.740187887821961 -1 0 
1 13.930599369085172 2.4227129337539433 -1 0 
1 21.331931300385605 -47.165790396074328 -1 0 
1 -11.319749020695411 -37.740187887821961 -1 0 
1 -19.854188573431429 -47.165790396074328 0 1 
1 -52.505868894512446 -37.740187887821961 0 1 
1 -19.854188573431429 4.1149667017174636 1 0 
1 -52.505868894512446 13.540569209969831 1 0 
1 -0.47248510339986183 4.1149667017174636 0 1 
1 -33.124165424480879 13.540569209969831 0 1 
1 -0.47248510339986183 31.168594461969825 1 0 
1 -33.124165424480879 40.594196970222193 1 0 
1 40.378548895898973 -10.700315457413183 0 1 
1 40.378548895898973 10.700315457413325 -1 0 
1 -40.378548895899172 10.700315457413325 0 -1 
1 -40.378548895899172 -5.0325315457405395 2.0058428389882888e-14 -1 
1 -40.378548895899058 -10.700315457413183 1 0 
1 -24.227129337539509 -10.700315457413183 1 0 
1 26.246056782334307 -10.700315457413183 1 0 
1 -14.738170347003148 -2.4227129337539282 1 0 
1 -17.36277602523657 45.42586750788638 1 0 
1 -28.755352177653663 50.611638258874592 1 0 
1 12.113564668769726 45.42586750788638 1 0 
1 -2.1055099063602825 50.611638258874592 0 -1 
1 38.763406940063106 45.42586750788638 0 -1 
1 -2.1055099063602825 -40.240096756898282 -1 0 
1 38.763406940063106 -45.425867507886494 -1 0 
1 48.041882005503751 -39.230064250803906 -1 0 
1 13.324921135646704 -45.425867507886494 -1 0 
1 -4.0464460702060308 -39.230064250803906 0 1 
1 -38.763406940063078 -45.425867507886494 0 1 
1 -4.0464460702060308 51.621670764968968 1 0 
1 -38.763406940063078 45.42586750788638 1 0 
1 14.536277602523667 -2.4227129337539433 0 1 
1 -14.536277602523654 2.4227129337539428 0 -1 
1 -14.536277602523654 -2.4227129337539433 1 0 
1 7.2681388012618271 -2.4227129337539433 0 1 
1 -7.2681388012618271 2.4227129337539433 0 -1 
1 -7.2681388012618271 -2.4227129337539433 1 0 
1 -2.4227129337539566 -9.2870662460567814 1 0 
1 2.4227129337539282 -9.2870662460567814 0 1 
1 -17.160883280757076 9.6908517350157624 0 1 
1 2.4227129337539282 9.2870662460567814 -1 0 
1 13.930599369085172 -2.4227129337539428 0 1 
1 -13.930599369085172 2.4227129337539433 0 -1 
1 -13.930599369085172 -2.4227129337539428 1 0 
1 14.738170347003148 -2.4227129337539282 0 1 
1 14.738170347003148 2.4227129337539566 -1 0 
1 -14.738170347003148 2.4227129337539566 0 -1 
1 -29.573587460980789 17.238046476291153 1 0 
1 -22.006309148264961 28.264984227129325 1 0 
1 9.5936049680412765 17.238046476291153 0 -1 
1 17.160883280757105 28.264984227129325 0 -1 
1 9.5936049680412765 -39.291921977967519 -1 0 
1 17.160883280757105 -28.26498422712935 -1 0 
1 7.0662460567823615 2.4227129337539433 -1 0 
1 8.6813880126183136 -28.26498422712935 -1 0 
1 7.0662460567823615 2.4227129337539433 -1 0 
1 20.440538343917467 -7.3563015717768918 -1 0 
1 -5.4511041009463668 -28.26498422712935 -1 0 
1 8.7307591641067575 -7.3563015717768918 0 1 
1 -17.160883280757076 -28.26498422712935 0 1 
1 7.0662460567823615 -2.4227129337539433 0 1 
1 -7.0662460567823189 2.4227129337539433 0 -1 
1 -7.0662460567823189 -2.4227129337539433 1 0 
Curves 135
1 0.80757097791798105 112.45425867507886 0 -1 0 0 
1 -4.0378548895899051 112.45425867507886 0 0 1 0 
1 -4.0378548895899051 127.3943217665615 0 1 0 0 
1 0.80757097791798105 127.3943217665615 0 0 -1 0 
1 0.80757097791798105 112.45425867507886 0 0 -1 0 
1 0.80757097791798105 98.321766561514195 0 1 0 0 
1 60.971608832807568 98.321766561514195 0 0 1 0 
1 60.971608832807568 135.87381703470032 0 -1 0 0 
1 57.337539432176655 135.87381703470032 0 -1 0 0 
1 38.359621451104097 135.87381703470032 0 -1 0 0 
1 0.80757097791798105 135.87381703470032 0 0 -1 0 
1 38.359621451104097 135.87381703470032 0 0 1 0 
1 38.359621451104097 140.71924290220821 0 1 0 0 
1 57.337539432176655 140.71924290220821 0 0 -1 0 
1 0.80757097791798105 162.11987381703469 0 0 -1 0 
1 0.80757097791798105 140.71924290220821 0 1 0 0 
1 57.337539432176655 140.71924290220821 0 1 0 0 
1 65.81703470031546 140.71924290220821 0 0 -1 0 
1 65.81703470031546 98.321766561514195 0 1 0 0 
1 87.217665615141954 98.321766561514195 0 0 1 0 
1 87.217665615141954 117.70347003154573 0 0 1 0 
1 87.217665615141954 237.22397476340694 0 -1 0 0 
1 60.971608832807568 237.22397476340694 0 -1 0 0 
1 32.706624605678229 237.22397476340694 0 -1 0 0 
1 0.80757097791798105 237.22397476340694 0 0 -1 0 
1 0.80757097791798105 189.98107255520503 0 0 -1 0 
1 92.063091482649838 98.321766561514195 0 -1 0 0 
1 87.217665615141954 117.70347003154573 0 1 0 0 
1 92.063091482649838 117.70347003154573 0 0 -1 0 
1 32.706624605678229 237.22397476340694 0 0 1 0 
1 32.706624605678229 242.06940063091483 0 1 0 0 
1 60.971608832807568 242.06940063091483 0 0 -1 0 
1 0.80757097791798105 162.11987381703469 0 -1 0 0 
1 -4.0378548895899051 162.11987381703469 0 0 1 0 
1 -4.0378548895899051 189.98107255520503 0 1 0 0 
1 98.523659305993689 157.2744479495268 0 -1 0 0 
1 92.063091482649838 157.2744479495268 0 0 -1 0 
1 92.063091482649838 98.321766561514195 0 0 -1 0 
1 92.063091482649838 93.476340694006311 0 -1 0 0 
1 74.296529968454252 93.476340694006311 0 0 -1 0 
1 74.296529968454252 70.056782334384849 0 0 -1 0 
1 74.296529968454252 64.403785488958988 0 1 0 0 
1 92.063091482649838 64.403785488958988 0 1 0 0 
1 109.02208201892743 64.403785488958988 0 1 0 0 
1 148.18927444794951 64.403785488958988 0 0 1 0 
1 148.18927444794951 86.208201892744484 0 1 0 0 
1 155.05362776025237 86.208201892744484 0 1 0 0 
1 176.05047318611986 86.208201892744484 0 1 0 0 
1 255.19242902208202 86.208201892744484 0 0 1 0 
1 255.19242902208202 109.62776025236593 0 0 1 0 
1 255.19242902208202 210.97791798107255 0 -1 0 0 
1 223.29337539432174 210.97791798107249 0 -1 0 0 
1 204.31545741324919 210.97791798107255 0 -1 0 0 
1 174.43533123028391 210.97791798107255 0 0 -1 0 
1 174.43533123028391 157.2744479495268 0 -1 0 0 
1 117.50157728706624 157.2744479495268 0 -1 0 0 
1 74.296529968454252 70.056782334384849 0 -1 0 0 
1 69.451104100946367 70.056782334384849 0 0 1 0 
1 69.451104100946367 93.476340694006311 0 1 0 0 
1 92.063091482649838 59.558359621451103 0 0 1 0 
1 109.02208201892743 64.403785488958988 0 0 -1 0 
1 109.02208201892743 59.558359621451103 0 -1 0 0 
1 155.05362776025237 81.362776025236585 0 0 1 0 
1 176.05047318611986 86.208201892744484 0 0 -1 0 
1 176.05047318611986 81.362776025236585 0 -1 0 0 
1 260.03785488958988 86.208201892744484 0 -1 0 0 
1 255.19242902208202 109.62776025236593 0 1 0 0 
1 260.03785488958988 109.62776025236593 0 0 -1 0 
1 204.31545741324919 210.97791798107255 0 0 1 0 
1 204.31545741324919 215.82334384858041 0 1 0 0 
1 223.29337539432174 215.82334384858041 0 0 -1 0 
1 98.523659305993689 157.2744479495268 0 0 1 0 
1 98.523659305993689 162.11987381703469 0 1 0 0 
1 117.50157728706624 162.11987381703469 0 0 -1 0 
1 11.709779179810726 3.0283911671924288 0 1 0 0 
1 40.782334384858046 3.0283911671924288 0 1 0 0 
1 69.451104100946367 3.0283911671924288 0 0 1 0 
1 92.063091482649838 93.476340694006311 0 -1 0 0 
1 0.80757097791798105 93.476340694006311 0 0 -1 0 
1 0.80757097791798105 3.0283911671924288 0 1 0 0 
1 97.312302839116711 3.0283911671924288 0 1 0 0 
1 109.02208201892743 3.0283911671924288 0 0 1 0 
1 92.063091482649838 59.558359621451103 0 -1 0 0 
1 74.296529968454252 59.558359621451103 0 0 -1 0 
1 74.296529968454252 3.0283911671924288 0 1 0 0 
1 82.776025236593057 3.0283911671924288 0 1 0 0 
1 155.05362776025237 81.362776025236585 0 -1 0 0 
1 153.0347003154574 81.362776025236585 0 0 -1 0 
1 153.0347003154574 59.558359621451103 0 0 -1 0 
1 153.0347003154574 40.98422712933754 0 0 -1 0 
1 153.0347003154574 3.0283911671924288 0 1 0 0 
1 186.14511041009465 3.0283911671924288 0 1 0 0 
1 214.00630914826499 3.0283911671924288 0 1 0 0 
1 255.19242902208202 3.0283911671924288 0 0 1 0 
1 255.19242902208202 54.309148264984223 0 -1 0 0 
1 235.81072555205046 54.309148264984223 0 0 1 0 
1 235.81072555205046 81.362776025236585 0 -1 0 0 
1 174.43533123028391 215.82334384858044 0 0 1 0 
1 174.43533123028391 237.22397476340694 0 1 0 0 
1 255.19242902208205 237.22397476340694 0 0 -1 0 
1 255.19242902208205 221.49112776025308 0 -2.0058428389882888e-14 -1 0 
1 255.19242902208194 215.82334384858044 0 -1 0 0 
1 239.04100946372239 215.82334384858044 0 -1 0 0 
1 188.56782334384857 215.82334384858044 0 -1 0 0 
1 148.18927444794951 252.97160883280756 0 -1 0 0 
1 118.71293375394322 252.97160883280756 0 -1 0 0 
1 92.063091482649838 252.97160883280756 0 0 -1 0 
1 92.063091482649838 162.11987381703469 0 1 0 0 
1 117.50157728706624 162.11987381703469 0 1 0 0 
1 169.58990536277602 162.11987381703469 0 0 1 0 
1 169.58990536277602 252.97160883280756 0 -1 0 0 
1 11.709779179810726 -1.8170347003154574 0 0 1 0 
1 40.782334384858046 3.0283911671924288 0 0 -1 0 
1 40.782334384858046 -1.8170347003154574 0 -1 0 0 
1 82.776025236593057 -1.8170347003154574 0 0 1 0 
1 97.312302839116711 3.0283911671924288 0 0 -1 0 
1 97.312302839116711 -1.8170347003154574 0 -1 0 0 
1 153.0347003154574 40.98422712933754 0 -1 0 0 
1 148.18927444794951 40.98422712933754 0 0 1 0 
1 148.18927444794951 59.558359621451103 0 1 0 0 
1 186.14511041009465 -1.8170347003154574 0 0 1 0 
1 214.00630914826499 3.0283911671924288 0 0 -1 0 
1 214.00630914826499 -1.8170347003154574 0 -1 0 0 
1 118.71293375394322 252.97160883280756 0 0 1 0 
1 118.71293375394322 257.81703470031545 0 1 0 0 
1 148.18927444794951 257.81703470031545 0 0 -1 0 
1 153.0347003154574 59.558359621451103 0 -1 0 0 
1 113.86750788643533 59.558359621451103 0 0 -1 0 
1 113.86750788643533 3.0283911671924288 0 1 0 0 
1 122.34700315457413 3.0283911671924288 0 1 0 0 
1 136.47949526813881 3.0283911671924288 0 1 0 0 
1 148.18927444794951 3.0283911671924288 0 0 1 0 
1 122.34700315457413 -1.8170347003154574 0 0 1 0 
1 136.47949526813881 3.0283911671924288 0 0 -1 0 
1 136.47949526813881 -1.8170347003154574 0 -1 0 0 
Polygon3D 0
PolygonOnTriangulations 0
Surfaces 64
1 -1.6151419558359621 119.92429022082021 0 -0 -0 -1 -1 0 0 0 1 -0 
1 30.889589905362772 117.09779179810724 0 -0 -0 -1 -1 0 0 0 1 -0 
1 27.140240357581945 78.636309052960655 0 -0 -0 -1 -1 0 0 0 1 -0 
1 47.848580441640365 138.29652996845425 0 -0 -0 -1 -1 0 0 0 1 -0 
1 47.848580441640365 138.29652996845425 0 -0 -0 -1 -1 0 0 0 1 -0 
1 9.8864022990404141 141.6113762861909 0 -0 -0 -1 -1 0 0 0 1 -0 
1 47.848580441640365 138.29652996845425 0 -0 -0 -1 -1 0 0 0 1 -0 
1 50.042648058766474 173.80290042469704 0 -0 -0 -1 -1 0 0 0 1 -0 
1 9.8864022990404141 141.6113762861909 0 -0 -0 -1 -1 0 0 0 1 -0 
1 27.140240357581945 78.636309052960655 0 -0 -0 -1 -1 0 0 0 1 -0 
1 89.640378548895896 108.01261829652998 0 -0 -0 -1 -1 0 0 0 1 -0 
1 89.640378548895896 108.01261829652998 0 -0 -0 -1 -1 0 0 0 1 -0 
1 89.957581576289556 202.35997057393297 0 -0 -0 -1 -1 0 0 0 1 -0 
1 46.839116719242902 239.64668769716093 0 -0 -0 -1 -1 0 0 0 1 -0 
1 46.839116719242902 239.64668769716093 0 -0 -0 -1 -1 0 0 0 1 -0 
1 5.8521365070260947 224.50748494407799 0 -0 -0 -1 -1 0 0 0 1 -0 
1 -1.6151419558359621 176.05047318611986 0 -0 -0 -1 -1 0 0 0 1 -0 
1 -1.6151419558359621 176.05047318611986 0 -0 -0 -1 -1 0 0 0 1 -0 
1 171.06157774927487 131.37375348100895 0 -0 -0 -1 -1 0 0 0 1 -0 
1 89.957581576289556 202.35997057393297 0 -0 -0 -1 -1 0 0 0 1 -0 
1 27.140240357581945 78.636309052960655 0 -0 -0 -1 -1 0 0 0 1 -0 
1 71.873817034700309 81.766561514195573 0 -0 -0 -1 -1 0 0 0 1 -0 
1 70.134814499429098 28.422287163012143 0 -0 -0 -1 -1 0 0 0 1 -0 
1 100.54258675078864 61.981072555205046 0 -0 -0 -1 -1 0 0 0 1 -0 
1 123.46111285447661 42.32031314515995 0 -0 -0 -1 -1 0 0 0 1 -0 
1 165.55205047318609 83.785488958990527 0 -0 -0 -1 -1 0 0 0 1 -0 
1 165.55205047318609 83.785488958990527 0 -0 -0 -1 -1 0 0 0 1 -0 
1 235.33824044865059 50.19418156326676 0 -0 -0 -1 -1 0 0 0 1 -0 
1 257.6151419558359 97.917981072555222 0 -0 -0 -1 -1 0 0 0 1 -0 
1 257.6151419558359 97.917981072555222 0 -0 -0 -1 -1 0 0 0 1 -0 
1 253.00053166979762 174.28504590082585 0 -0 -0 -1 -1 0 0 0 1 -0 
1 213.8044164037855 213.40063091482648 0 -0 -0 -1 -1 0 0 0 1 -0 
1 213.8044164037855 213.40063091482648 0 -0 -0 -1 -1 0 0 0 1 -0 
1 165.54345929256999 201.34993806783859 0 -0 -0 -1 -1 0 0 0 1 -0 
1 108.01261829652996 159.69716088328073 0 -0 -0 -1 -1 0 0 0 1 -0 
1 108.01261829652996 159.69716088328073 0 -0 -0 -1 -1 0 0 0 1 -0 
1 35.318041845992909 48.118446453517457 0 -0 -0 -1 -1 0 0 0 1 -0 
1 91.65930599369085 31.293375394321767 0 -0 -0 -1 -1 0 0 0 1 -0 
1 165.55205047318609 83.785488958990527 0 -0 -0 -1 -1 0 0 0 1 -0 
1 202.68656012756958 40.768579055014392 0 -0 -0 -1 -1 0 0 0 1 -0 
1 214.81388012618288 226.52365930599362 0 -0 -0 -1 -1 0 0 0 1 -0 
1 108.01261829652996 159.69716088328073 0 -0 -0 -1 -1 0 0 0 1 -0 
1 130.82649842271294 207.54574132492118 0 -0 -0 -1 -1 0 0 0 1 -0 
1 26.246056782334392 0.60567823343848592 0 -0 -0 -1 -1 0 0 0 1 -0 
1 26.246056782334392 0.60567823343848592 0 -0 -0 -1 -1 0 0 0 1 -0 
1 70.134814499429098 28.422287163012143 0 -0 -0 -1 -1 0 0 0 1 -0 
1 27.140240357581945 78.636309052960655 0 -0 -0 -1 -1 0 0 0 1 -0 
1 123.46111285447661 42.32031314515995 0 -0 -0 -1 -1 0 0 0 1 -0 
1 70.134814499429098 28.422287163012143 0 -0 -0 -1 -1 0 0 0 1 -0 
1 90.044164037854884 0.60567823343848559 0 -0 -0 -1 -1 0 0 0 1 -0 
1 123.46111285447661 42.32031314515995 0 -0 -0 -1 -1 0 0 0 1 -0 
1 150.61198738170344 50.271293375394322 0 -0 -0 -1 -1 0 0 0 1 -0 
1 156.92003361205627 10.384692738969321 0 -0 -0 -1 -1 0 0 0 1 -0 
1 200.07570977917982 0.60567823343848548 0 -0 -0 -1 -1 0 0 0 1 -0 
1 200.07570977917982 0.60567823343848548 0 -0 -0 -1 -1 0 0 0 1 -0 
1 235.33824044865059 50.19418156326676 0 -0 -0 -1 -1 0 0 0 1 -0 
1 133.45110410094637 255.39432176656149 0 -0 -0 -1 -1 0 0 0 1 -0 
1 89.957581576289556 202.35997057393297 0 -0 -0 -1 -1 0 0 0 1 -0 
1 165.54345929256999 201.34993806783859 0 -0 -0 -1 -1 0 0 0 1 -0 
1 131.02839116719244 31.293375394321778 0 -0 -0 -1 -1 0 0 0 1 -0 
1 123.46111285447661 42.32031314515995 0 -0 -0 -1 -1 0 0 0 1 -0 
1 129.41324921135649 0.60567823343848581 0 -0 -0 -1 -1 0 0 0 1 -0 
1 129.41324921135649 0.60567823343848581 0 -0 -0 -1 -1 0 0 0 1 -0 
1 156.92003361205627 10.384692738969321 0 -0 -0 -1 -1 0 0 0 1 -0 
Triangulations 0

TShapes 302
Ve
1.00000000444089e-07
0.807570977917981 112.454258675079 0
0 0

0101101
*
Ve
1e-07
-4.03785488958991 112.454258675079 0
0 0

0101101
*
Ed
 1e-07 1 1 0
1  1 0 0 4.84542586750789
2  1 1 0 0 4.84542586750789
0

0101000
+302 0 -301 0 *
Ve
1e-07
-4.03785488958991 127.394321766562 0
0 0

0101101
*
Ed
 1e-07 1 1 0
1  2 0 0 14.9400630914826
2  2 1 0 0 14.9400630914826
0

0101000
+301 0 -299 0 *
Ve
1.00000014599433e-07
0.807570977917981 127.394321766562 0
0 0

0101101
*
Ed
 1e-07 1 1 0
1  3 0 0 4.84542586750789
2  3 1 0 0 4.84542586750789
0

0101000
+299 0 -297 0 *
Ed
 1e-07 1 1 0
1  4 0 0 14.9400630914826
2  4 1 0 0 14.9400630914826
2  5 2 0 0 14.9400630914826
0

0101000
+297 0 -302 0 *
Wi

0101100
+300 0 +298 0 +296 0 +295 0 *
Fa
0  1e-07 1 0

0111000
+294 0 *
Ve
1e-07
0.807570977917981 98.3217665615142 0
0 0

0101101
*
Ed
 1e-07 1 1 0
1  5 0 0 14.1324921135647
2  6 3 0 0 14.1324921135647
2  7 2 0 0 14.1324921135647
0

0101000
+302 0 -292 0 *
Ve
1e-07
60.9716088328076 98.3217665615142 0
0 0

0101101
*
Ed
 1e-07 1 1 0
1  6 0 0 60.1640378548896
2  8 3 0 0 60.1640378548896
2  9 2 0 0 60.1640378548896
0

0101000
+292 0 -290 0 *
Ve
1e-07
60.9716088328076 135.8738170347 0
0 0

0101101
*
Ed
 1e-07 1 1 0
1  7 0 0 37.5520504731861
2  10 3 0 0 37.5520504731861
2  11 2 0 0 37.5520504731861
0

0101000
+290 0 -288 0 *
Ve
1e-07
57.3375394321767 135.8738170347 0
0 0

0101101
*
Ed
 1e-07 1 1 0
1  8 0 0 3.63406940063091
2  12 3 0 0 3.63406940063091
2  13 2 0 0 3.63406940063091
0

0101000
+288 0 -286 0 *
Ve
1e-07
38.3596214511041 135.8738170347 0
0 0

0101101
*
Ed
 1e-07 1 1 0
1  9 0 0 18.9779179810726
2  14 4 0 0 18.9779179810726
2  15 2 0 0 18.9779179810726
2  16 5 0 0 18.9779179810726
0

0101000
+286 0 -284 0 *
Ve
1e-07
0.807570977917981 135.8738170347 0
0 0

0101101
*
Ed
 1e-07 1 1 0
1  10 0 0 37.5520504731861
2  17 6 0 0 37.5520504731861
2  18 2 0 0 37.5520504731861
0

0101000
+284 0 -282 0 *
Ed
 1e-07 1 1 0
1  11 0 0 8.47949526813882
2  19 6 0 0 8.47949526813882
2  20 2 0 0 8.47949526813882
0

0101000
+282 0 -297 0 *
Wi

0101100
-291 0 -289 0 -287 0 -285 0 -283 0 -281 0 -280 0 -295 0 *
Fa
0  1e-07 2 0

0101000
+279 0 *
Ve
1e-07
38.3596214511041 140.719242902208 0
0 0

0101101
*
Ed
 1e-07 1 1 0
1  12 0 0 4.84542586750788
2  21 5 0 0 4.84542586750788
0

0101000
+284 0 -277 0 *
Ve
1e-07
57.3375394321767 140.719242902208 0
0 0

0101101
*
Ed
 1e-07 1 1 0
1  13 0 0 18.9779179810726
2  22 7 0 0 18.9779179810726
2  23 8 0 0 18.9779179810726
2  24 5 0 0 18.9779179810726
0

0101000
+277 0 -275 0 *
Ed
 1e-07 1 1 0
1  14 0 0 4.84542586750788
2  25 5 0 0 4.84542586750788
0

0101000
+275 0 -286 0 *
Wi

0101100
+276 0 +274 0 +273 0 +283 0 *
Fa
0  1e-07 5 0

0111000
+272 0 *
Ve
1.00000000444089e-07
0.807570977917981 162.119873817035 0
0 0

0101101
*
Ve
1e-07
0.807570977917981 140.719242902208 0
0 0

0101101
*
Ed
 1e-07 1 1 0
1  15 0 0 21.4006309148265
2  26 9 0 0 21.4006309148265
2  27 8 0 0 21.4006309148265
0

0101000
+270 0 -269 0 *
Ed
 1e-07 1 1 0
1  16 0 0 37.5520504731861
2  28 9 0 0 37.5520504731861
2  29 8 0 0 37.5520504731861
0

0101000
+269 0 -277 0 *
Ve
1e-07
65.8170347003155 140.719242902208 0
0 0

0101101
*
Ed
 1e-07 1 1 0
1  17 0 0 8.47949526813881
2  30 10 0 0 8.47949526813881
2  31 8 0 0 8.47949526813881
0

0101000
+275 0 -266 0 *
Ve
1e-07
65.8170347003155 98.3217665615142 0
0 0

0101101
*
Ed
 1e-07 1 1 0
1  18 0 0 42.397476340694
2  32 10 0 0 42.397476340694
2  33 8 0 0 42.397476340694
0

0101000
+266 0 -264 0 *
Ve
1e-07
87.217665615142 98.3217665615142 0
0 0

0101101
*
Ed
 1e-07 1 1 0
1  19 0 0 21.4006309148265
2  34 10 0 0 21.4006309148265
2  35 8 0 0 21.4006309148265
0

0101000
+264 0 -262 0 *
Ve
1e-07
87.217665615142 117.703470031546 0
0 0

0101101
*
Ed
 1e-07 1 1 0
1  20 0 0 19.3817034700315
2  36 11 0 0 19.3817034700315
2  37 8 0 0 19.3817034700315
2  38 12 0 0 19.3817034700315
0

0101000
+262 0 -260 0 *
Ve
1e-07
87.217665615142 237.223974763407 0
0 0

0101101
*
Ed
 1e-07 1 1 0
1  21 0 0 119.520504731861
2  39 13 0 0 119.520504731861
2  40 8 0 0 119.520504731861
0

0101000
+260 0 -258 0 *
Ve
1e-07
60.9716088328076 237.223974763407 0
0 0

0101101
*
Ed
 1e-07 1 1 0
1  22 0 0 26.2460567823344
2  41 13 0 0 26.2460567823344
2  42 8 0 0 26.2460567823344
0

0101000
+258 0 -256 0 *
Ve
1e-07
32.7066246056782 237.223974763407 0
0 0

0101101
*
Ed
 1e-07 1 1 0
1  23 0 0 28.2649842271293
2  43 14 0 0 28.2649842271293
2  44 8 0 0 28.2649842271293
2  45 15 0 0 28.2649842271293
0

0101000
+256 0 -254 0 *
Ve
1e-07
0.807570977917981 237.223974763407 0
0 0

0101101
*
Ed
 1e-07 1 1 0
1  24 0 0 31.8990536277602
2  46 16 0 0 31.8990536277602
2  47 8 0 0 31.8990536277602
0

0101000
+254 0 -252 0 *
Ve
1.00000028865799e-07
0.807570977917981 189.981072555205 0
0 0

0101101
*
Ed
 1e-07 1 1 0
1  25 0 0 47.2429022082019
2  48 16 0 0 47.2429022082019
2  49 8 0 0 47.2429022082019
0

0101000
+252 0 -250 0 *
Ed
 1e-07 1 1 0
1  26 0 0 27.8611987381703
2  50 17 0 0 27.8611987381703
2  51 8 0 0 27.8611987381703
2  52 18 0 0 27.8611987381703
0

0101000
+250 0 -270 0 *
Wi

0101100
-268 0 -267 0 -274 0 -265 0 -263 0 -261 0 -259 0 -257 0 -255 0 -253 0 
-251 0 -249 0 -248 0 *
Fa
0  1e-07 8 0

0101000
+247 0 *
Ve
1e-07
92.0630914826498 98.3217665615142 0
0 0

0101101
*
Ed
 1e-07 1 1 0
1  27 0 0 4.84542586750788
2  53 12 0 0 4.84542586750788
0

0101000
+245 0 -262 0 *
Ve
1e-07
92.0630914826498 117.703470031546 0
0 0

0101101
*
Ed
 1e-07 1 1 0
1  28 0 0 4.84542586750788
2  54 12 0 0 4.84542586750788
0

0101000
+260 0 -243 0 *
Ed
 1e-07 1 1 0
1  29 0 0 19.3817034700315
2  55 12 0 0 19.3817034700315
2  56 19 0 0 19.3817034700315
0

0101000
+243 0 -245 0 *
Wi

0101100
+244 0 +259 0 +242 0 +241 0 *
Fa
0  1e-07 12 0

0111000
+240 0 *
Ve
1e-07
32.7066246056782 242.069400630915 0
0 0

0101101
*
Ed
 1e-07 1 1 0
1  30 0 0 4.84542586750788
2  57 15 0 0 4.84542586750788
0

0101000
+254 0 -238 0 *
Ve
1e-07
60.9716088328076 242.069400630915 0
0 0

0101101
*
Ed
 1e-07 1 1 0
1  31 0 0 28.2649842271293
2  58 15 0 0 28.2649842271293
0

0101000
+238 0 -236 0 *
Ed
 1e-07 1 1 0
1  32 0 0 4.84542586750788
2  59 15 0 0 4.84542586750788
0

0101000
+236 0 -256 0 *
Wi

0101100
+237 0 +235 0 +234 0 +253 0 *
Fa
0  1e-07 15 0

0111000
+233 0 *
Ve
1e-07
-4.03785488958991 162.119873817035 0
0 0

0101101
*
Ed
 1e-07 1 1 0
1  33 0 0 4.84542586750789
2  60 18 0 0 4.84542586750789
0

0101000
+270 0 -231 0 *
Ve
1e-07
-4.03785488958991 189.981072555205 0
0 0

0101101
*
Ed
 1e-07 1 1 0
1  34 0 0 27.8611987381703
2  61 18 0 0 27.8611987381703
0

0101000
+231 0 -229 0 *
Ed
 1e-07 1 1 0
1  35 0 0 4.84542586750789
2  62 18 0 0 4.84542586750789
0

0101000
+229 0 -250 0 *
Wi

0101100
+230 0 +228 0 +227 0 +248 0 *
Fa
0  1e-07 18 0

0111000
+226 0 *
Ve
1e-07
98.5236593059937 157.274447949527 0
0 0

0101101
*
Ve
1e-07
92.0630914826498 157.274447949527 0
0 0

0101101
*
Ed
 1e-07 1 1 0
1  36 0 0 6.46056782334385
2  63 20 0 0 6.46056782334385
2  64 19 0 0 6.46056782334385
0

0101000
+224 0 -223 0 *
Ed
 1e-07 1 1 0
1  37 0 0 39.5709779179811
2  65 20 0 0 39.5709779179811
2  66 19 0 0 39.5709779179811
0

0101000
+223 0 -243 0 *
Ve
1e-07
92.0630914826498 93.4763406940063 0
0 0

0101101
*
Ed
 1e-07 1 1 0
1  38 0 0 4.84542586750788
2  67 21 0 0 4.84542586750788
2  68 19 0 0 4.84542586750788
0

0101000
+245 0 -220 0 *
Ve
1.00000014210855e-07
74.2965299684543 93.4763406940063 0
0 0

0101101
*
Ed
 1e-07 1 1 0
1  39 0 0 17.7665615141955
2  69 21 0 0 17.7665615141955
2  70 19 0 0 17.7665615141955
0

0101000
+220 0 -218 0 *
Ve
1e-07
74.2965299684543 70.0567823343848 0
0 0

0101101
*
Ed
 1e-07 1 1 0
1  40 0 0 23.4195583596215
2  71 22 0 0 23.4195583596215
2  72 19 0 0 23.4195583596215
0

0101000
+218 0 -216 0 *
Ve
1e-07
74.2965299684543 64.403785488959 0
0 0

0101101
*
Ed
 1e-07 1 1 0
1  41 0 0 5.65299684542586
2  73 23 0 0 5.65299684542586
2  74 19 0 0 5.65299684542586
0

0101000
+216 0 -214 0 *
Ve
1e-07
92.0630914826498 64.403785488959 0
0 0

0101101
*
Ed
 1e-07 1 1 0
1  42 0 0 17.7665615141956
2  75 23 0 0 17.7665615141956
2  76 19 0 0 17.7665615141956
0

0101000
+214 0 -212 0 *
Ve
1e-07
109.022082018927 64.403785488959 0
0 0

0101101
*
Ed
 1e-07 1 1 0
1  43 0 0 16.9589905362776
2  77 24 0 0 16.9589905362776
2  78 19 0 0 16.9589905362776
0

0101000
+212 0 -210 0 *
Ve
1e-07
148.18927444795 64.403785488959 0
0 0

0101101
*
Ed
 1e-07 1 1 0
1  44 0 0 39.1671924290221
2  79 25 0 0 39.1671924290221
2  80 19 0 0 39.1671924290221
0

0101000
+210 0 -208 0 *
Ve
1e-07
148.18927444795 86.2082018927445 0
0 0

0101101
*
Ed
 1e-07 1 1 0
1  45 0 0 21.8044164037855
2  81 25 0 0 21.8044164037855
2  82 19 0 0 21.8044164037855
0

0101000
+208 0 -206 0 *
Ve
1e-07
155.053627760252 86.2082018927445 0
0 0

0101101
*
Ed
 1e-07 1 1 0
1  46 0 0 6.86435331230285
2  83 25 0 0 6.86435331230285
2  84 19 0 0 6.86435331230285
0

0101000
+206 0 -204 0 *
Ve
1e-07
176.05047318612 86.2082018927445 0
0 0

0101101
*
Ed
 1e-07 1 1 0
1  47 0 0 20.9968454258675
2  85 26 0 0 20.9968454258675
2  86 19 0 0 20.9968454258675
2  87 27 0 0 20.9968454258675
0

0101000
+204 0 -202 0 *
Ve
1.00000014210855e-07
255.192429022082 86.2082018927445 0
0 0

0101101
*
Ed
 1e-07 1 1 0
1  48 0 0 79.1419558359621
2  88 28 0 0 79.1419558359621
2  89 19 0 0 79.1419558359621
0

0101000
+202 0 -200 0 *
Ve
1e-07
255.192429022082 109.627760252366 0
0 0

0101101
*
Ed
 1e-07 1 1 0
1  49 0 0 23.4195583596214
2  90 29 0 0 23.4195583596214
2  91 19 0 0 23.4195583596214
2  92 30 0 0 23.4195583596214
0

0101000
+200 0 -198 0 *
Ve
1e-07
255.192429022082 210.977917981073 0
0 0

0101101
*
Ed
 1e-07 1 1 0
1  50 0 0 101.350157728707
2  93 31 0 0 101.350157728707
2  94 19 0 0 101.350157728707
0

0101000
+198 0 -196 0 *
Ve
1.00000028421709e-07
223.293375394322 210.977917981073 0
0 0

0101101
*
Ed
 1e-07 1 1 0
1  51 0 0 31.8990536277603
2  95 31 0 0 31.8990536277603
2  96 19 0 0 31.8990536277603
0

0101000
+196 0 -194 0 *
Ve
1.00000028421709e-07
204.315457413249 210.977917981073 0
0 0

0101101
*
Ed
 1e-07 1 1 0
1  52 0 0 18.9779179810726
2  97 32 0 0 18.9779179810726
2  98 19 0 0 18.9779179810726
2  99 33 0 0 18.9779179810726
0

0101000
+194 0 -192 0 *
Ve
1e-07
174.435331230284 210.977917981073 0
0 0

0101101
*
Ed
 1e-07 1 1 0
1  53 0 0 29.8801261829653
2  100 34 0 0 29.8801261829653
2  101 19 0 0 29.8801261829653
0

0101000
+192 0 -190 0 *
Ve
1e-07
174.435331230284 157.274447949527 0
0 0

0101101
*
Ed
 1e-07 1 1 0
1  54 0 0 53.7034700315457
2  102 34 0 0 53.7034700315457
2  103 19 0 0 53.7034700315457
0

0101000
+190 0 -188 0 *
Ve
1e-07
117.501577287066 157.274447949527 0
0 0

0101101
*
Ed
 1e-07 1 1 0
1  55 0 0 56.9337539432177
2  104 34 0 0 56.9337539432177
2  105 19 0 0 56.9337539432177
0

0101000
+188 0 -186 0 *
Ed
 1e-07 1 1 0
1  56 0 0 18.9779179810726
2  106 35 0 0 18.9779179810726
2  107 19 0 0 18.9779179810726
2  108 36 0 0 18.9779179810726
0

0101000
+186 0 -224 0 *
Wi

0101100
-222 0 -221 0 -241 0 -219 0 -217 0 -215 0 -213 0 -211 0 -209 0 -207 0 
-205 0 -203 0 -201 0 -199 0 -197 0 -195 0 -193 0 -191 0 -189 0 -187 0 
-185 0 -184 0 *
Fa
0  1e-07 19 0

0101000
+183 0 *
Ve
1e-07
69.4511041009464 70.0567823343848 0
0 0

0101101
*
Ed
 1e-07 1 1 0
1  57 0 0 4.84542586750788
2  109 22 0 0 4.84542586750788
0

0101000
+216 0 -181 0 *
Ve
1.00000014210855e-07
69.4511041009464 93.4763406940063 0
0 0

0101101
*
Ed
 1e-07 1 1 0
1  58 0 0 23.4195583596215
2  110 22 0 0 23.4195583596215
2  111 37 0 0 23.4195583596215
0

0101000
+181 0 -179 0 *
Ed
 1e-07 1 1 0
1  59 0 0 4.84542586750788
2  112 22 0 0 4.84542586750788
0

0101000
+179 0 -218 0 *
Wi

0101100
+180 0 +178 0 +177 0 +215 0 *
Fa
0  1e-07 22 0

0111000
+176 0 *
Ve
1e-07
92.0630914826498 59.5583596214511 0
0 0

0101101
*
Ed
 1e-07 1 1 0
1  60 0 0 4.84542586750788
2  113 24 0 0 4.84542586750788
0

0101000
+174 0 -212 0 *
Ve
1.00000440536496e-07
109.022082018927 59.5583596214511 0
0 0

0101101
*
Ed
 1e-07 1 1 0
1  61 0 0 4.84542586750788
2  114 24 0 0 4.84542586750788
0

0101000
+210 0 -172 0 *
Ed
 1e-07 1 1 0
1  62 0 0 16.9589905362776
2  115 24 0 0 16.9589905362776
2  116 38 0 0 16.9589905362776
0

0101000
+172 0 -174 0 *
Wi

0101100
+173 0 +209 0 +171 0 +170 0 *
Fa
0  1e-07 24 0

0111000
+169 0 *
Ve
1e-07
155.053627760252 81.3627760252366 0
0 0

0101101
*
Ed
 1e-07 1 1 0
1  63 0 0 4.8454258675079
2  117 27 0 0 4.8454258675079
0

0101000
+167 0 -204 0 *
Ve
1e-07
176.05047318612 81.3627760252366 0
0 0

0101101
*
Ed
 1e-07 1 1 0
1  64 0 0 4.8454258675079
2  118 27 0 0 4.8454258675079
0

0101000
+202 0 -165 0 *
Ed
 1e-07 1 1 0
1  65 0 0 20.9968454258675
2  119 39 0 0 20.9968454258675
2  120 40 0 0 20.9968454258675
2  121 27 0 0 20.9968454258675
0

0101000
+165 0 -167 0 *
Wi

0101100
+166 0 +201 0 +164 0 +163 0 *
Fa
0  1e-07 27 0

0111000
+162 0 *
Ve
1e-07
260.03785488959 86.2082018927445 0
0 0

0101101
*
Ed
 1e-07 1 1 0
1  66 0 0 4.84542586750786
2  122 30 0 0 4.84542586750786
0

0101000
+160 0 -200 0 *
Ve
1e-07
260.03785488959 109.627760252366 0
0 0

0101101
*
Ed
 1e-07 1 1 0
1  67 0 0 4.84542586750786
2  123 30 0 0 4.84542586750786
0

0101000
+198 0 -158 0 *
Ed
 1e-07 1 1 0
1  68 0 0 23.4195583596214
2  124 30 0 0 23.4195583596214
0

0101000
+158 0 -160 0 *
Wi

0101100
+159 0 +197 0 +157 0 +156 0 *
Fa
0  1e-07 30 0

0111000
+155 0 *
Ve
1.00000454747351e-07
204.315457413249 215.82334384858 0
0 0

0101101
*
Ed
 1e-07 1 1 0
1  69 0 0 4.84542586750786
2  125 33 0 0 4.84542586750786
0

0101000
+192 0 -153 0 *
Ve
1.00000454747351e-07
223.293375394322 215.82334384858 0
0 0

0101101
*
Ed
 1.00000056843418e-07 1 1 0
1  70 0 0 18.9779179810726
2  126 33 0 0 18.9779179810726
2  127 41 0 0 18.9779179810726
0

0101000
+153 0 -151 0 *
Ed
 1e-07 1 1 0
1  71 0 0 4.84542586750786
2  128 33 0 0 4.84542586750786
0

0101000
+151 0 -194 0 *
Wi

0101100
+191 0 +152 0 +150 0 +149 0 *
Fa
0  1e-07 33 0

0111000
+148 0 *
Ve
1e-07
98.5236593059937 162.119873817035 0
0 0

0101101
*
Ed
 1e-07 1 1 0
1  72 0 0 4.84542586750788
2  129 36 0 0 4.84542586750788
0

0101000
+224 0 -146 0 *
Ve
1e-07
117.501577287066 162.119873817035 0
0 0

0101101
*
Ed
 1e-07 1 1 0
1  73 0 0 18.9779179810726
2  130 42 0 0 18.9779179810726
2  131 43 0 0 18.9779179810726
2  132 36 0 0 18.9779179810726
0

0101000
+146 0 -144 0 *
Ed
 1e-07 1 1 0
1  74 0 0 4.84542586750788
2  133 36 0 0 4.84542586750788
0

0101000
+144 0 -186 0 *
Wi

0101100
+145 0 +143 0 +142 0 +184 0 *
Fa
0  1e-07 36 0

0111000
+141 0 *
Ve
1.00000000444089e-07
11.7097791798107 3.02839116719243 0
0 0

0101101
*
Ve
1.00000000444089e-07
40.782334384858 3.02839116719243 0
0 0

0101101
*
Ed
 1e-07 1 1 0
1  75 0 0 29.0725552050473
2  134 44 0 0 29.0725552050473
2  135 37 0 0 29.0725552050473
2  136 45 0 0 29.0725552050473
0

0101000
+139 0 -138 0 *
Ve
1e-07
69.4511041009464 3.02839116719243 0
0 0

0101101
*
Ed
 1e-07 1 1 0
1  76 0 0 28.6687697160883
2  137 46 0 0 28.6687697160883
2  138 37 0 0 28.6687697160883
0

0101000
+138 0 -136 0 *
Ed
 1e-07 1 1 0
1  77 0 0 67.0283911671924
2  139 46 0 0 67.0283911671924
2  140 37 0 0 67.0283911671924
0

0101000
+136 0 -181 0 *
Ve
1e-07
0.807570977917981 93.4763406940063 0
0 0

0101101
*
Ed
 1e-07 1 1 0
1  78 0 22.6119873817034 91.2555205047319
2  141 47 0 22.6119873817034 91.2555205047319
2  142 37 0 22.6119873817034 91.2555205047319
0

0101000
+179 0 -133 0 *
Ve
1e-07
0.807570977917981 3.02839116719243 0
0 0

0101101
*
Ed
 1e-07 1 1 0
1  79 0 0 90.4479495268139
2  143 47 0 0 90.4479495268139
2  144 37 0 0 90.4479495268139
0

0101000
+133 0 -131 0 *
Ed
 1e-07 1 1 0
1  80 0 0 10.9022082018927
2  145 47 0 0 10.9022082018927
2  146 37 0 0 10.9022082018927
0

0101000
+131 0 -139 0 *
Wi

0101100
-137 0 -135 0 -134 0 -178 0 -132 0 -130 0 -129 0 *
Fa
0  1e-07 37 0

0101000
+128 0 *
Ve
1.00000000444089e-07
97.3123028391167 3.02839116719243 0
0 0

0101101
*
Ve
1e-07
109.022082018927 3.02839116719243 0
0 0

0101101
*
Ed
 1e-07 1 1 0
1  81 0 0 11.7097791798107
2  147 48 0 0 11.7097791798107
2  148 38 0 0 11.7097791798107
0

0101000
+126 0 -125 0 *
Ed
 1e-07 1 1 0
1  82 0 0 56.5299684542587
2  149 48 0 0 56.5299684542587
2  150 38 0 0 56.5299684542587
0

0101000
+125 0 -172 0 *
Ve
1e-07
74.2965299684543 59.5583596214511 0
0 0

0101101
*
Ed
 1e-07 1 1 0
1  83 0 0 17.7665615141956
2  151 49 0 0 17.7665615141956
2  152 38 0 0 17.7665615141956
0

0101000
+174 0 -122 0 *
Ve
1e-07
74.2965299684543 3.02839116719243 0
0 0

0101101
*
Ed
 1e-07 1 1 0
1  84 0 0 56.5299684542587
2  153 49 0 0 56.5299684542587
2  154 38 0 0 56.5299684542587
0

0101000
+122 0 -120 0 *
Ve
1.00000000444089e-07
82.7760252365931 3.02839116719243 0
0 0

0101101
*
Ed
 1e-07 1 1 0
1  85 0 0 8.47949526813881
2  155 49 0 0 8.47949526813881
2  156 38 0 0 8.47949526813881
0

0101000
+120 0 -118 0 *
Ed
 1e-07 1 1 0
1  86 0 0 14.5362776025237
2  157 50 0 0 14.5362776025237
2  158 38 0 0 14.5362776025237
0

0101000
+118 0 -126 0 *
Wi

0101100
-124 0 -123 0 -170 0 -121 0 -119 0 -117 0 -116 0 *
Fa
0  1e-07 38 0

0101000
+115 0 *
Ve
1e-07
153.034700315457 81.3627760252366 0
0 0

0101101
*
Ed
 1e-07 1 1 0
1  87 0 0 2.01892744479497
2  159 51 0 0 2.01892744479497
2  160 40 0 0 2.01892744479497
0

0101000
+167 0 -113 0 *
Ve
1e-07
153.034700315457 59.5583596214511 0
0 0

0101101
*
Ed
 1e-07 1 1 0
1  88 0 0 21.8044164037855
2  161 51 0 0 21.8044164037855
2  162 40 0 0 21.8044164037855
0

0101000
+113 0 -111 0 *
Ve
1e-07
153.034700315457 40.9842271293375 0
0 0

0101101
*
Ed
 1e-07 1 1 0
1  89 0 0 18.5741324921136
2  163 52 0 0 18.5741324921136
2  164 40 0 0 18.5741324921136
0

0101000
+111 0 -109 0 *
Ve
1e-07
153.034700315457 3.02839116719243 0
0 0

0101101
*
Ed
 1e-07 1 1 0
1  90 0 0 37.9558359621451
2  165 53 0 0 37.9558359621451
2  166 40 0 0 37.9558359621451
0

0101000
+109 0 -107 0 *
Ve
1.00000000444089e-07
186.145110410095 3.02839116719243 0
0 0

0101101
*
Ed
 1e-07 1 1 0
1  91 0 0 33.1104100946372
2  167 53 0 0 33.1104100946372
2  168 40 0 0 33.1104100946372
0

0101000
+107 0 -105 0 *
Ve
1.00000000444089e-07
214.006309148265 3.02839116719243 0
0 0

0101101
*
Ed
 1e-07 1 1 0
1  92 0 0 27.8611987381703
2  169 54 0 0 27.8611987381703
2  170 40 0 0 27.8611987381703
2  171 55 0 0 27.8611987381703
0

0101000
+105 0 -103 0 *
Ve
1e-07
255.192429022082 3.02839116719243 0
0 0

0101101
*
Ed
 1e-07 1 1 0
1  93 0 0 41.186119873817
2  172 56 0 0 41.186119873817
2  173 40 0 0 41.186119873817
0

0101000
+103 0 -101 0 *
Ve
1e-07
255.192429022082 54.3091482649842 0
0 0

0101101
*
Ed
 1e-07 1 1 0
1  94 0 0 51.2807570977918
2  174 56 0 0 51.2807570977918
2  175 40 0 0 51.2807570977918
0

0101000
+101 0 -99 0 *
Ve
1e-07
235.81072555205 54.3091482649842 0
0 0

0101101
*
Ed
 1e-07 1 1 0
1  95 0 0 19.3817034700316
2  176 56 0 0 19.3817034700316
2  177 40 0 0 19.3817034700316
0

0101000
+99 0 -97 0 *
Ve
1e-07
235.81072555205 81.3627760252366 0
0 0

0101101
*
Ed
 1e-07 1 1 0
1  96 0 0 27.0536277602524
2  178 56 0 0 27.0536277602524
2  179 40 0 0 27.0536277602524
0

0101000
+97 0 -95 0 *
Ed
 1e-07 1 1 0
1  97 0 0 59.7602523659306
2  180 56 0 0 59.7602523659306
2  181 40 0 0 59.7602523659306
0

0101000
+95 0 -165 0 *
Wi

0101100
-112 0 -110 0 -108 0 -106 0 -104 0 -102 0 -100 0 -98 0 -96 0 -94 0 
-93 0 -163 0 *
Fa
0  1e-07 40 0

0101000
+92 0 *
Ve
1.00000217384276e-07
174.435331230284 215.82334384858 0
0 0

0101101
*
Ve
1e-07
174.435331230284 237.223974763407 0
0 0

0101101
*
Ed
 1e-07 1 1 0
1  98 0 0 21.4006309148265
2  182 41 0 0 21.4006309148265
0

0101000
+90 0 -89 0 *
Ve
1e-07
255.192429022082 237.223974763407 0
0 0

0101101
*
Ed
 1e-07 1 1 0
1  99 0 0 80.7570977917981
2  183 41 0 0 80.7570977917981
0

0101000
+89 0 -87 0 *
Ve
1e-07
255.192429022082 221.491127760253 0
0 0

0101101
*
Ed
 1e-07 1 1 0
1  100 0 0 15.7328470031539
2  184 41 0 0 15.7328470031539
0

0101000
+87 0 -85 0 *
Ve
1.00000085265128e-07
255.192429022082 216.630914826498 0
0 0

0101101
*
Ed
 1e-07 1 1 0
1  101 0 0 4.86021293375507
2  185 41 0 0 4.86021293375507
0

0101000
+85 0 -83 0 *
Ve
1.00000215049254e-07
255.192429022082 215.82334384858 0
0 0

0101101
*
Ed
 1.00000085265128e-07 1 1 0
1  101 0 4.86021293375507 5.66778391167264
2  185 41 0 4.86021293375507 5.66778391167264
0

0101000
+83 0 -81 0 *
Ve
1e-07
239.041009463722 215.82334384858 0
0 0

0101101
*
Ed
 1e-07 1 1 0
1  102 0 0 16.1514195583595
2  186 41 0 0 16.1514195583595
0

0101000
+81 0 -79 0 *
Ed
 1e-07 1 1 0
1  103 0 0 15.7476340694004
2  187 41 0 0 15.7476340694004
0

0101000
+79 0 -151 0 *
Ve
1e-07
188.567823343849 215.82334384858 0
0 0

0101101
*
Ed
 1e-07 1 1 0
1  103 0 34.7255520504734 50.4731861198738
2  187 41 0 34.7255520504734 50.4731861198738
0

0101000
+153 0 -76 0 *
Ed
 1e-07 1 1 0
1  104 0 0 14.1324921135647
2  188 41 0 0 14.1324921135647
0

0101000
+76 0 -90 0 *
Wi

0101100
+88 0 +86 0 +84 0 +82 0 +80 0 +78 0 +77 0 -150 0 +75 0 +74 0 
*
Fa
0  1e-07 41 0

0111000
+73 0 *
Ve
1e-07
148.18927444795 252.971608832808 0
0 0

0101101
*
Ve
1e-07
118.712933753943 252.971608832808 0
0 0

0101101
*
Ed
 1e-07 1 1 0
1  105 0 0 29.4763406940063
2  189 57 0 0 29.4763406940063
2  190 43 0 0 29.4763406940063
0

0101000
+71 0 -70 0 *
Ve
1e-07
92.0630914826498 252.971608832808 0
0 0

0101101
*
Ed
 1e-07 1 1 0
1  106 0 0 26.6498422712934
2  191 58 0 0 26.6498422712934
2  192 43 0 0 26.6498422712934
0

0101000
+70 0 -68 0 *
Ve
1e-07
92.0630914826498 162.119873817035 0
0 0

0101101
*
Ed
 1e-07 1 1 0
1  107 0 0 90.8517350157729
2  193 58 0 0 90.8517350157729
2  194 43 0 0 90.8517350157729
0

0101000
+68 0 -66 0 *
Ed
 1e-07 1 1 0
1  108 0 0 6.46056782334385
2  195 58 0 0 6.46056782334385
2  196 43 0 0 6.46056782334385
0

0101000
+66 0 -146 0 *
Ve
1e-07
169.589905362776 162.119873817035 0
0 0

0101101
*
Ed
 1e-07 1 1 0
1  109 0 0 52.0883280757098
2  197 59 0 0 52.0883280757098
2  198 43 0 0 52.0883280757098
0

0101000
+144 0 -63 0 *
Ve
1e-07
169.589905362776 252.971608832808 0
0 0

0101101
*
Ed
 1e-07 1 1 0
1  110 0 0 90.8517350157729
2  199 59 0 0 90.8517350157729
2  200 43 0 0 90.8517350157729
0

0101000
+63 0 -61 0 *
Ed
 1e-07 1 1 0
1  111 0 0 21.4006309148265
2  201 59 0 0 21.4006309148265
2  202 43 0 0 21.4006309148265
0

0101000
+61 0 -71 0 *
Wi

0101100
-69 0 -67 0 -65 0 -64 0 -143 0 -62 0 -60 0 -59 0 *
Fa
0  1e-07 43 0

0101000
+58 0 *
Ve
1e-07
11.7097791798107 -1.81703470031546 0
0 0

0101101
*
Ed
 1e-07 1 1 0
1  112 0 0 4.84542586750789
2  203 45 0 0 4.84542586750789
0

0101000
+56 0 -139 0 *
Ve
1e-07
40.782334384858 -1.81703470031546 0
0 0

0101101
*
Ed
 1e-07 1 1 0
1  113 0 0 4.84542586750789
2  204 45 0 0 4.84542586750789
0

0101000
+138 0 -54 0 *
Ed
 1e-07 1 1 0
1  114 0 0 29.0725552050473
2  205 45 0 0 29.0725552050473
0

0101000
+54 0 -56 0 *
Wi

0101100
+55 0 +137 0 +53 0 +52 0 *
Fa
0  1e-07 45 0

0111000
+51 0 *
Ve
1e-07
82.7760252365931 -1.81703470031546 0
0 0

0101101
*
Ed
 1e-07 1 1 0
1  115 0 0 4.84542586750789
2  206 50 0 0 4.84542586750789
0

0101000
+49 0 -118 0 *
Ve
1e-07
97.3123028391167 -1.81703470031546 0
0 0

0101101
*
Ed
 1e-07 1 1 0
1  116 0 0 4.84542586750789
2  207 50 0 0 4.84542586750789
0

0101000
+126 0 -47 0 *
Ed
 1e-07 1 1 0
1  117 0 0 14.5362776025237
2  208 50 0 0 14.5362776025237
0

0101000
+47 0 -49 0 *
Wi

0101100
+48 0 +116 0 +46 0 +45 0 *
Fa
0  1e-07 50 0

0111000
+44 0 *
Ve
1e-07
148.18927444795 40.9842271293375 0
0 0

0101101
*
Ed
 1e-07 1 1 0
1  118 0 0 4.84542586750788
2  209 52 0 0 4.84542586750788
0

0101000
+109 0 -42 0 *
Ve
1e-07
148.18927444795 59.5583596214511 0
0 0

0101101
*
Ed
 1e-07 1 1 0
1  119 0 0 18.5741324921136
2  210 52 0 0 18.5741324921136
2  211 60 0 0 18.5741324921136
0

0101000
+42 0 -40 0 *
Ed
 1e-07 1 1 0
1  120 0 0 4.84542586750788
2  212 52 0 0 4.84542586750788
0

0101000
+40 0 -111 0 *
Wi

0101100
+41 0 +39 0 +38 0 +108 0 *
Fa
0  1e-07 52 0

0111000
+37 0 *
Ve
1e-07
186.145110410095 -1.81703470031546 0
0 0

0101101
*
Ed
 1e-07 1 1 0
1  121 0 0 4.84542586750789
2  213 55 0 0 4.84542586750789
0

0101000
+35 0 -105 0 *
Ve
1e-07
214.006309148265 -1.81703470031546 0
0 0

0101101
*
Ed
 1e-07 1 1 0
1  122 0 0 4.84542586750789
2  214 55 0 0 4.84542586750789
0

0101000
+103 0 -33 0 *
Ed
 1e-07 1 1 0
1  123 0 0 27.8611987381703
2  215 55 0 0 27.8611987381703
0

0101000
+33 0 -35 0 *
Wi

0101100
+34 0 +102 0 +32 0 +31 0 *
Fa
0  1e-07 55 0

0111000
+30 0 *
Ve
1e-07
118.712933753943 257.817034700315 0
0 0

0101101
*
Ed
 1e-07 1 1 0
1  124 0 0 4.84542586750788
2  216 57 0 0 4.84542586750788
0

0101000
+70 0 -28 0 *
Ve
1e-07
148.18927444795 257.817034700315 0
0 0

0101101
*
Ed
 1e-07 1 1 0
1  125 0 0 29.4763406940063
2  217 57 0 0 29.4763406940063
0

0101000
+28 0 -26 0 *
Ed
 1e-07 1 1 0
1  126 0 0 4.84542586750788
2  218 57 0 0 4.84542586750788
0

0101000
+26 0 -71 0 *
Wi

0101100
+27 0 +25 0 +24 0 +69 0 *
Fa
0  1e-07 57 0

0111000
+23 0 *
Ve
1e-07
113.867507886435 59.5583596214511 0
0 0

0101101
*
Ed
 1e-07 1 1 0
1  127 0 4.8454258675074 39.1671924290221
2  219 61 0 4.8454258675074 39.1671924290221
2  220 60 0 4.8454258675074 39.1671924290221
0

0101000
+40 0 -21 0 *
Ve
1e-07
113.867507886435 3.02839116719243 0
0 0

0101101
*
Ed
 1e-07 1 1 0
1  128 0 0 56.5299684542587
2  221 61 0 0 56.5299684542587
2  222 60 0 0 56.5299684542587
0

0101000
+21 0 -19 0 *
Ve
1.00000000444089e-07
122.347003154574 3.02839116719243 0
0 0

0101101
*
Ed
 1e-07 1 1 0
1  129 0 0 8.47949526813879
2  223 61 0 0 8.47949526813879
2  224 60 0 0 8.47949526813879
0

0101000
+19 0 -17 0 *
Ve
1.00000000444089e-07
136.479495268139 3.02839116719243 0
0 0

0101101
*
Ed
 1e-07 1 1 0
1  130 0 0 14.1324921135647
2  225 62 0 0 14.1324921135647
2  226 60 0 0 14.1324921135647
2  227 63 0 0 14.1324921135647
0

0101000
+17 0 -15 0 *
Ve
1e-07
148.18927444795 3.02839116719243 0
0 0

0101101
*
Ed
 1e-07 1 1 0
1  131 0 0 11.7097791798107
2  228 64 0 0 11.7097791798107
2  229 60 0 0 11.7097791798107
0

0101000
+15 0 -13 0 *
Ed
 1e-07 1 1 0
1  132 0 0 37.9558359621451
2  230 64 0 0 37.9558359621451
2  231 60 0 0 37.9558359621451
0

0101000
+13 0 -42 0 *
Wi

0101100
-20 0 -18 0 -16 0 -14 0 -12 0 -11 0 -39 0 *
Fa
0  1e-07 60 0

0101000
+10 0 *
Ve
1e-07
122.347003154574 -1.81703470031546 0
0 0

0101101
*
Ed
 1e-07 1 1 0
1  133 0 0 4.84542586750789
2  232 63 0 0 4.84542586750789
0

0101000
+8 0 -17 0 *
Ve
1e-07
136.479495268139 -1.81703470031546 0
0 0

0101101
*
Ed
 1e-07 1 1 0
1  134 0 0 4.84542586750789
2  233 63 0 0 4.84542586750789
0

0101000
+15 0 -6 0 *
Ed
 1e-07 1 1 0
1  135 0 0 14.1324921135647
2  234 63 0 0 14.1324921135647
0

0101000
+6 0 -8 0 *
Wi

0101100
+7 0 +14 0 +5 0 +4 0 *
Fa
0  1e-07 63 0

0111000
+3 0 *
Sh

0101000
+293 0 +278 0 +271 0 +246 0 +239 0 +232 0 +225 0 +182 0 +175 0 +168 0 
+161 0 +154 0 +147 0 +140 0 +127 0 +114 0 +91 0 +72 0 +57 0 +50 0 
+43 0 +36 0 +29 0 +22 0 +9 0 +2 0 *

+1 0 