
CASCADE Topology V3, (c) Open Cascade
Locations 0
Curve2ds 246
1 7.967183103366466 -1.7184120419025533 0 1 
1 7.967183103366466 1.7184120419025675 -1 0 
1 23.221728745654588 -61.360602345724629 -1 0 
1 -7.9671831033664091 1.7184120419025675 0 -1 
1 -7.9671831033664091 -1.7184120419025533 1 0 
1 -27.962947749514917 27.240584970801123 -1 0 
1 91.333333315610872 -24.180414530014545 -1 0 
1 5.9363325083906773 1.7184120419025675 -1 0 
1 77.898475533463525 -24.180414530014545 -1 0 
1 10.924190837809206 29.982942575273981 -1 0 
1 66.025810516682157 -24.180414530014545 -1 0 
1 7.4873667540040714 29.982942575273981 0 -1 
1 62.588986432877022 -24.180414530014545 0 -1 
1 7.4873667540040714 -7.1972452404361036 -1 0 
1 62.588986432877022 -61.360602345724629 -1 0 
1 14.59766426254518 -25.797200959326332 -1 0 
1 7.2873625389217125 -61.360602345724629 -1 0 
1 7.7240160949349104 -25.797200959326332 0 1 
1 0.41371437131144262 -61.360602345724629 0 1 
1 7.7240160949349104 22.318336213945528 -1 0 
1 0.41371437131144262 -13.245065172452769 -1 0 
1 1.7184120419025533 -7.0298674441468734 0 1 
1 -30.517702382934743 -13.245065172452769 0 1 
1 40.538497548095222 -0.64491040715296322 0 1 
1 -30.517702382934743 0.81466971584094949 0 1 
1 40.538497548095222 24.037735285629367 -1 0 
1 -30.517702382934743 25.49731540862328 -1 0 
1 34.558998023090879 1.1545376165605887 0 1 
1 -31.042972729071664 25.497215408623276 0 1 
1 -12.966199952537551 -1.7184120419026101 1 0 
1 -50.20133122654596 43.618751486868518 1 0 
1 -14.05973488829369 -1.7184120419025817 1 0 
1 -24.268931321470887 43.618751486868518 1 0 
1 -13.552022239549757 -1.7184120419025533 1 0 
1 3.8505384551165776 43.618751486868518 1 0 
1 -6.4830999762687895 -1.7184120419025533 1 0 
1 30.954582934216134 43.618751486868518 1 0 
1 -25.46100391471424 17.416662323656112 1 0 
1 43.920782886753685 43.618751486868518 1 0 
1 -6.7928003685909033 17.416662323656112 0 -1 
1 62.588986432877022 43.618751486868518 0 -1 
1 -6.7928003685909033 -18.20133272668798 1 0 
1 62.588986432877022 8.0007564365244264 1 0 
1 18.514722430337812 -18.20133272668798 0 -1 
1 87.896509231805737 8.0007564365244264 0 -1 
1 -1.7184120419025675 6.7174288910736948 0 -1 
1 87.896509231805737 6.1261251180852696 0 -1 
1 -49.26720930976019 -18.793673256123839 0 -1 
1 87.896509231805737 -7.3087326640620915 0 -1 
1 -1.7184120419025675 6.7174288910736806 0 -1 
1 87.896509231805737 -10.745556747867198 0 -1 
1 5.9363325083906773 -1.7184120419025675 0 1 
1 -5.9363325083906915 1.7184120419025675 0 -1 
1 -5.9363325083906915 -1.7184120419025675 1 0 
1 -10.93534935756179 16.871681865952453 1 0 
1 -5.9363325083906915 -1.7184120419025675 1 0 
1 -1.7184120419025817 -7.0298674441468734 1 0 
1 1.7184120419025533 7.0298674441468449 -1 0 
1 -1.7184120419025817 7.0298674441468449 0 -1 
1 31.12792937483664 34.564753458641761 0 -1 
1 40.538497548095222 24.037735285629367 -1 0 
1 35.0842683692278 1.1546376165605921 -1 0 
1 37.101673464290087 24.037735285629367 0 -1 
1 31.647444285422665 1.1546376165605921 0 -1 
1 37.101673464290087 2.7919136766521717 -1 0 
1 31.647444285422665 -20.091183992416603 -1 0 
1 -28.197984128007448 2.7919136766521717 0 1 
1 -33.65221330687487 -20.091183992416603 0 1 
1 1.7184120419025817 -9.3731565921957838 0 1 
1 -33.65221330687487 -10.405588847147584 0 1 
1 -13.078614955871899 -10.924988943554041 0 1 
1 -33.65221330687487 8.3407243372440405 0 1 
1 -13.078614955871899 0.010360414007749341 1 0 
1 -33.65221330687487 19.276073694805831 1 0 
1 -6.0925517849272808 -1.7184120419026101 1 0 
1 3.2155359557620216 19.276073694805831 1 0 
1 -12.966199952537551 -1.7184120419026101 1 0 
1 15.400639525616583 19.276073694805831 1 0 
1 14.059734888293775 -1.7184120419025817 0 1 
1 14.059734888293775 1.7184120419025533 -1 0 
1 -14.05973488829369 1.7184120419025533 0 -1 
1 6.4830999762687611 -1.7184120419025533 0 1 
1 -16.246804759806068 -9.9980336983421978 1 0 
1 -14.840831270976722 1.7184120419025817 1 0 
1 -6.4830999762687895 1.7184120419025533 0 -1 
1 -1.7184120419025675 -6.7174288910736664 1 0 
1 1.7184120419025675 -6.7174288910736664 0 1 
1 -31.24025184626074 -26.404661195743529 0 1 
1 1.7184120419025675 -6.7174288910736664 0 1 
1 1.7184120419025675 6.7174288910736948 -1 0 
1 -1.7184120419025675 -6.7174288910736664 1 0 
1 1.7184120419025675 -6.7174288910736664 0 1 
1 -31.030961669080035 13.022874314240298 0 1 
1 1.7184120419025675 -6.7174288910736664 0 1 
1 1.7184120419025675 6.7174288910736806 -1 0 
1 19.36003177078544 -7.1972452404361036 -1 0 
1 -2.4995084245855566 -16.871681865952496 -1 0 
1 10.924190837809206 -7.1972452404361036 0 1 
1 -10.93534935756179 -16.871681865952496 0 1 
1 -41.397805531662264 23.803760886995988 1 0 
1 0.93731565921957838 16.871681865952453 1 0 
1 -31.399771833320052 23.803760886995988 0 -1 
1 10.93534935756179 16.871681865952453 0 -1 
1 -31.399771833320052 -9.9396028449089613 -1 0 
1 10.93534935756179 -16.871681865952496 -1 0 
1 4.9990168491711131 1.7184120419025675 -1 0 
1 7.4985252737566555 -16.871681865952496 -1 0 
1 4.9990168491711131 1.7184120419025675 -1 0 
1 -26.644224743116411 22.318336213945528 0 -1 
1 31.12792937483664 20.505018570348042 0 -1 
1 -1.7184120419025817 5.9363325083906915 0 -1 
1 31.12792937483664 17.068194486542922 0 -1 
1 25.124337339330907 30.967088210103356 0 -1 
1 31.12792937483664 5.1955294697615528 0 -1 
1 25.124337339330907 -11.836993560924213 -1 0 
1 31.12792937483664 -37.608552301266016 -1 0 
1 2.3163229649877337 -11.836993560924213 0 1 
1 8.3199150004934666 -37.608552301266016 0 1 
1 2.3163229649877337 -1.8389598625820156 -1 0 
1 8.3199150004934666 -27.610518602923818 -1 0 
1 -40.175320252966628 -1.8389598625820156 0 1 
1 -34.171728217460895 -27.610518602923818 0 1 
1 1.7184120419025533 -6.4830999762687753 0 1 
1 -34.171728217460924 -7.5363415679711068 0 1 
1 -28.197984128007448 -62.820182468718542 0 1 
1 -34.171728217460895 -27.610518602923818 0 1 
1 -28.197984128007448 -0.64491040715296322 1 0 
1 -34.171728217460895 34.564753458641761 1 0 
1 -1.7184120419025817 -9.3731565921957838 1 0 
1 1.7184120419025817 9.3731565921958406 -1 0 
1 -1.7184120419025817 9.3731565921958406 0 -1 
1 6.0925517849272808 -1.7184120419026101 0 1 
1 6.0925517849272808 1.7184120419025248 -1 0 
1 -6.0925517849272808 1.7184120419025248 0 -1 
1 23.745330033562752 -9.9980336983421978 0 1 
1 23.745330033562752 9.9980336983422262 -1 0 
1 -23.745330033562723 9.9980336983422262 0 -1 
1 -23.745330033562723 -9.9980336983421978 1 0 
1 13.434857782147361 -9.9980336983421978 1 0 
1 -4.2760576672202752 32.133810894806771 1 0 
1 10.314075712474036 24.522822955187081 1 0 
1 18.53195670712288 32.133810894806771 0 -1 
1 33.122090086817195 24.522822955187081 0 -1 
1 18.53195670712288 4.0143411182193347 -1 0 
1 33.122090086817195 -3.5966468214003555 -1 0 
1 8.84636156185387 4.0143411182193347 0 -1 
1 23.436494941548183 -3.5966468214003555 0 -1 
1 8.84636156185387 0.57751703441419977 1 0 
1 23.436494941548183 -7.0334709052054905 1 0 
1 9.3714319079907664 0.57751703441419977 0 -1 
1 23.961565287685076 -7.0334709052054905 0 -1 
1 9.3714319079907664 -18.793673256123839 -1 0 
1 23.961565287685076 -26.404661195743529 -1 0 
1 21.951546514142947 -20.075964045127137 0 1 
1 -31.24025184626074 -12.969803413596168 0 1 
1 1.7184120419025817 -6.2487710614638843 0 1 
1 -31.24025184626074 3.2770013462099143 0 1 
1 1.7184120419025817 -6.2487710614638843 0 1 
1 -0.84358409329762196 -8.4784461902135035 0 1 
1 -31.24025184626074 15.774543469137654 0 1 
1 -0.84358409329762196 0.26983329583592308 1 0 
1 -31.24025184626074 24.522822955187081 1 0 
1 -14.372173441366925 -1.7184120419025533 1 0 
1 -18.4302711702598 24.522822955187081 1 0 
1 -14.372173441366925 -1.7184120419025533 1 0 
1 -1.7184120419025675 12.185103569854576 0 -1 
1 23.645785118728888 26.457732096387645 0 -1 
1 -1.7184120419025675 12.185103569854576 0 -1 
1 26.713799038294006 16.305235613239333 0 -1 
1 23.645785118728888 2.0875249566785072 0 -1 
1 26.713799038294006 12.868411529434198 1 0 
1 23.645785118728888 -1.3492991271266277 1 0 
1 36.399394183563018 12.868411529434198 0 -1 
1 33.3313802639979 -1.3492991271266277 0 -1 
1 36.399394183563018 -9.9396028449089613 -1 0 
1 33.3313802639979 -24.157313501469787 -1 0 
1 -27.962947749514917 -9.9396028449089613 0 1 
1 -31.030961669080035 -24.157313501469787 0 1 
1 -49.26720930976019 -22.230497339928945 1 0 
1 -34.46778575288517 26.457732096387645 1 0 
1 4.9990168491711131 -1.7184120419025533 0 1 
1 -4.9990168491710989 1.7184120419025675 0 -1 
1 -4.9990168491710989 -1.7184120419025533 1 0 
1 -1.7184120419025817 -5.9363325083906773 1 0 
1 1.7184120419025533 -5.9363325083906773 0 1 
1 -13.747296335220511 10.466691527951994 0 1 
1 1.7184120419025533 -5.9363325083906773 0 1 
1 1.7184120419025533 5.9363325083906915 -1 0 
1 -1.7184120419025817 -6.4830999762687753 1 0 
1 1.7184120419025533 6.4830999762687753 -1 0 
1 -1.7184120419025817 6.4830999762687753 0 -1 
1 10.154252974878773 7.7328541885615465 0 -1 
1 -1.7184120419025533 -6.2487710614638843 1 0 
1 1.7184120419025817 6.2487710614638559 -1 0 
1 -1.7184120419025533 6.2487710614638559 0 -1 
1 10.93534935756179 7.3423059972200519 0 -1 
1 -1.7184120419025533 6.2487710614638559 0 -1 
1 14.372173441366911 -1.7184120419025533 0 1 
1 14.372173441366911 1.7184120419025817 -1 0 
1 -14.372173441366925 1.7184120419025817 0 -1 
1 -1.7184120419025675 -12.185103569854562 1 0 
1 1.7184120419025657 -12.185103569854562 0 1 
1 1.7184120419025657 12.185103569854576 -1 0 
1 0.46865782960978919 12.185103569854576 -1 0 
1 4.9990168491710847 1.7184120419025675 -1 0 
1 4.3741397430247275 -22.339356544733377 -1 0 
1 4.9990168491710847 1.7184120419025675 -1 0 
1 36.684563803039083 -1.8389598625820156 -1 0 
1 -5.6238939553174703 -22.339356544733377 -1 0 
1 28.561161423136042 -1.8389598625820156 0 1 
1 -13.747296335220511 -22.339356544733377 0 1 
1 -26.644224743116411 18.881512130140408 1 0 
1 -17.184120419025646 22.339356544733363 1 0 
1 4.2871920111297754 18.881512130140408 0 -1 
1 13.74729633522054 22.339356544733363 0 -1 
1 4.2871920111297754 -25.797200959326332 -1 0 
1 13.74729633522054 -22.339356544733377 -1 0 
1 10.154252974878773 -25.307522798928716 0 1 
1 10.154252974878773 -13.122419229074154 0 1 
1 10.154252974878773 7.7328541885615465 0 1 
1 10.154252974878773 15.621927653659696 0 1 
1 10.154252974878773 25.307522798928716 -1 0 
1 -10.15425297487883 25.307522798928716 0 -1 
1 -10.15425297487883 -25.307522798928716 1 0 
1 9.6291826287418871 -25.307522798928716 1 0 
1 18.514722430337812 -3.8291592853210545 0 -1 
1 10.93534935756179 -5.1552361257076882 0 -1 
1 18.514722430337812 -14.764508642882845 -1 0 
1 10.93534935756179 -16.090585483269479 -1 0 
1 -3.3559762847857684 -14.764508642882845 0 1 
1 -10.93534935756179 -16.090585483269479 0 1 
1 -3.3559762847857684 17.416662323656112 1 0 
1 -10.93534935756179 16.090585483269479 1 0 
1 -4.6865782960979061 -1.7184120419025533 1 0 
1 -4.3741397430247133 16.090585483269479 1 0 
1 -4.6865782960979061 -1.7184120419025533 1 0 
1 -10.216740685493448 0.26983329583592308 1 0 
1 4.9990168491710989 16.090585483269479 1 0 
1 -4.2804081771027569 0.26983329583592308 0 -1 
1 10.93534935756179 16.090585483269479 0 -1 
1 4.9990168491710847 -1.7184120419025533 0 1 
1 -4.9990168491711131 1.7184120419025675 0 -1 
1 -4.9990168491711131 -1.7184120419025533 1 0 
1 4.6865782960979061 -1.7184120419025533 0 1 
1 4.6865782960979061 1.7184120419025817 -1 0 
1 -4.6865782960979061 1.7184120419025817 0 -1 
Curves 145
1 132.99901684917111 77.072515849069404 0 0 1 0 
1 132.99901684917111 80.509339932874525 0 1 0 0 
1 148.93338305590399 80.509339932874525 0 0 -1 0 
1 148.93338305590399 77.072515849069404 0 -1 0 0 
1 64.887412279214828 117.68952774858461 0 1 0 0 
1 78.322270061362175 117.68952774858461 0 1 0 0 
1 90.194935078143544 117.68952774858461 0 1 0 0 
1 93.631759161948679 117.68952774858461 0 0 -1 0 
1 93.631759161948679 80.509339932874525 0 1 0 0 
1 148.93338305590399 80.509339932874525 0 1 0 0 
1 155.80703122351426 80.509339932874525 0 0 1 0 
1 155.80703122351426 128.62487710614639 0 1 0 0 
1 186.73844797776044 128.62487710614639 0 0 1 0 
1 186.73844797776044 142.6846119944401 0 0 1 0 
1 186.73844797776044 167.36725768722243 0 1 0 0 
1 187.26371832389736 167.36715768722243 0 0 1 0 
1 206.42207682137166 185.48869376546767 0 -1 0 0 
1 180.48967691629659 185.48869376546767 0 -1 0 0 
1 152.37020713970912 185.48869376546767 0 -1 0 0 
1 125.26616266060957 185.48869376546767 0 -1 0 0 
1 112.29996270807202 185.48869376546767 0 -1 0 0 
1 93.631759161948679 185.48869376546767 0 0 -1 0 
1 93.631759161948679 149.87069871512358 0 -1 0 0 
1 68.324236363019963 149.87069871512358 0 0 -1 0 
1 68.324236363019963 147.99606739668442 0 0 -1 0 
1 68.324236363019963 134.56120961453706 0 0 -1 0 
1 68.324236363019963 131.12438553073196 0 0 -1 0 
1 78.322270061362175 114.25270366477947 0 0 1 0 
1 90.194935078143544 117.68952774858461 0 0 -1 0 
1 90.194935078143544 114.25270366477947 0 -1 0 0 
1 190.17527206156558 128.62487710614639 0 -1 0 0 
1 186.73844797776044 142.6846119944401 0 1 0 0 
1 190.17527206156558 142.6846119944401 0 0 -1 0 
1 186.73844797776044 167.36725768722243 0 1 0 0 
1 190.17527206156558 167.36725768722243 0 0 -1 0 
1 190.17527206156558 146.12143607824524 0 1 0 0 
1 255.47492965386311 146.12143607824524 0 0 1 0 
1 255.47492965386311 155.80703122351426 0 0 1 0 
1 255.47492965386311 174.55334440790588 0 0 1 0 
1 255.47492965386311 185.48869376546767 0 -1 0 0 
1 218.60718039122622 185.48869376546767 0 -1 0 0 
1 206.42207682137166 185.48869376546767 0 -1 0 0 
1 152.37020713970912 185.48869376546767 0 0 1 0 
1 152.37020713970912 188.92551784927281 0 1 0 0 
1 180.48967691629659 188.92551784927281 0 0 -1 0 
1 112.29996270807202 185.48869376546767 0 0 1 0 
1 133.6238939553175 188.92551784927281 0 -1 0 0 
1 125.26616266060957 188.92551784927278 0 0 -1 0 
1 68.324236363019963 134.56120961453706 0 -1 0 0 
1 64.887412279214828 134.56120961453706 0 0 1 0 
1 64.887412279214828 147.99606739668442 0 1 0 0 
1 68.324236363019963 117.68952774858461 0 -1 0 0 
1 64.887412279214828 117.68952774858461 0 0 1 0 
1 64.887412279214828 131.12438553073196 0 1 0 0 
1 81.75909414516731 80.509339932874525 0 1 0 0 
1 90.194935078143544 80.509339932874525 0 0 1 0 
1 78.322270061362175 114.25270366477947 0 -1 0 0 
1 68.324236363019963 114.25270366477947 0 0 -1 0 
1 68.324236363019963 80.509339932874525 0 1 0 0 
1 71.761060446825098 80.509339932874525 0 1 0 0 
1 190.17527206156558 128.62487710614639 0 0 -1 0 
1 190.17527206156558 125.18805302234126 0 0 -1 0 
1 190.17527206156558 113.3153880055599 0 0 -1 0 
1 190.17527206156558 70.511306234532327 0 1 0 0 
1 212.98328643590875 70.511306234532327 0 0 1 0 
1 212.98328643590875 80.509339932874525 0 1 0 0 
1 255.47492965386311 80.509339932874525 0 0 1 0 
1 255.47492965386314 100.58351696782724 0 0 1 0 
1 255.47492965386311 142.6846119944401 0 -1 0 0 
1 258.91175373766828 155.80703122351426 0 -1 0 0 
1 255.47492965386311 174.55334440790588 0 1 0 0 
1 258.91175373766828 174.55334440790588 0 0 -1 0 
1 206.42207682137166 185.48869376546767 0 0 1 0 
1 206.42207682137166 188.92551784927281 0 1 0 0 
1 218.60718039122622 188.92551784927281 0 0 -1 0 
1 93.631759161948679 188.92551784927281 0 0 1 0 
1 93.631759161948679 208.92158524595723 0 1 0 0 
1 141.12241922907415 208.92158524595723 0 0 -1 0 
1 141.12241922907415 188.92551784927281 0 -1 0 0 
1 103.94223141336407 188.92551784927281 0 -1 0 0 
1 23.333084720480052 185.48869376546767 0 -1 0 0 
1 0.52507034613689585 185.48869376546767 0 0 -1 0 
1 0.52507034613689585 157.36922398888024 0 1 0 0 
1 10.210665491405907 157.36922398888024 0 0 -1 0 
1 10.210665491405907 153.9323999050751 0 -1 0 0 
1 9.6855951452690103 153.9323999050751 0 0 -1 0 
1 9.6855951452690103 134.56120961453706 0 1 0 0 
1 64.887412279214828 147.99606739668442 0 0 1 0 
1 64.887412279214828 164.24287215649051 0 0 1 0 
1 64.887412279214828 176.74041427941825 0 0 1 0 
1 64.887412279214828 185.48869376546767 0 -1 0 0 
1 52.077431603213888 185.48869376546767 0 -1 0 0 
1 10.210665491405907 131.12438553073196 0 0 -1 0 
1 10.210665491405907 106.75417839102282 0 0 -1 0 
1 10.210665491405907 103.31735430721768 0 -1 0 0 
1 0.52507034613689585 103.31735430721768 0 0 -1 0 
1 0.52507034613689585 80.509339932874525 0 1 0 0 
1 64.887412279214828 80.509339932874525 0 0 1 0 
1 68.324236363019963 131.12438553073196 0 -1 0 0 
1 71.761060446825098 77.072515849069404 0 0 1 0 
1 81.75909414516731 80.509339932874525 0 0 -1 0 
1 81.75909414516731 77.072515849069404 0 -1 0 0 
1 190.17527206156558 113.3153880055599 0 -1 0 0 
1 186.73844797776044 113.3153880055599 0 0 1 0 
1 186.73844797776044 125.18805302234126 0 1 0 0 
1 258.91175373766828 100.58351696782724 0 -1 0 0 
1 255.47492965386314 113.54971692036479 0 1 0 0 
1 258.91175373766828 113.54971692036479 0 0 -1 0 
1 68.324236363019963 164.24287215649051 0 -1 0 0 
1 64.887412279214828 176.74041427941825 0 1 0 0 
1 68.324236363019963 176.74041427941825 0 0 -1 0 
1 23.333084720480052 185.48869376546767 0 0 1 0 
1 23.333084720480052 188.92551784927281 0 1 0 0 
1 52.077431603213888 188.92551784927281 0 0 -1 0 
1 10.210665491405907 106.75417839102282 0 -1 0 0 
1 6.7738414076007736 106.75417839102282 0 0 1 0 
1 6.7738414076007736 131.12438553073196 0 1 0 0 
1 8.0235956198935501 131.12438553073196 0 1 0 0 
1 168.61701189951521 80.509339932874525 0 1 0 0 
1 178.6150455978574 80.509339932874525 0 1 0 0 
1 186.73844797776044 80.509339932874525 0 0 1 0 
1 190.17527206156558 125.18805302234126 0 -1 0 0 
1 159.24385530731939 125.18805302234126 0 0 -1 0 
1 159.24385530731939 80.509339932874525 0 1 0 0 
1 258.91175373766828 80.509339932874525 0 0 1 0 
1 258.91175373766828 92.694443502729087 0 0 1 0 
1 258.91175373766828 113.54971692036479 0 0 1 0 
1 258.91175373766828 121.43879038546294 0 0 1 0 
1 258.91175373766828 131.12438553073196 0 1 0 0 
1 279.22025968742588 131.12438553073196 0 0 -1 0 
1 279.22025968742588 80.509339932874525 0 -1 0 0 
1 259.43682408380516 80.509339932874525 0 -1 0 0 
1 68.324236363019963 164.24287215649051 0 0 -1 0 
1 68.324236363019963 153.30752279892872 0 1 0 0 
1 90.194935078143544 153.30752279892872 0 0 1 0 
1 90.194935078143544 185.48869376546767 0 -1 0 0 
1 83.633725463606467 185.48869376546767 0 -1 0 0 
1 74.260568871410655 185.48869376546767 0 -1 0 0 
1 68.324236363019963 185.48869376546767 0 0 -1 0 
1 168.61701189951521 77.072515849069404 0 0 1 0 
1 178.6150455978574 80.509339932874525 0 0 -1 0 
1 178.6150455978574 77.072515849069404 0 -1 0 0 
1 74.260568871410655 185.48869376546767 0 0 1 0 
1 74.260568871410655 188.92551784927281 0 1 0 0 
1 83.633725463606467 188.92551784927281 0 0 -1 0 
Polygon3D 0
PolygonOnTriangulations 0
Surfaces 63
1 140.96619995253758 78.790927890971957 0 -0 -0 -1 -1 0 0 0 1 -0 
1 156.2207455948257 141.86994227859915 0 -0 -0 -1 -1 0 0 0 1 -0 
1 36.924464529699911 90.448942777783486 0 -0 -0 -1 -1 0 0 0 1 -0 
1 84.258602569752853 115.97111570668204 0 -0 -0 -1 -1 0 0 0 1 -0 
1 101.11912591595275 87.706585173310629 0 -0 -0 -1 -1 0 0 0 1 -0 
1 163.53104731844917 106.30654089220086 0 -0 -0 -1 -1 0 0 0 1 -0 
1 188.456860019663 135.65474455029326 0 -0 -0 -1 -1 0 0 0 1 -0 
1 227.27694552585567 143.32952240159307 0 -0 -0 -1 -1 0 0 0 1 -0 
1 221.82271634698824 166.21262007066184 0 -0 -0 -1 -1 0 0 0 1 -0 
1 193.45587686883411 187.20710580737028 0 -0 -0 -1 -1 0 0 0 1 -0 
1 166.4299420280029 187.20710580737025 0 -0 -0 -1 -1 0 0 0 1 -0 
1 138.81818490015937 187.20710580737023 0 -0 -0 -1 -1 0 0 0 1 -0 
1 118.78306268434078 187.20710580737023 0 -0 -0 -1 -1 0 0 0 1 -0 
1 86.838958793357776 168.07203144181156 0 -0 -0 -1 -1 0 0 0 1 -0 
1 66.605824321117396 141.27863850561073 0 -0 -0 -1 -1 0 0 0 1 -0 
1 19.057027053259777 153.3548828706609 0 -0 -0 -1 -1 0 0 0 1 -0 
1 66.605824321117396 124.40695663965828 0 -0 -0 -1 -1 0 0 0 1 -0 
1 84.258602569752853 115.97111570668204 0 -0 -0 -1 -1 0 0 0 1 -0 
1 79.259585720581754 97.381021798827021 0 -0 -0 -1 -1 0 0 0 1 -0 
1 221.30320143640222 108.11985853579834 0 -0 -0 -1 -1 0 0 0 1 -0 
1 227.27694552585567 143.32952240159307 0 -0 -0 -1 -1 0 0 0 1 -0 
1 257.1933416957657 165.18018781571004 0 -0 -0 -1 -1 0 0 0 1 -0 
1 242.39631469799122 185.47833335145992 0 -0 -0 -1 -1 0 0 0 1 -0 
1 212.51462860629894 187.20710580737028 0 -0 -0 -1 -1 0 0 0 1 -0 
1 193.45587686883411 187.20710580737028 0 -0 -0 -1 -1 0 0 0 1 -0 
1 117.37708919551143 198.92355154761501 0 -0 -0 -1 -1 0 0 0 1 -0 
1 66.605824321117396 141.27863850561073 0 -0 -0 -1 -1 0 0 0 1 -0 
1 33.647160432954088 160.96587081028059 0 -0 -0 -1 -1 0 0 0 1 -0 
1 66.605824321117396 124.40695663965828 0 -0 -0 -1 -1 0 0 0 1 -0 
1 33.856450610134793 104.66665343434431 0 -0 -0 -1 -1 0 0 0 1 -0 
1 101.11912591595275 87.706585173310629 0 -0 -0 -1 -1 0 0 0 1 -0 
1 36.924464529699911 90.448942777783486 0 -0 -0 -1 -1 0 0 0 1 -0 
1 76.760077295996211 78.790927890971957 0 -0 -0 -1 -1 0 0 0 1 -0 
1 76.760077295996211 78.790927890971957 0 -0 -0 -1 -1 0 0 0 1 -0 
1 163.53104731844917 106.30654089220086 0 -0 -0 -1 -1 0 0 0 1 -0 
1 188.456860019663 119.25172051395057 0 -0 -0 -1 -1 0 0 0 1 -0 
1 215.29960940089649 82.348299795456541 0 -0 -0 -1 -1 0 0 0 1 -0 
1 257.1933416957657 107.06661694409601 0 -0 -0 -1 -1 0 0 0 1 -0 
1 227.27694552585567 143.32952240159307 0 -0 -0 -1 -1 0 0 0 1 -0 
1 19.057027053259777 153.3548828706609 0 -0 -0 -1 -1 0 0 0 1 -0 
1 86.838958793357776 168.07203144181156 0 -0 -0 -1 -1 0 0 0 1 -0 
1 66.60582432111741 170.49164321795439 0 -0 -0 -1 -1 0 0 0 1 -0 
1 66.60582432111741 170.49164321795439 0 -0 -0 -1 -1 0 0 0 1 -0 
1 64.043828185917206 185.21886046963175 0 -0 -0 -1 -1 0 0 0 1 -0 
1 37.705258161846963 187.20710580737023 0 -0 -0 -1 -1 0 0 0 1 -0 
1 37.705258161846963 187.20710580737023 0 -0 -0 -1 -1 0 0 0 1 -0 
1 8.4922534495033393 118.93928196087738 0 -0 -0 -1 -1 0 0 0 1 -0 
1 8.4922534495033393 118.93928196087738 0 -0 -0 -1 -1 0 0 0 1 -0 
1 36.924464529699911 90.448942777783486 0 -0 -0 -1 -1 0 0 0 1 -0 
1 19.057027053259777 153.3548828706609 0 -0 -0 -1 -1 0 0 0 1 -0 
1 188.456860019663 119.25172051395057 0 -0 -0 -1 -1 0 0 0 1 -0 
1 172.99115164253993 102.8486964776079 0 -0 -0 -1 -1 0 0 0 1 -0 
1 269.06600671254705 105.81686273180324 0 -0 -0 -1 -1 0 0 0 1 -0 
1 66.60582432111741 170.49164321795439 0 -0 -0 -1 -1 0 0 0 1 -0 
1 79.259585720581754 169.39810828219819 0 -0 -0 -1 -1 0 0 0 1 -0 
1 173.61602874868629 78.790927890971957 0 -0 -0 -1 -1 0 0 0 1 -0 
1 173.61602874868629 78.790927890971957 0 -0 -0 -1 -1 0 0 0 1 -0 
1 215.29960940089649 82.348299795456541 0 -0 -0 -1 -1 0 0 0 1 -0 
1 163.53104731844917 106.30654089220086 0 -0 -0 -1 -1 0 0 0 1 -0 
1 86.838958793357776 168.07203144181156 0 -0 -0 -1 -1 0 0 0 1 -0 
1 78.947147167508561 187.20710580737023 0 -0 -0 -1 -1 0 0 0 1 -0 
1 78.947147167508561 187.20710580737023 0 -0 -0 -1 -1 0 0 0 1 -0 
1 64.043828185917206 185.21886046963175 0 -0 -0 -1 -1 0 0 0 1 -0 
Triangulations 0

TShapes 325
Ve
1e-07
132.999016849171 77.0725158490694 0
0 0

0101101
*
Ve
1e-07
132.999016849171 80.5093399328745 0
0 0

0101101
*
Ed
 1e-07 1 1 0
1  1 0 0 3.43682408380512
2  1 1 0 0 3.43682408380512
0

0101000
+325 0 -324 0 *
Ve
1e-07
148.933383055904 80.5093399328745 0
0 0

0101101
*
Ed
 1e-07 1 1 0
1  2 0 0 15.9343662067329
2  2 1 0 0 15.9343662067329
2  3 2 0 0 15.9343662067329
0

0101000
+324 0 -322 0 *
Ve
1e-07
148.933383055904 77.0725158490694 0
0 0

0101101
*
Ed
 1e-07 1 1 0
1  3 0 0 3.43682408380512
2  4 1 0 0 3.43682408380512
0

0101000
+322 0 -320 0 *
Ed
 1e-07 1 1 0
1  4 0 0 15.9343662067329
2  5 1 0 0 15.9343662067329
0

0101000
+320 0 -325 0 *
Wi

0101100
+323 0 +321 0 +319 0 +318 0 *
Fa
0  1e-07 1 0

0111000
+317 0 *
Ve
1.00000383693077e-07
68.32423636302 117.689527748585 0
0 0

0101101
*
Ve
1e-07
78.3222700613622 117.689527748585 0
0 0

0101101
*
Ed
 1e-07 1 1 0
1  5 0 3.43682408380518 13.4348577821473
2  6 3 0 3.43682408380518 13.4348577821473
2  7 2 0 3.43682408380518 13.4348577821473
0

0101000
+315 0 -314 0 *
Ve
1e-07
90.1949350781435 117.689527748585 0
0 0

0101101
*
Ed
 1e-07 1 1 0
1  6 0 0 11.8726650167814
2  8 4 0 0 11.8726650167814
2  9 2 0 0 11.8726650167814
0

0101000
+314 0 -312 0 *
Ve
1e-07
93.6317591619487 117.689527748585 0
0 0

0101101
*
Ed
 1e-07 1 1 0
1  7 0 0 3.43682408380513
2  10 5 0 0 3.43682408380513
2  11 2 0 0 3.43682408380513
0

0101000
+312 0 -310 0 *
Ve
1e-07
93.6317591619487 80.5093399328745 0
0 0

0101101
*
Ed
 1e-07 1 1 0
1  8 0 0 37.1801878157101
2  12 5 0 0 37.1801878157101
2  13 2 0 0 37.1801878157101
0

0101000
+310 0 -308 0 *
Ed
 1e-07 1 1 0
1  9 0 0 39.3672576872224
2  14 5 0 0 39.3672576872224
2  15 2 0 0 39.3672576872224
0

0101000
+308 0 -324 0 *
Ve
1e-07
155.807031223514 80.5093399328745 0
0 0

0101101
*
Ed
 1e-07 1 1 0
1  10 0 0 6.87364816761027
2  16 6 0 0 6.87364816761027
2  17 2 0 0 6.87364816761027
0

0101000
+322 0 -305 0 *
Ve
1e-07
155.807031223514 128.624877106146 0
0 0

0101101
*
Ed
 1e-07 1 1 0
1  11 0 0 48.1155371732719
2  18 6 0 0 48.1155371732719
2  19 2 0 0 48.1155371732719
0

0101000
+305 0 -303 0 *
Ve
1.00000397903932e-07
186.73844797776 128.624877106146 0
0 0

0101101
*
Ed
 1e-07 1 1 0
1  12 0 0 30.9314167542457
2  20 6 0 0 30.9314167542457
2  21 2 0 0 30.9314167542457
0

0101000
+303 0 -301 0 *
Ve
1e-07
186.73844797776 142.68461199444 0
0 0

0101101
*
Ed
 1e-07 1 1 0
1  13 0 0 14.0597348882937
2  22 7 0 0 14.0597348882937
2  23 2 0 0 14.0597348882937
0

0101000
+301 0 -299 0 *
Ve
1e-07
186.73844797776 167.367257687222 0
0 0

0101101
*
Ed
 1e-07 1 1 0
1  14 0 0 24.6826456927823
2  24 8 0 0 24.6826456927823
2  25 2 0 0 24.6826456927823
0

0101000
+299 0 -297 0 *
Ve
1e-07
187.263718323897 167.367257687222 0
0 0

0101101
*
Ed
 1e-07 1 1 0
1  15 0 0 0.525270346136921
2  26 8 0 0 0.525270346136921
2  27 2 0 0 0.525270346136921
0

0101000
+297 0 -295 0 *
Ve
1e-07
187.263718323897 185.488693765468 0
0 0

0101101
*
Ed
 1e-07 1 1 0
1  16 0 0.00010000000000332 18.1215360782452
2  28 9 0 0.00010000000000332 18.1215360782452
2  29 2 0 0.00010000000000332 18.1215360782452
0

0101000
+295 0 -293 0 *
Ve
1e-07
180.489676916297 185.488693765468 0
0 0

0101101
*
Ed
 1e-07 1 1 0
1  17 0 19.1583584974743 25.9323999050751
2  30 10 0 19.1583584974743 25.9323999050751
2  31 2 0 19.1583584974743 25.9323999050751
0

0101000
+293 0 -291 0 *
Ve
1e-07
152.370207139709 185.488693765468 0
0 0

0101101
*
Ed
 1e-07 1 1 0
1  18 0 0 28.1194697765875
2  32 11 0 0 28.1194697765875
2  33 2 0 0 28.1194697765875
0

0101000
+291 0 -289 0 *
Ve
1e-07
125.26616266061 185.488693765468 0
0 0

0101101
*
Ed
 1e-07 1 1 0
1  19 0 0 27.1040444790996
2  34 12 0 0 27.1040444790996
2  35 2 0 0 27.1040444790996
0

0101000
+289 0 -287 0 *
Ve
1e-07
112.299962708072 185.488693765468 0
0 0

0101101
*
Ed
 1e-07 1 1 0
1  20 0 0 12.9661999525376
2  36 13 0 0 12.9661999525376
2  37 2 0 0 12.9661999525376
0

0101000
+287 0 -285 0 *
Ve
1e-07
93.6317591619487 185.488693765468 0
0 0

0101101
*
Ed
 1e-07 1 1 0
1  21 0 0 18.6682035461233
2  38 14 0 0 18.6682035461233
2  39 2 0 0 18.6682035461233
0

0101000
+285 0 -283 0 *
Ve
1e-07
93.6317591619487 149.870698715124 0
0 0

0101101
*
Ed
 1e-07 1 1 0
1  22 0 0 35.6179950503441
2  40 14 0 0 35.6179950503441
2  41 2 0 0 35.6179950503441
0

0101000
+283 0 -281 0 *
Ve
1e-07
68.32423636302 149.870698715124 0
0 0

0101101
*
Ed
 1e-07 1 1 0
1  23 0 0 25.3075227989287
2  42 14 0 0 25.3075227989287
2  43 2 0 0 25.3075227989287
0

0101000
+281 0 -279 0 *
Ve
1e-07
68.32423636302 147.996067396684 0
0 0

0101101
*
Ed
 1e-07 1 1 0
1  24 0 0 1.87463131843916
2  44 14 0 0 1.87463131843916
2  45 2 0 0 1.87463131843916
0

0101000
+279 0 -277 0 *
Ve
1e-07
68.32423636302 134.561209614537 0
0 0

0101101
*
Ed
 1e-07 1 1 0
1  25 0 0 13.4348577821474
2  46 15 0 0 13.4348577821474
2  47 2 0 0 13.4348577821474
0

0101000
+277 0 -275 0 *
Ve
1e-07
68.32423636302 131.124385530732 0
0 0

0101101
*
Ed
 1e-07 1 1 0
1  26 0 0 3.43682408380511
2  48 16 0 0 3.43682408380511
2  49 2 0 0 3.43682408380511
0

0101000
+275 0 -273 0 *
Ed
 1e-07 1 1 0
1  27 0 0 13.4348577821473
2  50 17 0 0 13.4348577821473
2  51 2 0 0 13.4348577821473
0

0101000
+273 0 -315 0 *
Wi

0101100
-313 0 -311 0 -309 0 -307 0 -306 0 -321 0 -304 0 -302 0 -300 0 -298 0 
-296 0 -294 0 -292 0 -290 0 -288 0 -286 0 -284 0 -282 0 -280 0 -278 0 
-276 0 -274 0 -272 0 -271 0 *
Fa
0  1e-07 2 0

0101000
+270 0 *
Ve
1e-07
78.3222700613622 114.252703664779 0
0 0

0101101
*
Ed
 1e-07 1 1 0
1  28 0 0 3.43682408380513
2  52 4 0 0 3.43682408380513
0

0101000
+268 0 -314 0 *
Ve
1.00000042632564e-07
90.1949350781435 114.252703664779 0
0 0

0101101
*
Ed
 1e-07 1 1 0
1  29 0 0 3.43682408380513
2  53 4 0 0 3.43682408380513
0

0101000
+312 0 -266 0 *
Ed
 1e-07 1 1 0
1  30 0 0 11.8726650167814
2  54 18 0 0 11.8726650167814
2  55 19 0 0 11.8726650167814
2  56 4 0 0 11.8726650167814
0

0101000
+266 0 -268 0 *
Wi

0101100
+267 0 +311 0 +265 0 +264 0 *
Fa
0  1e-07 4 0

0111000
+263 0 *
Ve
1e-07
190.175272061566 128.624877106146 0
0 0

0101101
*
Ed
 1e-07 1 1 0
1  31 0 0 3.43682408380513
2  57 7 0 0 3.43682408380513
0

0101000
+261 0 -301 0 *
Ve
1.00000113686838e-07
190.175272061566 142.68461199444 0
0 0

0101101
*
Ed
 1e-07 1 1 0
1  32 0 0 3.43682408380513
2  58 7 0 0 3.43682408380513
0

0101000
+299 0 -259 0 *
Ed
 1e-07 1 1 0
1  33 0 0 14.0597348882937
2  59 7 0 0 14.0597348882937
2  60 20 0 0 14.0597348882937
0

0101000
+259 0 -261 0 *
Wi

0101100
+260 0 +298 0 +258 0 +257 0 *
Fa
0  1e-07 7 0

0111000
+256 0 *
Ve
1e-07
190.175272061566 167.367257687222 0
0 0

0101101
*
Ed
 1e-07 1 1 0
1  34 0 0.525270346136921 3.43682408380513
2  61 21 0 0.525270346136921 3.43682408380513
2  62 9 0 0.525270346136921 3.43682408380513
0

0101000
+295 0 -254 0 *
Ve
1e-07
190.175272061566 146.121436078245 0
0 0

0101101
*
Ed
 1e-07 1 1 0
1  35 0 0 21.2458216089772
2  63 21 0 0 21.2458216089772
2  64 9 0 0 21.2458216089772
0

0101000
+254 0 -252 0 *
Ve
1e-07
255.474929653863 146.121436078245 0
0 0

0101101
*
Ed
 1e-07 1 1 0
1  36 0 0 65.2996575922975
2  65 21 0 0 65.2996575922975
2  66 9 0 0 65.2996575922975
0

0101000
+252 0 -250 0 *
Ve
1e-07
255.474929653863 155.807031223514 0
0 0

0101101
*
Ed
 1e-07 1 1 0
1  37 0 0 9.68559514526902
2  67 21 0 0 9.68559514526902
2  68 9 0 0 9.68559514526902
0

0101000
+250 0 -248 0 *
Ve
1e-07
255.474929653863 174.553344407906 0
0 0

0101101
*
Ed
 1e-07 1 1 0
1  38 0 0 18.7463131843916
2  69 22 0 0 18.7463131843916
2  70 9 0 0 18.7463131843916
0

0101000
+248 0 -246 0 *
Ve
1e-07
255.474929653863 185.488693765468 0
0 0

0101101
*
Ed
 1e-07 1 1 0
1  39 0 0 10.9353493575618
2  71 23 0 0 10.9353493575618
2  72 9 0 0 10.9353493575618
0

0101000
+246 0 -244 0 *
Ve
1e-07
218.607180391226 185.488693765468 0
0 0

0101101
*
Ed
 1e-07 1 1 0
1  40 0 0 36.8677492626369
2  73 23 0 0 36.8677492626369
2  74 9 0 0 36.8677492626369
0

0101000
+244 0 -242 0 *
Ve
1e-07
206.422076821372 185.488693765468 0
0 0

0101101
*
Ed
 1e-07 1 1 0
1  41 0 0 12.1851035698546
2  75 24 0 0 12.1851035698546
2  76 9 0 0 12.1851035698546
0

0101000
+242 0 -240 0 *
Ed
 1e-07 1 1 0
1  42 0 0 19.1583584974743
2  77 25 0 0 19.1583584974743
2  78 9 0 0 19.1583584974743
0

0101000
+240 0 -293 0 *
Wi

0101100
-253 0 -251 0 -249 0 -247 0 -245 0 -243 0 -241 0 -239 0 -238 0 +292 0 
*
Fa
0  1e-07 9 0

0101000
+237 0 *
Ve
1e-07
152.370207139709 188.925517849273 0
0 0

0101101
*
Ed
 1e-07 1 1 0
1  43 0 0 3.43682408380513
2  79 11 0 0 3.43682408380513
0

0101000
+289 0 -235 0 *
Ve
1e-07
180.489676916297 188.925517849273 0
0 0

0101101
*
Ed
 1e-07 1 1 0
1  44 0 0 28.1194697765875
2  80 11 0 0 28.1194697765875
0

0101000
+235 0 -233 0 *
Ed
 1e-07 1 1 0
1  45 0 0 3.43682408380513
2  81 11 0 0 3.43682408380513
0

0101000
+233 0 -291 0 *
Wi

0101100
+234 0 +232 0 +231 0 +288 0 *
Fa
0  1e-07 11 0

0111000
+230 0 *
Ve
1.00000213162821e-07
112.299962708072 188.925517849273 0
0 0

0101101
*
Ed
 1e-07 1 1 0
1  46 0 0 3.43682408380511
2  82 13 0 0 3.43682408380511
0

0101000
+285 0 -228 0 *
Ve
1.00000198951966e-07
125.26616266061 188.925517849273 0
0 0

0101101
*
Ed
 1.00000028421709e-07 1 1 0
1  47 0 8.35773129470751 21.3239312472455
2  83 26 0 8.35773129470751 21.3239312472455
2  84 13 0 8.35773129470751 21.3239312472455
0

0101000
+226 0 -228 0 *
Ed
 1e-07 1 1 0
1  48 0 0 3.43682408380511
2  85 13 0 0 3.43682408380511
0

0101000
+226 0 -287 0 *
Wi

0101100
+284 0 +227 0 -225 0 +224 0 *
Fa
0  1e-07 13 0

0111000
+223 0 *
Ve
1.00000056843419e-07
64.8874122792148 134.561209614537 0
0 0

0101101
*
Ed
 1e-07 1 1 0
1  49 0 0 3.43682408380513
2  86 15 0 0 3.43682408380513
0

0101000
+275 0 -221 0 *
Ve
1e-07
64.8874122792148 147.996067396684 0
0 0

0101101
*
Ed
 1e-07 1 1 0
1  50 0 0 13.4348577821474
2  87 27 0 0 13.4348577821474
2  88 28 0 0 13.4348577821474
2  89 15 0 0 13.4348577821474
0

0101000
+221 0 -219 0 *
Ed
 1e-07 1 1 0
1  51 0 0 3.43682408380513
2  90 15 0 0 3.43682408380513
0

0101000
+219 0 -277 0 *
Wi

0101100
+220 0 +218 0 +217 0 +274 0 *
Fa
0  1e-07 15 0

0111000
+216 0 *
Ve
1e-07
64.8874122792148 117.689527748585 0
0 0

0101101
*
Ed
 1e-07 1 1 0
1  52 0 0 3.43682408380513
2  91 17 0 0 3.43682408380513
0

0101000
+315 0 -214 0 *
Ve
1.00000056843419e-07
64.8874122792148 131.124385530732 0
0 0

0101101
*
Ed
 1e-07 1 1 0
1  53 0 0 13.4348577821473
2  92 29 0 0 13.4348577821473
2  93 30 0 0 13.4348577821473
2  94 17 0 0 13.4348577821473
0

0101000
+214 0 -212 0 *
Ed
 1e-07 1 1 0
1  54 0 0 3.43682408380513
2  95 17 0 0 3.43682408380513
0

0101000
+212 0 -273 0 *
Wi

0101100
+213 0 +211 0 +210 0 +271 0 *
Fa
0  1e-07 17 0

0111000
+209 0 *
Ve
1e-07
81.7590941451673 80.5093399328745 0
0 0

0101101
*
Ve
1e-07
90.1949350781435 80.5093399328745 0
0 0

0101101
*
Ed
 1e-07 1 1 0
1  55 0 0 8.43584093297623
2  96 31 0 0 8.43584093297623
2  97 19 0 0 8.43584093297623
0

0101000
+207 0 -206 0 *
Ed
 1e-07 1 1 0
1  56 0 0 33.7433637319045
2  98 31 0 0 33.7433637319045
2  99 19 0 0 33.7433637319045
0

0101000
+206 0 -266 0 *
Ve
1e-07
68.32423636302 114.252703664779 0
0 0

0101101
*
Ed
 1e-07 1 1 0
1  57 0 0 9.99803369834221
2  100 32 0 0 9.99803369834221
2  101 19 0 0 9.99803369834221
0

0101000
+268 0 -203 0 *
Ve
1e-07
68.32423636302 80.5093399328745 0
0 0

0101101
*
Ed
 1e-07 1 1 0
1  58 0 0 33.7433637319049
2  102 32 0 0 33.7433637319049
2  103 19 0 0 33.7433637319049
0

0101000
+203 0 -201 0 *
Ve
1e-07
71.7610604468251 80.5093399328745 0
0 0

0101101
*
Ed
 1e-07 1 1 0
1  59 0 0 3.43682408380513
2  104 32 0 0 3.43682408380513
2  105 19 0 0 3.43682408380513
0

0101000
+201 0 -199 0 *
Ed
 1e-07 1 1 0
1  60 0 0 9.99803369834221
2  106 33 0 0 9.99803369834221
2  107 19 0 0 9.99803369834221
2  108 34 0 0 9.99803369834221
0

0101000
+199 0 -207 0 *
Wi

0101100
-205 0 -204 0 -264 0 -202 0 -200 0 -198 0 -197 0 *
Fa
0  1e-07 19 0

0101000
+196 0 *
Ve
1e-07
190.175272061566 125.188053022341 0
0 0

0101101
*
Ed
 1e-07 1 1 0
1  61 0 0 3.43682408380512
2  109 35 0 0 3.43682408380512
2  110 20 0 0 3.43682408380512
0

0101000
+261 0 -194 0 *
Ve
1e-07
190.175272061566 113.31538800556 0
0 0

0101101
*
Ed
 1e-07 1 1 0
1  62 0 0 11.8726650167814
2  111 36 0 0 11.8726650167814
2  112 20 0 0 11.8726650167814
0

0101000
+194 0 -192 0 *
Ve
1e-07
190.175272061566 70.5113062345323 0
0 0

0101101
*
Ed
 1e-07 1 1 0
1  63 0 0 42.8040817710276
2  113 37 0 0 42.8040817710276
2  114 20 0 0 42.8040817710276
0

0101000
+192 0 -190 0 *
Ve
1e-07
212.983286435909 70.5113062345323 0
0 0

0101101
*
Ed
 1e-07 1 1 0
1  64 0 0 22.8080143743432
2  115 37 0 0 22.8080143743432
2  116 20 0 0 22.8080143743432
0

0101000
+190 0 -188 0 *
Ve
1e-07
212.983286435909 80.5093399328745 0
0 0

0101101
*
Ed
 1e-07 1 1 0
1  65 0 0 9.9980336983422
2  117 37 0 0 9.9980336983422
2  118 20 0 0 9.9980336983422
0

0101000
+188 0 -186 0 *
Ve
1e-07
255.474929653863 80.5093399328745 0
0 0

0101101
*
Ed
 1e-07 1 1 0
1  66 0 0 42.4916432179544
2  119 37 0 0 42.4916432179544
2  120 20 0 0 42.4916432179544
0

0101000
+186 0 -184 0 *
Ve
1.00000056843419e-07
255.474929653863 100.583516967827 0
0 0

0101101
*
Ed
 1e-07 1 1 0
1  67 0 0 20.0741770349527
2  121 37 0 0 20.0741770349527
2  122 20 0 0 20.0741770349527
0

0101000
+184 0 -182 0 *
Ve
1.00000056843419e-07
255.474929653863 113.549716920365 0
0 0

0101101
*
Ed
 1e-07 1 1 0
1  68 0 0 12.9661999525376
2  123 38 0 0 12.9661999525376
2  124 20 0 0 12.9661999525376
0

0101000
+182 0 -180 0 *
Ve
1e-07
255.474929653863 142.68461199444 0
0 0

0101101
*
Ed
 1e-07 1 1 0
1  67 0 33.0403769874903 62.1752720615656
2  125 39 0 33.0403769874903 62.1752720615656
2  126 20 0 33.0403769874903 62.1752720615656
0

0101000
+180 0 -178 0 *
Ed
 1e-07 1 1 0
1  69 0 0 65.2996575922971
2  127 39 0 0 65.2996575922971
2  128 20 0 0 65.2996575922971
0

0101000
+178 0 -259 0 *
Wi

0101100
-257 0 -193 0 -191 0 -189 0 -187 0 -185 0 -183 0 -181 0 -179 0 -177 0 
-176 0 *
Fa
0  1e-07 20 0

0101000
+175 0 *
Ve
1e-07
258.911753737668 155.807031223514 0
0 0

0101101
*
Ed
 1e-07 1 1 0
1  70 0 0 3.43682408380516
2  129 22 0 0 3.43682408380516
0

0101000
+173 0 -248 0 *
Ve
1e-07
258.911753737668 174.553344407906 0
0 0

0101101
*
Ed
 1e-07 1 1 0
1  71 0 0 3.43682408380516
2  130 22 0 0 3.43682408380516
0

0101000
+246 0 -171 0 *
Ed
 1e-07 1 1 0
1  72 0 0 18.7463131843916
2  131 22 0 0 18.7463131843916
0

0101000
+171 0 -173 0 *
Wi

0101100
+172 0 +245 0 +170 0 +169 0 *
Fa
0  1e-07 22 0

0111000
+168 0 *
Ve
1e-07
206.422076821372 188.925517849273 0
0 0

0101101
*
Ed
 1e-07 1 1 0
1  73 0 0 3.43682408380513
2  132 24 0 0 3.43682408380513
0

0101000
+240 0 -166 0 *
Ve
1e-07
218.607180391226 188.925517849273 0
0 0

0101101
*
Ed
 1e-07 1 1 0
1  74 0 0 12.1851035698546
2  133 24 0 0 12.1851035698546
0

0101000
+166 0 -164 0 *
Ed
 1e-07 1 1 0
1  75 0 0 3.43682408380513
2  134 24 0 0 3.43682408380513
0

0101000
+164 0 -242 0 *
Wi

0101100
+165 0 +163 0 +162 0 +239 0 *
Fa
0  1e-07 24 0

0111000
+161 0 *
Ve
1e-07
93.6317591619487 188.925517849273 0
0 0

0101101
*
Ve
1e-07
93.6317591619487 208.921585245957 0
0 0

0101101
*
Ed
 1e-07 1 1 0
1  76 0 0 19.9960673966844
2  135 26 0 0 19.9960673966844
0

0101000
+159 0 -158 0 *
Ve
1e-07
141.122419229074 208.921585245957 0
0 0

0101101
*
Ed
 1e-07 1 1 0
1  77 0 0 47.4906600671255
2  136 26 0 0 47.4906600671255
0

0101000
+158 0 -156 0 *
Ve
1e-07
141.122419229074 188.925517849273 0
0 0

0101101
*
Ed
 1e-07 1 1 0
1  78 0 0 19.9960673966844
2  137 26 0 0 19.9960673966844
0

0101000
+156 0 -154 0 *
Ve
1e-07
133.623893955317 188.925517849273 0
0 0

0101101
*
Ed
 1e-07 1 1 0
1  79 0 0 7.49852527375666
2  138 26 0 0 7.49852527375666
0

0101000
+154 0 -152 0 *
Ed
 1e-07 1 1 0
1  47 0 0 8.35773129470751
2  83 26 0 0 8.35773129470751
0

0101000
+152 0 -226 0 *
Ve
1e-07
103.942231413364 188.925517849273 0
0 0

0101101
*
Ed
 1e-07 1 1 0
1  47 0 21.3239312472455 29.6816625419534
2  83 26 0 21.3239312472455 29.6816625419534
0

0101000
+228 0 -149 0 *
Ed
 1e-07 1 1 0
1  80 0 0 10.3104722514154
2  139 26 0 0 10.3104722514154
0

0101000
+149 0 -159 0 *
Wi

0101100
+157 0 +155 0 +153 0 +151 0 +150 0 +225 0 +148 0 +147 0 *
Fa
0  1e-07 26 0

0111000
+146 0 *
Ve
1e-07
23.3330847204801 185.488693765468 0
0 0

0101101
*
Ve
1e-07
0.525070346136896 185.488693765468 0
0 0

0101101
*
Ed
 1e-07 1 1 0
1  81 0 0 22.8080143743432
2  140 40 0 0 22.8080143743432
2  141 28 0 0 22.8080143743432
0

0101000
+144 0 -143 0 *
Ve
1e-07
0.525070346136896 157.36922398888 0
0 0

0101101
*
Ed
 1e-07 1 1 0
1  82 0 0 28.1194697765874
2  142 40 0 0 28.1194697765874
2  143 28 0 0 28.1194697765874
0

0101000
+143 0 -141 0 *
Ve
1e-07
10.2106654914059 157.36922398888 0
0 0

0101101
*
Ed
 1e-07 1 1 0
1  83 0 0 9.68559514526901
2  144 40 0 0 9.68559514526901
2  145 28 0 0 9.68559514526901
0

0101000
+141 0 -139 0 *
Ve
1e-07
10.2106654914059 153.932399905075 0
0 0

0101101
*
Ed
 1e-07 1 1 0
1  84 0 0 3.43682408380513
2  146 40 0 0 3.43682408380513
2  147 28 0 0 3.43682408380513
0

0101000
+139 0 -137 0 *
Ve
1.00000001776357e-07
9.68559514526901 153.932399905075 0
0 0

0101101
*
Ed
 1e-07 1 1 0
1  85 0 0 0.525070346136896
2  148 40 0 0 0.525070346136896
2  149 28 0 0 0.525070346136896
0

0101000
+137 0 -135 0 *
Ve
1.00000001776357e-07
9.68559514526901 134.561209614537 0
0 0

0101101
*
Ed
 1.00000001776357e-07 1 1 0
1  86 0 0 19.371190290538
2  150 40 0 0 19.371190290538
2  151 28 0 0 19.371190290538
0

0101000
+135 0 -133 0 *
Ed
 1e-07 1 1 0
1  87 0 0 55.2018171339458
2  152 40 0 0 55.2018171339458
2  153 28 0 0 55.2018171339458
0

0101000
+133 0 -221 0 *
Ve
1e-07
64.8874122792148 164.242872156491 0
0 0

0101101
*
Ed
 1e-07 1 1 0
1  88 0 0 16.2468047598061
2  154 41 0 0 16.2468047598061
2  155 28 0 0 16.2468047598061
0

0101000
+219 0 -130 0 *
Ve
1e-07
64.8874122792148 176.740414279418 0
0 0

0101101
*
Ed
 1e-07 1 1 0
1  89 0 0 12.4975421229277
2  156 42 0 0 12.4975421229277
2  157 28 0 0 12.4975421229277
2  158 43 0 0 12.4975421229277
0

0101000
+130 0 -128 0 *
Ve
1e-07
64.8874122792148 185.488693765468 0
0 0

0101101
*
Ed
 1e-07 1 1 0
1  90 0 0 8.74827948604943
2  159 44 0 0 8.74827948604943
2  160 28 0 0 8.74827948604943
0

0101000
+128 0 -126 0 *
Ve
1e-07
52.0774316032139 185.488693765468 0
0 0

0101101
*
Ed
 1e-07 1 1 0
1  91 0 0 12.8099806760009
2  161 44 0 0 12.8099806760009
2  162 28 0 0 12.8099806760009
0

0101000
+126 0 -124 0 *
Ed
 1e-07 1 1 0
1  92 0 0 28.7443468827338
2  163 45 0 0 28.7443468827338
2  164 28 0 0 28.7443468827338
2  165 46 0 0 28.7443468827338
0

0101000
+124 0 -144 0 *
Wi

0101100
-142 0 -140 0 -138 0 -136 0 -134 0 -132 0 -131 0 -218 0 -129 0 -127 0 
-125 0 -123 0 -122 0 *
Fa
0  1e-07 28 0

0101000
+121 0 *
Ve
1.00000056871168e-07
10.2106654914059 131.124385530732 0
0 0

0101101
*
Ve
1e-07
10.2106654914059 106.754178391023 0
0 0

0101101
*
Ed
 1e-07 1 1 0
1  93 0 0 24.3702071397091
2  166 47 0 0 24.3702071397091
2  167 30 0 0 24.3702071397091
2  168 48 0 0 24.3702071397091
0

0101000
+119 0 -118 0 *
Ve
1e-07
10.2106654914059 103.317354307218 0
0 0

0101101
*
Ed
 1e-07 1 1 0
1  94 0 0 3.43682408380513
2  169 49 0 0 3.43682408380513
2  170 30 0 0 3.43682408380513
0

0101000
+118 0 -116 0 *
Ve
1e-07
0.525070346136896 103.317354307218 0
0 0

0101101
*
Ed
 1e-07 1 1 0
1  95 0 0 9.68559514526901
2  171 49 0 0 9.68559514526901
2  172 30 0 0 9.68559514526901
0

0101000
+116 0 -114 0 *
Ve
1e-07
0.525070346136896 80.5093399328745 0
0 0

0101101
*
Ed
 1e-07 1 1 0
1  96 0 0 22.8080143743432
2  173 49 0 0 22.8080143743432
2  174 30 0 0 22.8080143743432
0

0101000
+114 0 -112 0 *
Ve
1e-07
64.8874122792148 80.5093399328745 0
0 0

0101101
*
Ed
 1e-07 1 1 0
1  97 0 0 64.3623419330779
2  175 49 0 0 64.3623419330779
2  176 30 0 0 64.3623419330779
0

0101000
+112 0 -110 0 *
Ed
 1e-07 1 1 0
1  98 0 0 37.1801878157101
2  177 49 0 0 37.1801878157101
2  178 30 0 0 37.1801878157101
0

0101000
+110 0 -214 0 *
Ed
 1e-07 1 1 0
1  99 0 3.43682408380516 58.1135708716141
2  179 50 0 3.43682408380516 58.1135708716141
2  180 30 0 3.43682408380516 58.1135708716141
0

0101000
+212 0 -119 0 *
Wi

0101100
-117 0 -115 0 -113 0 -111 0 -109 0 -108 0 -211 0 -107 0 *
Fa
0  1e-07 30 0

0101000
+106 0 *
Ve
1e-07
71.7610604468251 77.0725158490694 0
0 0

0101101
*
Ed
 1e-07 1 1 0
1  100 0 0 3.43682408380512
2  181 34 0 0 3.43682408380512
0

0101000
+104 0 -199 0 *
Ve
1e-07
81.7590941451673 77.0725158490694 0
0 0

0101101
*
Ed
 1e-07 1 1 0
1  101 0 0 3.43682408380512
2  182 34 0 0 3.43682408380512
0

0101000
+207 0 -102 0 *
Ed
 1e-07 1 1 0
1  102 0 0 9.99803369834221
2  183 34 0 0 9.99803369834221
0

0101000
+102 0 -104 0 *
Wi

0101100
+103 0 +197 0 +101 0 +100 0 *
Fa
0  1e-07 34 0

0111000
+99 0 *
Ve
1e-07
186.73844797776 113.31538800556 0
0 0

0101101
*
Ed
 1e-07 1 1 0
1  103 0 0 3.43682408380513
2  184 36 0 0 3.43682408380513
0

0101000
+192 0 -97 0 *
Ve
1.0000027000624e-07
186.73844797776 125.188053022341 0
0 0

0101101
*
Ed
 1e-07 1 1 0
1  104 0 0 11.8726650167814
2  185 51 0 0 11.8726650167814
2  186 52 0 0 11.8726650167814
2  187 36 0 0 11.8726650167814
0

0101000
+97 0 -95 0 *
Ed
 1e-07 1 1 0
1  105 0 0 3.43682408380513
2  188 36 0 0 3.43682408380513
0

0101000
+95 0 -194 0 *
Wi

0101100
+96 0 +94 0 +93 0 +191 0 *
Fa
0  1e-07 36 0

0111000
+92 0 *
Ve
1.00000241166202e-07
258.911753737668 100.583516967827 0
0 0

0101101
*
Ed
 1e-07 1 1 0
1  106 0 0 3.43682408380513
2  189 38 0 0 3.43682408380513
0

0101000
+90 0 -182 0 *
Ve
1.00000221980647e-07
258.911753737668 113.549716920365 0
0 0

0101101
*
Ed
 1e-07 1 1 0
1  107 0 0 3.43682408380513
2  190 38 0 0 3.43682408380513
0

0101000
+180 0 -88 0 *
Ed
 1e-07 1 1 0
1  108 0 0 12.9661999525376
2  191 38 0 0 12.9661999525376
2  192 53 0 0 12.9661999525376
0

0101000
+88 0 -90 0 *
Wi

0101100
+89 0 +179 0 +87 0 +86 0 *
Fa
0  1e-07 38 0

0111000
+85 0 *
Ve
1e-07
68.32423636302 164.242872156491 0
0 0

0101101
*
Ed
 1e-07 1 1 0
1  109 0 0 3.43682408380513
2  193 43 0 0 3.43682408380513
0

0101000
+83 0 -130 0 *
Ve
1e-07
68.32423636302 176.740414279418 0
0 0

0101101
*
Ed
 1e-07 1 1 0
1  110 0 0 3.43682408380513
2  194 43 0 0 3.43682408380513
0

0101000
+128 0 -81 0 *
Ed
 1e-07 1 1 0
1  111 0 0 12.4975421229277
2  195 54 0 0 12.4975421229277
2  196 55 0 0 12.4975421229277
2  197 43 0 0 12.4975421229277
0

0101000
+81 0 -83 0 *
Wi

0101100
+82 0 +127 0 +80 0 +79 0 *
Fa
0  1e-07 43 0

0111000
+78 0 *
Ve
1e-07
23.3330847204801 188.925517849273 0
0 0

0101101
*
Ed
 1e-07 1 1 0
1  112 0 0 3.43682408380513
2  198 46 0 0 3.43682408380513
0

0101000
+144 0 -76 0 *
Ve
1e-07
52.0774316032139 188.925517849273 0
0 0

0101101
*
Ed
 1e-07 1 1 0
1  113 0 0 28.7443468827338
2  199 46 0 0 28.7443468827338
0

0101000
+76 0 -74 0 *
Ed
 1e-07 1 1 0
1  114 0 0 3.43682408380513
2  200 46 0 0 3.43682408380513
0

0101000
+74 0 -124 0 *
Wi

0101100
+75 0 +73 0 +72 0 +122 0 *
Fa
0  1e-07 46 0

0111000
+71 0 *
Ve
1e-07
6.77384140760077 106.754178391023 0
0 0

0101101
*
Ed
 1e-07 1 1 0
1  115 0 0 3.43682408380513
2  201 48 0 0 3.43682408380513
0

0101000
+118 0 -69 0 *
Ve
1e-07
6.77384140760077 131.124385530732 0
0 0

0101101
*
Ed
 1e-07 1 1 0
1  116 0 0 24.3702071397091
2  202 48 0 0 24.3702071397091
0

0101000
+69 0 -67 0 *
Ve
1e-07
8.02359561989355 131.124385530732 0
0 0

0101101
*
Ed
 1e-07 1 1 0
1  117 0 0 1.24975421229278
2  203 48 0 0 1.24975421229278
0

0101000
+67 0 -65 0 *
Ed
 1e-07 1 1 0
1  118 0 0 2.18706987151236
2  204 48 0 0 2.18706987151236
0

0101000
+65 0 -119 0 *
Wi

0101100
+68 0 +66 0 +64 0 +63 0 +117 0 *
Fa
0  1e-07 48 0

0111000
+62 0 *
Ve
1e-07
168.617011899515 80.5093399328745 0
0 0

0101101
*
Ve
1e-07
178.615045597857 80.5093399328745 0
0 0

0101101
*
Ed
 1e-07 1 1 0
1  119 0 0 9.9980336983422
2  205 56 0 0 9.9980336983422
2  206 52 0 0 9.9980336983422
2  207 57 0 0 9.9980336983422
0

0101000
+60 0 -59 0 *
Ve
1e-07
186.73844797776 80.5093399328745 0
0 0

0101101
*
Ed
 1e-07 1 1 0
1  120 0 0 8.12340237990304
2  208 58 0 0 8.12340237990304
2  209 52 0 0 8.12340237990304
0

0101000
+59 0 -57 0 *
Ed
 1e-07 1 1 0
1  121 0 0 32.8060480726854
2  210 58 0 0 32.8060480726854
2  211 52 0 0 32.8060480726854
0

0101000
+57 0 -97 0 *
Ve
1e-07
159.243855307319 125.188053022341 0
0 0

0101101
*
Ed
 1e-07 1 1 0
1  122 0 3.43682408380559 30.9314167542462
2  212 59 0 3.43682408380559 30.9314167542462
2  213 52 0 3.43682408380559 30.9314167542462
0

0101000
+95 0 -54 0 *
Ve
1e-07
159.243855307319 80.5093399328745 0
0 0

0101101
*
Ed
 1e-07 1 1 0
1  123 0 0 44.6787130894667
2  214 59 0 0 44.6787130894667
2  215 52 0 0 44.6787130894667
0

0101000
+54 0 -52 0 *
Ed
 1e-07 1 1 0
1  124 0 0 9.37315659219581
2  216 59 0 0 9.37315659219581
2  217 52 0 0 9.37315659219581
0

0101000
+52 0 -60 0 *
Wi

0101100
-58 0 -56 0 -55 0 -94 0 -53 0 -51 0 -50 0 *
Fa
0  1e-07 52 0

0101000
+49 0 *
Ve
1.00000142817322e-07
258.911753737668 80.5093399328745 0
0 0

0101101
*
Ve
1e-07
258.911753737668 92.6944435027291 0
0 0

0101101
*
Ed
 1e-07 1 1 0
1  125 0 0 12.1851035698546
2  218 53 0 0 12.1851035698546
0

0101000
+47 0 -46 0 *
Ed
 1e-07 1 1 0
1  126 0 0 7.88907346509815
2  219 53 0 0 7.88907346509815
0

0101000
+46 0 -90 0 *
Ve
1e-07
258.911753737668 121.438790385463 0
0 0

0101101
*
Ed
 1e-07 1 1 0
1  127 0 0 7.88907346509815
2  220 53 0 0 7.88907346509815
0

0101000
+88 0 -43 0 *
Ve
1e-07
258.911753737668 131.124385530732 0
0 0

0101101
*
Ed
 1e-07 1 1 0
1  128 0 0 9.68559514526902
2  221 53 0 0 9.68559514526902
0

0101000
+43 0 -41 0 *
Ve
1e-07
279.220259687426 131.124385530732 0
0 0

0101101
*
Ed
 1e-07 1 1 0
1  129 0 0 20.3085059497576
2  222 53 0 0 20.3085059497576
0

0101000
+41 0 -39 0 *
Ve
1e-07
279.220259687426 80.5093399328745 0
0 0

0101101
*
Ed
 1e-07 1 1 0
1  130 0 0 50.6150455978574
2  223 53 0 0 50.6150455978574
0

0101000
+39 0 -37 0 *
Ve
1.00000086441255e-07
259.436824083805 80.5093399328745 0
0 0

0101101
*
Ed
 1e-07 1 1 0
1  131 0 0 19.7834356036207
2  224 53 0 0 19.7834356036207
0

0101000
+37 0 -35 0 *
Ed
 1e-07 1 1 0
1  132 0 0 0.525070346136886
2  225 53 0 0 0.525070346136886
0

0101000
+35 0 -47 0 *
Wi

0101100
+45 0 +44 0 -86 0 +42 0 +40 0 +38 0 +36 0 +34 0 +33 0 *
Fa
0  1e-07 53 0

0111000
+32 0 *
Ve
1e-07
68.32423636302 153.307522798929 0
0 0

0101101
*
Ed
 1e-07 1 1 0
1  133 0 0 10.9353493575618
2  226 60 0 0 10.9353493575618
2  227 55 0 0 10.9353493575618
0

0101000
+83 0 -30 0 *
Ve
1e-07
90.1949350781435 153.307522798929 0
0 0

0101101
*
Ed
 1e-07 1 1 0
1  134 0 0 21.8706987151236
2  228 60 0 0 21.8706987151236
2  229 55 0 0 21.8706987151236
0

0101000
+30 0 -28 0 *
Ve
1e-07
90.1949350781435 185.488693765468 0
0 0

0101101
*
Ed
 1e-07 1 1 0
1  135 0 0 32.181170966539
2  230 60 0 0 32.181170966539
2  231 55 0 0 32.181170966539
0

0101000
+28 0 -26 0 *
Ve
1e-07
83.6337254636065 185.488693765468 0
0 0

0101101
*
Ed
 1e-07 1 1 0
1  136 0 0 6.56120961453708
2  232 60 0 0 6.56120961453708
2  233 55 0 0 6.56120961453708
0

0101000
+26 0 -24 0 *
Ve
1e-07
74.2605688714107 185.488693765468 0
0 0

0101101
*
Ed
 1e-07 1 1 0
1  137 0 0 9.37315659219581
2  234 61 0 0 9.37315659219581
2  235 55 0 0 9.37315659219581
2  236 62 0 0 9.37315659219581
0

0101000
+24 0 -22 0 *
Ve
1e-07
68.32423636302 185.488693765468 0
0 0

0101101
*
Ed
 1e-07 1 1 0
1  138 0 0 5.93633250839069
2  237 63 0 0 5.93633250839069
2  238 55 0 0 5.93633250839069
0

0101000
+22 0 -20 0 *
Ed
 1e-07 1 1 0
1  139 0 0 8.74827948604943
2  239 63 0 0 8.74827948604943
2  240 55 0 0 8.74827948604943
0

0101000
+20 0 -81 0 *
Wi

0101100
-29 0 -27 0 -25 0 -23 0 -21 0 -19 0 -18 0 -79 0 *
Fa
0  1e-07 55 0

0101000
+17 0 *
Ve
1e-07
168.617011899515 77.0725158490694 0
0 0

0101101
*
Ed
 1e-07 1 1 0
1  140 0 0 3.43682408380512
2  241 57 0 0 3.43682408380512
0

0101000
+15 0 -60 0 *
Ve
1e-07
178.615045597857 77.0725158490694 0
0 0

0101101
*
Ed
 1e-07 1 1 0
1  141 0 0 3.43682408380512
2  242 57 0 0 3.43682408380512
0

0101000
+59 0 -13 0 *
Ed
 1e-07 1 1 0
1  142 0 0 9.9980336983422
2  243 57 0 0 9.9980336983422
0

0101000
+13 0 -15 0 *
Wi

0101100
+14 0 +58 0 +12 0 +11 0 *
Fa
0  1e-07 57 0

0111000
+10 0 *
Ve
1e-07
74.2605688714107 188.925517849273 0
0 0

0101101
*
Ed
 1e-07 1 1 0
1  143 0 0 3.43682408380513
2  244 62 0 0 3.43682408380513
0

0101000
+22 0 -8 0 *
Ve
1e-07
83.6337254636065 188.925517849273 0
0 0

0101101
*
Ed
 1e-07 1 1 0
1  144 0 0 9.37315659219581
2  245 62 0 0 9.37315659219581
0

0101000
+8 0 -6 0 *
Ed
 1e-07 1 1 0
1  145 0 0 3.43682408380513
2  246 62 0 0 3.43682408380513
0

0101000
+6 0 -24 0 *
Wi

0101100
+7 0 +5 0 +4 0 +21 0 *
Fa
0  1e-07 62 0

0111000
+3 0 *
Sh

0101000
+316 0 +269 0 +262 0 +255 0 +236 0 +229 0 +222 0 +215 0 +208 0 +195 0 
+174 0 +167 0 +160 0 +145 0 +120 0 +105 0 +98 0 +91 0 +84 0 +77 0 
+70 0 +61 0 +48 0 +31 0 +16 0 +9 0 +2 0 *

+1 0 