
CASCADE Topology V3, (c) Open Cascade
Locations 0
Curve2ds 168
1 -11.919463087248324 -2.5771812080537018 1 0 
1 8.1268740377572897 43.240967997488831 1 0 
1 11.919463087248324 -2.5771812080537018 0 1 
1 11.919463087248324 2.5771812080536733 -1 0 
1 12.563758389261736 -19.328859060402664 -1 0 
1 -11.919463087248324 2.5771812080536733 0 -1 
1 23.768425476163983 59.134364146489176 1 0 
1 31.965800212253939 43.240967997488831 1 0 
1 31.822116751331766 59.134364146489176 0 -1 
1 40.019491487421718 43.240967997488831 0 -1 
1 31.822116751331766 13.174632602865021 1 0 
1 40.019491487421718 -2.7187635461353281 1 0 
1 46.855673798311635 13.174632602865021 0 -1 
1 55.05304853440159 -2.7187635461353281 0 -1 
1 46.855673798311635 -23.764964712571224 -1 0 
1 55.05304853440159 -39.658360861571573 -1 0 
1 -59.667816134574267 -23.764964712571224 0 1 
1 -51.470441398484311 -39.658360861571573 0 1 
1 2.5771812080536876 -12.241610738255034 0 1 
1 -51.470441398484311 18.757746520978763 0 1 
1 2.5771812080536876 -12.241610738255034 0 1 
1 -39.195069331300445 -23.382769564979128 1 0 
1 -56.624803814591701 43.240967997488831 1 0 
1 25.771812080536904 19.328859060402706 -1 0 
1 -25.771812080536918 19.328859060402706 0 -1 
1 -25.771812080536918 -19.32885906040265 1 0 
1 25.771812080536904 -19.32885906040265 0 1 
1 -2.5771812080537018 -12.241610738255034 1 0 
1 2.5771812080536876 12.241610738255034 -1 0 
1 -2.5771812080537018 12.241610738255034 0 -1 
1 73.409400698259148 31.659317618411968 0 -1 
1 -2.5771812080537018 12.241610738255034 0 -1 
1 74.286253698182264 -17.994589429817996 -1 0 
1 45.919467812353105 -51.240011240648435 -1 0 
1 18.017797322343341 -17.994589429817996 0 1 
1 -10.348988563485818 -51.240011240648435 0 1 
1 18.017797322343341 35.267155536624955 -1 0 
1 -10.348988563485818 2.0217337257945189 -1 0 
1 -11.208248966170373 21.780222987539496 0 -1 
1 26.720487625025271 35.205458946839748 0 -1 
1 -5.7986577181208361 -2.5771812080536733 1 0 
1 -21.946303999727434 21.780122987539478 1 0 
1 5.7986577181207792 -2.5771812080536733 0 1 
1 -10.348988563485818 21.780122987539478 0 1 
1 2.5771812080536733 -27.489932885906057 0 1 
1 -10.348988563485818 26.934485403646867 0 1 
1 -18.734064275193106 -63.214660894986054 1 0 
1 -15.503350979593193 81.914351175458961 1 0 
1 -12.456375838926192 -2.5771812080537018 1 0 
1 48.496649020406807 81.914351175458961 1 0 
1 -12.456375838926192 -2.5771812080537018 1 0 
1 -23.181929710615591 15.503500036082897 0 -1 
1 73.409400698259148 146.34388137680122 0 -1 
1 -2.5771812080536733 10.308724832214764 0 -1 
1 73.409400698259148 57.431129698948872 0 -1 
1 -39.195069331300445 -18.228407148871753 0 -1 
1 73.409400698259148 36.813680034519344 0 -1 
1 -64.822178550681656 34.651142669979109 0 -1 
1 73.409400698259148 7.1760961419019011 0 -1 
1 13.744966442953043 2.5771812080536911 -1 0 
1 73.409400698259148 -51.240011240648435 -1 0 
1 18.017797322343341 35.267155536624955 -1 0 
1 27.579748027709826 15.446969685094771 -1 0 
1 12.863434906235966 35.267155536624955 0 -1 
1 22.425385611602451 15.446969685094771 0 -1 
1 12.863434906235966 -17.994589429817996 -1 0 
1 22.425385611602451 -37.814775281348183 -1 0 
1 -34.384887241415043 -17.994589429817996 0 1 
1 -24.822936536048559 -37.814775281348183 0 1 
1 -20.402684563758413 -2.5771812080537018 1 0 
1 -24.822936536048559 35.205358946839731 1 0 
1 -9.2348993288590862 -2.5771812080537018 1 0 
1 -13.655151301149232 35.205358946839731 1 0 
1 0.64429530201340413 -2.5771812080537018 1 0 
1 -3.7759566702767415 35.205358946839731 1 0 
1 -5.7986577181208361 -2.5771812080536733 1 0 
1 15.982432591468211 35.205358946839731 1 0 
1 -2.5771812080537018 -27.489932885906057 1 0 
1 2.5771812080536733 27.489932885906029 -1 0 
1 -2.5771812080537018 27.489932885906029 0 -1 
1 12.456375838926149 -2.5771812080537018 0 1 
1 12.456375838926149 2.5771812080536733 -1 0 
1 43.897895767413488 -55.967876044667065 -1 0 
1 12.456375838926149 2.5771812080536733 -1 0 
1 -12.456375838926192 2.5771812080536733 0 -1 
1 -2.5771812080536733 -10.308724832214764 1 0 
1 2.577181208053716 -10.308724832214764 0 1 
1 -19.973154362416111 -27.704697986577187 0 1 
1 2.577181208053716 10.308724832214764 -1 0 
1 13.744966442953043 -2.5771812080536911 0 1 
1 -13.744966442953 2.5771812080536911 0 -1 
1 -13.744966442953 -2.5771812080536911 1 0 
1 0.64429530201340413 2.5771812080536876 -1 0 
1 -9.2348993288590862 2.5771812080536876 -1 0 
1 -20.402684563758413 2.5771812080536876 0 -1 
1 20.402684563758356 -2.5771812080537018 0 1 
1 20.402684563758356 2.5771812080536876 -1 0 
1 -10.881195657948354 3.2254431478104095 1 0 
1 33.267023284192021 43.683130666742329 1 0 
1 -0.25032317472688703 3.2254431478104095 0 -1 
1 43.897895767413488 43.683130666742329 0 -1 
1 -2.5771812080537018 11.597315436241615 0 -1 
1 43.897895767413488 26.50192261305105 0 -1 
1 -23.181929710615591 15.503500036082897 0 -1 
1 43.897895767413488 3.3072917405678197 0 -1 
1 45.265935724806894 -58.060298478878678 -1 0 
1 18.985144089561146 -55.967876044667065 -1 0 
1 -13.579701859085731 -58.060298478878678 0 1 
1 -39.860493494331479 -55.967876044667065 0 1 
1 -13.579701859085731 57.912855883537418 1 0 
1 -39.860493494331479 60.005278317749031 1 0 
1 19.92365384561225 57.912855883537418 0 -1 
1 -6.357137789633498 60.005278317749031 0 -1 
1 19.92365384561225 41.590708232530716 1 0 
1 -6.357137789633498 43.683130666742329 1 0 
1 -11.919463087248317 -2.5771812080536733 1 0 
1 9.4280971096953863 43.683130666742329 1 0 
1 -7.4098344319715892 37.180988824282608 1 0 
1 6.657718120805356 27.704697986577173 1 0 
1 5.9056018096391512 37.180988824282608 0 -1 
1 19.973154362416096 27.704697986577173 0 -1 
1 5.9056018096391512 -18.228407148871753 -1 0 
1 19.973154362416096 -27.704697986577187 -1 0 
1 -18.027567294508202 -73.409251641769444 0 1 
1 -19.973154362416111 -7.0872483221476585 0 1 
1 -18.027567294508202 -38.617305333044612 1 0 
1 -19.973154362416111 27.704697986577173 1 0 
1 -6.657718120805356 -2.5771812080537018 1 0 
1 -6.6577181208053702 27.704697986577173 1 0 
1 -2.5771812080537018 -11.597315436241615 1 0 
1 2.5771812080536876 -11.597315436241615 0 1 
1 -19.973154362416111 -11.597315436241615 0 1 
1 2.5771812080536876 11.597315436241615 -1 0 
1 11.919463087248317 -2.5771812080536733 0 1 
1 11.919463087248317 2.5771812080537302 -1 0 
1 6.8146618482189467 -21.212183789365014 -1 0 
1 -11.919463087248317 2.5771812080537018 0 -1 
1 6.6577181208053702 -2.5771812080537018 0 1 
1 6.6577181208053702 2.5771812080536733 -1 0 
1 -6.657718120805356 2.5771812080536733 0 -1 
1 -1.7054196435015001 55.879338962257407 1 0 
1 -3.6510067114094085 28.778523489932894 1 0 
1 21.918741430324005 55.879338962257407 0 -1 
1 19.973154362416096 28.778523489932894 0 -1 
1 21.918741430324005 -1.677708017608353 -1 0 
1 19.973154362416096 -28.778523489932866 -1 0 
1 -18.027567294508202 -1.677708017608353 0 1 
1 -19.973154362416111 -28.778523489932866 0 1 
1 4.9040392413805023 -13.955764905880869 0 1 
1 -19.973154362416111 11.597315436241615 0 1 
1 4.9040392413805023 3.2254431478104095 1 0 
1 -19.973154362416111 28.778523489932894 1 0 
1 -6.8724832214765001 -2.5771812080537018 1 0 
1 -17.395973154362423 28.778523489932894 1 0 
1 -6.8724832214765001 -2.5771812080537018 1 0 
1 62.546205472380024 -21.212183789365042 0 1 
1 62.546205472380024 17.445534331440342 -1 0 
1 -66.312854930304553 17.445534331440342 0 -1 
1 -66.312854930304553 -4.8900361383583117 1 0 
1 -27.655136809499169 -4.8900361383583117 0 -1 
1 -27.655136809499169 -21.212183789365042 1 0 
1 6.8146618482189467 -21.212183789365042 1 0 
1 17.445534331440413 -21.212183789365042 1 0 
1 25.17707795560149 -21.212183789365042 1 0 
1 -6.8724832214765001 2.5771812080536733 1 0 
1 38.922044398554505 -21.212183789365042 1 0 
1 -6.8724832214765001 2.5771812080536733 0 -1 
1 6.8724832214765144 -2.5771812080537018 0 1 
Curves 102
1 51.006711409395976 83.758389261744966 0 -1 0 0 
1 27.167785234899327 83.758389261744966 0 0 1 0 
1 27.167785234899327 88.912751677852341 0 1 0 0 
1 51.006711409395976 88.912751677852341 0 0 -1 0 
1 27.167785234899327 83.758389261744966 0 -1 0 0 
1 19.114093959731544 83.758389261744966 0 0 -1 0 
1 19.114093959731544 37.798657718120808 0 -1 0 0 
1 4.0805369127516782 37.798657718120808 0 0 -1 0 
1 4.0805369127516782 0.85906040268456374 0 1 0 0 
1 110.60402684563758 0.85906040268456374 0 0 1 0 
1 110.60402684563758 59.275167785234899 0 0 1 0 
1 115.75838926174497 83.758389261744966 0 -1 0 0 
1 13.959731543624159 127.57046979865771 0 1 0 0 
1 65.503355704697981 127.57046979865771 0 0 -1 0 
1 65.503355704697981 88.912751677852356 0 -1 0 0 
1 13.959731543624159 88.912751677852356 0 0 1 0 
1 115.75838926174497 59.275167785234899 0 -1 0 0 
1 110.60402684563758 83.758389261744966 0 1 0 0 
1 115.75838926174497 83.758389261744966 0 0 -1 0 
1 143.24832214765101 0.85906040268456374 0 1 0 0 
1 199.51677852348993 0.85906040268456374 0 0 1 0 
1 199.51677852348993 54.120805369127517 0 1 0 0 
1 200.37603892617449 73.879294630872494 0 0 -1 0 
1 211.11409395973155 73.879194630872476 0 -1 0 0 
1 199.51677852348993 73.879194630872476 0 0 1 0 
1 199.51677852348993 79.033557046979865 0 0 1 0 
1 204.67114093959731 134.01342281879195 0 -1 0 0 
1 140.67114093959731 134.01342281879195 0 -1 0 0 
1 115.75838926174497 198.44295302013421 0 0 -1 0 
1 115.75838926174497 109.53020134228187 0 0 -1 0 
1 115.75838926174497 88.912751677852341 0 0 -1 0 
1 115.75838926174497 59.275167785234899 0 0 -1 0 
1 115.75838926174497 0.85906040268456374 0 1 0 0 
1 199.51677852348993 54.120805369127517 0 1 0 0 
1 204.67114093959731 54.120805369127517 0 0 -1 0 
1 204.67114093959731 0.85906040268456374 0 1 0 0 
1 251.91946308724832 0.85906040268456374 0 0 1 0 
1 251.91946308724832 73.879194630872476 0 -1 0 0 
1 240.75167785234899 73.879194630872476 0 -1 0 0 
1 230.8724832214765 73.879194630872476 0 -1 0 0 
1 211.11409395973155 73.879194630872476 0 -1 0 0 
1 204.67114093959731 79.033557046979865 0 -1 0 0 
1 199.51677852348993 134.01342281879195 0 1 0 0 
1 204.67114093959731 134.01342281879195 0 0 -1 0 
1 115.75838926174497 134.01342281879195 0 0 1 0 
1 115.75838926174497 139.16778523489933 0 1 0 0 
1 140.67114093959731 139.16778523489933 0 0 -1 0 
1 115.75838926174497 88.912751677852341 0 -1 0 0 
1 110.60402684563758 88.912751677852341 0 0 1 0 
1 110.60402684563758 109.53020134228187 0 1 0 0 
1 115.75838926174497 -4.2953020134228188 0 0 1 0 
1 143.24832214765101 0.85906040268456374 0 0 -1 0 
1 143.24832214765101 -4.2953020134228188 0 -1 0 0 
1 230.8724832214765 79.033557046979865 0 1 0 0 
1 240.75167785234899 79.033557046979865 0 1 0 0 
1 251.91946308724832 79.033557046979865 0 0 -1 0 
1 211.11409395973155 73.879194630872476 0 0 1 0 
1 211.11409395973155 79.033557046979865 0 1 0 0 
1 126.38926174496643 238.81879194630872 0 -1 0 0 
1 115.75838926174497 238.81879194630872 0 0 -1 0 
1 115.75838926174497 221.63758389261744 0 0 -1 0 
1 115.75838926174497 198.44295302013421 0 0 -1 0 
1 140.67114093959731 139.16778523489933 0 1 0 0 
1 199.51677852348993 139.16778523489933 0 0 1 0 
1 199.51677852348993 255.14093959731542 0 -1 0 0 
1 166.01342281879195 255.14093959731542 0 0 -1 0 
1 166.01342281879195 238.81879194630872 0 -1 0 0 
1 150.22818791946307 238.81879194630872 0 -1 0 0 
1 83.973154362416111 144.3221476510067 0 -1 0 0 
1 70.65771812080537 144.3221476510067 0 0 -1 0 
1 70.65771812080537 88.912751677852341 0 1 0 0 
1 110.60402684563758 109.53020134228187 0 0 1 0 
1 110.60402684563758 144.3221476510067 0 -1 0 0 
1 97.288590604026837 144.3221476510067 0 -1 0 0 
1 115.75838926174497 198.44295302013421 0 -1 0 0 
1 110.60402684563758 198.44295302013421 0 0 1 0 
1 110.60402684563758 221.63758389261744 0 1 0 0 
1 126.38926174496643 238.81879194630872 0 0 1 0 
1 126.38926174496643 243.97315436241612 0 1 0 0 
1 150.22818791946307 243.9731543624161 0 0 -1 0 
1 83.973154362416111 144.3221476510067 0 0 1 0 
1 83.973154362416111 149.47651006711408 0 1 0 0 
1 97.288590604026837 149.47651006711408 0 0 -1 0 
1 94.281879194630875 238.81879194630872 0 -1 0 0 
1 70.65771812080537 238.81879194630872 0 0 -1 0 
1 70.65771812080537 181.26174496644296 0 1 0 0 
1 110.60402684563758 181.26174496644296 0 0 1 0 
1 110.60402684563758 221.63758389261744 0 0 1 0 
1 110.60402684563758 238.81879194630872 0 -1 0 0 
1 108.02684563758389 238.81879194630872 0 -1 0 0 
1 70.657718120805356 243.9731543624161 0 0 1 0 
1 70.657718120805356 282.63087248322148 0 1 0 0 
1 199.51677852348993 282.63087248322148 0 0 -1 0 
1 199.51677852348993 260.29530201342283 0 -1 0 0 
1 160.85906040268455 260.29530201342283 0 0 -1 0 
1 160.85906040268455 243.9731543624161 0 -1 0 0 
1 126.38926174496643 243.9731543624161 0 -1 0 0 
1 115.75838926174497 243.9731543624161 0 -1 0 0 
1 108.02684563758389 243.9731543624161 0 -1 0 0 
1 94.281879194630875 243.9731543624161 0 -1 0 0 
1 108.02684563758389 243.9731543624161 0 0 -1 0 
1 94.281879194630875 238.81879194630872 0 0 1 0 
Polygon3D 0
PolygonOnTriangulations 0
Surfaces 41
1 39.087248322147651 86.335570469798668 0 -0 -0 -1 -1 0 0 0 1 -0 
1 59.133585447153266 40.517421264256136 0 -0 -0 -1 -1 0 0 0 1 -0 
1 39.731543624161063 108.24161073825501 0 -0 -0 -1 -1 0 0 0 1 -0 
1 50.93621071106331 24.624025115255787 0 -0 -0 -1 -1 0 0 0 1 -0 
1 113.18120805369126 71.516778523489933 0 -0 -0 -1 -1 0 0 0 1 -0 
1 113.18120805369126 71.516778523489933 0 -0 -0 -1 -1 0 0 0 1 -0 
1 76.563319930444521 107.14115882672409 0 -0 -0 -1 -1 0 0 0 1 -0 
1 113.18120805369126 71.516778523489933 0 -0 -0 -1 -1 0 0 0 1 -0 
1 189.16778996000411 52.099071643332998 0 -0 -0 -1 -1 0 0 0 1 -0 
1 217.53457584583327 18.853649832502558 0 -0 -0 -1 -1 0 0 0 1 -0 
1 227.09652655119976 38.673835684032746 0 -0 -0 -1 -1 0 0 0 1 -0 
1 205.31543624161071 76.456375838926149 0 -0 -0 -1 -1 0 0 0 1 -0 
1 202.09395973154361 106.52348993288592 0 -0 -0 -1 -1 0 0 0 1 -0 
1 185.9370766644042 197.22808371377801 0 -0 -0 -1 -1 0 0 0 1 -0 
1 128.21476510067112 136.59060402684565 0 -0 -0 -1 -1 0 0 0 1 -0 
1 128.21476510067112 136.59060402684565 0 -0 -0 -1 -1 0 0 0 1 -0 
1 92.576459551129375 182.93945298405131 0 -0 -0 -1 -1 0 0 0 1 -0 
1 113.18120805369129 99.221476510067106 0 -0 -0 -1 -1 0 0 0 1 -0 
1 76.563319930444521 107.14115882672409 0 -0 -0 -1 -1 0 0 0 1 -0 
1 50.93621071106331 24.624025115255787 0 -0 -0 -1 -1 0 0 0 1 -0 
1 129.50335570469801 -1.7181208053691275 0 -0 -0 -1 -1 0 0 0 1 -0 
1 217.53457584583327 18.853649832502558 0 -0 -0 -1 -1 0 0 0 1 -0 
1 231.5167785234899 76.456375838926178 0 -0 -0 -1 -1 0 0 0 1 -0 
1 205.31543624161071 76.456375838926149 0 -0 -0 -1 -1 0 0 0 1 -0 
1 128.21476510067112 136.59060402684565 0 -0 -0 -1 -1 0 0 0 1 -0 
1 159.65628502915845 195.13566127956639 0 -0 -0 -1 -1 0 0 0 1 -0 
1 90.630872483221466 116.61744966442953 0 -0 -0 -1 -1 0 0 0 1 -0 
1 115.50806608701808 235.59334879849831 0 -0 -0 -1 -1 0 0 0 1 -0 
1 113.18120805369126 210.04026845637583 0 -0 -0 -1 -1 0 0 0 1 -0 
1 92.576459551129375 182.93945298405131 0 -0 -0 -1 -1 0 0 0 1 -0 
1 185.9370766644042 197.22808371377801 0 -0 -0 -1 -1 0 0 0 1 -0 
1 138.30872483221475 241.39597315436239 0 -0 -0 -1 -1 0 0 0 1 -0 
1 76.563319930444521 107.14115882672409 0 -0 -0 -1 -1 0 0 0 1 -0 
1 92.576459551129375 182.93945298405131 0 -0 -0 -1 -1 0 0 0 1 -0 
1 90.630872483221481 146.8993288590604 0 -0 -0 -1 -1 0 0 0 1 -0 
1 90.630872483221466 210.04026845637583 0 -0 -0 -1 -1 0 0 0 1 -0 
1 133.20392359318538 265.18533815178114 0 -0 -0 -1 -1 0 0 0 1 -0 
1 92.576459551129375 182.93945298405131 0 -0 -0 -1 -1 0 0 0 1 -0 
1 115.50806608701808 235.59334879849831 0 -0 -0 -1 -1 0 0 0 1 -0 
1 101.15436241610739 241.39597315436242 0 -0 -0 -1 -1 0 0 0 1 -0 
1 101.15436241610739 241.39597315436242 0 -0 -0 -1 -1 0 0 0 1 -0 
Triangulations 0

TShapes 226
Ve
1e-07
51.006711409396 83.758389261745 0
0 0

0101101
*
Ve
1e-07
27.1677852348993 83.758389261745 0
0 0

0101101
*
Ed
 1e-07 1 1 0
1  1 0 0 23.8389261744966
2  1 1 0 0 23.8389261744966
2  2 2 0 0 23.8389261744966
0

0101000
+226 0 -225 0 *
Ve
1.00000071054274e-07
27.1677852348993 88.9127516778523 0
0 0

0101101
*
Ed
 1e-07 1 1 0
1  2 0 0 5.15436241610738
2  3 1 0 0 5.15436241610738
0

0101000
+225 0 -223 0 *
Ve
1.00000071054274e-07
51.006711409396 88.9127516778523 0
0 0

0101101
*
Ed
 1.00000028859069e-07 1 1 0
1  3 0 0 23.8389261744966
2  4 1 0 0 23.8389261744966
2  5 3 0 0 23.8389261744966
0

0101000
+223 0 -221 0 *
Ed
 1e-07 1 1 0
1  4 0 0 5.15436241610738
2  6 1 0 0 5.15436241610738
0

0101000
+221 0 -226 0 *
Wi

0101100
+224 0 +222 0 +220 0 +219 0 *
Fa
0  1e-07 1 0

0111000
+218 0 *
Ve
1e-07
19.1140939597315 83.758389261745 0
0 0

0101101
*
Ed
 1e-07 1 1 0
1  5 0 0 8.05369127516778
2  7 4 0 0 8.05369127516778
2  8 2 0 0 8.05369127516778
0

0101000
+225 0 -216 0 *
Ve
1e-07
19.1140939597315 37.7986577181208 0
0 0

0101101
*
Ed
 1e-07 1 1 0
1  6 0 0 45.9597315436242
2  9 4 0 0 45.9597315436242
2  10 2 0 0 45.9597315436242
0

0101000
+216 0 -214 0 *
Ve
1e-07
4.08053691275168 37.7986577181208 0
0 0

0101101
*
Ed
 1e-07 1 1 0
1  7 0 0 15.0335570469799
2  11 4 0 0 15.0335570469799
2  12 2 0 0 15.0335570469799
0

0101000
+214 0 -212 0 *
Ve
1e-07
4.08053691275168 0.859060402684564 0
0 0

0101101
*
Ed
 1e-07 1 1 0
1  8 0 0 36.9395973154362
2  13 4 0 0 36.9395973154362
2  14 2 0 0 36.9395973154362
0

0101000
+212 0 -210 0 *
Ve
1e-07
110.604026845638 0.859060402684564 0
0 0

0101101
*
Ed
 1e-07 1 1 0
1  9 0 0 106.523489932886
2  15 4 0 0 106.523489932886
2  16 2 0 0 106.523489932886
0

0101000
+210 0 -208 0 *
Ve
1e-07
110.604026845638 59.2751677852349 0
0 0

0101101
*
Ed
 1e-07 1 1 0
1  10 0 0 58.4161073825503
2  17 4 0 0 58.4161073825503
2  18 2 0 0 58.4161073825503
0

0101000
+208 0 -206 0 *
Ve
1.00000028421709e-07
110.604026845638 83.758389261745 0
0 0

0101101
*
Ed
 1e-07 1 1 0
1  11 0 0 24.4832214765101
2  19 5 0 0 24.4832214765101
2  20 2 0 0 24.4832214765101
2  21 6 0 0 24.4832214765101
0

0101000
+206 0 -204 0 *
Ed
 1e-07 1 1 0
1  12 0 5.15436241610696 64.751677852349
2  22 7 0 5.15436241610696 64.751677852349
2  23 2 0 5.15436241610696 64.751677852349
0

0101000
+204 0 -226 0 *
Wi

0101100
-215 0 -213 0 -211 0 -209 0 -207 0 -205 0 -203 0 -202 0 -224 0 *
Fa
0  1e-07 2 0

0101000
+201 0 *
Ve
1e-07
13.9597315436242 127.570469798658 0
0 0

0101101
*
Ve
1e-07
65.503355704698 127.570469798658 0
0 0

0101101
*
Ed
 1e-07 1 1 0
1  13 0 0 51.5436241610738
2  24 3 0 0 51.5436241610738
0

0101000
+199 0 -198 0 *
Ve
1.00000029296428e-07
65.503355704698 88.9127516778523 0
0 0

0101101
*
Ed
 1e-07 1 1 0
1  14 0 0 38.6577181208054
2  25 3 0 0 38.6577181208054
0

0101000
+198 0 -196 0 *
Ed
 1.00000014210855e-07 1 1 0
1  15 0 0 14.496644295302
2  26 3 0 0 14.496644295302
0

0101000
+196 0 -221 0 *
Ve
1.00000035001443e-07
13.9597315436242 88.9127516778523 0
0 0

0101101
*
Ed
 1.00000014210855e-07 1 1 0
1  15 0 38.3355704697987 51.5436241610738
2  26 3 0 38.3355704697987 51.5436241610738
0

0101000
+223 0 -193 0 *
Ed
 1e-07 1 1 0
1  16 0 0 38.6577181208054
2  27 3 0 0 38.6577181208054
0

0101000
+193 0 -199 0 *
Wi

0101100
+197 0 +195 0 +194 0 -220 0 +192 0 +191 0 *
Fa
0  1e-07 3 0

0111000
+190 0 *
Ve
1e-07
115.758389261745 59.2751677852349 0
0 0

0101101
*
Ed
 1e-07 1 1 0
1  17 0 0 5.15436241610739
2  28 6 0 0 5.15436241610739
0

0101000
+188 0 -206 0 *
Ve
1e-07
115.758389261745 83.758389261745 0
0 0

0101101
*
Ed
 1e-07 1 1 0
1  18 0 0 5.15436241610739
2  29 6 0 0 5.15436241610739
0

0101000
+204 0 -186 0 *
Ed
 1e-07 1 1 0
1  19 0 0 24.4832214765101
2  30 8 0 0 24.4832214765101
2  31 9 0 0 24.4832214765101
2  32 6 0 0 24.4832214765101
0

0101000
+186 0 -188 0 *
Wi

0101100
+187 0 +203 0 +185 0 +184 0 *
Fa
0  1e-07 6 0

0111000
+183 0 *
Ve
1.00000000444089e-07
143.248322147651 0.859060402684564 0
0 0

0101101
*
Ve
1e-07
199.51677852349 0.859060402684564 0
0 0

0101101
*
Ed
 1e-07 1 1 0
1  20 0 0 56.2684563758389
2  33 10 0 0 56.2684563758389
2  34 9 0 0 56.2684563758389
0

0101000
+181 0 -180 0 *
Ve
1e-07
199.51677852349 54.1208053691275 0
0 0

0101101
*
Ed
 1e-07 1 1 0
1  21 0 0 53.261744966443
2  35 10 0 0 53.261744966443
2  36 9 0 0 53.261744966443
0

0101000
+180 0 -178 0 *
Ve
1e-07
200.376038926174 54.1208053691275 0
0 0

0101101
*
Ed
 1e-07 1 1 0
1  22 0 0 0.859260402684555
2  37 10 0 0 0.859260402684555
2  38 9 0 0 0.859260402684555
0

0101000
+178 0 -176 0 *
Ve
1e-07
200.376038926174 73.8791946308725 0
0 0

0101101
*
Ed
 1e-07 1 1 0
1  23 0 0.000100000000017531 19.758489261745
2  39 9 0 0.000100000000017531 19.758489261745
2  40 11 0 0.000100000000017531 19.758489261745
0

0101000
+174 0 -176 0 *
Ve
1e-07
199.51677852349 73.8791946308725 0
0 0

0101101
*
Ed
 1e-07 1 1 0
1  24 0 10.7380550335571 11.5973154362416
2  41 12 0 10.7380550335571 11.5973154362416
2  42 9 0 10.7380550335571 11.5973154362416
0

0101000
+174 0 -172 0 *
Ve
1e-07
199.51677852349 79.0335570469799 0
0 0

0101101
*
Ed
 1e-07 1 1 0
1  25 0 0 5.15436241610739
2  43 12 0 0 5.15436241610739
2  44 9 0 0 5.15436241610739
0

0101000
+172 0 -170 0 *
Ve
1.00000056843419e-07
199.51677852349 134.013422818792 0
0 0

0101101
*
Ed
 1e-07 1 1 0
1  26 0 0 54.9798657718121
2  45 13 0 0 54.9798657718121
2  46 9 0 0 54.9798657718121
0

0101000
+170 0 -168 0 *
Ve
1e-07
140.671140939597 134.013422818792 0
0 0

0101101
*
Ed
 1e-07 1 1 0
1  27 0 5.15436241610732 64
2  47 14 0 5.15436241610732 64
2  48 9 0 5.15436241610732 64
0

0101000
+168 0 -166 0 *
Ve
1.00000028421709e-07
115.758389261745 134.013422818792 0
0 0

0101101
*
Ed
 1e-07 1 1 0
1  28 0 0 24.9127516778523
2  49 15 0 0 24.9127516778523
2  50 9 0 0 24.9127516778523
2  51 16 0 0 24.9127516778523
0

0101000
+166 0 -164 0 *
Ve
1e-07
115.758389261745 109.530201342282 0
0 0

0101101
*
Ed
 1e-07 1 1 0
1  29 0 64.4295302013422 88.9127516778523
2  52 17 0 64.4295302013422 88.9127516778523
2  53 9 0 64.4295302013422 88.9127516778523
0

0101000
+164 0 -162 0 *
Ve
1e-07
115.758389261745 88.9127516778523 0
0 0

0101101
*
Ed
 1e-07 1 1 0
1  30 0 0 20.6174496644295
2  54 18 0 0 20.6174496644295
2  55 9 0 0 20.6174496644295
0

0101000
+162 0 -160 0 *
Ed
 1e-07 1 1 0
1  31 0 0 5.15436241610738
2  56 19 0 0 5.15436241610738
2  57 9 0 0 5.15436241610738
0

0101000
+160 0 -186 0 *
Ve
1.00000028458332e-07
115.758389261745 0.859060402684564 0
0 0

0101101
*
Ed
 1e-07 1 1 0
1  32 0 0 58.4161073825503
2  58 20 0 0 58.4161073825503
2  59 9 0 0 58.4161073825503
0

0101000
+188 0 -157 0 *
Ed
 1e-07 1 1 0
1  33 0 0 27.489932885906
2  60 21 0 0 27.489932885906
2  61 9 0 0 27.489932885906
0

0101000
+157 0 -181 0 *
Wi

0101100
-179 0 -177 0 -175 0 +173 0 -171 0 -169 0 -167 0 -165 0 -163 0 -161 0 
-159 0 -158 0 -184 0 -156 0 -155 0 *
Fa
0  1e-07 9 0

0101000
+154 0 *
Ve
1e-07
204.671140939597 54.1208053691275 0
0 0

0101101
*
Ed
 1e-07 1 1 0
1  34 0 0.859260402684555 5.15436241610738
2  62 22 0 0.859260402684555 5.15436241610738
2  63 11 0 0.859260402684555 5.15436241610738
0

0101000
+176 0 -152 0 *
Ve
1e-07
204.671140939597 0.859060402684564 0
0 0

0101101
*
Ed
 1e-07 1 1 0
1  35 0 0 53.261744966443
2  64 22 0 0 53.261744966443
2  65 11 0 0 53.261744966443
0

0101000
+152 0 -150 0 *
Ve
1e-07
251.919463087248 0.859060402684564 0
0 0

0101101
*
Ed
 1e-07 1 1 0
1  36 0 0 47.248322147651
2  66 22 0 0 47.248322147651
2  67 11 0 0 47.248322147651
0

0101000
+150 0 -148 0 *
Ve
1.00000312638804e-07
251.919463087248 73.8791946308725 0
0 0

0101101
*
Ed
 1e-07 1 1 0
1  37 0 0 73.0201342281879
2  68 22 0 0 73.0201342281879
2  69 11 0 0 73.0201342281879
0

0101000
+148 0 -146 0 *
Ve
1e-07
240.751677852349 73.8791946308725 0
0 0

0101101
*
Ed
 1e-07 1 1 0
1  38 0 0 11.1677852348993
2  70 23 0 0 11.1677852348993
2  71 11 0 0 11.1677852348993
0

0101000
+146 0 -144 0 *
Ve
1e-07
230.872483221477 73.8791946308725 0
0 0

0101101
*
Ed
 1e-07 1 1 0
1  39 0 0 9.87919463087249
2  72 23 0 0 9.87919463087249
2  73 11 0 0 9.87919463087249
0

0101000
+144 0 -142 0 *
Ve
1e-07
211.114093959732 73.8791946308725 0
0 0

0101101
*
Ed
 1e-07 1 1 0
1  40 0 0 19.758389261745
2  74 23 0 0 19.758389261745
2  75 11 0 0 19.758389261745
0

0101000
+142 0 -140 0 *
Ed
 1e-07 1 1 0
1  41 0 0 10.7380550335571
2  76 24 0 0 10.7380550335571
2  77 11 0 0 10.7380550335571
0

0101000
+140 0 -174 0 *
Wi

0101100
-151 0 -149 0 -147 0 -145 0 -143 0 -141 0 -139 0 -138 0 -173 0 *
Fa
0  1e-07 11 0

0101000
+137 0 *
Ve
1e-07
204.671140939597 79.0335570469799 0
0 0

0101101
*
Ed
 1e-07 1 1 0
1  42 0 0 5.15436241610738
2  78 13 0 0 5.15436241610738
0

0101000
+135 0 -170 0 *
Ve
1e-07
204.671140939597 134.013422818792 0
0 0

0101101
*
Ed
 1e-07 1 1 0
1  43 0 0 5.15436241610738
2  79 13 0 0 5.15436241610738
0

0101000
+168 0 -133 0 *
Ed
 1e-07 1 1 0
1  44 0 0 54.9798657718121
2  80 13 0 0 54.9798657718121
0

0101000
+133 0 -135 0 *
Wi

0101100
+134 0 +167 0 +132 0 +131 0 *
Fa
0  1e-07 13 0

0111000
+130 0 *
Ve
1.00000028421709e-07
115.758389261745 139.167785234899 0
0 0

0101101
*
Ed
 1e-07 1 1 0
1  45 0 0 5.15436241610738
2  81 16 0 0 5.15436241610738
0

0101000
+164 0 -128 0 *
Ve
1e-07
140.671140939597 139.167785234899 0
0 0

0101101
*
Ed
 1e-07 1 1 0
1  46 0 0 24.9127516778523
2  82 25 0 0 24.9127516778523
2  83 26 0 0 24.9127516778523
2  84 16 0 0 24.9127516778523
0

0101000
+128 0 -126 0 *
Ed
 1e-07 1 1 0
1  47 0 0 5.15436241610738
2  85 16 0 0 5.15436241610738
0

0101000
+126 0 -166 0 *
Wi

0101100
+127 0 +125 0 +124 0 +163 0 *
Fa
0  1e-07 16 0

0111000
+123 0 *
Ve
1.00000042632564e-07
110.604026845638 88.9127516778523 0
0 0

0101101
*
Ed
 1e-07 1 1 0
1  48 0 0 5.15436241610739
2  86 18 0 0 5.15436241610739
0

0101000
+160 0 -121 0 *
Ve
1e-07
110.604026845638 109.530201342282 0
0 0

0101101
*
Ed
 1e-07 1 1 0
1  49 0 0 20.6174496644295
2  87 18 0 0 20.6174496644295
2  88 27 0 0 20.6174496644295
0

0101000
+121 0 -119 0 *
Ed
 1e-07 1 1 0
1  50 0 0 5.15436241610739
2  89 18 0 0 5.15436241610739
0

0101000
+119 0 -162 0 *
Wi

0101100
+120 0 +118 0 +117 0 +159 0 *
Fa
0  1e-07 18 0

0111000
+116 0 *
Ve
1e-07
115.758389261745 -4.29530201342282 0
0 0

0101101
*
Ed
 1e-07 1 1 0
1  51 0 0 5.15436241610738
2  90 21 0 0 5.15436241610738
0

0101000
+114 0 -157 0 *
Ve
1e-07
143.248322147651 -4.29530201342282 0
0 0

0101101
*
Ed
 1e-07 1 1 0
1  52 0 0 5.15436241610738
2  91 21 0 0 5.15436241610738
0

0101000
+181 0 -112 0 *
Ed
 1e-07 1 1 0
1  53 0 0 27.489932885906
2  92 21 0 0 27.489932885906
0

0101000
+112 0 -114 0 *
Wi

0101100
+113 0 +155 0 +111 0 +110 0 *
Fa
0  1e-07 21 0

0111000
+109 0 *
Ve
1e-07
230.872483221477 79.0335570469799 0
0 0

0101101
*
Ve
1e-07
240.751677852349 79.0335570469799 0
0 0

0101101
*
Ed
 1e-07 1 1 0
1  54 0 0 9.87919463087249
2  93 23 0 0 9.87919463087249
0

0101000
+107 0 -106 0 *
Ve
1e-07
251.919463087248 79.0335570469799 0
0 0

0101101
*
Ed
 1e-07 1 1 0
1  55 0 0 11.1677852348993
2  94 23 0 0 11.1677852348993
0

0101000
+106 0 -104 0 *
Ed
 1e-07 1 1 0
1  56 0 0 5.15436241610739
2  95 23 0 0 5.15436241610739
0

0101000
+104 0 -146 0 *
Ve
1e-07
211.114093959732 79.0335570469799 0
0 0

0101101
*
Ed
 1e-07 1 1 0
1  57 0 0 5.15436241610739
2  96 23 0 0 5.15436241610739
0

0101000
+140 0 -101 0 *
Ed
 1e-07 1 1 0
1  58 0 0 19.758389261745
2  97 23 0 0 19.758389261745
0

0101000
+101 0 -107 0 *
Wi

0101100
+105 0 +103 0 +102 0 +143 0 +141 0 +139 0 +100 0 +99 0 *
Fa
0  1e-07 23 0

0111000
+98 0 *
Ve
1e-07
126.389261744966 238.818791946309 0
0 0

0101101
*
Ve
1e-07
115.758389261745 238.818791946309 0
0 0

0101101
*
Ed
 1e-07 1 1 0
1  59 0 0 10.6308724832215
2  98 28 0 0 10.6308724832215
2  99 26 0 0 10.6308724832215
0

0101000
+96 0 -95 0 *
Ve
1e-07
115.758389261745 221.637583892617 0
0 0

0101101
*
Ed
 1e-07 1 1 0
1  60 0 0 17.1812080536913
2  100 28 0 0 17.1812080536913
2  101 26 0 0 17.1812080536913
0

0101000
+95 0 -93 0 *
Ve
1e-07
115.758389261745 198.442953020134 0
0 0

0101101
*
Ed
 1e-07 1 1 0
1  61 0 0 23.1946308724832
2  102 29 0 0 23.1946308724832
2  103 26 0 0 23.1946308724832
0

0101000
+93 0 -91 0 *
Ed
 1e-07 1 1 0
1  62 0 0 59.2751677852352
2  104 30 0 0 59.2751677852352
2  105 26 0 0 59.2751677852352
0

0101000
+91 0 -128 0 *
Ve
1e-07
199.51677852349 139.167785234899 0
0 0

0101101
*
Ed
 1e-07 1 1 0
1  63 0 0 58.8456375838926
2  106 31 0 0 58.8456375838926
2  107 26 0 0 58.8456375838926
0

0101000
+126 0 -88 0 *
Ve
1e-07
199.51677852349 255.140939597315 0
0 0

0101101
*
Ed
 1e-07 1 1 0
1  64 0 0 115.973154362416
2  108 31 0 0 115.973154362416
2  109 26 0 0 115.973154362416
0

0101000
+88 0 -86 0 *
Ve
1e-07
166.013422818792 255.140939597315 0
0 0

0101101
*
Ed
 1e-07 1 1 0
1  65 0 0 33.503355704698
2  110 31 0 0 33.503355704698
2  111 26 0 0 33.503355704698
0

0101000
+86 0 -84 0 *
Ve
1e-07
166.013422818792 238.818791946309 0
0 0

0101101
*
Ed
 1e-07 1 1 0
1  66 0 0 16.3221476510067
2  112 31 0 0 16.3221476510067
2  113 26 0 0 16.3221476510067
0

0101000
+84 0 -82 0 *
Ve
1e-07
150.228187919463 238.818791946309 0
0 0

0101101
*
Ed
 1e-07 1 1 0
1  67 0 0 15.7852348993289
2  114 31 0 0 15.7852348993289
2  115 26 0 0 15.7852348993289
0

0101000
+82 0 -80 0 *
Ed
 1e-07 1 1 0
1  68 0 0 23.8389261744966
2  116 32 0 0 23.8389261744966
2  117 26 0 0 23.8389261744966
0

0101000
+80 0 -96 0 *
Wi

0101100
-94 0 -92 0 -90 0 -89 0 -125 0 -87 0 -85 0 -83 0 -81 0 -79 0 
-78 0 *
Fa
0  1e-07 26 0

0101000
+77 0 *
Ve
1e-07
83.9731543624161 144.322147651007 0
0 0

0101101
*
Ve
1e-07
70.6577181208054 144.322147651007 0
0 0

0101101
*
Ed
 1e-07 1 1 0
1  69 0 0 13.3154362416107
2  118 33 0 0 13.3154362416107
2  119 27 0 0 13.3154362416107
0

0101000
+75 0 -74 0 *
Ve
1e-07
70.6577181208054 88.9127516778523 0
0 0

0101101
*
Ed
 1e-07 1 1 0
1  70 0 0 55.4093959731544
2  120 33 0 0 55.4093959731544
2  121 27 0 0 55.4093959731544
0

0101000
+74 0 -72 0 *
Ed
 1e-07 1 1 0
1  71 0 0 39.9463087248326
2  122 33 0 0 39.9463087248326
2  123 27 0 0 39.9463087248326
0

0101000
+72 0 -121 0 *
Ve
1e-07
110.604026845638 144.322147651007 0
0 0

0101101
*
Ed
 1e-07 1 1 0
1  72 0 0 34.7919463087248
2  124 34 0 0 34.7919463087248
2  125 27 0 0 34.7919463087248
0

0101000
+119 0 -69 0 *
Ve
1e-07
97.2885906040268 144.322147651007 0
0 0

0101101
*
Ed
 1e-07 1 1 0
1  73 0 0 13.3154362416107
2  126 34 0 0 13.3154362416107
2  127 27 0 0 13.3154362416107
0

0101000
+69 0 -67 0 *
Ed
 1e-07 1 1 0
1  74 0 0 13.3154362416107
2  128 35 0 0 13.3154362416107
2  129 27 0 0 13.3154362416107
0

0101000
+67 0 -75 0 *
Wi

0101100
-73 0 -71 0 -70 0 -118 0 -68 0 -66 0 -65 0 *
Fa
0  1e-07 27 0

0101000
+64 0 *
Ve
1e-07
110.604026845638 198.442953020134 0
0 0

0101101
*
Ed
 1e-07 1 1 0
1  75 0 0 5.15436241610739
2  130 29 0 0 5.15436241610739
0

0101000
+91 0 -62 0 *
Ve
1e-07
110.604026845638 221.637583892617 0
0 0

0101101
*
Ed
 1e-07 1 1 0
1  76 0 0 23.1946308724832
2  131 29 0 0 23.1946308724832
2  132 36 0 0 23.1946308724832
0

0101000
+62 0 -60 0 *
Ed
 1e-07 1 1 0
1  77 0 0 5.15436241610739
2  133 29 0 0 5.15436241610739
0

0101000
+60 0 -93 0 *
Wi

0101100
+61 0 +59 0 +58 0 +90 0 *
Fa
0  1e-07 29 0

0111000
+57 0 *
Ve
1.00000290135742e-07
126.389261744966 243.973154362416 0
0 0

0101101
*
Ed
 1e-07 1 1 0
1  78 0 0 5.15436241610738
2  134 32 0 0 5.15436241610738
0

0101000
+96 0 -55 0 *
Ve
1.00000077763729e-07
150.228187919463 243.973154362416 0
0 0

0101101
*
Ed
 1e-07 1 1 0
1  79 0 0 23.8389261744966
2  135 32 0 0 23.8389261744966
2  136 37 0 0 23.8389261744966
0

0101000
+55 0 -53 0 *
Ed
 1e-07 1 1 0
1  80 0 0 5.15436241610738
2  137 32 0 0 5.15436241610738
0

0101000
+53 0 -80 0 *
Wi

0101100
+78 0 +54 0 +52 0 +51 0 *
Fa
0  1e-07 32 0

0111000
+50 0 *
Ve
1e-07
83.9731543624161 149.476510067114 0
0 0

0101101
*
Ed
 1e-07 1 1 0
1  81 0 0 5.15436241610738
2  138 35 0 0 5.15436241610738
0

0101000
+75 0 -48 0 *
Ve
1e-07
97.2885906040268 149.476510067114 0
0 0

0101101
*
Ed
 1e-07 1 1 0
1  82 0 0 13.3154362416107
2  139 35 0 0 13.3154362416107
0

0101000
+48 0 -46 0 *
Ed
 1e-07 1 1 0
1  83 0 0 5.15436241610738
2  140 35 0 0 5.15436241610738
0

0101000
+46 0 -67 0 *
Wi

0101100
+47 0 +45 0 +44 0 +65 0 *
Fa
0  1e-07 35 0

0111000
+43 0 *
Ve
1e-07
94.2818791946309 238.818791946309 0
0 0

0101101
*
Ve
1e-07
70.6577181208054 238.818791946309 0
0 0

0101101
*
Ed
 1e-07 1 1 0
1  84 0 0 23.6241610738255
2  141 38 0 0 23.6241610738255
2  142 36 0 0 23.6241610738255
0

0101000
+41 0 -40 0 *
Ve
1e-07
70.6577181208054 181.261744966443 0
0 0

0101101
*
Ed
 1e-07 1 1 0
1  85 0 0 57.5570469798658
2  143 38 0 0 57.5570469798658
2  144 36 0 0 57.5570469798658
0

0101000
+40 0 -38 0 *
Ve
1e-07
110.604026845638 181.261744966443 0
0 0

0101101
*
Ed
 1e-07 1 1 0
1  86 0 0 39.9463087248322
2  145 38 0 0 39.9463087248322
2  146 36 0 0 39.9463087248322
0

0101000
+38 0 -36 0 *
Ed
 1e-07 1 1 0
1  87 0 0 17.1812080536913
2  147 38 0 0 17.1812080536913
2  148 36 0 0 17.1812080536913
0

0101000
+36 0 -62 0 *
Ve
1e-07
110.604026845638 238.818791946309 0
0 0

0101101
*
Ed
 1e-07 1 1 0
1  88 0 0 17.1812080536913
2  149 39 0 0 17.1812080536913
2  150 36 0 0 17.1812080536913
0

0101000
+60 0 -33 0 *
Ve
1e-07
108.026845637584 238.818791946309 0
0 0

0101101
*
Ed
 1e-07 1 1 0
1  89 0 0 2.57718120805369
2  151 39 0 0 2.57718120805369
2  152 36 0 0 2.57718120805369
0

0101000
+33 0 -31 0 *
Ed
 1e-07 1 1 0
1  90 0 0 13.744966442953
2  153 40 0 0 13.744966442953
2  154 36 0 0 13.744966442953
2  155 41 0 0 13.744966442953
0

0101000
+31 0 -41 0 *
Wi

0101100
-39 0 -37 0 -35 0 -34 0 -59 0 -32 0 -30 0 -29 0 *
Fa
0  1e-07 36 0

0101000
+28 0 *
Ve
1e-07
70.6577181208054 243.973154362416 0
0 0

0101101
*
Ve
1e-07
70.6577181208054 282.630872483221 0
0 0

0101101
*
Ed
 1e-07 1 1 0
1  91 0 0 38.6577181208054
2  156 37 0 0 38.6577181208054
0

0101000
+26 0 -25 0 *
Ve
1e-07
199.51677852349 282.630872483221 0
0 0

0101101
*
Ed
 1e-07 1 1 0
1  92 0 0 128.859060402685
2  157 37 0 0 128.859060402685
0

0101000
+25 0 -23 0 *
Ve
1e-07
199.51677852349 260.295302013423 0
0 0

0101101
*
Ed
 1e-07 1 1 0
1  93 0 0 22.3355704697987
2  158 37 0 0 22.3355704697987
0

0101000
+23 0 -21 0 *
Ve
1.00000242835192e-07
160.859060402685 260.295302013423 0
0 0

0101101
*
Ed
 1e-07 1 1 0
1  94 0 0 38.6577181208054
2  159 37 0 0 38.6577181208054
0

0101000
+21 0 -19 0 *
Ve
1.00000231335954e-07
160.859060402685 243.973154362416 0
0 0

0101101
*
Ed
 1e-07 1 1 0
1  95 0 0 16.3221476510067
2  160 37 0 0 16.3221476510067
0

0101000
+19 0 -17 0 *
Ed
 1e-07 1 1 0
1  96 0 0 10.6308724832215
2  161 37 0 0 10.6308724832215
0

0101000
+17 0 -53 0 *
Ve
1e-07
115.758389261745 243.973154362416 0
0 0

0101101
*
Ed
 1e-07 1 1 0
1  97 0 0 10.6308724832215
2  162 37 0 0 10.6308724832215
0

0101000
+55 0 -14 0 *
Ve
1.00000090993868e-07
108.026845637584 243.973154362416 0
0 0

0101101
*
Ed
 1e-07 1 1 0
1  98 0 0 7.73154362416108
2  163 37 0 0 7.73154362416108
0

0101000
+14 0 -12 0 *
Ve
1.00000058592855e-07
94.2818791946309 243.973154362416 0
0 0

0101101
*
Ed
 1e-07 1 1 0
1  99 0 0 13.744966442953
2  164 37 0 0 13.744966442953
2  165 41 0 0 13.744966442953
0

0101000
+12 0 -10 0 *
Ed
 1e-07 1 1 0
1  100 0 0 23.6241610738255
2  166 37 0 0 23.6241610738255
0

0101000
+10 0 -26 0 *
Wi

0101100
+24 0 +22 0 +20 0 +18 0 +16 0 +15 0 -52 0 +13 0 +11 0 +9 0 
+8 0 *
Fa
0  1e-07 37 0

0111000
+7 0 *
Ed
 1e-07 1 1 0
1  101 0 0 5.15436241610738
2  167 41 0 0 5.15436241610738
0

0101000
+12 0 -31 0 *
Ed
 1e-07 1 1 0
1  102 0 0 5.15436241610738
2  168 41 0 0 5.15436241610738
0

0101000
+41 0 -10 0 *
Wi

0101100
+5 0 +29 0 +4 0 -9 0 *
Fa
0  1e-07 41 0

0111000
+3 0 *
Sh

0101000
+217 0 +200 0 +189 0 +182 0 +153 0 +136 0 +129 0 +122 0 +115 0 +108 0 
+97 0 +76 0 +63 0 +56 0 +49 0 +42 0 +27 0 +6 0 +2 0 *

+1 0 