
CASCADE Topology V3, (c) Open Cascade
Locations 0
Curve2ds 173
1 5.6184506272059913 19.583637297628698 0 -1 
1 26.865173745173749 -8.3620077220077178 0 -1 
1 5.6184506272059913 7.8412434752348759 -1 0 
1 26.865173745173749 -20.10440154440154 -1 0 
1 10.852818532818524 2.4908108108107996 -1 0 
1 -5.1595366795366822 -20.10440154440154 -1 0 
1 10.852818532818524 2.4908108108107996 -1 0 
1 -14.900769538010934 -32.536599653841066 0 1 
1 -26.865173745173745 -25.086023166023168 0 1 
1 -14.900769538010934 12.653825056583656 1 0 
1 -26.865173745173745 20.104401544401554 1 0 
1 38.829577952336557 12.653825056583656 0 -1 
1 26.865173745173749 20.104401544401554 0 -1 
1 -2.4908108108108111 8.3620077220077178 0 -1 
1 26.865173745173749 8.3620077220077178 0 -1 
1 -2.4908108108108111 8.3620077220077178 0 -1 
1 10.852818532818524 -2.490810810810828 0 1 
1 -10.852818532818539 2.4908108108107996 0 -1 
1 -10.852818532818539 -2.490810810810828 1 0 
1 -12.987799227799229 48.570810810810798 1 0 
1 -2.4908108108108111 -8.3620077220077178 1 0 
1 2.4908108108108111 -8.3620077220077178 0 1 
1 2.4908108108108111 8.3620077220077178 -1 0 
1 -26.40625979750444 2.8596218536132483 1 0 
1 8.7178378378378341 48.570810810810798 1 0 
1 5.6184506272059913 2.8596218536132483 0 -1 
1 40.742548262548262 48.570810810810798 0 -1 
1 -2.4908108108108111 20.10440154440154 0 -1 
1 40.742548262548262 19.392741312741293 0 -1 
1 5.7736305891144601 22.336948561464705 0 -1 
1 40.742548262548262 -20.816061776061794 0 -1 
1 5.7736305891144601 -5.4178004732843341 -1 0 
1 40.742548262548262 -48.570810810810833 -1 0 
1 13.699459459459458 2.490810810810812 -1 0 
1 12.276138996138993 -48.570810810810833 -1 0 
1 53.425868070350226 -11.412843180313462 -1 0 
1 -15.122779922779927 -48.570810810810833 -1 0 
1 27.806099730581877 -11.412843180313462 0 1 
1 -40.742548262548276 -48.570810810810833 0 1 
1 2.4908108108108138 -12.809884169884157 0 1 
1 -40.742548262548276 22.951042471042456 0 1 
1 2.4908108108108138 -12.809884169884157 0 1 
1 -47.637140194381594 -32.536599653841066 1 0 
1 -45.724169884169889 48.570810810810798 1 0 
1 -2.4908108108108111 -20.104401544401547 1 0 
1 2.4908108108108111 -20.104401544401547 0 1 
1 2.4908108108108111 20.10440154440154 -1 0 
1 13.699459459459458 -2.4908108108108102 0 1 
1 -13.699459459459462 2.490810810810812 0 -1 
1 -13.699459459459462 -2.4908108108108102 1 0 
1 -2.4908108108107996 -12.809884169884157 1 0 
1 2.4908108108108138 12.809884169884185 -1 0 
1 -2.4908108108107996 12.809884169884185 0 -1 
1 16.311559918172463 -20.999263098233214 0 -1 
1 -2.4908108108107996 12.809884169884185 0 -1 
1 7.9062628868056777 -3.3356081282595369 0 -1 
1 16.311559918172463 70.350234971264825 0 -1 
1 7.9062628868056777 -48.07136102401239 1 0 
1 16.311559918172463 25.614482075511972 1 0 
1 12.887884508427291 -48.07136102401239 0 1 
1 21.293181539794077 25.614482075511972 0 1 
1 44.066408952921499 25.614682075511979 -1 0 
1 -17.73838813235681 -38.927182107589914 -1 0 
1 -19.882391159632562 17.635446678205284 0 -1 
1 44.066308952921496 29.172783233813135 0 -1 
1 -19.882391159632562 -27.554978032219438 -1 0 
1 44.066308952921496 -16.017641476611587 -1 0 
1 -47.637140194381594 -27.554978032219438 0 -1 
1 16.311559918172463 -16.017641476611587 0 -1 
1 22.824478108960264 60.109010101539823 0 -1 
1 16.311559918172463 -46.619031438001556 0 -1 
1 22.824478108960264 -11.412843180313462 -1 0 
1 16.311559918172463 -118.14088471985485 -1 0 
1 2.4908108108108138 -13.521544401544404 0 1 
1 -81.185891819279277 -118.14088471985485 0 1 
1 2.4908108108108138 -13.521544401544404 0 1 
1 18.500675212355276 -39.856887104247129 0 1 
1 -81.185891819279277 -91.097795916766046 0 1 
1 18.500675212355276 32.732456525096509 1 0 
1 -81.185891819279277 -18.508452287422401 1 0 
1 34.868860540540595 32.732456525096509 0 1 
1 -64.817706491093958 -18.508452287422401 0 1 
1 2.4908108108107854 -11.386563706563663 0 1 
1 -64.817706491093958 -10.324359623329741 0 1 
1 2.4908108108107854 -11.386563706563663 0 1 
1 4.3600171600171507 -53.284461604461598 0 1 
1 -64.817706491093958 12.448767789797671 0 1 
1 -11.030733590733576 -2.4908108108108422 1 0 
1 -64.817706491093958 71.516567017596884 1 0 
1 -11.030733590733576 -2.4908108108108422 1 0 
1 -51.161536340993564 2.8123455396941495 0 -1 
1 -42.756239309626778 76.498188639218512 0 -1 
1 -51.161536340993564 -4.3042567769081757 1 0 
1 -42.756239309626778 69.381586322616187 1 0 
1 -46.179914719371936 -4.3042567769081757 0 1 
1 -37.774617688005151 69.381586322616187 0 1 
1 -46.179914719371936 -3.3356081282595369 1 0 
1 -37.774617688005151 70.350234971264825 1 0 
1 38.829577952336557 29.377840500599092 0 -1 
1 40.973480979612305 -23.62668712689495 0 -1 
1 38.829577952336557 17.635446678205284 -1 0 
1 40.973480979612305 -35.369080949288758 -1 0 
1 -19.882391159632562 17.635446678205284 0 -1 
1 -17.738488132356814 -35.369080949288758 0 -1 
1 12.887884508427291 -48.07136102401239 0 1 
1 -40.511615545484233 -38.927382107589921 0 1 
1 12.887884508427291 27.720453647802259 1 0 
1 -40.511615545484233 36.864432564224728 1 0 
1 -25.086023166023175 -2.4908108108108422 1 0 
1 -17.026827900696581 36.864432564224728 1 0 
1 -8.4190096337669154 4.9246197098624123 1 0 
1 33.145218431349761 36.864432564224728 1 0 
1 -0.59074708550436605 4.9246197098624123 0 -1 
1 40.973480979612305 36.864432564224728 0 -1 
1 -2.4908108108108111 20.816061776061787 0 -1 
1 40.973480979612305 18.005436425228595 0 -1 
1 -2.4908108108107854 -13.521544401544404 1 0 
1 2.4908108108108138 13.521544401544404 -1 0 
1 -2.4908108108107854 13.521544401544404 0 -1 
1 -2.4908108108108422 -11.386563706563663 1 0 
1 2.4908108108107854 11.386563706563749 -1 0 
1 -2.4908108108108422 11.386563706563749 0 -1 
1 40.74254826254824 -31.490965250965246 0 -1 
1 11.030733590733604 -2.4908108108108422 0 1 
1 11.030733590733604 2.4908108108107854 -1 0 
1 -11.030733590733576 2.4908108108107854 0 -1 
1 25.086023166023164 -2.4908108108108422 0 1 
1 25.086023166023164 2.4908108108107854 -1 0 
1 -25.086023166023175 2.4908108108107854 0 -1 
1 -2.4908108108108111 -20.816061776061758 1 0 
1 2.4908108108108111 -20.816061776061758 0 1 
1 2.4908108108108111 20.816061776061787 -1 0 
1 -16.989789789789768 35.673067353067353 1 0 
1 24.374362934362949 57.466563706563704 1 0 
1 -0.62160446160447691 35.673067353067353 0 -1 
1 40.74254826254824 57.466563706563704 0 -1 
1 29.887238918918968 40.916549189189169 0 -1 
1 40.74254826254824 -54.264092664092658 0 -1 
1 29.887238918918968 37.714078146718123 -1 0 
1 40.74254826254824 -57.466563706563704 -1 0 
1 10.674903474903459 2.4908108108107996 -1 0 
1 24.374362934362949 -57.466563706563704 -1 0 
1 39.208830865809233 -44.01957723396572 -1 0 
1 3.024555984555974 -57.466563706563704 -1 0 
1 -4.5582733812950096 -44.01957723396572 0 1 
1 -40.742548262548269 -57.466563706563704 0 1 
1 -4.5582733812950096 70.913550179161689 1 0 
1 -40.742548262548269 57.466563706563704 1 0 
1 -26.153513513513502 -2.4908108108108138 1 0 
1 -27.932664092664083 57.466563706563704 1 0 
1 10.674903474903459 -2.4908108108108138 0 1 
1 10.674903474903459 2.1349806949806975 0 1 
1 -10.674903474903516 2.4908108108107996 0 -1 
1 -10.674903474903516 -2.4908108108108138 1 0 
1 8.0061776061775731 20.10440154440154 1 0 
1 26.153513513513531 -2.4908108108108138 0 1 
1 26.153513513513531 2.4908108108108138 -1 0 
1 -26.153513513513502 2.4908108108108138 0 -1 
1 1.846668703647083 -60.387762562151039 0 1 
1 -29.355984555984577 8.7178378378378341 0 1 
1 1.846668703647083 -49.001198855587333 1 0 
1 -29.355984555984577 20.10440154440154 1 0 
1 13.519053590733677 37.714078146718123 0 -1 
1 29.355984555984548 25.086023166023153 0 -1 
1 13.519053590733677 -7.4763465637065849 -1 0 
1 29.355984555984548 -20.104401544401554 -1 0 
1 -45.192915521235449 -7.4763465637065849 0 1 
1 -29.355984555984577 -20.104401544401554 0 1 
1 2.4908108108107854 -8.362007722007732 0 1 
1 -29.355984555984577 -8.0061776061776158 0 1 
1 -2.4908108108108422 -8.362007722007732 1 0 
1 2.4908108108107854 8.3620077220077178 -1 0 
1 -2.4908108108108422 8.3620077220077178 0 -1 
Curves 101
1 0.96864864864865108 132.09204633204635 0 0 -1 0 
1 0.96864864864865108 120.34965250965253 0 1 0 0 
1 32.99335907335908 120.34965250965253 0 1 0 0 
1 54.698996138996144 115.3680308880309 0 0 1 0 
1 54.698996138996144 160.55845559845562 0 -1 0 0 
1 0.96864864864865108 160.55845559845562 0 0 -1 0 
1 0.96864864864865097 148.81606177606179 0 0 -1 0 
1 32.99335907335908 115.3680308880309 0 0 1 0 
1 54.698996138996144 120.34965250965253 0 0 -1 0 
1 54.698996138996144 115.3680308880309 0 -1 0 0 
1 0.96864864864865097 132.09204633204635 0 -1 0 0 
1 -4.0129729729729711 132.09204633204635 0 0 1 0 
1 -4.0129729729729711 148.81606177606179 0 1 0 0 
1 32.99335907335908 115.3680308880309 0 -1 0 0 
1 0.96864864864865108 115.3680308880309 0 0 -1 0 
1 0.96864864864865097 86.189961389961397 0 0 -1 0 
1 0.96864864864865108 45.98115830115831 0 0 -1 0 
1 0.96864864864865108 18.22640926640927 0 1 0 0 
1 29.435057915057921 18.22640926640927 0 1 0 0 
1 56.833976833976841 18.22640926640927 0 1 0 0 
1 82.45374517374519 18.22640926640927 0 0 1 0 
1 82.45374517374519 89.748262548262559 0 0 1 0 
1 87.435366795366804 115.3680308880309 0 -1 0 0 
1 0.96864864864865097 45.98115830115831 0 -1 0 0 
1 -4.0129729729729711 45.98115830115831 0 0 1 0 
1 -4.0129729729729711 86.189961389961397 0 1 0 0 
1 29.435057915057921 13.244787644787648 0 0 1 0 
1 56.833976833976841 18.22640926640927 0 0 -1 0 
1 56.833976833976841 13.244787644787648 0 -1 0 0 
1 87.435366795366804 89.748262548262559 0 -1 0 0 
1 82.45374517374519 115.3680308880309 0 1 0 0 
1 87.435366795366804 115.3680308880309 0 0 -1 0 
1 87.435366795366804 206.71752895752894 0 0 -1 0 
1 87.435366795366804 161.98177606177609 0 -1 0 0 
1 82.45374517374519 161.98177606177609 0 0 1 0 
1 59.680517760617768 161.98197606177609 0 1 0 0 
1 59.680617760617771 165.54007722007725 0 0 -1 0 
1 59.680617760617771 120.34965250965253 0 1 0 0 
1 87.435366795366804 120.34965250965253 0 0 -1 0 
1 87.435366795366804 89.748262548262559 0 0 -1 0 
1 87.435366795366804 18.22640926640927 0 1 0 0 
1 184.93281853281854 18.22640926640927 0 0 1 0 
1 184.93281853281854 45.269498069498077 0 0 1 0 
1 184.93281853281854 117.85884169884172 0 -1 0 0 
1 168.56463320463322 117.85884169884172 0 0 1 0 
1 168.56463320463322 126.04293436293437 0 0 1 0 
1 168.56463320463322 148.81606177606179 0 0 1 0 
1 168.56463320463322 207.883861003861 0 -1 0 0 
1 146.50316602316605 212.86548262548263 0 0 -1 0 
1 146.50316602316605 205.7488803088803 0 -1 0 0 
1 141.52154440154442 205.7488803088803 0 0 1 0 
1 141.52154440154442 206.71752895752894 0 -1 0 0 
1 0.96864864864865108 177.28247104247106 0 0 -1 0 
1 0.96864864864865108 165.54007722007725 0 1 0 0 
1 59.680617760617771 165.54007722007725 0 0 -1 0 
1 82.45374517374519 161.98177606177609 0 0 1 0 
1 82.45374517374519 237.77359073359074 0 -1 0 0 
1 58.968957528957539 237.77359073359074 0 -1 0 0 
1 8.7969111969111999 237.77359073359074 0 -1 0 0 
1 0.96864864864865108 237.77359073359074 0 0 -1 0 
1 0.96864864864865097 218.9145945945946 0 0 -1 0 
1 189.91444015444014 18.22640926640927 0 -1 0 0 
1 184.93281853281854 45.269498069498077 0 1 0 0 
1 189.91444015444014 45.269498069498077 0 0 -1 0 
1 173.54625482625485 126.04293436293437 0 -1 0 0 
1 168.56463320463322 148.81606177606179 0 1 0 0 
1 173.54625482625485 148.81606177606179 0 0 -1 0 
1 146.50316602316605 207.883861003861 0 0 1 0 
1 146.50316602316605 212.86548262548263 0 1 0 0 
1 168.56463320463322 212.86548262548263 0 0 -1 0 
1 8.7969111969111999 237.77359073359074 0 0 1 0 
1 8.7969111969111999 242.75521235521236 0 1 0 0 
1 58.968957528957539 242.75521235521236 0 0 -1 0 
1 0.96864864864865097 177.28247104247106 0 -1 0 0 
1 -4.0129729729729711 177.28247104247106 0 0 1 0 
1 -4.0129729729729711 218.9145945945946 0 1 0 0 
1 189.91444015444014 237.77359073359074 0 -1 0 0 
1 173.54625482625485 237.77359073359074 0 0 -1 0 
1 173.54625482625485 126.04293436293437 0 0 -1 0 
1 173.54625482625485 122.84046332046333 0 1 0 0 
1 189.91444015444014 122.84046332046333 0 1 0 0 
1 211.26424710424712 122.84046332046333 0 1 0 0 
1 255.03135135135136 122.84046332046333 0 0 1 0 
1 255.03135135135136 237.77359073359074 0 -1 0 0 
1 242.22146718146718 237.77359073359074 0 -1 0 0 
1 189.91444015444014 117.85884169884172 0 0 1 0 
1 189.91444015444014 122.48463320463323 0 0 1 0 
1 211.26424710424712 122.84046332046333 0 0 -1 0 
1 211.26424710424712 117.85884169884172 0 -1 0 0 
1 189.91444015444014 237.77359073359074 0 0 1 0 
1 189.91444015444014 242.75521235521236 0 1 0 0 
1 242.22146718146718 242.75521235521236 0 0 -1 0 
1 248.62640926640927 106.47227799227801 0 0 1 0 
1 248.62640926640927 117.85884169884172 0 -1 0 0 
1 189.91444015444014 122.84046332046333 0 0 -1 0 
1 189.91444015444014 77.650038610038621 0 1 0 0 
1 248.62640926640927 77.650038610038621 0 0 1 0 
1 248.62640926640927 89.748262548262559 0 0 1 0 
1 253.6080308880309 89.748262548262559 0 -1 0 0 
1 248.62640926640927 106.47227799227801 0 1 0 0 
1 253.6080308880309 106.47227799227801 0 0 -1 0 
Polygon3D 0
PolygonOnTriangulations 0
Surfaces 45
1 27.833822393822398 140.45405405405407 0 -0 -0 -1 -1 0 0 0 1 -0 
1 6.5870992758546425 112.50840903441765 0 -0 -0 -1 -1 0 0 0 1 -0 
1 43.846177606177605 117.85884169884173 0 -0 -0 -1 -1 0 0 0 1 -0 
1 43.846177606177605 117.85884169884173 0 -0 -0 -1 -1 0 0 0 1 -0 
1 39.79822660098521 147.90463054187197 0 -0 -0 -1 -1 0 0 0 1 -0 
1 -1.5221621621621602 140.45405405405407 0 -0 -0 -1 -1 0 0 0 1 -0 
1 -1.5221621621621602 140.45405405405407 0 -0 -0 -1 -1 0 0 0 1 -0 
1 41.711196911196915 66.797220077220103 0 -0 -0 -1 -1 0 0 0 1 -0 
1 6.5870992758546425 112.50840903441765 0 -0 -0 -1 -1 0 0 0 1 -0 
1 -1.5221621621621599 66.085559845559857 0 -0 -0 -1 -1 0 0 0 1 -0 
1 6.7422792377631113 23.644209739693604 0 -0 -0 -1 -1 0 0 0 1 -0 
1 43.13451737451738 15.735598455598458 0 -0 -0 -1 -1 0 0 0 1 -0 
1 110.25984490432707 29.639252446722733 0 -0 -0 -1 -1 0 0 0 1 -0 
1 84.944555984556004 102.55814671814672 0 -0 -0 -1 -1 0 0 0 1 -0 
1 84.944555984556004 102.55814671814672 0 -0 -0 -1 -1 0 0 0 1 -0 
1 39.79822660098521 147.90463054187197 0 -0 -0 -1 -1 0 0 0 1 -0 
1 84.944555984556004 102.55814671814672 0 -0 -0 -1 -1 0 0 0 1 -0 
1 103.74692671353927 136.36729398626412 0 -0 -0 -1 -1 0 0 0 1 -0 
1 95.341629682172481 210.05313708578848 0 -0 -0 -1 -1 0 0 0 1 -0 
1 41.942129628260957 200.90915816936601 0 -0 -0 -1 -1 0 0 0 1 -0 
1 39.79822660098521 147.90463054187197 0 -0 -0 -1 -1 0 0 0 1 -0 
1 110.25984490432707 29.639252446722733 0 -0 -0 -1 -1 0 0 0 1 -0 
1 187.42362934362936 31.747953667953674 0 -0 -0 -1 -1 0 0 0 1 -0 
1 187.42362934362936 31.747953667953674 0 -0 -0 -1 -1 0 0 0 1 -0 
1 203.43349374517382 85.126385173745206 0 -0 -0 -1 -1 0 0 0 1 -0 
1 171.05544401544401 137.42949806949804 0 -0 -0 -1 -1 0 0 0 1 -0 
1 171.05544401544401 137.42949806949804 0 -0 -0 -1 -1 0 0 0 1 -0 
1 172.92465036465038 202.10052338052338 0 -0 -0 -1 -1 0 0 0 1 -0 
1 157.53389961389965 210.37467181467184 0 -0 -0 -1 -1 0 0 0 1 -0 
1 157.53389961389965 210.37467181467184 0 -0 -0 -1 -1 0 0 0 1 -0 
1 39.79822660098521 147.90463054187197 0 -0 -0 -1 -1 0 0 0 1 -0 
1 95.341629682172481 210.05313708578848 0 -0 -0 -1 -1 0 0 0 1 -0 
1 33.882934362934364 240.26440154440158 0 -0 -0 -1 -1 0 0 0 1 -0 
1 0.37790156314428502 232.84897102372832 0 -0 -0 -1 -1 0 0 0 1 -0 
1 -1.5221621621621599 198.09853281853282 0 -0 -0 -1 -1 0 0 0 1 -0 
1 214.28880308880309 180.30702702702703 0 -0 -0 -1 -1 0 0 0 1 -0 
1 172.92465036465038 202.10052338052338 0 -0 -0 -1 -1 0 0 0 1 -0 
1 203.43349374517382 85.126385173745206 0 -0 -0 -1 -1 0 0 0 1 -0 
1 200.5893436293436 120.34965250965253 0 -0 -0 -1 -1 0 0 0 1 -0 
1 250.47307797005635 166.86004055442905 0 -0 -0 -1 -1 0 0 0 1 -0 
1 216.06795366795367 240.26440154440155 0 -0 -0 -1 -1 0 0 0 1 -0 
1 219.27042471042469 97.754440154440175 0 -0 -0 -1 -1 0 0 0 1 -0 
1 250.47307797005635 166.86004055442905 0 -0 -0 -1 -1 0 0 0 1 -0 
1 203.43349374517382 85.126385173745206 0 -0 -0 -1 -1 0 0 0 1 -0 
1 251.11722007722005 98.110270270270291 0 -0 -0 -1 -1 0 0 0 1 -0 
Triangulations 0

TShapes 223
Ve
1.00000000555112e-07
0.968648648648651 132.092046332046 0
0 0

0101101
*
Ve
1e-07
0.968648648648651 120.349652509653 0
0 0

0101101
*
Ed
 1e-07 1 1 0
1  1 0 0 11.7423938223938
2  1 2 0 0 11.7423938223938
2  2 1 0 0 11.7423938223938
0

0101000
+223 0 -222 0 *
Ve
1e-07
32.9933590733591 120.349652509653 0
0 0

0101101
*
Ed
 1e-07 1 1 0
1  2 0 0 32.0247104247104
2  3 2 0 0 32.0247104247104
2  4 1 0 0 32.0247104247104
0

0101000
+222 0 -220 0 *
Ve
1.00000042632564e-07
54.6989961389961 120.349652509653 0
0 0

0101101
*
Ed
 1e-07 1 1 0
1  3 0 0 21.7056370656371
2  5 3 0 0 21.7056370656371
2  6 1 0 0 21.7056370656371
2  7 4 0 0 21.7056370656371
0

0101000
+220 0 -218 0 *
Ve
1e-07
54.6989961389961 160.558455598456 0
0 0

0101101
*
Ed
 1e-07 1 1 0
1  4 0 4.9816216216221 45.1904247104247
2  8 5 0 4.9816216216221 45.1904247104247
2  9 1 0 4.9816216216221 45.1904247104247
0

0101000
+218 0 -216 0 *
Ve
1e-07
0.968648648648651 160.558455598456 0
0 0

0101101
*
Ed
 1e-07 1 1 0
1  5 0 0 53.7303474903475
2  10 5 0 0 53.7303474903475
2  11 1 0 0 53.7303474903475
0

0101000
+216 0 -214 0 *
Ve
1.00000000555112e-07
0.968648648648651 148.816061776062 0
0 0

0101101
*
Ed
 1e-07 1 1 0
1  6 0 0 11.7423938223938
2  12 5 0 0 11.7423938223938
2  13 1 0 0 11.7423938223938
0

0101000
+214 0 -212 0 *
Ed
 1e-07 1 1 0
1  7 0 0 16.7240154440154
2  14 6 0 0 16.7240154440154
2  15 1 0 0 16.7240154440154
2  16 7 0 0 16.7240154440154
0

0101000
+212 0 -223 0 *
Wi

0101100
-221 0 -219 0 -217 0 -215 0 -213 0 -211 0 -210 0 *
Fa
0  1e-07 1 0

0101000
+209 0 *
Ve
1e-07
32.9933590733591 115.368030888031 0
0 0

0101101
*
Ed
 1e-07 1 1 0
1  8 0 0 4.98162162162163
2  17 4 0 0 4.98162162162163
0

0101000
+207 0 -220 0 *
Ve
1e-07
54.6989961389961 115.368030888031 0
0 0

0101101
*
Ed
 1e-07 1 1 0
1  9 0 0 4.98162162162163
2  18 4 0 0 4.98162162162163
0

0101000
+218 0 -205 0 *
Ed
 1e-07 1 1 0
1  10 0 0 21.7056370656371
2  19 4 0 0 21.7056370656371
2  20 8 0 0 21.7056370656371
0

0101000
+205 0 -207 0 *
Wi

0101100
+206 0 +217 0 +204 0 +203 0 *
Fa
0  1e-07 4 0

0111000
+202 0 *
Ve
1e-07
-4.01297297297297 132.092046332046 0
0 0

0101101
*
Ed
 1e-07 1 1 0
1  11 0 0 4.98162162162162
2  21 7 0 0 4.98162162162162
0

0101000
+223 0 -200 0 *
Ve
1e-07
-4.01297297297297 148.816061776062 0
0 0

0101101
*
Ed
 1e-07 1 1 0
1  12 0 0 16.7240154440154
2  22 7 0 0 16.7240154440154
0

0101000
+200 0 -198 0 *
Ed
 1e-07 1 1 0
1  13 0 0 4.98162162162162
2  23 7 0 0 4.98162162162162
0

0101000
+198 0 -212 0 *
Wi

0101100
+199 0 +197 0 +196 0 +210 0 *
Fa
0  1e-07 7 0

0111000
+195 0 *
Ve
1e-07
0.968648648648651 115.368030888031 0
0 0

0101101
*
Ed
 1e-07 1 1 0
1  14 0 0 32.0247104247104
2  24 9 0 0 32.0247104247104
2  25 8 0 0 32.0247104247104
0

0101000
+207 0 -193 0 *
Ve
1.00000000555112e-07
0.968648648648651 86.1899613899614 0
0 0

0101101
*
Ed
 1e-07 1 1 0
1  15 0 0 29.1780694980695
2  26 9 0 0 29.1780694980695
2  27 8 0 0 29.1780694980695
0

0101000
+193 0 -191 0 *
Ve
1.00000000555112e-07
0.968648648648651 45.9811583011583 0
0 0

0101101
*
Ed
 1e-07 1 1 0
1  16 0 0 40.2088030888031
2  28 10 0 0 40.2088030888031
2  29 8 0 0 40.2088030888031
0

0101000
+191 0 -189 0 *
Ve
1e-07
0.968648648648651 18.2264092664093 0
0 0

0101101
*
Ed
 1e-07 1 1 0
1  17 0 0 27.754749034749
2  30 11 0 0 27.754749034749
2  31 8 0 0 27.754749034749
0

0101000
+189 0 -187 0 *
Ve
1e-07
29.4350579150579 18.2264092664093 0
0 0

0101101
*
Ed
 1e-07 1 1 0
1  18 0 0 28.4664092664093
2  32 11 0 0 28.4664092664093
2  33 8 0 0 28.4664092664093
0

0101000
+187 0 -185 0 *
Ve
1e-07
56.8339768339768 18.2264092664093 0
0 0

0101101
*
Ed
 1e-07 1 1 0
1  19 0 0 27.3989189189189
2  34 12 0 0 27.3989189189189
2  35 8 0 0 27.3989189189189
0

0101000
+185 0 -183 0 *
Ve
1e-07
82.4537451737452 18.2264092664093 0
0 0

0101101
*
Ed
 1e-07 1 1 0
1  20 0 0 25.6197683397683
2  36 13 0 0 25.6197683397683
2  37 8 0 0 25.6197683397683
0

0101000
+183 0 -181 0 *
Ve
1e-07
82.4537451737452 89.7482625482626 0
0 0

0101101
*
Ed
 1e-07 1 1 0
1  21 0 0 71.5218532818533
2  38 13 0 0 71.5218532818533
2  39 8 0 0 71.5218532818533
0

0101000
+181 0 -179 0 *
Ve
1.00000099475983e-07
82.4537451737452 115.368030888031 0
0 0

0101101
*
Ed
 1e-07 1 1 0
1  22 0 0 25.6197683397683
2  40 14 0 0 25.6197683397683
2  41 8 0 0 25.6197683397683
2  42 15 0 0 25.6197683397683
0

0101000
+179 0 -177 0 *
Ed
 1e-07 1 1 0
1  23 0 4.9816216216216 32.7363706563707
2  43 16 0 4.9816216216216 32.7363706563707
2  44 8 0 4.9816216216216 32.7363706563707
0

0101000
+177 0 -205 0 *
Wi

0101100
-192 0 -190 0 -188 0 -186 0 -184 0 -182 0 -180 0 -178 0 -176 0 -175 0 
-203 0 *
Fa
0  1e-07 8 0

0101000
+174 0 *
Ve
1e-07
-4.01297297297297 45.9811583011583 0
0 0

0101101
*
Ed
 1e-07 1 1 0
1  24 0 0 4.98162162162162
2  45 10 0 0 4.98162162162162
0

0101000
+189 0 -172 0 *
Ve
1e-07
-4.01297297297297 86.1899613899614 0
0 0

0101101
*
Ed
 1e-07 1 1 0
1  25 0 0 40.2088030888031
2  46 10 0 0 40.2088030888031
0

0101000
+172 0 -170 0 *
Ed
 1e-07 1 1 0
1  26 0 0 4.98162162162162
2  47 10 0 0 4.98162162162162
0

0101000
+170 0 -191 0 *
Wi

0101100
+171 0 +169 0 +168 0 +188 0 *
Fa
0  1e-07 10 0

0111000
+167 0 *
Ve
1e-07
29.4350579150579 13.2447876447876 0
0 0

0101101
*
Ed
 1e-07 1 1 0
1  27 0 0 4.98162162162162
2  48 12 0 0 4.98162162162162
0

0101000
+165 0 -185 0 *
Ve
1e-07
56.8339768339768 13.2447876447876 0
0 0

0101101
*
Ed
 1e-07 1 1 0
1  28 0 0 4.98162162162162
2  49 12 0 0 4.98162162162162
0

0101000
+183 0 -163 0 *
Ed
 1e-07 1 1 0
1  29 0 0 27.3989189189189
2  50 12 0 0 27.3989189189189
0

0101000
+163 0 -165 0 *
Wi

0101100
+164 0 +182 0 +162 0 +161 0 *
Fa
0  1e-07 12 0

0111000
+160 0 *
Ve
1e-07
87.4353667953668 89.7482625482626 0
0 0

0101101
*
Ed
 1e-07 1 1 0
1  30 0 0 4.98162162162161
2  51 15 0 0 4.98162162162161
0

0101000
+158 0 -179 0 *
Ve
1e-07
87.4353667953668 115.368030888031 0
0 0

0101101
*
Ed
 1e-07 1 1 0
1  31 0 0 4.98162162162161
2  52 15 0 0 4.98162162162161
0

0101000
+177 0 -156 0 *
Ed
 1e-07 1 1 0
1  32 0 0 25.6197683397683
2  53 17 0 0 25.6197683397683
2  54 18 0 0 25.6197683397683
2  55 15 0 0 25.6197683397683
0

0101000
+156 0 -158 0 *
Wi

0101100
+157 0 +176 0 +155 0 +154 0 *
Fa
0  1e-07 15 0

0111000
+153 0 *
Ve
1.00000056843419e-07
87.4353667953668 206.717528957529 0
0 0

0101101
*
Ve
1e-07
87.4353667953668 161.981776061776 0
0 0

0101101
*
Ed
 1e-07 1 1 0
1  33 0 0 44.7357528957529
2  56 19 0 0 44.7357528957529
2  57 18 0 0 44.7357528957529
0

0101000
+151 0 -150 0 *
Ve
1e-07
82.4537451737452 161.981776061776 0
0 0

0101101
*
Ed
 1e-07 1 1 0
1  34 0 0 4.98162162162161
2  58 19 0 0 4.98162162162161
2  59 18 0 0 4.98162162162161
0

0101000
+150 0 -148 0 *
Ve
1e-07
82.4537451737452 161.981976061776 0
0 0

0101101
*
Ed
 1e-07 1 1 0
1  35 0 0 0.000200000000006639
2  60 19 0 0 0.000200000000006639
2  61 18 0 0 0.000200000000006639
0

0101000
+148 0 -146 0 *
Ve
1e-07
59.6806177606178 161.981976061776 0
0 0

0101101
*
Ed
 1e-07 1 1 0
1  36 0 0.00010000000000332 22.7732274131274
2  62 18 0 0.00010000000000332 22.7732274131274
2  63 20 0 0.00010000000000332 22.7732274131274
0

0101000
+144 0 -146 0 *
Ve
1e-07
59.6806177606178 120.349652509653 0
0 0

0101101
*
Ed
 1e-07 1 1 0
1  37 0 3.55810115830116 45.1904247104247
2  64 21 0 3.55810115830116 45.1904247104247
2  65 18 0 3.55810115830116 45.1904247104247
0

0101000
+144 0 -142 0 *
Ve
1e-07
87.4353667953668 120.349652509653 0
0 0

0101101
*
Ed
 1e-07 1 1 0
1  38 0 0 27.754749034749
2  66 21 0 0 27.754749034749
2  67 18 0 0 27.754749034749
0

0101000
+142 0 -140 0 *
Ed
 1e-07 1 1 0
1  39 0 0 4.98162162162163
2  68 21 0 0 4.98162162162163
2  69 18 0 0 4.98162162162163
0

0101000
+140 0 -156 0 *
Ve
1e-07
87.4353667953668 18.2264092664093 0
0 0

0101101
*
Ed
 1e-07 1 1 0
1  40 0 0 71.5218532818533
2  70 22 0 0 71.5218532818533
2  71 18 0 0 71.5218532818533
0

0101000
+158 0 -137 0 *
Ve
1.00000028421709e-07
184.932818532819 18.2264092664093 0
0 0

0101101
*
Ed
 1e-07 1 1 0
1  41 0 0 97.4974517374522
2  72 22 0 0 97.4974517374522
2  73 18 0 0 97.4974517374522
0

0101000
+137 0 -135 0 *
Ve
1e-07
184.932818532819 45.2694980694981 0
0 0

0101101
*
Ed
 1e-07 1 1 0
1  42 0 0 27.0430888030888
2  74 23 0 0 27.0430888030888
2  75 18 0 0 27.0430888030888
2  76 24 0 0 27.0430888030888
0

0101000
+135 0 -133 0 *
Ve
1e-07
184.932818532819 117.858841698842 0
0 0

0101101
*
Ed
 1e-07 1 1 0
1  43 0 0 72.5893436293436
2  77 25 0 0 72.5893436293436
2  78 18 0 0 72.5893436293436
0

0101000
+133 0 -131 0 *
Ve
1e-07
168.564633204633 117.858841698842 0
0 0

0101101
*
Ed
 1e-07 1 1 0
1  44 0 0 16.3681853281853
2  79 25 0 0 16.3681853281853
2  80 18 0 0 16.3681853281853
0

0101000
+131 0 -129 0 *
Ve
1e-07
168.564633204633 126.042934362934 0
0 0

0101101
*
Ed
 1e-07 1 1 0
1  45 0 0 8.18409266409266
2  81 25 0 0 8.18409266409266
2  82 18 0 0 8.18409266409266
0

0101000
+129 0 -127 0 *
Ve
1e-07
168.564633204633 148.816061776062 0
0 0

0101101
*
Ed
 1e-07 1 1 0
1  46 0 0 22.7731274131274
2  83 26 0 0 22.7731274131274
2  84 18 0 0 22.7731274131274
2  85 27 0 0 22.7731274131274
0

0101000
+127 0 -125 0 *
Ve
1.00000227373675e-07
168.564633204633 207.883861003861 0
0 0

0101101
*
Ed
 1e-07 1 1 0
1  47 0 0 59.0677992277992
2  86 28 0 0 59.0677992277992
2  87 18 0 0 59.0677992277992
0

0101000
+125 0 -123 0 *
Ve
1.00000056843419e-07
146.503166023166 207.883861003861 0
0 0

0101101
*
Ed
 1e-07 1 1 0
1  48 0 0 22.0614671814672
2  88 29 0 0 22.0614671814672
2  89 18 0 0 22.0614671814672
2  90 30 0 0 22.0614671814672
0

0101000
+123 0 -121 0 *
Ve
1e-07
146.503166023166 205.74888030888 0
0 0

0101101
*
Ed
 1e-07 1 1 0
1  49 0 4.98162162162163 7.11660231660233
2  91 19 0 4.98162162162163 7.11660231660233
2  92 18 0 4.98162162162163 7.11660231660233
0

0101000
+121 0 -119 0 *
Ve
1e-07
141.521544401544 205.74888030888 0
0 0

0101101
*
Ed
 1e-07 1 1 0
1  50 0 0 4.98162162162163
2  93 19 0 0 4.98162162162163
2  94 18 0 0 4.98162162162163
0

0101000
+119 0 -117 0 *
Ve
1.00000056843419e-07
141.521544401544 206.717528957529 0
0 0

0101101
*
Ed
 1e-07 1 1 0
1  51 0 0 0.968648648648639
2  95 19 0 0 0.968648648648639
2  96 18 0 0 0.968648648648639
0

0101000
+117 0 -115 0 *
Ed
 1e-07 1 1 0
1  52 0 0 54.0861776061776
2  97 19 0 0 54.0861776061776
2  98 18 0 0 54.0861776061776
0

0101000
+115 0 -151 0 *
Wi

0101100
-149 0 -147 0 -145 0 +143 0 -141 0 -139 0 -138 0 -154 0 -136 0 -134 0 
-132 0 -130 0 -128 0 -126 0 -124 0 -122 0 -120 0 -118 0 -116 0 -114 0 
-113 0 *
Fa
0  1e-07 18 0

0101000
+112 0 *
Ve
1.00000000555112e-07
0.968648648648651 177.282471042471 0
0 0

0101101
*
Ve
1e-07
0.968648648648651 165.540077220077 0
0 0

0101101
*
Ed
 1e-07 1 1 0
1  53 0 0 11.7423938223938
2  99 31 0 0 11.7423938223938
2  100 20 0 0 11.7423938223938
0

0101000
+110 0 -109 0 *
Ve
1e-07
59.6806177606178 165.540077220077 0
0 0

0101101
*
Ed
 1e-07 1 1 0
1  54 0 0 58.7119691119691
2  101 31 0 0 58.7119691119691
2  102 20 0 0 58.7119691119691
0

0101000
+109 0 -107 0 *
Ed
 1e-07 1 1 0
1  55 0 0 3.55810115830116
2  103 31 0 0 3.55810115830116
2  104 20 0 0 3.55810115830116
0

0101000
+107 0 -144 0 *
Ve
1e-07
82.4537451737452 237.773590733591 0
0 0

0101101
*
Ed
 1e-07 1 1 0
1  56 0 0.000200000000006639 75.7918146718146
2  105 32 0 0.000200000000006639 75.7918146718146
2  106 20 0 0.000200000000006639 75.7918146718146
0

0101000
+146 0 -104 0 *
Ve
1e-07
58.9689575289575 237.773590733591 0
0 0

0101101
*
Ed
 1e-07 1 1 0
1  57 0 0 23.4847876447877
2  107 32 0 0 23.4847876447877
2  108 20 0 0 23.4847876447877
0

0101000
+104 0 -102 0 *
Ve
1e-07
8.7969111969112 237.773590733591 0
0 0

0101101
*
Ed
 1e-07 1 1 0
1  58 0 0 50.1720463320463
2  109 33 0 0 50.1720463320463
2  110 20 0 0 50.1720463320463
0

0101000
+102 0 -100 0 *
Ve
1e-07
0.968648648648651 237.773590733591 0
0 0

0101101
*
Ed
 1e-07 1 1 0
1  59 0 0 7.82826254826255
2  111 34 0 0 7.82826254826255
2  112 20 0 0 7.82826254826255
0

0101000
+100 0 -98 0 *
Ve
1.00000000555112e-07
0.968648648648651 218.914594594595 0
0 0

0101101
*
Ed
 1e-07 1 1 0
1  60 0 0 18.8589961389961
2  113 34 0 0 18.8589961389961
2  114 20 0 0 18.8589961389961
0

0101000
+98 0 -96 0 *
Ed
 1e-07 1 1 0
1  61 0 0 41.6321235521235
2  115 35 0 0 41.6321235521235
2  116 20 0 0 41.6321235521235
0

0101000
+96 0 -110 0 *
Wi

0101100
-108 0 -106 0 -105 0 -143 0 -103 0 -101 0 -99 0 -97 0 -95 0 -94 0 
*
Fa
0  1e-07 20 0

0101000
+93 0 *
Ve
1e-07
189.91444015444 18.2264092664093 0
0 0

0101101
*
Ed
 1e-07 1 1 0
1  62 0 0 4.9816216216216
2  117 24 0 0 4.9816216216216
0

0101000
+91 0 -135 0 *
Ve
1e-07
189.91444015444 45.2694980694981 0
0 0

0101101
*
Ed
 1e-07 1 1 0
1  63 0 0 4.9816216216216
2  118 24 0 0 4.9816216216216
0

0101000
+133 0 -89 0 *
Ed
 1e-07 1 1 0
1  64 0 0 27.0430888030888
2  119 24 0 0 27.0430888030888
0

0101000
+89 0 -91 0 *
Wi

0101100
+90 0 +132 0 +88 0 +87 0 *
Fa
0  1e-07 24 0

0111000
+86 0 *
Ve
1e-07
173.546254826255 126.042934362934 0
0 0

0101101
*
Ed
 1e-07 1 1 0
1  65 0 0 4.98162162162163
2  120 27 0 0 4.98162162162163
0

0101000
+84 0 -127 0 *
Ve
1e-07
173.546254826255 148.816061776062 0
0 0

0101101
*
Ed
 1e-07 1 1 0
1  66 0 0 4.98162162162163
2  121 27 0 0 4.98162162162163
0

0101000
+125 0 -82 0 *
Ed
 1e-07 1 1 0
1  67 0 0 22.7731274131274
2  122 27 0 0 22.7731274131274
2  123 36 0 0 22.7731274131274
0

0101000
+82 0 -84 0 *
Wi

0101100
+83 0 +124 0 +81 0 +80 0 *
Fa
0  1e-07 27 0

0111000
+79 0 *
Ve
1e-07
146.503166023166 212.865482625483 0
0 0

0101101
*
Ed
 1e-07 1 1 0
1  68 0 0 4.98162162162163
2  124 30 0 0 4.98162162162163
0

0101000
+121 0 -77 0 *
Ve
1e-07
168.564633204633 212.865482625483 0
0 0

0101101
*
Ed
 1e-07 1 1 0
1  69 0 0 22.0614671814672
2  125 30 0 0 22.0614671814672
0

0101000
+77 0 -75 0 *
Ed
 1e-07 1 1 0
1  70 0 0 4.98162162162163
2  126 30 0 0 4.98162162162163
0

0101000
+75 0 -123 0 *
Wi

0101100
+76 0 +74 0 +73 0 +120 0 *
Fa
0  1e-07 30 0

0111000
+72 0 *
Ve
1e-07
8.7969111969112 242.755212355212 0
0 0

0101101
*
Ed
 1e-07 1 1 0
1  71 0 0 4.98162162162163
2  127 33 0 0 4.98162162162163
0

0101000
+100 0 -70 0 *
Ve
1e-07
58.9689575289575 242.755212355212 0
0 0

0101101
*
Ed
 1e-07 1 1 0
1  72 0 0 50.1720463320463
2  128 33 0 0 50.1720463320463
0

0101000
+70 0 -68 0 *
Ed
 1e-07 1 1 0
1  73 0 0 4.98162162162163
2  129 33 0 0 4.98162162162163
0

0101000
+68 0 -102 0 *
Wi

0101100
+69 0 +67 0 +66 0 +99 0 *
Fa
0  1e-07 33 0

0111000
+65 0 *
Ve
1e-07
-4.01297297297297 177.282471042471 0
0 0

0101101
*
Ed
 1e-07 1 1 0
1  74 0 0 4.98162162162162
2  130 35 0 0 4.98162162162162
0

0101000
+110 0 -63 0 *
Ve
1e-07
-4.01297297297297 218.914594594595 0
0 0

0101101
*
Ed
 1e-07 1 1 0
1  75 0 0 41.6321235521235
2  131 35 0 0 41.6321235521235
0

0101000
+63 0 -61 0 *
Ed
 1e-07 1 1 0
1  76 0 0 4.98162162162162
2  132 35 0 0 4.98162162162162
0

0101000
+61 0 -96 0 *
Wi

0101100
+62 0 +60 0 +59 0 +94 0 *
Fa
0  1e-07 35 0

0111000
+58 0 *
Ve
1e-07
189.91444015444 237.773590733591 0
0 0

0101101
*
Ve
1e-07
173.546254826255 237.773590733591 0
0 0

0101101
*
Ed
 1e-07 1 1 0
1  77 0 0 16.3681853281853
2  133 37 0 0 16.3681853281853
2  134 36 0 0 16.3681853281853
0

0101000
+56 0 -55 0 *
Ed
 1e-07 1 1 0
1  78 0 0 88.957528957529
2  135 37 0 0 88.957528957529
2  136 36 0 0 88.957528957529
0

0101000
+55 0 -82 0 *
Ve
1e-07
173.546254826255 122.840463320463 0
0 0

0101101
*
Ed
 1e-07 1 1 0
1  79 0 0 3.20247104247105
2  137 38 0 0 3.20247104247105
2  138 36 0 0 3.20247104247105
0

0101000
+84 0 -52 0 *
Ve
1e-07
189.91444015444 122.840463320463 0
0 0

0101101
*
Ed
 1e-07 1 1 0
1  80 0 0 16.3681853281853
2  139 38 0 0 16.3681853281853
2  140 36 0 0 16.3681853281853
0

0101000
+52 0 -50 0 *
Ve
1e-07
211.264247104247 122.840463320463 0
0 0

0101101
*
Ed
 1e-07 1 1 0
1  81 0 0 21.349806949807
2  141 39 0 0 21.349806949807
2  142 36 0 0 21.349806949807
0

0101000
+50 0 -48 0 *
Ve
1e-07
255.031351351351 122.840463320463 0
0 0

0101101
*
Ed
 1e-07 1 1 0
1  82 0 0 43.7671042471042
2  143 40 0 0 43.7671042471042
2  144 36 0 0 43.7671042471042
0

0101000
+48 0 -46 0 *
Ve
1e-07
255.031351351351 237.773590733591 0
0 0

0101101
*
Ed
 1e-07 1 1 0
1  83 0 0 114.933127413127
2  145 40 0 0 114.933127413127
2  146 36 0 0 114.933127413127
0

0101000
+46 0 -44 0 *
Ve
1e-07
242.221467181467 237.773590733591 0
0 0

0101101
*
Ed
 1e-07 1 1 0
1  84 0 0 12.8098841698842
2  147 40 0 0 12.8098841698842
2  148 36 0 0 12.8098841698842
0

0101000
+44 0 -42 0 *
Ed
 1e-07 1 1 0
1  85 0 0 52.307027027027
2  149 41 0 0 52.307027027027
2  150 36 0 0 52.307027027027
0

0101000
+42 0 -56 0 *
Wi

0101100
-54 0 -53 0 -80 0 -51 0 -49 0 -47 0 -45 0 -43 0 -41 0 -40 0 
*
Fa
0  1e-07 36 0

0101000
+39 0 *
Ve
1.00000142108547e-07
189.91444015444 117.858841698842 0
0 0

0101101
*
Ve
1e-07
189.91444015444 122.484633204633 0
0 0

0101101
*
Ed
 1e-07 1 1 0
1  86 0 0 4.62579150579151
2  151 39 0 0 4.62579150579151
0

0101000
+37 0 -36 0 *
Ed
 1e-07 1 1 0
1  87 0 0 0.355830115830102
2  152 39 0 0 0.355830115830102
0

0101000
+36 0 -50 0 *
Ve
1e-07
211.264247104247 117.858841698842 0
0 0

0101101
*
Ed
 1e-07 1 1 0
1  88 0 0 4.98162162162161
2  153 39 0 0 4.98162162162161
0

0101000
+48 0 -33 0 *
Ed
 1e-07 1 1 0
1  89 0 0 21.349806949807
2  154 39 0 0 21.349806949807
2  155 42 0 0 21.349806949807
0

0101000
+33 0 -37 0 *
Wi

0101100
+35 0 +34 0 +47 0 +32 0 +31 0 *
Fa
0  1e-07 39 0

0111000
+30 0 *
Ve
1e-07
189.91444015444 242.755212355212 0
0 0

0101101
*
Ed
 1e-07 1 1 0
1  90 0 0 4.98162162162163
2  156 41 0 0 4.98162162162163
0

0101000
+56 0 -28 0 *
Ve
1e-07
242.221467181467 242.755212355212 0
0 0

0101101
*
Ed
 1e-07 1 1 0
1  91 0 0 52.307027027027
2  157 41 0 0 52.307027027027
0

0101000
+28 0 -26 0 *
Ed
 1e-07 1 1 0
1  92 0 0 4.98162162162163
2  158 41 0 0 4.98162162162163
0

0101000
+26 0 -42 0 *
Wi

0101100
+27 0 +25 0 +24 0 +40 0 *
Fa
0  1e-07 41 0

0111000
+23 0 *
Ve
1e-07
248.626409266409 106.472277992278 0
0 0

0101101
*
Ve
1e-07
248.626409266409 117.858841698842 0
0 0

0101101
*
Ed
 1e-07 1 1 0
1  93 0 0 11.3865637065637
2  159 43 0 0 11.3865637065637
2  160 42 0 0 11.3865637065637
0

0101000
+21 0 -20 0 *
Ed
 1e-07 1 1 0
1  94 0 0 37.3621621621622
2  161 43 0 0 37.3621621621622
2  162 42 0 0 37.3621621621622
0

0101000
+20 0 -33 0 *
Ve
1e-07
189.91444015444 77.6500386100386 0
0 0

0101101
*
Ed
 1e-07 1 1 0
1  95 0 4.98162162162133 45.1904247104247
2  163 44 0 4.98162162162133 45.1904247104247
2  164 42 0 4.98162162162133 45.1904247104247
0

0101000
+37 0 -17 0 *
Ve
1e-07
248.626409266409 77.6500386100386 0
0 0

0101101
*
Ed
 1e-07 1 1 0
1  96 0 0 58.7119691119691
2  165 44 0 0 58.7119691119691
2  166 42 0 0 58.7119691119691
0

0101000
+17 0 -15 0 *
Ve
1e-07
248.626409266409 89.7482625482626 0
0 0

0101101
*
Ed
 1e-07 1 1 0
1  97 0 0 12.0982239382239
2  167 44 0 0 12.0982239382239
2  168 42 0 0 12.0982239382239
0

0101000
+15 0 -13 0 *
Ed
 1e-07 1 1 0
1  98 0 0 16.7240154440154
2  169 45 0 0 16.7240154440154
2  170 42 0 0 16.7240154440154
0

0101000
+13 0 -21 0 *
Wi

0101100
-19 0 -18 0 -31 0 -16 0 -14 0 -12 0 -11 0 *
Fa
0  1e-07 42 0

0101000
+10 0 *
Ve
1e-07
253.608030888031 89.7482625482626 0
0 0

0101101
*
Ed
 1e-07 1 1 0
1  99 0 0 4.98162162162163
2  171 45 0 0 4.98162162162163
0

0101000
+8 0 -13 0 *
Ve
1e-07
253.608030888031 106.472277992278 0
0 0

0101101
*
Ed
 1e-07 1 1 0
1  100 0 0 4.98162162162163
2  172 45 0 0 4.98162162162163
0

0101000
+21 0 -6 0 *
Ed
 1e-07 1 1 0
1  101 0 0 16.7240154440154
2  173 45 0 0 16.7240154440154
0

0101000
+6 0 -8 0 *
Wi

0101100
+7 0 +11 0 +5 0 +4 0 *
Fa
0  1e-07 45 0

0111000
+3 0 *
Sh

0101000
+208 0 +201 0 +194 0 +173 0 +166 0 +159 0 +152 0 +111 0 +92 0 +85 0 
+78 0 +71 0 +64 0 +57 0 +38 0 +29 0 +22 0 +9 0 +2 0 *

+1 0 