
CASCADE Topology V3, (c) Open Cascade
Locations 0
Curve2ds 198
1 8.4760234418445464 -2.1682850665183651 0 1 
1 8.4760234418445464 2.1682850665183935 -1 0 
1 -22.046732166933083 -34.920030035231434 -1 0 
1 -8.4760234418445464 2.1682850665183935 0 -1 
1 -8.4760234418445464 -2.1682850665183651 1 0 
1 20.304892616324821 -13.599201151053393 1 0 
1 -2.1682850665183935 7.490439320699835 0 -1 
1 28.02094118721844 0.95523197443617391 0 -1 
1 -2.1682850665183935 7.490439320699835 0 -1 
1 -2.1682850665183793 2.1682850665183366 0 -1 
1 28.02094118721844 -14.025646666963468 0 -1 
1 -2.1682850665183935 8.2789066176156041 0 -1 
1 28.02094118721844 -18.362216800000226 0 -1 
1 62.066442370747801 3.7198623989806094 -1 0 
1 117.51197938715856 -34.920030035231434 -1 0 
1 -34.973628205783655 -54.285529602427516 0 1 
1 -38.998779050622176 -39.256600168268193 0 1 
1 -34.973628205783655 15.88805982307619 1 0 
1 -38.998779050622176 30.916989257235514 1 0 
1 47.026970673456631 15.88805982307619 0 -1 
1 43.00181982861811 30.916989257235514 0 -1 
1 47.026970673456631 -9.7371273266863909 -1 0 
1 43.00181982861811 5.2918021074729324 -1 0 
1 32.046092032056961 -9.7371273266863909 0 -1 
1 28.02094118721844 5.2918021074729324 0 -1 
1 -77.492269183343851 -0.61670773405614909 1 0 
1 37.256939500013914 -13.599201151053393 1 0 
1 -2.1682850665183935 8.4760234418445464 0 -1 
1 56.574388274450342 -13.599201151053393 0 -1 
1 -35.729566965672205 48.24236820089078 0 -1 
1 56.574388274450342 -30.551248034742486 0 -1 
1 19.514665598665346 32.524225997775616 -1 0 
1 56.574488274450346 -36.07071911315289 -1 0 
1 -74.758698163002919 -22.325454873070811 0 1 
1 17.545257077119629 -101.11907110870408 0 1 
1 -74.758698163002919 42.723097122480382 -1 0 
1 17.545257077119629 -36.070519113152884 -1 0 
1 -79.095268296039677 42.723097122480382 0 -1 
1 13.208686944082871 -36.070519113152884 0 -1 
1 8.2789066176155757 2.1682850665183651 -1 0 
1 13.208686944082871 -56.96490248142085 -1 0 
1 40.25104910249857 5.9406813919888464 -1 0 
1 -3.3491262911483375 -56.96490248142085 -1 0 
1 35.914478969461811 5.9406813919888464 0 1 
1 -7.685696424185096 -56.96490248142085 0 1 
1 2.1682850665183366 -8.4760234418445322 0 1 
1 -7.685696424185096 -41.98402384002118 0 1 
1 35.914478969461811 37.873606917077623 0 1 
1 -7.685696424185096 -25.031976956332073 0 1 
1 35.914478969461811 42.210177050114353 -1 0 
1 -7.685696424185096 -20.695406823295343 -1 0 
1 -14.941661681605467 42.210177050114353 0 1 
1 -58.541837075252374 -20.695406823295343 0 1 
1 2.1682850665184219 -10.644308508362911 0 1 
1 -58.541837075252374 77.863005291176165 0 1 
1 2.1682850665184219 -10.644308508362911 0 1 
1 -41.59164991230702 -2.1682850665183366 1 0 
1 -62.878407208289133 99.151622307902016 1 0 
1 -2.1682850665183935 8.6731402660735171 0 -1 
1 15.968322483288091 99.151622307902016 0 -1 
1 -2.1682850665183935 8.6731402660735171 0 -1 
1 -2.1682850665183651 2.1682850665184219 0 -1 
1 15.968322483288091 81.805341775755039 0 -1 
1 -2.1682850665183651 8.2789066176156609 0 -1 
1 15.968322483288091 77.468771642718281 0 -1 
1 -39.310198338820385 20.224629956112949 0 -1 
1 15.968322483288091 60.910958407487072 0 -1 
1 -39.310198338820385 -54.285529602427516 1 0 
1 15.968322483288091 -13.599201151053393 1 0 
1 -16.360696411002266 17.937631004833861 0 -1 
1 2.1682850665183651 7.490439320699835 0 -1 
1 2.1682850665183651 7.490439320699835 -1 0 
1 -2.1682850665183935 -7.4904393206998066 1 0 
1 -2.1682850665183935 -8.2789066176156041 1 0 
1 2.1682850665183651 -8.2789066176156041 0 1 
1 -16.360696411002266 -17.937631004833747 0 1 
1 2.1682850665183651 8.2789066176156041 -1 0 
1 -2.1682850665183935 -8.4760234418445464 1 0 
1 2.1682850665183366 -8.4760234418445464 0 1 
1 -66.368971841941175 22.924949533770032 0 1 
1 2.1682850665183366 8.4760234418445464 -1 0 
1 -35.729566965672205 48.24236820089078 0 -1 
1 19.514565598665342 38.043697076186021 0 -1 
1 -35.729566965672205 -22.325454873070811 -1 0 
1 19.514565598665342 -32.52412599777557 -1 0 
1 -74.758698163002919 -22.325454873070811 0 1 
1 -19.514565598665371 -32.52412599777557 0 1 
1 8.2789066176155757 -2.1682850665183793 0 1 
1 -8.2789066176156325 2.1682850665183651 0 -1 
1 -8.2789066176156325 -2.1682850665183793 1 0 
1 20.777429263439018 45.650940501714757 1 0 
1 -8.2789066176156325 -2.1682850665183793 1 0 
1 -2.1682850665183935 -8.4760234418445322 1 0 
1 2.1682850665183366 8.4760234418445748 -1 0 
1 -2.1682850665183935 8.4760234418445748 0 -1 
1 23.259785259015302 15.966462762544381 0 -1 
1 -2.1682850665183366 -10.644308508362911 1 0 
1 2.1682850665184219 10.64430850836294 -1 0 
1 -2.1682850665183366 10.64430850836294 0 -1 
1 -18.134747829062775 19.120331950207486 0 -1 
1 2.1682850665183366 8.6731402660735171 0 -1 
1 2.1682850665183366 8.6731402660735171 -1 0 
1 -2.1682850665183935 -8.6731402660734602 1 0 
1 -2.1682850665183651 -8.2789066176155472 1 0 
1 2.1682850665183651 -8.2789066176155472 0 1 
1 -18.134747829062775 -19.120331950207458 0 1 
1 2.1682850665183651 8.2789066176156609 -1 0 
1 16.360696411002266 -17.937631004833747 0 1 
1 16.360696411002266 17.937631004833861 -1 0 
1 -1.3798177696026102 17.937631004833861 -1 0 
1 -16.360696411002266 2.9567523634342194 0 -1 
1 -16.360696411002266 -17.937631004833747 1 0 
1 -2.1682850665183722 8.4760234418445322 0 -1 
1 45.199150671640574 21.348014939938494 0 -1 
1 80.17512568094628 29.713386723370149 0 -1 
1 45.199150671640574 4.3959680562494015 0 -1 
1 80.17512568094628 10.001704300475836 1 0 
1 45.199150671640574 -15.315714366644912 1 0 
1 93.579069728514398 10.001704300475836 0 -1 
1 58.603094719208698 -15.315714366644912 0 -1 
1 93.579069728514398 -22.325454873070811 -1 0 
1 58.603094719208698 -47.642873540191559 -1 0 
1 5.664966122405815 -22.325454873070811 0 1 
1 -29.311008886899884 -47.642873540191559 0 1 
1 2.1682850665183793 -8.8702570903024167 0 1 
1 -29.311008886899884 -20.04651814813954 0 1 
1 2.1682850665183793 -8.8702570903024167 0 1 
1 5.664966122405815 23.011414699586084 0 1 
1 -29.311008886899884 -2.3060039675346644 0 1 
1 5.664966122405815 42.723097122480382 -1 0 
1 -29.311008886899884 17.405678455359634 -1 0 
1 -31.392996832635475 42.723097122480382 0 1 
1 -66.368971841941175 17.405678455359634 0 1 
1 -77.492269183343851 -0.61670773405614909 1 0 
1 -90.022990749414333 39.876996417459125 1 0 
1 57.729872237711056 -0.61670773405614909 0 -1 
1 45.199150671640574 39.876996417459125 0 -1 
1 -79.095268296039677 42.723097122480382 0 -1 
1 37.335242498670226 70.881894003019468 0 -1 
1 -2.1682850665183935 18.72609830174958 0 -1 
1 37.335242498670226 1.4967718744315235 0 -1 
1 61.145432470766536 -80.002253971830299 -1 0 
1 41.671812631706985 -35.955424729067644 -1 0 
1 17.779731140399065 -80.002253971830299 0 -1 
1 -1.6938886986604871 -35.955424729067644 0 -1 
1 17.779731140399065 -92.617730722482648 -1 0 
1 -1.6938886986604871 -48.570901479719993 -1 0 
1 -14.941661681605467 -92.617730722482648 0 1 
1 -34.415281520665019 -48.570901479719993 0 1 
1 -14.941661681605467 1.604111258952102 1 0 
1 -34.415281520665019 45.650940501714757 1 0 
1 31.577908836425081 20.921560033388516 0 -1 
1 23.259785259015302 -0.9855841211447256 0 -1 
1 31.577908836425081 5.9406813919888464 -1 0 
1 23.259785259015302 -15.966462762544396 -1 0 
1 -14.941661681605467 5.9406813919888464 0 1 
1 -23.259785259015246 -15.966462762544396 0 1 
1 -14.941661681605467 37.873606917077623 1 0 
1 -23.259785259015246 15.966462762544381 1 0 
1 18.134747829062746 -19.120331950207458 0 1 
1 18.134747829062746 19.120331950207486 -1 0 
1 -18.134747829062775 1.7740514180605089 0 -1 
1 -18.134747829062775 -19.120331950207458 1 0 
1 -2.1682850665183722 -8.4760234418445606 1 0 
1 2.1682850665183722 -8.4760234418445606 0 1 
1 -20.19981606103191 6.8382287732604254 0 1 
1 2.1682850665183722 8.4760234418445322 -1 0 
1 -2.1682850665183651 -8.8702570903024167 1 0 
1 2.1682850665183793 8.8702570903024593 -1 0 
1 -2.1682850665183651 8.8702570903024593 0 -1 
1 16.360696411002309 9.0673739145313732 0 -1 
1 -2.1682850665183651 8.8702570903024593 0 -1 
1 -2.1682850665183935 -18.726098301749587 1 0 
1 2.1682850665183651 -18.726098301749587 0 1 
1 2.1682850665183651 18.72609830174958 -1 0 
1 -1.7740514180605089 18.72609830174958 -1 0 
1 12.521576760972629 42.319257134470149 -1 0 
1 -20.19981606103191 42.319257134470149 0 -1 
1 -20.19981606103191 -8.5368835165971433 1 0 
1 -6.7958720134637858 -8.5368835165971433 0 -1 
1 -6.7958720134637858 -12.915369855132568 0.990426781709974 0.13803908892637506 
1 -4.9148940089497195 -12.653211667542578 -0.058109511508092043 -0.99831021464887915 
1 -6.7958720134637858 -44.96805147091564 0 -1 
1 -6.7958720134637858 -45.200612823180535 1 0 
1 12.521576760972629 -45.200612823180535 0 1 
1 12.521576760972629 -10.22303249264634 0.99042678170997622 0.1380390889263588 
1 25.536755650556955 -8.4090635357185448 -0.70710678118655013 0.70710678118654502 
1 12.521576760972629 4.6061153538656896 0 1 
1 1.3283959893690707 5.2709005189812075 0 -1 
1 16.360696411002309 -8.6731402660735029 0 -1 
1 1.3283959893690707 -10.498445419334232 -1 0 
1 16.360696411002309 -24.442486204388942 -1 0 
1 -31.392996832635475 -10.498445419334232 0 1 
1 -16.360696411002237 -24.442486204388942 0 1 
1 -31.392996832635475 38.386526989443624 1 0 
1 -16.360696411002237 24.442486204388914 1 0 
1 1.3283959893690707 38.386526989443624 0 -1 
1 16.360696411002309 24.442486204388914 0 -1 
Curves 120
1 154.41365444667838 142.58664499294179 0 0 1 0 
1 154.41365444667838 146.92321512597854 0 1 0 0 
1 171.36570133036747 146.92321512597854 0 0 -1 0 
1 171.36570133036747 142.58664499294179 0 -1 0 0 
1 104.34598109252686 182.79847713564615 0 0 -1 0 
1 104.34598109252686 167.81759849424651 0 0 -1 0 
1 104.34598109252686 163.48102836120975 0 0 -1 0 
1 14.854942892586728 146.92321512597854 0 1 0 0 
1 171.36570133036747 142.58664499294179 0 0 1 0 
1 171.36570133036747 212.76023441844549 0 -1 0 0 
1 89.365102451127186 212.76023441844549 0 0 -1 0 
1 89.365102451127186 187.13504726868291 0 1 0 0 
1 104.34598109252686 187.13504726868291 0 0 -1 0 
1 154.41365444667838 142.58664499294179 0 -1 0 0 
1 135.09620567224195 142.58664499294179 0 0 -1 0 
1 135.09620567224195 125.63459810925269 0 0 -1 0 
1 135.09610567224195 120.11512703084229 0 1 0 0 
1 174.12533686957266 55.066775035291101 0 0 1 0 
1 174.12533686957266 120.11532703084229 0 1 0 0 
1 178.46190700260942 120.11532703084229 0 0 -1 0 
1 178.46190700260942 99.220943662574328 0 1 0 0 
1 195.01972023784063 99.220943662574328 0 1 0 0 
1 199.35629037087739 99.220943662574328 0 0 1 0 
1 199.35629037087739 114.201822303974 0 0 1 0 
1 199.35629037087739 131.1538691876631 0 0 1 0 
1 199.35629037087739 135.49043932069983 0 1 0 0 
1 250.21243102194467 135.49043932069983 0 0 1 0 
1 250.21243102194467 234.04885143517134 0 0 1 0 
1 254.54900115498143 255.33746845189719 0 -1 0 0 
1 175.7022714634042 255.33746845189719 0 0 -1 0 
1 175.7022714634042 237.99118791975022 0 0 -1 0 
1 175.7022714634042 233.65461778671346 0 0 -1 0 
1 175.7022714634042 217.09680455148225 0 0 -1 0 
1 175.7022714634042 142.58664499294179 0 -1 0 0 
1 100.0094109594901 182.79847713564615 0 0 -1 0 
1 100.0094109594901 182.79847713564615 0 1 0 0 
1 104.34598109252686 167.81759849424651 0 -1 0 0 
1 104.34598109252686 146.92321512597854 0 -1 0 0 
1 100.0094109594901 146.92321512597854 0 0 1 0 
1 100.0094109594901 163.48102836120975 0 1 0 0 
1 135.09620567224195 125.63459810925269 0 -1 0 0 
1 130.75963553920522 125.63459810925269 0 0 1 0 
1 130.75963553920522 142.58664499294179 0 1 0 0 
1 135.09620567224195 125.63459810925269 0 0 -1 0 
1 135.09620567224195 55.066775035291101 0 1 0 0 
1 174.12533686957266 55.066775035291101 0 0 1 0 
1 178.46190700260942 94.884373529537584 0 0 1 0 
1 195.01972023784063 99.220943662574328 0 0 -1 0 
1 195.01972023784063 94.884373529537584 0 -1 0 0 
1 203.69286050391412 114.201822303974 0 -1 0 0 
1 199.35629037087739 131.1538691876631 0 1 0 0 
1 203.69286050391412 131.1538691876631 0 0 -1 0 
1 254.54900115498143 234.04885143517134 0 -1 0 0 
1 250.21243102194467 255.33746845189719 0 1 0 0 
1 254.54900115498143 255.33746845189719 0 0 -1 0 
1 171.36570133036747 255.33746845189719 0 0 -1 0 
1 171.36570133036747 255.33746845189719 0 1 0 0 
1 175.7022714634042 237.99118791975022 0 -1 0 0 
1 175.7022714634042 217.09680455148225 0 -1 0 0 
1 171.36570133036747 217.09680455148225 0 0 1 0 
1 171.36570133036747 233.65461778671346 0 1 0 0 
1 67.288018137485565 146.92321512597854 0 0 1 0 
1 67.288018137485565 182.79847713564615 0 1 0 0 
1 85.028532318090441 182.79847713564615 0 1 0 0 
1 100.0094109594901 167.81759849424651 0 0 -1 0 
1 100.0094109594901 146.92321512597854 0 -1 0 0 
1 19.191513025623472 124.05766351542115 0 0 -1 0 
1 19.191513025623472 107.10561663173206 0 0 -1 0 
1 19.191513025623472 87.393934208837749 0 -1 0 0 
1 5.787568978055349 87.393934208837749 0 0 -1 0 
1 5.787568978055349 55.066775035291101 0 1 0 0 
1 93.70167258416393 55.066775035291101 0 0 1 0 
1 93.70167258416393 82.66313042734312 0 0 1 0 
1 93.70167258416393 100.403644607948 0 0 1 0 
1 93.70167258416393 120.11532703084229 0 1 0 0 
1 130.75963553920522 120.11532703084229 0 0 1 0 
1 154.41365444667838 142.58664499294179 0 -1 0 0 
1 19.191513025623472 142.58664499294179 0 0 -1 0 
1 178.46190700260942 120.11532703084229 0 0 -1 0 
1 178.46190700260942 50.73020490225435 0 0 -1 0 
1 174.12533686957266 13.278008298755184 0 1 0 0 
1 217.49103819994014 13.278008298755184 0 0 -1 0 
1 217.49103819994014 0.66253154810283121 0 1 0 0 
1 250.21243102194467 0.66253154810283121 0 0 1 0 
1 250.21243102194467 94.884373529537584 0 -1 0 0 
1 203.69286050391412 114.201822303974 0 0 -1 0 
1 203.69286050391412 99.220943662574328 0 1 0 0 
1 250.21243102194467 99.220943662574328 0 0 1 0 
1 250.21243102194467 131.1538691876631 0 -1 0 0 
1 135.09620567224195 217.09680455148225 0 0 1 0 
1 135.09620567224195 255.33746845189719 0 1 0 0 
1 171.36570133036747 237.99118791975022 0 0 -1 0 
1 171.36570133036747 217.09680455148225 0 -1 0 0 
1 19.191513025623472 107.10561663173206 0 -1 0 0 
1 14.854942892586728 107.10561663173206 0 0 1 0 
1 14.854942892586728 124.05766351542115 0 1 0 0 
1 98.038242717200674 82.66313042734312 0 -1 0 0 
1 93.70167258416393 100.403644607948 0 1 0 0 
1 98.038242717200674 100.403644607948 0 0 -1 0 
1 178.46190700260942 13.278008298755184 0 -1 0 0 
1 174.12533686957266 13.278008298755184 0 0 1 0 
1 174.12533686957266 50.73020490225435 0 1 0 0 
1 178.06767335415154 50.73020490225435 0 1 0 0 
1 -17.866449929417811 142.58664499294179 0 1 0 0 
1 14.854942892586726 142.58664499294179 0 0 -1 0 
1 14.854942892586726 91.730504341874493 0 -1 0 0 
1 1.4509988450186029 91.730504341874493 0 0 -1 0 
1 1.4509988450186029 87.352018003339069 0 -0.990426781709974 0.13803908892637506 0 
1 -0.42997915949546306 87.614176190929058 0 0.058109511508092043 -0.99831021464887915 0 
1 1.4509988450186031 55.299336387555996 0 0 -1 0 
1 1.4509988450186031 55.066775035291101 0 -1 0 0 
1 -17.866449929417811 55.066775035291101 0 0 1 0 
1 -17.866449929417811 90.044355365825297 0 -0.99042678170997622 0.1380390889263588 0 
1 -30.881628819002138 91.858324322753091 0 0.70710678118655013 0.70710678118654502 0 
1 -17.866449929417811 104.87350321233733 0 0 1 0 
1 98.038242717200674 82.66313042734312 0 0 -1 0 
1 98.038242717200674 66.893784489027681 0 1 0 0 
1 130.75963553920522 66.893784489027681 0 0 1 0 
1 130.75963553920522 115.77875689780554 0 -1 0 0 
1 98.038242717200674 115.77875689780554 0 0 -1 0 
Polygon3D 0
PolygonOnTriangulations 0
Surfaces 44
1 162.88967788852293 144.75493005946015 0 -0 -0 -1 -1 0 0 0 1 -0 
1 132.3669222797453 181.84324516120998 0 -0 -0 -1 -1 0 0 0 1 -0 
1 191.67059394669229 156.18584614399518 0 -0 -0 -1 -1 0 0 0 1 -0 
1 102.17769602600846 175.30803781494632 0 -0 -0 -1 -1 0 0 0 1 -0 
1 102.17769602600846 175.30803781494632 0 -0 -0 -1 -1 0 0 0 1 -0 
1 102.17769602600848 165.64931342772817 0 -0 -0 -1 -1 0 0 0 1 -0 
1 102.17769602600846 155.20212174359415 0 -0 -0 -1 -1 0 0 0 1 -0 
1 76.921385263334528 143.20335272699793 0 -0 -0 -1 -1 0 0 0 1 -0 
1 136.39207312458382 196.8721745953693 0 -0 -0 -1 -1 0 0 0 1 -0 
1 76.921385263334528 143.20335272699793 0 -0 -0 -1 -1 0 0 0 1 -0 
1 132.92792060572356 134.11062155109724 0 -0 -0 -1 -1 0 0 0 1 -0 
1 99.366638706569745 77.392229908361912 0 -0 -0 -1 -1 0 0 0 1 -0 
1 154.61077127090729 87.590901033066672 0 -0 -0 -1 -1 0 0 0 1 -0 
1 186.740813620225 97.052658596055963 0 -0 -0 -1 -1 0 0 0 1 -0 
1 235.2707693403392 93.280262270585482 0 -0 -0 -1 -1 0 0 0 1 -0 
1 201.52457543739573 122.67784574581853 0 -0 -0 -1 -1 0 0 0 1 -0 
1 252.38071608846309 244.69315994353425 0 -0 -0 -1 -1 0 0 0 1 -0 
1 252.38071608846309 244.69315994353425 0 -0 -0 -1 -1 0 0 0 1 -0 
1 212.95735124267441 257.50575351841553 0 -0 -0 -1 -1 0 0 0 1 -0 
1 173.53398639688581 246.66432818582368 0 -0 -0 -1 -1 0 0 0 1 -0 
1 173.53398639688581 246.66432818582368 0 -0 -0 -1 -1 0 0 0 1 -0 
1 173.53398639688584 235.8229028532318 0 -0 -0 -1 -1 0 0 0 1 -0 
1 173.53398639688584 225.3757111690978 0 -0 -0 -1 -1 0 0 0 1 -0 
1 136.39207312458382 196.8721745953693 0 -0 -0 -1 -1 0 0 0 1 -0 
1 83.648714548487831 164.86084613081229 0 -0 -0 -1 -1 0 0 0 1 -0 
1 64.390663697264046 102.70964857548266 0 -0 -0 -1 -1 0 0 0 1 -0 
1 99.366638706569745 77.392229908361912 0 -0 -0 -1 -1 0 0 0 1 -0 
1 186.740813620225 97.052658596055963 0 -0 -0 -1 -1 0 0 0 1 -0 
1 215.79714950127965 49.233433027822826 0 -0 -0 -1 -1 0 0 0 1 -0 
1 226.95264576292942 115.18740642511872 0 -0 -0 -1 -1 0 0 0 1 -0 
1 153.2309535013047 236.21713650168971 0 -0 -0 -1 -1 0 0 0 1 -0 
1 17.0232279591051 115.58164007357662 0 -0 -0 -1 -1 0 0 0 1 -0 
1 99.366638706569745 77.392229908361912 0 -0 -0 -1 -1 0 0 0 1 -0 
1 95.869957650682309 91.533387517645536 0 -0 -0 -1 -1 0 0 0 1 -0 
1 95.869957650682309 91.533387517645536 0 -0 -0 -1 -1 0 0 0 1 -0 
1 76.921385263334528 143.20335272699793 0 -0 -0 -1 -1 0 0 0 1 -0 
1 99.366638706569745 77.392229908361912 0 -0 -0 -1 -1 0 0 0 1 -0 
1 176.29362193609103 32.00410660050477 0 -0 -0 -1 -1 0 0 0 1 -0 
1 235.2707693403392 93.280262270585482 0 -0 -0 -1 -1 0 0 0 1 -0 
1 235.2707693403392 93.280262270585482 0 -0 -0 -1 -1 0 0 0 1 -0 
1 -5.3448731684451829 100.26738785847164 0 -0 -0 -1 -1 0 0 0 1 -0 
1 95.869957650682309 91.533387517645536 0 -0 -0 -1 -1 0 0 0 1 -0 
1 114.39893912820298 91.336270693416623 0 -0 -0 -1 -1 0 0 0 1 -0 
1 99.366638706569745 77.392229908361912 0 -0 -0 -1 -1 0 0 0 1 -0 
Triangulations 0

TShapes 264
Ve
1e-07
154.413654446678 142.586644992942 0
0 0

0101101
*
Ve
1e-07
154.413654446678 146.923215125979 0
0 0

0101101
*
Ed
 1e-07 1 1 0
1  1 0 0 4.33657013303676
2  1 1 0 0 4.33657013303676
0

0101000
+264 0 -263 0 *
Ve
1.0000048316906e-07
171.365701330367 146.923215125979 0
0 0

0101101
*
Ed
 1e-07 1 1 0
1  2 0 0 16.9520468836891
2  2 1 0 0 16.9520468836891
2  3 2 0 0 16.9520468836891
0

0101000
+263 0 -261 0 *
Ve
1e-07
171.365701330367 142.586644992942 0
0 0

0101101
*
Ed
 1e-07 1 1 0
1  3 0 0 4.33657013303676
2  4 1 0 0 4.33657013303676
0

0101000
+261 0 -259 0 *
Ed
 1e-07 1 1 0
1  4 0 0 16.9520468836891
2  5 1 0 0 16.9520468836891
2  6 3 0 0 16.9520468836891
0

0101000
+259 0 -264 0 *
Wi

0101100
+262 0 +260 0 +258 0 +257 0 *
Fa
0  1e-07 1 0

0111000
+256 0 *
Ve
1e-07
104.345981092527 182.798477135646 0
0 0

0101101
*
Ve
1e-07
104.345981092527 167.817598494247 0
0 0

0101101
*
Ed
 1e-07 1 1 0
1  5 0 0 14.9808786413996
2  7 4 0 0 14.9808786413996
2  8 2 0 0 14.9808786413996
2  9 5 0 0 14.9808786413996
0

0101000
+254 0 -253 0 *
Ve
1e-07
104.345981092527 163.48102836121 0
0 0

0101101
*
Ed
 1e-07 1 1 0
1  6 0 0 4.33657013303676
2  10 6 0 0 4.33657013303676
2  11 2 0 0 4.33657013303676
0

0101000
+253 0 -251 0 *
Ve
1.00000454969341e-07
104.345981092527 146.923215125979 0
0 0

0101101
*
Ed
 1e-07 1 1 0
1  7 0 0 16.5578132352312
2  12 7 0 0 16.5578132352312
2  13 2 0 0 16.5578132352312
0

0101000
+251 0 -249 0 *
Ed
 1e-07 1 1 0
1  8 0 89.4910381999403 139.558711554092
2  14 8 0 89.4910381999403 139.558711554092
2  15 2 0 89.4910381999403 139.558711554092
0

0101000
+249 0 -263 0 *
Ve
1e-07
171.365701330367 212.760234418445 0
0 0

0101101
*
Ed
 1e-07 1 1 0
1  9 0 4.33657013303721 70.1735894255037
2  16 9 0 4.33657013303721 70.1735894255037
2  17 2 0 4.33657013303721 70.1735894255037
0

0101000
+261 0 -246 0 *
Ve
1e-07
89.3651024511272 212.760234418445 0
0 0

0101101
*
Ed
 1e-07 1 1 0
1  10 0 0 82.0005988792403
2  18 9 0 0 82.0005988792403
2  19 2 0 0 82.0005988792403
0

0101000
+246 0 -244 0 *
Ve
1e-07
89.3651024511272 187.135047268683 0
0 0

0101101
*
Ed
 1e-07 1 1 0
1  11 0 0 25.6251871497626
2  20 9 0 0 25.6251871497626
2  21 2 0 0 25.6251871497626
0

0101000
+244 0 -242 0 *
Ve
1e-07
104.345981092527 187.135047268683 0
0 0

0101101
*
Ed
 1e-07 1 1 0
1  12 0 0 14.9808786413997
2  22 9 0 0 14.9808786413997
2  23 2 0 0 14.9808786413997
0

0101000
+242 0 -240 0 *
Ed
 1e-07 1 1 0
1  13 0 0 4.33657013303676
2  24 9 0 0 4.33657013303676
2  25 2 0 0 4.33657013303676
0

0101000
+240 0 -254 0 *
Wi

0101100
-252 0 -250 0 -248 0 -247 0 -260 0 -245 0 -243 0 -241 0 -239 0 -238 0 
*
Fa
0  1e-07 2 0

0101000
+237 0 *
Ve
1.00000227373675e-07
135.096205672242 142.586644992942 0
0 0

0101101
*
Ed
 1e-07 1 1 0
1  14 0 0 19.3174487744364
2  26 10 0 0 19.3174487744364
2  27 3 0 0 19.3174487744364
0

0101000
+264 0 -235 0 *
Ve
1e-07
135.096205672242 125.634598109253 0
0 0

0101101
*
Ed
 1e-07 1 1 0
1  15 0 0 16.9520468836891
2  28 11 0 0 16.9520468836891
2  29 3 0 0 16.9520468836891
0

0101000
+235 0 -233 0 *
Ve
1e-07
135.096205672242 120.115127030842 0
0 0

0101101
*
Ed
 1e-07 1 1 0
1  16 0 0 5.5194710784104
2  30 12 0 0 5.5194710784104
2  31 3 0 0 5.5194710784104
0

0101000
+233 0 -231 0 *
Ve
1e-07
174.125336869573 120.115127030842 0
0 0

0101101
*
Ed
 1e-07 1 1 0
1  17 0 0.00010000000000332 39.0292311973307
2  32 13 0 0.00010000000000332 39.0292311973307
2  33 3 0 0.00010000000000332 39.0292311973307
0

0101000
+231 0 -229 0 *
Ve
1e-07
174.125336869573 120.115327030842 0
0 0

0101101
*
Ed
 1e-07 1 1 0
1  18 0 65.0483519955512 65.0485519955512
2  34 12 0 65.0483519955512 65.0485519955512
2  35 3 0 65.0483519955512 65.0485519955512
0

0101000
+229 0 -227 0 *
Ve
1e-07
178.461907002609 120.115327030842 0
0 0

0101101
*
Ed
 1e-07 1 1 0
1  19 0 0 4.33657013303676
2  36 12 0 0 4.33657013303676
2  37 3 0 0 4.33657013303676
0

0101000
+227 0 -225 0 *
Ve
1.00000426325641e-07
178.461907002609 99.2209436625743 0
0 0

0101101
*
Ed
 1e-07 1 1 0
1  20 0 0 20.894383368268
2  38 12 0 0 20.894383368268
2  39 3 0 0 20.894383368268
0

0101000
+225 0 -223 0 *
Ve
1e-07
195.019720237841 99.2209436625743 0
0 0

0101101
*
Ed
 1e-07 1 1 0
1  21 0 0 16.5578132352312
2  40 14 0 0 16.5578132352312
2  41 3 0 0 16.5578132352312
0

0101000
+223 0 -221 0 *
Ve
1e-07
199.356290370877 99.2209436625743 0
0 0

0101101
*
Ed
 1e-07 1 1 0
1  22 0 0 4.33657013303676
2  42 15 0 0 4.33657013303676
2  43 3 0 0 4.33657013303676
0

0101000
+221 0 -219 0 *
Ve
1e-07
199.356290370877 114.201822303974 0
0 0

0101101
*
Ed
 1e-07 1 1 0
1  23 0 0 14.9808786413997
2  44 15 0 0 14.9808786413997
2  45 3 0 0 14.9808786413997
0

0101000
+219 0 -217 0 *
Ve
1e-07
199.356290370877 131.153869187663 0
0 0

0101101
*
Ed
 1e-07 1 1 0
1  24 0 0 16.9520468836891
2  46 16 0 0 16.9520468836891
2  47 3 0 0 16.9520468836891
0

0101000
+217 0 -215 0 *
Ve
1e-07
199.356290370877 135.4904393207 0
0 0

0101101
*
Ed
 1e-07 1 1 0
1  25 0 0 4.33657013303673
2  48 15 0 0 4.33657013303673
2  49 3 0 0 4.33657013303673
0

0101000
+215 0 -213 0 *
Ve
1e-07
250.212431021945 135.4904393207 0
0 0

0101101
*
Ed
 1e-07 1 1 0
1  26 0 0 50.8561406510673
2  50 15 0 0 50.8561406510673
2  51 3 0 0 50.8561406510673
0

0101000
+213 0 -211 0 *
Ve
1e-07
250.212431021945 234.048851435171 0
0 0

0101101
*
Ed
 1e-07 1 1 0
1  27 0 0 98.5584121144715
2  52 15 0 0 98.5584121144715
2  53 3 0 0 98.5584121144715
0

0101000
+211 0 -209 0 *
Ve
1.00000198951966e-07
250.212431021945 255.337468451897 0
0 0

0101101
*
Ed
 1e-07 1 1 0
1  28 0 0 21.2886170167259
2  54 17 0 0 21.2886170167259
2  55 3 0 0 21.2886170167259
2  56 18 0 0 21.2886170167259
0

0101000
+209 0 -207 0 *
Ve
1.00000198951966e-07
175.702271463404 255.337468451897 0
0 0

0101101
*
Ed
 1e-07 1 1 0
1  29 0 4.33657013303642 78.8467296915774
2  57 19 0 4.33657013303642 78.8467296915774
2  58 3 0 4.33657013303642 78.8467296915774
0

0101000
+207 0 -205 0 *
Ve
1e-07
175.702271463404 237.99118791975 0
0 0

0101101
*
Ed
 1e-07 1 1 0
1  30 0 0 17.346280532147
2  59 20 0 0 17.346280532147
2  60 3 0 0 17.346280532147
2  61 21 0 0 17.346280532147
0

0101000
+205 0 -203 0 *
Ve
1e-07
175.702271463404 233.654617786713 0
0 0

0101101
*
Ed
 1e-07 1 1 0
1  31 0 0 4.33657013303676
2  62 22 0 0 4.33657013303676
2  63 3 0 0 4.33657013303676
0

0101000
+203 0 -201 0 *
Ve
1e-07
175.702271463404 217.096804551482 0
0 0

0101101
*
Ed
 1e-07 1 1 0
1  32 0 0 16.5578132352312
2  64 23 0 0 16.5578132352312
2  65 3 0 0 16.5578132352312
0

0101000
+201 0 -199 0 *
Ve
1e-07
175.702271463404 142.586644992942 0
0 0

0101101
*
Ed
 1e-07 1 1 0
1  33 0 0 74.5101595585405
2  66 24 0 0 74.5101595585405
2  67 3 0 0 74.5101595585405
0

0101000
+199 0 -197 0 *
Ed
 1e-07 1 1 0
1  34 0 0 4.33657013303673
2  68 24 0 0 4.33657013303673
2  69 3 0 0 4.33657013303673
0

0101000
+197 0 -259 0 *
Wi

0101100
-234 0 -232 0 -230 0 -228 0 -226 0 -224 0 -222 0 -220 0 -218 0 -216 0 
-214 0 -212 0 -210 0 -208 0 -206 0 -204 0 -202 0 -200 0 -198 0 -196 0 
-195 0 -257 0 *
Fa
0  1e-07 3 0

0101000
+194 0 *
Ve
1.00000086732794e-07
100.00941095949 182.798477135646 0
0 0

0101101
*
Ve
1.00000320611496e-07
100.00941095949 167.817598494247 0
0 0

0101101
*
Ed
 1e-07 1 1 0
1  35 0 0 14.9808786413996
2  70 25 0 0 14.9808786413996
2  71 5 0 0 14.9808786413996
0

0101000
+192 0 -191 0 *
Ed
 1e-07 1 1 0
1  36 0 0 4.33657013303676
2  72 5 0 0 4.33657013303676
0

0101000
+192 0 -254 0 *
Ed
 1e-07 1 1 0
1  37 0 0 4.33657013303676
2  73 5 0 0 4.33657013303676
0

0101000
+253 0 -191 0 *
Wi

0101100
-190 0 +189 0 +252 0 +188 0 *
Fa
0  1e-07 5 0

0111000
+187 0 *
Ve
1.00000232750201e-07
100.00941095949 146.923215125979 0
0 0

0101101
*
Ed
 1e-07 1 1 0
1  38 0 0 4.33657013303676
2  74 7 0 0 4.33657013303676
0

0101000
+249 0 -185 0 *
Ve
1.00000184741111e-07
100.00941095949 163.48102836121 0
0 0

0101101
*
Ed
 1e-07 1 1 0
1  39 0 0 16.5578132352312
2  75 7 0 0 16.5578132352312
2  76 25 0 0 16.5578132352312
0

0101000
+185 0 -183 0 *
Ed
 1e-07 1 1 0
1  40 0 0 4.33657013303676
2  77 7 0 0 4.33657013303676
0

0101000
+183 0 -251 0 *
Wi

0101100
+248 0 +184 0 +182 0 +181 0 *
Fa
0  1e-07 7 0

0111000
+180 0 *
Ve
1e-07
130.759635539205 125.634598109253 0
0 0

0101101
*
Ed
 1e-07 1 1 0
1  41 0 0 4.33657013303673
2  78 11 0 0 4.33657013303673
0

0101000
+233 0 -178 0 *
Ve
1.00000227373675e-07
130.759635539205 142.586644992942 0
0 0

0101101
*
Ed
 1e-07 1 1 0
1  42 0 0 16.9520468836891
2  79 11 0 0 16.9520468836891
2  80 26 0 0 16.9520468836891
0

0101000
+178 0 -176 0 *
Ed
 1e-07 1 1 0
1  43 0 0 4.33657013303673
2  81 11 0 0 4.33657013303673
0

0101000
+176 0 -235 0 *
Wi

0101100
+177 0 +175 0 +174 0 +232 0 *
Fa
0  1e-07 11 0

0111000
+173 0 *
Ve
1e-07
135.096205672242 55.0667750352911 0
0 0

0101101
*
Ed
 1e-07 1 1 0
1  44 0 5.5194710784104 70.5678230739616
2  82 27 0 5.5194710784104 70.5678230739616
2  83 13 0 5.5194710784104 70.5678230739616
0

0101000
+231 0 -171 0 *
Ve
1e-07
174.125336869573 55.0667750352911 0
0 0

0101101
*
Ed
 1e-07 1 1 0
1  45 0 0 39.0291311973307
2  84 27 0 0 39.0291311973307
2  85 13 0 0 39.0291311973307
0

0101000
+171 0 -169 0 *
Ed
 1e-07 1 1 0
1  46 0 0 65.0483519955512
2  86 27 0 0 65.0483519955512
2  87 13 0 0 65.0483519955512
0

0101000
+169 0 -229 0 *
Wi

0101100
+228 0 -170 0 -168 0 -167 0 *
Fa
0  1e-07 13 0

0101000
+166 0 *
Ve
1.00000426325641e-07
178.461907002609 94.8843735295376 0
0 0

0101101
*
Ed
 1e-07 1 1 0
1  47 0 0 4.33657013303674
2  88 14 0 0 4.33657013303674
0

0101000
+164 0 -223 0 *
Ve
1e-07
195.019720237841 94.8843735295376 0
0 0

0101101
*
Ed
 1e-07 1 1 0
1  48 0 0 4.33657013303674
2  89 14 0 0 4.33657013303674
0

0101000
+221 0 -162 0 *
Ed
 1e-07 1 1 0
1  49 0 0 16.5578132352312
2  90 28 0 0 16.5578132352312
2  91 29 0 0 16.5578132352312
2  92 14 0 0 16.5578132352312
0

0101000
+162 0 -164 0 *
Wi

0101100
+163 0 +220 0 +161 0 +160 0 *
Fa
0  1e-07 14 0

0111000
+159 0 *
Ve
1e-07
203.692860503914 114.201822303974 0
0 0

0101101
*
Ed
 1e-07 1 1 0
1  50 0 0 4.33657013303673
2  93 16 0 0 4.33657013303673
0

0101000
+157 0 -217 0 *
Ve
1.00000113686838e-07
203.692860503914 131.153869187663 0
0 0

0101101
*
Ed
 1e-07 1 1 0
1  51 0 0 4.33657013303673
2  94 16 0 0 4.33657013303673
0

0101000
+215 0 -155 0 *
Ed
 1e-07 1 1 0
1  52 0 0 16.9520468836891
2  95 16 0 0 16.9520468836891
2  96 30 0 0 16.9520468836891
0

0101000
+155 0 -157 0 *
Wi

0101100
+156 0 +214 0 +154 0 +153 0 *
Fa
0  1e-07 16 0

0111000
+152 0 *
Ve
1e-07
254.549001154981 234.048851435171 0
0 0

0101101
*
Ed
 1e-07 1 1 0
1  53 0 0 4.33657013303676
2  97 18 0 0 4.33657013303676
0

0101000
+150 0 -209 0 *
Ve
1e-07
254.549001154981 255.337468451897 0
0 0

0101101
*
Ed
 1e-07 1 1 0
1  54 0 0 4.33657013303676
2  98 18 0 0 4.33657013303676
0

0101000
+207 0 -148 0 *
Ed
 1e-07 1 1 0
1  55 0 0 21.2886170167259
2  99 18 0 0 21.2886170167259
0

0101000
+148 0 -150 0 *
Wi

0101100
+149 0 +206 0 +147 0 +146 0 *
Fa
0  1e-07 18 0

0111000
+145 0 *
Ve
1.00000343420822e-07
171.365701330367 255.337468451897 0
0 0

0101101
*
Ve
1.00000356122998e-07
171.365701330367 237.99118791975 0
0 0

0101101
*
Ed
 1e-07 1 1 0
1  56 0 0 17.346280532147
2  100 31 0 0 17.346280532147
2  101 21 0 0 17.346280532147
0

0101000
+143 0 -142 0 *
Ed
 1e-07 1 1 0
1  57 0 0 4.33657013303673
2  102 21 0 0 4.33657013303673
0

0101000
+143 0 -205 0 *
Ed
 1e-07 1 1 0
1  58 0 0 4.33657013303673
2  103 21 0 0 4.33657013303673
0

0101000
+203 0 -142 0 *
Wi

0101100
-141 0 +140 0 +202 0 +139 0 *
Fa
0  1e-07 21 0

0111000
+138 0 *
Ve
1.00000273351248e-07
171.365701330367 217.096804551482 0
0 0

0101101
*
Ed
 1e-07 1 1 0
1  59 0 0 4.33657013303673
2  104 23 0 0 4.33657013303673
0

0101000
+199 0 -136 0 *
Ve
1.00000442138036e-07
171.365701330367 233.654617786713 0
0 0

0101101
*
Ed
 1e-07 1 1 0
1  60 0 0 16.5578132352312
2  105 23 0 0 16.5578132352312
2  106 31 0 0 16.5578132352312
0

0101000
+136 0 -134 0 *
Ed
 1e-07 1 1 0
1  61 0 0 4.33657013303673
2  107 23 0 0 4.33657013303673
0

0101000
+134 0 -201 0 *
Wi

0101100
+198 0 +135 0 +133 0 +132 0 *
Fa
0  1e-07 23 0

0111000
+131 0 *
Ve
1.00000014210855e-07
67.2880181374856 146.923215125979 0
0 0

0101101
*
Ve
1e-07
67.2880181374856 182.798477135646 0
0 0

0101101
*
Ed
 1e-07 1 1 0
1  62 0 0 35.8752620096676
2  108 25 0 0 35.8752620096676
0

0101000
+129 0 -128 0 *
Ve
1.00000074182839e-07
85.0285323180904 182.798477135646 0
0 0

0101101
*
Ed
 1e-07 1 1 0
1  63 0 0 17.7405141806049
2  109 25 0 0 17.7405141806049
0

0101000
+128 0 -126 0 *
Ed
 1e-07 1 1 0
1  64 0 0 14.9808786413997
2  110 25 0 0 14.9808786413997
0

0101000
+126 0 -192 0 *
Ed
 1e-07 1 1 0
1  65 0 0 4.33657013303676
2  111 25 0 0 4.33657013303676
0

0101000
+191 0 -183 0 *
Ed
 1.00000014210855e-07 1 1 0
1  66 0 0 32.7213928220045
2  112 25 0 0 32.7213928220045
0

0101000
+185 0 -129 0 *
Wi

0101100
+127 0 +125 0 +124 0 +190 0 +123 0 -182 0 +122 0 *
Fa
0  1e-07 25 0

0111000
+121 0 *
Ve
1e-07
19.1915130256235 124.057663515421 0
0 0

0101101
*
Ve
1e-07
19.1915130256235 107.105616631732 0
0 0

0101101
*
Ed
 1e-07 1 1 0
1  67 0 0 16.9520468836891
2  113 32 0 0 16.9520468836891
2  114 26 0 0 16.9520468836891
0

0101000
+119 0 -118 0 *
Ve
1e-07
19.1915130256235 87.3939342088377 0
0 0

0101101
*
Ed
 1e-07 1 1 0
1  68 0 0 19.7116824228943
2  115 33 0 0 19.7116824228943
2  116 26 0 0 19.7116824228943
0

0101000
+118 0 -116 0 *
Ve
1e-07
5.78756897805535 87.3939342088377 0
0 0

0101101
*
Ed
 1e-07 1 1 0
1  69 0 0 13.4039440475681
2  117 33 0 0 13.4039440475681
2  118 26 0 0 13.4039440475681
0

0101000
+116 0 -114 0 *
Ve
1e-07
5.78756897805535 55.0667750352911 0
0 0

0101101
*
Ed
 1e-07 1 1 0
1  70 0 0 32.3271591735466
2  119 33 0 0 32.3271591735466
2  120 26 0 0 32.3271591735466
0

0101000
+114 0 -112 0 *
Ve
1e-07
93.7016725841639 55.0667750352911 0
0 0

0101101
*
Ed
 1e-07 1 1 0
1  71 0 0 87.9141036061086
2  121 33 0 0 87.9141036061086
2  122 26 0 0 87.9141036061086
0

0101000
+112 0 -110 0 *
Ve
1e-07
93.7016725841639 82.6631304273431 0
0 0

0101101
*
Ed
 1e-07 1 1 0
1  72 0 0 27.596355392052
2  123 33 0 0 27.596355392052
2  124 26 0 0 27.596355392052
0

0101000
+110 0 -108 0 *
Ve
1e-07
93.7016725841639 100.403644607948 0
0 0

0101101
*
Ed
 1e-07 1 1 0
1  73 0 0 17.7405141806049
2  125 34 0 0 17.7405141806049
2  126 26 0 0 17.7405141806049
2  127 35 0 0 17.7405141806049
0

0101000
+108 0 -106 0 *
Ve
1e-07
93.7016725841639 120.115327030842 0
0 0

0101101
*
Ed
 1e-07 1 1 0
1  74 0 0 19.7116824228943
2  128 33 0 0 19.7116824228943
2  129 26 0 0 19.7116824228943
0

0101000
+106 0 -104 0 *
Ve
1e-07
130.759635539205 120.115327030842 0
0 0

0101101
*
Ed
 1e-07 1 1 0
1  75 0 0 37.0579629550413
2  130 33 0 0 37.0579629550413
2  131 26 0 0 37.0579629550413
0

0101000
+104 0 -102 0 *
Ed
 1e-07 1 1 0
1  76 0 0 5.5192710784104
2  132 33 0 0 5.5192710784104
2  133 26 0 0 5.5192710784104
0

0101000
+102 0 -178 0 *
Ve
1e-07
19.1915130256235 142.586644992942 0
0 0

0101101
*
Ed
 1e-07 1 1 0
1  77 0 23.6540189074734 135.222141421055
2  134 36 0 23.6540189074734 135.222141421055
2  135 26 0 23.6540189074734 135.222141421055
0

0101000
+176 0 -99 0 *
Ed
 1e-07 1 1 0
1  78 0 0 18.5289814775206
2  136 36 0 0 18.5289814775206
2  137 26 0 0 18.5289814775206
0

0101000
+99 0 -119 0 *
Wi

0101100
-117 0 -115 0 -113 0 -111 0 -109 0 -107 0 -105 0 -103 0 -101 0 -100 0 
-175 0 -98 0 -97 0 *
Fa
0  1e-07 26 0

0101000
+96 0 *
Ve
1e-07
178.461907002609 50.7302049022543 0
0 0

0101101
*
Ed
 1e-07 1 1 0
1  79 0 25.2309535013047 69.3851221285879
2  138 37 0 25.2309535013047 69.3851221285879
2  139 29 0 25.2309535013047 69.3851221285879
0

0101000
+164 0 -94 0 *
Ve
1.00000015987212e-07
178.461907002609 13.2780082987552 0
0 0

0101101
*
Ed
 1e-07 1 1 0
1  80 0 0 37.4521966034992
2  140 38 0 0 37.4521966034992
2  141 29 0 0 37.4521966034992
0

0101000
+94 0 -92 0 *
Ve
1e-07
217.49103819994 13.2780082987552 0
0 0

0101101
*
Ed
 1e-07 1 1 0
1  81 0 4.33657013303633 43.3657013303675
2  142 39 0 4.33657013303633 43.3657013303675
2  143 29 0 4.33657013303633 43.3657013303675
0

0101000
+92 0 -90 0 *
Ve
1e-07
217.49103819994 0.662531548102831 0
0 0

0101101
*
Ed
 1e-07 1 1 0
1  82 0 0 12.6154767506524
2  144 39 0 0 12.6154767506524
2  145 29 0 0 12.6154767506524
0

0101000
+90 0 -88 0 *
Ve
1e-07
250.212431021945 0.662531548102831 0
0 0

0101101
*
Ed
 1e-07 1 1 0
1  83 0 0 32.7213928220045
2  146 39 0 0 32.7213928220045
2  147 29 0 0 32.7213928220045
0

0101000
+88 0 -86 0 *
Ve
1e-07
250.212431021945 94.8843735295376 0
0 0

0101101
*
Ed
 1e-07 1 1 0
1  84 0 0 94.2218419814347
2  148 39 0 0 94.2218419814347
2  149 29 0 0 94.2218419814347
0

0101000
+86 0 -84 0 *
Ed
 1e-07 1 1 0
1  85 0 0 55.192710784104
2  150 39 0 0 55.192710784104
2  151 29 0 0 55.192710784104
0

0101000
+84 0 -162 0 *
Wi

0101100
-93 0 -91 0 -89 0 -87 0 -85 0 -83 0 -82 0 -160 0 *
Fa
0  1e-07 29 0

0101000
+81 0 *
Ve
1e-07
203.692860503914 99.2209436625743 0
0 0

0101101
*
Ed
 1e-07 1 1 0
1  86 0 0 14.9808786413997
2  152 40 0 0 14.9808786413997
2  153 30 0 0 14.9808786413997
0

0101000
+157 0 -79 0 *
Ve
1e-07
250.212431021945 99.2209436625743 0
0 0

0101101
*
Ed
 1e-07 1 1 0
1  87 0 0 46.5195705180305
2  154 40 0 0 46.5195705180305
2  155 30 0 0 46.5195705180305
0

0101000
+79 0 -77 0 *
Ve
1e-07
250.212431021945 131.153869187663 0
0 0

0101101
*
Ed
 1e-07 1 1 0
1  88 0 0 31.9329255250888
2  156 40 0 0 31.9329255250888
2  157 30 0 0 31.9329255250888
0

0101000
+77 0 -75 0 *
Ed
 1e-07 1 1 0
1  89 0 0 46.5195705180307
2  158 40 0 0 46.5195705180307
2  159 30 0 0 46.5195705180307
0

0101000
+75 0 -155 0 *
Wi

0101100
-78 0 -76 0 -74 0 -73 0 -153 0 *
Fa
0  1e-07 30 0

0101000
+72 0 *
Ve
1e-07
135.096205672242 217.096804551482 0
0 0

0101101
*
Ve
1e-07
135.096205672242 255.337468451897 0
0 0

0101101
*
Ed
 1e-07 1 1 0
1  90 0 0 38.2406639004149
2  160 31 0 0 38.2406639004149
0

0101000
+70 0 -69 0 *
Ed
 1e-07 1 1 0
1  91 0 0 36.2694956581255
2  161 31 0 0 36.2694956581255
0

0101000
+69 0 -143 0 *
Ed
 1e-07 1 1 0
1  92 0 0 4.33657013303676
2  162 31 0 0 4.33657013303676
0

0101000
+142 0 -134 0 *
Ed
 1e-07 1 1 0
1  93 0 0 36.2694956581255
2  163 31 0 0 36.2694956581255
0

0101000
+136 0 -70 0 *
Wi

0101100
+68 0 +67 0 +141 0 +66 0 -133 0 +65 0 *
Fa
0  1e-07 31 0

0111000
+64 0 *
Ve
1.00000024868996e-07
14.8549428925867 107.105616631732 0
0 0

0101101
*
Ed
 1e-07 1 1 0
1  94 0 0 4.33657013303674
2  164 32 0 0 4.33657013303674
0

0101000
+118 0 -62 0 *
Ve
1.00000024868996e-07
14.8549428925867 124.057663515421 0
0 0

0101101
*
Ed
 1.00000003552714e-07 1 1 0
1  95 0 0 16.9520468836891
2  165 32 0 0 16.9520468836891
2  166 41 0 0 16.9520468836891
0

0101000
+62 0 -60 0 *
Ed
 1e-07 1 1 0
1  96 0 0 4.33657013303674
2  167 32 0 0 4.33657013303674
0

0101000
+60 0 -119 0 *
Wi

0101100
+61 0 +59 0 +58 0 +117 0 *
Fa
0  1e-07 32 0

0111000
+57 0 *
Ve
1e-07
98.0382427172007 82.6631304273431 0
0 0

0101101
*
Ed
 1e-07 1 1 0
1  97 0 0 4.33657013303674
2  168 35 0 0 4.33657013303674
0

0101000
+55 0 -108 0 *
Ve
1e-07
98.0382427172007 100.403644607948 0
0 0

0101101
*
Ed
 1e-07 1 1 0
1  98 0 0 4.33657013303674
2  169 35 0 0 4.33657013303674
0

0101000
+106 0 -53 0 *
Ed
 1e-07 1 1 0
1  99 0 0 17.7405141806049
2  170 42 0 0 17.7405141806049
2  171 43 0 0 17.7405141806049
2  172 35 0 0 17.7405141806049
0

0101000
+53 0 -55 0 *
Wi

0101100
+54 0 +105 0 +52 0 +51 0 *
Fa
0  1e-07 35 0

0111000
+50 0 *
Ve
1e-07
174.125336869573 13.2780082987552 0
0 0

0101101
*
Ed
 1e-07 1 1 0
1  100 0 0 4.33657013303676
2  173 38 0 0 4.33657013303676
0

0101000
+92 0 -48 0 *
Ve
1e-07
174.125336869573 50.7302049022543 0
0 0

0101101
*
Ed
 1e-07 1 1 0
1  101 0 0 37.4521966034992
2  174 38 0 0 37.4521966034992
0

0101000
+48 0 -46 0 *
Ve
1e-07
178.067673354152 50.7302049022543 0
0 0

0101101
*
Ed
 1e-07 1 1 0
1  102 0 0 3.94233648457887
2  175 38 0 0 3.94233648457887
0

0101000
+46 0 -44 0 *
Ed
 1e-07 1 1 0
1  103 0 0 0.394233648457885
2  176 38 0 0 0.394233648457885
0

0101000
+44 0 -94 0 *
Wi

0101100
+47 0 +45 0 +43 0 +42 0 +91 0 *
Fa
0  1e-07 38 0

0111000
+41 0 *
Ve
1e-07
-17.8664499294178 142.586644992942 0
0 0

0101101
*
Ve
1.00000001776357e-07
14.8549428925867 142.586644992942 0
0 0

0101101
*
Ed
 1e-07 1 1 0
1  104 0 0 32.7213928220045
2  177 41 0 0 32.7213928220045
0

0101000
+39 0 -38 0 *
Ed
 1.00000001776357e-07 1 1 0
1  105 0 0 18.5289814775208
2  178 41 0 0 18.5289814775208
0

0101000
+38 0 -60 0 *
Ve
1.00000012434498e-07
14.8549428925867 91.7305043418745 0
0 0

0101101
*
Ed
 1.00000001776357e-07 1 1 0
1  105 0 35.4810283612098 50.8561406510673
2  178 41 0 35.4810283612098 50.8561406510673
0

0101000
+62 0 -35 0 *
Ve
1.00000001498801e-07
1.4509988450186 91.7305043418745 0
0 0

0101101
*
Ed
 1e-07 1 1 0
1  106 0 0 13.4039440475681
2  179 41 0 0 13.4039440475681
0

0101000
+35 0 -33 0 *
Ve
1.00000000222045e-07
1.4509988450186 87.3520180033391 0
0 0

0101101
*
Ed
 1.00000000222045e-07 1 1 0
1  107 0 0 4.37848633853542
2  180 41 0 0 4.37848633853542
0

0101000
+33 0 -31 0 *
Ve
1e-07
-0.429979159495463 87.6141761909291 0
0 0

0101101
*
Ed
 1e-07 1 1 0
1  108 0 0 1.89915906884763
2  181 41 0 0 1.89915906884763
0

0101000
+31 0 -29 0 *
Ve
1e-07
1.4509988450186 55.299336387556 0
0 0

0101101
*
Ed
 1e-07 1 1 0
1  109 0 0 32.3695373734493
2  182 41 0 0 32.3695373734493
0

0101000
+29 0 -27 0 *
Ve
1e-07
1.4509988450186 55.0667750352911 0
0 0

0101101
*
Ed
 1e-07 1 1 0
1  110 0 0 0.232561352264895
2  183 41 0 0 0.232561352264895
0

0101000
+27 0 -25 0 *
Ve
1e-07
-17.8664499294178 55.0667750352911 0
0 0

0101101
*
Ed
 1e-07 1 1 0
1  111 0 0 19.3174487744364
2  184 41 0 0 19.3174487744364
0

0101000
+25 0 -23 0 *
Ve
1e-07
-17.8664499294178 90.0443553658253 0
0 0

0101101
*
Ed
 1e-07 1 1 0
1  112 0 0 34.9775803305342
2  185 41 0 0 34.9775803305342
0

0101000
+23 0 -21 0 *
Ve
1e-07
-30.8816288190021 91.8583243227531 0
0 0

0101101
*
Ed
 1e-07 1 1 0
1  113 0 0 13.1409803631456
2  186 41 0 0 13.1409803631456
0

0101000
+21 0 -19 0 *
Ve
1e-07
-17.8664499294178 104.873503212337 0
0 0

0101101
*
Ed
 1e-07 1 1 0
1  114 0 0 18.4062425023621
2  187 41 0 0 18.4062425023621
0

0101000
+19 0 -17 0 *
Ed
 1e-07 1 1 0
1  115 0 0 37.7131417806045
2  188 41 0 0 37.7131417806045
0

0101000
+17 0 -39 0 *
Wi

0101100
+37 0 +36 0 -59 0 +34 0 +32 0 +30 0 +28 0 +26 0 +24 0 +22 0 
+20 0 +18 0 +16 0 +15 0 *
Fa
0  1e-07 41 0

0111000
+14 0 *
Ve
1e-07
98.0382427172007 66.8937844890277 0
0 0

0101101
*
Ed
 1e-07 1 1 0
1  116 0 0 15.7693459383154
2  189 44 0 0 15.7693459383154
2  190 43 0 0 15.7693459383154
0

0101000
+55 0 -12 0 *
Ve
1e-07
130.759635539205 66.8937844890277 0
0 0

0101101
*
Ed
 1e-07 1 1 0
1  117 0 0 32.7213928220045
2  191 44 0 0 32.7213928220045
2  192 43 0 0 32.7213928220045
0

0101000
+12 0 -10 0 *
Ve
1e-07
130.759635539205 115.778756897806 0
0 0

0101101
*
Ed
 1e-07 1 1 0
1  118 0 0 48.8849724087779
2  193 44 0 0 48.8849724087779
2  194 43 0 0 48.8849724087779
0

0101000
+10 0 -8 0 *
Ve
1e-07
98.0382427172007 115.778756897806 0
0 0

0101101
*
Ed
 1e-07 1 1 0
1  119 0 0 32.7213928220045
2  195 44 0 0 32.7213928220045
2  196 43 0 0 32.7213928220045
0

0101000
+8 0 -6 0 *
Ed
 1e-07 1 1 0
1  120 0 0 15.3751122898575
2  197 44 0 0 15.3751122898575
2  198 43 0 0 15.3751122898575
0

0101000
+6 0 -53 0 *
Wi

0101100
-11 0 -9 0 -7 0 -5 0 -4 0 -51 0 *
Fa
0  1e-07 43 0

0101000
+3 0 *
Sh

0101000
+255 0 +236 0 +193 0 +186 0 +179 0 +172 0 +165 0 +158 0 +151 0 +144 0 
+137 0 +130 0 +120 0 +95 0 +80 0 +71 0 +63 0 +56 0 +49 0 +40 0 
+13 0 +2 0 *

+1 0 