
CASCADE Topology V3, (c) Open Cascade
Locations 0
Curve2ds 153
1 -7.5 -68.5 1 0 
1 7.5 -68.5 0 1 
1 -136.5 -75.5 0 1 
1 7.5 68.5 -1 0 
1 -7.5 68.5 0 -1 
1 -16.784023668639065 -97.417159763313634 0 1 
1 -136.5 61.5 0 1 
1 -16.784023668639065 -21.417159763313634 1 0 
1 -136.5 137.5 1 0 
1 -37.5 -7.5 1 0 
1 -22.5 137.5 1 0 
1 -37.5 -7.5 1 0 
1 -5.421875 -67.421875 1 0 
1 52.5 137.5 1 0 
1 -7.5 36.5 0 -1 
1 136.5 137.5 0 -1 
1 -7.5 36.5 0 -1 
1 40.747519294377071 222.19680264608598 0 -1 
1 136.5 64.5 0 -1 
1 40.747519294377071 20.196802646085985 -1 0 
1 136.5 -137.5 -1 0 
1 -232.25248070562293 20.196802646085985 0 1 
1 -136.5 -137.5 0 1 
1 37.5 -7.5 0 1 
1 37.5 -6.5 0 1 
1 37.5 7.5 -1 0 
1 94.5 -51.5 -1 0 
1 37.5 7.5 -1 0 
1 -37.5 7.5 0 -1 
1 -7.5 -36.5 1 0 
1 7.5 -36.5 0 1 
1 -201.39777293102321 93.910799410477466 0 1 
1 7.5 -36.5 0 1 
1 7.5 36.5 -1 0 
1 -126.421875 50.578125 1 0 
1 -26.5 51.5 1 0 
1 -5.421875 50.578125 0 -1 
1 94.5 51.5 0 -1 
1 97.215976331360935 -6.4171597633136344 -1 0 
1 19.5 -51.5 -1 0 
1 -16.784023668639065 -6.4171597633136344 0 1 
1 -94.5 -51.5 0 1 
1 -34 -7.5 1 0 
1 -94.5 51.5 1 0 
1 -34 -7.5 1 0 
1 -7.5 36 0 -1 
1 74.602227068976788 6.9107994104774662 0 -1 
1 -7.5 36 0 -1 
1 -172.28980891719746 111.13503184713375 0 -1 
1 74.602227068976788 -65.089200589522534 0 -1 
1 45.5 7.5 -1 0 
1 74.602227068976788 -248.08920058952253 -1 0 
1 45.5 7.5 -1 0 
1 240.74751929437707 -119.80319735391402 -1 0 
1 -16.397772931023212 -248.08920058952253 -1 0 
1 55.747519294377071 -119.80319735391402 0 1 
1 -201.39777293102321 -248.08920058952253 0 1 
1 -5.421875 -67.421875 1 0 
1 -300.39777293102321 166.91079941047747 1 0 
1 -36.5 -7.5 1 0 
1 -170.39777293102321 166.91079941047747 1 0 
1 -36.5 -7.5 1 0 
1 25.319990745025507 -93.365831790837547 1 0 
1 -97.397772931023212 166.91079941047747 1 0 
1 -78.5 -7.5 1 0 
1 -82.397772931023212 166.91079941047747 1 0 
1 -78.5 -7.5 1 0 
1 -10 -7.5 1 0 
1 -13.897772931023212 166.91079941047747 1 0 
1 -10 -7.5 1 0 
1 19.5 -7.5 1 0 
1 15.602227068976788 166.91079941047747 1 0 
1 19.5 -7.5 1 0 
1 -8.1920507682030461 79.871451235804898 0 -1 
1 74.602227068976788 278.03579941047747 0 -1 
1 -8.1920507682030461 -85.253548764195102 1 0 
1 74.602227068976788 112.91079941047747 1 0 
1 80.852427068976738 29.910699410477491 0 1 
1 -97.662273993678639 -114.58408980127467 0 1 
1 108.85042735042737 8.1495726495726331 -1 0 
1 285.60222706897679 29.910799410477466 -1 0 
1 -102.14957264957263 8.1495726495726331 0 -1 
1 74.602227068976788 29.910799410477466 0 -1 
1 34 -7.5 0 1 
1 34 7.5 -1 0 
1 -34 7.5 0 -1 
1 -7.5 -36 1 0 
1 7.5 -36 0 1 
1 -139.5 51.5 0 1 
1 7.5 36 -1 0 
1 45.5 -7.5 0 1 
1 -45.5 7.5 0 -1 
1 -45.5 -7.5 1 0 
1 36.5 -7.5 0 1 
1 36.5 7.5 -1 0 
1 94 -51.5 -1 0 
1 -36.5 7.5 0 -1 
1 19.5 7.5 -1 0 
1 -10 7.5 -1 0 
1 -78.5 7.5 0 -1 
1 78.5 -7.5 0 1 
1 78.5 7.5 -1 0 
1 108.85042735042737 8.1495726495726331 -1 0 
1 107.08752600632141 -114.5839898012747 -1 0 
1 -8.1920507682030461 -85.253548764195102 1 0 
1 -103.91247399367859 -31.583989801274697 1 0 
1 6.8079492317969539 -85.253548764195102 0 1 
1 -88.912473993678589 -31.583989801274697 0 1 
1 6.8079492317969539 61.746451235804898 1 0 
1 -88.912473993678589 115.4160101987253 1 0 
1 -34.5 -7.5 1 0 
1 -81.912473993678589 115.4160101987253 1 0 
1 -88.660128123676401 42.239940703091861 1 0 
1 -12.912473993678589 115.4160101987253 1 0 
1 16.339871876323599 42.239940703091861 0 -1 
1 92.087526006321411 115.4160101987253 0 -1 
1 -7.5 36.5 0 -1 
1 92.087526006321411 -41.583989801274697 0 -1 
1 -87.149572649572633 -14.850427350427367 0 1 
1 -139.5 123.5 0 1 
1 -87.149572649572633 -6.8504273504273669 1 0 
1 -139.5 131.5 1 0 
1 -41.5 -7.5 1 0 
1 56.5 131.5 1 0 
1 121.71019108280254 206.13503184713375 0 -1 
1 139.5 146.5 0 -1 
1 121.71019108280254 -71.864968152866254 -1 0 
1 139.5 -131.5 -1 0 
1 -157.28980891719746 -71.864968152866254 0 1 
1 -139.5 -131.5 0 1 
1 -93.680009254974493 24.634168209162453 1 0 
1 -25 51.5 1 0 
1 25.319990745025507 24.634168209162453 0 -1 
1 94 51.5 0 -1 
1 124.578125 -52.421875 -1 0 
1 21 -51.5 -1 0 
1 9.578125 -52.421875 0 1 
1 -94 -51.5 0 1 
1 -34.5 -7.5 1 0 
1 -94 51.5 1 0 
1 -34.5 -7.5 1 0 
1 34.5 -7.5 0 1 
1 34.5 7.5 -1 0 
1 -34.5 7.5 0 -1 
1 -7.5 -36.5 1 0 
1 7.5 -36.5 0 1 
1 7.5 36.5 -1 0 
1 41.5 -7.5 0 1 
1 41.5 7.5 -1 0 
1 -41.5 7.5 0 -1 
1 34.5 -7.5 0 1 
1 34.5 7.5 -1 0 
1 -34.5 7.5 0 -1 
Curves 88
1 955 314 0 -1 0 0 
1 940 314 0 0 1 0 
1 940 451 0 1 0 0 
1 955 451 0 0 -1 0 
1 940 451 0 0 1 0 
1 940 527 0 -1 0 0 
1 826 527 0 -1 0 0 
1 751 527 0 -1 0 0 
1 667 527 0 0 -1 0 
1 667 454 0 0 -1 0 
1 667 252 0 1 0 0 
1 940 252 0 0 1 0 
1 751 527 0 0 1 0 
1 751 528 0 0 1 0 
1 751 542 0 1 0 0 
1 826 542 0 0 -1 0 
1 667 454 0 -1 0 0 
1 652 454 0 0 1 0 
1 652 527 0 1 0 0 
1 872 645 0 -1 0 0 
1 751 645 0 0 -1 0 
1 826 542 0 1 0 0 
1 940 542 0 0 1 0 
1 940 645 0 -1 0 0 
1 376 367 0 0 -1 0 
1 376 295 0 0 -1 0 
1 376 112 0 1 0 0 
1 467 112 0 1 0 0 
1 652 112 0 0 1 0 
1 751 527 0 -1 0 0 
1 621 527 0 -1 0 0 
1 548 527 0 -1 0 0 
1 533 527 0 -1 0 0 
1 464.5 527 0 -1 0 0 
1 435 527 0 -1 0 0 
1 376 638.125 0 0 -1 0 
1 376 473 0 -1 0 0 
1 369.74980000000005 389.99990000000003 0 0 1 0 
1 165 390 0 1 0 0 
1 376 390 0 0 -1 0 
1 872 645 0 0 1 0 
1 872 660 0 1 0 0 
1 940 660 0 0 -1 0 
1 376 295 0 -1 0 0 
1 361 295 0 0 1 0 
1 361 367 0 1 0 0 
1 376 97 0 0 1 0 
1 467 112 0 0 -1 0 
1 467 97 0 -1 0 0 
1 548 527 0 0 1 0 
1 548 542 0 1 0 0 
1 621 542 0 0 -1 0 
1 435 542 0 1 0 0 
1 464.5 542 0 1 0 0 
1 533 542 0 0 -1 0 
1 376 527 0 0 1 0 
1 376 542 0 1 0 0 
1 165 390 0 1 0 0 
1 376 473 0 -1 0 0 
1 361 473 0 0 1 0 
1 361 620 0 -1 0 0 
1 354 620 0 -1 0 0 
1 285 620 0 -1 0 0 
1 180 620 0 0 -1 0 
1 180 463 0 0 -1 0 
1 361 367 0 0 1 0 
1 361 375 0 -1 0 0 
1 165 375 0 -1 0 0 
1 82 390 0 0 -1 0 
1 82 112 0 1 0 0 
1 361 112 0 0 1 0 
1 667 645 0 -1 0 0 
1 548 645 0 0 -1 0 
1 621 542 0 1 0 0 
1 736 542 0 0 1 0 
1 736 645 0 -1 0 0 
1 285 620 0 0 1 0 
1 285 635 0 1 0 0 
1 354 635 0 0 -1 0 
1 180 390 0 -1 0 0 
1 165 390 0 0 1 0 
1 165 463 0 1 0 0 
1 82 375 0 0 1 0 
1 82 390 0 1 0 0 
1 165 390 0 0 -1 0 
1 667 645 0 0 1 0 
1 667 660 0 1 0 0 
1 736 660 0 0 -1 0 
Polygon3D 0
PolygonOnTriangulations 0
Surfaces 46
1 947.5 382.5 0 -0 -0 -1 -1 0 0 0 1 -0 
1 803.5 389.5 0 -0 -0 -1 -1 0 0 0 1 -0 
1 923.21597633136093 548.41715976331363 0 -0 -0 -1 -1 0 0 0 1 -0 
1 788.5 534.5 0 -0 -0 -1 -1 0 0 0 1 -0 
1 788.5 534.5 0 -0 -0 -1 -1 0 0 0 1 -0 
1 745.578125 594.421875 0 -0 -0 -1 -1 0 0 0 1 -0 
1 659.5 490.5 0 -0 -0 -1 -1 0 0 0 1 -0 
1 659.5 490.5 0 -0 -0 -1 -1 0 0 0 1 -0 
1 707.74751929437707 231.80319735391402 0 -0 -0 -1 -1 0 0 0 1 -0 
1 788.5 534.5 0 -0 -0 -1 -1 0 0 0 1 -0 
1 845.5 593.5 0 -0 -0 -1 -1 0 0 0 1 -0 
1 659.5 490.5 0 -0 -0 -1 -1 0 0 0 1 -0 
1 450.60222706897679 360.08920058952253 0 -0 -0 -1 -1 0 0 0 1 -0 
1 745.578125 594.421875 0 -0 -0 -1 -1 0 0 0 1 -0 
1 923.21597633136093 548.41715976331363 0 -0 -0 -1 -1 0 0 0 1 -0 
1 906 652.5 0 -0 -0 -1 -1 0 0 0 1 -0 
1 906 652.5 0 -0 -0 -1 -1 0 0 0 1 -0 
1 368.5 331 0 -0 -0 -1 -1 0 0 0 1 -0 
1 368.5 331 0 -0 -0 -1 -1 0 0 0 1 -0 
1 203.71019108280254 183.86496815286625 0 -0 -0 -1 -1 0 0 0 1 -0 
1 421.5 104.5 0 -0 -0 -1 -1 0 0 0 1 -0 
1 421.5 104.5 0 -0 -0 -1 -1 0 0 0 1 -0 
1 707.74751929437707 231.80319735391402 0 -0 -0 -1 -1 0 0 0 1 -0 
1 745.578125 594.421875 0 -0 -0 -1 -1 0 0 0 1 -0 
1 584.5 534.5 0 -0 -0 -1 -1 0 0 0 1 -0 
1 584.5 534.5 0 -0 -0 -1 -1 0 0 0 1 -0 
1 573.31999074502551 620.36583179083755 0 -0 -0 -1 -1 0 0 0 1 -0 
1 454.5 534.5 0 -0 -0 -1 -1 0 0 0 1 -0 
1 454.5 534.5 0 -0 -0 -1 -1 0 0 0 1 -0 
1 367.80794923179695 558.2535487641951 0 -0 -0 -1 -1 0 0 0 1 -0 
1 272.08752600632141 504.5839898012747 0 -0 -0 -1 -1 0 0 0 1 -0 
1 273.85042735042737 381.85042735042737 0 -0 -0 -1 -1 0 0 0 1 -0 
1 221.5 243.5 0 -0 -0 -1 -1 0 0 0 1 -0 
1 642 593.5 0 -0 -0 -1 -1 0 0 0 1 -0 
1 273.85042735042737 381.85042735042737 0 -0 -0 -1 -1 0 0 0 1 -0 
1 367.80794923179695 558.2535487641951 0 -0 -0 -1 -1 0 0 0 1 -0 
1 319.5 627.5 0 -0 -0 -1 -1 0 0 0 1 -0 
1 196.3398718763236 577.76005929690814 0 -0 -0 -1 -1 0 0 0 1 -0 
1 172.5 426.5 0 -0 -0 -1 -1 0 0 0 1 -0 
1 273.85042735042737 381.85042735042737 0 -0 -0 -1 -1 0 0 0 1 -0 
1 123.5 382.5 0 -0 -0 -1 -1 0 0 0 1 -0 
1 203.71019108280254 183.86496815286625 0 -0 -0 -1 -1 0 0 0 1 -0 
1 573.31999074502551 620.36583179083755 0 -0 -0 -1 -1 0 0 0 1 -0 
1 745.578125 594.421875 0 -0 -0 -1 -1 0 0 0 1 -0 
1 701.5 652.5 0 -0 -0 -1 -1 0 0 0 1 -0 
1 701.5 652.5 0 -0 -0 -1 -1 0 0 0 1 -0 
Triangulations 0

TShapes 195
Ve
1e-07
955 314 0
0 0

0101101
*
Ve
1e-07
940 314 0
0 0

0101101
*
Ed
 1e-07 1 1 0
1  1 0 0 15
2  1 1 0 0 15
0

0101000
+195 0 -194 0 *
Ve
1e-07
940 451 0
0 0

0101101
*
Ed
 1e-07 1 1 0
1  2 0 0 137
2  2 1 0 0 137
2  3 2 0 0 137
0

0101000
+194 0 -192 0 *
Ve
1e-07
955 451 0
0 0

0101101
*
Ed
 1e-07 1 1 0
1  3 0 0 15
2  4 1 0 0 15
0

0101000
+192 0 -190 0 *
Ed
 1e-07 1 1 0
1  4 0 0 137
2  5 1 0 0 137
0

0101000
+190 0 -195 0 *
Wi

0101100
+193 0 +191 0 +189 0 +188 0 *
Fa
0  1e-07 1 0

0111000
+187 0 *
Ve
1e-07
940 527 0
0 0

0101101
*
Ed
 1e-07 1 1 0
1  5 0 0 76
2  6 3 0 0 76
2  7 2 0 0 76
0

0101000
+192 0 -185 0 *
Ve
1e-07
826 527 0
0 0

0101101
*
Ed
 1e-07 1 1 0
1  6 0 0 114
2  8 3 0 0 114
2  9 2 0 0 114
0

0101000
+185 0 -183 0 *
Ve
1e-07
751 527 0
0 0

0101101
*
Ed
 1e-07 1 1 0
1  7 0 0 75
2  10 4 0 0 75
2  11 2 0 0 75
2  12 5 0 0 75
0

0101000
+183 0 -181 0 *
Ve
1e-07
667 527 0
0 0

0101101
*
Ed
 1e-07 1 1 0
1  8 0 0 84
2  13 6 0 0 84
2  14 2 0 0 84
0

0101000
+181 0 -179 0 *
Ve
1e-07
667 454 0
0 0

0101101
*
Ed
 1e-07 1 1 0
1  9 0 0 73
2  15 7 0 0 73
2  16 2 0 0 73
2  17 8 0 0 73
0

0101000
+179 0 -177 0 *
Ve
1e-07
667 252 0
0 0

0101101
*
Ed
 1e-07 1 1 0
1  10 0 0 202
2  18 9 0 0 202
2  19 2 0 0 202
0

0101000
+177 0 -175 0 *
Ve
1e-07
940 252 0
0 0

0101101
*
Ed
 1e-07 1 1 0
1  11 0 0 273
2  20 9 0 0 273
2  21 2 0 0 273
0

0101000
+175 0 -173 0 *
Ed
 1e-07 1 1 0
1  12 0 0 62
2  22 9 0 0 62
2  23 2 0 0 62
0

0101000
+173 0 -194 0 *
Wi

0101100
-184 0 -182 0 -180 0 -178 0 -176 0 -174 0 -172 0 -171 0 -191 0 *
Fa
0  1e-07 2 0

0101000
+170 0 *
Ve
1e-07
751 528 0
0 0

0101101
*
Ed
 1e-07 1 1 0
1  13 0 0 1
2  24 5 0 0 1
0

0101000
+181 0 -168 0 *
Ve
1e-07
751 542 0
0 0

0101101
*
Ed
 1e-07 1 1 0
1  14 0 0 14
2  25 5 0 0 14
0

0101000
+168 0 -166 0 *
Ve
1e-07
826 542 0
0 0

0101101
*
Ed
 1e-07 1 1 0
1  15 0 0 75
2  26 10 0 0 75
2  27 11 0 0 75
2  28 5 0 0 75
0

0101000
+166 0 -164 0 *
Ed
 1e-07 1 1 0
1  16 0 0 15
2  29 5 0 0 15
0

0101000
+164 0 -183 0 *
Wi

0101100
+167 0 +165 0 +163 0 +162 0 +180 0 *
Fa
0  1e-07 5 0

0111000
+161 0 *
Ve
1e-07
652 454 0
0 0

0101101
*
Ed
 1e-07 1 1 0
1  17 0 0 15
2  30 8 0 0 15
0

0101000
+177 0 -159 0 *
Ve
1e-07
652 527 0
0 0

0101101
*
Ed
 1e-07 1 1 0
1  18 0 0 73
2  31 12 0 0 73
2  32 13 0 0 73
2  33 8 0 0 73
0

0101000
+159 0 -157 0 *
Ed
 1e-07 1 1 0
1  19 0 0 15
2  34 8 0 0 15
0

0101000
+157 0 -179 0 *
Wi

0101100
+158 0 +156 0 +155 0 +176 0 *
Fa
0  1e-07 8 0

0111000
+154 0 *
Ve
1e-07
872 645 0
0 0

0101101
*
Ve
1e-07
751 645 0
0 0

0101101
*
Ed
 1e-07 1 1 0
1  20 0 0 121
2  35 14 0 0 121
2  36 11 0 0 121
0

0101000
+152 0 -151 0 *
Ed
 1e-07 1 1 0
1  21 0 0 103
2  37 14 0 0 103
2  38 11 0 0 103
0

0101000
+151 0 -166 0 *
Ve
1e-07
940 542 0
0 0

0101101
*
Ed
 1e-07 1 1 0
1  22 0 0 114
2  39 15 0 0 114
2  40 11 0 0 114
0

0101000
+164 0 -148 0 *
Ve
1e-07
940 645 0
0 0

0101101
*
Ed
 1e-07 1 1 0
1  23 0 0 103
2  41 15 0 0 103
2  42 11 0 0 103
0

0101000
+148 0 -146 0 *
Ed
 1e-07 1 1 0
1  24 0 0 68
2  43 16 0 0 68
2  44 11 0 0 68
2  45 17 0 0 68
0

0101000
+146 0 -152 0 *
Wi

0101100
-150 0 -149 0 -163 0 -147 0 -145 0 -144 0 *
Fa
0  1e-07 11 0

0101000
+143 0 *
Ve
1e-07
376 367 0
0 0

0101101
*
Ve
1e-07
376 295 0
0 0

0101101
*
Ed
 1e-07 1 1 0
1  25 0 0 72
2  46 18 0 0 72
2  47 13 0 0 72
2  48 19 0 0 72
0

0101000
+141 0 -140 0 *
Ve
1e-07
376 112 0
0 0

0101101
*
Ed
 1e-07 1 1 0
1  26 0 0 183
2  49 20 0 0 183
2  50 13 0 0 183
0

0101000
+140 0 -138 0 *
Ve
1e-07
467 112 0
0 0

0101101
*
Ed
 1e-07 1 1 0
1  27 0 0 91
2  51 21 0 0 91
2  52 13 0 0 91
2  53 22 0 0 91
0

0101000
+138 0 -136 0 *
Ve
1e-07
652 112 0
0 0

0101101
*
Ed
 1e-07 1 1 0
1  28 0 0 185
2  54 23 0 0 185
2  55 13 0 0 185
0

0101000
+136 0 -134 0 *
Ed
 1e-07 1 1 0
1  29 0 0 342
2  56 23 0 0 342
2  57 13 0 0 342
0

0101000
+134 0 -159 0 *
Ve
1e-07
621 527 0
0 0

0101101
*
Ed
 1e-07 1 1 0
1  30 0 99 130
2  58 24 0 99 130
2  59 13 0 99 130
0

0101000
+157 0 -131 0 *
Ve
1e-07
548 527 0
0 0

0101101
*
Ed
 1e-07 1 1 0
1  31 0 0 73
2  60 25 0 0 73
2  61 13 0 0 73
2  62 26 0 0 73
0

0101000
+131 0 -129 0 *
Ve
1e-07
533 527 0
0 0

0101101
*
Ed
 1e-07 1 1 0
1  32 0 0 15
2  63 27 0 0 15
2  64 13 0 0 15
0

0101000
+129 0 -127 0 *
Ve
1e-07
464.5 527 0
0 0

0101101
*
Ed
 1e-07 1 1 0
1  33 0 0 68.5
2  65 28 0 0 68.5
2  66 13 0 0 68.5
2  67 29 0 0 68.5
0

0101000
+127 0 -125 0 *
Ve
1e-07
435 527 0
0 0

0101101
*
Ed
 1e-07 1 1 0
1  34 0 0 29.5
2  68 28 0 0 29.5
2  69 13 0 0 29.5
2  70 29 0 0 29.5
0

0101000
+125 0 -123 0 *
Ve
1e-07
376 527 0
0 0

0101101
*
Ed
 1e-07 1 1 0
1  35 0 0 59
2  71 28 0 0 59
2  72 13 0 0 59
2  73 29 0 0 59
0

0101000
+123 0 -121 0 *
Ve
1e-07
376 473 0
0 0

0101101
*
Ed
 1e-07 1 1 0
1  36 0 111.125 165.125
2  74 30 0 111.125 165.125
2  75 13 0 111.125 165.125
0

0101000
+121 0 -119 0 *
Ve
1e-07
369.7498 473 0
0 0

0101101
*
Ed
 1e-07 1 1 0
1  37 0 0 6.25019999999995
2  76 30 0 0 6.25019999999995
2  77 13 0 0 6.25019999999995
0

0101000
+119 0 -117 0 *
Ve
1e-07
369.7498 390 0
0 0

0101101
*
Ed
 1e-07 1 1 0
1  38 0 9.99999999748979e-05 83.0001
2  78 13 0 9.99999999748979e-05 83.0001
2  79 31 0 9.99999999748979e-05 83.0001
0

0101000
+115 0 -117 0 *
Ve
1e-07
376 390 0
0 0

0101101
*
Ed
 1e-07 1 1 0
1  39 0 204.7498 211
2  80 32 0 204.7498 211
2  81 13 0 204.7498 211
0

0101000
+115 0 -113 0 *
Ed
 1e-07 1 1 0
1  40 0 0 23
2  82 32 0 0 23
2  83 13 0 0 23
0

0101000
+113 0 -141 0 *
Wi

0101100
-139 0 -137 0 -135 0 -133 0 -132 0 -156 0 -130 0 -128 0 -126 0 -124 0 
-122 0 -120 0 -118 0 -116 0 +114 0 -112 0 -111 0 *
Fa
0  1e-07 13 0

0101000
+110 0 *
Ve
1e-07
872 660 0
0 0

0101101
*
Ed
 1e-07 1 1 0
1  41 0 0 15
2  84 17 0 0 15
0

0101000
+152 0 -108 0 *
Ve
1e-07
940 660 0
0 0

0101101
*
Ed
 1e-07 1 1 0
1  42 0 0 68
2  85 17 0 0 68
0

0101000
+108 0 -106 0 *
Ed
 1e-07 1 1 0
1  43 0 0 15
2  86 17 0 0 15
0

0101000
+106 0 -146 0 *
Wi

0101100
+107 0 +105 0 +104 0 +144 0 *
Fa
0  1e-07 17 0

0111000
+103 0 *
Ve
1e-07
361 295 0
0 0

0101101
*
Ed
 1e-07 1 1 0
1  44 0 0 15
2  87 19 0 0 15
0

0101000
+140 0 -101 0 *
Ve
1e-07
361 367 0
0 0

0101101
*
Ed
 1e-07 1 1 0
1  45 0 0 72
2  88 19 0 0 72
2  89 33 0 0 72
0

0101000
+101 0 -99 0 *
Ed
 1e-07 1 1 0
1  46 0 0 15
2  90 19 0 0 15
0

0101000
+99 0 -141 0 *
Wi

0101100
+100 0 +98 0 +97 0 +139 0 *
Fa
0  1e-07 19 0

0111000
+96 0 *
Ve
1e-07
376 97 0
0 0

0101101
*
Ed
 1e-07 1 1 0
1  47 0 0 15
2  91 22 0 0 15
0

0101000
+94 0 -138 0 *
Ve
1e-07
467 97 0
0 0

0101101
*
Ed
 1e-07 1 1 0
1  48 0 0 15
2  92 22 0 0 15
0

0101000
+136 0 -92 0 *
Ed
 1e-07 1 1 0
1  49 0 0 91
2  93 22 0 0 91
0

0101000
+92 0 -94 0 *
Wi

0101100
+93 0 +135 0 +91 0 +90 0 *
Fa
0  1e-07 22 0

0111000
+89 0 *
Ve
1e-07
548 542 0
0 0

0101101
*
Ed
 1e-07 1 1 0
1  50 0 0 15
2  94 26 0 0 15
0

0101000
+129 0 -87 0 *
Ve
1e-07
621 542 0
0 0

0101101
*
Ed
 1e-07 1 1 0
1  51 0 0 73
2  95 26 0 0 73
2  96 34 0 0 73
0

0101000
+87 0 -85 0 *
Ed
 1e-07 1 1 0
1  52 0 0 15
2  97 26 0 0 15
0

0101000
+85 0 -131 0 *
Wi

0101100
+86 0 +84 0 +83 0 +128 0 *
Fa
0  1e-07 26 0

0111000
+82 0 *
Ve
1e-07
435 542 0
0 0

0101101
*
Ve
1e-07
464.5 542 0
0 0

0101101
*
Ed
 1e-07 1 1 0
1  53 0 0 29.5
2  98 29 0 0 29.5
0

0101000
+80 0 -79 0 *
Ve
1e-07
533 542 0
0 0

0101101
*
Ed
 1e-07 1 1 0
1  54 0 0 68.5
2  99 29 0 0 68.5
0

0101000
+79 0 -77 0 *
Ed
 1e-07 1 1 0
1  55 0 0 15
2  100 29 0 0 15
0

0101000
+77 0 -127 0 *
Ve
1e-07
376 542 0
0 0

0101101
*
Ed
 1e-07 1 1 0
1  56 0 0 15
2  101 29 0 0 15
0

0101000
+121 0 -74 0 *
Ed
 1e-07 1 1 0
1  57 0 0 59
2  102 29 0 0 59
0

0101000
+74 0 -80 0 *
Wi

0101100
+78 0 +76 0 +75 0 +124 0 +122 0 +120 0 +73 0 +72 0 *
Fa
0  1e-07 29 0

0111000
+71 0 *
Ve
1e-07
180 390 0
0 0

0101101
*
Ed
 1e-07 1 1 0
1  58 0 15 204.7498
2  103 35 0 15 204.7498
2  104 31 0 15 204.7498
0

0101000
+69 0 -115 0 *
Ve
1e-07
361 473 0
0 0

0101101
*
Ed
 1e-07 1 1 0
1  59 0 6.25019999999995 15
2  105 36 0 6.25019999999995 15
2  106 31 0 6.25019999999995 15
0

0101000
+117 0 -67 0 *
Ve
1e-07
361 620 0
0 0

0101101
*
Ed
 1e-07 1 1 0
1  60 0 0 147
2  107 36 0 0 147
2  108 31 0 0 147
0

0101000
+67 0 -65 0 *
Ve
1e-07
354 620 0
0 0

0101101
*
Ed
 1e-07 1 1 0
1  61 0 0 7
2  109 36 0 0 7
2  110 31 0 0 7
0

0101000
+65 0 -63 0 *
Ve
1e-07
285 620 0
0 0

0101101
*
Ed
 1e-07 1 1 0
1  62 0 0 69
2  111 37 0 0 69
2  112 31 0 0 69
0

0101000
+63 0 -61 0 *
Ve
1e-07
180 620 0
0 0

0101101
*
Ed
 1e-07 1 1 0
1  63 0 0 105
2  113 38 0 0 105
2  114 31 0 0 105
0

0101000
+61 0 -59 0 *
Ve
1e-07
180 463 0
0 0

0101101
*
Ed
 1e-07 1 1 0
1  64 0 0 157
2  115 38 0 0 157
2  116 31 0 0 157
0

0101000
+59 0 -57 0 *
Ed
 1e-07 1 1 0
1  65 0 0 73
2  117 39 0 0 73
2  118 31 0 0 73
0

0101000
+57 0 -69 0 *
Wi

0101100
-68 0 -114 0 -66 0 -64 0 -62 0 -60 0 -58 0 -56 0 -55 0 *
Fa
0  1e-07 31 0

0101000
+54 0 *
Ve
1e-07
361 375 0
0 0

0101101
*
Ed
 1e-07 1 1 0
1  66 0 0 8
2  119 40 0 0 8
2  120 33 0 0 8
0

0101000
+99 0 -52 0 *
Ve
1e-07
165 375 0
0 0

0101101
*
Ed
 1e-07 1 1 0
1  67 0 0 196
2  121 40 0 0 196
2  122 33 0 0 196
0

0101000
+52 0 -50 0 *
Ve
1e-07
82 375 0
0 0

0101101
*
Ed
 1e-07 1 1 0
1  68 0 0 83
2  123 41 0 0 83
2  124 33 0 0 83
0

0101000
+50 0 -48 0 *
Ve
1e-07
82 112 0
0 0

0101101
*
Ed
 1e-07 1 1 0
1  69 0 15 278
2  125 42 0 15 278
2  126 33 0 15 278
0

0101000
+48 0 -46 0 *
Ve
1e-07
361 112 0
0 0

0101101
*
Ed
 1e-07 1 1 0
1  70 0 0 279
2  127 42 0 0 279
2  128 33 0 0 279
0

0101000
+46 0 -44 0 *
Ed
 1e-07 1 1 0
1  71 0 0 183
2  129 42 0 0 183
2  130 33 0 0 183
0

0101000
+44 0 -101 0 *
Wi

0101100
-51 0 -49 0 -47 0 -45 0 -43 0 -42 0 -98 0 *
Fa
0  1e-07 33 0

0101000
+41 0 *
Ve
1e-07
667 645 0
0 0

0101101
*
Ve
1e-07
548 645 0
0 0

0101101
*
Ed
 1e-07 1 1 0
1  72 0 0 119
2  131 43 0 0 119
2  132 34 0 0 119
0

0101000
+39 0 -38 0 *
Ed
 1e-07 1 1 0
1  73 0 0 103
2  133 43 0 0 103
2  134 34 0 0 103
0

0101000
+38 0 -87 0 *
Ve
1e-07
736 542 0
0 0

0101101
*
Ed
 1e-07 1 1 0
1  74 0 0 115
2  135 44 0 0 115
2  136 34 0 0 115
0

0101000
+85 0 -35 0 *
Ve
1e-07
736 645 0
0 0

0101101
*
Ed
 1e-07 1 1 0
1  75 0 0 103
2  137 44 0 0 103
2  138 34 0 0 103
0

0101000
+35 0 -33 0 *
Ed
 1e-07 1 1 0
1  76 0 0 69
2  139 45 0 0 69
2  140 34 0 0 69
2  141 46 0 0 69
0

0101000
+33 0 -39 0 *
Wi

0101100
-37 0 -36 0 -84 0 -34 0 -32 0 -31 0 *
Fa
0  1e-07 34 0

0101000
+30 0 *
Ve
1e-07
285 635 0
0 0

0101101
*
Ed
 1e-07 1 1 0
1  77 0 0 15
2  142 37 0 0 15
0

0101000
+61 0 -28 0 *
Ve
1e-07
354 635 0
0 0

0101101
*
Ed
 1e-07 1 1 0
1  78 0 0 69
2  143 37 0 0 69
0

0101000
+28 0 -26 0 *
Ed
 1e-07 1 1 0
1  79 0 0 15
2  144 37 0 0 15
0

0101000
+26 0 -63 0 *
Wi

0101100
+27 0 +25 0 +24 0 +60 0 *
Fa
0  1e-07 37 0

0111000
+23 0 *
Ve
1e-07
165 390 0
0 0

0101101
*
Ed
 1e-07 1 1 0
1  80 0 0 15
2  145 39 0 0 15
0

0101000
+69 0 -21 0 *
Ve
1e-07
165 463 0
0 0

0101101
*
Ed
 1e-07 1 1 0
1  81 0 0 73
2  146 39 0 0 73
0

0101000
+21 0 -19 0 *
Ed
 1e-07 1 1 0
1  82 0 0 15
2  147 39 0 0 15
0

0101000
+19 0 -57 0 *
Wi

0101100
+20 0 +18 0 +17 0 +55 0 *
Fa
0  1e-07 39 0

0111000
+16 0 *
Ve
1e-07
82 390 0
0 0

0101101
*
Ed
 1e-07 1 1 0
1  83 0 0 15
2  148 41 0 0 15
0

0101000
+48 0 -14 0 *
Ed
 1e-07 1 1 0
1  84 0 0 83
2  149 41 0 0 83
0

0101000
+14 0 -21 0 *
Ed
 1e-07 1 1 0
1  85 0 0 15
2  150 41 0 0 15
0

0101000
+21 0 -50 0 *
Wi

0101100
+13 0 +12 0 +11 0 +47 0 *
Fa
0  1e-07 41 0

0111000
+10 0 *
Ve
1e-07
667 660 0
0 0

0101101
*
Ed
 1e-07 1 1 0
1  86 0 0 15
2  151 46 0 0 15
0

0101000
+39 0 -8 0 *
Ve
1e-07
736 660 0
0 0

0101101
*
Ed
 1e-07 1 1 0
1  87 0 0 69
2  152 46 0 0 69
0

0101000
+8 0 -6 0 *
Ed
 1e-07 1 1 0
1  88 0 0 15
2  153 46 0 0 15
0

0101000
+6 0 -33 0 *
Wi

0101100
+7 0 +5 0 +4 0 +31 0 *
Fa
0  1e-07 46 0

0111000
+3 0 *
Sh

0101000
+186 0 +169 0 +160 0 +153 0 +142 0 +109 0 +102 0 +95 0 +88 0 +81 0 
+70 0 +53 0 +40 0 +29 0 +22 0 +15 0 +9 0 +2 0 *

+1 0 