
CASCADE Topology V3, (c) Open Cascade
Locations 0
Curve2ds 182
1 2.2925373134328595 -7.0686567164179053 0 1 
1 -20.059701492537329 6.8776119402986353 0 1 
1 2.2925373134328595 7.0686567164179053 -1 0 
1 -2.2925373134328311 7.0686567164179053 0 -1 
1 38.782089552238773 50.817910447761193 0 -1 
1 -2.2925373134328311 -7.0686567164179053 1 0 
1 20.059701492537286 -21.01492537313419 0 1 
1 20.059701492537286 21.014925373134474 -1 0 
1 -14.721735074626196 21.014925373134474 -1 -2.1297780619253927e-14 
1 -20.059701492537329 6.8776119402986353 0 -1 
1 -20.059701492537329 2.2925373134329732 0 -1 
1 2.2925373134328595 11.653731343283567 0 -1 
1 -20.059701492537329 -21.01492537313419 1 0 
1 -6.686567164179138 -21.01492537313419 1 0 
1 -7.2597014925373173 2.2925373134328595 1 0 
1 7.8328358208954967 -21.01492537313419 1 0 
1 15.474626865671624 -21.01492537313419 1 0 
1 -2.2925373134328595 2.2925373134328595 0 -1 
1 38.782089552238773 36.680597014925382 0 -1 
1 -2.2925373134328311 11.653731343283567 0 -1 
1 38.782089552238773 32.09552238805972 0 -1 
1 -2.2925373134328311 11.653731343283567 0 -1 
1 -8.9791044776119406 2.2925373134328311 0 -1 
1 38.782089552238773 8.788059701492557 0 -1 
1 -2.2925373134328311 8.0238805970149372 0 -1 
1 38.782089552238773 4.2029850746268664 0 -1 
1 -2.2925373134328311 8.0238805970149372 0 -1 
1 -37.684706764450993 28.288722791068182 0 -1 
1 38.782089552238773 -11.844776119402979 0 -1 
1 9.7432835820895605 2.2925373134328311 -1 0 
1 38.782089552238773 -50.817910447761193 -1 0 
1 9.7432835820895605 2.2925373134328311 -1 0 
1 37.863594101029889 -55.96273772716151 -1 0 
1 19.29552238805968 -50.817910447761193 -1 0 
1 -20.214017839268621 -55.96273772716151 0 1 
1 -38.78208955223883 -50.817910447761193 0 1 
1 -20.214017839268621 45.673083168360876 1 0 
1 -38.78208955223883 50.817910447761193 1 0 
1 -2.2925373134328311 -11.653731343283596 1 0 
1 2.2925373134328595 11.653731343283567 -1 0 
1 7.2597014925373173 -2.2925373134328311 0 1 
1 -7.2597014925373173 2.2925373134328595 0 -1 
1 -7.2597014925373173 -2.2925373134328311 1 0 
1 -2.101492537313419 27.510447761194001 1 0 
1 -7.2597014925373173 -2.2925373134328311 1 0 
1 -2.2925373134328311 -8.0238805970149087 1 0 
1 2.2925373134328595 -8.0238805970149087 0 1 
1 -15.47462686567161 11.462686567164155 0 1 
1 2.2925373134328595 -8.0238805970149087 0 1 
1 2.2925373134328595 8.0238805970149372 -1 0 
1 9.7432835820895605 -2.2925373134328311 0 1 
1 -9.743283582089532 2.2925373134328311 0 -1 
1 -9.743283582089532 -2.2925373134328311 1 0 
1 -28.747421434195871 75.548134040896869 1 0 
1 -9.743283582089532 -2.2925373134328311 1 0 
1 -5.2070948241524775 44.336483985098027 1 0 
1 12.417910447761216 27.510447761194001 1 0 
1 -2.1503784062420266 44.336483985098027 0 -1 
1 15.474626865671667 27.510447761194001 0 -1 
1 -2.1503784062420266 -10.684411537290032 -1 0 
1 15.474626865671667 -27.510447761194058 -1 0 
1 -33.099632137585303 -10.684411537290032 0 1 
1 -15.47462686567161 -27.510447761194058 0 1 
1 -8.9791044776119406 -2.2925373134328595 1 0 
1 -20.0597014925373 27.510447761194001 1 0 
1 26.8183672774516 31.365979966648762 -1 0 
1 35.44372334192353 -11.186394317312086 -1 0 
1 -6.9940316698044285 20.919170145615603 0 1 
1 17.103324834460835 -15.00708983970015 0 1 
1 -6.9940316698044285 25.504244772481272 -1 0 
1 17.103324834460835 -10.422015212834481 -1 0 
1 14.137313432835839 2.2925373134328382 -1 0 
1 -26.072794568524245 -10.422015212834481 -1 0 
1 28.333677069199439 -19.618561736770673 -1 0 
1 -54.347421434195866 -10.422015212834481 -1 0 
1 -4.1439348710990771 -19.618561736770673 0 1 
1 -86.825033374494382 -10.422015212834481 0 1 
1 2.2925373134328311 -11.271641791044786 0 1 
1 -86.825033374494382 53.004850458807311 0 1 
1 -24.799092466134283 -60.547812354027172 1 0 
1 -91.410108001360044 75.548134040896869 1 0 
1 -37.684706764450993 -15.269486164155694 1 0 
1 -9.2608542700167789 75.548134040896869 1 0 
1 -2.1503784062420266 -15.269486164155694 0 -1 
1 26.273474088192188 75.548134040896869 0 -1 
1 -2.1503784062420266 -30.553068253707949 1 0 
1 26.273474088192188 60.264551951344615 1 0 
1 -9.7432835820895605 -2.2925373134328311 1 0 
1 65.628697968789197 60.264551951344615 1 0 
1 -39.235436201890181 -10.398209695019375 1 0 
1 85.115265132968304 60.264551951344615 1 0 
1 -36.942898888457336 -10.398209695019375 0 -1 
1 87.407802446401149 60.264551951344615 0 -1 
1 -2.2925373134328311 9.7432835820895463 0 -1 
1 87.407802446401135 34.473507175225222 0 -1 
1 63.310445942135885 50.913199996361882 0 -1 
1 87.407802446401149 14.98694001104613 0 -1 
1 63.310445942135885 25.504244772481272 -1 0 
1 87.407802446401149 -10.422015212834481 -1 0 
1 11.346266837658263 25.504244772481272 0 -1 
1 35.443623341923526 -10.422015212834481 0 -1 
1 11.346266837658263 25.504244772481272 0 -1 
1 26.818267277451596 32.130359071126364 0 -1 
1 11.346266837658263 8.3102149217350032 1 0 
1 26.818267277451596 14.936329220380099 1 0 
1 12.110445942135883 8.3102149217350032 0 -1 
1 27.582446381929216 14.936329220380099 0 -1 
1 12.110445942135883 -22.25694925736947 -1 0 
1 27.582446381929216 -15.630834958724376 -1 0 
1 11.346266837658263 -22.25694925736947 0 -1 
1 26.818267277451596 -15.630834958724376 0 -1 
1 11.346266837658263 -36.776352242444098 -1 0 
1 26.818267277451596 -30.150237943799002 -1 0 
1 -44.056718236968607 -36.776352242444098 0 1 
1 -28.584717797175273 -30.150237943799002 0 1 
1 -44.056718236968607 20.919170145615603 1 0 
1 -28.584717797175273 27.545284444260698 1 0 
1 -6.9940316698044285 20.919170145615603 0 1 
1 8.4779687699889053 27.545284444260698 0 1 
1 14.137313432835839 -2.2925373134328311 0 1 
1 -14.137313432835782 2.2925373134328382 0 -1 
1 -14.137313432835782 -2.2925373134328311 1 0 
1 -2.2925373134328311 -11.271641791044786 1 0 
1 2.2925373134328311 11.271641791044772 -1 0 
1 -2.2925373134328311 11.271641791044772 0 -1 
1 9.7432835820895463 -2.2925373134328311 0 1 
1 9.7432835820895463 2.2925373134328595 -1 0 
1 -20.168601708900205 -33.7327808133779 -1 0 
1 -9.7432835820895605 2.2925373134328595 0 -1 
1 -2.2925373134328169 -9.7432835820895463 1 0 
1 2.2925373134328311 -9.7432835820895463 0 1 
1 -13.946268656716441 -7.6417910447760988 0 1 
1 2.2925373134328311 9.7432835820895463 -1 0 
1 -2.2925373134328417 13.755223880597043 0 -1 
1 28.738860977666963 36.571696798562385 0 -1 
1 9.6720264846769872 36.980894782592571 0 -1 
1 28.738860977666963 9.0612490373683556 0 -1 
1 9.6720264846769872 32.395820155726909 1 0 
1 28.738860977666963 4.4761744105026935 1 0 
1 23.427250365274002 32.395820155726909 0 -1 
1 42.494084858263975 4.4761744105026935 0 -1 
1 23.427250365274002 -5.8131350681536844 -1 0 
1 42.494084858263975 -33.7327808133779 -1 0 
1 37.204845474354983 -30.553068253707949 0 1 
1 -39.655168873079312 -38.317855440243591 0 1 
1 2.2925373134328169 -8.0238805970149656 0 1 
1 -39.655168873079312 4.0940848582638978 0 1 
1 -25.323053795769368 -15.560528293782852 0 1 
1 -39.655168873079312 20.141846052293744 0 1 
1 -25.323053795769368 0.86932245248578965 1 0 
1 -39.655168873079312 36.571696798562385 1 0 
1 13.946268656716413 37.635820895522386 -1 0 
1 -13.946268656716427 37.635820895522386 0 -1 
1 -13.946268656716427 25.791044776119421 0 -1 
1 -13.946268656716427 -21.588059701492526 0 -1 
1 -13.946268656716427 -37.635820895522379 1 0 
1 13.946268656716413 -37.635820895522379 0 1 
1 -2.2925373134328417 -13.755223880596986 1 0 
1 2.2925373134328311 -13.755223880596986 0 1 
1 2.2925373134328311 13.755223880597043 -1 0 
1 -2.2925373134328453 -8.0238805970149656 1 0 
1 2.2925373134328169 8.0238805970148803 -1 0 
1 1.9104477611940212 8.0238805970148803 -1 0 
1 -2.2925373134328453 8.0238805970148803 0 -1 
1 15.092537313432857 26.937313432835793 0 -1 
1 -2.2925373134328453 8.0238805970148803 0 -1 
1 32.61977084748932 11.85887204479954 0 -1 
1 15.092537313432857 10.889552238805948 0 -1 
1 32.61977084748932 -25.967993626842258 -1 0 
1 15.092537313432857 -26.93731343283585 -1 0 
1 2.4346962206236498 -25.967993626842258 0 1 
1 -15.092537313432814 -26.93731343283585 0 1 
1 2.4346962206236498 27.906633238829386 1 0 
1 -15.092537313432814 26.937313432835793 1 0 
1 -6.6865671641790954 -2.2925373134328311 1 0 
1 -5.9223880597014755 26.937313432835793 1 0 
1 -6.6865671641790954 -2.2925373134328311 1 0 
1 -37.549919467411158 -15.560528293782852 1 0 
1 7.4507462686567294 26.937313432835793 1 0 
1 6.6865671641791096 -2.2925373134328311 0 1 
1 6.6865671641791096 2.2925373134328311 -1 0 
1 -6.6865671641790954 2.2925373134328311 0 -1 
Curves 108
1 163.15223880597014 241.09850746268657 0 0 1 0 
1 163.15223880597014 255.23582089552238 0 1 0 0 
1 167.73731343283583 255.23582089552238 0 0 -1 0 
1 167.73731343283583 241.09850746268657 0 -1 0 0 
1 123.03283582089553 213.20597014925374 0 0 1 0 
1 123.03283582089553 255.23582089552241 0 1 0 0 
1 157.81427238805901 255.23582089552241 0 1 -2.1297780619253927e-14 0 
1 163.15223880597014 241.09850746268657 0 0 -1 0 
1 163.15223880597014 236.51343283582091 0 0 -1 0 
1 163.15223880597014 213.20597014925374 0 -1 0 0 
1 149.77910447761195 213.20597014925374 0 -1 0 0 
1 135.25970149253732 213.20597014925374 0 -1 0 0 
1 127.61791044776119 213.20597014925374 0 -1 0 0 
1 167.73731343283583 241.09850746268657 0 0 -1 0 
1 167.73731343283583 236.51343283582091 0 0 -1 0 
1 167.73731343283583 213.20597014925374 0 0 -1 0 
1 167.73731343283583 208.62089552238805 0 0 -1 0 
1 167.73731343283583 192.57313432835821 0 0 -1 0 
1 167.73731343283583 153.59999999999999 0 1 0 0 
1 187.22388059701493 153.59999999999999 0 1 0 0 
1 245.30149253731344 153.59999999999999 0 0 1 0 
1 245.30149253731344 255.23582089552238 0 -1 0 0 
1 167.73731343283583 213.20597014925374 0 -1 0 0 
1 163.15223880597014 236.51343283582091 0 1 0 0 
1 135.25970149253732 208.62089552238805 0 0 1 0 
1 149.77910447761195 213.20597014925374 0 0 -1 0 
1 149.77910447761195 208.62089552238805 0 -1 0 0 
1 167.73731343283583 192.57313432835821 0 -1 0 0 
1 163.15223880597014 192.57313432835821 0 0 1 0 
1 163.15223880597014 208.62089552238805 0 1 0 0 
1 167.73731343283583 149.01492537313433 0 0 1 0 
1 187.22388059701493 153.59999999999999 0 0 -1 0 
1 187.22388059701493 149.01492537313433 0 -1 0 0 
1 135.25970149253732 208.62089552238805 0 -1 0 0 
1 132.20298507462687 208.62089552238805 0 0 -1 0 
1 132.20298507462687 153.59999999999999 0 1 0 0 
1 163.15223880597014 153.59999999999999 0 0 1 0 
1 167.73731343283583 208.62089552238805 0 -1 0 0 
1 123.03273582089552 62.280397014925377 0 1 0 0 
1 141.37313432835822 58.459701492537313 0 0 1 0 
1 141.37313432835822 63.044776119402982 0 1 0 0 
1 184.5492537313433 63.044776119402982 0 1 0 0 
1 212.82388059701492 63.044776119402982 0 1 0 0 
1 245.30149253731344 63.044776119402982 0 0 1 0 
1 245.30149253731344 126.47164179104477 0 0 1 0 
1 249.8865671641791 149.01492537313433 0 -1 0 0 
1 167.73731343283583 149.01492537313433 0 -1 0 0 
1 132.20298507462687 149.01492537313433 0 0 -1 0 
1 132.20298507462687 133.73134328358208 0 -1 0 0 
1 92.847761194029857 133.73134328358208 0 -1 0 0 
1 73.361194029850751 133.73134328358208 0 -1 0 0 
1 71.068656716417905 133.73134328358208 0 0 -1 0 
1 71.068656716417919 107.94029850746269 0 0 -1 0 
1 71.068656716417905 88.453731343283593 0 0 -1 0 
1 71.068656716417905 63.044776119402982 0 1 0 0 
1 123.03283582089553 63.044776119402982 0 0 -1 0 
1 123.03283582089553 63.044776119402982 0 0 -1 0 
1 123.03283582089553 45.850746268656714 0 -1 0 0 
1 122.26865671641791 45.850746268656714 0 0 -1 0 
1 122.26865671641791 15.283582089552239 0 1 0 0 
1 123.03283582089553 15.283582089552239 0 0 -1 0 
1 123.03283582089553 0.76417910447761195 0 1 0 0 
1 178.4358208955224 0.76417910447761195 0 0 1 0 
1 178.4358208955224 58.459701492537313 0 -1 0 0 
1 141.37313432835822 58.459701492537313 0 0 1 0 
1 184.5492537313433 58.459701492537313 0 0 1 0 
1 212.82388059701492 63.044776119402982 0 0 -1 0 
1 212.82388059701492 58.459701492537313 0 -1 0 0 
1 249.8865671641791 126.47164179104477 0 -1 0 0 
1 245.30149253731344 149.01492537313433 0 1 0 0 
1 249.8865671641791 149.01492537313433 0 0 -1 0 
1 73.361194029850751 133.73134328358208 0 0 1 0 
1 73.361194029850751 138.31641791044777 0 1 0 0 
1 92.847761194029857 138.31641791044777 0 0 -1 0 
1 71.068656716417905 88.453731343283593 0 -1 0 0 
1 66.483582089552257 88.453731343283593 0 0 1 0 
1 66.483582089552257 107.94029850746269 0 1 0 0 
1 24.453731343283582 208.62089552238805 0 0 -1 0 
1 24.453731343283582 181.11044776119402 0 0 -1 0 
1 24.453731343283582 176.52537313432836 0 -1 0 0 
1 10.698507462686567 176.52537313432836 0 0 -1 0 
1 10.698507462686567 138.31641791044777 0 1 0 0 
1 92.847761194029857 133.73134328358208 0 0 1 0 
1 92.847761194029857 176.14328358208957 0 0 1 0 
1 92.847761194029857 192.19104477611941 0 0 1 0 
1 92.847761194029857 208.62089552238805 0 -1 0 0 
1 38.591044776119404 133.73134328358208 0 1 0 0 
1 66.483582089552243 133.73134328358208 0 0 -1 0 
1 66.483582089552243 121.88656716417911 0 0 -1 0 
1 66.483582089552243 74.507462686567166 0 0 -1 0 
1 66.483582089552243 58.459701492537313 0 -1 0 0 
1 38.591044776119404 58.459701492537313 0 0 1 0 
1 24.453731343283582 181.11044776119402 0 -1 0 0 
1 19.86865671641791 181.11044776119402 0 0 1 0 
1 19.86865671641791 208.62089552238805 0 1 0 0 
1 97.432835820895519 176.14328358208957 0 -1 0 0 
1 92.847761194029857 192.19104477611941 0 1 0 0 
1 93.229850746268653 192.19104477611941 0 1 0 0 
1 97.432835820895519 192.19104477611941 0 0 -1 0 
1 97.432835820895519 176.14328358208957 0 0 -1 0 
1 97.432835820895519 138.31641791044777 0 1 0 0 
1 127.61791044776119 138.31641791044777 0 0 1 0 
1 127.61791044776119 192.19104477611941 0 -1 0 0 
1 118.44776119402985 192.19104477611941 0 -1 0 0 
1 105.07462686567165 192.19104477611941 0 -1 0 0 
1 105.07462686567165 192.19104477611941 0 0 1 0 
1 105.07462686567165 196.77611940298507 0 1 0 0 
1 118.44776119402985 196.77611940298507 0 0 -1 0 
Polygon3D 0
PolygonOnTriangulations 0
Surfaces 45
1 165.444776119403 248.16716417910447 0 -0 -0 -1 -1 0 0 0 1 -0 
1 143.09253731343281 234.22089552238793 0 -0 -0 -1 -1 0 0 0 1 -0 
1 206.51940298507461 204.41791044776119 0 -0 -0 -1 -1 0 0 0 1 -0 
1 165.444776119403 224.85970149253734 0 -0 -0 -1 -1 0 0 0 1 -0 
1 142.51940298507463 210.91343283582088 0 -0 -0 -1 -1 0 0 0 1 -0 
1 165.44477611940297 238.80597014925371 0 -0 -0 -1 -1 0 0 0 1 -0 
1 165.444776119403 224.85970149253734 0 -0 -0 -1 -1 0 0 0 1 -0 
1 158.75820895522389 210.91343283582091 0 -0 -0 -1 -1 0 0 0 1 -0 
1 165.444776119403 200.59701492537312 0 -0 -0 -1 -1 0 0 0 1 -0 
1 165.444776119403 200.59701492537312 0 -0 -0 -1 -1 0 0 0 1 -0 
1 130.05260666838484 164.28441153729003 0 -0 -0 -1 -1 0 0 0 1 -0 
1 177.48059701492539 151.30746268656716 0 -0 -0 -1 -1 0 0 0 1 -0 
1 177.48059701492539 151.30746268656716 0 -0 -0 -1 -1 0 0 0 1 -0 
1 225.08747469804482 209.5627377271615 0 -0 -0 -1 -1 0 0 0 1 -0 
1 142.51940298507463 210.91343283582088 0 -0 -0 -1 -1 0 0 0 1 -0 
1 147.67761194029853 181.11044776119405 0 -0 -0 -1 -1 0 0 0 1 -0 
1 165.444776119403 200.59701492537312 0 -0 -0 -1 -1 0 0 0 1 -0 
1 177.48059701492539 151.30746268656716 0 -0 -0 -1 -1 0 0 0 1 -0 
1 158.47645916281905 73.466791332237463 0 -0 -0 -1 -1 0 0 0 1 -0 
1 130.05260666838484 164.28441153729003 0 -0 -0 -1 -1 0 0 0 1 -0 
1 158.75820895522389 210.91343283582091 0 -0 -0 -1 -1 0 0 0 1 -0 
1 149.85110309834712 30.914417048276615 0 -0 -0 -1 -1 0 0 0 1 -0 
1 134.37910265855379 37.540531346921711 0 -0 -0 -1 -1 0 0 0 1 -0 
1 198.68656716417914 60.752238805970144 0 -0 -0 -1 -1 0 0 0 1 -0 
1 241.15755766621436 82.663337856173655 0 -0 -0 -1 -1 0 0 0 1 -0 
1 247.59402985074627 137.74328358208956 0 -0 -0 -1 -1 0 0 0 1 -0 
1 225.08747469804482 209.5627377271615 0 -0 -0 -1 -1 0 0 0 1 -0 
1 130.05260666838484 164.28441153729003 0 -0 -0 -1 -1 0 0 0 1 -0 
1 83.104477611940297 136.02388059701491 0 -0 -0 -1 -1 0 0 0 1 -0 
1 34.12575782796057 144.12955297860145 0 -0 -0 -1 -1 0 0 0 1 -0 
1 68.776119402985088 98.197014925373139 0 -0 -0 -1 -1 0 0 0 1 -0 
1 134.37910265855379 37.540531346921711 0 -0 -0 -1 -1 0 0 0 1 -0 
1 53.192592320950546 172.04919872382567 0 -0 -0 -1 -1 0 0 0 1 -0 
1 52.537313432835816 96.095522388059692 0 -0 -0 -1 -1 0 0 0 1 -0 
1 22.161194029850741 194.86567164179101 0 -0 -0 -1 -1 0 0 0 1 -0 
1 34.12575782796057 144.12955297860145 0 -0 -0 -1 -1 0 0 0 1 -0 
1 130.05260666838484 164.28441153729003 0 -0 -0 -1 -1 0 0 0 1 -0 
1 95.140298507462674 184.16716417910453 0 -0 -0 -1 -1 0 0 0 1 -0 
1 67.524707398260489 207.75157306990226 0 -0 -0 -1 -1 0 0 0 1 -0 
1 95.140298507462674 184.16716417910453 0 -0 -0 -1 -1 0 0 0 1 -0 
1 112.52537313432838 165.25373134328362 0 -0 -0 -1 -1 0 0 0 1 -0 
1 130.05260666838484 164.28441153729003 0 -0 -0 -1 -1 0 0 0 1 -0 
1 111.76119402985076 194.48358208955224 0 -0 -0 -1 -1 0 0 0 1 -0 
1 111.76119402985076 194.48358208955224 0 -0 -0 -1 -1 0 0 0 1 -0 
1 67.524707398260489 207.75157306990226 0 -0 -0 -1 -1 0 0 0 1 -0 
Triangulations 0

TShapes 240
Ve
1.00000306111179e-07
163.15223880597 241.098507462687 0
0 0

0101101
*
Ve
1.00000255795385e-07
163.15223880597 255.235820895522 0
0 0

0101101
*
Ed
 1e-07 1 1 0
1  1 0 0 14.1373134328358
2  1 1 0 0 14.1373134328358
2  2 2 0 0 14.1373134328358
0

0101000
+240 0 -239 0 *
Ve
1.00000369482223e-07
167.737313432836 255.235820895522 0
0 0

0101101
*
Ed
 1e-07 1 1 0
1  2 0 0 4.58507462686569
2  3 1 0 0 4.58507462686569
0

0101000
+239 0 -237 0 *
Ve
1e-07
167.737313432836 241.098507462687 0
0 0

0101101
*
Ed
 1e-07 1 1 0
1  3 0 0 14.1373134328358
2  4 1 0 0 14.1373134328358
2  5 3 0 0 14.1373134328358
0

0101000
+237 0 -235 0 *
Ed
 1e-07 1 1 0
1  4 0 0 4.58507462686569
2  6 1 0 0 4.58507462686569
0

0101000
+235 0 -240 0 *
Wi

0101100
+238 0 +236 0 +234 0 +233 0 *
Fa
0  1e-07 1 0

0111000
+232 0 *
Ve
1e-07
123.032835820896 213.205970149254 0
0 0

0101101
*
Ve
1e-07
123.032835820896 255.235820895522 0
0 0

0101101
*
Ed
 1e-07 1 1 0
1  5 0 0 42.0298507462687
2  7 2 0 0 42.0298507462687
0

0101000
+230 0 -229 0 *
Ve
1e-07
157.814272388059 255.235820895522 0
0 0

0101101
*
Ed
 1e-07 1 1 0
1  6 0 0 34.7814365671635
2  8 2 0 0 34.7814365671635
0

0101000
+229 0 -227 0 *
Ve
1.00000312638804e-07
162.388059701493 255.235820895522 0
0 0

0101101
*
Ed
 1e-07 1 1 0
1  7 0 0 4.573787313434
2  9 2 0 0 4.573787313434
0

0101000
+227 0 -225 0 *
Ed
 1.00000085265128e-07 1 1 0
1  7 0 4.573787313434 5.33796641791113
2  9 2 0 4.573787313434 5.33796641791113
0

0101000
+225 0 -239 0 *
Ve
1.00000127105749e-07
163.15223880597 236.513432835821 0
0 0

0101101
*
Ed
 1e-07 1 1 0
1  8 0 0 4.58507462686566
2  10 2 0 0 4.58507462686566
0

0101000
+240 0 -222 0 *
Ve
1.00000146309704e-07
163.15223880597 213.205970149254 0
0 0

0101101
*
Ed
 1e-07 1 1 0
1  9 0 0 23.3074626865672
2  11 2 0 0 23.3074626865672
2  12 4 0 0 23.3074626865672
0

0101000
+222 0 -220 0 *
Ve
1.00000144922851e-07
149.779104477612 213.205970149254 0
0 0

0101101
*
Ed
 1e-07 1 1 0
1  10 0 0 13.3731343283582
2  13 2 0 0 13.3731343283582
0

0101000
+220 0 -218 0 *
Ve
1.00000244492789e-07
135.259701492537 213.205970149254 0
0 0

0101101
*
Ed
 1e-07 1 1 0
1  11 0 0 14.5194029850746
2  14 2 0 0 14.5194029850746
2  15 5 0 0 14.5194029850746
0

0101000
+218 0 -216 0 *
Ve
1.0000015776609e-07
127.617910447761 213.205970149254 0
0 0

0101101
*
Ed
 1e-07 1 1 0
1  12 0 0 7.64179104477613
2  16 2 0 0 7.64179104477613
0

0101000
+216 0 -214 0 *
Ed
 1e-07 1 1 0
1  13 0 0 4.58507462686566
2  17 2 0 0 4.58507462686566
0

0101000
+214 0 -230 0 *
Wi

0101100
+228 0 +226 0 +224 0 +223 0 -238 0 +221 0 +219 0 +217 0 +215 0 +213 0 
+212 0 *
Fa
0  1e-07 2 0

0111000
+211 0 *
Ve
1e-07
167.737313432836 236.513432835821 0
0 0

0101101
*
Ed
 1e-07 1 1 0
1  14 0 0 4.58507462686566
2  18 6 0 0 4.58507462686566
2  19 3 0 0 4.58507462686566
0

0101000
+235 0 -209 0 *
Ve
1e-07
167.737313432836 213.205970149254 0
0 0

0101101
*
Ed
 1e-07 1 1 0
1  15 0 0 23.3074626865672
2  20 7 0 0 23.3074626865672
2  21 3 0 0 23.3074626865672
2  22 4 0 0 23.3074626865672
0

0101000
+209 0 -207 0 *
Ve
1e-07
167.737313432836 208.620895522388 0
0 0

0101101
*
Ed
 1e-07 1 1 0
1  16 0 0 4.58507462686569
2  23 8 0 0 4.58507462686569
2  24 3 0 0 4.58507462686569
0

0101000
+207 0 -205 0 *
Ve
1e-07
167.737313432836 192.573134328358 0
0 0

0101101
*
Ed
 1e-07 1 1 0
1  17 0 0 16.0477611940298
2  25 9 0 0 16.0477611940298
2  26 3 0 0 16.0477611940298
2  27 10 0 0 16.0477611940298
0

0101000
+205 0 -203 0 *
Ve
1.00000170530257e-07
167.737313432836 153.6 0
0 0

0101101
*
Ed
 1e-07 1 1 0
1  18 0 0 38.9731343283582
2  28 11 0 0 38.9731343283582
2  29 3 0 0 38.9731343283582
0

0101000
+203 0 -201 0 *
Ve
1e-07
187.223880597015 153.6 0
0 0

0101101
*
Ed
 1e-07 1 1 0
1  19 0 0 19.4865671641791
2  30 12 0 0 19.4865671641791
2  31 3 0 0 19.4865671641791
2  32 13 0 0 19.4865671641791
0

0101000
+201 0 -199 0 *
Ve
1e-07
245.301492537313 153.6 0
0 0

0101101
*
Ed
 1e-07 1 1 0
1  20 0 0 58.0776119402985
2  33 14 0 0 58.0776119402985
2  34 3 0 0 58.0776119402985
0

0101000
+199 0 -197 0 *
Ve
1e-07
245.301492537313 255.235820895522 0
0 0

0101101
*
Ed
 1e-07 1 1 0
1  21 0 0 101.635820895522
2  35 14 0 0 101.635820895522
2  36 3 0 0 101.635820895522
0

0101000
+197 0 -195 0 *
Ed
 1e-07 1 1 0
1  22 0 0 77.5641791044774
2  37 14 0 0 77.5641791044774
2  38 3 0 0 77.5641791044774
0

0101000
+195 0 -237 0 *
Wi

0101100
-234 0 -208 0 -206 0 -204 0 -202 0 -200 0 -198 0 -196 0 -194 0 -193 0 
*
Fa
0  1e-07 3 0

0101000
+192 0 *
Ed
 1e-07 1 1 0
1  23 0 0 4.58507462686569
2  39 4 0 0 4.58507462686569
0

0101000
+207 0 -220 0 *
Ed
 1e-07 1 1 0
1  24 0 0 4.58507462686569
2  40 4 0 0 4.58507462686569
0

0101000
+222 0 -209 0 *
Wi

0101100
+206 0 +190 0 -219 0 +189 0 *
Fa
0  1e-07 4 0

0111000
+188 0 *
Ve
1e-07
135.259701492537 208.620895522388 0
0 0

0101101
*
Ed
 1e-07 1 1 0
1  25 0 0 4.58507462686569
2  41 5 0 0 4.58507462686569
0

0101000
+186 0 -216 0 *
Ve
1e-07
149.779104477612 208.620895522388 0
0 0

0101101
*
Ed
 1e-07 1 1 0
1  26 0 0 4.58507462686569
2  42 5 0 0 4.58507462686569
0

0101000
+218 0 -184 0 *
Ed
 1e-07 1 1 0
1  27 0 0 14.5194029850746
2  43 15 0 0 14.5194029850746
2  44 16 0 0 14.5194029850746
2  45 5 0 0 14.5194029850746
0

0101000
+184 0 -186 0 *
Wi

0101100
+185 0 -215 0 +183 0 +182 0 *
Fa
0  1e-07 5 0

0111000
+181 0 *
Ve
1e-07
163.15223880597 192.573134328358 0
0 0

0101101
*
Ed
 1e-07 1 1 0
1  28 0 0 4.58507462686569
2  46 10 0 0 4.58507462686569
0

0101000
+203 0 -179 0 *
Ve
1.00000056843419e-07
163.15223880597 208.620895522388 0
0 0

0101101
*
Ed
 1e-07 1 1 0
1  29 0 0 16.0477611940298
2  47 17 0 0 16.0477611940298
2  48 16 0 0 16.0477611940298
2  49 10 0 0 16.0477611940298
0

0101000
+179 0 -177 0 *
Ed
 1e-07 1 1 0
1  30 0 0 4.58507462686569
2  50 10 0 0 4.58507462686569
0

0101000
+177 0 -205 0 *
Wi

0101100
+178 0 +176 0 +175 0 +202 0 *
Fa
0  1e-07 10 0

0111000
+174 0 *
Ve
1e-07
167.737313432836 149.014925373134 0
0 0

0101101
*
Ed
 1e-07 1 1 0
1  31 0 0 4.58507462686566
2  51 13 0 0 4.58507462686566
0

0101000
+172 0 -201 0 *
Ve
1e-07
187.223880597015 149.014925373134 0
0 0

0101101
*
Ed
 1e-07 1 1 0
1  32 0 0 4.58507462686566
2  52 13 0 0 4.58507462686566
0

0101000
+199 0 -170 0 *
Ed
 1e-07 1 1 0
1  33 0 0 19.4865671641791
2  53 18 0 0 19.4865671641791
2  54 19 0 0 19.4865671641791
2  55 13 0 0 19.4865671641791
0

0101000
+170 0 -172 0 *
Wi

0101100
+171 0 +198 0 +169 0 +168 0 *
Fa
0  1e-07 13 0

0111000
+167 0 *
Ve
1e-07
132.202985074627 208.620895522388 0
0 0

0101101
*
Ed
 1e-07 1 1 0
1  34 0 0 3.05671641791045
2  56 20 0 0 3.05671641791045
2  57 16 0 0 3.05671641791045
0

0101000
+186 0 -165 0 *
Ve
1e-07
132.202985074627 153.6 0
0 0

0101101
*
Ed
 1e-07 1 1 0
1  35 0 0 55.0208955223881
2  58 20 0 0 55.0208955223881
2  59 16 0 0 55.0208955223881
0

0101000
+165 0 -163 0 *
Ve
1e-07
163.15223880597 153.6 0
0 0

0101101
*
Ed
 1e-07 1 1 0
1  36 0 0 30.9492537313433
2  60 20 0 0 30.9492537313433
2  61 16 0 0 30.9492537313433
0

0101000
+163 0 -161 0 *
Ed
 1e-07 1 1 0
1  37 0 0 38.9731343283582
2  62 20 0 0 38.9731343283582
2  63 16 0 0 38.9731343283582
0

0101000
+161 0 -179 0 *
Ed
 1e-07 1 1 0
1  38 0 4.58507462686583 17.9582089552239
2  64 21 0 4.58507462686583 17.9582089552239
2  65 16 0 4.58507462686583 17.9582089552239
0

0101000
+177 0 -184 0 *
Wi

0101100
-164 0 -162 0 -160 0 -159 0 -176 0 -158 0 -182 0 *
Fa
0  1e-07 16 0

0101000
+157 0 *
Ve
1e-07
123.032835820896 62.2803970149254 0
0 0

0101101
*
Ve
1e-07
141.373134328358 62.2803970149254 0
0 0

0101101
*
Ed
 1e-07 1 1 0
1  39 0 0.00010000000000332 18.3403985074627
2  66 22 0 0.00010000000000332 18.3403985074627
2  67 19 0 0.00010000000000332 18.3403985074627
0

0101000
+155 0 -154 0 *
Ve
1e-07
141.373134328358 63.044776119403 0
0 0

0101101
*
Ed
 1e-07 1 1 0
1  40 0 3.82069552238806 4.58507462686567
2  68 23 0 3.82069552238806 4.58507462686567
2  69 19 0 3.82069552238806 4.58507462686567
0

0101000
+154 0 -152 0 *
Ve
1e-07
184.549253731343 63.044776119403 0
0 0

0101101
*
Ed
 1e-07 1 1 0
1  41 0 0 43.1761194029851
2  70 23 0 0 43.1761194029851
2  71 19 0 0 43.1761194029851
0

0101000
+152 0 -150 0 *
Ve
1e-07
212.823880597015 63.044776119403 0
0 0

0101101
*
Ed
 1e-07 1 1 0
1  42 0 0 28.2746268656716
2  72 24 0 0 28.2746268656716
2  73 19 0 0 28.2746268656716
0

0101000
+150 0 -148 0 *
Ve
1e-07
245.301492537313 63.044776119403 0
0 0

0101101
*
Ed
 1e-07 1 1 0
1  43 0 0 32.4776119402985
2  74 25 0 0 32.4776119402985
2  75 19 0 0 32.4776119402985
0

0101000
+148 0 -146 0 *
Ve
1e-07
245.301492537313 126.471641791045 0
0 0

0101101
*
Ed
 1e-07 1 1 0
1  44 0 0 63.4268656716418
2  76 25 0 0 63.4268656716418
2  77 19 0 0 63.4268656716418
0

0101000
+146 0 -144 0 *
Ve
1.00000341060513e-07
245.301492537313 149.014925373134 0
0 0

0101101
*
Ed
 1e-07 1 1 0
1  45 0 0 22.5432835820896
2  78 26 0 0 22.5432835820896
2  79 19 0 0 22.5432835820896
0

0101000
+144 0 -142 0 *
Ed
 1e-07 1 1 0
1  46 0 4.58507462686609 62.6626865671642
2  80 27 0 4.58507462686609 62.6626865671642
2  81 19 0 4.58507462686609 62.6626865671642
0

0101000
+142 0 -170 0 *
Ve
1e-07
132.202985074627 149.014925373134 0
0 0

0101101
*
Ed
 1e-07 1 1 0
1  47 0 0 35.534328358209
2  82 28 0 0 35.534328358209
2  83 19 0 0 35.534328358209
0

0101000
+172 0 -139 0 *
Ve
1e-07
132.202985074627 133.731343283582 0
0 0

0101101
*
Ed
 1e-07 1 1 0
1  48 0 0 15.2835820895523
2  84 28 0 0 15.2835820895523
2  85 19 0 0 15.2835820895523
0

0101000
+139 0 -137 0 *
Ve
1e-07
92.8477611940299 133.731343283582 0
0 0

0101101
*
Ed
 1e-07 1 1 0
1  49 0 0 39.355223880597
2  86 28 0 0 39.355223880597
2  87 19 0 0 39.355223880597
0

0101000
+137 0 -135 0 *
Ve
1e-07
73.3611940298508 133.731343283582 0
0 0

0101101
*
Ed
 1e-07 1 1 0
1  50 0 0 19.4865671641791
2  88 29 0 0 19.4865671641791
2  89 19 0 0 19.4865671641791
0

0101000
+135 0 -133 0 *
Ve
1e-07
71.0686567164179 133.731343283582 0
0 0

0101101
*
Ed
 1e-07 1 1 0
1  51 0 0 2.29253731343285
2  90 30 0 0 2.29253731343285
2  91 19 0 0 2.29253731343285
0

0101000
+133 0 -131 0 *
Ve
1.00000007105427e-07
71.0686567164179 107.940298507463 0
0 0

0101101
*
Ed
 1e-07 1 1 0
1  52 0 0 25.7910447761194
2  92 30 0 0 25.7910447761194
2  93 19 0 0 25.7910447761194
0

0101000
+131 0 -129 0 *
Ve
1.00000007105427e-07
71.0686567164179 88.4537313432836 0
0 0

0101101
*
Ed
 1e-07 1 1 0
1  53 0 0 19.4865671641791
2  94 31 0 0 19.4865671641791
2  95 19 0 0 19.4865671641791
0

0101000
+129 0 -127 0 *
Ve
1e-07
71.0686567164179 63.044776119403 0
0 0

0101101
*
Ed
 1e-07 1 1 0
1  54 0 0 25.4089552238806
2  96 23 0 0 25.4089552238806
2  97 19 0 0 25.4089552238806
0

0101000
+127 0 -125 0 *
Ve
1e-07
123.032835820896 63.044776119403 0
0 0

0101101
*
Ed
 1e-07 1 1 0
1  55 0 0 51.9641791044776
2  98 23 0 0 51.9641791044776
2  99 19 0 0 51.9641791044776
0

0101000
+125 0 -123 0 *
Ed
 1e-07 1 1 0
1  56 0 0 0.764379104477605
2  100 23 0 0 0.764379104477605
2  101 19 0 0 0.764379104477605
0

0101000
+123 0 -155 0 *
Wi

0101100
-153 0 -151 0 -149 0 -147 0 -145 0 -143 0 -141 0 -140 0 -168 0 -138 0 
-136 0 -134 0 -132 0 -130 0 -128 0 -126 0 -124 0 -122 0 -121 0 *
Fa
0  1e-07 19 0

0101000
+120 0 *
Ve
1e-07
123.032835820896 45.8507462686567 0
0 0

0101101
*
Ed
 1e-07 1 1 0
1  57 0 0.764379104477605 17.1940298507463
2  102 32 0 0.764379104477605 17.1940298507463
2  103 22 0 0.764379104477605 17.1940298507463
0

0101000
+155 0 -118 0 *
Ve
1e-07
122.268656716418 45.8507462686567 0
0 0

0101101
*
Ed
 1e-07 1 1 0
1  58 0 0 0.76417910447762
2  104 32 0 0 0.76417910447762
2  105 22 0 0 0.76417910447762
0

0101000
+118 0 -116 0 *
Ve
1e-07
122.268656716418 15.2835820895522 0
0 0

0101101
*
Ed
 1e-07 1 1 0
1  59 0 0 30.5671641791045
2  106 32 0 0 30.5671641791045
2  107 22 0 0 30.5671641791045
0

0101000
+116 0 -114 0 *
Ve
1e-07
123.032835820896 15.2835820895522 0
0 0

0101101
*
Ed
 1e-07 1 1 0
1  60 0 0 0.76417910447762
2  108 32 0 0 0.76417910447762
2  109 22 0 0 0.76417910447762
0

0101000
+114 0 -112 0 *
Ve
1e-07
123.032835820896 0.764179104477612 0
0 0

0101101
*
Ed
 1e-07 1 1 0
1  61 0 0 14.5194029850746
2  110 32 0 0 14.5194029850746
2  111 22 0 0 14.5194029850746
0

0101000
+112 0 -110 0 *
Ve
1e-07
178.435820895522 0.764179104477612 0
0 0

0101101
*
Ed
 1e-07 1 1 0
1  62 0 0 55.4029850746269
2  112 32 0 0 55.4029850746269
2  113 22 0 0 55.4029850746269
0

0101000
+110 0 -108 0 *
Ve
1e-07
178.435820895522 58.4597014925373 0
0 0

0101101
*
Ed
 1e-07 1 1 0
1  63 0 0 57.6955223880597
2  114 32 0 0 57.6955223880597
2  115 22 0 0 57.6955223880597
0

0101000
+108 0 -106 0 *
Ve
1e-07
141.373134328358 58.4597014925373 0
0 0

0101101
*
Ed
 1e-07 1 1 0
1  64 0 0 37.0626865671642
2  116 32 0 0 37.0626865671642
2  117 22 0 0 37.0626865671642
0

0101000
+106 0 -104 0 *
Ed
 1e-07 1 1 0
1  65 0 0 3.82069552238806
2  118 32 0 0 3.82069552238806
2  119 22 0 0 3.82069552238806
0

0101000
+104 0 -154 0 *
Wi

0101100
-117 0 -115 0 -113 0 -111 0 -109 0 -107 0 -105 0 -103 0 -102 0 +153 0 
*
Fa
0  1e-07 22 0

0101000
+101 0 *
Ve
1e-07
184.549253731343 58.4597014925373 0
0 0

0101101
*
Ed
 1e-07 1 1 0
1  66 0 0 4.58507462686567
2  120 24 0 0 4.58507462686567
0

0101000
+99 0 -150 0 *
Ve
1e-07
212.823880597015 58.4597014925373 0
0 0

0101101
*
Ed
 1e-07 1 1 0
1  67 0 0 4.58507462686567
2  121 24 0 0 4.58507462686567
0

0101000
+148 0 -97 0 *
Ed
 1e-07 1 1 0
1  68 0 0 28.2746268656716
2  122 24 0 0 28.2746268656716
0

0101000
+97 0 -99 0 *
Wi

0101100
+98 0 +147 0 +96 0 +95 0 *
Fa
0  1e-07 24 0

0111000
+94 0 *
Ve
1e-07
249.886567164179 126.471641791045 0
0 0

0101101
*
Ed
 1e-07 1 1 0
1  69 0 0 4.58507462686566
2  123 26 0 0 4.58507462686566
0

0101000
+92 0 -144 0 *
Ve
1e-07
249.886567164179 149.014925373134 0
0 0

0101101
*
Ed
 1e-07 1 1 0
1  70 0 0 4.58507462686566
2  124 26 0 0 4.58507462686566
0

0101000
+142 0 -90 0 *
Ed
 1e-07 1 1 0
1  71 0 0 22.5432835820896
2  125 26 0 0 22.5432835820896
0

0101000
+90 0 -92 0 *
Wi

0101100
+91 0 +141 0 +89 0 +88 0 *
Fa
0  1e-07 26 0

0111000
+87 0 *
Ve
1e-07
73.3611940298508 138.316417910448 0
0 0

0101101
*
Ed
 1e-07 1 1 0
1  72 0 0 4.58507462686569
2  126 29 0 0 4.58507462686569
0

0101000
+133 0 -85 0 *
Ve
1.00000042632564e-07
92.8477611940299 138.316417910448 0
0 0

0101101
*
Ed
 1e-07 1 1 0
1  73 0 0 19.4865671641791
2  127 29 0 0 19.4865671641791
2  128 33 0 0 19.4865671641791
0

0101000
+85 0 -83 0 *
Ed
 1e-07 1 1 0
1  74 0 0 4.58507462686569
2  129 29 0 0 4.58507462686569
0

0101000
+83 0 -135 0 *
Wi

0101100
+84 0 +82 0 +81 0 +132 0 *
Fa
0  1e-07 29 0

0111000
+80 0 *
Ve
1.00000056843419e-07
66.4835820895523 88.4537313432836 0
0 0

0101101
*
Ed
 1e-07 1 1 0
1  75 0 0 4.58507462686565
2  130 31 0 0 4.58507462686565
0

0101000
+127 0 -78 0 *
Ve
1.00000056843419e-07
66.4835820895523 107.940298507463 0
0 0

0101101
*
Ed
 1.0000002842171e-07 1 1 0
1  76 0 0 19.4865671641791
2  131 31 0 0 19.4865671641791
2  132 34 0 0 19.4865671641791
0

0101000
+78 0 -76 0 *
Ed
 1e-07 1 1 0
1  77 0 0 4.58507462686565
2  133 31 0 0 4.58507462686565
0

0101000
+76 0 -129 0 *
Wi

0101100
+77 0 +75 0 +74 0 +126 0 *
Fa
0  1e-07 31 0

0111000
+73 0 *
Ve
1.00000057285787e-07
24.4537313432836 208.620895522388 0
0 0

0101101
*
Ve
1e-07
24.4537313432836 181.110447761194 0
0 0

0101101
*
Ed
 1e-07 1 1 0
1  78 0 0 27.510447761194
2  134 35 0 0 27.510447761194
2  135 33 0 0 27.510447761194
0

0101000
+71 0 -70 0 *
Ve
1e-07
24.4537313432836 176.525373134328 0
0 0

0101101
*
Ed
 1e-07 1 1 0
1  79 0 0 4.58507462686566
2  136 36 0 0 4.58507462686566
2  137 33 0 0 4.58507462686566
0

0101000
+70 0 -68 0 *
Ve
1e-07
10.6985074626866 176.525373134328 0
0 0

0101101
*
Ed
 1e-07 1 1 0
1  80 0 0 13.755223880597
2  138 36 0 0 13.755223880597
2  139 33 0 0 13.755223880597
0

0101000
+68 0 -66 0 *
Ve
1e-07
10.6985074626866 138.316417910448 0
0 0

0101101
*
Ed
 1e-07 1 1 0
1  81 0 0 38.2089552238806
2  140 36 0 0 38.2089552238806
2  141 33 0 0 38.2089552238806
0

0101000
+66 0 -64 0 *
Ed
 1e-07 1 1 0
1  82 0 0 62.6626865671642
2  142 36 0 0 62.6626865671642
2  143 33 0 0 62.6626865671642
0

0101000
+64 0 -85 0 *
Ve
1e-07
92.8477611940299 176.14328358209 0
0 0

0101101
*
Ed
 1e-07 1 1 0
1  83 0 4.58507462686592 42.4119402985075
2  144 37 0 4.58507462686592 42.4119402985075
2  145 33 0 4.58507462686592 42.4119402985075
0

0101000
+83 0 -61 0 *
Ve
1e-07
92.8477611940299 192.191044776119 0
0 0

0101101
*
Ed
 1e-07 1 1 0
1  84 0 0 16.0477611940298
2  146 38 0 0 16.0477611940298
2  147 33 0 0 16.0477611940298
0

0101000
+61 0 -59 0 *
Ve
1e-07
92.8477611940299 208.620895522388 0
0 0

0101101
*
Ed
 1e-07 1 1 0
1  85 0 0 16.4298507462686
2  148 39 0 0 16.4298507462686
2  149 33 0 0 16.4298507462686
0

0101000
+59 0 -57 0 *
Ed
 1e-07 1 1 0
1  86 0 0 68.3940298507463
2  150 39 0 0 68.3940298507463
2  151 33 0 0 68.3940298507463
0

0101000
+57 0 -71 0 *
Wi

0101100
-69 0 -67 0 -65 0 -63 0 -62 0 -82 0 -60 0 -58 0 -56 0 -55 0 
*
Fa
0  1e-07 33 0

0101000
+54 0 *
Ve
1e-07
38.5910447761194 133.731343283582 0
0 0

0101101
*
Ve
1.00000047664656e-07
66.4835820895522 133.731343283582 0
0 0

0101101
*
Ed
 1e-07 1 1 0
1  87 0 0 27.8925373134328
2  152 34 0 0 27.8925373134328
0

0101000
+52 0 -51 0 *
Ve
1e-07
66.4835820895522 121.886567164179 0
0 0

0101101
*
Ed
 1e-07 1 1 0
1  88 0 0 11.844776119403
2  153 34 0 0 11.844776119403
0

0101000
+51 0 -49 0 *
Ed
 1e-07 1 1 0
1  89 0 0 13.9462686567161
2  154 34 0 0 13.9462686567161
0

0101000
+49 0 -76 0 *
Ve
1e-07
66.4835820895522 74.5074626865672 0
0 0

0101101
*
Ed
 1e-07 1 1 0
1  89 0 33.4328358208955 47.3791044776119
2  154 34 0 33.4328358208955 47.3791044776119
0

0101000
+78 0 -46 0 *
Ve
1e-07
66.4835820895522 58.4597014925373 0
0 0

0101101
*
Ed
 1e-07 1 1 0
1  90 0 0 16.0477611940299
2  155 34 0 0 16.0477611940299
0

0101000
+46 0 -44 0 *
Ve
1e-07
38.5910447761194 58.4597014925373 0
0 0

0101101
*
Ed
 1e-07 1 1 0
1  91 0 0 27.8925373134328
2  156 34 0 0 27.8925373134328
0

0101000
+44 0 -42 0 *
Ed
 1e-07 1 1 0
1  92 0 0 75.2716417910448
2  157 34 0 0 75.2716417910448
0

0101000
+42 0 -52 0 *
Wi

0101100
+50 0 +48 0 +47 0 -75 0 +45 0 +43 0 +41 0 +40 0 *
Fa
0  1e-07 34 0

0111000
+39 0 *
Ve
1e-07
19.8686567164179 181.110447761194 0
0 0

0101101
*
Ed
 1e-07 1 1 0
1  93 0 0 4.58507462686567
2  158 35 0 0 4.58507462686567
0

0101000
+70 0 -37 0 *
Ve
1e-07
19.8686567164179 208.620895522388 0
0 0

0101101
*
Ed
 1e-07 1 1 0
1  94 0 0 27.510447761194
2  159 35 0 0 27.510447761194
0

0101000
+37 0 -35 0 *
Ed
 1e-07 1 1 0
1  95 0 0 4.58507462686567
2  160 35 0 0 4.58507462686567
0

0101000
+35 0 -71 0 *
Wi

0101100
+36 0 +34 0 +33 0 +69 0 *
Fa
0  1e-07 35 0

0111000
+32 0 *
Ve
1e-07
97.4328358208955 176.14328358209 0
0 0

0101101
*
Ed
 1e-07 1 1 0
1  96 0 0 4.58507462686566
2  161 38 0 0 4.58507462686566
0

0101000
+30 0 -61 0 *
Ve
1e-07
93.2298507462687 192.191044776119 0
0 0

0101101
*
Ed
 1e-07 1 1 0
1  97 0 0 0.382089552238796
2  162 38 0 0 0.382089552238796
0

0101000
+59 0 -28 0 *
Ve
1.00000397903932e-07
97.4328358208955 192.191044776119 0
0 0

0101101
*
Ed
 1e-07 1 1 0
1  98 0 0 4.20298507462687
2  163 38 0 0 4.20298507462687
0

0101000
+28 0 -26 0 *
Ed
 1e-07 1 1 0
1  99 0 0 16.0477611940298
2  164 40 0 0 16.0477611940298
2  165 41 0 0 16.0477611940298
2  166 38 0 0 16.0477611940298
0

0101000
+26 0 -30 0 *
Wi

0101100
+29 0 +58 0 +27 0 +25 0 +24 0 *
Fa
0  1e-07 38 0

0111000
+23 0 *
Ve
1e-07
97.4328358208955 138.316417910448 0
0 0

0101101
*
Ed
 1e-07 1 1 0
1  100 0 0 37.8268656716418
2  167 42 0 0 37.8268656716418
2  168 41 0 0 37.8268656716418
0

0101000
+30 0 -21 0 *
Ve
1e-07
127.617910447761 138.316417910448 0
0 0

0101101
*
Ed
 1e-07 1 1 0
1  101 0 0 30.1850746268657
2  169 42 0 0 30.1850746268657
2  170 41 0 0 30.1850746268657
0

0101000
+21 0 -19 0 *
Ve
1e-07
127.617910447761 192.191044776119 0
0 0

0101101
*
Ed
 1e-07 1 1 0
1  102 0 0 53.8746268656716
2  171 42 0 0 53.8746268656716
2  172 41 0 0 53.8746268656716
0

0101000
+19 0 -17 0 *
Ve
1e-07
118.44776119403 192.191044776119 0
0 0

0101101
*
Ed
 1e-07 1 1 0
1  103 0 0 9.17014925373134
2  173 42 0 0 9.17014925373134
2  174 41 0 0 9.17014925373134
0

0101000
+17 0 -15 0 *
Ve
1e-07
105.074626865672 192.191044776119 0
0 0

0101101
*
Ed
 1e-07 1 1 0
1  104 0 0 13.3731343283582
2  175 43 0 0 13.3731343283582
2  176 41 0 0 13.3731343283582
2  177 44 0 0 13.3731343283582
0

0101000
+15 0 -13 0 *
Ed
 1e-07 1 1 0
1  105 0 0 7.64179104477614
2  178 45 0 0 7.64179104477614
2  179 41 0 0 7.64179104477614
0

0101000
+13 0 -26 0 *
Wi

0101100
-20 0 -18 0 -16 0 -14 0 -12 0 -11 0 -24 0 *
Fa
0  1e-07 41 0

0101000
+10 0 *
Ve
1e-07
105.074626865672 196.776119402985 0
0 0

0101101
*
Ed
 1e-07 1 1 0
1  106 0 0 4.58507462686566
2  180 44 0 0 4.58507462686566
0

0101000
+13 0 -8 0 *
Ve
1e-07
118.44776119403 196.776119402985 0
0 0

0101101
*
Ed
 1e-07 1 1 0
1  107 0 0 13.3731343283582
2  181 44 0 0 13.3731343283582
0

0101000
+8 0 -6 0 *
Ed
 1e-07 1 1 0
1  108 0 0 4.58507462686566
2  182 44 0 0 4.58507462686566
0

0101000
+6 0 -15 0 *
Wi

0101100
+7 0 +5 0 +4 0 +12 0 *
Fa
0  1e-07 44 0

0111000
+3 0 *
Sh

0101000
+231 0 +210 0 +191 0 +187 0 +180 0 +173 0 +166 0 +156 0 +119 0 +100 0 
+93 0 +86 0 +79 0 +72 0 +53 0 +38 0 +31 0 +22 0 +9 0 +2 0 
*

+1 0 