
CASCADE Topology V3, (c) Open Cascade
Locations 0
Curve2ds 162
1 -3.3020409100009491 0.59205388801628711 0.97014250014538717 -0.24253562503611192 
1 0.53229064742252952 2 -1 0 
1 -0.48001577541874862 1.6180499946665883 -0.97014250014538717 -0.24253562503611192 
1 -2.2692453510119499 0.33385499826928733 0.09053574604245522 -0.99589320646770962 
1 -1.4259499757472687 -2 1 0 
1 -1.5128113344077478 1.3598511049195885 -0.09053574604245522 -0.99589320646770962 
1 -2.0110464612649501 -2.5063327889497131 1 0 
1 2 -2.4528894525980007 0 1 
1 2.8947324439310496 -2.5063327889497131 0 1 
1 2.8947324439310496 1.883048336752287 -0.70710678118654757 0.70710678118654757 
1 2.37833466443705 2.3994461162462866 -0.99654575824488412 -0.083045479853686682 
1 1.554563175515268 2 -1 -0 
1 -0.72005201252894935 2.1412472264992868 -1 0 
1 -2 1.290994448735999 0 -1 
1 -1.290994448735999 -1.0327955589885001 1 0 
1 -3.3020409100009491 2.1412472264992868 0 -1 
1 2 -0.7745966692414985 0 1 
1 -1.0327955589884992 -0.25819888974699978 0 -1 
1 2 0.77459666924150117 -1 0 
1 0.53229064742252952 2 0 -1 
1 1.5 1.0327955589885001 -1 0 
1 -0.48001577541874862 1.6180499946665883 -0.97014250014538717 -0.24253562503611192 
1 0.53229064742252952 -1 -1 0 
1 -0.53229064742252974 2 0 -1 
1 -1.4259499757470393 -2 0 1 
1 -1.5128113344077478 1.3598511049195885 -0.09053574604245522 -0.99589320646770962 
1 -1.4259499757472687 1 1 0 
1 1.4259499757472696 -2 0 1 
1 1.4999999999999998 1.6782927833566816 -1 0 
1 2 -2.4528894525978195 -1 0 
1 2 2.452889452597999 -1 0 
1 -2 2.452889452597999 0 -1 
1 2 -2.4528894525978195 -1 0 
1 -2 -2.1946905628508686 1 0 
1 -0.36514837167010994 -2 0 1 
1 2.894732443930998 -2.5063327889496394 0 1 
1 2 2.1946905628508695 0 -1 
1 0.36514837167011244 -2 0 1 
1 1.5545631755148046 2 0 -1 
1 2.894732443930998 1.8830483367520987 -0.70710678118654757 0.70710678118654757 
1 -0.36514837167010994 2 1 0 
1 -1.5545631755148008 2 0 -1 
1 -2 1.2909944487356029 1 0 
1 -1.4999999999999998 1.0327955589886457 1 0 
1 -2 1.2909944487356029 1 0 
1 2.3783346644366752 2.3994461162464216 -0.99654575824487968 -0.08304547985374007 
1 1.5545631755148046 -2 -1 -0 
1 -1.2909944487360008 -1.0327955589885001 1 0 
1 1 1.290994448735999 0 -1 
1 -2 -0.7745966692414985 1 0 
1 2 -1.2909944487360008 -1 0 
1 -2.5 1.0327955589885001 1 0 
1 -1.0327955589884992 -0.25819888974699978 0 -1 
1 -1 -0.7745966692414985 0 1 
1 0.53229064742252952 2 0 -1 
1 -0.53229064742252974 -2 1 0 
1 -1.4259499757470393 -2 0 1 
1 1.4259499757472696 2 -1 0 
1 2 -1.2909944487360008 0 1 
1 -2 0.77459666924150117 0 -1 
1 2 -1.2909944487360008 -1 0 
1 1.5855753425582524 1.6180499946665883 -1 0 
1 1.5 -1.032795558988501 0 1 
1 1.0327955589885018 -1.8073922282299995 -1 0 
1 -1.7710102241547476 -1.480336682299412 1 0 
1 1.4999999999999998 1.6782927833565005 0 -1 
1 1.5855753425582524 -1.480336682299412 0 1 
1 1.5 0.5163977794945005 0 -1 
1 -1.9364916731040003 0.25819888974700156 0 -1 
1 1.5855753425582524 1.6180499946665883 0 -1 
1 1.5 -1.0327955589885001 0 1 
1 -1.5 1.0327955589885001 0 -1 
1 -0.48001577541874862 1.6180499946665883 1 0 
1 -1.0327955589884992 -1.8073922282299995 1 0 
1 -1.5 -1.0327955589885001 1 0 
1 -1.5 -1.032795558988501 1 0 
1 -1.5 0.77459666924149939 1 0 
1 -1.7710102241547476 -1.480336682299412 1 0 
1 -1.5000000000000002 1.6782927833565005 0 -1 
1 1.5 0.5163977794945005 -1 0 
1 1.4999999999999998 -1.6782927833564996 -1 0 
1 -1.5 0.5163977794945005 0 -1 
1 1.5855753425582524 -1.480336682299412 0 1 
1 1.5 1.0327955589885001 -1 0 
1 1.5 1.9364916731040021 -1 0 
1 1.5 -0.51639777949449961 -1 0 
1 -1.5 1.0327955589885001 0 -1 
1 1.5855753425582524 -0.44754112331041185 0 1 
1 1.9364916731039994 -1.8073922282299986 0 1 
1 -1.0327955589884992 1.8073922282300003 0 -1 
1 1.2909944487360008 1.0327955589885001 0 -1 
1 1.5 -1.0327955589885001 0 1 
1 1.2909944487360008 1.0327955589885001 -1 0 
1 1.4999999999999998 -1.290994448735999 0 1 
1 -1.290994448735999 1.0327955589885001 0 -1 
1 -1.4999999999999998 -1.0327955589885551 0 1 
1 -1.5 -1.0327955589885001 1 0 
1 -1.4999999999999996 1.0327955589885001 1 0 
1 -1.5000000000000002 -1.290994448735999 1 0 
1 -1.5 1.0327955589885001 0 -1 
1 -1.0327955589884992 -0.25819888974699978 0 1 
1 1.290994448735999 -1.0327955589885001 0 1 
1 -1.5000000000000002 1.2909944487360008 0 -1 
1 -1.2909944487360008 1.0327955589885001 1 0 
1 1.4999999999999998 1.2909944487360008 -1 0 
1 -1.4999999999999998 -1.0327955589885551 1 0 
1 -1.2909944487360008 1.0327955589885001 0 -1 
1 1.5000000000000002 -1.0327955589885551 0 1 
1 1.0327955589885018 1.8073922282300003 -1 0 
1 1.5000000000000004 -1.032795558988501 0 1 
1 -1.9364916731040003 1.8073922282300012 0 -1 
1 1.0327955589885018 -0.25819888974699978 0 -1 
1 1.5 -0.77459666924150028 0 1 
1 1.0327955589885018 -0.25819888974699978 0 1 
1 -1.5491933384829997 -1.0327955589885001 0 1 
1 1.5 1.0327955589885001 0 -1 
1 -1.4999999999999996 1.0327955589885001 0 -1 
1 -1.0327955589884992 1.8073922282300003 1 0 
1 1.5 1.5491933384830006 -1 0 
1 -1.4999999999999996 -1.032795558988501 1 0 
1 -1.5 -1.0327955589885001 1 0 
1 -1.5 0.77459666924149939 0 -1 
1 1.0327955589885018 -1.8073922282299995 0 1 
1 1.9364916731039994 0.25819888974700156 0 1 
1 1.5 1.0327955589885001 -1 0 
1 1.5 -0.77459666924150028 -1 0 
1 1.4999999999999998 1.5491933384830006 -1 0 
1 -1.5 1.0327955589885001 0 -1 
1 1.0327955589885018 -0.25819888974699978 0 1 
1 -1.5491933384829997 -1.0327955589885001 0 1 
1 -1.9364916731040003 -1.8073922282299986 1 0 
1 1.5 1.9364916731040021 0 -1 
1 1.9364916731039994 -1.8073922282299986 0 1 
1 1.9364916731039994 1.8073922282300012 -1 0 
1 1.4999999999999998 -0.38729833462099972 0 1 
1 1.161895003862 1.8073922282300012 -1 0 
1 1.5491933384830006 -1.0327955589885001 -1 0 
1 1.4999999999999998 -1.5491933384829997 0 1 
1 -1.9364916731040003 -1.8073922282299986 1 0 
1 -1.5 -1.9364916731039976 0 1 
1 1.4999999999999998 1.8073922282301282 -1 0 
1 1.5 -1.936491673103709 -1 0 
1 -1.9364916731040003 1.8073922282300012 0 -1 
1 -1.5000000000000002 -0.38729833462099972 1 0 
1 -1.5000000000000002 -1.5491933384829997 1 0 
1 -1.5000000000000002 1.0327955589884432 1 0 
1 -1.5000000000000002 0.38729833462099972 1 0 
1 -1.1618950038620008 1.8073922282300012 -1 0 
1 -1.5000000000000002 0.38729833462099972 0 -1 
1 1.9364916731039994 1.8073922282300012 -1 0 
1 -1.5000000000000002 1.5491933384830006 0 -1 
1 -1.5491933384829997 -1.0327955589885001 1 0 
1 1.5491933384830006 1.0327955589885001 -1 0 
1 -1.5 -1.5491933384829997 0 1 
1 1.5491933384830006 -1.0327955589885001 0 1 
1 1.4999999999999998 1.0327955589884432 0 -1 
1 -1.5 -1.5491933384829997 1 0 
1 1.4999999999999998 -1.0327955589885569 -1 0 
1 1.5 -1.5491933384829997 0 1 
1 1.5491933384830006 1.0327955589885001 -1 0 
1 1.5491933384830006 -1.0327955589885001 0 1 
1 -1.5000000000000002 1.0327955589884432 0 -1 
Curves 71
1 8.0041655821620008 7.7459666924150001 0 0.97014250014538705 -0.2425356250361119 0 
1 9.036961141151 7.4877678026680003 0 0.09053574604245522 -0.99589320646770962 0 
1 9.2951600308979998 4.6475800154489999 0 1 0 0 
1 14.200938936093999 4.6475800154489999 0 0 1 0 
1 14.200938936093999 9.036961141151 0 -0.70710678118654757 0.70710678118654757 0 
1 13.6845411566 9.5533589206449996 0 -0.99654575824488412 -0.083045479853686682 0 
1 10.586154479634001 9.2951600308979998 0 -1 0 0 
1 8.0041655821620008 9.2951600308979998 0 0 -1 0 
1 8.0041655821620008 7.7459666924150001 0 0 0 1 
1 8.0041655821620008 7.7459666924150001 3 0.97014250014538705 -0.2425356250361119 0 
1 9.0369611411509414 7.487767802667765 0 0 0 1 
1 9.036961141151 7.4877678026680003 3 0.09053574604245522 -0.99589320646770962 0 
1 9.295160030898181 4.6475800154490159 0 0 0 1 
1 14.200938936093999 4.6475800154489999 0 0 0 1 
1 14.200938936093999 4.6475800154489999 4 -1 0 0 
1 14.200938936093861 9.0369611411506376 0 0 0 1 
1 14.200938936093861 4.6475800154488995 4 0 1 0 
1 13.684541156599538 9.5533589206449605 0 0 0 1 
1 14.200938936093861 9.0369611411506376 4 -0.70710678118654757 0.70710678118654757 0 
1 10.586154479633604 9.2951600308977991 0 0 0 1 
1 13.684541156599538 9.5533589206449605 4 -0.99654575824487956 -0.083045479853740056 0 
1 10.586154479634001 9.2951600308979998 3 -1 0 0 
1 8.0041655821620008 9.2951600308979998 4 0 0 -1 
1 8.0041655821620008 9.2951600308979998 3 0 -1 0 
1 9.0369611411509414 7.487767802667765 4 -0.97014250014533177 0.24253562503633294 0 
1 9.295160030898181 4.6475800154490159 4 -0.090535746042518739 0.99589320646770385 0 
1 8.0041655821620008 9.2951600308979998 4 1 0 0 
1 8.0041655821620008 7.7459666924150001 4 0 1 0 
1 5.9385744641849998 7.7459666924150001 0 1 0 0 
1 9.2951600308979998 4.6475800154489999 0 -1 0 0 
1 5.9385744641849998 4.6475800154489999 0 0 1 0 
1 5.9385744641849998 7.7459666924150001 0 0 -1 0 
1 8.0041655821620008 7.7459666924150001 3 -1 0 0 
1 5.9385744641849998 7.7459666924150001 3 0 0 -1 
1 9.2951600308979998 4.6475800154489999 3 -1 0 0 
1 5.9385744641849998 4.6475800154489999 0 0 0 1 
1 5.9385744641849998 4.6475800154489999 3 0 1 0 
1 5.9385744641849998 5.680375574438 0 0 0 1 
1 5.9385744641849998 5.680375574438 3 0 1 0 
1 8.0041655821620008 11.360751148875 0 0 -1 0 
1 8.0041655821620008 11.360751148875 0 1 0 0 
1 10.586154479634001 11.360751148875 0 0 -1 0 
1 8.0041655821620008 11.360751148875 3 0 0 -1 
1 8.0041655821620008 9.2951600308979998 3 0 1 0 
1 10.586154479634001 11.360751148875 3 -1 0 0 
1 10.586154479634001 11.360751148875 0 0 0 1 
1 10.586154479634001 11.360751148875 3 0 -1 0 
1 5.9385744641849998 11.360751148875 0 1 0 0 
1 5.9385744641849998 9.2951600308979998 0 0 -1 0 
1 5.9385744641849998 9.2951600308979998 0 0 1 0 
1 8.0041655821620008 11.360751148875 3 -1 0 0 
1 5.9385744641849998 11.360751148875 3 0 0 -1 
1 5.9385744641849998 7.7459666924150001 3 0 1 0 
1 5.9385744641849998 9.2951600308979998 0 0 0 1 
1 5.9385744641849998 9.2951600308979998 3 0 1 0 
1 5.9385744641849998 5.680375574438 0 -1 0 0 
1 2.0655911179770001 5.680375574438 0 0 1 0 
1 2.0655911179770001 9.2951600308979998 0 1 0 0 
1 2.8401877872189996 9.2951600308979998 0 1 0 0 
1 2.0655911179770001 5.680375574438 3 1 0 0 
1 2.0655911179772888 5.6803755744375444 0 0 0 1 
1 2.0655911179770001 9.2951600308979998 3 0 -1 0 
1 2.0655911179770001 9.2951600308979998 3 0 0 -1 
1 2.8401877872189996 9.2951600308979998 3 0 0 -1 
1 2.8401877872189996 9.2951600308979998 3 -1 0 0 
1 5.9385744641849998 9.2951600308979998 3 -1 0 0 
1 2.8401877872189996 11.360751148875 0 1 0 0 
1 2.8401877872189996 9.2951600308979998 0 0 1 0 
1 2.8401877872189996 11.360751148875 0 0 0 1 
1 2.8401877872189996 11.360751148875 3 1 0 0 
1 2.8401877872189996 9.2951600308979998 3 0 1 0 
Polygon3D 0
PolygonOnTriangulations 0
Surfaces 36
1 11.30620649216295 7.153912804398713 0 0 0 1 1 0 -0 -0 1 0 
1 8.5205633616564711 7.616867247541383 2 -0.24253562503633297 -0.97014250014533188 -0 -0.97014250014533188 0.24253562503633297 0 0 0 -1 
1 7.5241498067432522 6.1279166977484119 0 -0 -0 -1 -1 0 0 0 1 -0 
1 9.1660605860245887 6.0676739090585086 2 -0.99589320646770385 -0.090535746042518697 -0 0.090535746042518697 -0.99589320646770385 0 -0 0 1 
1 11.748049483496001 4.6475800154490008 2 -0 -1 -0 0 0 -1 1 -0 0 
1 12.135347818116569 9.4242594757713789 2 -0.083045479853740084 0.99654575824487968 0 0.99654575824487968 0.083045479853740084 0 0 0 -1 
1 9.2951600308980016 9.2951600308980016 2 0 1 0 0 -0 1 1 0 -0 
1 9.2951600308980016 10.3279555898865 0 -0 -0 -1 -1 0 0 0 1 -0 
1 8.0041655821620008 8.5205633616565013 2 -1 -0 -0 0 0 -1 0 -1 0 
1 6.9713700231735016 9.5533589206449996 0 -0 -0 -1 -1 0 0 0 1 -0 
1 6.9713700231735007 7.7459666924150001 1.5 -0 -1 -0 0 0 -1 1 -0 0 
1 7.5241498067432522 6.1279166977484119 2.9999999999999996 -0 -0 -1 -1 0 0 0 1 -0 
1 7.6168672475414994 4.647580015448999 1.4999999999999998 -0 -1 -0 0 0 -1 1 -0 0 
1 14.200938936093861 6.842270578299769 2 1 0 0 -0 0 1 0 -1 0 
1 13.9427400463467 9.2951600308977973 2 0.70710678118654757 0.70710678118654746 0 -0.70710678118654746 0.70710678118654757 0 0 -0 1 
1 11.306206492162863 7.1539128043985389 4 0 0 1 1 0 -0 -0 1 0 
1 10.586154479633603 10.327955589886445 1.4999999999999998 1 0 0 -0 0 1 0 -1 0 
1 9.2951600308979998 10.3279555898865 2.9999999999999996 -0 -0 -1 -1 0 0 0 1 -0 
1 8.004165582161999 10.3279555898865 1.5 -1 -0 -0 0 0 -1 0 -1 0 
1 6.9713700231735016 9.5533589206449996 3 -0 -0 -1 -1 0 0 0 1 -0 
1 5.9385744641849998 5.1639777949435004 1.5 -1 -0 -0 0 0 -1 0 -1 0 
1 4.0020827910809995 7.4877678026679986 0 -0 -0 -1 -1 0 0 0 1 -0 
1 5.9385744641849998 6.7131711334265001 1.5 -1 -0 -0 0 0 -1 0 -1 0 
1 5.9385744641850007 8.5205633616564995 1.5 -1 -0 -0 0 0 -1 0 -1 0 
1 4.0020827910809977 5.6803755744375435 1.5 -0 -1 -0 0 0 -1 1 -0 0 
1 4.0020827910810004 7.4877678026679986 2.9999999999999996 0 0 1 1 0 -0 -0 1 0 
1 9.2951600308979998 11.360751148875002 1.4999999999999998 -0 -1 -0 0 0 -1 1 -0 0 
1 6.9713700231735007 11.360751148875002 1.5000000000000004 -0 -1 -0 0 0 -1 1 -0 0 
1 4.3893811257020001 10.3279555898865 0 -0 -0 -1 -1 0 0 0 1 -0 
1 5.9385744641849998 10.3279555898865 1.5 -1 -0 -0 0 0 -1 0 -1 0 
1 4.3893811257019992 11.360751148875 1.5 0 1 0 0 -0 1 1 0 -0 
1 4.3893811257019992 9.295160030897998 1.4999999999999998 -0 -1 -0 0 0 -1 1 -0 0 
1 4.3893811257020001 10.3279555898865 3 -0 -0 -1 -1 0 0 0 1 -0 
1 2.4528894525979998 9.2951600308979998 1.4999999999999998 -0 -1 -0 0 0 -1 1 -0 0 
1 2.0655911179772888 7.4877678026676726 1.4999999999999998 -1 -0 -0 0 0 -1 0 -1 0 
1 2.8401877872187722 10.327955589886443 1.4999999999999998 -1 -0 -0 0 0 -1 0 -1 0 
Triangulations 0

TShapes 212
Ve
1.00000223629798e-07
8.004165582162 7.745966692415 0
0 0

0101101
*
Ve
1.0000024454331e-07
9.03696114115098 7.48776780266794 0
0 0

0101101
*
Ed
 1.00000222741619e-07 1 1 0
1  1 0 0 1.06458129484506
2  1 1 0 0 1.06458129484506
2  2 2 0 0 1.06458129484506
2  3 3 0 0 1.06458129484506
0

0101000
+212 0 -211 0 *
Ve
1.00000183878376e-07
9.29516003089803 4.647580015449 0
0 0

0101101
*
Ed
 1.00000165889761e-07 1 1 0
1  2 0 0 2.85189995149454
2  4 1 0 0 2.85189995149454
2  5 4 0 0 2.85189995149454
2  6 3 0 0 2.85189995149454
0

0101000
+211 0 -209 0 *
Ve
1.00000172196996e-07
14.200938936094 4.64758001544897 0
0 0

0101101
*
Ed
 1e-07 1 1 0
1  3 0 0 4.905778905196
2  7 1 0 0 4.905778905196
2  8 5 0 0 4.905778905196
0

0101000
+209 0 -207 0 *
Ve
1.00000355989216e-07
14.2009389360939 9.03696114115082 0
0 0

0101101
*
Ed
 1.00000138555833e-07 1 1 0
1  4 0 0 4.389381125702
2  9 1 0 0 4.389381125702
0

0101000
+207 0 -205 0 *
Ve
1.00000354212859e-07
13.6845411565998 9.55335892064498 0
0 0

0101101
*
Ed
 1.00000354212859e-07 1 1 0
1  5 0 0 0.730296743339765
2  10 1 0 0 0.730296743339765
0

0101000
+205 0 -203 0 *
Ve
1.00000444082104e-07
10.5861544796338 9.29516003089792 0
0 0

0101101
*
Ed
 1.00000155048265e-07 1 1 0
1  6 0 0 3.10912635102966
2  11 1 0 0 3.10912635102966
2  12 6 0 0 3.10912635102966
0

0101000
+203 0 -201 0 *
Ve
1.00000001776357e-07
8.004165582162 9.295160030898 0
0 0

0101101
*
Ed
 1e-07 1 1 0
1  7 0 0 2.581988897472
2  13 1 0 0 2.581988897472
2  14 7 0 0 2.581988897472
2  15 8 0 0 2.581988897472
0

0101000
+201 0 -199 0 *
Ed
 1e-07 1 1 0
1  8 0 0 1.549193338483
2  16 1 0 0 1.549193338483
2  17 9 0 0 1.549193338483
2  18 10 0 0 1.549193338483
0

0101000
+199 0 -212 0 *
Wi

0101100
+210 0 +208 0 +206 0 +204 0 +202 0 +200 0 +198 0 +197 0 *
Fa
0  1e-07 1 0

0111000
+196 0 *
Ve
1.00000222309125e-07
8.004165582162 7.745966692415 3
0 0

0101101
*
Ed
 1e-07 1 1 0
1  9 0 0 3
2  19 9 0 0 3
2  20 2 0 0 3
2  21 11 0 0 3
0

0101000
+212 0 -194 0 *
Ve
1.00000242557282e-07
9.036961141151 7.487767802668 3
0 0

0101101
*
Ed
 1.00000222309125e-07 1 1 0
1  10 0 0 1.06458129484506
2  22 12 0 0 1.06458129484506
2  23 2 0 0 1.06458129484506
0

0101000
+194 0 -192 0 *
Ed
 1.00000242557282e-07 1 1 0
1  11 0 0 3
2  24 2 0 0 3
2  25 4 0 0 3
0

0101000
+211 0 -192 0 *
Wi

0101100
-193 0 -191 0 +190 0 +210 0 *
Fa
0  1e-07 2 0

0101000
+189 0 *
Ve
1.00000181892348e-07
9.295160030898 4.647580015449 3
0 0

0101101
*
Ed
 1.00000164120857e-07 1 1 0
1  12 0 0 2.85189995149454
2  26 12 0 0 2.85189995149454
2  27 4 0 0 2.85189995149454
0

0101000
+192 0 -187 0 *
Ed
 1.00000181892348e-07 1 1 0
1  13 0 0 3
2  28 4 0 0 3
2  29 13 0 0 3
2  30 5 0 0 3
0

0101000
+209 0 -187 0 *
Wi

0101100
-190 0 -186 0 +185 0 +208 0 *
Fa
0  1e-07 4 0

0101000
+184 0 *
Ve
1.00000173085174e-07
14.2009389360939 4.64758001544895 4
0 0

0101101
*
Ed
 1.00000171308818e-07 1 1 0
1  14 0 0 4
2  31 5 0 0 4
0

0101000
+207 0 -182 0 *
Ve
1.00000395204843e-07
9.29516003089799 4.64758001544897 4
0 0

0101101
*
Ed
 1.00000100364161e-07 1 1 0
1  15 0 0 4.905778905196
2  32 5 0 0 4.905778905196
0

0101000
+182 0 -180 0 *
Ed
 1.00000181892348e-07 1 1 0
1  13 0 3 4
2  28 4 0 3 4
2  33 5 0 3 4
0

0101000
+187 0 -180 0 *
Wi

0101100
+206 0 +181 0 +179 0 -178 0 -185 0 *
Fa
0  1e-07 5 0

0111000
+177 0 *
Ve
1.00000000222045e-07
14.2009389360939 9.03696114115064 4
0 0

0101101
*
Ed
 1.00000000222045e-07 1 1 0
1  16 0 0 4
2  34 14 0 0 4
2  35 15 0 0 4
0

0101000
+205 0 -175 0 *
Ed
 1e-07 1 1 0
1  17 0 0 4.38938112570174
2  36 16 0 0 4.38938112570174
2  37 14 0 0 4.38938112570174
0

0101000
+182 0 -175 0 *
Wi

0101100
+204 0 +174 0 -173 0 -181 0 *
Fa
0  1e-07 14 0

0111000
+172 0 *
Ve
1.00000001776357e-07
13.6845411565995 9.55335892064496 4
0 0

0101101
*
Ed
 1.00000000222045e-07 1 1 0
1  18 0 0 4
2  38 15 0 0 4
2  39 6 0 0 4
0

0101000
+203 0 -170 0 *
Ed
 1e-07 1 1 0
1  19 0 0 0.730296743340222
2  40 16 0 0 0.730296743340222
2  41 15 0 0 0.730296743340222
0

0101000
+175 0 -170 0 *
Wi

0101100
+202 0 +169 0 -168 0 -174 0 *
Fa
0  1e-07 15 0

0111000
+167 0 *
Ve
1.00000444082104e-07
10.5861544796338 9.2951600308979 3
0 0

0101101
*
Ed
 1.00000444082104e-07 1 1 0
1  20 0 0 3
2  42 6 0 0 3
2  43 7 0 0 3
2  44 17 0 0 3
0

0101000
+201 0 -165 0 *
Ve
1.00000444082104e-07
10.5861544796338 9.2951600308979 4
0 0

0101101
*
Ed
 1.00000444082104e-07 1 1 0
1  20 0 3 4
2  42 6 0 3 4
2  45 7 0 3 4
0

0101000
+165 0 -163 0 *
Ed
 1.00000001776357e-07 1 1 0
1  21 0 0 3.10912635102961
2  46 16 0 0 3.10912635102961
2  47 6 0 0 3.10912635102961
0

0101000
+170 0 -163 0 *
Wi

0101100
+200 0 +164 0 +162 0 -161 0 -169 0 *
Fa
0  1e-07 6 0

0111000
+160 0 *
Ve
1.00000001776357e-07
8.004165582162 9.295160030898 3
0 0

0101101
*
Ed
 1.00000001776357e-07 1 1 0
1  22 0 0 2.581988897472
2  48 18 0 0 2.581988897472
2  49 7 0 0 2.581988897472
0

0101000
+165 0 -158 0 *
Ed
 1e-07 1 1 0
1  23 0 1 4
2  50 9 0 1 4
2  51 7 0 1 4
2  52 19 0 1 4
0

0101000
+158 0 -199 0 *
Wi

0101100
-164 0 -157 0 -156 0 +198 0 *
Fa
0  1e-07 7 0

0101000
+155 0 *
Ed
 1e-07 1 1 0
1  24 0 0 1.549193338483
2  53 20 0 0 1.549193338483
2  54 9 0 0 1.549193338483
0

0101000
+158 0 -194 0 *
Wi

0101100
+156 0 -153 0 +193 0 +197 0 *
Fa
0  1e-07 9 0

0101000
+152 0 *
Ve
1.00000167453451e-07
8.004165582162 7.74596669241494 4
0 0

0101101
*
Ed
 1e-07 1 1 0
1  9 0 3 4
2  19 9 0 3 4
2  55 2 0 3 4
0

0101000
+194 0 -150 0 *
Ve
1.00000394106994e-07
9.03696114115086 7.48776780266781 4
0 0

0101101
*
Ed
 1.00000165467424e-07 1 1 0
1  25 0 0 1.06458129484506
2  56 2 0 0 1.06458129484506
0

0101000
+148 0 -150 0 *
Ed
 1.00000242557282e-07 1 1 0
1  11 0 3 4
2  24 2 0 3 4
2  57 4 0 3 4
0

0101000
+192 0 -148 0 *
Wi

0101100
-149 0 +147 0 +146 0 +191 0 *
Fa
0  1e-07 2 0

0101000
+145 0 *
Ed
 1.00000393218815e-07 1 1 0
1  26 0 0 2.85189995149454
2  58 4 0 0 2.85189995149454
0

0101000
+180 0 -148 0 *
Wi

0101100
-146 0 +143 0 +178 0 +186 0 *
Fa
0  1e-07 4 0

0101000
+142 0 *
Ve
1.00000203240471e-07
8.004165582162 9.29516003089794 4
0 0

0101101
*
Ed
 1.00000200728323e-07 1 1 0
1  27 0 0 2.581988897472
2  59 7 0 0 2.581988897472
0

0101000
+140 0 -163 0 *
Ed
 1.00000007105427e-07 1 1 0
1  28 0 0 1.549193338483
2  60 9 0 0 1.549193338483
0

0101000
+150 0 -140 0 *
Wi

0101100
-147 0 -143 0 -179 0 +173 0 +168 0 +161 0 -139 0 -138 0 *
Fa
0  1e-07 16 0

0111000
+137 0 *
Ed
 1e-07 1 1 0
1  23 0 0 1
2  50 9 0 0 1
2  61 7 0 0 1
0

0101000
+140 0 -158 0 *
Wi

0101100
-162 0 +139 0 -135 0 +157 0 *
Fa
0  1e-07 7 0

0101000
+134 0 *
Wi

0101100
+135 0 +138 0 +149 0 +153 0 *
Fa
0  1e-07 9 0

0101000
+132 0 *
Sh

0101100
-195 0 +188 0 +183 0 +176 0 +171 0 +166 0 +159 0 +154 0 +151 0 +144 0 
+141 0 +136 0 +133 0 +131 0 *
So

0100000
+130 0 *
Ve
1e-07
5.938574464185 7.745966692415 0
0 0

0101101
*
Ed
 1e-07 1 1 0
1  29 0 0 2.065591117977
2  62 3 0 0 2.065591117977
2  63 11 0 0 2.065591117977
2  64 10 0 0 2.065591117977
0

0101000
+128 0 -212 0 *
Ve
1e-07
5.938574464185 4.647580015449 0
0 0

0101101
*
Ed
 1e-07 1 1 0
1  30 0 0 3.356585566713
2  65 3 0 0 3.356585566713
2  66 13 0 0 3.356585566713
0

0101000
+209 0 -126 0 *
Ve
1.00000545241491e-07
5.93857446418494 5.68037557443791 0
0 0

0101101
*
Ed
 1e-07 1 1 0
1  31 0 0 1.032795558989
2  67 3 0 0 1.032795558989
2  68 21 0 0 1.032795558989
0

0101000
+126 0 -124 0 *
Ed
 1e-07 1 1 0
1  32 0 0 2.065591117977
2  69 22 0 0 2.065591117977
2  70 3 0 0 2.065591117977
2  71 23 0 0 2.065591117977
0

0101000
+128 0 -124 0 *
Wi

0101100
+127 0 +210 0 +208 0 +125 0 +123 0 -122 0 *
Fa
0  1e-07 3 0

0111000
+121 0 *
Ve
1e-07
5.938574464185 7.745966692415 3
0 0

0101101
*
Ed
 1e-07 1 1 0
1  33 0 0 2.065591117977
2  72 11 0 0 2.065591117977
2  73 12 0 0 2.065591117977
2  74 20 0 0 2.065591117977
0

0101000
+194 0 -119 0 *
Ed
 1e-07 1 1 0
1  34 0 0 3
2  75 23 0 0 3
2  76 11 0 0 3
2  77 24 0 0 3
0

0101000
+119 0 -128 0 *
Wi

0101100
+127 0 +193 0 +118 0 +117 0 *
Fa
0  1e-07 11 0

0111000
+116 0 *
Ve
1e-07
5.938574464185 4.647580015449 3
0 0

0101101
*
Ed
 1e-07 1 1 0
1  35 0 0 3.356585566713
2  78 12 0 0 3.356585566713
2  79 13 0 0 3.356585566713
0

0101000
+187 0 -114 0 *
Ed
 1e-07 1 1 0
1  36 0 0 3
2  80 21 0 0 3
2  81 13 0 0 3
0

0101000
+126 0 -114 0 *
Wi

0101100
+185 0 +113 0 -112 0 -125 0 *
Fa
0  1e-07 13 0

0111000
+111 0 *
Ve
1.00000545241491e-07
5.93857446418494 5.68037557443791 3
0 0

0101101
*
Ed
 1e-07 1 1 0
1  37 0 0 1.032795558989
2  82 21 0 0 1.032795558989
2  83 12 0 0 1.032795558989
0

0101000
+114 0 -109 0 *
Ed
 1.00000542729343e-07 1 1 0
1  38 0 0 3
2  84 23 0 0 3
2  85 25 0 0 3
2  86 21 0 0 3
0

0101000
+124 0 -109 0 *
Wi

0101100
+112 0 +108 0 -107 0 -123 0 *
Fa
0  1e-07 21 0

0111000
+106 0 *
Ed
 1e-07 1 1 0
1  39 0 0 2.065591117977
2  87 23 0 0 2.065591117977
2  88 12 0 0 2.065591117977
2  89 26 0 0 2.065591117977
0

0101000
+109 0 -119 0 *
Wi

0101100
+107 0 +104 0 +117 0 +122 0 *
Fa
0  1e-07 23 0

0111000
+103 0 *
Wi

0101100
-118 0 +191 0 +186 0 +113 0 +108 0 +104 0 *
Fa
0  1e-07 12 0

0111000
+101 0 *
Sh

0101100
+120 0 -115 0 -188 0 -183 0 +110 0 +105 0 +102 0 -100 0 *
So

0100000
+99 0 *
Ve
1e-07
8.004165582162 11.360751148875 0
0 0

0101101
*
Ed
 1e-07 1 1 0
1  40 0 0 2.065591117977
2  90 10 0 0 2.065591117977
2  91 8 0 0 2.065591117977
2  92 19 0 0 2.065591117977
0

0101000
+97 0 -199 0 *
Ve
1.0000040596264e-07
10.5861544796339 11.360751148875 0
0 0

0101101
*
Ed
 1e-07 1 1 0
1  41 0 0 2.581988897472
2  93 8 0 0 2.581988897472
2  94 27 0 0 2.581988897472
0

0101000
+97 0 -95 0 *
Ed
 1.00000396127575e-07 1 1 0
1  42 0 0 2.065591117977
2  95 8 0 0 2.065591117977
2  96 17 0 0 2.065591117977
0

0101000
+95 0 -201 0 *
Wi

0101100
-96 0 +94 0 +93 0 +198 0 *
Fa
0  1e-07 8 0

0111000
+92 0 *
Ve
1e-07
8.004165582162 11.360751148875 3
0 0

0101101
*
Ed
 1e-07 1 1 0
1  43 0 0 3
2  97 19 0 0 3
2  98 28 0 0 3
2  99 27 0 0 3
0

0101000
+90 0 -97 0 *
Ed
 1e-07 1 1 0
1  44 0 0 2.065591117977
2  100 19 0 0 2.065591117977
2  101 20 0 0 2.065591117977
2  102 18 0 0 2.065591117977
0

0101000
+158 0 -90 0 *
Wi

0101100
+89 0 +96 0 -156 0 +88 0 *
Fa
0  1e-07 19 0

0111000
+87 0 *
Ve
1.0000040596264e-07
10.5861544796339 11.360751148875 3
0 0

0101101
*
Ed
 1e-07 1 1 0
1  45 0 0 2.581988897472
2  103 27 0 0 2.581988897472
2  104 18 0 0 2.581988897472
0

0101000
+85 0 -90 0 *
Ed
 1.0000040596264e-07 1 1 0
1  46 0 0 3
2  105 27 0 0 3
2  106 17 0 0 3
0

0101000
+95 0 -85 0 *
Wi

0101100
+84 0 +89 0 +94 0 +83 0 *
Fa
0  1e-07 27 0

0111000
+82 0 *
Ed
 1.00000396127575e-07 1 1 0
1  47 0 0 2.065591117977
2  107 18 0 0 2.065591117977
2  108 17 0 0 2.065591117977
0

0101000
+85 0 -165 0 *
Wi

0101100
-93 0 +83 0 +80 0 -164 0 *
Fa
0  1e-07 17 0

0111000
+79 0 *
Wi

0101100
+80 0 +157 0 +88 0 -84 0 *
Fa
0  1e-07 18 0

0111000
+77 0 *
Sh

0101100
+91 0 +86 0 -81 0 +78 0 -154 0 -76 0 *
So

0100000
+75 0 *
Ve
1e-07
5.938574464185 11.360751148875 0
0 0

0101101
*
Ed
 1e-07 1 1 0
1  48 0 0 2.065591117977
2  109 10 0 0 2.065591117977
2  110 28 0 0 2.065591117977
0

0101000
+73 0 -97 0 *
Ve
1.00000001776357e-07
5.938574464185 9.295160030898 0
0 0

0101101
*
Ed
 1e-07 1 1 0
1  49 0 0 1.549193338483
2  111 22 0 0 1.549193338483
2  112 10 0 0 1.549193338483
2  113 24 0 0 1.549193338483
0

0101000
+71 0 -128 0 *
Ed
 1e-07 1 1 0
1  50 0 0 2.065591117977
2  114 10 0 0 2.065591117977
2  115 29 0 0 2.065591117977
2  116 30 0 0 2.065591117977
0

0101000
+71 0 -73 0 *
Wi

0101100
+72 0 +96 0 +197 0 -127 0 -70 0 +69 0 *
Fa
0  1e-07 10 0

0111000
+68 0 *
Ve
1e-07
5.938574464185 11.360751148875 3
0 0

0101101
*
Ed
 1e-07 1 1 0
1  51 0 0 2.065591117977
2  117 28 0 0 2.065591117977
2  118 20 0 0 2.065591117977
0

0101000
+90 0 -66 0 *
Ed
 1e-07 1 1 0
1  52 0 0 3
2  119 31 0 0 3
2  120 28 0 0 3
2  121 30 0 0 3
0

0101000
+66 0 -73 0 *
Wi

0101100
-89 0 +65 0 +64 0 +72 0 *
Fa
0  1e-07 28 0

0111000
+63 0 *
Ve
1.00000001776357e-07
5.938574464185 9.295160030898 3
0 0

0101101
*
Ed
 1e-07 1 1 0
1  53 0 0 1.549193338483
2  122 24 0 0 1.549193338483
2  123 20 0 0 1.549193338483
2  124 26 0 0 1.549193338483
0

0101000
+119 0 -61 0 *
Ed
 1e-07 1 1 0
1  54 0 0 3
2  125 30 0 0 3
2  126 24 0 0 3
2  127 32 0 0 3
0

0101000
+71 0 -61 0 *
Wi

0101100
-117 0 +60 0 -59 0 +70 0 *
Fa
0  1e-07 24 0

0111000
+58 0 *
Ed
 1e-07 1 1 0
1  55 0 0 2.065591117977
2  128 30 0 0 2.065591117977
2  129 20 0 0 2.065591117977
2  130 33 0 0 2.065591117977
0

0101000
+61 0 -66 0 *
Wi

0101100
-69 0 +59 0 +56 0 +64 0 *
Fa
0  1e-07 30 0

0111000
+55 0 *
Wi

0101100
-65 0 -88 0 +153 0 +118 0 +60 0 +56 0 *
Fa
0  1e-07 20 0

0111000
+53 0 *
Sh

0101100
+67 0 -62 0 -86 0 -151 0 +115 0 +57 0 +54 0 -52 0 *
So

0100000
+51 0 *
Ve
1.00000455635529e-07
2.06559111797714 5.68037557443777 0
0 0

0101101
*
Ed
 1.00000455635529e-07 1 1 0
1  56 0 0 3.872983346208
2  131 22 0 0 3.872983346208
2  132 25 0 0 3.872983346208
0

0101000
+124 0 -49 0 *
Ve
1.00000352033754e-07
2.0655911179771 9.29516003089793 0
0 0

0101101
*
Ed
 1.00000288657986e-07 1 1 0
1  57 0 0 3.61478445646
2  133 22 0 0 3.61478445646
0

0101000
+49 0 -47 0 *
Ve
1.0000030374369e-07
2.84018778721895 9.29516003089796 0
0 0

0101101
*
Ed
 1e-07 1 1 0
1  58 0 0 0.774596669241999
2  134 22 0 0 0.774596669241999
2  135 34 0 0 0.774596669241999
0

0101000
+47 0 -45 0 *
Ed
 1e-07 1 1 0
1  59 0 0 3.098386676966
2  136 22 0 0 3.098386676966
2  137 29 0 0 3.098386676966
2  138 32 0 0 3.098386676966
0

0101000
+45 0 -71 0 *
Wi

0101100
+122 0 +48 0 +46 0 +44 0 +43 0 +70 0 *
Fa
0  1e-07 22 0

0111000
+42 0 *
Ve
1.00000455635529e-07
2.06559111797714 5.68037557443777 3
0 0

0101101
*
Ed
 1.00000455635529e-07 1 1 0
1  60 0 0 3.872983346208
2  139 26 0 0 3.872983346208
2  140 25 0 0 3.872983346208
0

0101000
+40 0 -109 0 *
Ed
 1e-07 1 1 0
1  61 0 0 3
2  141 35 0 0 3
2  142 25 0 0 3
0

0101000
+49 0 -40 0 *
Wi

0101100
-48 0 +107 0 -39 0 -38 0 *
Fa
0  1e-07 25 0

0111000
+37 0 *
Ve
1.00000352033754e-07
2.0655911179771 9.29516003089793 3
0 0

0101101
*
Ed
 1.00000288657986e-07 1 1 0
1  62 0 0 3.61478445646
2  143 26 0 0 3.61478445646
0

0101000
+35 0 -40 0 *
Ed
 1.00000351589665e-07 1 1 0
1  63 0 0 3
2  144 34 0 0 3
0

0101000
+35 0 -47 0 *
Wi

0101100
-46 0 +38 0 -34 0 +33 0 *
Fa
0  1e-07 35 0

0111000
+32 0 *
Ve
1.0000030374369e-07
2.84018778721895 9.29516003089796 3
0 0

0101101
*
Ed
 1.00000303299601e-07 1 1 0
1  64 0 0 3
2  145 32 0 0 3
2  146 36 0 0 3
2  147 34 0 0 3
0

0101000
+30 0 -45 0 *
Ed
 1e-07 1 1 0
1  65 0 0 0.774596669241999
2  148 26 0 0 0.774596669241999
2  149 34 0 0 0.774596669241999
0

0101000
+30 0 -35 0 *
Wi

0101100
+33 0 +44 0 -29 0 +28 0 *
Fa
0  1e-07 34 0

0111000
+27 0 *
Ed
 1e-07 1 1 0
1  66 0 0 3.098386676966
2  150 26 0 0 3.098386676966
2  151 32 0 0 3.098386676966
2  152 33 0 0 3.098386676966
0

0101000
+61 0 -30 0 *
Wi

0101100
+59 0 +25 0 +29 0 +43 0 *
Fa
0  1e-07 32 0

0111000
+24 0 *
Wi

0101100
+25 0 +28 0 +34 0 +39 0 +104 0 +60 0 *
Fa
0  1e-07 26 0

0111000
+22 0 *
Sh

0101100
+41 0 -102 0 +36 0 +31 0 -26 0 -23 0 -57 0 +21 0 *
So

0100000
+20 0 *
Ve
1.000002441053e-07
2.84018778721892 11.360751148875 0
0 0

0101101
*
Ed
 1e-07 1 1 0
1  67 0 0 3.098386676966
2  153 29 0 0 3.098386676966
2  154 31 0 0 3.098386676966
0

0101000
+18 0 -73 0 *
Ed
 1.00000227373675e-07 1 1 0
1  68 0 0 2.065591117977
2  155 29 0 0 2.065591117977
2  156 36 0 0 2.065591117977
0

0101000
+45 0 -18 0 *
Wi

0101100
+17 0 -69 0 -43 0 +16 0 *
Fa
0  1e-07 29 0

0111000
+15 0 *
Ve
1.000002441053e-07
2.84018778721892 11.360751148875 3
0 0

0101101
*
Ed
 1.000002441053e-07 1 1 0
1  69 0 0 3
2  157 31 0 0 3
2  158 36 0 0 3
0

0101000
+18 0 -13 0 *
Ed
 1e-07 1 1 0
1  70 0 0 3.098386676966
2  159 31 0 0 3.098386676966
2  160 33 0 0 3.098386676966
0

0101000
+13 0 -66 0 *
Wi

0101100
-17 0 +12 0 +11 0 +64 0 *
Fa
0  1e-07 31 0

0111000
+10 0 *
Ed
 1.00000227373675e-07 1 1 0
1  71 0 0 2.065591117977
2  161 33 0 0 2.065591117977
2  162 36 0 0 2.065591117977
0

0101000
+30 0 -13 0 *
Wi

0101100
-16 0 -29 0 +8 0 -12 0 *
Fa
0  1e-07 36 0

0111000
+7 0 *
Wi

0101100
+11 0 -56 0 +25 0 +8 0 *
Fa
0  1e-07 33 0

0111000
+5 0 *
Sh

0101100
+14 0 +9 0 -54 0 +23 0 +6 0 -4 0 *
So

0100000
+3 0 *
CS

0101000
+129 0 +98 0 +74 0 +50 0 +19 0 +2 0 *

+1 0 